%FSLAX24Y24*%
%MOIN*%
G70*
G01*
G75*
%ADD10C,0.0177*%
%ADD11R,0.0315X0.0374*%
%ADD12R,0.0374X0.0315*%
%ADD13C,0.0100*%
%ADD14R,0.2165X0.0787*%
%ADD15R,0.0394X0.0394*%
%ADD16R,0.0394X0.0394*%
%ADD17O,0.0709X0.0217*%
%ADD18O,0.0217X0.0709*%
%ADD19R,0.0315X0.0512*%
%ADD20O,0.0118X0.0689*%
%ADD21O,0.0689X0.0118*%
%ADD22O,0.0138X0.0650*%
%ADD23R,0.1220X0.1181*%
%ADD24R,0.1102X0.0551*%
%ADD25R,0.0787X0.0630*%
G04:AMPARAMS|DCode=26|XSize=228.3mil|YSize=82.7mil|CornerRadius=20.7mil|HoleSize=0mil|Usage=FLASHONLY|Rotation=180.000|XOffset=0mil|YOffset=0mil|HoleType=Round|Shape=RoundedRectangle|*
%AMROUNDEDRECTD26*
21,1,0.2283,0.0413,0,0,180.0*
21,1,0.1870,0.0827,0,0,180.0*
1,1,0.0413,-0.0935,0.0207*
1,1,0.0413,0.0935,0.0207*
1,1,0.0413,0.0935,-0.0207*
1,1,0.0413,-0.0935,-0.0207*
%
%ADD26ROUNDEDRECTD26*%
%ADD27R,0.0335X0.0138*%
%ADD28R,0.0335X0.0135*%
%ADD29R,0.0291X0.0728*%
%ADD30O,0.0866X0.0236*%
%ADD31R,0.0512X0.0315*%
%ADD32C,0.0120*%
%ADD33C,0.0200*%
%ADD34C,0.0350*%
%ADD35C,0.0250*%
%ADD36C,0.0080*%
%ADD37R,0.2874X0.2874*%
%ADD38R,0.0768X0.0768*%
%ADD39R,0.0197X0.0138*%
%ADD40R,0.0138X0.0197*%
%ADD41R,0.0532X0.0197*%
%ADD42R,0.1299X0.0866*%
%ADD43R,0.0256X0.0866*%
%ADD44R,0.0236X0.0453*%
%ADD45R,0.0453X0.0236*%
%ADD46R,0.0256X0.0335*%
%ADD47C,0.0150*%
%ADD48R,0.0374X0.0295*%
%ADD49R,0.0295X0.0374*%
%ADD50O,0.0630X0.0138*%
%ADD51R,0.0472X0.0217*%
%ADD52O,0.0669X0.0138*%
%ADD53R,0.3012X0.3012*%
%ADD54O,0.0335X0.0098*%
%ADD55O,0.0098X0.0335*%
%ADD56R,0.1378X0.0689*%
%ADD57R,0.0984X0.0689*%
%ADD58R,0.0886X0.0197*%
%ADD59R,0.0315X0.0354*%
%ADD60R,0.0354X0.0315*%
%ADD61R,0.0354X0.0295*%
%ADD62R,0.0295X0.0354*%
%ADD63C,0.0300*%
%ADD64C,0.0160*%
%ADD65P,0.4259X4X360.0*%
G04:AMPARAMS|DCode=66|XSize=9.8mil|YSize=33.5mil|CornerRadius=0mil|HoleSize=0mil|Usage=FLASHONLY|Rotation=315.000|XOffset=0mil|YOffset=0mil|HoleType=Round|Shape=Round|*
%AMOVALD66*
21,1,0.0236,0.0098,0.0000,0.0000,45.0*
1,1,0.0098,-0.0084,-0.0084*
1,1,0.0098,0.0084,0.0084*
%
%ADD66OVALD66*%

G04:AMPARAMS|DCode=67|XSize=9.8mil|YSize=33.5mil|CornerRadius=0mil|HoleSize=0mil|Usage=FLASHONLY|Rotation=45.000|XOffset=0mil|YOffset=0mil|HoleType=Round|Shape=Round|*
%AMOVALD67*
21,1,0.0236,0.0098,0.0000,0.0000,135.0*
1,1,0.0098,0.0084,-0.0084*
1,1,0.0098,-0.0084,0.0084*
%
%ADD67OVALD67*%

G04:AMPARAMS|DCode=68|XSize=37.4mil|YSize=31.5mil|CornerRadius=0mil|HoleSize=0mil|Usage=FLASHONLY|Rotation=45.000|XOffset=0mil|YOffset=0mil|HoleType=Round|Shape=Rectangle|*
%AMROTATEDRECTD68*
4,1,4,-0.0021,-0.0244,-0.0244,-0.0021,0.0021,0.0244,0.0244,0.0021,-0.0021,-0.0244,0.0*
%
%ADD68ROTATEDRECTD68*%

G04:AMPARAMS|DCode=69|XSize=37.4mil|YSize=31.5mil|CornerRadius=0mil|HoleSize=0mil|Usage=FLASHONLY|Rotation=135.000|XOffset=0mil|YOffset=0mil|HoleType=Round|Shape=Rectangle|*
%AMROTATEDRECTD69*
4,1,4,0.0244,-0.0021,0.0021,-0.0244,-0.0244,0.0021,-0.0021,0.0244,0.0244,-0.0021,0.0*
%
%ADD69ROTATEDRECTD69*%

%ADD70R,0.0591X0.0236*%
%ADD71R,0.0315X0.0315*%
%ADD72R,0.0906X0.1417*%
%ADD73C,0.0180*%
%ADD74C,0.0250*%
%ADD75C,0.0591*%
%ADD76R,0.0591X0.0591*%
%ADD77C,0.0860*%
%ADD78C,0.0354*%
%ADD79C,0.0500*%
%ADD80C,0.0350*%
%ADD81C,0.0450*%
%ADD82R,0.0591X0.0591*%
%ADD83C,0.0600*%
%ADD84R,0.0600X0.0600*%
%ADD85R,0.0600X0.0600*%
%ADD86C,0.0400*%
%ADD87C,0.0300*%
%ADD88C,0.0394*%
%ADD89C,0.0320*%
%ADD90C,0.0500*%
%ADD91R,6.4140X0.0760*%
%ADD92R,6.4010X0.0760*%
%ADD93R,6.4060X0.0610*%
%ADD94R,0.0980X7.3930*%
%ADD95R,0.3150X0.0394*%
%ADD96R,0.0472X0.0256*%
%ADD97C,0.0236*%
%ADD98R,0.2180X0.0830*%
%ADD99R,0.2006X0.0179*%
%ADD100R,0.0456X0.1019*%
%ADD101R,0.0256X0.0472*%
%ADD102R,0.0374X0.0118*%
%ADD103R,0.0118X0.0374*%
%ADD104R,0.1260X0.1260*%
%ADD105R,0.0217X0.0472*%
%ADD106C,0.0060*%
D10*
X66290Y52730D02*
D03*
Y53045D02*
D03*
Y53360D02*
D03*
Y53675D02*
D03*
Y53990D02*
D03*
X66605Y52415D02*
D03*
Y53045D02*
D03*
Y53360D02*
D03*
Y53675D02*
D03*
Y54305D02*
D03*
X66920Y52415D02*
D03*
Y52730D02*
D03*
Y53990D02*
D03*
Y54305D02*
D03*
X67235Y52415D02*
D03*
Y52730D02*
D03*
Y53990D02*
D03*
Y54305D02*
D03*
X67550Y52415D02*
D03*
Y52730D02*
D03*
Y53990D02*
D03*
Y54305D02*
D03*
X67865Y52415D02*
D03*
Y53045D02*
D03*
Y53360D02*
D03*
Y53675D02*
D03*
Y54305D02*
D03*
X68180Y52730D02*
D03*
Y53045D02*
D03*
Y53360D02*
D03*
Y53675D02*
D03*
Y53990D02*
D03*
X66290Y59130D02*
D03*
Y59445D02*
D03*
Y59760D02*
D03*
Y60075D02*
D03*
Y60390D02*
D03*
X66605Y58815D02*
D03*
Y59445D02*
D03*
Y59760D02*
D03*
Y60075D02*
D03*
Y60705D02*
D03*
X66920Y58815D02*
D03*
Y59130D02*
D03*
Y60390D02*
D03*
Y60705D02*
D03*
X67235Y58815D02*
D03*
Y59130D02*
D03*
Y60390D02*
D03*
Y60705D02*
D03*
X67550Y58815D02*
D03*
Y59130D02*
D03*
Y60390D02*
D03*
Y60705D02*
D03*
X67865Y58815D02*
D03*
Y59445D02*
D03*
Y59760D02*
D03*
Y60075D02*
D03*
Y60705D02*
D03*
X68180Y59130D02*
D03*
Y59445D02*
D03*
Y59760D02*
D03*
Y60075D02*
D03*
Y60390D02*
D03*
X66290Y65530D02*
D03*
Y65845D02*
D03*
Y66160D02*
D03*
Y66475D02*
D03*
Y66790D02*
D03*
X66605Y65215D02*
D03*
Y65845D02*
D03*
Y66160D02*
D03*
Y66475D02*
D03*
Y67105D02*
D03*
X66920Y65215D02*
D03*
Y65530D02*
D03*
Y66790D02*
D03*
Y67105D02*
D03*
X67235Y65215D02*
D03*
Y65530D02*
D03*
Y66790D02*
D03*
Y67105D02*
D03*
X67550Y65215D02*
D03*
Y65530D02*
D03*
Y66790D02*
D03*
Y67105D02*
D03*
X67865Y65215D02*
D03*
Y65845D02*
D03*
Y66160D02*
D03*
Y66475D02*
D03*
Y67105D02*
D03*
X68180Y65530D02*
D03*
Y65845D02*
D03*
Y66160D02*
D03*
Y66475D02*
D03*
Y66790D02*
D03*
X66290Y71880D02*
D03*
Y72195D02*
D03*
Y72510D02*
D03*
Y72825D02*
D03*
Y73140D02*
D03*
X66605Y71565D02*
D03*
Y72195D02*
D03*
Y72510D02*
D03*
Y72825D02*
D03*
Y73455D02*
D03*
X66920Y71565D02*
D03*
Y71880D02*
D03*
Y73140D02*
D03*
Y73455D02*
D03*
X67235Y71565D02*
D03*
Y71880D02*
D03*
Y73140D02*
D03*
Y73455D02*
D03*
X67550Y71565D02*
D03*
Y71880D02*
D03*
Y73140D02*
D03*
Y73455D02*
D03*
X67865Y71565D02*
D03*
Y72195D02*
D03*
Y72510D02*
D03*
Y72825D02*
D03*
Y73455D02*
D03*
X68180Y71880D02*
D03*
Y72195D02*
D03*
Y72510D02*
D03*
Y72825D02*
D03*
Y73140D02*
D03*
X66290Y27180D02*
D03*
Y27495D02*
D03*
Y27810D02*
D03*
Y28125D02*
D03*
Y28440D02*
D03*
X66605Y26865D02*
D03*
Y27495D02*
D03*
Y27810D02*
D03*
Y28125D02*
D03*
Y28755D02*
D03*
X66920Y26865D02*
D03*
Y27180D02*
D03*
Y28440D02*
D03*
Y28755D02*
D03*
X67235Y26865D02*
D03*
Y27180D02*
D03*
Y28440D02*
D03*
Y28755D02*
D03*
X67550Y26865D02*
D03*
Y27180D02*
D03*
Y28440D02*
D03*
Y28755D02*
D03*
X67865Y26865D02*
D03*
Y27495D02*
D03*
Y27810D02*
D03*
Y28125D02*
D03*
Y28755D02*
D03*
X68180Y27180D02*
D03*
Y27495D02*
D03*
Y27810D02*
D03*
Y28125D02*
D03*
Y28440D02*
D03*
X66290Y33580D02*
D03*
Y33895D02*
D03*
Y34210D02*
D03*
Y34525D02*
D03*
Y34840D02*
D03*
X66605Y33265D02*
D03*
Y33895D02*
D03*
Y34210D02*
D03*
Y34525D02*
D03*
Y35155D02*
D03*
X66920Y33265D02*
D03*
Y33580D02*
D03*
Y34840D02*
D03*
Y35155D02*
D03*
X67235Y33265D02*
D03*
Y33580D02*
D03*
Y34840D02*
D03*
Y35155D02*
D03*
X67550Y33265D02*
D03*
Y33580D02*
D03*
Y34840D02*
D03*
Y35155D02*
D03*
X67865Y33265D02*
D03*
Y33895D02*
D03*
Y34210D02*
D03*
Y34525D02*
D03*
Y35155D02*
D03*
X68180Y33580D02*
D03*
Y33895D02*
D03*
Y34210D02*
D03*
Y34525D02*
D03*
Y34840D02*
D03*
X66290Y39980D02*
D03*
Y40295D02*
D03*
Y40610D02*
D03*
Y40925D02*
D03*
Y41240D02*
D03*
X66605Y39665D02*
D03*
Y40295D02*
D03*
Y40610D02*
D03*
Y40925D02*
D03*
Y41555D02*
D03*
X66920Y39665D02*
D03*
Y39980D02*
D03*
Y41240D02*
D03*
Y41555D02*
D03*
X67235Y39665D02*
D03*
Y39980D02*
D03*
Y41240D02*
D03*
Y41555D02*
D03*
X67550Y39665D02*
D03*
Y39980D02*
D03*
Y41240D02*
D03*
Y41555D02*
D03*
X67865Y39665D02*
D03*
Y40295D02*
D03*
Y40610D02*
D03*
Y40925D02*
D03*
Y41555D02*
D03*
X68180Y39980D02*
D03*
Y40295D02*
D03*
Y40610D02*
D03*
Y40925D02*
D03*
Y41240D02*
D03*
X66290Y46330D02*
D03*
Y46645D02*
D03*
Y46960D02*
D03*
Y47275D02*
D03*
Y47590D02*
D03*
X66605Y46015D02*
D03*
Y46645D02*
D03*
Y46960D02*
D03*
Y47275D02*
D03*
Y47905D02*
D03*
X66920Y46015D02*
D03*
Y46330D02*
D03*
Y47590D02*
D03*
Y47905D02*
D03*
X67235Y46015D02*
D03*
Y46330D02*
D03*
Y47590D02*
D03*
Y47905D02*
D03*
X67550Y46015D02*
D03*
Y46330D02*
D03*
Y47590D02*
D03*
Y47905D02*
D03*
X67865Y46015D02*
D03*
Y46645D02*
D03*
Y46960D02*
D03*
Y47275D02*
D03*
Y47905D02*
D03*
X68180Y46330D02*
D03*
Y46645D02*
D03*
Y46960D02*
D03*
Y47275D02*
D03*
Y47590D02*
D03*
X48470Y82930D02*
D03*
X48785D02*
D03*
X49100D02*
D03*
X49415D02*
D03*
X49730D02*
D03*
X48155Y82615D02*
D03*
X48785D02*
D03*
X49100D02*
D03*
X49415D02*
D03*
X50045D02*
D03*
X48155Y82300D02*
D03*
X48470D02*
D03*
X49730D02*
D03*
X50045D02*
D03*
X48155Y81985D02*
D03*
X48470D02*
D03*
X49730D02*
D03*
X50045D02*
D03*
X48155Y81670D02*
D03*
X48470D02*
D03*
X49730D02*
D03*
X50045D02*
D03*
X48155Y81355D02*
D03*
X48785D02*
D03*
X49100D02*
D03*
X49415D02*
D03*
X50045D02*
D03*
X48470Y81040D02*
D03*
X48785D02*
D03*
X49100D02*
D03*
X49415D02*
D03*
X49730D02*
D03*
X26970Y82930D02*
D03*
X27285D02*
D03*
X27600D02*
D03*
X27915D02*
D03*
X28230D02*
D03*
X26655Y82615D02*
D03*
X27285D02*
D03*
X27600D02*
D03*
X27915D02*
D03*
X28545D02*
D03*
X26655Y82300D02*
D03*
X26970D02*
D03*
X28230D02*
D03*
X28545D02*
D03*
X26655Y81985D02*
D03*
X26970D02*
D03*
X28230D02*
D03*
X28545D02*
D03*
X26655Y81670D02*
D03*
X26970D02*
D03*
X28230D02*
D03*
X28545D02*
D03*
X26655Y81355D02*
D03*
X27285D02*
D03*
X27600D02*
D03*
X27915D02*
D03*
X28545D02*
D03*
X26970Y81040D02*
D03*
X27285D02*
D03*
X27600D02*
D03*
X27915D02*
D03*
X28230D02*
D03*
X66290Y20730D02*
D03*
Y21045D02*
D03*
Y21360D02*
D03*
Y21675D02*
D03*
Y21990D02*
D03*
X66605Y20415D02*
D03*
Y21045D02*
D03*
Y21360D02*
D03*
Y21675D02*
D03*
Y22305D02*
D03*
X66920Y20415D02*
D03*
Y20730D02*
D03*
Y21990D02*
D03*
Y22305D02*
D03*
X67235Y20415D02*
D03*
Y20730D02*
D03*
Y21990D02*
D03*
Y22305D02*
D03*
X67550Y20415D02*
D03*
Y20730D02*
D03*
Y21990D02*
D03*
Y22305D02*
D03*
X67865Y20415D02*
D03*
Y21045D02*
D03*
Y21360D02*
D03*
Y21675D02*
D03*
Y22305D02*
D03*
X68180Y20730D02*
D03*
Y21045D02*
D03*
Y21360D02*
D03*
Y21675D02*
D03*
Y21990D02*
D03*
X66290Y14380D02*
D03*
Y14695D02*
D03*
Y15010D02*
D03*
Y15325D02*
D03*
Y15640D02*
D03*
X66605Y14065D02*
D03*
Y14695D02*
D03*
Y15010D02*
D03*
Y15325D02*
D03*
Y15955D02*
D03*
X66920Y14065D02*
D03*
Y14380D02*
D03*
Y15640D02*
D03*
Y15955D02*
D03*
X67235Y14065D02*
D03*
Y14380D02*
D03*
Y15640D02*
D03*
Y15955D02*
D03*
X67550Y14065D02*
D03*
Y14380D02*
D03*
Y15640D02*
D03*
Y15955D02*
D03*
X67865Y14065D02*
D03*
Y14695D02*
D03*
Y15010D02*
D03*
Y15325D02*
D03*
Y15955D02*
D03*
X68180Y14380D02*
D03*
Y14695D02*
D03*
Y15010D02*
D03*
Y15325D02*
D03*
Y15640D02*
D03*
X66290Y7980D02*
D03*
Y8295D02*
D03*
Y8610D02*
D03*
Y8925D02*
D03*
Y9240D02*
D03*
X66605Y7665D02*
D03*
Y8295D02*
D03*
Y8610D02*
D03*
Y8925D02*
D03*
Y9555D02*
D03*
X66920Y7665D02*
D03*
Y7980D02*
D03*
Y9240D02*
D03*
Y9555D02*
D03*
X67235Y7665D02*
D03*
Y7980D02*
D03*
Y9240D02*
D03*
Y9555D02*
D03*
X67550Y7665D02*
D03*
Y7980D02*
D03*
Y9240D02*
D03*
Y9555D02*
D03*
X67865Y7665D02*
D03*
Y8295D02*
D03*
Y8610D02*
D03*
Y8925D02*
D03*
Y9555D02*
D03*
X68180Y7980D02*
D03*
Y8295D02*
D03*
Y8610D02*
D03*
Y8925D02*
D03*
Y9240D02*
D03*
X66290Y1580D02*
D03*
Y1895D02*
D03*
Y2210D02*
D03*
Y2525D02*
D03*
Y2840D02*
D03*
X66605Y1265D02*
D03*
Y1895D02*
D03*
Y2210D02*
D03*
Y2525D02*
D03*
Y3155D02*
D03*
X66920Y1265D02*
D03*
Y1580D02*
D03*
Y2840D02*
D03*
Y3155D02*
D03*
X67235Y1265D02*
D03*
Y1580D02*
D03*
Y2840D02*
D03*
Y3155D02*
D03*
X67550Y1265D02*
D03*
Y1580D02*
D03*
Y2840D02*
D03*
Y3155D02*
D03*
X67865Y1265D02*
D03*
Y1895D02*
D03*
Y2210D02*
D03*
Y2525D02*
D03*
Y3155D02*
D03*
X68180Y1580D02*
D03*
Y1895D02*
D03*
Y2210D02*
D03*
Y2525D02*
D03*
Y2840D02*
D03*
X5470Y82930D02*
D03*
X5785D02*
D03*
X6100D02*
D03*
X6415D02*
D03*
X6730D02*
D03*
X5155Y82615D02*
D03*
X5785D02*
D03*
X6100D02*
D03*
X6415D02*
D03*
X7045D02*
D03*
X5155Y82300D02*
D03*
X5470D02*
D03*
X6730D02*
D03*
X7045D02*
D03*
X5155Y81985D02*
D03*
X5470D02*
D03*
X6730D02*
D03*
X7045D02*
D03*
X5155Y81670D02*
D03*
X5470D02*
D03*
X6730D02*
D03*
X7045D02*
D03*
X5155Y81355D02*
D03*
X5785D02*
D03*
X6100D02*
D03*
X6415D02*
D03*
X7045D02*
D03*
X5470Y81040D02*
D03*
X5785D02*
D03*
X6100D02*
D03*
X6415D02*
D03*
X6730D02*
D03*
D11*
X67355Y55330D02*
D03*
X67945D02*
D03*
X66845D02*
D03*
X66255D02*
D03*
X66245Y51380D02*
D03*
X65655D02*
D03*
X67295D02*
D03*
X66705D02*
D03*
X68395D02*
D03*
X67805D02*
D03*
X67355Y61730D02*
D03*
X67945D02*
D03*
X66845D02*
D03*
X66255D02*
D03*
X66245Y57780D02*
D03*
X65655D02*
D03*
X67295D02*
D03*
X66705D02*
D03*
X68395D02*
D03*
X67805D02*
D03*
X67355Y68130D02*
D03*
X67945D02*
D03*
X66845D02*
D03*
X66255D02*
D03*
X66245Y64180D02*
D03*
X65655D02*
D03*
X67295D02*
D03*
X66705D02*
D03*
X68395D02*
D03*
X67805D02*
D03*
X67355Y74480D02*
D03*
X67945D02*
D03*
X66845D02*
D03*
X66255D02*
D03*
X66245Y70530D02*
D03*
X65655D02*
D03*
X67295D02*
D03*
X66705D02*
D03*
X68395D02*
D03*
X67805D02*
D03*
X67355Y29780D02*
D03*
X67945D02*
D03*
X66845D02*
D03*
X66255D02*
D03*
X66245Y25830D02*
D03*
X65655D02*
D03*
X67295D02*
D03*
X66705D02*
D03*
X68395D02*
D03*
X67805D02*
D03*
X67355Y36180D02*
D03*
X67945D02*
D03*
X66845D02*
D03*
X66255D02*
D03*
X66245Y32230D02*
D03*
X65655D02*
D03*
X67295D02*
D03*
X66705D02*
D03*
X68395D02*
D03*
X67805D02*
D03*
X67355Y42580D02*
D03*
X67945D02*
D03*
X66845D02*
D03*
X66255D02*
D03*
X66245Y38630D02*
D03*
X65655D02*
D03*
X67295D02*
D03*
X66705D02*
D03*
X68395D02*
D03*
X67805D02*
D03*
X67355Y48930D02*
D03*
X67945D02*
D03*
X66845D02*
D03*
X66255D02*
D03*
X66245Y44980D02*
D03*
X65655D02*
D03*
X67295D02*
D03*
X66705D02*
D03*
X68395D02*
D03*
X67805D02*
D03*
X54415Y57390D02*
D03*
X53825D02*
D03*
X48695Y59210D02*
D03*
X48105D02*
D03*
X53105Y58760D02*
D03*
X52515D02*
D03*
X57365Y60910D02*
D03*
X56775D02*
D03*
X58725Y59730D02*
D03*
X59315D02*
D03*
X58715Y58600D02*
D03*
X59305D02*
D03*
X58725Y57610D02*
D03*
X59315D02*
D03*
X50975Y51280D02*
D03*
X50385D02*
D03*
X46195Y47920D02*
D03*
X46785D02*
D03*
X48055D02*
D03*
X47465D02*
D03*
X58225Y49980D02*
D03*
X58815D02*
D03*
X60665Y46290D02*
D03*
X61255D02*
D03*
X55875Y60920D02*
D03*
X55285D02*
D03*
X52205Y54580D02*
D03*
X52795D02*
D03*
X45015Y47950D02*
D03*
X44425D02*
D03*
X50405Y52540D02*
D03*
X50995D02*
D03*
X53045Y83890D02*
D03*
X53635D02*
D03*
X48215Y80020D02*
D03*
X48805D02*
D03*
X50195Y80010D02*
D03*
X49605D02*
D03*
X49645Y83960D02*
D03*
X49055D02*
D03*
X47805D02*
D03*
X48395D02*
D03*
X49075Y76690D02*
D03*
X49665D02*
D03*
X49075Y76190D02*
D03*
X49665D02*
D03*
X47385Y71910D02*
D03*
X47975D02*
D03*
X44775Y76880D02*
D03*
X45365D02*
D03*
X44765Y76380D02*
D03*
X45355D02*
D03*
X44725Y75410D02*
D03*
X45315D02*
D03*
X44725Y74930D02*
D03*
X45315D02*
D03*
X44735Y74330D02*
D03*
X45325D02*
D03*
X44735Y73850D02*
D03*
X45325D02*
D03*
X44755Y73150D02*
D03*
X45345D02*
D03*
X44775Y72670D02*
D03*
X45365D02*
D03*
X46125Y77480D02*
D03*
X46715D02*
D03*
Y76980D02*
D03*
X46125D02*
D03*
X47375Y77480D02*
D03*
X47965D02*
D03*
Y76980D02*
D03*
X47375D02*
D03*
X49075Y75280D02*
D03*
X49665D02*
D03*
X49075Y74780D02*
D03*
X49665D02*
D03*
X49075Y74300D02*
D03*
X49665D02*
D03*
X49075Y73820D02*
D03*
X49665D02*
D03*
X49075Y73040D02*
D03*
X49665D02*
D03*
X49075Y72560D02*
D03*
X49665D02*
D03*
X47975Y72390D02*
D03*
X47385D02*
D03*
X46085Y72400D02*
D03*
X46675D02*
D03*
X46675Y71920D02*
D03*
X46085D02*
D03*
X52205Y74250D02*
D03*
X52795D02*
D03*
X59515Y69760D02*
D03*
X58925D02*
D03*
X58465Y68460D02*
D03*
X59055D02*
D03*
X60635D02*
D03*
X60045D02*
D03*
X45365Y68470D02*
D03*
X45955D02*
D03*
X47545D02*
D03*
X46955D02*
D03*
X49225Y77580D02*
D03*
X49815D02*
D03*
X56155Y74210D02*
D03*
X56745D02*
D03*
X53325Y76140D02*
D03*
X52735D02*
D03*
X53325Y76630D02*
D03*
X52735D02*
D03*
X53025Y78970D02*
D03*
X52435D02*
D03*
X53025Y78480D02*
D03*
X52435D02*
D03*
X53905Y81370D02*
D03*
X53315D02*
D03*
X50495Y66320D02*
D03*
X49905D02*
D03*
X31545Y83890D02*
D03*
X32135D02*
D03*
X26715Y80020D02*
D03*
X27305D02*
D03*
X28695Y80010D02*
D03*
X28105D02*
D03*
X28145Y83960D02*
D03*
X27555D02*
D03*
X26305D02*
D03*
X26895D02*
D03*
X27575Y76690D02*
D03*
X28165D02*
D03*
X27575Y76190D02*
D03*
X28165D02*
D03*
X25885Y71910D02*
D03*
X26475D02*
D03*
X23275Y76880D02*
D03*
X23865D02*
D03*
X23265Y76380D02*
D03*
X23855D02*
D03*
X23225Y75410D02*
D03*
X23815D02*
D03*
X23225Y74930D02*
D03*
X23815D02*
D03*
X23235Y74330D02*
D03*
X23825D02*
D03*
X23235Y73850D02*
D03*
X23825D02*
D03*
X23255Y73150D02*
D03*
X23845D02*
D03*
X23275Y72670D02*
D03*
X23865D02*
D03*
X24625Y77480D02*
D03*
X25215D02*
D03*
Y76980D02*
D03*
X24625D02*
D03*
X25875Y77480D02*
D03*
X26465D02*
D03*
Y76980D02*
D03*
X25875D02*
D03*
X27575Y75280D02*
D03*
X28165D02*
D03*
X27575Y74780D02*
D03*
X28165D02*
D03*
X27575Y74300D02*
D03*
X28165D02*
D03*
X27575Y73820D02*
D03*
X28165D02*
D03*
X27575Y73040D02*
D03*
X28165D02*
D03*
X27575Y72560D02*
D03*
X28165D02*
D03*
X26475Y72390D02*
D03*
X25885D02*
D03*
X24585Y72400D02*
D03*
X25175D02*
D03*
X25175Y71920D02*
D03*
X24585D02*
D03*
X30705Y74250D02*
D03*
X31295D02*
D03*
X38015Y69760D02*
D03*
X37425D02*
D03*
X36965Y68460D02*
D03*
X37555D02*
D03*
X39135D02*
D03*
X38545D02*
D03*
X23865Y68470D02*
D03*
X24455D02*
D03*
X26045D02*
D03*
X25455D02*
D03*
X27725Y77580D02*
D03*
X28315D02*
D03*
X34655Y74210D02*
D03*
X35245D02*
D03*
X31825Y76140D02*
D03*
X31235D02*
D03*
X31825Y76630D02*
D03*
X31235D02*
D03*
X31525Y78970D02*
D03*
X30935D02*
D03*
X31525Y78480D02*
D03*
X30935D02*
D03*
X32405Y81370D02*
D03*
X31815D02*
D03*
X28995Y66320D02*
D03*
X28405D02*
D03*
X32915Y57390D02*
D03*
X32325D02*
D03*
X27195Y59210D02*
D03*
X26605D02*
D03*
X31605Y58760D02*
D03*
X31015D02*
D03*
X35865Y60910D02*
D03*
X35275D02*
D03*
X37225Y59730D02*
D03*
X37815D02*
D03*
X37215Y58600D02*
D03*
X37805D02*
D03*
X37225Y57610D02*
D03*
X37815D02*
D03*
X29475Y51280D02*
D03*
X28885D02*
D03*
X24695Y47920D02*
D03*
X25285D02*
D03*
X26555D02*
D03*
X25965D02*
D03*
X36725Y49980D02*
D03*
X37315D02*
D03*
X39165Y46290D02*
D03*
X39755D02*
D03*
X34375Y60920D02*
D03*
X33785D02*
D03*
X30705Y54580D02*
D03*
X31295D02*
D03*
X23515Y47950D02*
D03*
X22925D02*
D03*
X28905Y52540D02*
D03*
X29495D02*
D03*
X67355Y23330D02*
D03*
X67945D02*
D03*
X66845D02*
D03*
X66255D02*
D03*
X66245Y19380D02*
D03*
X65655D02*
D03*
X67295D02*
D03*
X66705D02*
D03*
X68395D02*
D03*
X67805D02*
D03*
X67355Y16980D02*
D03*
X67945D02*
D03*
X66845D02*
D03*
X66255D02*
D03*
X66245Y13030D02*
D03*
X65655D02*
D03*
X67295D02*
D03*
X66705D02*
D03*
X68395D02*
D03*
X67805D02*
D03*
X67355Y10580D02*
D03*
X67945D02*
D03*
X66845D02*
D03*
X66255D02*
D03*
X66245Y6630D02*
D03*
X65655D02*
D03*
X67295D02*
D03*
X66705D02*
D03*
X68395D02*
D03*
X67805D02*
D03*
X67355Y4180D02*
D03*
X67945D02*
D03*
X66845D02*
D03*
X66255D02*
D03*
X66245Y230D02*
D03*
X65655D02*
D03*
X67295D02*
D03*
X66705D02*
D03*
X68395D02*
D03*
X67805D02*
D03*
X11415Y57390D02*
D03*
X10825D02*
D03*
X5695Y59210D02*
D03*
X5105D02*
D03*
X10105Y58760D02*
D03*
X9515D02*
D03*
X14365Y60910D02*
D03*
X13775D02*
D03*
X15725Y59730D02*
D03*
X16315D02*
D03*
X15715Y58600D02*
D03*
X16305D02*
D03*
X15725Y57610D02*
D03*
X16315D02*
D03*
X7975Y51280D02*
D03*
X7385D02*
D03*
X3195Y47920D02*
D03*
X3785D02*
D03*
X5055D02*
D03*
X4465D02*
D03*
X15225Y49980D02*
D03*
X15815D02*
D03*
X17665Y46290D02*
D03*
X18255D02*
D03*
X12875Y60920D02*
D03*
X12285D02*
D03*
X9205Y54580D02*
D03*
X9795D02*
D03*
X2015Y47950D02*
D03*
X1425D02*
D03*
X7405Y52540D02*
D03*
X7995D02*
D03*
X10045Y83890D02*
D03*
X10635D02*
D03*
X5215Y80020D02*
D03*
X5805D02*
D03*
X7195Y80010D02*
D03*
X6605D02*
D03*
X6645Y83960D02*
D03*
X6055D02*
D03*
X4805D02*
D03*
X5395D02*
D03*
X6075Y76690D02*
D03*
X6665D02*
D03*
X6075Y76190D02*
D03*
X6665D02*
D03*
X4385Y71910D02*
D03*
X4975D02*
D03*
X1775Y76880D02*
D03*
X2365D02*
D03*
X1765Y76380D02*
D03*
X2355D02*
D03*
X1725Y75410D02*
D03*
X2315D02*
D03*
X1725Y74930D02*
D03*
X2315D02*
D03*
X1735Y74330D02*
D03*
X2325D02*
D03*
X1735Y73850D02*
D03*
X2325D02*
D03*
X1755Y73150D02*
D03*
X2345D02*
D03*
X1775Y72670D02*
D03*
X2365D02*
D03*
X3125Y77480D02*
D03*
X3715D02*
D03*
Y76980D02*
D03*
X3125D02*
D03*
X4375Y77480D02*
D03*
X4965D02*
D03*
Y76980D02*
D03*
X4375D02*
D03*
X6075Y75280D02*
D03*
X6665D02*
D03*
X6075Y74780D02*
D03*
X6665D02*
D03*
X6075Y74300D02*
D03*
X6665D02*
D03*
X6075Y73820D02*
D03*
X6665D02*
D03*
X6075Y73040D02*
D03*
X6665D02*
D03*
X6075Y72560D02*
D03*
X6665D02*
D03*
X4975Y72390D02*
D03*
X4385D02*
D03*
X3085Y72400D02*
D03*
X3675D02*
D03*
X3675Y71920D02*
D03*
X3085D02*
D03*
X9205Y74250D02*
D03*
X9795D02*
D03*
X16515Y69760D02*
D03*
X15925D02*
D03*
X15465Y68460D02*
D03*
X16055D02*
D03*
X17635D02*
D03*
X17045D02*
D03*
X2365Y68470D02*
D03*
X2955D02*
D03*
X4545D02*
D03*
X3955D02*
D03*
X6225Y77580D02*
D03*
X6815D02*
D03*
X13155Y74210D02*
D03*
X13745D02*
D03*
X10325Y76140D02*
D03*
X9735D02*
D03*
X10325Y76630D02*
D03*
X9735D02*
D03*
X10025Y78970D02*
D03*
X9435D02*
D03*
X10025Y78480D02*
D03*
X9435D02*
D03*
X10905Y81370D02*
D03*
X10315D02*
D03*
X7495Y66320D02*
D03*
X6905D02*
D03*
D12*
X65250Y53785D02*
D03*
Y54375D02*
D03*
Y53125D02*
D03*
Y52535D02*
D03*
X69200Y53525D02*
D03*
Y52935D02*
D03*
Y54285D02*
D03*
Y54875D02*
D03*
X65250Y60185D02*
D03*
Y60775D02*
D03*
Y59525D02*
D03*
Y58935D02*
D03*
X69200Y59925D02*
D03*
Y59335D02*
D03*
Y60685D02*
D03*
Y61275D02*
D03*
X65250Y66585D02*
D03*
Y67175D02*
D03*
Y65925D02*
D03*
Y65335D02*
D03*
X69200Y66325D02*
D03*
Y65735D02*
D03*
Y67085D02*
D03*
Y67675D02*
D03*
X65250Y72935D02*
D03*
Y73525D02*
D03*
Y72275D02*
D03*
Y71685D02*
D03*
X69200Y72675D02*
D03*
Y72085D02*
D03*
Y73435D02*
D03*
Y74025D02*
D03*
X65250Y28235D02*
D03*
Y28825D02*
D03*
Y27575D02*
D03*
Y26985D02*
D03*
X69200Y27975D02*
D03*
Y27385D02*
D03*
Y28735D02*
D03*
Y29325D02*
D03*
X65250Y34635D02*
D03*
Y35225D02*
D03*
Y33975D02*
D03*
Y33385D02*
D03*
X69200Y34375D02*
D03*
Y33785D02*
D03*
Y35135D02*
D03*
Y35725D02*
D03*
X65250Y41035D02*
D03*
Y41625D02*
D03*
Y40375D02*
D03*
Y39785D02*
D03*
X69200Y40775D02*
D03*
Y40185D02*
D03*
Y41535D02*
D03*
Y42125D02*
D03*
X65250Y47385D02*
D03*
Y47975D02*
D03*
Y46725D02*
D03*
Y46135D02*
D03*
X69200Y47125D02*
D03*
Y46535D02*
D03*
Y47885D02*
D03*
Y48475D02*
D03*
X56940Y44595D02*
D03*
Y44005D02*
D03*
X50510Y62415D02*
D03*
Y61825D02*
D03*
X51090Y61835D02*
D03*
Y62425D02*
D03*
X49930Y61825D02*
D03*
Y62415D02*
D03*
X52510Y58215D02*
D03*
Y57625D02*
D03*
X53120Y58215D02*
D03*
Y57625D02*
D03*
X54250Y58525D02*
D03*
Y57935D02*
D03*
X57230Y55445D02*
D03*
Y54855D02*
D03*
X52450Y60745D02*
D03*
Y61335D02*
D03*
X48310Y58185D02*
D03*
Y57595D02*
D03*
X47690Y58185D02*
D03*
Y57595D02*
D03*
X54400Y59635D02*
D03*
Y60225D02*
D03*
X48760Y55305D02*
D03*
Y54715D02*
D03*
X43430Y50905D02*
D03*
Y50315D02*
D03*
X54740Y46065D02*
D03*
Y46655D02*
D03*
X51260Y46065D02*
D03*
Y46655D02*
D03*
X60680Y50195D02*
D03*
Y50785D02*
D03*
X59910Y50215D02*
D03*
Y50805D02*
D03*
X61850Y47565D02*
D03*
Y46975D02*
D03*
X57100Y47545D02*
D03*
Y48135D02*
D03*
X53520Y53985D02*
D03*
Y54575D02*
D03*
X61850Y48305D02*
D03*
Y48895D02*
D03*
X54250Y46065D02*
D03*
Y46655D02*
D03*
X53760Y46065D02*
D03*
Y46655D02*
D03*
X53250Y46065D02*
D03*
Y46655D02*
D03*
X52760Y46065D02*
D03*
Y46655D02*
D03*
X52270Y46065D02*
D03*
Y46655D02*
D03*
X51760Y46065D02*
D03*
Y46655D02*
D03*
X43630Y57995D02*
D03*
Y57405D02*
D03*
X44380Y57995D02*
D03*
Y57405D02*
D03*
X45150Y57995D02*
D03*
Y57405D02*
D03*
X47670Y60115D02*
D03*
Y60705D02*
D03*
X48310Y60115D02*
D03*
Y60705D02*
D03*
X46660Y55385D02*
D03*
Y54795D02*
D03*
X46150Y55385D02*
D03*
Y54795D02*
D03*
X45010Y55325D02*
D03*
Y54735D02*
D03*
X54770Y82465D02*
D03*
Y81875D02*
D03*
Y83035D02*
D03*
Y83625D02*
D03*
X52190Y83035D02*
D03*
Y83625D02*
D03*
X51080Y81865D02*
D03*
Y82455D02*
D03*
Y83015D02*
D03*
Y83605D02*
D03*
X47080Y80975D02*
D03*
Y81565D02*
D03*
Y82765D02*
D03*
Y82175D02*
D03*
X51080Y81275D02*
D03*
Y80685D02*
D03*
X55120Y78275D02*
D03*
Y77685D02*
D03*
X55880Y80885D02*
D03*
Y80295D02*
D03*
X55770Y76585D02*
D03*
Y75995D02*
D03*
X56250Y76585D02*
D03*
Y75995D02*
D03*
X56360Y80885D02*
D03*
Y80295D02*
D03*
X57060Y80885D02*
D03*
Y80295D02*
D03*
X57030Y76585D02*
D03*
Y75995D02*
D03*
X57510Y76585D02*
D03*
Y75995D02*
D03*
X55610Y79575D02*
D03*
Y78985D02*
D03*
X57540Y80885D02*
D03*
Y80295D02*
D03*
X60690Y79535D02*
D03*
Y78945D02*
D03*
X58140Y80885D02*
D03*
Y80295D02*
D03*
X57990Y76585D02*
D03*
Y75995D02*
D03*
X58490Y76585D02*
D03*
Y75995D02*
D03*
X58620Y80885D02*
D03*
Y80295D02*
D03*
X59590Y80885D02*
D03*
Y80295D02*
D03*
X59400Y76585D02*
D03*
Y75995D02*
D03*
X59900Y76585D02*
D03*
Y75995D02*
D03*
X60690Y78285D02*
D03*
Y77695D02*
D03*
X60090Y80885D02*
D03*
Y80295D02*
D03*
X55600Y77685D02*
D03*
Y78275D02*
D03*
X55130Y78985D02*
D03*
Y79575D02*
D03*
X60190Y78945D02*
D03*
Y79535D02*
D03*
Y77695D02*
D03*
Y78285D02*
D03*
X53400Y74255D02*
D03*
Y74845D02*
D03*
X54030Y74855D02*
D03*
Y74265D02*
D03*
X61970Y67085D02*
D03*
Y67675D02*
D03*
X61420D02*
D03*
Y67085D02*
D03*
X57910Y67675D02*
D03*
Y67085D02*
D03*
X60540Y70715D02*
D03*
Y70125D02*
D03*
X48160Y79185D02*
D03*
Y78595D02*
D03*
X48640Y78585D02*
D03*
Y79175D02*
D03*
X51020Y71985D02*
D03*
Y72575D02*
D03*
X51580Y72635D02*
D03*
Y73225D02*
D03*
X51540Y71235D02*
D03*
Y71825D02*
D03*
X53270Y67735D02*
D03*
Y68325D02*
D03*
X53770D02*
D03*
Y67735D02*
D03*
X57340Y71235D02*
D03*
Y71825D02*
D03*
X57860Y72555D02*
D03*
Y71965D02*
D03*
X57330Y73235D02*
D03*
Y72645D02*
D03*
X54990Y74855D02*
D03*
Y74265D02*
D03*
X55620Y74855D02*
D03*
Y74265D02*
D03*
X53770Y77545D02*
D03*
Y78135D02*
D03*
X54100Y76075D02*
D03*
Y76665D02*
D03*
X51670Y77545D02*
D03*
Y78135D02*
D03*
X49060Y4495D02*
D03*
Y5085D02*
D03*
X49150Y13855D02*
D03*
Y14445D02*
D03*
X49050Y6785D02*
D03*
Y7375D02*
D03*
X49140Y16145D02*
D03*
Y16735D02*
D03*
X49050Y2185D02*
D03*
Y2775D02*
D03*
X49140Y11545D02*
D03*
Y12135D02*
D03*
X47400Y7455D02*
D03*
Y8045D02*
D03*
X47490Y16815D02*
D03*
Y17405D02*
D03*
X47400Y5185D02*
D03*
Y5775D02*
D03*
X47490Y14545D02*
D03*
Y15135D02*
D03*
X47420Y2825D02*
D03*
Y3415D02*
D03*
X47510Y12185D02*
D03*
Y12775D02*
D03*
X49530Y7365D02*
D03*
Y7955D02*
D03*
X49620Y16725D02*
D03*
Y17315D02*
D03*
X49540Y5055D02*
D03*
Y5645D02*
D03*
X49630Y14415D02*
D03*
Y15005D02*
D03*
X49530Y2695D02*
D03*
Y3285D02*
D03*
X49620Y12055D02*
D03*
Y12645D02*
D03*
X48080Y6795D02*
D03*
Y7385D02*
D03*
X48170Y16155D02*
D03*
Y16745D02*
D03*
X48090Y4495D02*
D03*
Y5085D02*
D03*
X48180Y13855D02*
D03*
Y14445D02*
D03*
X48100Y2185D02*
D03*
Y2775D02*
D03*
X48190Y11545D02*
D03*
Y12135D02*
D03*
X48570Y4505D02*
D03*
Y5095D02*
D03*
X48660Y13865D02*
D03*
Y14455D02*
D03*
X50030Y10175D02*
D03*
Y9585D02*
D03*
X48570Y6795D02*
D03*
Y7385D02*
D03*
X48660Y16155D02*
D03*
Y16745D02*
D03*
X48580Y2185D02*
D03*
Y2775D02*
D03*
X48670Y11545D02*
D03*
Y12135D02*
D03*
X56340Y9375D02*
D03*
Y9965D02*
D03*
X56300Y10935D02*
D03*
Y10345D02*
D03*
X27560Y4495D02*
D03*
Y5085D02*
D03*
X27650Y13855D02*
D03*
Y14445D02*
D03*
X27550Y6785D02*
D03*
Y7375D02*
D03*
X27640Y16145D02*
D03*
Y16735D02*
D03*
X27550Y2185D02*
D03*
Y2775D02*
D03*
X27640Y11545D02*
D03*
Y12135D02*
D03*
X25900Y7455D02*
D03*
Y8045D02*
D03*
X25990Y16815D02*
D03*
Y17405D02*
D03*
X25900Y5185D02*
D03*
Y5775D02*
D03*
X25990Y14545D02*
D03*
Y15135D02*
D03*
X25920Y2825D02*
D03*
Y3415D02*
D03*
X26010Y12185D02*
D03*
Y12775D02*
D03*
X28030Y7365D02*
D03*
Y7955D02*
D03*
X28120Y16725D02*
D03*
Y17315D02*
D03*
X28040Y5055D02*
D03*
Y5645D02*
D03*
X28130Y14415D02*
D03*
Y15005D02*
D03*
X28030Y2695D02*
D03*
Y3285D02*
D03*
X28120Y12055D02*
D03*
Y12645D02*
D03*
X26580Y6795D02*
D03*
Y7385D02*
D03*
X26670Y16155D02*
D03*
Y16745D02*
D03*
X26590Y4495D02*
D03*
Y5085D02*
D03*
X26680Y13855D02*
D03*
Y14445D02*
D03*
X26600Y2185D02*
D03*
Y2775D02*
D03*
X26690Y11545D02*
D03*
Y12135D02*
D03*
X27070Y4505D02*
D03*
Y5095D02*
D03*
X27160Y13865D02*
D03*
Y14455D02*
D03*
X28530Y10175D02*
D03*
Y9585D02*
D03*
X27070Y6795D02*
D03*
Y7385D02*
D03*
X27160Y16155D02*
D03*
Y16745D02*
D03*
X27080Y2185D02*
D03*
Y2775D02*
D03*
X27170Y11545D02*
D03*
Y12135D02*
D03*
X34840Y9375D02*
D03*
Y9965D02*
D03*
X34800Y10935D02*
D03*
Y10345D02*
D03*
X33270Y82465D02*
D03*
Y81875D02*
D03*
Y83035D02*
D03*
Y83625D02*
D03*
X30690Y83035D02*
D03*
Y83625D02*
D03*
X29580Y81865D02*
D03*
Y82455D02*
D03*
Y83015D02*
D03*
Y83605D02*
D03*
X25580Y80975D02*
D03*
Y81565D02*
D03*
Y82765D02*
D03*
Y82175D02*
D03*
X29580Y81275D02*
D03*
Y80685D02*
D03*
X33620Y78275D02*
D03*
Y77685D02*
D03*
X34380Y80885D02*
D03*
Y80295D02*
D03*
X34270Y76585D02*
D03*
Y75995D02*
D03*
X34750Y76585D02*
D03*
Y75995D02*
D03*
X34860Y80885D02*
D03*
Y80295D02*
D03*
X35560Y80885D02*
D03*
Y80295D02*
D03*
X35530Y76585D02*
D03*
Y75995D02*
D03*
X36010Y76585D02*
D03*
Y75995D02*
D03*
X34110Y79575D02*
D03*
Y78985D02*
D03*
X36040Y80885D02*
D03*
Y80295D02*
D03*
X39190Y79535D02*
D03*
Y78945D02*
D03*
X36640Y80885D02*
D03*
Y80295D02*
D03*
X36490Y76585D02*
D03*
Y75995D02*
D03*
X36990Y76585D02*
D03*
Y75995D02*
D03*
X37120Y80885D02*
D03*
Y80295D02*
D03*
X38090Y80885D02*
D03*
Y80295D02*
D03*
X37900Y76585D02*
D03*
Y75995D02*
D03*
X38400Y76585D02*
D03*
Y75995D02*
D03*
X39190Y78285D02*
D03*
Y77695D02*
D03*
X38590Y80885D02*
D03*
Y80295D02*
D03*
X34100Y77685D02*
D03*
Y78275D02*
D03*
X33630Y78985D02*
D03*
Y79575D02*
D03*
X38690Y78945D02*
D03*
Y79535D02*
D03*
Y77695D02*
D03*
Y78285D02*
D03*
X31900Y74255D02*
D03*
Y74845D02*
D03*
X32530Y74855D02*
D03*
Y74265D02*
D03*
X40470Y67085D02*
D03*
Y67675D02*
D03*
X39920D02*
D03*
Y67085D02*
D03*
X36410Y67675D02*
D03*
Y67085D02*
D03*
X39040Y70715D02*
D03*
Y70125D02*
D03*
X26660Y79185D02*
D03*
Y78595D02*
D03*
X27140Y78585D02*
D03*
Y79175D02*
D03*
X29520Y71985D02*
D03*
Y72575D02*
D03*
X30080Y72635D02*
D03*
Y73225D02*
D03*
X30040Y71235D02*
D03*
Y71825D02*
D03*
X31770Y67735D02*
D03*
Y68325D02*
D03*
X32270D02*
D03*
Y67735D02*
D03*
X35840Y71235D02*
D03*
Y71825D02*
D03*
X36360Y72555D02*
D03*
Y71965D02*
D03*
X35830Y73235D02*
D03*
Y72645D02*
D03*
X33490Y74855D02*
D03*
Y74265D02*
D03*
X34120Y74855D02*
D03*
Y74265D02*
D03*
X32270Y77545D02*
D03*
Y78135D02*
D03*
X32600Y76075D02*
D03*
Y76665D02*
D03*
X30170Y77545D02*
D03*
Y78135D02*
D03*
X35440Y44595D02*
D03*
Y44005D02*
D03*
X29010Y62415D02*
D03*
Y61825D02*
D03*
X29590Y61835D02*
D03*
Y62425D02*
D03*
X28430Y61825D02*
D03*
Y62415D02*
D03*
X31010Y58215D02*
D03*
Y57625D02*
D03*
X31620Y58215D02*
D03*
Y57625D02*
D03*
X32750Y58525D02*
D03*
Y57935D02*
D03*
X35730Y55445D02*
D03*
Y54855D02*
D03*
X30950Y60745D02*
D03*
Y61335D02*
D03*
X26810Y58185D02*
D03*
Y57595D02*
D03*
X26190Y58185D02*
D03*
Y57595D02*
D03*
X32900Y59635D02*
D03*
Y60225D02*
D03*
X27260Y55305D02*
D03*
Y54715D02*
D03*
X21930Y50905D02*
D03*
Y50315D02*
D03*
X33240Y46065D02*
D03*
Y46655D02*
D03*
X29760Y46065D02*
D03*
Y46655D02*
D03*
X39180Y50195D02*
D03*
Y50785D02*
D03*
X38410Y50215D02*
D03*
Y50805D02*
D03*
X40350Y47565D02*
D03*
Y46975D02*
D03*
X35600Y47545D02*
D03*
Y48135D02*
D03*
X32020Y53985D02*
D03*
Y54575D02*
D03*
X40350Y48305D02*
D03*
Y48895D02*
D03*
X32750Y46065D02*
D03*
Y46655D02*
D03*
X32260Y46065D02*
D03*
Y46655D02*
D03*
X31750Y46065D02*
D03*
Y46655D02*
D03*
X31260Y46065D02*
D03*
Y46655D02*
D03*
X30770Y46065D02*
D03*
Y46655D02*
D03*
X30260Y46065D02*
D03*
Y46655D02*
D03*
X22130Y57995D02*
D03*
Y57405D02*
D03*
X22880Y57995D02*
D03*
Y57405D02*
D03*
X23650Y57995D02*
D03*
Y57405D02*
D03*
X26170Y60115D02*
D03*
Y60705D02*
D03*
X26810Y60115D02*
D03*
Y60705D02*
D03*
X25160Y55385D02*
D03*
Y54795D02*
D03*
X24650Y55385D02*
D03*
Y54795D02*
D03*
X23510Y55325D02*
D03*
Y54735D02*
D03*
X65250Y21785D02*
D03*
Y22375D02*
D03*
Y21125D02*
D03*
Y20535D02*
D03*
X69200Y21525D02*
D03*
Y20935D02*
D03*
Y22285D02*
D03*
Y22875D02*
D03*
X65250Y15435D02*
D03*
Y16025D02*
D03*
Y14775D02*
D03*
Y14185D02*
D03*
X69200Y15175D02*
D03*
Y14585D02*
D03*
Y15935D02*
D03*
Y16525D02*
D03*
X65250Y9035D02*
D03*
Y9625D02*
D03*
Y8375D02*
D03*
Y7785D02*
D03*
X69200Y8775D02*
D03*
Y8185D02*
D03*
Y9535D02*
D03*
Y10125D02*
D03*
X65250Y2635D02*
D03*
Y3225D02*
D03*
Y1975D02*
D03*
Y1385D02*
D03*
X69200Y2375D02*
D03*
Y1785D02*
D03*
Y3135D02*
D03*
Y3725D02*
D03*
X13940Y44595D02*
D03*
Y44005D02*
D03*
X7510Y62415D02*
D03*
Y61825D02*
D03*
X8090Y61835D02*
D03*
Y62425D02*
D03*
X6930Y61825D02*
D03*
Y62415D02*
D03*
X9510Y58215D02*
D03*
Y57625D02*
D03*
X10120Y58215D02*
D03*
Y57625D02*
D03*
X11250Y58525D02*
D03*
Y57935D02*
D03*
X14230Y55445D02*
D03*
Y54855D02*
D03*
X9450Y60745D02*
D03*
Y61335D02*
D03*
X5310Y58185D02*
D03*
Y57595D02*
D03*
X4690Y58185D02*
D03*
Y57595D02*
D03*
X11400Y59635D02*
D03*
Y60225D02*
D03*
X5760Y55305D02*
D03*
Y54715D02*
D03*
X430Y50905D02*
D03*
Y50315D02*
D03*
X11740Y46065D02*
D03*
Y46655D02*
D03*
X8260Y46065D02*
D03*
Y46655D02*
D03*
X17680Y50195D02*
D03*
Y50785D02*
D03*
X16910Y50215D02*
D03*
Y50805D02*
D03*
X18850Y47565D02*
D03*
Y46975D02*
D03*
X14100Y47545D02*
D03*
Y48135D02*
D03*
X10520Y53985D02*
D03*
Y54575D02*
D03*
X18850Y48305D02*
D03*
Y48895D02*
D03*
X11250Y46065D02*
D03*
Y46655D02*
D03*
X10760Y46065D02*
D03*
Y46655D02*
D03*
X10250Y46065D02*
D03*
Y46655D02*
D03*
X9760Y46065D02*
D03*
Y46655D02*
D03*
X9270Y46065D02*
D03*
Y46655D02*
D03*
X8760Y46065D02*
D03*
Y46655D02*
D03*
X630Y57995D02*
D03*
Y57405D02*
D03*
X1380Y57995D02*
D03*
Y57405D02*
D03*
X2150Y57995D02*
D03*
Y57405D02*
D03*
X4670Y60115D02*
D03*
Y60705D02*
D03*
X5310Y60115D02*
D03*
Y60705D02*
D03*
X3660Y55385D02*
D03*
Y54795D02*
D03*
X3150Y55385D02*
D03*
Y54795D02*
D03*
X2010Y55325D02*
D03*
Y54735D02*
D03*
X11770Y82465D02*
D03*
Y81875D02*
D03*
Y83035D02*
D03*
Y83625D02*
D03*
X9190Y83035D02*
D03*
Y83625D02*
D03*
X8080Y81865D02*
D03*
Y82455D02*
D03*
Y83015D02*
D03*
Y83605D02*
D03*
X4080Y80975D02*
D03*
Y81565D02*
D03*
Y82765D02*
D03*
Y82175D02*
D03*
X8080Y81275D02*
D03*
Y80685D02*
D03*
X12120Y78275D02*
D03*
Y77685D02*
D03*
X12880Y80885D02*
D03*
Y80295D02*
D03*
X12770Y76585D02*
D03*
Y75995D02*
D03*
X13250Y76585D02*
D03*
Y75995D02*
D03*
X13360Y80885D02*
D03*
Y80295D02*
D03*
X14060Y80885D02*
D03*
Y80295D02*
D03*
X14030Y76585D02*
D03*
Y75995D02*
D03*
X14510Y76585D02*
D03*
Y75995D02*
D03*
X12610Y79575D02*
D03*
Y78985D02*
D03*
X14540Y80885D02*
D03*
Y80295D02*
D03*
X17690Y79535D02*
D03*
Y78945D02*
D03*
X15140Y80885D02*
D03*
Y80295D02*
D03*
X14990Y76585D02*
D03*
Y75995D02*
D03*
X15490Y76585D02*
D03*
Y75995D02*
D03*
X15620Y80885D02*
D03*
Y80295D02*
D03*
X16590Y80885D02*
D03*
Y80295D02*
D03*
X16400Y76585D02*
D03*
Y75995D02*
D03*
X16900Y76585D02*
D03*
Y75995D02*
D03*
X17690Y78285D02*
D03*
Y77695D02*
D03*
X17090Y80885D02*
D03*
Y80295D02*
D03*
X12600Y77685D02*
D03*
Y78275D02*
D03*
X12130Y78985D02*
D03*
Y79575D02*
D03*
X17190Y78945D02*
D03*
Y79535D02*
D03*
Y77695D02*
D03*
Y78285D02*
D03*
X10400Y74255D02*
D03*
Y74845D02*
D03*
X11030Y74855D02*
D03*
Y74265D02*
D03*
X18970Y67085D02*
D03*
Y67675D02*
D03*
X18420D02*
D03*
Y67085D02*
D03*
X14910Y67675D02*
D03*
Y67085D02*
D03*
X17540Y70715D02*
D03*
Y70125D02*
D03*
X5160Y79185D02*
D03*
Y78595D02*
D03*
X5640Y78585D02*
D03*
Y79175D02*
D03*
X8020Y71985D02*
D03*
Y72575D02*
D03*
X8580Y72635D02*
D03*
Y73225D02*
D03*
X8540Y71235D02*
D03*
Y71825D02*
D03*
X10270Y67735D02*
D03*
Y68325D02*
D03*
X10770D02*
D03*
Y67735D02*
D03*
X14340Y71235D02*
D03*
Y71825D02*
D03*
X14860Y72555D02*
D03*
Y71965D02*
D03*
X14330Y73235D02*
D03*
Y72645D02*
D03*
X11990Y74855D02*
D03*
Y74265D02*
D03*
X12620Y74855D02*
D03*
Y74265D02*
D03*
X10770Y77545D02*
D03*
Y78135D02*
D03*
X11100Y76075D02*
D03*
Y76665D02*
D03*
X8670Y77545D02*
D03*
Y78135D02*
D03*
X6060Y4495D02*
D03*
Y5085D02*
D03*
X6150Y13855D02*
D03*
Y14445D02*
D03*
X6050Y6785D02*
D03*
Y7375D02*
D03*
X6140Y16145D02*
D03*
Y16735D02*
D03*
X6050Y2185D02*
D03*
Y2775D02*
D03*
X6140Y11545D02*
D03*
Y12135D02*
D03*
X4400Y7455D02*
D03*
Y8045D02*
D03*
X4490Y16815D02*
D03*
Y17405D02*
D03*
X4400Y5185D02*
D03*
Y5775D02*
D03*
X4490Y14545D02*
D03*
Y15135D02*
D03*
X4420Y2825D02*
D03*
Y3415D02*
D03*
X4510Y12185D02*
D03*
Y12775D02*
D03*
X6530Y7365D02*
D03*
Y7955D02*
D03*
X6620Y16725D02*
D03*
Y17315D02*
D03*
X6540Y5055D02*
D03*
Y5645D02*
D03*
X6630Y14415D02*
D03*
Y15005D02*
D03*
X6530Y2695D02*
D03*
Y3285D02*
D03*
X6620Y12055D02*
D03*
Y12645D02*
D03*
X5080Y6795D02*
D03*
Y7385D02*
D03*
X5170Y16155D02*
D03*
Y16745D02*
D03*
X5090Y4495D02*
D03*
Y5085D02*
D03*
X5180Y13855D02*
D03*
Y14445D02*
D03*
X5100Y2185D02*
D03*
Y2775D02*
D03*
X5190Y11545D02*
D03*
Y12135D02*
D03*
X5570Y4505D02*
D03*
Y5095D02*
D03*
X5660Y13865D02*
D03*
Y14455D02*
D03*
X7030Y10175D02*
D03*
Y9585D02*
D03*
X5570Y6795D02*
D03*
Y7385D02*
D03*
X5660Y16155D02*
D03*
Y16745D02*
D03*
X5580Y2185D02*
D03*
Y2775D02*
D03*
X5670Y11545D02*
D03*
Y12135D02*
D03*
X13340Y9375D02*
D03*
Y9965D02*
D03*
X13300Y10935D02*
D03*
Y10345D02*
D03*
D14*
X48770Y46510D02*
D03*
X45030D02*
D03*
X27270D02*
D03*
X23530D02*
D03*
X5770D02*
D03*
X2030D02*
D03*
D15*
X55410Y46080D02*
D03*
X54580Y53560D02*
D03*
X62210Y52750D02*
D03*
X62220Y53330D02*
D03*
Y53910D02*
D03*
X43410Y48710D02*
D03*
X57080Y68390D02*
D03*
X61780Y70910D02*
D03*
X61710Y72620D02*
D03*
X61720Y73340D02*
D03*
X55750Y66830D02*
D03*
X49050D02*
D03*
Y67480D02*
D03*
Y65840D02*
D03*
X60600Y69420D02*
D03*
X35580Y68390D02*
D03*
X40280Y70910D02*
D03*
X40210Y72620D02*
D03*
X40220Y73340D02*
D03*
X34250Y66830D02*
D03*
X27550D02*
D03*
Y67480D02*
D03*
Y65840D02*
D03*
X39100Y69420D02*
D03*
X33910Y46080D02*
D03*
X33080Y53560D02*
D03*
X40710Y52750D02*
D03*
X40720Y53330D02*
D03*
Y53910D02*
D03*
X21910Y48710D02*
D03*
X12410Y46080D02*
D03*
X11580Y53560D02*
D03*
X19210Y52750D02*
D03*
X19220Y53330D02*
D03*
Y53910D02*
D03*
X410Y48710D02*
D03*
X14080Y68390D02*
D03*
X18780Y70910D02*
D03*
X18710Y72620D02*
D03*
X18720Y73340D02*
D03*
X12750Y66830D02*
D03*
X6050D02*
D03*
Y67480D02*
D03*
Y65840D02*
D03*
X17600Y69420D02*
D03*
X53750Y15910D02*
D03*
X32250D02*
D03*
X10750D02*
D03*
D16*
X52910Y59900D02*
D03*
X61500Y58700D02*
D03*
Y58120D02*
D03*
Y57550D02*
D03*
X55330Y56040D02*
D03*
X56400Y55790D02*
D03*
X55800Y53560D02*
D03*
X44930Y56110D02*
D03*
X46610Y56790D02*
D03*
X44930Y56700D02*
D03*
X61500Y59300D02*
D03*
X55880Y61990D02*
D03*
X54930Y75660D02*
D03*
X61430Y68710D02*
D03*
X61770Y71550D02*
D03*
X57070Y67650D02*
D03*
X60970Y81470D02*
D03*
X60980Y82220D02*
D03*
X52640Y81010D02*
D03*
X51840Y81020D02*
D03*
X52630Y80170D02*
D03*
X46620Y83910D02*
D03*
Y83300D02*
D03*
X50960Y68080D02*
D03*
Y68780D02*
D03*
X33430Y75660D02*
D03*
X39930Y68710D02*
D03*
X40270Y71550D02*
D03*
X35570Y67650D02*
D03*
X39470Y81470D02*
D03*
X39480Y82220D02*
D03*
X31140Y81010D02*
D03*
X30340Y81020D02*
D03*
X31130Y80170D02*
D03*
X25120Y83910D02*
D03*
Y83300D02*
D03*
X29460Y68080D02*
D03*
Y68780D02*
D03*
X31410Y59900D02*
D03*
X40000Y58700D02*
D03*
Y58120D02*
D03*
Y57550D02*
D03*
X33830Y56040D02*
D03*
X34900Y55790D02*
D03*
X34300Y53560D02*
D03*
X23430Y56110D02*
D03*
X25110Y56790D02*
D03*
X23430Y56700D02*
D03*
X40000Y59300D02*
D03*
X34380Y61990D02*
D03*
X9910Y59900D02*
D03*
X18500Y58700D02*
D03*
Y58120D02*
D03*
Y57550D02*
D03*
X12330Y56040D02*
D03*
X13400Y55790D02*
D03*
X12800Y53560D02*
D03*
X1930Y56110D02*
D03*
X3610Y56790D02*
D03*
X1930Y56700D02*
D03*
X18500Y59300D02*
D03*
X12880Y61990D02*
D03*
X11930Y75660D02*
D03*
X18430Y68710D02*
D03*
X18770Y71550D02*
D03*
X14070Y67650D02*
D03*
X17970Y81470D02*
D03*
X17980Y82220D02*
D03*
X9640Y81010D02*
D03*
X8840Y81020D02*
D03*
X9630Y80170D02*
D03*
X3620Y83910D02*
D03*
Y83300D02*
D03*
X7960Y68080D02*
D03*
Y68780D02*
D03*
D17*
X55272Y59590D02*
D03*
Y59090D02*
D03*
Y58590D02*
D03*
Y58090D02*
D03*
X57968D02*
D03*
Y58590D02*
D03*
Y59090D02*
D03*
Y59590D02*
D03*
X33772D02*
D03*
Y59090D02*
D03*
Y58590D02*
D03*
Y58090D02*
D03*
X36468D02*
D03*
Y58590D02*
D03*
Y59090D02*
D03*
Y59590D02*
D03*
X12272D02*
D03*
Y59090D02*
D03*
Y58590D02*
D03*
Y58090D02*
D03*
X14968D02*
D03*
Y58590D02*
D03*
Y59090D02*
D03*
Y59590D02*
D03*
D18*
X55870Y57492D02*
D03*
X56370D02*
D03*
X56870D02*
D03*
X57370D02*
D03*
Y60188D02*
D03*
X56870D02*
D03*
X56370D02*
D03*
X55870D02*
D03*
X34370Y57492D02*
D03*
X34870D02*
D03*
X35370D02*
D03*
X35870D02*
D03*
Y60188D02*
D03*
X35370D02*
D03*
X34870D02*
D03*
X34370D02*
D03*
X12870Y57492D02*
D03*
X13370D02*
D03*
X13870D02*
D03*
X14370D02*
D03*
Y60188D02*
D03*
X13870D02*
D03*
X13370D02*
D03*
X12870D02*
D03*
D19*
X50296Y51920D02*
D03*
X51084D02*
D03*
X61454Y9150D02*
D03*
X60666D02*
D03*
X45384Y10150D02*
D03*
X44596D02*
D03*
X47426Y18650D02*
D03*
X48214D02*
D03*
X39954Y9150D02*
D03*
X39166D02*
D03*
X23884Y10150D02*
D03*
X23096D02*
D03*
X25926Y18650D02*
D03*
X26714D02*
D03*
X28796Y51920D02*
D03*
X29584D02*
D03*
X7296D02*
D03*
X8084D02*
D03*
X18454Y9150D02*
D03*
X17666D02*
D03*
X2384Y10150D02*
D03*
X1596D02*
D03*
X4426Y18650D02*
D03*
X5214D02*
D03*
D20*
X48750Y53979D02*
D03*
X48553D02*
D03*
X48356D02*
D03*
X48160D02*
D03*
X47963D02*
D03*
X47766D02*
D03*
X47569D02*
D03*
X47372D02*
D03*
X47175D02*
D03*
X46978D02*
D03*
X46782D02*
D03*
X46585D02*
D03*
X46388D02*
D03*
X46191D02*
D03*
X45994D02*
D03*
X45797D02*
D03*
X45600D02*
D03*
X45404D02*
D03*
X45207D02*
D03*
X45010D02*
D03*
Y48801D02*
D03*
X45207D02*
D03*
X45404D02*
D03*
X45600D02*
D03*
X45797D02*
D03*
X45994D02*
D03*
X46191D02*
D03*
X46388D02*
D03*
X46585D02*
D03*
X46782D02*
D03*
X46978D02*
D03*
X47175D02*
D03*
X47372D02*
D03*
X47569D02*
D03*
X47766D02*
D03*
X47963D02*
D03*
X48160D02*
D03*
X48356D02*
D03*
X48553D02*
D03*
X48750D02*
D03*
X52978Y69140D02*
D03*
X53175D02*
D03*
X53372D02*
D03*
X53568D02*
D03*
X53765D02*
D03*
X53962D02*
D03*
X54159D02*
D03*
X54356D02*
D03*
X54553D02*
D03*
X54749D02*
D03*
X54946D02*
D03*
X55143D02*
D03*
X55340D02*
D03*
X55537D02*
D03*
X55734D02*
D03*
X55931D02*
D03*
Y73530D02*
D03*
X55734D02*
D03*
X55537D02*
D03*
X55340D02*
D03*
X55143D02*
D03*
X54946D02*
D03*
X54749D02*
D03*
X54553D02*
D03*
X54356D02*
D03*
X54159D02*
D03*
X53962D02*
D03*
X53765D02*
D03*
X53568D02*
D03*
X53372D02*
D03*
X53175D02*
D03*
X52978D02*
D03*
X56118Y77347D02*
D03*
X56315D02*
D03*
X56512D02*
D03*
X56709D02*
D03*
X56906D02*
D03*
X57103D02*
D03*
X57299D02*
D03*
X57496D02*
D03*
X57693D02*
D03*
X57890D02*
D03*
X58087D02*
D03*
X58284D02*
D03*
X58481D02*
D03*
X58677D02*
D03*
X58874D02*
D03*
X59071D02*
D03*
X59268D02*
D03*
X59465D02*
D03*
X59662D02*
D03*
X56118Y79533D02*
D03*
X56315D02*
D03*
X56512D02*
D03*
X56709D02*
D03*
X56906D02*
D03*
X57103D02*
D03*
X57299D02*
D03*
X57496D02*
D03*
X57693D02*
D03*
X57890D02*
D03*
X58087D02*
D03*
X58284D02*
D03*
X58481D02*
D03*
X58677D02*
D03*
X58874D02*
D03*
X59071D02*
D03*
X59268D02*
D03*
X59465D02*
D03*
X59662D02*
D03*
X31478Y69140D02*
D03*
X31675D02*
D03*
X31872D02*
D03*
X32068D02*
D03*
X32265D02*
D03*
X32462D02*
D03*
X32659D02*
D03*
X32856D02*
D03*
X33053D02*
D03*
X33249D02*
D03*
X33446D02*
D03*
X33643D02*
D03*
X33840D02*
D03*
X34037D02*
D03*
X34234D02*
D03*
X34431D02*
D03*
Y73530D02*
D03*
X34234D02*
D03*
X34037D02*
D03*
X33840D02*
D03*
X33643D02*
D03*
X33446D02*
D03*
X33249D02*
D03*
X33053D02*
D03*
X32856D02*
D03*
X32659D02*
D03*
X32462D02*
D03*
X32265D02*
D03*
X32068D02*
D03*
X31872D02*
D03*
X31675D02*
D03*
X31478D02*
D03*
X34618Y77347D02*
D03*
X34815D02*
D03*
X35012D02*
D03*
X35209D02*
D03*
X35406D02*
D03*
X35603D02*
D03*
X35799D02*
D03*
X35996D02*
D03*
X36193D02*
D03*
X36390D02*
D03*
X36587D02*
D03*
X36784D02*
D03*
X36981D02*
D03*
X37177D02*
D03*
X37374D02*
D03*
X37571D02*
D03*
X37768D02*
D03*
X37965D02*
D03*
X38162D02*
D03*
X34618Y79533D02*
D03*
X34815D02*
D03*
X35012D02*
D03*
X35209D02*
D03*
X35406D02*
D03*
X35603D02*
D03*
X35799D02*
D03*
X35996D02*
D03*
X36193D02*
D03*
X36390D02*
D03*
X36587D02*
D03*
X36784D02*
D03*
X36981D02*
D03*
X37177D02*
D03*
X37374D02*
D03*
X37571D02*
D03*
X37768D02*
D03*
X37965D02*
D03*
X38162D02*
D03*
X27250Y53979D02*
D03*
X27053D02*
D03*
X26856D02*
D03*
X26660D02*
D03*
X26463D02*
D03*
X26266D02*
D03*
X26069D02*
D03*
X25872D02*
D03*
X25675D02*
D03*
X25478D02*
D03*
X25282D02*
D03*
X25085D02*
D03*
X24888D02*
D03*
X24691D02*
D03*
X24494D02*
D03*
X24297D02*
D03*
X24100D02*
D03*
X23904D02*
D03*
X23707D02*
D03*
X23510D02*
D03*
Y48801D02*
D03*
X23707D02*
D03*
X23904D02*
D03*
X24100D02*
D03*
X24297D02*
D03*
X24494D02*
D03*
X24691D02*
D03*
X24888D02*
D03*
X25085D02*
D03*
X25282D02*
D03*
X25478D02*
D03*
X25675D02*
D03*
X25872D02*
D03*
X26069D02*
D03*
X26266D02*
D03*
X26463D02*
D03*
X26660D02*
D03*
X26856D02*
D03*
X27053D02*
D03*
X27250D02*
D03*
X5750Y53979D02*
D03*
X5553D02*
D03*
X5356D02*
D03*
X5160D02*
D03*
X4963D02*
D03*
X4766D02*
D03*
X4569D02*
D03*
X4372D02*
D03*
X4175D02*
D03*
X3978D02*
D03*
X3782D02*
D03*
X3585D02*
D03*
X3388D02*
D03*
X3191D02*
D03*
X2994D02*
D03*
X2797D02*
D03*
X2600D02*
D03*
X2404D02*
D03*
X2207D02*
D03*
X2010D02*
D03*
Y48801D02*
D03*
X2207D02*
D03*
X2404D02*
D03*
X2600D02*
D03*
X2797D02*
D03*
X2994D02*
D03*
X3191D02*
D03*
X3388D02*
D03*
X3585D02*
D03*
X3782D02*
D03*
X3978D02*
D03*
X4175D02*
D03*
X4372D02*
D03*
X4569D02*
D03*
X4766D02*
D03*
X4963D02*
D03*
X5160D02*
D03*
X5356D02*
D03*
X5553D02*
D03*
X5750D02*
D03*
X9978Y69140D02*
D03*
X10175D02*
D03*
X10372D02*
D03*
X10568D02*
D03*
X10765D02*
D03*
X10962D02*
D03*
X11159D02*
D03*
X11356D02*
D03*
X11553D02*
D03*
X11749D02*
D03*
X11946D02*
D03*
X12143D02*
D03*
X12340D02*
D03*
X12537D02*
D03*
X12734D02*
D03*
X12931D02*
D03*
Y73530D02*
D03*
X12734D02*
D03*
X12537D02*
D03*
X12340D02*
D03*
X12143D02*
D03*
X11946D02*
D03*
X11749D02*
D03*
X11553D02*
D03*
X11356D02*
D03*
X11159D02*
D03*
X10962D02*
D03*
X10765D02*
D03*
X10568D02*
D03*
X10372D02*
D03*
X10175D02*
D03*
X9978D02*
D03*
X13118Y77347D02*
D03*
X13315D02*
D03*
X13512D02*
D03*
X13709D02*
D03*
X13906D02*
D03*
X14103D02*
D03*
X14299D02*
D03*
X14496D02*
D03*
X14693D02*
D03*
X14890D02*
D03*
X15087D02*
D03*
X15284D02*
D03*
X15481D02*
D03*
X15677D02*
D03*
X15874D02*
D03*
X16071D02*
D03*
X16268D02*
D03*
X16465D02*
D03*
X16662D02*
D03*
X13118Y79533D02*
D03*
X13315D02*
D03*
X13512D02*
D03*
X13709D02*
D03*
X13906D02*
D03*
X14103D02*
D03*
X14299D02*
D03*
X14496D02*
D03*
X14693D02*
D03*
X14890D02*
D03*
X15087D02*
D03*
X15284D02*
D03*
X15481D02*
D03*
X15677D02*
D03*
X15874D02*
D03*
X16071D02*
D03*
X16268D02*
D03*
X16465D02*
D03*
X16662D02*
D03*
D21*
X44291Y53260D02*
D03*
Y53063D02*
D03*
Y52866D02*
D03*
Y52670D02*
D03*
Y52473D02*
D03*
Y52276D02*
D03*
Y52079D02*
D03*
Y51882D02*
D03*
Y51685D02*
D03*
Y51488D02*
D03*
Y51292D02*
D03*
Y51095D02*
D03*
Y50898D02*
D03*
Y50701D02*
D03*
Y50504D02*
D03*
Y50307D02*
D03*
Y50110D02*
D03*
Y49914D02*
D03*
Y49717D02*
D03*
Y49520D02*
D03*
X49469D02*
D03*
Y49717D02*
D03*
Y49914D02*
D03*
Y50110D02*
D03*
Y50307D02*
D03*
Y50504D02*
D03*
Y50701D02*
D03*
Y50898D02*
D03*
Y51095D02*
D03*
Y51292D02*
D03*
Y51488D02*
D03*
Y51685D02*
D03*
Y51882D02*
D03*
Y52079D02*
D03*
Y52276D02*
D03*
Y52473D02*
D03*
Y52670D02*
D03*
Y52866D02*
D03*
Y53063D02*
D03*
Y53260D02*
D03*
X52259Y72811D02*
D03*
Y72614D02*
D03*
Y72418D02*
D03*
Y72221D02*
D03*
Y72024D02*
D03*
Y71827D02*
D03*
Y71630D02*
D03*
Y71433D02*
D03*
Y71236D02*
D03*
Y71040D02*
D03*
Y70843D02*
D03*
Y70646D02*
D03*
Y70449D02*
D03*
Y70252D02*
D03*
Y70055D02*
D03*
Y69858D02*
D03*
X56649D02*
D03*
Y70055D02*
D03*
Y70252D02*
D03*
Y70449D02*
D03*
Y70646D02*
D03*
Y70843D02*
D03*
Y71040D02*
D03*
Y71236D02*
D03*
Y71433D02*
D03*
Y71630D02*
D03*
Y71827D02*
D03*
Y72024D02*
D03*
Y72221D02*
D03*
Y72418D02*
D03*
Y72614D02*
D03*
Y72811D02*
D03*
X48313Y72908D02*
D03*
Y73105D02*
D03*
Y73302D02*
D03*
Y73499D02*
D03*
Y73696D02*
D03*
Y73893D02*
D03*
Y74089D02*
D03*
Y74286D02*
D03*
Y74483D02*
D03*
Y74680D02*
D03*
Y74877D02*
D03*
Y75074D02*
D03*
Y75271D02*
D03*
Y75467D02*
D03*
Y75664D02*
D03*
Y75861D02*
D03*
Y76058D02*
D03*
Y76255D02*
D03*
Y76452D02*
D03*
X46127Y72908D02*
D03*
Y73105D02*
D03*
Y73302D02*
D03*
Y73499D02*
D03*
Y73696D02*
D03*
Y73893D02*
D03*
Y74089D02*
D03*
Y74286D02*
D03*
Y74483D02*
D03*
Y74680D02*
D03*
Y74877D02*
D03*
Y75074D02*
D03*
Y75271D02*
D03*
Y75467D02*
D03*
Y75664D02*
D03*
Y75861D02*
D03*
Y76058D02*
D03*
Y76255D02*
D03*
Y76452D02*
D03*
X30759Y72811D02*
D03*
Y72614D02*
D03*
Y72418D02*
D03*
Y72221D02*
D03*
Y72024D02*
D03*
Y71827D02*
D03*
Y71630D02*
D03*
Y71433D02*
D03*
Y71236D02*
D03*
Y71040D02*
D03*
Y70843D02*
D03*
Y70646D02*
D03*
Y70449D02*
D03*
Y70252D02*
D03*
Y70055D02*
D03*
Y69858D02*
D03*
X35149D02*
D03*
Y70055D02*
D03*
Y70252D02*
D03*
Y70449D02*
D03*
Y70646D02*
D03*
Y70843D02*
D03*
Y71040D02*
D03*
Y71236D02*
D03*
Y71433D02*
D03*
Y71630D02*
D03*
Y71827D02*
D03*
Y72024D02*
D03*
Y72221D02*
D03*
Y72418D02*
D03*
Y72614D02*
D03*
Y72811D02*
D03*
X26813Y72908D02*
D03*
Y73105D02*
D03*
Y73302D02*
D03*
Y73499D02*
D03*
Y73696D02*
D03*
Y73893D02*
D03*
Y74089D02*
D03*
Y74286D02*
D03*
Y74483D02*
D03*
Y74680D02*
D03*
Y74877D02*
D03*
Y75074D02*
D03*
Y75271D02*
D03*
Y75467D02*
D03*
Y75664D02*
D03*
Y75861D02*
D03*
Y76058D02*
D03*
Y76255D02*
D03*
Y76452D02*
D03*
X24627Y72908D02*
D03*
Y73105D02*
D03*
Y73302D02*
D03*
Y73499D02*
D03*
Y73696D02*
D03*
Y73893D02*
D03*
Y74089D02*
D03*
Y74286D02*
D03*
Y74483D02*
D03*
Y74680D02*
D03*
Y74877D02*
D03*
Y75074D02*
D03*
Y75271D02*
D03*
Y75467D02*
D03*
Y75664D02*
D03*
Y75861D02*
D03*
Y76058D02*
D03*
Y76255D02*
D03*
Y76452D02*
D03*
X22791Y53260D02*
D03*
Y53063D02*
D03*
Y52866D02*
D03*
Y52670D02*
D03*
Y52473D02*
D03*
Y52276D02*
D03*
Y52079D02*
D03*
Y51882D02*
D03*
Y51685D02*
D03*
Y51488D02*
D03*
Y51292D02*
D03*
Y51095D02*
D03*
Y50898D02*
D03*
Y50701D02*
D03*
Y50504D02*
D03*
Y50307D02*
D03*
Y50110D02*
D03*
Y49914D02*
D03*
Y49717D02*
D03*
Y49520D02*
D03*
X27969D02*
D03*
Y49717D02*
D03*
Y49914D02*
D03*
Y50110D02*
D03*
Y50307D02*
D03*
Y50504D02*
D03*
Y50701D02*
D03*
Y50898D02*
D03*
Y51095D02*
D03*
Y51292D02*
D03*
Y51488D02*
D03*
Y51685D02*
D03*
Y51882D02*
D03*
Y52079D02*
D03*
Y52276D02*
D03*
Y52473D02*
D03*
Y52670D02*
D03*
Y52866D02*
D03*
Y53063D02*
D03*
Y53260D02*
D03*
X1291D02*
D03*
Y53063D02*
D03*
Y52866D02*
D03*
Y52670D02*
D03*
Y52473D02*
D03*
Y52276D02*
D03*
Y52079D02*
D03*
Y51882D02*
D03*
Y51685D02*
D03*
Y51488D02*
D03*
Y51292D02*
D03*
Y51095D02*
D03*
Y50898D02*
D03*
Y50701D02*
D03*
Y50504D02*
D03*
Y50307D02*
D03*
Y50110D02*
D03*
Y49914D02*
D03*
Y49717D02*
D03*
Y49520D02*
D03*
X6469D02*
D03*
Y49717D02*
D03*
Y49914D02*
D03*
Y50110D02*
D03*
Y50307D02*
D03*
Y50504D02*
D03*
Y50701D02*
D03*
Y50898D02*
D03*
Y51095D02*
D03*
Y51292D02*
D03*
Y51488D02*
D03*
Y51685D02*
D03*
Y51882D02*
D03*
Y52079D02*
D03*
Y52276D02*
D03*
Y52473D02*
D03*
Y52670D02*
D03*
Y52866D02*
D03*
Y53063D02*
D03*
Y53260D02*
D03*
X9259Y72811D02*
D03*
Y72614D02*
D03*
Y72418D02*
D03*
Y72221D02*
D03*
Y72024D02*
D03*
Y71827D02*
D03*
Y71630D02*
D03*
Y71433D02*
D03*
Y71236D02*
D03*
Y71040D02*
D03*
Y70843D02*
D03*
Y70646D02*
D03*
Y70449D02*
D03*
Y70252D02*
D03*
Y70055D02*
D03*
Y69858D02*
D03*
X13649D02*
D03*
Y70055D02*
D03*
Y70252D02*
D03*
Y70449D02*
D03*
Y70646D02*
D03*
Y70843D02*
D03*
Y71040D02*
D03*
Y71236D02*
D03*
Y71433D02*
D03*
Y71630D02*
D03*
Y71827D02*
D03*
Y72024D02*
D03*
Y72221D02*
D03*
Y72418D02*
D03*
Y72614D02*
D03*
Y72811D02*
D03*
X5313Y72908D02*
D03*
Y73105D02*
D03*
Y73302D02*
D03*
Y73499D02*
D03*
Y73696D02*
D03*
Y73893D02*
D03*
Y74089D02*
D03*
Y74286D02*
D03*
Y74483D02*
D03*
Y74680D02*
D03*
Y74877D02*
D03*
Y75074D02*
D03*
Y75271D02*
D03*
Y75467D02*
D03*
Y75664D02*
D03*
Y75861D02*
D03*
Y76058D02*
D03*
Y76255D02*
D03*
Y76452D02*
D03*
X3127Y72908D02*
D03*
Y73105D02*
D03*
Y73302D02*
D03*
Y73499D02*
D03*
Y73696D02*
D03*
Y73893D02*
D03*
Y74089D02*
D03*
Y74286D02*
D03*
Y74483D02*
D03*
Y74680D02*
D03*
Y74877D02*
D03*
Y75074D02*
D03*
Y75271D02*
D03*
Y75467D02*
D03*
Y75664D02*
D03*
Y75861D02*
D03*
Y76058D02*
D03*
Y76255D02*
D03*
Y76452D02*
D03*
D22*
X61186Y49402D02*
D03*
X60930D02*
D03*
X60674D02*
D03*
X60418D02*
D03*
X60162D02*
D03*
X59906D02*
D03*
X59650D02*
D03*
X59394D02*
D03*
X61186Y47138D02*
D03*
X60930D02*
D03*
X60674D02*
D03*
X60418D02*
D03*
X60162D02*
D03*
X59906D02*
D03*
X59650D02*
D03*
X59394D02*
D03*
X39686Y49402D02*
D03*
X39430D02*
D03*
X39174D02*
D03*
X38918D02*
D03*
X38662D02*
D03*
X38406D02*
D03*
X38150D02*
D03*
X37894D02*
D03*
X39686Y47138D02*
D03*
X39430D02*
D03*
X39174D02*
D03*
X38918D02*
D03*
X38662D02*
D03*
X38406D02*
D03*
X38150D02*
D03*
X37894D02*
D03*
X18186Y49402D02*
D03*
X17930D02*
D03*
X17674D02*
D03*
X17418D02*
D03*
X17162D02*
D03*
X16906D02*
D03*
X16650D02*
D03*
X16394D02*
D03*
X18186Y47138D02*
D03*
X17930D02*
D03*
X17674D02*
D03*
X17418D02*
D03*
X17162D02*
D03*
X16906D02*
D03*
X16650D02*
D03*
X16394D02*
D03*
D23*
X60290Y48270D02*
D03*
X38790D02*
D03*
X17290D02*
D03*
D24*
X58310Y48331D02*
D03*
Y47149D02*
D03*
X36810Y48331D02*
D03*
Y47149D02*
D03*
X15310Y48331D02*
D03*
Y47149D02*
D03*
D25*
X53380Y50781D02*
D03*
Y49599D02*
D03*
X31880Y50781D02*
D03*
Y49599D02*
D03*
X10380Y50781D02*
D03*
Y49599D02*
D03*
D26*
X58990Y45730D02*
D03*
Y44195D02*
D03*
X37490Y45730D02*
D03*
Y44195D02*
D03*
X15990Y45730D02*
D03*
Y44195D02*
D03*
D27*
X56346Y54553D02*
D03*
Y54947D02*
D03*
X55814D02*
D03*
Y54553D02*
D03*
X54846Y54563D02*
D03*
Y54957D02*
D03*
X54314D02*
D03*
Y54563D02*
D03*
X34846Y54553D02*
D03*
Y54947D02*
D03*
X34314D02*
D03*
Y54553D02*
D03*
X33346Y54563D02*
D03*
Y54957D02*
D03*
X32814D02*
D03*
Y54563D02*
D03*
X13346Y54553D02*
D03*
Y54947D02*
D03*
X12814D02*
D03*
Y54553D02*
D03*
X11846Y54563D02*
D03*
Y54957D02*
D03*
X11314D02*
D03*
Y54563D02*
D03*
D28*
X56346Y54750D02*
D03*
X55814D02*
D03*
X54846Y54760D02*
D03*
X54314D02*
D03*
X34846Y54750D02*
D03*
X34314D02*
D03*
X33346Y54760D02*
D03*
X32814D02*
D03*
X13346Y54750D02*
D03*
X12814D02*
D03*
X11846Y54760D02*
D03*
X11314D02*
D03*
D29*
X55750Y43633D02*
D03*
X55250D02*
D03*
X54750D02*
D03*
X54250D02*
D03*
X53750D02*
D03*
X53250D02*
D03*
X52750D02*
D03*
X52250D02*
D03*
X51750D02*
D03*
X55750Y45307D02*
D03*
X55250D02*
D03*
X54750D02*
D03*
X54250D02*
D03*
X53750D02*
D03*
X53250D02*
D03*
X52750D02*
D03*
X52250D02*
D03*
X51750D02*
D03*
X51250D02*
D03*
Y43633D02*
D03*
Y65133D02*
D03*
X51750D02*
D03*
X52250D02*
D03*
X52750D02*
D03*
X53250D02*
D03*
X53750D02*
D03*
X54250D02*
D03*
X54750D02*
D03*
Y66807D02*
D03*
X54250D02*
D03*
X53750D02*
D03*
X53250D02*
D03*
X52750D02*
D03*
X52250D02*
D03*
X51750D02*
D03*
X51250D02*
D03*
Y22133D02*
D03*
X51750D02*
D03*
X52250D02*
D03*
X52750D02*
D03*
X53250D02*
D03*
X53750D02*
D03*
X54250D02*
D03*
X54750D02*
D03*
Y23807D02*
D03*
X54250D02*
D03*
X53750D02*
D03*
X53250D02*
D03*
X52750D02*
D03*
X52250D02*
D03*
X51750D02*
D03*
X51250D02*
D03*
Y633D02*
D03*
X51750D02*
D03*
X52250D02*
D03*
X52750D02*
D03*
X53250D02*
D03*
X53750D02*
D03*
X54250D02*
D03*
X54750D02*
D03*
Y2307D02*
D03*
X54250D02*
D03*
X53750D02*
D03*
X53250D02*
D03*
X52750D02*
D03*
X52250D02*
D03*
X51750D02*
D03*
X51250D02*
D03*
X29750Y633D02*
D03*
X30250D02*
D03*
X30750D02*
D03*
X31250D02*
D03*
X31750D02*
D03*
X32250D02*
D03*
X32750D02*
D03*
X33250D02*
D03*
Y2307D02*
D03*
X32750D02*
D03*
X32250D02*
D03*
X31750D02*
D03*
X31250D02*
D03*
X30750D02*
D03*
X30250D02*
D03*
X29750D02*
D03*
Y22133D02*
D03*
X30250D02*
D03*
X30750D02*
D03*
X31250D02*
D03*
X31750D02*
D03*
X32250D02*
D03*
X32750D02*
D03*
X33250D02*
D03*
Y23807D02*
D03*
X32750D02*
D03*
X32250D02*
D03*
X31750D02*
D03*
X31250D02*
D03*
X30750D02*
D03*
X30250D02*
D03*
X29750D02*
D03*
Y65133D02*
D03*
X30250D02*
D03*
X30750D02*
D03*
X31250D02*
D03*
X31750D02*
D03*
X32250D02*
D03*
X32750D02*
D03*
X33250D02*
D03*
Y66807D02*
D03*
X32750D02*
D03*
X32250D02*
D03*
X31750D02*
D03*
X31250D02*
D03*
X30750D02*
D03*
X30250D02*
D03*
X29750D02*
D03*
X34250Y43633D02*
D03*
X33750D02*
D03*
X33250D02*
D03*
X32750D02*
D03*
X32250D02*
D03*
X31750D02*
D03*
X31250D02*
D03*
X30750D02*
D03*
X30250D02*
D03*
X34250Y45307D02*
D03*
X33750D02*
D03*
X33250D02*
D03*
X32750D02*
D03*
X32250D02*
D03*
X31750D02*
D03*
X31250D02*
D03*
X30750D02*
D03*
X30250D02*
D03*
X29750D02*
D03*
Y43633D02*
D03*
X12750D02*
D03*
X12250D02*
D03*
X11750D02*
D03*
X11250D02*
D03*
X10750D02*
D03*
X10250D02*
D03*
X9750D02*
D03*
X9250D02*
D03*
X8750D02*
D03*
X12750Y45307D02*
D03*
X12250D02*
D03*
X11750D02*
D03*
X11250D02*
D03*
X10750D02*
D03*
X10250D02*
D03*
X9750D02*
D03*
X9250D02*
D03*
X8750D02*
D03*
X8250D02*
D03*
Y43633D02*
D03*
Y65133D02*
D03*
X8750D02*
D03*
X9250D02*
D03*
X9750D02*
D03*
X10250D02*
D03*
X10750D02*
D03*
X11250D02*
D03*
X11750D02*
D03*
Y66807D02*
D03*
X11250D02*
D03*
X10750D02*
D03*
X10250D02*
D03*
X9750D02*
D03*
X9250D02*
D03*
X8750D02*
D03*
X8250D02*
D03*
Y22133D02*
D03*
X8750D02*
D03*
X9250D02*
D03*
X9750D02*
D03*
X10250D02*
D03*
X10750D02*
D03*
X11250D02*
D03*
X11750D02*
D03*
Y23807D02*
D03*
X11250D02*
D03*
X10750D02*
D03*
X10250D02*
D03*
X9750D02*
D03*
X9250D02*
D03*
X8750D02*
D03*
X8250D02*
D03*
Y633D02*
D03*
X8750D02*
D03*
X9250D02*
D03*
X9750D02*
D03*
X10250D02*
D03*
X10750D02*
D03*
X11250D02*
D03*
X11750D02*
D03*
Y2307D02*
D03*
X11250D02*
D03*
X10750D02*
D03*
X10250D02*
D03*
X9750D02*
D03*
X9250D02*
D03*
X8750D02*
D03*
X8250D02*
D03*
D30*
X49575Y60720D02*
D03*
Y60220D02*
D03*
Y59720D02*
D03*
Y59220D02*
D03*
Y58720D02*
D03*
Y58220D02*
D03*
Y57720D02*
D03*
X51465Y60720D02*
D03*
Y60220D02*
D03*
Y59720D02*
D03*
Y59220D02*
D03*
Y58720D02*
D03*
Y58220D02*
D03*
Y57720D02*
D03*
X56565Y8440D02*
D03*
Y7940D02*
D03*
Y7440D02*
D03*
Y6940D02*
D03*
X58455Y8440D02*
D03*
Y7940D02*
D03*
Y7440D02*
D03*
Y6940D02*
D03*
X56565Y6140D02*
D03*
Y5640D02*
D03*
Y5140D02*
D03*
Y4640D02*
D03*
X58455Y6140D02*
D03*
Y5640D02*
D03*
Y5140D02*
D03*
Y4640D02*
D03*
X56565Y3790D02*
D03*
Y3290D02*
D03*
Y2790D02*
D03*
Y2290D02*
D03*
X58455Y3790D02*
D03*
Y3290D02*
D03*
Y2790D02*
D03*
Y2290D02*
D03*
X56565Y17780D02*
D03*
Y17280D02*
D03*
Y16780D02*
D03*
Y16280D02*
D03*
X58455Y17780D02*
D03*
Y17280D02*
D03*
Y16780D02*
D03*
Y16280D02*
D03*
X56565Y15480D02*
D03*
Y14980D02*
D03*
Y14480D02*
D03*
Y13980D02*
D03*
X58455Y15480D02*
D03*
Y14980D02*
D03*
Y14480D02*
D03*
Y13980D02*
D03*
X56565Y13130D02*
D03*
Y12630D02*
D03*
Y12130D02*
D03*
Y11630D02*
D03*
X58455Y13130D02*
D03*
Y12630D02*
D03*
Y12130D02*
D03*
Y11630D02*
D03*
X35065Y8440D02*
D03*
Y7940D02*
D03*
Y7440D02*
D03*
Y6940D02*
D03*
X36955Y8440D02*
D03*
Y7940D02*
D03*
Y7440D02*
D03*
Y6940D02*
D03*
X35065Y6140D02*
D03*
Y5640D02*
D03*
Y5140D02*
D03*
Y4640D02*
D03*
X36955Y6140D02*
D03*
Y5640D02*
D03*
Y5140D02*
D03*
Y4640D02*
D03*
X35065Y3790D02*
D03*
Y3290D02*
D03*
Y2790D02*
D03*
Y2290D02*
D03*
X36955Y3790D02*
D03*
Y3290D02*
D03*
Y2790D02*
D03*
Y2290D02*
D03*
X35065Y17780D02*
D03*
Y17280D02*
D03*
Y16780D02*
D03*
Y16280D02*
D03*
X36955Y17780D02*
D03*
Y17280D02*
D03*
Y16780D02*
D03*
Y16280D02*
D03*
X35065Y15480D02*
D03*
Y14980D02*
D03*
Y14480D02*
D03*
Y13980D02*
D03*
X36955Y15480D02*
D03*
Y14980D02*
D03*
Y14480D02*
D03*
Y13980D02*
D03*
X35065Y13130D02*
D03*
Y12630D02*
D03*
Y12130D02*
D03*
Y11630D02*
D03*
X36955Y13130D02*
D03*
Y12630D02*
D03*
Y12130D02*
D03*
Y11630D02*
D03*
X28075Y60720D02*
D03*
Y60220D02*
D03*
Y59720D02*
D03*
Y59220D02*
D03*
Y58720D02*
D03*
Y58220D02*
D03*
Y57720D02*
D03*
X29965Y60720D02*
D03*
Y60220D02*
D03*
Y59720D02*
D03*
Y59220D02*
D03*
Y58720D02*
D03*
Y58220D02*
D03*
Y57720D02*
D03*
X6575Y60720D02*
D03*
Y60220D02*
D03*
Y59720D02*
D03*
Y59220D02*
D03*
Y58720D02*
D03*
Y58220D02*
D03*
Y57720D02*
D03*
X8465Y60720D02*
D03*
Y60220D02*
D03*
Y59720D02*
D03*
Y59220D02*
D03*
Y58720D02*
D03*
Y58220D02*
D03*
Y57720D02*
D03*
X13565Y8440D02*
D03*
Y7940D02*
D03*
Y7440D02*
D03*
Y6940D02*
D03*
X15455Y8440D02*
D03*
Y7940D02*
D03*
Y7440D02*
D03*
Y6940D02*
D03*
X13565Y6140D02*
D03*
Y5640D02*
D03*
Y5140D02*
D03*
Y4640D02*
D03*
X15455Y6140D02*
D03*
Y5640D02*
D03*
Y5140D02*
D03*
Y4640D02*
D03*
X13565Y3790D02*
D03*
Y3290D02*
D03*
Y2790D02*
D03*
Y2290D02*
D03*
X15455Y3790D02*
D03*
Y3290D02*
D03*
Y2790D02*
D03*
Y2290D02*
D03*
X13565Y17780D02*
D03*
Y17280D02*
D03*
Y16780D02*
D03*
Y16280D02*
D03*
X15455Y17780D02*
D03*
Y17280D02*
D03*
Y16780D02*
D03*
Y16280D02*
D03*
X13565Y15480D02*
D03*
Y14980D02*
D03*
Y14480D02*
D03*
Y13980D02*
D03*
X15455Y15480D02*
D03*
Y14980D02*
D03*
Y14480D02*
D03*
Y13980D02*
D03*
X13565Y13130D02*
D03*
Y12630D02*
D03*
Y12130D02*
D03*
Y11630D02*
D03*
X15455Y13130D02*
D03*
Y12630D02*
D03*
Y12130D02*
D03*
Y11630D02*
D03*
D31*
X47560Y54706D02*
D03*
Y55494D02*
D03*
X58350Y1514D02*
D03*
Y726D02*
D03*
X36850Y1514D02*
D03*
Y726D02*
D03*
X26060Y54706D02*
D03*
Y55494D02*
D03*
X4560Y54706D02*
D03*
Y55494D02*
D03*
X15350Y1514D02*
D03*
Y726D02*
D03*
D37*
X54454Y71335D02*
D03*
X32954D02*
D03*
X11454D02*
D03*
D38*
X53530Y82630D02*
D03*
X32030D02*
D03*
X10530D02*
D03*
D39*
X52841Y83014D02*
D03*
Y82758D02*
D03*
Y82502D02*
D03*
Y82246D02*
D03*
X54219D02*
D03*
Y82502D02*
D03*
Y82758D02*
D03*
Y83014D02*
D03*
X31341D02*
D03*
Y82758D02*
D03*
Y82502D02*
D03*
Y82246D02*
D03*
X32719D02*
D03*
Y82502D02*
D03*
Y82758D02*
D03*
Y83014D02*
D03*
X9841D02*
D03*
Y82758D02*
D03*
Y82502D02*
D03*
Y82246D02*
D03*
X11219D02*
D03*
Y82502D02*
D03*
Y82758D02*
D03*
Y83014D02*
D03*
D40*
X53146Y81941D02*
D03*
X53402D02*
D03*
X53658D02*
D03*
X53914D02*
D03*
Y83319D02*
D03*
X53658D02*
D03*
X53402D02*
D03*
X53146D02*
D03*
X31646Y81941D02*
D03*
X31902D02*
D03*
X32158D02*
D03*
X32414D02*
D03*
Y83319D02*
D03*
X32158D02*
D03*
X31902D02*
D03*
X31646D02*
D03*
X10146Y81941D02*
D03*
X10402D02*
D03*
X10658D02*
D03*
X10914D02*
D03*
Y83319D02*
D03*
X10658D02*
D03*
X10402D02*
D03*
X10146D02*
D03*
D41*
X51126Y79520D02*
D03*
X51854Y79776D02*
D03*
Y79264D02*
D03*
X29626Y79520D02*
D03*
X30354Y79776D02*
D03*
Y79264D02*
D03*
X8126Y79520D02*
D03*
X8854Y79776D02*
D03*
Y79264D02*
D03*
D42*
X46450Y65319D02*
D03*
X59550D02*
D03*
X24950D02*
D03*
X38050D02*
D03*
X3450D02*
D03*
X16550D02*
D03*
D43*
X45450Y67681D02*
D03*
X45950D02*
D03*
X46450D02*
D03*
X46950D02*
D03*
X47450D02*
D03*
X58550D02*
D03*
X59050D02*
D03*
X59550D02*
D03*
X60050D02*
D03*
X60550D02*
D03*
X23950D02*
D03*
X24450D02*
D03*
X24950D02*
D03*
X25450D02*
D03*
X25950D02*
D03*
X37050D02*
D03*
X37550D02*
D03*
X38050D02*
D03*
X38550D02*
D03*
X39050D02*
D03*
X2450D02*
D03*
X2950D02*
D03*
X3450D02*
D03*
X3950D02*
D03*
X4450D02*
D03*
X15550D02*
D03*
X16050D02*
D03*
X16550D02*
D03*
X17050D02*
D03*
X17550D02*
D03*
D44*
X49984Y78157D02*
D03*
X49236D02*
D03*
Y79083D02*
D03*
X49610D02*
D03*
X49984D02*
D03*
X28484Y78157D02*
D03*
X27736D02*
D03*
Y79083D02*
D03*
X28110D02*
D03*
X28484D02*
D03*
X6984Y78157D02*
D03*
X6236D02*
D03*
Y79083D02*
D03*
X6610D02*
D03*
X6984D02*
D03*
D45*
X59943Y70366D02*
D03*
Y70740D02*
D03*
Y71114D02*
D03*
X59017D02*
D03*
Y70366D02*
D03*
X52287Y77176D02*
D03*
Y77924D02*
D03*
X53213D02*
D03*
Y77550D02*
D03*
Y77176D02*
D03*
X38443Y70366D02*
D03*
Y70740D02*
D03*
Y71114D02*
D03*
X37517D02*
D03*
Y70366D02*
D03*
X30787Y77176D02*
D03*
Y77924D02*
D03*
X31713D02*
D03*
Y77550D02*
D03*
Y77176D02*
D03*
X16943Y70366D02*
D03*
Y70740D02*
D03*
Y71114D02*
D03*
X16017D02*
D03*
Y70366D02*
D03*
X9287Y77176D02*
D03*
Y77924D02*
D03*
X10213D02*
D03*
Y77550D02*
D03*
Y77176D02*
D03*
D46*
X54290Y68350D02*
D03*
X54940D02*
D03*
Y67740D02*
D03*
X54290D02*
D03*
X32790Y68350D02*
D03*
X33440D02*
D03*
Y67740D02*
D03*
X32790D02*
D03*
X11290Y68350D02*
D03*
X11940D02*
D03*
Y67740D02*
D03*
X11290D02*
D03*
D48*
X50870Y29185D02*
D03*
Y29775D02*
D03*
X50270Y29185D02*
D03*
Y29775D02*
D03*
X47270Y33685D02*
D03*
Y33095D02*
D03*
X49350Y24395D02*
D03*
Y24985D02*
D03*
X45150Y25185D02*
D03*
Y24595D02*
D03*
X55750Y33225D02*
D03*
Y32635D02*
D03*
X49350Y23185D02*
D03*
Y23775D02*
D03*
X49270Y26175D02*
D03*
Y25585D02*
D03*
X50470Y31175D02*
D03*
Y30585D02*
D03*
X45150Y23985D02*
D03*
Y23395D02*
D03*
X50130Y33235D02*
D03*
Y32645D02*
D03*
X55700Y31695D02*
D03*
Y31105D02*
D03*
X60150Y23905D02*
D03*
Y24495D02*
D03*
X43380Y37375D02*
D03*
Y36785D02*
D03*
X43980Y37375D02*
D03*
Y36785D02*
D03*
X53000Y35345D02*
D03*
Y34755D02*
D03*
X29370Y29185D02*
D03*
Y29775D02*
D03*
X28770Y29185D02*
D03*
Y29775D02*
D03*
X25770Y33685D02*
D03*
Y33095D02*
D03*
X27850Y24395D02*
D03*
Y24985D02*
D03*
X23650Y25185D02*
D03*
Y24595D02*
D03*
X34250Y33225D02*
D03*
Y32635D02*
D03*
X27850Y23185D02*
D03*
Y23775D02*
D03*
X27770Y26175D02*
D03*
Y25585D02*
D03*
X28970Y31175D02*
D03*
Y30585D02*
D03*
X23650Y23985D02*
D03*
Y23395D02*
D03*
X28630Y33235D02*
D03*
Y32645D02*
D03*
X34200Y31695D02*
D03*
Y31105D02*
D03*
X38650Y23905D02*
D03*
Y24495D02*
D03*
X21880Y37375D02*
D03*
Y36785D02*
D03*
X22480Y37375D02*
D03*
Y36785D02*
D03*
X31500Y35345D02*
D03*
Y34755D02*
D03*
X7870Y29185D02*
D03*
Y29775D02*
D03*
X7270Y29185D02*
D03*
Y29775D02*
D03*
X4270Y33685D02*
D03*
Y33095D02*
D03*
X6350Y24395D02*
D03*
Y24985D02*
D03*
X2150Y25185D02*
D03*
Y24595D02*
D03*
X12750Y33225D02*
D03*
Y32635D02*
D03*
X6350Y23185D02*
D03*
Y23775D02*
D03*
X6270Y26175D02*
D03*
Y25585D02*
D03*
X7470Y31175D02*
D03*
Y30585D02*
D03*
X2150Y23985D02*
D03*
Y23395D02*
D03*
X7130Y33235D02*
D03*
Y32645D02*
D03*
X12700Y31695D02*
D03*
Y31105D02*
D03*
X17150Y23905D02*
D03*
Y24495D02*
D03*
X380Y37375D02*
D03*
Y36785D02*
D03*
X980Y37375D02*
D03*
Y36785D02*
D03*
X10000Y35345D02*
D03*
Y34755D02*
D03*
D49*
X54565Y34080D02*
D03*
X53975D02*
D03*
X47295Y23080D02*
D03*
X47885D02*
D03*
X58655Y30100D02*
D03*
X59245D02*
D03*
X55095Y29400D02*
D03*
X54505D02*
D03*
X52155Y34140D02*
D03*
X51565D02*
D03*
X48295Y26900D02*
D03*
X47705D02*
D03*
X61505Y38390D02*
D03*
X60915D02*
D03*
X49395Y26900D02*
D03*
X48805D02*
D03*
X59695Y23250D02*
D03*
X59105D02*
D03*
X61505Y37790D02*
D03*
X60915D02*
D03*
X33065Y34080D02*
D03*
X32475D02*
D03*
X25795Y23080D02*
D03*
X26385D02*
D03*
X37155Y30100D02*
D03*
X37745D02*
D03*
X33595Y29400D02*
D03*
X33005D02*
D03*
X30655Y34140D02*
D03*
X30065D02*
D03*
X26795Y26900D02*
D03*
X26205D02*
D03*
X40005Y38390D02*
D03*
X39415D02*
D03*
X27895Y26900D02*
D03*
X27305D02*
D03*
X38195Y23250D02*
D03*
X37605D02*
D03*
X40005Y37790D02*
D03*
X39415D02*
D03*
X11565Y34080D02*
D03*
X10975D02*
D03*
X4295Y23080D02*
D03*
X4885D02*
D03*
X15655Y30100D02*
D03*
X16245D02*
D03*
X12095Y29400D02*
D03*
X11505D02*
D03*
X9155Y34140D02*
D03*
X8565D02*
D03*
X5295Y26900D02*
D03*
X4705D02*
D03*
X18505Y38390D02*
D03*
X17915D02*
D03*
X6395Y26900D02*
D03*
X5805D02*
D03*
X16695Y23250D02*
D03*
X16105D02*
D03*
X18505Y37790D02*
D03*
X17915D02*
D03*
D50*
X48482Y23594D02*
D03*
Y23850D02*
D03*
Y24106D02*
D03*
Y24362D02*
D03*
Y24618D02*
D03*
Y24874D02*
D03*
Y25130D02*
D03*
Y25386D02*
D03*
X46218Y23594D02*
D03*
Y23850D02*
D03*
Y24106D02*
D03*
Y24362D02*
D03*
Y24618D02*
D03*
Y24874D02*
D03*
Y25130D02*
D03*
Y25386D02*
D03*
X26982Y23594D02*
D03*
Y23850D02*
D03*
Y24106D02*
D03*
Y24362D02*
D03*
Y24618D02*
D03*
Y24874D02*
D03*
Y25130D02*
D03*
Y25386D02*
D03*
X24718Y23594D02*
D03*
Y23850D02*
D03*
Y24106D02*
D03*
Y24362D02*
D03*
Y24618D02*
D03*
Y24874D02*
D03*
Y25130D02*
D03*
Y25386D02*
D03*
X5482Y23594D02*
D03*
Y23850D02*
D03*
Y24106D02*
D03*
Y24362D02*
D03*
Y24618D02*
D03*
Y24874D02*
D03*
Y25130D02*
D03*
Y25386D02*
D03*
X3218Y23594D02*
D03*
Y23850D02*
D03*
Y24106D02*
D03*
Y24362D02*
D03*
Y24618D02*
D03*
Y24874D02*
D03*
Y25130D02*
D03*
Y25386D02*
D03*
D51*
X56838Y22146D02*
D03*
Y22894D02*
D03*
X57782D02*
D03*
Y22520D02*
D03*
Y22146D02*
D03*
X56838Y24146D02*
D03*
Y24894D02*
D03*
X57782D02*
D03*
Y24520D02*
D03*
Y24146D02*
D03*
X35338Y22146D02*
D03*
Y22894D02*
D03*
X36282D02*
D03*
Y22520D02*
D03*
Y22146D02*
D03*
X35338Y24146D02*
D03*
Y24894D02*
D03*
X36282D02*
D03*
Y24520D02*
D03*
Y24146D02*
D03*
X13838Y22146D02*
D03*
Y22894D02*
D03*
X14782D02*
D03*
Y22520D02*
D03*
Y22146D02*
D03*
X13838Y24146D02*
D03*
Y24894D02*
D03*
X14782D02*
D03*
Y24520D02*
D03*
Y24146D02*
D03*
D52*
X58632Y30498D02*
D03*
Y30754D02*
D03*
Y31010D02*
D03*
Y31266D02*
D03*
Y31522D02*
D03*
Y31778D02*
D03*
Y32034D02*
D03*
Y32290D02*
D03*
Y32546D02*
D03*
Y32802D02*
D03*
X56388Y30498D02*
D03*
Y30754D02*
D03*
Y31010D02*
D03*
Y31266D02*
D03*
Y31522D02*
D03*
Y31778D02*
D03*
Y32034D02*
D03*
Y32290D02*
D03*
Y32546D02*
D03*
Y32802D02*
D03*
X37132Y30498D02*
D03*
Y30754D02*
D03*
Y31010D02*
D03*
Y31266D02*
D03*
Y31522D02*
D03*
Y31778D02*
D03*
Y32034D02*
D03*
Y32290D02*
D03*
Y32546D02*
D03*
Y32802D02*
D03*
X34888Y30498D02*
D03*
Y30754D02*
D03*
Y31010D02*
D03*
Y31266D02*
D03*
Y31522D02*
D03*
Y31778D02*
D03*
Y32034D02*
D03*
Y32290D02*
D03*
Y32546D02*
D03*
Y32802D02*
D03*
X15632Y30498D02*
D03*
Y30754D02*
D03*
Y31010D02*
D03*
Y31266D02*
D03*
Y31522D02*
D03*
Y31778D02*
D03*
Y32034D02*
D03*
Y32290D02*
D03*
Y32546D02*
D03*
Y32802D02*
D03*
X13388Y30498D02*
D03*
Y30754D02*
D03*
Y31010D02*
D03*
Y31266D02*
D03*
Y31522D02*
D03*
Y31778D02*
D03*
Y32034D02*
D03*
Y32290D02*
D03*
Y32546D02*
D03*
Y32802D02*
D03*
D53*
X53070Y31680D02*
D03*
X31570D02*
D03*
X10070D02*
D03*
D54*
X51249Y30204D02*
D03*
Y30400D02*
D03*
Y30597D02*
D03*
Y30794D02*
D03*
Y30991D02*
D03*
Y31188D02*
D03*
Y31385D02*
D03*
Y31582D02*
D03*
Y31778D02*
D03*
Y31975D02*
D03*
Y32172D02*
D03*
Y32369D02*
D03*
Y32566D02*
D03*
Y32763D02*
D03*
Y32960D02*
D03*
Y33156D02*
D03*
X54891D02*
D03*
Y32960D02*
D03*
Y32763D02*
D03*
Y32566D02*
D03*
Y32369D02*
D03*
Y32172D02*
D03*
Y31975D02*
D03*
Y31778D02*
D03*
Y31582D02*
D03*
Y31385D02*
D03*
Y31188D02*
D03*
Y30991D02*
D03*
Y30794D02*
D03*
Y30597D02*
D03*
Y30400D02*
D03*
Y30204D02*
D03*
X29749D02*
D03*
Y30400D02*
D03*
Y30597D02*
D03*
Y30794D02*
D03*
Y30991D02*
D03*
Y31188D02*
D03*
Y31385D02*
D03*
Y31582D02*
D03*
Y31778D02*
D03*
Y31975D02*
D03*
Y32172D02*
D03*
Y32369D02*
D03*
Y32566D02*
D03*
Y32763D02*
D03*
Y32960D02*
D03*
Y33156D02*
D03*
X33391D02*
D03*
Y32960D02*
D03*
Y32763D02*
D03*
Y32566D02*
D03*
Y32369D02*
D03*
Y32172D02*
D03*
Y31975D02*
D03*
Y31778D02*
D03*
Y31582D02*
D03*
Y31385D02*
D03*
Y31188D02*
D03*
Y30991D02*
D03*
Y30794D02*
D03*
Y30597D02*
D03*
Y30400D02*
D03*
Y30204D02*
D03*
X8249D02*
D03*
Y30400D02*
D03*
Y30597D02*
D03*
Y30794D02*
D03*
Y30991D02*
D03*
Y31188D02*
D03*
Y31385D02*
D03*
Y31582D02*
D03*
Y31778D02*
D03*
Y31975D02*
D03*
Y32172D02*
D03*
Y32369D02*
D03*
Y32566D02*
D03*
Y32763D02*
D03*
Y32960D02*
D03*
Y33156D02*
D03*
X11891D02*
D03*
Y32960D02*
D03*
Y32763D02*
D03*
Y32566D02*
D03*
Y32369D02*
D03*
Y32172D02*
D03*
Y31975D02*
D03*
Y31778D02*
D03*
Y31582D02*
D03*
Y31385D02*
D03*
Y31188D02*
D03*
Y30991D02*
D03*
Y30794D02*
D03*
Y30597D02*
D03*
Y30400D02*
D03*
Y30204D02*
D03*
D55*
X51594Y33501D02*
D03*
X51790D02*
D03*
X51987D02*
D03*
X52184D02*
D03*
X52381D02*
D03*
X52578D02*
D03*
X52775D02*
D03*
X52972D02*
D03*
X53168D02*
D03*
X53365D02*
D03*
X53562D02*
D03*
X53759D02*
D03*
X53956D02*
D03*
X54153D02*
D03*
X54350D02*
D03*
X54546D02*
D03*
Y29859D02*
D03*
X54350D02*
D03*
X54153D02*
D03*
X53956D02*
D03*
X53759D02*
D03*
X53562D02*
D03*
X53365D02*
D03*
X53168D02*
D03*
X52972D02*
D03*
X52775D02*
D03*
X52578D02*
D03*
X52381D02*
D03*
X52184D02*
D03*
X51987D02*
D03*
X51790D02*
D03*
X51594D02*
D03*
X30094Y33501D02*
D03*
X30290D02*
D03*
X30487D02*
D03*
X30684D02*
D03*
X30881D02*
D03*
X31078D02*
D03*
X31275D02*
D03*
X31472D02*
D03*
X31668D02*
D03*
X31865D02*
D03*
X32062D02*
D03*
X32259D02*
D03*
X32456D02*
D03*
X32653D02*
D03*
X32850D02*
D03*
X33046D02*
D03*
Y29859D02*
D03*
X32850D02*
D03*
X32653D02*
D03*
X32456D02*
D03*
X32259D02*
D03*
X32062D02*
D03*
X31865D02*
D03*
X31668D02*
D03*
X31472D02*
D03*
X31275D02*
D03*
X31078D02*
D03*
X30881D02*
D03*
X30684D02*
D03*
X30487D02*
D03*
X30290D02*
D03*
X30094D02*
D03*
X8594Y33501D02*
D03*
X8790D02*
D03*
X8987D02*
D03*
X9184D02*
D03*
X9381D02*
D03*
X9578D02*
D03*
X9775D02*
D03*
X9972D02*
D03*
X10168D02*
D03*
X10365D02*
D03*
X10562D02*
D03*
X10759D02*
D03*
X10956D02*
D03*
X11153D02*
D03*
X11350D02*
D03*
X11546D02*
D03*
Y29859D02*
D03*
X11350D02*
D03*
X11153D02*
D03*
X10956D02*
D03*
X10759D02*
D03*
X10562D02*
D03*
X10365D02*
D03*
X10168D02*
D03*
X9972D02*
D03*
X9775D02*
D03*
X9578D02*
D03*
X9381D02*
D03*
X9184D02*
D03*
X8987D02*
D03*
X8790D02*
D03*
X8594D02*
D03*
D56*
X44024Y33432D02*
D03*
Y29928D02*
D03*
X22524Y33432D02*
D03*
Y29928D02*
D03*
X1024Y33432D02*
D03*
Y29928D02*
D03*
D57*
X45855Y33432D02*
D03*
Y29928D02*
D03*
X24355Y33432D02*
D03*
Y29928D02*
D03*
X2855Y33432D02*
D03*
Y29928D02*
D03*
D58*
X45885Y31680D02*
D03*
Y31995D02*
D03*
Y32310D02*
D03*
Y31365D02*
D03*
Y31050D02*
D03*
X24385Y31680D02*
D03*
Y31995D02*
D03*
Y32310D02*
D03*
Y31365D02*
D03*
Y31050D02*
D03*
X2885Y31680D02*
D03*
Y31995D02*
D03*
Y32310D02*
D03*
Y31365D02*
D03*
Y31050D02*
D03*
D59*
X48424Y29644D02*
D03*
X47676D02*
D03*
X48050Y28856D02*
D03*
X60124Y25944D02*
D03*
X59376D02*
D03*
X59750Y25156D02*
D03*
X59474Y24594D02*
D03*
X58726D02*
D03*
X59100Y23806D02*
D03*
X26924Y29644D02*
D03*
X26176D02*
D03*
X26550Y28856D02*
D03*
X38624Y25944D02*
D03*
X37876D02*
D03*
X38250Y25156D02*
D03*
X37974Y24594D02*
D03*
X37226D02*
D03*
X37600Y23806D02*
D03*
X5424Y29644D02*
D03*
X4676D02*
D03*
X5050Y28856D02*
D03*
X17124Y25944D02*
D03*
X16376D02*
D03*
X16750Y25156D02*
D03*
X16474Y24594D02*
D03*
X15726D02*
D03*
X16100Y23806D02*
D03*
D60*
X58236Y36534D02*
D03*
Y35786D02*
D03*
X59024Y36160D02*
D03*
X45824Y37156D02*
D03*
Y37904D02*
D03*
X45036Y37530D02*
D03*
X48494Y27476D02*
D03*
Y28224D02*
D03*
X47706Y27850D02*
D03*
X58236Y35134D02*
D03*
Y34386D02*
D03*
X59024Y34760D02*
D03*
X45824Y38706D02*
D03*
Y39454D02*
D03*
X45036Y39080D02*
D03*
X36736Y36534D02*
D03*
Y35786D02*
D03*
X37524Y36160D02*
D03*
X24324Y37156D02*
D03*
Y37904D02*
D03*
X23536Y37530D02*
D03*
X26994Y27476D02*
D03*
Y28224D02*
D03*
X26206Y27850D02*
D03*
X36736Y35134D02*
D03*
Y34386D02*
D03*
X37524Y34760D02*
D03*
X24324Y38706D02*
D03*
Y39454D02*
D03*
X23536Y39080D02*
D03*
X15236Y36534D02*
D03*
Y35786D02*
D03*
X16024Y36160D02*
D03*
X2824Y37156D02*
D03*
Y37904D02*
D03*
X2036Y37530D02*
D03*
X5494Y27476D02*
D03*
Y28224D02*
D03*
X4706Y27850D02*
D03*
X15236Y35134D02*
D03*
Y34386D02*
D03*
X16024Y34760D02*
D03*
X2824Y38706D02*
D03*
Y39454D02*
D03*
X2036Y39080D02*
D03*
D61*
X43500Y25141D02*
D03*
Y24550D02*
D03*
X59850Y22495D02*
D03*
Y21905D02*
D03*
X43380Y37885D02*
D03*
Y38475D02*
D03*
X44100Y25141D02*
D03*
Y24550D02*
D03*
X59200Y22495D02*
D03*
Y21905D02*
D03*
X43980Y37885D02*
D03*
Y38475D02*
D03*
X22000Y25141D02*
D03*
Y24550D02*
D03*
X38350Y22495D02*
D03*
Y21905D02*
D03*
X21880Y37885D02*
D03*
Y38475D02*
D03*
X22600Y25141D02*
D03*
Y24550D02*
D03*
X37700Y22495D02*
D03*
Y21905D02*
D03*
X22480Y37885D02*
D03*
Y38475D02*
D03*
X500Y25141D02*
D03*
Y24550D02*
D03*
X16850Y22495D02*
D03*
Y21905D02*
D03*
X380Y37885D02*
D03*
Y38475D02*
D03*
X1100Y25141D02*
D03*
Y24550D02*
D03*
X16200Y22495D02*
D03*
Y21905D02*
D03*
X980Y37885D02*
D03*
Y38475D02*
D03*
D62*
X62015Y38390D02*
D03*
X62605D02*
D03*
X62015Y37790D02*
D03*
X62605D02*
D03*
X40515Y38390D02*
D03*
X41105D02*
D03*
X40515Y37790D02*
D03*
X41105D02*
D03*
X19015Y38390D02*
D03*
X19605D02*
D03*
X19015Y37790D02*
D03*
X19605D02*
D03*
D65*
X53000Y10000D02*
D03*
X31500D02*
D03*
X10000D02*
D03*
D66*
X53244Y12332D02*
D03*
X53383Y12192D02*
D03*
X53522Y12053D02*
D03*
X53661Y11914D02*
D03*
X53800Y11775D02*
D03*
X53940Y11636D02*
D03*
X54079Y11496D02*
D03*
X54218Y11357D02*
D03*
X54357Y11218D02*
D03*
X54496Y11079D02*
D03*
X54636Y10940D02*
D03*
X54775Y10800D02*
D03*
X54914Y10661D02*
D03*
X55053Y10522D02*
D03*
X55192Y10383D02*
D03*
X55332Y10244D02*
D03*
X52756Y7668D02*
D03*
X52617Y7808D02*
D03*
X52478Y7947D02*
D03*
X52339Y8086D02*
D03*
X52200Y8225D02*
D03*
X52060Y8364D02*
D03*
X51921Y8504D02*
D03*
X51782Y8643D02*
D03*
X51643Y8782D02*
D03*
X51504Y8921D02*
D03*
X51364Y9060D02*
D03*
X51225Y9200D02*
D03*
X51086Y9339D02*
D03*
X50947Y9478D02*
D03*
X50808Y9617D02*
D03*
X50669Y9756D02*
D03*
X31744Y12332D02*
D03*
X31883Y12192D02*
D03*
X32022Y12053D02*
D03*
X32161Y11914D02*
D03*
X32300Y11775D02*
D03*
X32440Y11636D02*
D03*
X32579Y11496D02*
D03*
X32718Y11357D02*
D03*
X32857Y11218D02*
D03*
X32996Y11079D02*
D03*
X33136Y10940D02*
D03*
X33275Y10800D02*
D03*
X33414Y10661D02*
D03*
X33553Y10522D02*
D03*
X33692Y10383D02*
D03*
X33832Y10244D02*
D03*
X31256Y7668D02*
D03*
X31117Y7808D02*
D03*
X30978Y7947D02*
D03*
X30839Y8086D02*
D03*
X30700Y8225D02*
D03*
X30560Y8364D02*
D03*
X30421Y8504D02*
D03*
X30282Y8643D02*
D03*
X30143Y8782D02*
D03*
X30004Y8921D02*
D03*
X29864Y9060D02*
D03*
X29725Y9200D02*
D03*
X29586Y9339D02*
D03*
X29447Y9478D02*
D03*
X29308Y9617D02*
D03*
X29169Y9756D02*
D03*
X10244Y12332D02*
D03*
X10383Y12192D02*
D03*
X10522Y12053D02*
D03*
X10661Y11914D02*
D03*
X10800Y11775D02*
D03*
X10940Y11636D02*
D03*
X11079Y11496D02*
D03*
X11218Y11357D02*
D03*
X11357Y11218D02*
D03*
X11496Y11079D02*
D03*
X11636Y10940D02*
D03*
X11775Y10800D02*
D03*
X11914Y10661D02*
D03*
X12053Y10522D02*
D03*
X12192Y10383D02*
D03*
X12332Y10244D02*
D03*
X9756Y7668D02*
D03*
X9617Y7808D02*
D03*
X9478Y7947D02*
D03*
X9339Y8086D02*
D03*
X9200Y8225D02*
D03*
X9060Y8364D02*
D03*
X8921Y8504D02*
D03*
X8782Y8643D02*
D03*
X8643Y8782D02*
D03*
X8504Y8921D02*
D03*
X8364Y9060D02*
D03*
X8225Y9200D02*
D03*
X8086Y9339D02*
D03*
X7947Y9478D02*
D03*
X7808Y9617D02*
D03*
X7668Y9756D02*
D03*
D67*
X55332D02*
D03*
X55192Y9617D02*
D03*
X55053Y9478D02*
D03*
X54914Y9339D02*
D03*
X54775Y9200D02*
D03*
X54636Y9060D02*
D03*
X54496Y8921D02*
D03*
X54357Y8782D02*
D03*
X54218Y8643D02*
D03*
X54079Y8504D02*
D03*
X53940Y8364D02*
D03*
X53800Y8225D02*
D03*
X53661Y8086D02*
D03*
X53522Y7947D02*
D03*
X53383Y7808D02*
D03*
X53244Y7668D02*
D03*
X50669Y10244D02*
D03*
X50808Y10383D02*
D03*
X50947Y10522D02*
D03*
X51086Y10661D02*
D03*
X51225Y10800D02*
D03*
X51364Y10940D02*
D03*
X51504Y11079D02*
D03*
X51643Y11218D02*
D03*
X51782Y11357D02*
D03*
X51921Y11496D02*
D03*
X52060Y11636D02*
D03*
X52200Y11775D02*
D03*
X52339Y11914D02*
D03*
X52478Y12053D02*
D03*
X52617Y12192D02*
D03*
X52756Y12332D02*
D03*
X33832Y9756D02*
D03*
X33692Y9617D02*
D03*
X33553Y9478D02*
D03*
X33414Y9339D02*
D03*
X33275Y9200D02*
D03*
X33136Y9060D02*
D03*
X32996Y8921D02*
D03*
X32857Y8782D02*
D03*
X32718Y8643D02*
D03*
X32579Y8504D02*
D03*
X32440Y8364D02*
D03*
X32300Y8225D02*
D03*
X32161Y8086D02*
D03*
X32022Y7947D02*
D03*
X31883Y7808D02*
D03*
X31744Y7668D02*
D03*
X29169Y10244D02*
D03*
X29308Y10383D02*
D03*
X29447Y10522D02*
D03*
X29586Y10661D02*
D03*
X29725Y10800D02*
D03*
X29864Y10940D02*
D03*
X30004Y11079D02*
D03*
X30143Y11218D02*
D03*
X30282Y11357D02*
D03*
X30421Y11496D02*
D03*
X30560Y11636D02*
D03*
X30700Y11775D02*
D03*
X30839Y11914D02*
D03*
X30978Y12053D02*
D03*
X31117Y12192D02*
D03*
X31256Y12332D02*
D03*
X12332Y9756D02*
D03*
X12192Y9617D02*
D03*
X12053Y9478D02*
D03*
X11914Y9339D02*
D03*
X11775Y9200D02*
D03*
X11636Y9060D02*
D03*
X11496Y8921D02*
D03*
X11357Y8782D02*
D03*
X11218Y8643D02*
D03*
X11079Y8504D02*
D03*
X10940Y8364D02*
D03*
X10800Y8225D02*
D03*
X10661Y8086D02*
D03*
X10522Y7947D02*
D03*
X10383Y7808D02*
D03*
X10244Y7668D02*
D03*
X7668Y10244D02*
D03*
X7808Y10383D02*
D03*
X7947Y10522D02*
D03*
X8086Y10661D02*
D03*
X8225Y10800D02*
D03*
X8364Y10940D02*
D03*
X8504Y11079D02*
D03*
X8643Y11218D02*
D03*
X8782Y11357D02*
D03*
X8921Y11496D02*
D03*
X9060Y11636D02*
D03*
X9200Y11775D02*
D03*
X9339Y11914D02*
D03*
X9478Y12053D02*
D03*
X9617Y12192D02*
D03*
X9756Y12332D02*
D03*
D68*
X54409Y12111D02*
D03*
X53991Y12529D02*
D03*
X50851Y8319D02*
D03*
X51269Y7901D02*
D03*
X55549Y11021D02*
D03*
X55131Y11439D02*
D03*
X32909Y12111D02*
D03*
X32491Y12529D02*
D03*
X29351Y8319D02*
D03*
X29769Y7901D02*
D03*
X34049Y11021D02*
D03*
X33631Y11439D02*
D03*
X11409Y12111D02*
D03*
X10991Y12529D02*
D03*
X7851Y8319D02*
D03*
X8269Y7901D02*
D03*
X12549Y11021D02*
D03*
X12131Y11439D02*
D03*
D69*
X50629Y11099D02*
D03*
X50211Y10681D02*
D03*
X53201Y6771D02*
D03*
X53619Y7189D02*
D03*
X55191Y8611D02*
D03*
X55609Y9029D02*
D03*
X29129Y11099D02*
D03*
X28711Y10681D02*
D03*
X31701Y6771D02*
D03*
X32119Y7189D02*
D03*
X33691Y8611D02*
D03*
X34109Y9029D02*
D03*
X7629Y11099D02*
D03*
X7211Y10681D02*
D03*
X10201Y6771D02*
D03*
X10619Y7189D02*
D03*
X12191Y8611D02*
D03*
X12609Y9029D02*
D03*
D70*
X61773Y6940D02*
D03*
Y7440D02*
D03*
Y7940D02*
D03*
Y8440D02*
D03*
X59647Y6940D02*
D03*
Y7440D02*
D03*
Y7940D02*
D03*
Y8440D02*
D03*
X61773Y4640D02*
D03*
Y5140D02*
D03*
Y5640D02*
D03*
Y6140D02*
D03*
X59647Y4640D02*
D03*
Y5140D02*
D03*
Y5640D02*
D03*
Y6140D02*
D03*
X61773Y2290D02*
D03*
Y2790D02*
D03*
Y3290D02*
D03*
Y3790D02*
D03*
X59647Y2290D02*
D03*
Y2790D02*
D03*
Y3290D02*
D03*
Y3790D02*
D03*
X46343Y6910D02*
D03*
Y7410D02*
D03*
Y7910D02*
D03*
Y8410D02*
D03*
X44217Y6910D02*
D03*
Y7410D02*
D03*
Y7910D02*
D03*
Y8410D02*
D03*
X46353Y16270D02*
D03*
Y16770D02*
D03*
Y17270D02*
D03*
Y17770D02*
D03*
X44227Y16270D02*
D03*
Y16770D02*
D03*
Y17270D02*
D03*
Y17770D02*
D03*
X46343Y4610D02*
D03*
Y5110D02*
D03*
Y5610D02*
D03*
Y6110D02*
D03*
X44217Y4610D02*
D03*
Y5110D02*
D03*
Y5610D02*
D03*
Y6110D02*
D03*
X46353Y13970D02*
D03*
Y14470D02*
D03*
Y14970D02*
D03*
Y15470D02*
D03*
X44227Y13970D02*
D03*
Y14470D02*
D03*
Y14970D02*
D03*
Y15470D02*
D03*
X46343Y2260D02*
D03*
Y2760D02*
D03*
Y3260D02*
D03*
Y3760D02*
D03*
X44217Y2260D02*
D03*
Y2760D02*
D03*
Y3260D02*
D03*
Y3760D02*
D03*
X46353Y11620D02*
D03*
Y12120D02*
D03*
Y12620D02*
D03*
Y13120D02*
D03*
X44227Y11620D02*
D03*
Y12120D02*
D03*
Y12620D02*
D03*
Y13120D02*
D03*
X61773Y16280D02*
D03*
Y16780D02*
D03*
Y17280D02*
D03*
Y17780D02*
D03*
X59647Y16280D02*
D03*
Y16780D02*
D03*
Y17280D02*
D03*
Y17780D02*
D03*
X61773Y13980D02*
D03*
Y14480D02*
D03*
Y14980D02*
D03*
Y15480D02*
D03*
X59647Y13980D02*
D03*
Y14480D02*
D03*
Y14980D02*
D03*
Y15480D02*
D03*
X61773Y11630D02*
D03*
Y12130D02*
D03*
Y12630D02*
D03*
Y13130D02*
D03*
X59647Y11630D02*
D03*
Y12130D02*
D03*
Y12630D02*
D03*
Y13130D02*
D03*
X40273Y6940D02*
D03*
Y7440D02*
D03*
Y7940D02*
D03*
Y8440D02*
D03*
X38147Y6940D02*
D03*
Y7440D02*
D03*
Y7940D02*
D03*
Y8440D02*
D03*
X40273Y4640D02*
D03*
Y5140D02*
D03*
Y5640D02*
D03*
Y6140D02*
D03*
X38147Y4640D02*
D03*
Y5140D02*
D03*
Y5640D02*
D03*
Y6140D02*
D03*
X40273Y2290D02*
D03*
Y2790D02*
D03*
Y3290D02*
D03*
Y3790D02*
D03*
X38147Y2290D02*
D03*
Y2790D02*
D03*
Y3290D02*
D03*
Y3790D02*
D03*
X24843Y6910D02*
D03*
Y7410D02*
D03*
Y7910D02*
D03*
Y8410D02*
D03*
X22717Y6910D02*
D03*
Y7410D02*
D03*
Y7910D02*
D03*
Y8410D02*
D03*
X24853Y16270D02*
D03*
Y16770D02*
D03*
Y17270D02*
D03*
Y17770D02*
D03*
X22727Y16270D02*
D03*
Y16770D02*
D03*
Y17270D02*
D03*
Y17770D02*
D03*
X24843Y4610D02*
D03*
Y5110D02*
D03*
Y5610D02*
D03*
Y6110D02*
D03*
X22717Y4610D02*
D03*
Y5110D02*
D03*
Y5610D02*
D03*
Y6110D02*
D03*
X24853Y13970D02*
D03*
Y14470D02*
D03*
Y14970D02*
D03*
Y15470D02*
D03*
X22727Y13970D02*
D03*
Y14470D02*
D03*
Y14970D02*
D03*
Y15470D02*
D03*
X24843Y2260D02*
D03*
Y2760D02*
D03*
Y3260D02*
D03*
Y3760D02*
D03*
X22717Y2260D02*
D03*
Y2760D02*
D03*
Y3260D02*
D03*
Y3760D02*
D03*
X24853Y11620D02*
D03*
Y12120D02*
D03*
Y12620D02*
D03*
Y13120D02*
D03*
X22727Y11620D02*
D03*
Y12120D02*
D03*
Y12620D02*
D03*
Y13120D02*
D03*
X40273Y16280D02*
D03*
Y16780D02*
D03*
Y17280D02*
D03*
Y17780D02*
D03*
X38147Y16280D02*
D03*
Y16780D02*
D03*
Y17280D02*
D03*
Y17780D02*
D03*
X40273Y13980D02*
D03*
Y14480D02*
D03*
Y14980D02*
D03*
Y15480D02*
D03*
X38147Y13980D02*
D03*
Y14480D02*
D03*
Y14980D02*
D03*
Y15480D02*
D03*
X40273Y11630D02*
D03*
Y12130D02*
D03*
Y12630D02*
D03*
Y13130D02*
D03*
X38147Y11630D02*
D03*
Y12130D02*
D03*
Y12630D02*
D03*
Y13130D02*
D03*
X18773Y6940D02*
D03*
Y7440D02*
D03*
Y7940D02*
D03*
Y8440D02*
D03*
X16647Y6940D02*
D03*
Y7440D02*
D03*
Y7940D02*
D03*
Y8440D02*
D03*
X18773Y4640D02*
D03*
Y5140D02*
D03*
Y5640D02*
D03*
Y6140D02*
D03*
X16647Y4640D02*
D03*
Y5140D02*
D03*
Y5640D02*
D03*
Y6140D02*
D03*
X18773Y2290D02*
D03*
Y2790D02*
D03*
Y3290D02*
D03*
Y3790D02*
D03*
X16647Y2290D02*
D03*
Y2790D02*
D03*
Y3290D02*
D03*
Y3790D02*
D03*
X3343Y6910D02*
D03*
Y7410D02*
D03*
Y7910D02*
D03*
Y8410D02*
D03*
X1217Y6910D02*
D03*
Y7410D02*
D03*
Y7910D02*
D03*
Y8410D02*
D03*
X3353Y16270D02*
D03*
Y16770D02*
D03*
Y17270D02*
D03*
Y17770D02*
D03*
X1227Y16270D02*
D03*
Y16770D02*
D03*
Y17270D02*
D03*
Y17770D02*
D03*
X3343Y4610D02*
D03*
Y5110D02*
D03*
Y5610D02*
D03*
Y6110D02*
D03*
X1217Y4610D02*
D03*
Y5110D02*
D03*
Y5610D02*
D03*
Y6110D02*
D03*
X3353Y13970D02*
D03*
Y14470D02*
D03*
Y14970D02*
D03*
Y15470D02*
D03*
X1227Y13970D02*
D03*
Y14470D02*
D03*
Y14970D02*
D03*
Y15470D02*
D03*
X3343Y2260D02*
D03*
Y2760D02*
D03*
Y3260D02*
D03*
Y3760D02*
D03*
X1217Y2260D02*
D03*
Y2760D02*
D03*
Y3260D02*
D03*
Y3760D02*
D03*
X3353Y11620D02*
D03*
Y12120D02*
D03*
Y12620D02*
D03*
Y13120D02*
D03*
X1227Y11620D02*
D03*
Y12120D02*
D03*
Y12620D02*
D03*
Y13120D02*
D03*
X18773Y16280D02*
D03*
Y16780D02*
D03*
Y17280D02*
D03*
Y17780D02*
D03*
X16647Y16280D02*
D03*
Y16780D02*
D03*
Y17280D02*
D03*
Y17780D02*
D03*
X18773Y13980D02*
D03*
Y14480D02*
D03*
Y14980D02*
D03*
Y15480D02*
D03*
X16647Y13980D02*
D03*
Y14480D02*
D03*
Y14980D02*
D03*
Y15480D02*
D03*
X18773Y11630D02*
D03*
Y12130D02*
D03*
Y12630D02*
D03*
Y13130D02*
D03*
X16647Y11630D02*
D03*
Y12130D02*
D03*
Y12630D02*
D03*
Y13130D02*
D03*
D71*
X48508Y8360D02*
D03*
X49492D02*
D03*
X48598Y17720D02*
D03*
X49582D02*
D03*
X48538Y6110D02*
D03*
X49522D02*
D03*
X48628Y15470D02*
D03*
X49612D02*
D03*
X48528Y3770D02*
D03*
X49512D02*
D03*
X48618Y13130D02*
D03*
X49602D02*
D03*
X27008Y8360D02*
D03*
X27992D02*
D03*
X27098Y17720D02*
D03*
X28082D02*
D03*
X27038Y6110D02*
D03*
X28022D02*
D03*
X27128Y15470D02*
D03*
X28112D02*
D03*
X27028Y3770D02*
D03*
X28012D02*
D03*
X27118Y13130D02*
D03*
X28102D02*
D03*
X5508Y8360D02*
D03*
X6492D02*
D03*
X5598Y17720D02*
D03*
X6582D02*
D03*
X5538Y6110D02*
D03*
X6522D02*
D03*
X5628Y15470D02*
D03*
X6612D02*
D03*
X5528Y3770D02*
D03*
X6512D02*
D03*
X5618Y13130D02*
D03*
X6602D02*
D03*
D72*
X48751Y9730D02*
D03*
X46389D02*
D03*
X49161Y890D02*
D03*
X46799D02*
D03*
X59411Y9980D02*
D03*
X57049D02*
D03*
X60251Y19150D02*
D03*
X57889D02*
D03*
X27251Y9730D02*
D03*
X24889D02*
D03*
X27661Y890D02*
D03*
X25299D02*
D03*
X37911Y9980D02*
D03*
X35549D02*
D03*
X38751Y19150D02*
D03*
X36389D02*
D03*
X5751Y9730D02*
D03*
X3389D02*
D03*
X6161Y890D02*
D03*
X3799D02*
D03*
X16411Y9980D02*
D03*
X14049D02*
D03*
X17251Y19150D02*
D03*
X14889D02*
D03*
D75*
X46290Y43720D02*
D03*
Y44720D02*
D03*
X47290Y43720D02*
D03*
Y44720D02*
D03*
X48290Y43720D02*
D03*
Y44720D02*
D03*
X49290Y43720D02*
D03*
X56640Y83620D02*
D03*
X57640D02*
D03*
X58640D02*
D03*
X45740Y82230D02*
D03*
Y81230D02*
D03*
Y80230D02*
D03*
X62350Y35300D02*
D03*
X61350D02*
D03*
X62350Y36500D02*
D03*
X61350D02*
D03*
X62350Y32900D02*
D03*
X61350D02*
D03*
X62350Y34100D02*
D03*
X61350D02*
D03*
X62350Y30500D02*
D03*
X61350D02*
D03*
X62350Y31700D02*
D03*
X61350D02*
D03*
X62350Y28100D02*
D03*
X61350D02*
D03*
X62350Y29300D02*
D03*
X61350D02*
D03*
X61150Y24900D02*
D03*
Y25900D02*
D03*
X62350Y24900D02*
D03*
Y25900D02*
D03*
X40850Y35300D02*
D03*
X39850D02*
D03*
X40850Y36500D02*
D03*
X39850D02*
D03*
X40850Y32900D02*
D03*
X39850D02*
D03*
X40850Y34100D02*
D03*
X39850D02*
D03*
X40850Y30500D02*
D03*
X39850D02*
D03*
X40850Y31700D02*
D03*
X39850D02*
D03*
X40850Y28100D02*
D03*
X39850D02*
D03*
X40850Y29300D02*
D03*
X39850D02*
D03*
X39650Y24900D02*
D03*
Y25900D02*
D03*
X40850Y24900D02*
D03*
Y25900D02*
D03*
X35140Y83620D02*
D03*
X36140D02*
D03*
X37140D02*
D03*
X24240Y82230D02*
D03*
Y81230D02*
D03*
Y80230D02*
D03*
X24790Y43720D02*
D03*
Y44720D02*
D03*
X25790Y43720D02*
D03*
Y44720D02*
D03*
X26790Y43720D02*
D03*
Y44720D02*
D03*
X27790Y43720D02*
D03*
X3290D02*
D03*
Y44720D02*
D03*
X4290Y43720D02*
D03*
Y44720D02*
D03*
X5290Y43720D02*
D03*
Y44720D02*
D03*
X6290Y43720D02*
D03*
X13640Y83620D02*
D03*
X14640D02*
D03*
X15640D02*
D03*
X2740Y82230D02*
D03*
Y81230D02*
D03*
Y80230D02*
D03*
X19350Y35300D02*
D03*
X18350D02*
D03*
X19350Y36500D02*
D03*
X18350D02*
D03*
X19350Y32900D02*
D03*
X18350D02*
D03*
X19350Y34100D02*
D03*
X18350D02*
D03*
X19350Y30500D02*
D03*
X18350D02*
D03*
X19350Y31700D02*
D03*
X18350D02*
D03*
X19350Y28100D02*
D03*
X18350D02*
D03*
X19350Y29300D02*
D03*
X18350D02*
D03*
X18150Y24900D02*
D03*
Y25900D02*
D03*
X19350Y24900D02*
D03*
Y25900D02*
D03*
D76*
X49290Y44720D02*
D03*
X59640Y83620D02*
D03*
X60350Y35300D02*
D03*
Y36500D02*
D03*
Y32900D02*
D03*
Y34100D02*
D03*
Y30500D02*
D03*
Y31700D02*
D03*
Y28100D02*
D03*
Y29300D02*
D03*
X38850Y35300D02*
D03*
Y36500D02*
D03*
Y32900D02*
D03*
Y34100D02*
D03*
Y30500D02*
D03*
Y31700D02*
D03*
Y28100D02*
D03*
Y29300D02*
D03*
X38140Y83620D02*
D03*
X27790Y44720D02*
D03*
X6290D02*
D03*
X16640Y83620D02*
D03*
X17350Y35300D02*
D03*
Y36500D02*
D03*
Y32900D02*
D03*
Y34100D02*
D03*
Y30500D02*
D03*
Y31700D02*
D03*
Y28100D02*
D03*
Y29300D02*
D03*
D77*
X62000Y44000D02*
D03*
X44000D02*
D03*
Y62000D02*
D03*
X62000D02*
D03*
Y65500D02*
D03*
X44000D02*
D03*
Y83500D02*
D03*
X62000D02*
D03*
X44000Y19000D02*
D03*
X62000D02*
D03*
Y1000D02*
D03*
X44000D02*
D03*
X22500Y19000D02*
D03*
X40500D02*
D03*
Y1000D02*
D03*
X22500D02*
D03*
X40500Y65500D02*
D03*
X22500D02*
D03*
Y83500D02*
D03*
X40500D02*
D03*
Y44000D02*
D03*
X22500D02*
D03*
Y62000D02*
D03*
X40500D02*
D03*
X19000Y44000D02*
D03*
X1000D02*
D03*
Y62000D02*
D03*
X19000D02*
D03*
Y65500D02*
D03*
X1000D02*
D03*
Y83500D02*
D03*
X19000D02*
D03*
X1000Y19000D02*
D03*
X19000D02*
D03*
Y1000D02*
D03*
X1000D02*
D03*
D78*
X55500Y44470D02*
D03*
X51500D02*
D03*
Y65970D02*
D03*
X55500D02*
D03*
X44890Y30814D02*
D03*
Y32546D02*
D03*
X51500Y22970D02*
D03*
X54500D02*
D03*
X51500Y1470D02*
D03*
X54500D02*
D03*
X30000D02*
D03*
X33000D02*
D03*
X23390Y30814D02*
D03*
Y32546D02*
D03*
X30000Y22970D02*
D03*
X33000D02*
D03*
X30000Y65970D02*
D03*
X34000D02*
D03*
Y44470D02*
D03*
X30000D02*
D03*
X12500D02*
D03*
X8500D02*
D03*
Y65970D02*
D03*
X12500D02*
D03*
X1890Y30814D02*
D03*
Y32546D02*
D03*
X8500Y22970D02*
D03*
X11500D02*
D03*
X8500Y1470D02*
D03*
X11500D02*
D03*
D82*
X45740Y79230D02*
D03*
X61150Y26900D02*
D03*
X62350D02*
D03*
X39650D02*
D03*
X40850D02*
D03*
X24240Y79230D02*
D03*
X2740D02*
D03*
X18150Y26900D02*
D03*
X19350D02*
D03*
D83*
X44000Y40500D02*
D03*
X62000D02*
D03*
Y22500D02*
D03*
X44000D02*
D03*
X46450Y27587D02*
D03*
Y28375D02*
D03*
X48037Y38050D02*
D03*
X48825D02*
D03*
X49612D02*
D03*
X52762D02*
D03*
X53550D02*
D03*
X54337D02*
D03*
X57487D02*
D03*
X58275D02*
D03*
X59062D02*
D03*
X22500Y40500D02*
D03*
X40500D02*
D03*
Y22500D02*
D03*
X22500D02*
D03*
X24950Y27587D02*
D03*
Y28375D02*
D03*
X26537Y38050D02*
D03*
X27325D02*
D03*
X28112D02*
D03*
X31262D02*
D03*
X32050D02*
D03*
X32837D02*
D03*
X35987D02*
D03*
X36775D02*
D03*
X37562D02*
D03*
X1000Y40500D02*
D03*
X19000D02*
D03*
Y22500D02*
D03*
X1000D02*
D03*
X3450Y27587D02*
D03*
Y28375D02*
D03*
X5037Y38050D02*
D03*
X5825D02*
D03*
X6612D02*
D03*
X9762D02*
D03*
X10550D02*
D03*
X11337D02*
D03*
X14487D02*
D03*
X15275D02*
D03*
X16062D02*
D03*
D84*
X46450Y26800D02*
D03*
X24950D02*
D03*
X3450D02*
D03*
D85*
X47250Y38050D02*
D03*
X51975D02*
D03*
X56700D02*
D03*
X25750D02*
D03*
X30475D02*
D03*
X35200D02*
D03*
X4250D02*
D03*
X8975D02*
D03*
X13700D02*
D03*
D88*
X52250Y15910D02*
D03*
X52750D02*
D03*
X53250D02*
D03*
X30750D02*
D03*
X31250D02*
D03*
X31750D02*
D03*
X9250D02*
D03*
X9750D02*
D03*
X10250D02*
D03*
M02*
