%FSLAX24Y24*%
%MOIN*%
G70*
G01*
G75*
G04 Layer_Color=8388736*
%ADD10P,0.4259X4X360.0*%
G04:AMPARAMS|DCode=11|XSize=9.8mil|YSize=33.5mil|CornerRadius=0mil|HoleSize=0mil|Usage=FLASHONLY|Rotation=315.000|XOffset=0mil|YOffset=0mil|HoleType=Round|Shape=Round|*
%AMOVALD11*
21,1,0.0236,0.0098,0.0000,0.0000,45.0*
1,1,0.0098,-0.0084,-0.0084*
1,1,0.0098,0.0084,0.0084*
%
%ADD11OVALD11*%

G04:AMPARAMS|DCode=12|XSize=9.8mil|YSize=33.5mil|CornerRadius=0mil|HoleSize=0mil|Usage=FLASHONLY|Rotation=45.000|XOffset=0mil|YOffset=0mil|HoleType=Round|Shape=Round|*
%AMOVALD12*
21,1,0.0236,0.0098,0.0000,0.0000,135.0*
1,1,0.0098,0.0084,-0.0084*
1,1,0.0098,-0.0084,0.0084*
%
%ADD12OVALD12*%

G04:AMPARAMS|DCode=13|XSize=37.4mil|YSize=31.5mil|CornerRadius=0mil|HoleSize=0mil|Usage=FLASHONLY|Rotation=45.000|XOffset=0mil|YOffset=0mil|HoleType=Round|Shape=Rectangle|*
%AMROTATEDRECTD13*
4,1,4,-0.0021,-0.0244,-0.0244,-0.0021,0.0021,0.0244,0.0244,0.0021,-0.0021,-0.0244,0.0*
%
%ADD13ROTATEDRECTD13*%

G04:AMPARAMS|DCode=14|XSize=37.4mil|YSize=31.5mil|CornerRadius=0mil|HoleSize=0mil|Usage=FLASHONLY|Rotation=135.000|XOffset=0mil|YOffset=0mil|HoleType=Round|Shape=Rectangle|*
%AMROTATEDRECTD14*
4,1,4,0.0244,-0.0021,0.0021,-0.0244,-0.0244,0.0021,-0.0021,0.0244,0.0244,-0.0021,0.0*
%
%ADD14ROTATEDRECTD14*%

%ADD15R,0.0591X0.0236*%
%ADD16O,0.0866X0.0236*%
%ADD17R,0.0374X0.0315*%
%ADD18R,0.0315X0.0315*%
%ADD19R,0.0906X0.1417*%
%ADD20R,0.0315X0.0512*%
%ADD21R,0.0512X0.0315*%
%ADD22R,0.0291X0.0728*%
%ADD23C,0.0080*%
%ADD24C,0.0100*%
%ADD25C,0.0160*%
%ADD26C,0.0300*%
%ADD27C,0.0120*%
%ADD28C,0.0180*%
%ADD29C,0.0250*%
%ADD30C,0.0350*%
%ADD31C,0.0200*%
%ADD32R,0.0374X0.0295*%
%ADD33R,0.0295X0.0374*%
%ADD34O,0.0630X0.0138*%
%ADD35R,0.0472X0.0217*%
%ADD36O,0.0669X0.0138*%
%ADD37R,0.3012X0.3012*%
%ADD38O,0.0335X0.0098*%
%ADD39O,0.0098X0.0335*%
%ADD40R,0.1378X0.0689*%
%ADD41R,0.0984X0.0689*%
%ADD42R,0.0886X0.0197*%
%ADD43R,0.0315X0.0354*%
%ADD44R,0.0354X0.0315*%
%ADD45R,0.0354X0.0295*%
%ADD46R,0.0295X0.0354*%
%ADD47R,0.0394X0.0394*%
%ADD48R,0.0315X0.0374*%
%ADD49R,0.0256X0.0335*%
%ADD50R,0.0453X0.0236*%
%ADD51R,0.0236X0.0453*%
%ADD52R,0.0394X0.0394*%
%ADD53R,0.0256X0.0866*%
%ADD54R,0.1299X0.0866*%
%ADD55R,0.0532X0.0197*%
%ADD56O,0.0118X0.0689*%
%ADD57O,0.0689X0.0118*%
%ADD58C,0.0177*%
%ADD59R,0.0138X0.0197*%
%ADD60R,0.0197X0.0138*%
%ADD61R,0.0768X0.0768*%
%ADD62R,0.2874X0.2874*%
%ADD63C,0.0150*%
%ADD64R,0.2165X0.0787*%
%ADD65O,0.0709X0.0217*%
%ADD66O,0.0217X0.0709*%
%ADD67O,0.0138X0.0650*%
%ADD68R,0.1220X0.1181*%
%ADD69R,0.1102X0.0551*%
%ADD70R,0.0787X0.0630*%
G04:AMPARAMS|DCode=71|XSize=228.3mil|YSize=82.7mil|CornerRadius=20.7mil|HoleSize=0mil|Usage=FLASHONLY|Rotation=180.000|XOffset=0mil|YOffset=0mil|HoleType=Round|Shape=RoundedRectangle|*
%AMROUNDEDRECTD71*
21,1,0.2283,0.0413,0,0,180.0*
21,1,0.1870,0.0827,0,0,180.0*
1,1,0.0413,-0.0935,0.0207*
1,1,0.0413,0.0935,0.0207*
1,1,0.0413,0.0935,-0.0207*
1,1,0.0413,-0.0935,-0.0207*
%
%ADD71ROUNDEDRECTD71*%
%ADD72R,0.0335X0.0138*%
%ADD73R,0.0335X0.0135*%
%ADD74C,0.0860*%
%ADD75C,0.0394*%
%ADD76C,0.0354*%
%ADD77C,0.0250*%
%ADD78C,0.0320*%
%ADD79C,0.0300*%
%ADD80C,0.0600*%
%ADD81R,0.0600X0.0600*%
%ADD82R,0.0600X0.0600*%
%ADD83C,0.0591*%
%ADD84R,0.0591X0.0591*%
%ADD85R,0.0591X0.0591*%
%ADD86C,0.0400*%
%ADD87C,0.0500*%
%ADD88C,0.0350*%
%ADD89C,0.0450*%
%ADD90C,0.0500*%
%ADD91R,0.0980X7.3930*%
%ADD92R,6.4060X0.0610*%
%ADD93R,6.4010X0.0760*%
%ADD94R,6.4140X0.0760*%
%ADD95R,0.0217X0.0472*%
%ADD96C,0.0060*%
%ADD97R,0.0374X0.0118*%
%ADD98R,0.0118X0.0374*%
%ADD99R,0.1260X0.1260*%
%ADD100R,0.0256X0.0472*%
%ADD101R,0.0472X0.0256*%
%ADD102C,0.0236*%
%ADD103R,0.2180X0.0830*%
%ADD104R,0.2006X0.0179*%
%ADD105R,0.0456X0.1019*%
%ADD106R,0.3150X0.0394*%
%ADD107C,0.0098*%
%ADD108C,0.0059*%
%ADD109C,0.0079*%
%ADD110P,0.0195X4X360.0*%
%ADD111R,0.0276X0.1575*%
%ADD112R,0.0118X0.0118*%
%ADD113R,0.0138X0.0138*%
%ADD114C,0.0040*%
%ADD115C,0.0050*%
%ADD116C,0.0197*%
G04:AMPARAMS|DCode=117|XSize=66.9mil|YSize=66.9mil|CornerRadius=0mil|HoleSize=0mil|Usage=FLASHONLY|Rotation=315.000|XOffset=0mil|YOffset=0mil|HoleType=Round|Shape=Rectangle|*
%AMROTATEDRECTD117*
4,1,4,-0.0473,-0.0000,0.0000,0.0473,0.0473,0.0000,-0.0000,-0.0473,-0.0473,-0.0000,0.0*
%
%ADD117ROTATEDRECTD117*%

%ADD118P,0.0947X4X360.0*%
G04:AMPARAMS|DCode=119|XSize=66.9mil|YSize=66.9mil|CornerRadius=0mil|HoleSize=0mil|Usage=FLASHONLY|Rotation=315.000|XOffset=0mil|YOffset=0mil|HoleType=Round|Shape=Rectangle|*
%AMROTATEDRECTD119*
4,1,4,-0.0473,0.0000,-0.0000,0.0473,0.0473,-0.0000,0.0000,-0.0473,-0.0473,0.0000,0.0*
%
%ADD119ROTATEDRECTD119*%

%ADD120P,0.0947X4X360.0*%
%ADD121R,0.0669X0.0669*%
G04:AMPARAMS|DCode=122|XSize=8.3mil|YSize=31.9mil|CornerRadius=0mil|HoleSize=0mil|Usage=FLASHONLY|Rotation=315.000|XOffset=0mil|YOffset=0mil|HoleType=Round|Shape=Round|*
%AMOVALD122*
21,1,0.0236,0.0083,0.0000,0.0000,45.0*
1,1,0.0083,-0.0084,-0.0084*
1,1,0.0083,0.0084,0.0084*
%
%ADD122OVALD122*%

G04:AMPARAMS|DCode=123|XSize=8.3mil|YSize=31.9mil|CornerRadius=0mil|HoleSize=0mil|Usage=FLASHONLY|Rotation=45.000|XOffset=0mil|YOffset=0mil|HoleType=Round|Shape=Round|*
%AMOVALD123*
21,1,0.0236,0.0083,0.0000,0.0000,135.0*
1,1,0.0083,0.0084,-0.0084*
1,1,0.0083,-0.0084,0.0084*
%
%ADD123OVALD123*%

%ADD124R,0.0295X0.0295*%
%ADD125R,0.0787X0.1299*%
%ADD126R,0.0465X0.0209*%
%ADD127O,0.0319X0.0083*%
%ADD128O,0.0083X0.0319*%
%ADD129R,0.1319X0.0630*%
%ADD130R,0.0925X0.0630*%
%ADD131R,0.0827X0.0138*%
%ADD132R,0.0295X0.0335*%
%ADD133R,0.0335X0.0295*%
%ADD134R,0.0850X0.1450*%
%ADD135R,0.1300X0.0900*%
%ADD136P,0.4316X4X360.0*%
G04:AMPARAMS|DCode=137|XSize=11.4mil|YSize=35mil|CornerRadius=0mil|HoleSize=0mil|Usage=FLASHONLY|Rotation=315.000|XOffset=0mil|YOffset=0mil|HoleType=Round|Shape=Round|*
%AMOVALD137*
21,1,0.0236,0.0114,0.0000,0.0000,45.0*
1,1,0.0114,-0.0084,-0.0084*
1,1,0.0114,0.0084,0.0084*
%
%ADD137OVALD137*%

G04:AMPARAMS|DCode=138|XSize=11.4mil|YSize=35mil|CornerRadius=0mil|HoleSize=0mil|Usage=FLASHONLY|Rotation=45.000|XOffset=0mil|YOffset=0mil|HoleType=Round|Shape=Round|*
%AMOVALD138*
21,1,0.0236,0.0114,0.0000,0.0000,135.0*
1,1,0.0114,0.0084,-0.0084*
1,1,0.0114,-0.0084,0.0084*
%
%ADD138OVALD138*%

%ADD139R,0.0611X0.0256*%
%ADD140O,0.0946X0.0316*%
%ADD141R,0.0335X0.0335*%
%ADD142R,0.0926X0.1437*%
%ADD143R,0.0371X0.0808*%
%ADD144O,0.0710X0.0218*%
%ADD145O,0.0749X0.0218*%
%ADD146R,0.3052X0.3052*%
%ADD147O,0.0350X0.0114*%
%ADD148O,0.0114X0.0350*%
%ADD149R,0.0906X0.0217*%
%ADD150R,0.0474X0.0474*%
%ADD151R,0.0336X0.0415*%
%ADD152R,0.0533X0.0316*%
%ADD153R,0.0316X0.0533*%
%ADD154R,0.0474X0.0474*%
%ADD155R,0.0336X0.0946*%
%ADD156R,0.1379X0.0946*%
%ADD157R,0.0612X0.0277*%
%ADD158O,0.0198X0.0769*%
%ADD159O,0.0769X0.0198*%
%ADD160C,0.0257*%
%ADD161R,0.0218X0.0277*%
%ADD162R,0.0277X0.0218*%
%ADD163R,0.0808X0.0808*%
%ADD164R,0.2954X0.2954*%
%ADD165R,0.2245X0.0867*%
%ADD166O,0.0789X0.0297*%
%ADD167O,0.0297X0.0789*%
%ADD168O,0.0218X0.0730*%
%ADD169R,0.1300X0.1261*%
%ADD170R,0.0827X0.0670*%
G04:AMPARAMS|DCode=171|XSize=236.3mil|YSize=90.7mil|CornerRadius=22.7mil|HoleSize=0mil|Usage=FLASHONLY|Rotation=180.000|XOffset=0mil|YOffset=0mil|HoleType=Round|Shape=RoundedRectangle|*
%AMROUNDEDRECTD171*
21,1,0.2363,0.0453,0,0,180.0*
21,1,0.1910,0.0907,0,0,180.0*
1,1,0.0453,-0.0955,0.0227*
1,1,0.0453,0.0955,0.0227*
1,1,0.0453,0.0955,-0.0227*
1,1,0.0453,-0.0955,-0.0227*
%
%ADD171ROUNDEDRECTD171*%
%ADD172R,0.0415X0.0218*%
%ADD173R,0.0415X0.0215*%
%ADD174C,0.0940*%
%ADD175C,0.0474*%
%ADD176C,0.0434*%
%ADD177C,0.0680*%
%ADD178C,0.0374*%
%ADD179R,0.0680X0.0680*%
%ADD180R,0.0680X0.0680*%
%ADD181C,0.0671*%
%ADD182R,0.0671X0.0671*%
%ADD183R,0.0671X0.0671*%
%ADD184R,0.0669X0.0669*%
%ADD185C,0.0669*%
%ADD186R,0.0669X0.0669*%
D13*
X11409Y12111D02*
D03*
X10991Y12529D02*
D03*
X7851Y8319D02*
D03*
X8269Y7901D02*
D03*
X12549Y11021D02*
D03*
X12131Y11439D02*
D03*
X32909Y12111D02*
D03*
X32491Y12529D02*
D03*
X29351Y8319D02*
D03*
X29769Y7901D02*
D03*
X34049Y11021D02*
D03*
X33631Y11439D02*
D03*
X54409Y12111D02*
D03*
X53991Y12529D02*
D03*
X50851Y8319D02*
D03*
X51269Y7901D02*
D03*
X55549Y11021D02*
D03*
X55131Y11439D02*
D03*
D14*
X7629Y11099D02*
D03*
X7211Y10681D02*
D03*
X10201Y6771D02*
D03*
X10619Y7189D02*
D03*
X12191Y8611D02*
D03*
X12609Y9029D02*
D03*
X29129Y11099D02*
D03*
X28711Y10681D02*
D03*
X31701Y6771D02*
D03*
X32119Y7189D02*
D03*
X33691Y8611D02*
D03*
X34109Y9029D02*
D03*
X50629Y11099D02*
D03*
X50211Y10681D02*
D03*
X53201Y6771D02*
D03*
X53619Y7189D02*
D03*
X55191Y8611D02*
D03*
X55609Y9029D02*
D03*
D17*
X6060Y4495D02*
D03*
Y5085D02*
D03*
X6150Y13855D02*
D03*
Y14445D02*
D03*
X6050Y6785D02*
D03*
Y7375D02*
D03*
X6140Y16145D02*
D03*
Y16735D02*
D03*
X6050Y2185D02*
D03*
Y2775D02*
D03*
X6140Y11545D02*
D03*
Y12135D02*
D03*
X4400Y7455D02*
D03*
Y8045D02*
D03*
X4490Y16815D02*
D03*
Y17405D02*
D03*
X4400Y5185D02*
D03*
Y5775D02*
D03*
X4490Y14545D02*
D03*
Y15135D02*
D03*
X4420Y2825D02*
D03*
Y3415D02*
D03*
X4510Y12185D02*
D03*
Y12775D02*
D03*
X6530Y7365D02*
D03*
Y7955D02*
D03*
X6620Y16725D02*
D03*
Y17315D02*
D03*
X6540Y5055D02*
D03*
Y5645D02*
D03*
X6630Y14415D02*
D03*
Y15005D02*
D03*
X6530Y2695D02*
D03*
Y3285D02*
D03*
X6620Y12055D02*
D03*
Y12645D02*
D03*
X5080Y6795D02*
D03*
Y7385D02*
D03*
X5170Y16155D02*
D03*
Y16745D02*
D03*
X5090Y4495D02*
D03*
Y5085D02*
D03*
X5180Y13855D02*
D03*
Y14445D02*
D03*
X5100Y2185D02*
D03*
Y2775D02*
D03*
X5190Y11545D02*
D03*
Y12135D02*
D03*
X5570Y4505D02*
D03*
Y5095D02*
D03*
X5660Y13865D02*
D03*
Y14455D02*
D03*
X7030Y10175D02*
D03*
Y9585D02*
D03*
X5570Y6795D02*
D03*
Y7385D02*
D03*
X5660Y16155D02*
D03*
Y16745D02*
D03*
X5580Y2185D02*
D03*
Y2775D02*
D03*
X5670Y11545D02*
D03*
Y12135D02*
D03*
X13340Y9375D02*
D03*
Y9965D02*
D03*
X13300Y10935D02*
D03*
Y10345D02*
D03*
X8670Y78135D02*
D03*
Y77545D02*
D03*
X11100Y76665D02*
D03*
Y76075D02*
D03*
X10770Y78135D02*
D03*
Y77545D02*
D03*
X12620Y74265D02*
D03*
Y74855D02*
D03*
X11990Y74265D02*
D03*
Y74855D02*
D03*
X14330Y72645D02*
D03*
Y73235D02*
D03*
X14860Y71965D02*
D03*
Y72555D02*
D03*
X14340Y71825D02*
D03*
Y71235D02*
D03*
X10770Y67735D02*
D03*
Y68325D02*
D03*
X10270D02*
D03*
Y67735D02*
D03*
X8540Y71825D02*
D03*
Y71235D02*
D03*
X8580Y73225D02*
D03*
Y72635D02*
D03*
X8020Y72575D02*
D03*
Y71985D02*
D03*
X5640Y79175D02*
D03*
Y78585D02*
D03*
X5160Y78595D02*
D03*
Y79185D02*
D03*
X17540Y70125D02*
D03*
Y70715D02*
D03*
X14910Y67085D02*
D03*
Y67675D02*
D03*
X18420Y67085D02*
D03*
Y67675D02*
D03*
X18970D02*
D03*
Y67085D02*
D03*
X11030Y74265D02*
D03*
Y74855D02*
D03*
X10400Y74845D02*
D03*
Y74255D02*
D03*
X17190Y78285D02*
D03*
Y77695D02*
D03*
Y79535D02*
D03*
Y78945D02*
D03*
X12130Y79575D02*
D03*
Y78985D02*
D03*
X12600Y78275D02*
D03*
Y77685D02*
D03*
X17090Y80295D02*
D03*
Y80885D02*
D03*
X17690Y77695D02*
D03*
Y78285D02*
D03*
X16900Y75995D02*
D03*
Y76585D02*
D03*
X16400Y75995D02*
D03*
Y76585D02*
D03*
X16590Y80295D02*
D03*
Y80885D02*
D03*
X15620Y80295D02*
D03*
Y80885D02*
D03*
X15490Y75995D02*
D03*
Y76585D02*
D03*
X14990Y75995D02*
D03*
Y76585D02*
D03*
X15140Y80295D02*
D03*
Y80885D02*
D03*
X17690Y78945D02*
D03*
Y79535D02*
D03*
X14540Y80295D02*
D03*
Y80885D02*
D03*
X12610Y78985D02*
D03*
Y79575D02*
D03*
X14510Y75995D02*
D03*
Y76585D02*
D03*
X14030Y75995D02*
D03*
Y76585D02*
D03*
X14060Y80295D02*
D03*
Y80885D02*
D03*
X13360Y80295D02*
D03*
Y80885D02*
D03*
X13250Y75995D02*
D03*
Y76585D02*
D03*
X12770Y75995D02*
D03*
Y76585D02*
D03*
X12880Y80295D02*
D03*
Y80885D02*
D03*
X12120Y77685D02*
D03*
Y78275D02*
D03*
X8080Y80685D02*
D03*
Y81275D02*
D03*
X4080Y82175D02*
D03*
Y82765D02*
D03*
Y81565D02*
D03*
Y80975D02*
D03*
X8080Y83605D02*
D03*
Y83015D02*
D03*
Y82455D02*
D03*
Y81865D02*
D03*
X9190Y83625D02*
D03*
Y83035D02*
D03*
X11770Y83625D02*
D03*
Y83035D02*
D03*
Y81875D02*
D03*
Y82465D02*
D03*
X13940Y44595D02*
D03*
Y44005D02*
D03*
X7510Y62415D02*
D03*
Y61825D02*
D03*
X8090Y61835D02*
D03*
Y62425D02*
D03*
X6930Y61825D02*
D03*
Y62415D02*
D03*
X9510Y58215D02*
D03*
Y57625D02*
D03*
X10120Y58215D02*
D03*
Y57625D02*
D03*
X11250Y58525D02*
D03*
Y57935D02*
D03*
X14230Y55445D02*
D03*
Y54855D02*
D03*
X9450Y60745D02*
D03*
Y61335D02*
D03*
X5310Y58185D02*
D03*
Y57595D02*
D03*
X4690Y58185D02*
D03*
Y57595D02*
D03*
X11400Y59635D02*
D03*
Y60225D02*
D03*
X5760Y55305D02*
D03*
Y54715D02*
D03*
X430Y50905D02*
D03*
Y50315D02*
D03*
X11740Y46065D02*
D03*
Y46655D02*
D03*
X8260Y46065D02*
D03*
Y46655D02*
D03*
X17680Y50195D02*
D03*
Y50785D02*
D03*
X16910Y50215D02*
D03*
Y50805D02*
D03*
X18850Y47565D02*
D03*
Y46975D02*
D03*
X14100Y47545D02*
D03*
Y48135D02*
D03*
X10520Y53985D02*
D03*
Y54575D02*
D03*
X18850Y48305D02*
D03*
Y48895D02*
D03*
X11250Y46065D02*
D03*
Y46655D02*
D03*
X10760Y46065D02*
D03*
Y46655D02*
D03*
X10250Y46065D02*
D03*
Y46655D02*
D03*
X9760Y46065D02*
D03*
Y46655D02*
D03*
X9270Y46065D02*
D03*
Y46655D02*
D03*
X8760Y46065D02*
D03*
Y46655D02*
D03*
X630Y57995D02*
D03*
Y57405D02*
D03*
X1380Y57995D02*
D03*
Y57405D02*
D03*
X2150Y57995D02*
D03*
Y57405D02*
D03*
X4670Y60115D02*
D03*
Y60705D02*
D03*
X5310Y60115D02*
D03*
Y60705D02*
D03*
X3660Y55385D02*
D03*
Y54795D02*
D03*
X3150Y55385D02*
D03*
Y54795D02*
D03*
X2010Y55325D02*
D03*
Y54735D02*
D03*
X65250Y2635D02*
D03*
Y3225D02*
D03*
Y1975D02*
D03*
Y1385D02*
D03*
X69200Y2375D02*
D03*
Y1785D02*
D03*
Y3135D02*
D03*
Y3725D02*
D03*
X65250Y9035D02*
D03*
Y9625D02*
D03*
Y8375D02*
D03*
Y7785D02*
D03*
X69200Y8775D02*
D03*
Y8185D02*
D03*
Y9535D02*
D03*
Y10125D02*
D03*
X65250Y15435D02*
D03*
Y16025D02*
D03*
Y14775D02*
D03*
Y14185D02*
D03*
X69200Y15175D02*
D03*
Y14585D02*
D03*
Y15935D02*
D03*
Y16525D02*
D03*
X65250Y21785D02*
D03*
Y22375D02*
D03*
Y21125D02*
D03*
Y20535D02*
D03*
X69200Y21525D02*
D03*
Y20935D02*
D03*
Y22285D02*
D03*
Y22875D02*
D03*
X35440Y44595D02*
D03*
Y44005D02*
D03*
X29010Y62415D02*
D03*
Y61825D02*
D03*
X29590Y61835D02*
D03*
Y62425D02*
D03*
X28430Y61825D02*
D03*
Y62415D02*
D03*
X31010Y58215D02*
D03*
Y57625D02*
D03*
X31620Y58215D02*
D03*
Y57625D02*
D03*
X32750Y58525D02*
D03*
Y57935D02*
D03*
X35730Y55445D02*
D03*
Y54855D02*
D03*
X30950Y60745D02*
D03*
Y61335D02*
D03*
X26810Y58185D02*
D03*
Y57595D02*
D03*
X26190Y58185D02*
D03*
Y57595D02*
D03*
X32900Y59635D02*
D03*
Y60225D02*
D03*
X27260Y55305D02*
D03*
Y54715D02*
D03*
X21930Y50905D02*
D03*
Y50315D02*
D03*
X33240Y46065D02*
D03*
Y46655D02*
D03*
X29760Y46065D02*
D03*
Y46655D02*
D03*
X39180Y50195D02*
D03*
Y50785D02*
D03*
X38410Y50215D02*
D03*
Y50805D02*
D03*
X40350Y47565D02*
D03*
Y46975D02*
D03*
X35600Y47545D02*
D03*
Y48135D02*
D03*
X32020Y53985D02*
D03*
Y54575D02*
D03*
X40350Y48305D02*
D03*
Y48895D02*
D03*
X32750Y46065D02*
D03*
Y46655D02*
D03*
X32260Y46065D02*
D03*
Y46655D02*
D03*
X31750Y46065D02*
D03*
Y46655D02*
D03*
X31260Y46065D02*
D03*
Y46655D02*
D03*
X30770Y46065D02*
D03*
Y46655D02*
D03*
X30260Y46065D02*
D03*
Y46655D02*
D03*
X22130Y57995D02*
D03*
Y57405D02*
D03*
X22880Y57995D02*
D03*
Y57405D02*
D03*
X23650Y57995D02*
D03*
Y57405D02*
D03*
X26170Y60115D02*
D03*
Y60705D02*
D03*
X26810Y60115D02*
D03*
Y60705D02*
D03*
X25160Y55385D02*
D03*
Y54795D02*
D03*
X24650Y55385D02*
D03*
Y54795D02*
D03*
X23510Y55325D02*
D03*
Y54735D02*
D03*
X30170Y78135D02*
D03*
Y77545D02*
D03*
X32600Y76665D02*
D03*
Y76075D02*
D03*
X32270Y78135D02*
D03*
Y77545D02*
D03*
X34120Y74265D02*
D03*
Y74855D02*
D03*
X33490Y74265D02*
D03*
Y74855D02*
D03*
X35830Y72645D02*
D03*
Y73235D02*
D03*
X36360Y71965D02*
D03*
Y72555D02*
D03*
X35840Y71825D02*
D03*
Y71235D02*
D03*
X32270Y67735D02*
D03*
Y68325D02*
D03*
X31770D02*
D03*
Y67735D02*
D03*
X30040Y71825D02*
D03*
Y71235D02*
D03*
X30080Y73225D02*
D03*
Y72635D02*
D03*
X29520Y72575D02*
D03*
Y71985D02*
D03*
X27140Y79175D02*
D03*
Y78585D02*
D03*
X26660Y78595D02*
D03*
Y79185D02*
D03*
X39040Y70125D02*
D03*
Y70715D02*
D03*
X36410Y67085D02*
D03*
Y67675D02*
D03*
X39920Y67085D02*
D03*
Y67675D02*
D03*
X40470D02*
D03*
Y67085D02*
D03*
X32530Y74265D02*
D03*
Y74855D02*
D03*
X31900Y74845D02*
D03*
Y74255D02*
D03*
X38690Y78285D02*
D03*
Y77695D02*
D03*
Y79535D02*
D03*
Y78945D02*
D03*
X33630Y79575D02*
D03*
Y78985D02*
D03*
X34100Y78275D02*
D03*
Y77685D02*
D03*
X38590Y80295D02*
D03*
Y80885D02*
D03*
X39190Y77695D02*
D03*
Y78285D02*
D03*
X38400Y75995D02*
D03*
Y76585D02*
D03*
X37900Y75995D02*
D03*
Y76585D02*
D03*
X38090Y80295D02*
D03*
Y80885D02*
D03*
X37120Y80295D02*
D03*
Y80885D02*
D03*
X36990Y75995D02*
D03*
Y76585D02*
D03*
X36490Y75995D02*
D03*
Y76585D02*
D03*
X36640Y80295D02*
D03*
Y80885D02*
D03*
X39190Y78945D02*
D03*
Y79535D02*
D03*
X36040Y80295D02*
D03*
Y80885D02*
D03*
X34110Y78985D02*
D03*
Y79575D02*
D03*
X36010Y75995D02*
D03*
Y76585D02*
D03*
X35530Y75995D02*
D03*
Y76585D02*
D03*
X35560Y80295D02*
D03*
Y80885D02*
D03*
X34860Y80295D02*
D03*
Y80885D02*
D03*
X34750Y75995D02*
D03*
Y76585D02*
D03*
X34270Y75995D02*
D03*
Y76585D02*
D03*
X34380Y80295D02*
D03*
Y80885D02*
D03*
X33620Y77685D02*
D03*
Y78275D02*
D03*
X29580Y80685D02*
D03*
Y81275D02*
D03*
X25580Y82175D02*
D03*
Y82765D02*
D03*
Y81565D02*
D03*
Y80975D02*
D03*
X29580Y83605D02*
D03*
Y83015D02*
D03*
Y82455D02*
D03*
Y81865D02*
D03*
X30690Y83625D02*
D03*
Y83035D02*
D03*
X33270Y83625D02*
D03*
Y83035D02*
D03*
Y81875D02*
D03*
Y82465D02*
D03*
X27560Y4495D02*
D03*
Y5085D02*
D03*
X27650Y13855D02*
D03*
Y14445D02*
D03*
X27550Y6785D02*
D03*
Y7375D02*
D03*
X27640Y16145D02*
D03*
Y16735D02*
D03*
X27550Y2185D02*
D03*
Y2775D02*
D03*
X27640Y11545D02*
D03*
Y12135D02*
D03*
X25900Y7455D02*
D03*
Y8045D02*
D03*
X25990Y16815D02*
D03*
Y17405D02*
D03*
X25900Y5185D02*
D03*
Y5775D02*
D03*
X25990Y14545D02*
D03*
Y15135D02*
D03*
X25920Y2825D02*
D03*
Y3415D02*
D03*
X26010Y12185D02*
D03*
Y12775D02*
D03*
X28030Y7365D02*
D03*
Y7955D02*
D03*
X28120Y16725D02*
D03*
Y17315D02*
D03*
X28040Y5055D02*
D03*
Y5645D02*
D03*
X28130Y14415D02*
D03*
Y15005D02*
D03*
X28030Y2695D02*
D03*
Y3285D02*
D03*
X28120Y12055D02*
D03*
Y12645D02*
D03*
X26580Y6795D02*
D03*
Y7385D02*
D03*
X26670Y16155D02*
D03*
Y16745D02*
D03*
X26590Y4495D02*
D03*
Y5085D02*
D03*
X26680Y13855D02*
D03*
Y14445D02*
D03*
X26600Y2185D02*
D03*
Y2775D02*
D03*
X26690Y11545D02*
D03*
Y12135D02*
D03*
X27070Y4505D02*
D03*
Y5095D02*
D03*
X27160Y13865D02*
D03*
Y14455D02*
D03*
X28530Y10175D02*
D03*
Y9585D02*
D03*
X27070Y6795D02*
D03*
Y7385D02*
D03*
X27160Y16155D02*
D03*
Y16745D02*
D03*
X27080Y2185D02*
D03*
Y2775D02*
D03*
X27170Y11545D02*
D03*
Y12135D02*
D03*
X34840Y9375D02*
D03*
Y9965D02*
D03*
X34800Y10935D02*
D03*
Y10345D02*
D03*
X49060Y4495D02*
D03*
Y5085D02*
D03*
X49150Y13855D02*
D03*
Y14445D02*
D03*
X49050Y6785D02*
D03*
Y7375D02*
D03*
X49140Y16145D02*
D03*
Y16735D02*
D03*
X49050Y2185D02*
D03*
Y2775D02*
D03*
X49140Y11545D02*
D03*
Y12135D02*
D03*
X47400Y7455D02*
D03*
Y8045D02*
D03*
X47490Y16815D02*
D03*
Y17405D02*
D03*
X47400Y5185D02*
D03*
Y5775D02*
D03*
X47490Y14545D02*
D03*
Y15135D02*
D03*
X47420Y2825D02*
D03*
Y3415D02*
D03*
X47510Y12185D02*
D03*
Y12775D02*
D03*
X49530Y7365D02*
D03*
Y7955D02*
D03*
X49620Y16725D02*
D03*
Y17315D02*
D03*
X49540Y5055D02*
D03*
Y5645D02*
D03*
X49630Y14415D02*
D03*
Y15005D02*
D03*
X49530Y2695D02*
D03*
Y3285D02*
D03*
X49620Y12055D02*
D03*
Y12645D02*
D03*
X48080Y6795D02*
D03*
Y7385D02*
D03*
X48170Y16155D02*
D03*
Y16745D02*
D03*
X48090Y4495D02*
D03*
Y5085D02*
D03*
X48180Y13855D02*
D03*
Y14445D02*
D03*
X48100Y2185D02*
D03*
Y2775D02*
D03*
X48190Y11545D02*
D03*
Y12135D02*
D03*
X48570Y4505D02*
D03*
Y5095D02*
D03*
X48660Y13865D02*
D03*
Y14455D02*
D03*
X50030Y10175D02*
D03*
Y9585D02*
D03*
X48570Y6795D02*
D03*
Y7385D02*
D03*
X48660Y16155D02*
D03*
Y16745D02*
D03*
X48580Y2185D02*
D03*
Y2775D02*
D03*
X48670Y11545D02*
D03*
Y12135D02*
D03*
X56340Y9375D02*
D03*
Y9965D02*
D03*
X56300Y10935D02*
D03*
Y10345D02*
D03*
X51670Y78135D02*
D03*
Y77545D02*
D03*
X54100Y76665D02*
D03*
Y76075D02*
D03*
X53770Y78135D02*
D03*
Y77545D02*
D03*
X55620Y74265D02*
D03*
Y74855D02*
D03*
X54990Y74265D02*
D03*
Y74855D02*
D03*
X57330Y72645D02*
D03*
Y73235D02*
D03*
X57860Y71965D02*
D03*
Y72555D02*
D03*
X57340Y71825D02*
D03*
Y71235D02*
D03*
X53770Y67735D02*
D03*
Y68325D02*
D03*
X53270D02*
D03*
Y67735D02*
D03*
X51540Y71825D02*
D03*
Y71235D02*
D03*
X51580Y73225D02*
D03*
Y72635D02*
D03*
X51020Y72575D02*
D03*
Y71985D02*
D03*
X48640Y79175D02*
D03*
Y78585D02*
D03*
X48160Y78595D02*
D03*
Y79185D02*
D03*
X60540Y70125D02*
D03*
Y70715D02*
D03*
X57910Y67085D02*
D03*
Y67675D02*
D03*
X61420Y67085D02*
D03*
Y67675D02*
D03*
X61970D02*
D03*
Y67085D02*
D03*
X54030Y74265D02*
D03*
Y74855D02*
D03*
X53400Y74845D02*
D03*
Y74255D02*
D03*
X60190Y78285D02*
D03*
Y77695D02*
D03*
Y79535D02*
D03*
Y78945D02*
D03*
X55130Y79575D02*
D03*
Y78985D02*
D03*
X55600Y78275D02*
D03*
Y77685D02*
D03*
X60090Y80295D02*
D03*
Y80885D02*
D03*
X60690Y77695D02*
D03*
Y78285D02*
D03*
X59900Y75995D02*
D03*
Y76585D02*
D03*
X59400Y75995D02*
D03*
Y76585D02*
D03*
X59590Y80295D02*
D03*
Y80885D02*
D03*
X58620Y80295D02*
D03*
Y80885D02*
D03*
X58490Y75995D02*
D03*
Y76585D02*
D03*
X57990Y75995D02*
D03*
Y76585D02*
D03*
X58140Y80295D02*
D03*
Y80885D02*
D03*
X60690Y78945D02*
D03*
Y79535D02*
D03*
X57540Y80295D02*
D03*
Y80885D02*
D03*
X55610Y78985D02*
D03*
Y79575D02*
D03*
X57510Y75995D02*
D03*
Y76585D02*
D03*
X57030Y75995D02*
D03*
Y76585D02*
D03*
X57060Y80295D02*
D03*
Y80885D02*
D03*
X56360Y80295D02*
D03*
Y80885D02*
D03*
X56250Y75995D02*
D03*
Y76585D02*
D03*
X55770Y75995D02*
D03*
Y76585D02*
D03*
X55880Y80295D02*
D03*
Y80885D02*
D03*
X55120Y77685D02*
D03*
Y78275D02*
D03*
X51080Y80685D02*
D03*
Y81275D02*
D03*
X47080Y82175D02*
D03*
Y82765D02*
D03*
Y81565D02*
D03*
Y80975D02*
D03*
X51080Y83605D02*
D03*
Y83015D02*
D03*
Y82455D02*
D03*
Y81865D02*
D03*
X52190Y83625D02*
D03*
Y83035D02*
D03*
X54770Y83625D02*
D03*
Y83035D02*
D03*
Y81875D02*
D03*
Y82465D02*
D03*
X56940Y44595D02*
D03*
Y44005D02*
D03*
X50510Y62415D02*
D03*
Y61825D02*
D03*
X51090Y61835D02*
D03*
Y62425D02*
D03*
X49930Y61825D02*
D03*
Y62415D02*
D03*
X52510Y58215D02*
D03*
Y57625D02*
D03*
X53120Y58215D02*
D03*
Y57625D02*
D03*
X54250Y58525D02*
D03*
Y57935D02*
D03*
X57230Y55445D02*
D03*
Y54855D02*
D03*
X52450Y60745D02*
D03*
Y61335D02*
D03*
X48310Y58185D02*
D03*
Y57595D02*
D03*
X47690Y58185D02*
D03*
Y57595D02*
D03*
X54400Y59635D02*
D03*
Y60225D02*
D03*
X48760Y55305D02*
D03*
Y54715D02*
D03*
X43430Y50905D02*
D03*
Y50315D02*
D03*
X54740Y46065D02*
D03*
Y46655D02*
D03*
X51260Y46065D02*
D03*
Y46655D02*
D03*
X60680Y50195D02*
D03*
Y50785D02*
D03*
X59910Y50215D02*
D03*
Y50805D02*
D03*
X61850Y47565D02*
D03*
Y46975D02*
D03*
X57100Y47545D02*
D03*
Y48135D02*
D03*
X53520Y53985D02*
D03*
Y54575D02*
D03*
X61850Y48305D02*
D03*
Y48895D02*
D03*
X54250Y46065D02*
D03*
Y46655D02*
D03*
X53760Y46065D02*
D03*
Y46655D02*
D03*
X53250Y46065D02*
D03*
Y46655D02*
D03*
X52760Y46065D02*
D03*
Y46655D02*
D03*
X52270Y46065D02*
D03*
Y46655D02*
D03*
X51760Y46065D02*
D03*
Y46655D02*
D03*
X43630Y57995D02*
D03*
Y57405D02*
D03*
X44380Y57995D02*
D03*
Y57405D02*
D03*
X45150Y57995D02*
D03*
Y57405D02*
D03*
X47670Y60115D02*
D03*
Y60705D02*
D03*
X48310Y60115D02*
D03*
Y60705D02*
D03*
X46660Y55385D02*
D03*
Y54795D02*
D03*
X46150Y55385D02*
D03*
Y54795D02*
D03*
X45010Y55325D02*
D03*
Y54735D02*
D03*
X65250Y47385D02*
D03*
Y47975D02*
D03*
Y46725D02*
D03*
Y46135D02*
D03*
X69200Y47125D02*
D03*
Y46535D02*
D03*
Y47885D02*
D03*
Y48475D02*
D03*
X65250Y41035D02*
D03*
Y41625D02*
D03*
Y40375D02*
D03*
Y39785D02*
D03*
X69200Y40775D02*
D03*
Y40185D02*
D03*
Y41535D02*
D03*
Y42125D02*
D03*
X65250Y34635D02*
D03*
Y35225D02*
D03*
Y33975D02*
D03*
Y33385D02*
D03*
X69200Y34375D02*
D03*
Y33785D02*
D03*
Y35135D02*
D03*
Y35725D02*
D03*
X65250Y28235D02*
D03*
Y28825D02*
D03*
Y27575D02*
D03*
Y26985D02*
D03*
X69200Y27975D02*
D03*
Y27385D02*
D03*
Y28735D02*
D03*
Y29325D02*
D03*
X65250Y72935D02*
D03*
Y73525D02*
D03*
Y72275D02*
D03*
Y71685D02*
D03*
X69200Y72675D02*
D03*
Y72085D02*
D03*
Y73435D02*
D03*
Y74025D02*
D03*
X65250Y66585D02*
D03*
Y67175D02*
D03*
Y65925D02*
D03*
Y65335D02*
D03*
X69200Y66325D02*
D03*
Y65735D02*
D03*
Y67085D02*
D03*
Y67675D02*
D03*
X65250Y60185D02*
D03*
Y60775D02*
D03*
Y59525D02*
D03*
Y58935D02*
D03*
X69200Y59925D02*
D03*
Y59335D02*
D03*
Y60685D02*
D03*
Y61275D02*
D03*
X65250Y53785D02*
D03*
Y54375D02*
D03*
Y53125D02*
D03*
Y52535D02*
D03*
X69200Y53525D02*
D03*
Y52935D02*
D03*
Y54285D02*
D03*
Y54875D02*
D03*
D20*
X18454Y9150D02*
D03*
X17666D02*
D03*
X2384Y10150D02*
D03*
X1596D02*
D03*
X4426Y18650D02*
D03*
X5214D02*
D03*
X7296Y51920D02*
D03*
X8084D02*
D03*
X28796D02*
D03*
X29584D02*
D03*
X39954Y9150D02*
D03*
X39166D02*
D03*
X23884Y10150D02*
D03*
X23096D02*
D03*
X25926Y18650D02*
D03*
X26714D02*
D03*
X61454Y9150D02*
D03*
X60666D02*
D03*
X45384Y10150D02*
D03*
X44596D02*
D03*
X47426Y18650D02*
D03*
X48214D02*
D03*
X50296Y51920D02*
D03*
X51084D02*
D03*
D21*
X15350Y1514D02*
D03*
Y726D02*
D03*
X4560Y54706D02*
D03*
Y55494D02*
D03*
X26060Y54706D02*
D03*
Y55494D02*
D03*
X36850Y1514D02*
D03*
Y726D02*
D03*
X58350Y1514D02*
D03*
Y726D02*
D03*
X47560Y54706D02*
D03*
Y55494D02*
D03*
D23*
X12808Y18520D02*
Y19530D01*
X7260Y18510D02*
Y19520D01*
Y19530D02*
X12808D01*
X7260Y18510D02*
X12810D01*
X6278Y70110D02*
Y71120D01*
X730D02*
X6278D01*
X730Y70100D02*
X6280D01*
X730D02*
Y71110D01*
X15918Y51840D02*
Y52850D01*
X10370D02*
X15918D01*
X10370Y51830D02*
X15920D01*
X10370D02*
Y52840D01*
X37418Y51840D02*
Y52850D01*
X31870D02*
X37418D01*
X31870Y51830D02*
X37420D01*
X31870D02*
Y52840D01*
X27778Y70110D02*
Y71120D01*
X22230D02*
X27778D01*
X22230Y70100D02*
X27780D01*
X22230D02*
Y71110D01*
X34308Y18520D02*
Y19530D01*
X28760Y18510D02*
Y19520D01*
Y19530D02*
X34308D01*
X28760Y18510D02*
X34310D01*
X55808Y18520D02*
Y19530D01*
X50260Y18510D02*
Y19520D01*
Y19530D02*
X55808D01*
X50260Y18510D02*
X55810D01*
X49278Y70110D02*
Y71120D01*
X43730D02*
X49278D01*
X43730Y70100D02*
X49280D01*
X43730D02*
Y71110D01*
X58918Y51840D02*
Y52850D01*
X53370D02*
X58918D01*
X53370Y51830D02*
X58920D01*
X53370D02*
Y52840D01*
D24*
X7910Y19310D02*
X7510D01*
Y19010D01*
X7710D01*
X7510D01*
Y18710D01*
X8210Y19110D02*
X8410D01*
X8510Y19010D01*
Y18710D01*
X8210D01*
X8110Y18810D01*
X8210Y18910D01*
X8510D01*
X8710Y18710D02*
X8910D01*
X8810D01*
Y19310D01*
X8710D01*
X9609Y19110D02*
X9309D01*
X9209Y19010D01*
Y18810D01*
X9309Y18710D01*
X9609D01*
X9909D02*
X10109D01*
X10209Y18810D01*
Y19010D01*
X10109Y19110D01*
X9909D01*
X9809Y19010D01*
Y18810D01*
X9909Y18710D01*
X10409D02*
Y19110D01*
X10709D01*
X10809Y19010D01*
Y18710D01*
X12009Y19310D02*
X11609D01*
Y19010D01*
X11809D01*
X11609D01*
Y18710D01*
X12608Y19210D02*
X12508Y19310D01*
X12308D01*
X12208Y19210D01*
Y18810D01*
X12308Y18710D01*
X12508D01*
X12608Y18810D01*
X9280Y17860D02*
Y18260D01*
X9413Y18127D01*
X9547Y18260D01*
Y17860D01*
X9946Y18193D02*
X9880Y18260D01*
X9747D01*
X9680Y18193D01*
Y17927D01*
X9747Y17860D01*
X9880D01*
X9946Y17927D01*
X10080Y18260D02*
Y17927D01*
X10146Y17860D01*
X10280D01*
X10346Y17927D01*
Y18260D01*
X10480Y17860D02*
Y17927D01*
X10546D01*
Y17860D01*
X10480D01*
X10813D02*
X10946D01*
X10879D01*
Y18260D01*
X10813Y18193D01*
X5810Y35040D02*
Y36040D01*
X360Y36039D02*
X5809D01*
X360Y35040D02*
Y36039D01*
Y35040D02*
X5810D01*
X2533Y34790D02*
X2266D01*
Y34590D01*
X2399D01*
X2266D01*
Y34390D01*
X2933Y34723D02*
X2866Y34790D01*
X2733D01*
X2666Y34723D01*
Y34457D01*
X2733Y34390D01*
X2866D01*
X2933Y34457D01*
X3066Y34790D02*
Y34457D01*
X3133Y34390D01*
X3266D01*
X3332Y34457D01*
Y34790D01*
X3466Y34390D02*
Y34457D01*
X3532D01*
Y34390D01*
X3466D01*
X3799D02*
X3932D01*
X3866D01*
Y34790D01*
X3799Y34723D01*
X950Y35850D02*
X550D01*
Y35550D01*
X750D01*
X550D01*
Y35250D01*
X1250Y35650D02*
X1450D01*
X1550Y35550D01*
Y35250D01*
X1250D01*
X1150Y35350D01*
X1250Y35450D01*
X1550D01*
X1750Y35250D02*
X1950D01*
X1850D01*
Y35850D01*
X1750D01*
X2649Y35650D02*
X2349D01*
X2249Y35550D01*
Y35350D01*
X2349Y35250D01*
X2649D01*
X2949D02*
X3149D01*
X3249Y35350D01*
Y35550D01*
X3149Y35650D01*
X2949D01*
X2849Y35550D01*
Y35350D01*
X2949Y35250D01*
X3449D02*
Y35650D01*
X3749D01*
X3849Y35550D01*
Y35250D01*
X5049Y35850D02*
X4649D01*
Y35550D01*
X4849D01*
X4649D01*
Y35250D01*
X5648Y35750D02*
X5548Y35850D01*
X5348D01*
X5248Y35750D01*
Y35350D01*
X5348Y35250D01*
X5548D01*
X5648Y35350D01*
X1490Y69720D02*
X1623D01*
X1557D01*
Y69320D01*
X1490D01*
X1623D01*
X1823D02*
Y69720D01*
X1957Y69587D01*
X2090Y69720D01*
Y69320D01*
X2223Y69720D02*
Y69387D01*
X2290Y69320D01*
X2423D01*
X2490Y69387D01*
Y69720D01*
X2623Y69253D02*
X2890D01*
X3289Y69653D02*
X3223Y69720D01*
X3089D01*
X3023Y69653D01*
Y69587D01*
X3089Y69520D01*
X3223D01*
X3289Y69453D01*
Y69387D01*
X3223Y69320D01*
X3089D01*
X3023Y69387D01*
X3689Y69720D02*
X3423D01*
Y69320D01*
X3689D01*
X3423Y69520D02*
X3556D01*
X3823Y69320D02*
Y69720D01*
X4089Y69320D01*
Y69720D01*
X4489Y69653D02*
X4422Y69720D01*
X4289D01*
X4222Y69653D01*
Y69587D01*
X4289Y69520D01*
X4422D01*
X4489Y69453D01*
Y69387D01*
X4422Y69320D01*
X4289D01*
X4222Y69387D01*
X4889Y69720D02*
X4622D01*
Y69320D01*
X4889D01*
X4622Y69520D02*
X4756D01*
X5022Y69320D02*
Y69387D01*
X5089D01*
Y69320D01*
X5022D01*
X5355D02*
X5489D01*
X5422D01*
Y69720D01*
X5355Y69653D01*
X1380Y70900D02*
X980D01*
Y70600D01*
X1180D01*
X980D01*
Y70300D01*
X1680Y70700D02*
X1880D01*
X1980Y70600D01*
Y70300D01*
X1680D01*
X1580Y70400D01*
X1680Y70500D01*
X1980D01*
X2180Y70300D02*
X2380D01*
X2280D01*
Y70900D01*
X2180D01*
X3079Y70700D02*
X2779D01*
X2679Y70600D01*
Y70400D01*
X2779Y70300D01*
X3079D01*
X3379D02*
X3579D01*
X3679Y70400D01*
Y70600D01*
X3579Y70700D01*
X3379D01*
X3279Y70600D01*
Y70400D01*
X3379Y70300D01*
X3879D02*
Y70700D01*
X4179D01*
X4279Y70600D01*
Y70300D01*
X5479Y70900D02*
X5079D01*
Y70600D01*
X5279D01*
X5079D01*
Y70300D01*
X6078Y70800D02*
X5978Y70900D01*
X5778D01*
X5678Y70800D01*
Y70400D01*
X5778Y70300D01*
X5978D01*
X6078Y70400D01*
X11510Y51530D02*
X11643D01*
X11577D01*
Y51130D01*
X11510D01*
X11643D01*
X11843D02*
Y51530D01*
X11977Y51397D01*
X12110Y51530D01*
Y51130D01*
X12243Y51530D02*
Y51197D01*
X12310Y51130D01*
X12443D01*
X12510Y51197D01*
Y51530D01*
X12643Y51063D02*
X12910D01*
X13309Y51463D02*
X13243Y51530D01*
X13109D01*
X13043Y51463D01*
Y51197D01*
X13109Y51130D01*
X13243D01*
X13309Y51197D01*
X13443Y51130D02*
Y51530D01*
X13643D01*
X13709Y51463D01*
Y51330D01*
X13643Y51263D01*
X13443D01*
X13843Y51530D02*
Y51197D01*
X13909Y51130D01*
X14043D01*
X14109Y51197D01*
Y51530D01*
X14242Y51130D02*
Y51197D01*
X14309D01*
Y51130D01*
X14242D01*
X14576D02*
X14709D01*
X14642D01*
Y51530D01*
X14576Y51463D01*
X11020Y52630D02*
X10620D01*
Y52330D01*
X10820D01*
X10620D01*
Y52030D01*
X11320Y52430D02*
X11520D01*
X11620Y52330D01*
Y52030D01*
X11320D01*
X11220Y52130D01*
X11320Y52230D01*
X11620D01*
X11820Y52030D02*
X12020D01*
X11920D01*
Y52630D01*
X11820D01*
X12719Y52430D02*
X12419D01*
X12319Y52330D01*
Y52130D01*
X12419Y52030D01*
X12719D01*
X13019D02*
X13219D01*
X13319Y52130D01*
Y52330D01*
X13219Y52430D01*
X13019D01*
X12919Y52330D01*
Y52130D01*
X13019Y52030D01*
X13519D02*
Y52430D01*
X13819D01*
X13919Y52330D01*
Y52030D01*
X15119Y52630D02*
X14719D01*
Y52330D01*
X14919D01*
X14719D01*
Y52030D01*
X15718Y52530D02*
X15618Y52630D01*
X15418D01*
X15318Y52530D01*
Y52130D01*
X15418Y52030D01*
X15618D01*
X15718Y52130D01*
X33010Y51530D02*
X33143D01*
X33077D01*
Y51130D01*
X33010D01*
X33143D01*
X33343D02*
Y51530D01*
X33477Y51397D01*
X33610Y51530D01*
Y51130D01*
X33743Y51530D02*
Y51197D01*
X33810Y51130D01*
X33943D01*
X34010Y51197D01*
Y51530D01*
X34143Y51063D02*
X34410D01*
X34809Y51463D02*
X34743Y51530D01*
X34609D01*
X34543Y51463D01*
Y51197D01*
X34609Y51130D01*
X34743D01*
X34809Y51197D01*
X34943Y51130D02*
Y51530D01*
X35143D01*
X35209Y51463D01*
Y51330D01*
X35143Y51263D01*
X34943D01*
X35343Y51530D02*
Y51197D01*
X35409Y51130D01*
X35543D01*
X35609Y51197D01*
Y51530D01*
X35742Y51130D02*
Y51197D01*
X35809D01*
Y51130D01*
X35742D01*
X36076D02*
X36209D01*
X36142D01*
Y51530D01*
X36076Y51463D01*
X32520Y52630D02*
X32120D01*
Y52330D01*
X32320D01*
X32120D01*
Y52030D01*
X32820Y52430D02*
X33020D01*
X33120Y52330D01*
Y52030D01*
X32820D01*
X32720Y52130D01*
X32820Y52230D01*
X33120D01*
X33320Y52030D02*
X33520D01*
X33420D01*
Y52630D01*
X33320D01*
X34219Y52430D02*
X33919D01*
X33819Y52330D01*
Y52130D01*
X33919Y52030D01*
X34219D01*
X34519D02*
X34719D01*
X34819Y52130D01*
Y52330D01*
X34719Y52430D01*
X34519D01*
X34419Y52330D01*
Y52130D01*
X34519Y52030D01*
X35019D02*
Y52430D01*
X35319D01*
X35419Y52330D01*
Y52030D01*
X36619Y52630D02*
X36219D01*
Y52330D01*
X36419D01*
X36219D01*
Y52030D01*
X37218Y52530D02*
X37118Y52630D01*
X36918D01*
X36818Y52530D01*
Y52130D01*
X36918Y52030D01*
X37118D01*
X37218Y52130D01*
X22990Y69720D02*
X23123D01*
X23057D01*
Y69320D01*
X22990D01*
X23123D01*
X23323D02*
Y69720D01*
X23457Y69587D01*
X23590Y69720D01*
Y69320D01*
X23723Y69720D02*
Y69387D01*
X23790Y69320D01*
X23923D01*
X23990Y69387D01*
Y69720D01*
X24123Y69253D02*
X24390D01*
X24789Y69653D02*
X24723Y69720D01*
X24589D01*
X24523Y69653D01*
Y69587D01*
X24589Y69520D01*
X24723D01*
X24789Y69453D01*
Y69387D01*
X24723Y69320D01*
X24589D01*
X24523Y69387D01*
X25189Y69720D02*
X24923D01*
Y69320D01*
X25189D01*
X24923Y69520D02*
X25056D01*
X25323Y69320D02*
Y69720D01*
X25589Y69320D01*
Y69720D01*
X25989Y69653D02*
X25922Y69720D01*
X25789D01*
X25722Y69653D01*
Y69587D01*
X25789Y69520D01*
X25922D01*
X25989Y69453D01*
Y69387D01*
X25922Y69320D01*
X25789D01*
X25722Y69387D01*
X26389Y69720D02*
X26122D01*
Y69320D01*
X26389D01*
X26122Y69520D02*
X26256D01*
X26522Y69320D02*
Y69387D01*
X26589D01*
Y69320D01*
X26522D01*
X26855D02*
X26989D01*
X26922D01*
Y69720D01*
X26855Y69653D01*
X22880Y70900D02*
X22480D01*
Y70600D01*
X22680D01*
X22480D01*
Y70300D01*
X23180Y70700D02*
X23380D01*
X23480Y70600D01*
Y70300D01*
X23180D01*
X23080Y70400D01*
X23180Y70500D01*
X23480D01*
X23680Y70300D02*
X23880D01*
X23780D01*
Y70900D01*
X23680D01*
X24579Y70700D02*
X24279D01*
X24179Y70600D01*
Y70400D01*
X24279Y70300D01*
X24579D01*
X24879D02*
X25079D01*
X25179Y70400D01*
Y70600D01*
X25079Y70700D01*
X24879D01*
X24779Y70600D01*
Y70400D01*
X24879Y70300D01*
X25379D02*
Y70700D01*
X25679D01*
X25779Y70600D01*
Y70300D01*
X26979Y70900D02*
X26579D01*
Y70600D01*
X26779D01*
X26579D01*
Y70300D01*
X27578Y70800D02*
X27478Y70900D01*
X27278D01*
X27178Y70800D01*
Y70400D01*
X27278Y70300D01*
X27478D01*
X27578Y70400D01*
X27310Y35040D02*
Y36040D01*
X21860Y36039D02*
X27309D01*
X21860Y35040D02*
Y36039D01*
Y35040D02*
X27310D01*
X24033Y34790D02*
X23766D01*
Y34590D01*
X23899D01*
X23766D01*
Y34390D01*
X24433Y34723D02*
X24366Y34790D01*
X24233D01*
X24166Y34723D01*
Y34457D01*
X24233Y34390D01*
X24366D01*
X24433Y34457D01*
X24566Y34790D02*
Y34457D01*
X24632Y34390D01*
X24766D01*
X24832Y34457D01*
Y34790D01*
X24966Y34390D02*
Y34457D01*
X25032D01*
Y34390D01*
X24966D01*
X25299D02*
X25432D01*
X25366D01*
Y34790D01*
X25299Y34723D01*
X22450Y35850D02*
X22050D01*
Y35550D01*
X22250D01*
X22050D01*
Y35250D01*
X22750Y35650D02*
X22950D01*
X23050Y35550D01*
Y35250D01*
X22750D01*
X22650Y35350D01*
X22750Y35450D01*
X23050D01*
X23250Y35250D02*
X23450D01*
X23350D01*
Y35850D01*
X23250D01*
X24149Y35650D02*
X23849D01*
X23749Y35550D01*
Y35350D01*
X23849Y35250D01*
X24149D01*
X24449D02*
X24649D01*
X24749Y35350D01*
Y35550D01*
X24649Y35650D01*
X24449D01*
X24349Y35550D01*
Y35350D01*
X24449Y35250D01*
X24949D02*
Y35650D01*
X25249D01*
X25349Y35550D01*
Y35250D01*
X26549Y35850D02*
X26149D01*
Y35550D01*
X26349D01*
X26149D01*
Y35250D01*
X27148Y35750D02*
X27048Y35850D01*
X26848D01*
X26748Y35750D01*
Y35350D01*
X26848Y35250D01*
X27048D01*
X27148Y35350D01*
X29410Y19310D02*
X29010D01*
Y19010D01*
X29210D01*
X29010D01*
Y18710D01*
X29710Y19110D02*
X29910D01*
X30010Y19010D01*
Y18710D01*
X29710D01*
X29610Y18810D01*
X29710Y18910D01*
X30010D01*
X30210Y18710D02*
X30410D01*
X30310D01*
Y19310D01*
X30210D01*
X31109Y19110D02*
X30809D01*
X30709Y19010D01*
Y18810D01*
X30809Y18710D01*
X31109D01*
X31409D02*
X31609D01*
X31709Y18810D01*
Y19010D01*
X31609Y19110D01*
X31409D01*
X31309Y19010D01*
Y18810D01*
X31409Y18710D01*
X31909D02*
Y19110D01*
X32209D01*
X32309Y19010D01*
Y18710D01*
X33509Y19310D02*
X33109D01*
Y19010D01*
X33309D01*
X33109D01*
Y18710D01*
X34108Y19210D02*
X34008Y19310D01*
X33808D01*
X33708Y19210D01*
Y18810D01*
X33808Y18710D01*
X34008D01*
X34108Y18810D01*
X30780Y17860D02*
Y18260D01*
X30913Y18127D01*
X31047Y18260D01*
Y17860D01*
X31446Y18193D02*
X31380Y18260D01*
X31247D01*
X31180Y18193D01*
Y17927D01*
X31247Y17860D01*
X31380D01*
X31446Y17927D01*
X31580Y18260D02*
Y17927D01*
X31646Y17860D01*
X31780D01*
X31846Y17927D01*
Y18260D01*
X31980Y17860D02*
Y17927D01*
X32046D01*
Y17860D01*
X31980D01*
X32313D02*
X32446D01*
X32379D01*
Y18260D01*
X32313Y18193D01*
X50910Y19310D02*
X50510D01*
Y19010D01*
X50710D01*
X50510D01*
Y18710D01*
X51210Y19110D02*
X51410D01*
X51510Y19010D01*
Y18710D01*
X51210D01*
X51110Y18810D01*
X51210Y18910D01*
X51510D01*
X51710Y18710D02*
X51910D01*
X51810D01*
Y19310D01*
X51710D01*
X52609Y19110D02*
X52309D01*
X52209Y19010D01*
Y18810D01*
X52309Y18710D01*
X52609D01*
X52909D02*
X53109D01*
X53209Y18810D01*
Y19010D01*
X53109Y19110D01*
X52909D01*
X52809Y19010D01*
Y18810D01*
X52909Y18710D01*
X53409D02*
Y19110D01*
X53709D01*
X53809Y19010D01*
Y18710D01*
X55009Y19310D02*
X54609D01*
Y19010D01*
X54809D01*
X54609D01*
Y18710D01*
X55608Y19210D02*
X55508Y19310D01*
X55308D01*
X55208Y19210D01*
Y18810D01*
X55308Y18710D01*
X55508D01*
X55608Y18810D01*
X52280Y17860D02*
Y18260D01*
X52413Y18127D01*
X52547Y18260D01*
Y17860D01*
X52946Y18193D02*
X52880Y18260D01*
X52747D01*
X52680Y18193D01*
Y17927D01*
X52747Y17860D01*
X52880D01*
X52946Y17927D01*
X53080Y18260D02*
Y17927D01*
X53146Y17860D01*
X53280D01*
X53346Y17927D01*
Y18260D01*
X53480Y17860D02*
Y17927D01*
X53546D01*
Y17860D01*
X53480D01*
X53813D02*
X53946D01*
X53879D01*
Y18260D01*
X53813Y18193D01*
X48810Y35040D02*
Y36040D01*
X43360Y36039D02*
X48809D01*
X43360Y35040D02*
Y36039D01*
Y35040D02*
X48810D01*
X45533Y34790D02*
X45266D01*
Y34590D01*
X45399D01*
X45266D01*
Y34390D01*
X45933Y34723D02*
X45866Y34790D01*
X45733D01*
X45666Y34723D01*
Y34457D01*
X45733Y34390D01*
X45866D01*
X45933Y34457D01*
X46066Y34790D02*
Y34457D01*
X46132Y34390D01*
X46266D01*
X46332Y34457D01*
Y34790D01*
X46466Y34390D02*
Y34457D01*
X46532D01*
Y34390D01*
X46466D01*
X46799D02*
X46932D01*
X46866D01*
Y34790D01*
X46799Y34723D01*
X43950Y35850D02*
X43550D01*
Y35550D01*
X43750D01*
X43550D01*
Y35250D01*
X44250Y35650D02*
X44450D01*
X44550Y35550D01*
Y35250D01*
X44250D01*
X44150Y35350D01*
X44250Y35450D01*
X44550D01*
X44750Y35250D02*
X44950D01*
X44850D01*
Y35850D01*
X44750D01*
X45649Y35650D02*
X45349D01*
X45249Y35550D01*
Y35350D01*
X45349Y35250D01*
X45649D01*
X45949D02*
X46149D01*
X46249Y35350D01*
Y35550D01*
X46149Y35650D01*
X45949D01*
X45849Y35550D01*
Y35350D01*
X45949Y35250D01*
X46449D02*
Y35650D01*
X46749D01*
X46849Y35550D01*
Y35250D01*
X48049Y35850D02*
X47649D01*
Y35550D01*
X47849D01*
X47649D01*
Y35250D01*
X48648Y35750D02*
X48548Y35850D01*
X48348D01*
X48248Y35750D01*
Y35350D01*
X48348Y35250D01*
X48548D01*
X48648Y35350D01*
X44490Y69720D02*
X44623D01*
X44557D01*
Y69320D01*
X44490D01*
X44623D01*
X44823D02*
Y69720D01*
X44957Y69587D01*
X45090Y69720D01*
Y69320D01*
X45223Y69720D02*
Y69387D01*
X45290Y69320D01*
X45423D01*
X45490Y69387D01*
Y69720D01*
X45623Y69253D02*
X45890D01*
X46289Y69653D02*
X46223Y69720D01*
X46089D01*
X46023Y69653D01*
Y69587D01*
X46089Y69520D01*
X46223D01*
X46289Y69453D01*
Y69387D01*
X46223Y69320D01*
X46089D01*
X46023Y69387D01*
X46689Y69720D02*
X46423D01*
Y69320D01*
X46689D01*
X46423Y69520D02*
X46556D01*
X46823Y69320D02*
Y69720D01*
X47089Y69320D01*
Y69720D01*
X47489Y69653D02*
X47422Y69720D01*
X47289D01*
X47222Y69653D01*
Y69587D01*
X47289Y69520D01*
X47422D01*
X47489Y69453D01*
Y69387D01*
X47422Y69320D01*
X47289D01*
X47222Y69387D01*
X47889Y69720D02*
X47622D01*
Y69320D01*
X47889D01*
X47622Y69520D02*
X47756D01*
X48022Y69320D02*
Y69387D01*
X48089D01*
Y69320D01*
X48022D01*
X48355D02*
X48489D01*
X48422D01*
Y69720D01*
X48355Y69653D01*
X44380Y70900D02*
X43980D01*
Y70600D01*
X44180D01*
X43980D01*
Y70300D01*
X44680Y70700D02*
X44880D01*
X44980Y70600D01*
Y70300D01*
X44680D01*
X44580Y70400D01*
X44680Y70500D01*
X44980D01*
X45180Y70300D02*
X45380D01*
X45280D01*
Y70900D01*
X45180D01*
X46079Y70700D02*
X45779D01*
X45679Y70600D01*
Y70400D01*
X45779Y70300D01*
X46079D01*
X46379D02*
X46579D01*
X46679Y70400D01*
Y70600D01*
X46579Y70700D01*
X46379D01*
X46279Y70600D01*
Y70400D01*
X46379Y70300D01*
X46879D02*
Y70700D01*
X47179D01*
X47279Y70600D01*
Y70300D01*
X48479Y70900D02*
X48079D01*
Y70600D01*
X48279D01*
X48079D01*
Y70300D01*
X49078Y70800D02*
X48978Y70900D01*
X48778D01*
X48678Y70800D01*
Y70400D01*
X48778Y70300D01*
X48978D01*
X49078Y70400D01*
X54510Y51530D02*
X54643D01*
X54577D01*
Y51130D01*
X54510D01*
X54643D01*
X54843D02*
Y51530D01*
X54977Y51397D01*
X55110Y51530D01*
Y51130D01*
X55243Y51530D02*
Y51197D01*
X55310Y51130D01*
X55443D01*
X55510Y51197D01*
Y51530D01*
X55643Y51063D02*
X55910D01*
X56309Y51463D02*
X56243Y51530D01*
X56109D01*
X56043Y51463D01*
Y51197D01*
X56109Y51130D01*
X56243D01*
X56309Y51197D01*
X56443Y51130D02*
Y51530D01*
X56643D01*
X56709Y51463D01*
Y51330D01*
X56643Y51263D01*
X56443D01*
X56843Y51530D02*
Y51197D01*
X56909Y51130D01*
X57043D01*
X57109Y51197D01*
Y51530D01*
X57242Y51130D02*
Y51197D01*
X57309D01*
Y51130D01*
X57242D01*
X57576D02*
X57709D01*
X57642D01*
Y51530D01*
X57576Y51463D01*
X54020Y52630D02*
X53620D01*
Y52330D01*
X53820D01*
X53620D01*
Y52030D01*
X54320Y52430D02*
X54520D01*
X54620Y52330D01*
Y52030D01*
X54320D01*
X54220Y52130D01*
X54320Y52230D01*
X54620D01*
X54820Y52030D02*
X55020D01*
X54920D01*
Y52630D01*
X54820D01*
X55719Y52430D02*
X55419D01*
X55319Y52330D01*
Y52130D01*
X55419Y52030D01*
X55719D01*
X56019D02*
X56219D01*
X56319Y52130D01*
Y52330D01*
X56219Y52430D01*
X56019D01*
X55919Y52330D01*
Y52130D01*
X56019Y52030D01*
X56519D02*
Y52430D01*
X56819D01*
X56919Y52330D01*
Y52030D01*
X58119Y52630D02*
X57719D01*
Y52330D01*
X57919D01*
X57719D01*
Y52030D01*
X58718Y52530D02*
X58618Y52630D01*
X58418D01*
X58318Y52530D01*
Y52130D01*
X58418Y52030D01*
X58618D01*
X58718Y52130D01*
D32*
X7870Y29185D02*
D03*
Y29775D02*
D03*
X7270Y29185D02*
D03*
Y29775D02*
D03*
X4270Y33685D02*
D03*
Y33095D02*
D03*
X6350Y24395D02*
D03*
Y24985D02*
D03*
X2150Y25185D02*
D03*
Y24595D02*
D03*
X12750Y33225D02*
D03*
Y32635D02*
D03*
X6350Y23185D02*
D03*
Y23775D02*
D03*
X6270Y26175D02*
D03*
Y25585D02*
D03*
X7470Y31175D02*
D03*
Y30585D02*
D03*
X2150Y23985D02*
D03*
Y23395D02*
D03*
X7130Y33235D02*
D03*
Y32645D02*
D03*
X12700Y31695D02*
D03*
Y31105D02*
D03*
X17150Y23905D02*
D03*
Y24495D02*
D03*
X380Y37375D02*
D03*
Y36785D02*
D03*
X980Y37375D02*
D03*
Y36785D02*
D03*
X10000Y35345D02*
D03*
Y34755D02*
D03*
X29370Y29185D02*
D03*
Y29775D02*
D03*
X28770Y29185D02*
D03*
Y29775D02*
D03*
X25770Y33685D02*
D03*
Y33095D02*
D03*
X27850Y24395D02*
D03*
Y24985D02*
D03*
X23650Y25185D02*
D03*
Y24595D02*
D03*
X34250Y33225D02*
D03*
Y32635D02*
D03*
X27850Y23185D02*
D03*
Y23775D02*
D03*
X27770Y26175D02*
D03*
Y25585D02*
D03*
X28970Y31175D02*
D03*
Y30585D02*
D03*
X23650Y23985D02*
D03*
Y23395D02*
D03*
X28630Y33235D02*
D03*
Y32645D02*
D03*
X34200Y31695D02*
D03*
Y31105D02*
D03*
X38650Y23905D02*
D03*
Y24495D02*
D03*
X21880Y37375D02*
D03*
Y36785D02*
D03*
X22480Y37375D02*
D03*
Y36785D02*
D03*
X31500Y35345D02*
D03*
Y34755D02*
D03*
X50870Y29185D02*
D03*
Y29775D02*
D03*
X50270Y29185D02*
D03*
Y29775D02*
D03*
X47270Y33685D02*
D03*
Y33095D02*
D03*
X49350Y24395D02*
D03*
Y24985D02*
D03*
X45150Y25185D02*
D03*
Y24595D02*
D03*
X55750Y33225D02*
D03*
Y32635D02*
D03*
X49350Y23185D02*
D03*
Y23775D02*
D03*
X49270Y26175D02*
D03*
Y25585D02*
D03*
X50470Y31175D02*
D03*
Y30585D02*
D03*
X45150Y23985D02*
D03*
Y23395D02*
D03*
X50130Y33235D02*
D03*
Y32645D02*
D03*
X55700Y31695D02*
D03*
Y31105D02*
D03*
X60150Y23905D02*
D03*
Y24495D02*
D03*
X43380Y37375D02*
D03*
Y36785D02*
D03*
X43980Y37375D02*
D03*
Y36785D02*
D03*
X53000Y35345D02*
D03*
Y34755D02*
D03*
D33*
X11565Y34080D02*
D03*
X10975D02*
D03*
X4295Y23080D02*
D03*
X4885D02*
D03*
X15655Y30100D02*
D03*
X16245D02*
D03*
X12095Y29400D02*
D03*
X11505D02*
D03*
X9155Y34140D02*
D03*
X8565D02*
D03*
X5295Y26900D02*
D03*
X4705D02*
D03*
X18505Y38390D02*
D03*
X17915D02*
D03*
X6395Y26900D02*
D03*
X5805D02*
D03*
X16695Y23250D02*
D03*
X16105D02*
D03*
X18505Y37790D02*
D03*
X17915D02*
D03*
X33065Y34080D02*
D03*
X32475D02*
D03*
X25795Y23080D02*
D03*
X26385D02*
D03*
X37155Y30100D02*
D03*
X37745D02*
D03*
X33595Y29400D02*
D03*
X33005D02*
D03*
X30655Y34140D02*
D03*
X30065D02*
D03*
X26795Y26900D02*
D03*
X26205D02*
D03*
X40005Y38390D02*
D03*
X39415D02*
D03*
X27895Y26900D02*
D03*
X27305D02*
D03*
X38195Y23250D02*
D03*
X37605D02*
D03*
X40005Y37790D02*
D03*
X39415D02*
D03*
X54565Y34080D02*
D03*
X53975D02*
D03*
X47295Y23080D02*
D03*
X47885D02*
D03*
X58655Y30100D02*
D03*
X59245D02*
D03*
X55095Y29400D02*
D03*
X54505D02*
D03*
X52155Y34140D02*
D03*
X51565D02*
D03*
X48295Y26900D02*
D03*
X47705D02*
D03*
X61505Y38390D02*
D03*
X60915D02*
D03*
X49395Y26900D02*
D03*
X48805D02*
D03*
X59695Y23250D02*
D03*
X59105D02*
D03*
X61505Y37790D02*
D03*
X60915D02*
D03*
D35*
X13838Y22146D02*
D03*
Y22894D02*
D03*
X14782D02*
D03*
Y22520D02*
D03*
Y22146D02*
D03*
X13838Y24146D02*
D03*
Y24894D02*
D03*
X14782D02*
D03*
Y24520D02*
D03*
Y24146D02*
D03*
X35338Y22146D02*
D03*
Y22894D02*
D03*
X36282D02*
D03*
Y22520D02*
D03*
Y22146D02*
D03*
X35338Y24146D02*
D03*
Y24894D02*
D03*
X36282D02*
D03*
Y24520D02*
D03*
Y24146D02*
D03*
X56838Y22146D02*
D03*
Y22894D02*
D03*
X57782D02*
D03*
Y22520D02*
D03*
Y22146D02*
D03*
X56838Y24146D02*
D03*
Y24894D02*
D03*
X57782D02*
D03*
Y24520D02*
D03*
Y24146D02*
D03*
D40*
X1024Y33432D02*
D03*
Y29928D02*
D03*
X22524Y33432D02*
D03*
Y29928D02*
D03*
X44024Y33432D02*
D03*
Y29928D02*
D03*
D41*
X2855Y33432D02*
D03*
Y29928D02*
D03*
X24355Y33432D02*
D03*
Y29928D02*
D03*
X45855Y33432D02*
D03*
Y29928D02*
D03*
D43*
X5424Y29644D02*
D03*
X4676D02*
D03*
X5050Y28856D02*
D03*
X17124Y25944D02*
D03*
X16376D02*
D03*
X16750Y25156D02*
D03*
X16474Y24594D02*
D03*
X15726D02*
D03*
X16100Y23806D02*
D03*
X26924Y29644D02*
D03*
X26176D02*
D03*
X26550Y28856D02*
D03*
X38624Y25944D02*
D03*
X37876D02*
D03*
X38250Y25156D02*
D03*
X37974Y24594D02*
D03*
X37226D02*
D03*
X37600Y23806D02*
D03*
X48424Y29644D02*
D03*
X47676D02*
D03*
X48050Y28856D02*
D03*
X60124Y25944D02*
D03*
X59376D02*
D03*
X59750Y25156D02*
D03*
X59474Y24594D02*
D03*
X58726D02*
D03*
X59100Y23806D02*
D03*
D44*
X15236Y36534D02*
D03*
Y35786D02*
D03*
X16024Y36160D02*
D03*
X2824Y37156D02*
D03*
Y37904D02*
D03*
X2036Y37530D02*
D03*
X5494Y27476D02*
D03*
Y28224D02*
D03*
X4706Y27850D02*
D03*
X15236Y35134D02*
D03*
Y34386D02*
D03*
X16024Y34760D02*
D03*
X2824Y38706D02*
D03*
Y39454D02*
D03*
X2036Y39080D02*
D03*
X36736Y36534D02*
D03*
Y35786D02*
D03*
X37524Y36160D02*
D03*
X24324Y37156D02*
D03*
Y37904D02*
D03*
X23536Y37530D02*
D03*
X26994Y27476D02*
D03*
Y28224D02*
D03*
X26206Y27850D02*
D03*
X36736Y35134D02*
D03*
Y34386D02*
D03*
X37524Y34760D02*
D03*
X24324Y38706D02*
D03*
Y39454D02*
D03*
X23536Y39080D02*
D03*
X58236Y36534D02*
D03*
Y35786D02*
D03*
X59024Y36160D02*
D03*
X45824Y37156D02*
D03*
Y37904D02*
D03*
X45036Y37530D02*
D03*
X48494Y27476D02*
D03*
Y28224D02*
D03*
X47706Y27850D02*
D03*
X58236Y35134D02*
D03*
Y34386D02*
D03*
X59024Y34760D02*
D03*
X45824Y38706D02*
D03*
Y39454D02*
D03*
X45036Y39080D02*
D03*
D45*
X500Y25141D02*
D03*
Y24550D02*
D03*
X16850Y22495D02*
D03*
Y21905D02*
D03*
X380Y37885D02*
D03*
Y38475D02*
D03*
X1100Y25141D02*
D03*
Y24550D02*
D03*
X16200Y22495D02*
D03*
Y21905D02*
D03*
X980Y37885D02*
D03*
Y38475D02*
D03*
X22000Y25141D02*
D03*
Y24550D02*
D03*
X38350Y22495D02*
D03*
Y21905D02*
D03*
X21880Y37885D02*
D03*
Y38475D02*
D03*
X22600Y25141D02*
D03*
Y24550D02*
D03*
X37700Y22495D02*
D03*
Y21905D02*
D03*
X22480Y37885D02*
D03*
Y38475D02*
D03*
X43500Y25141D02*
D03*
Y24550D02*
D03*
X59850Y22495D02*
D03*
Y21905D02*
D03*
X43380Y37885D02*
D03*
Y38475D02*
D03*
X44100Y25141D02*
D03*
Y24550D02*
D03*
X59200Y22495D02*
D03*
Y21905D02*
D03*
X43980Y37885D02*
D03*
Y38475D02*
D03*
D46*
X19015Y38390D02*
D03*
X19605D02*
D03*
X19015Y37790D02*
D03*
X19605D02*
D03*
X40515Y38390D02*
D03*
X41105D02*
D03*
X40515Y37790D02*
D03*
X41105D02*
D03*
X62015Y38390D02*
D03*
X62605D02*
D03*
X62015Y37790D02*
D03*
X62605D02*
D03*
D48*
X6905Y66320D02*
D03*
X7495D02*
D03*
X10315Y81370D02*
D03*
X10905D02*
D03*
X9435Y78480D02*
D03*
X10025D02*
D03*
X9435Y78970D02*
D03*
X10025D02*
D03*
X9735Y76630D02*
D03*
X10325D02*
D03*
X9735Y76140D02*
D03*
X10325D02*
D03*
X13745Y74210D02*
D03*
X13155D02*
D03*
X6815Y77580D02*
D03*
X6225D02*
D03*
X3955Y68470D02*
D03*
X4545D02*
D03*
X2955D02*
D03*
X2365D02*
D03*
X17045Y68460D02*
D03*
X17635D02*
D03*
X16055D02*
D03*
X15465D02*
D03*
X15925Y69760D02*
D03*
X16515D02*
D03*
X9795Y74250D02*
D03*
X9205D02*
D03*
X3085Y71920D02*
D03*
X3675D02*
D03*
X3675Y72400D02*
D03*
X3085D02*
D03*
X4385Y72390D02*
D03*
X4975D02*
D03*
X6665Y72560D02*
D03*
X6075D02*
D03*
X6665Y73040D02*
D03*
X6075D02*
D03*
X6665Y73820D02*
D03*
X6075D02*
D03*
X6665Y74300D02*
D03*
X6075D02*
D03*
X6665Y74780D02*
D03*
X6075D02*
D03*
X6665Y75280D02*
D03*
X6075D02*
D03*
X4375Y76980D02*
D03*
X4965D02*
D03*
Y77480D02*
D03*
X4375D02*
D03*
X3125Y76980D02*
D03*
X3715D02*
D03*
Y77480D02*
D03*
X3125D02*
D03*
X2365Y72670D02*
D03*
X1775D02*
D03*
X2345Y73150D02*
D03*
X1755D02*
D03*
X2325Y73850D02*
D03*
X1735D02*
D03*
X2325Y74330D02*
D03*
X1735D02*
D03*
X2315Y74930D02*
D03*
X1725D02*
D03*
X2315Y75410D02*
D03*
X1725D02*
D03*
X2355Y76380D02*
D03*
X1765D02*
D03*
X2365Y76880D02*
D03*
X1775D02*
D03*
X4975Y71910D02*
D03*
X4385D02*
D03*
X6665Y76190D02*
D03*
X6075D02*
D03*
X6665Y76690D02*
D03*
X6075D02*
D03*
X5395Y83960D02*
D03*
X4805D02*
D03*
X6055D02*
D03*
X6645D02*
D03*
X6605Y80010D02*
D03*
X7195D02*
D03*
X5805Y80020D02*
D03*
X5215D02*
D03*
X10635Y83890D02*
D03*
X10045D02*
D03*
X11415Y57390D02*
D03*
X10825D02*
D03*
X5695Y59210D02*
D03*
X5105D02*
D03*
X10105Y58760D02*
D03*
X9515D02*
D03*
X14365Y60910D02*
D03*
X13775D02*
D03*
X15725Y59730D02*
D03*
X16315D02*
D03*
X15715Y58600D02*
D03*
X16305D02*
D03*
X15725Y57610D02*
D03*
X16315D02*
D03*
X7975Y51280D02*
D03*
X7385D02*
D03*
X3195Y47920D02*
D03*
X3785D02*
D03*
X5055D02*
D03*
X4465D02*
D03*
X15225Y49980D02*
D03*
X15815D02*
D03*
X17665Y46290D02*
D03*
X18255D02*
D03*
X12875Y60920D02*
D03*
X12285D02*
D03*
X9205Y54580D02*
D03*
X9795D02*
D03*
X2015Y47950D02*
D03*
X1425D02*
D03*
X7405Y52540D02*
D03*
X7995D02*
D03*
X67355Y4180D02*
D03*
X67945D02*
D03*
X66845D02*
D03*
X66255D02*
D03*
X66245Y230D02*
D03*
X65655D02*
D03*
X67295D02*
D03*
X66705D02*
D03*
X68395D02*
D03*
X67805D02*
D03*
X67355Y10580D02*
D03*
X67945D02*
D03*
X66845D02*
D03*
X66255D02*
D03*
X66245Y6630D02*
D03*
X65655D02*
D03*
X67295D02*
D03*
X66705D02*
D03*
X68395D02*
D03*
X67805D02*
D03*
X67355Y16980D02*
D03*
X67945D02*
D03*
X66845D02*
D03*
X66255D02*
D03*
X66245Y13030D02*
D03*
X65655D02*
D03*
X67295D02*
D03*
X66705D02*
D03*
X68395D02*
D03*
X67805D02*
D03*
X67355Y23330D02*
D03*
X67945D02*
D03*
X66845D02*
D03*
X66255D02*
D03*
X66245Y19380D02*
D03*
X65655D02*
D03*
X67295D02*
D03*
X66705D02*
D03*
X68395D02*
D03*
X67805D02*
D03*
X32915Y57390D02*
D03*
X32325D02*
D03*
X27195Y59210D02*
D03*
X26605D02*
D03*
X31605Y58760D02*
D03*
X31015D02*
D03*
X35865Y60910D02*
D03*
X35275D02*
D03*
X37225Y59730D02*
D03*
X37815D02*
D03*
X37215Y58600D02*
D03*
X37805D02*
D03*
X37225Y57610D02*
D03*
X37815D02*
D03*
X29475Y51280D02*
D03*
X28885D02*
D03*
X24695Y47920D02*
D03*
X25285D02*
D03*
X26555D02*
D03*
X25965D02*
D03*
X36725Y49980D02*
D03*
X37315D02*
D03*
X39165Y46290D02*
D03*
X39755D02*
D03*
X34375Y60920D02*
D03*
X33785D02*
D03*
X30705Y54580D02*
D03*
X31295D02*
D03*
X23515Y47950D02*
D03*
X22925D02*
D03*
X28905Y52540D02*
D03*
X29495D02*
D03*
X28405Y66320D02*
D03*
X28995D02*
D03*
X31815Y81370D02*
D03*
X32405D02*
D03*
X30935Y78480D02*
D03*
X31525D02*
D03*
X30935Y78970D02*
D03*
X31525D02*
D03*
X31235Y76630D02*
D03*
X31825D02*
D03*
X31235Y76140D02*
D03*
X31825D02*
D03*
X35245Y74210D02*
D03*
X34655D02*
D03*
X28315Y77580D02*
D03*
X27725D02*
D03*
X25455Y68470D02*
D03*
X26045D02*
D03*
X24455D02*
D03*
X23865D02*
D03*
X38545Y68460D02*
D03*
X39135D02*
D03*
X37555D02*
D03*
X36965D02*
D03*
X37425Y69760D02*
D03*
X38015D02*
D03*
X31295Y74250D02*
D03*
X30705D02*
D03*
X24585Y71920D02*
D03*
X25175D02*
D03*
X25175Y72400D02*
D03*
X24585D02*
D03*
X25885Y72390D02*
D03*
X26475D02*
D03*
X28165Y72560D02*
D03*
X27575D02*
D03*
X28165Y73040D02*
D03*
X27575D02*
D03*
X28165Y73820D02*
D03*
X27575D02*
D03*
X28165Y74300D02*
D03*
X27575D02*
D03*
X28165Y74780D02*
D03*
X27575D02*
D03*
X28165Y75280D02*
D03*
X27575D02*
D03*
X25875Y76980D02*
D03*
X26465D02*
D03*
Y77480D02*
D03*
X25875D02*
D03*
X24625Y76980D02*
D03*
X25215D02*
D03*
Y77480D02*
D03*
X24625D02*
D03*
X23865Y72670D02*
D03*
X23275D02*
D03*
X23845Y73150D02*
D03*
X23255D02*
D03*
X23825Y73850D02*
D03*
X23235D02*
D03*
X23825Y74330D02*
D03*
X23235D02*
D03*
X23815Y74930D02*
D03*
X23225D02*
D03*
X23815Y75410D02*
D03*
X23225D02*
D03*
X23855Y76380D02*
D03*
X23265D02*
D03*
X23865Y76880D02*
D03*
X23275D02*
D03*
X26475Y71910D02*
D03*
X25885D02*
D03*
X28165Y76190D02*
D03*
X27575D02*
D03*
X28165Y76690D02*
D03*
X27575D02*
D03*
X26895Y83960D02*
D03*
X26305D02*
D03*
X27555D02*
D03*
X28145D02*
D03*
X28105Y80010D02*
D03*
X28695D02*
D03*
X27305Y80020D02*
D03*
X26715D02*
D03*
X32135Y83890D02*
D03*
X31545D02*
D03*
X49905Y66320D02*
D03*
X50495D02*
D03*
X53315Y81370D02*
D03*
X53905D02*
D03*
X52435Y78480D02*
D03*
X53025D02*
D03*
X52435Y78970D02*
D03*
X53025D02*
D03*
X52735Y76630D02*
D03*
X53325D02*
D03*
X52735Y76140D02*
D03*
X53325D02*
D03*
X56745Y74210D02*
D03*
X56155D02*
D03*
X49815Y77580D02*
D03*
X49225D02*
D03*
X46955Y68470D02*
D03*
X47545D02*
D03*
X45955D02*
D03*
X45365D02*
D03*
X60045Y68460D02*
D03*
X60635D02*
D03*
X59055D02*
D03*
X58465D02*
D03*
X58925Y69760D02*
D03*
X59515D02*
D03*
X52795Y74250D02*
D03*
X52205D02*
D03*
X46085Y71920D02*
D03*
X46675D02*
D03*
X46675Y72400D02*
D03*
X46085D02*
D03*
X47385Y72390D02*
D03*
X47975D02*
D03*
X49665Y72560D02*
D03*
X49075D02*
D03*
X49665Y73040D02*
D03*
X49075D02*
D03*
X49665Y73820D02*
D03*
X49075D02*
D03*
X49665Y74300D02*
D03*
X49075D02*
D03*
X49665Y74780D02*
D03*
X49075D02*
D03*
X49665Y75280D02*
D03*
X49075D02*
D03*
X47375Y76980D02*
D03*
X47965D02*
D03*
Y77480D02*
D03*
X47375D02*
D03*
X46125Y76980D02*
D03*
X46715D02*
D03*
Y77480D02*
D03*
X46125D02*
D03*
X45365Y72670D02*
D03*
X44775D02*
D03*
X45345Y73150D02*
D03*
X44755D02*
D03*
X45325Y73850D02*
D03*
X44735D02*
D03*
X45325Y74330D02*
D03*
X44735D02*
D03*
X45315Y74930D02*
D03*
X44725D02*
D03*
X45315Y75410D02*
D03*
X44725D02*
D03*
X45355Y76380D02*
D03*
X44765D02*
D03*
X45365Y76880D02*
D03*
X44775D02*
D03*
X47975Y71910D02*
D03*
X47385D02*
D03*
X49665Y76190D02*
D03*
X49075D02*
D03*
X49665Y76690D02*
D03*
X49075D02*
D03*
X48395Y83960D02*
D03*
X47805D02*
D03*
X49055D02*
D03*
X49645D02*
D03*
X49605Y80010D02*
D03*
X50195D02*
D03*
X48805Y80020D02*
D03*
X48215D02*
D03*
X53635Y83890D02*
D03*
X53045D02*
D03*
X54415Y57390D02*
D03*
X53825D02*
D03*
X48695Y59210D02*
D03*
X48105D02*
D03*
X53105Y58760D02*
D03*
X52515D02*
D03*
X57365Y60910D02*
D03*
X56775D02*
D03*
X58725Y59730D02*
D03*
X59315D02*
D03*
X58715Y58600D02*
D03*
X59305D02*
D03*
X58725Y57610D02*
D03*
X59315D02*
D03*
X50975Y51280D02*
D03*
X50385D02*
D03*
X46195Y47920D02*
D03*
X46785D02*
D03*
X48055D02*
D03*
X47465D02*
D03*
X58225Y49980D02*
D03*
X58815D02*
D03*
X60665Y46290D02*
D03*
X61255D02*
D03*
X55875Y60920D02*
D03*
X55285D02*
D03*
X52205Y54580D02*
D03*
X52795D02*
D03*
X45015Y47950D02*
D03*
X44425D02*
D03*
X50405Y52540D02*
D03*
X50995D02*
D03*
X67355Y48930D02*
D03*
X67945D02*
D03*
X66845D02*
D03*
X66255D02*
D03*
X66245Y44980D02*
D03*
X65655D02*
D03*
X67295D02*
D03*
X66705D02*
D03*
X68395D02*
D03*
X67805D02*
D03*
X67355Y42580D02*
D03*
X67945D02*
D03*
X66845D02*
D03*
X66255D02*
D03*
X66245Y38630D02*
D03*
X65655D02*
D03*
X67295D02*
D03*
X66705D02*
D03*
X68395D02*
D03*
X67805D02*
D03*
X67355Y36180D02*
D03*
X67945D02*
D03*
X66845D02*
D03*
X66255D02*
D03*
X66245Y32230D02*
D03*
X65655D02*
D03*
X67295D02*
D03*
X66705D02*
D03*
X68395D02*
D03*
X67805D02*
D03*
X67355Y29780D02*
D03*
X67945D02*
D03*
X66845D02*
D03*
X66255D02*
D03*
X66245Y25830D02*
D03*
X65655D02*
D03*
X67295D02*
D03*
X66705D02*
D03*
X68395D02*
D03*
X67805D02*
D03*
X67355Y74480D02*
D03*
X67945D02*
D03*
X66845D02*
D03*
X66255D02*
D03*
X66245Y70530D02*
D03*
X65655D02*
D03*
X67295D02*
D03*
X66705D02*
D03*
X68395D02*
D03*
X67805D02*
D03*
X67355Y68130D02*
D03*
X67945D02*
D03*
X66845D02*
D03*
X66255D02*
D03*
X66245Y64180D02*
D03*
X65655D02*
D03*
X67295D02*
D03*
X66705D02*
D03*
X68395D02*
D03*
X67805D02*
D03*
X67355Y61730D02*
D03*
X67945D02*
D03*
X66845D02*
D03*
X66255D02*
D03*
X66245Y57780D02*
D03*
X65655D02*
D03*
X67295D02*
D03*
X66705D02*
D03*
X68395D02*
D03*
X67805D02*
D03*
X67355Y55330D02*
D03*
X67945D02*
D03*
X66845D02*
D03*
X66255D02*
D03*
X66245Y51380D02*
D03*
X65655D02*
D03*
X67295D02*
D03*
X66705D02*
D03*
X68395D02*
D03*
X67805D02*
D03*
D69*
X15310Y48331D02*
D03*
Y47149D02*
D03*
X36810Y48331D02*
D03*
Y47149D02*
D03*
X58310Y48331D02*
D03*
Y47149D02*
D03*
D134*
X435Y7715D02*
D03*
Y5415D02*
D03*
Y3015D02*
D03*
X19565Y2985D02*
D03*
Y5385D02*
D03*
Y7685D02*
D03*
Y12385D02*
D03*
Y14685D02*
D03*
Y16985D02*
D03*
X435Y17015D02*
D03*
Y14715D02*
D03*
Y12315D02*
D03*
X21935Y7715D02*
D03*
Y5415D02*
D03*
Y3015D02*
D03*
X41065Y2985D02*
D03*
Y5385D02*
D03*
Y7685D02*
D03*
Y12385D02*
D03*
Y14685D02*
D03*
Y16985D02*
D03*
X21935Y17015D02*
D03*
Y14715D02*
D03*
Y12315D02*
D03*
X43435Y7715D02*
D03*
Y5415D02*
D03*
Y3015D02*
D03*
X62565Y2985D02*
D03*
Y5385D02*
D03*
Y7685D02*
D03*
Y12385D02*
D03*
Y14685D02*
D03*
Y16985D02*
D03*
X43435Y17015D02*
D03*
Y14715D02*
D03*
Y12315D02*
D03*
D135*
X19350Y9350D02*
D03*
Y10450D02*
D03*
X650D02*
D03*
Y9350D02*
D03*
X40850D02*
D03*
Y10450D02*
D03*
X22150D02*
D03*
Y9350D02*
D03*
X62350D02*
D03*
Y10450D02*
D03*
X43650D02*
D03*
Y9350D02*
D03*
D136*
X10000Y10000D02*
D03*
X31500D02*
D03*
X53000D02*
D03*
D137*
X10244Y12332D02*
D03*
X10383Y12192D02*
D03*
X10522Y12053D02*
D03*
X10661Y11914D02*
D03*
X10800Y11775D02*
D03*
X10940Y11636D02*
D03*
X11079Y11496D02*
D03*
X11218Y11357D02*
D03*
X11357Y11218D02*
D03*
X11496Y11079D02*
D03*
X11636Y10940D02*
D03*
X11775Y10800D02*
D03*
X11914Y10661D02*
D03*
X12053Y10522D02*
D03*
X12192Y10383D02*
D03*
X12332Y10244D02*
D03*
X9756Y7668D02*
D03*
X9617Y7808D02*
D03*
X9478Y7947D02*
D03*
X9339Y8086D02*
D03*
X9200Y8225D02*
D03*
X9060Y8364D02*
D03*
X8921Y8504D02*
D03*
X8782Y8643D02*
D03*
X8643Y8782D02*
D03*
X8504Y8921D02*
D03*
X8364Y9060D02*
D03*
X8225Y9200D02*
D03*
X8086Y9339D02*
D03*
X7947Y9478D02*
D03*
X7808Y9617D02*
D03*
X7668Y9756D02*
D03*
X31744Y12332D02*
D03*
X31883Y12192D02*
D03*
X32022Y12053D02*
D03*
X32161Y11914D02*
D03*
X32300Y11775D02*
D03*
X32440Y11636D02*
D03*
X32579Y11496D02*
D03*
X32718Y11357D02*
D03*
X32857Y11218D02*
D03*
X32996Y11079D02*
D03*
X33136Y10940D02*
D03*
X33275Y10800D02*
D03*
X33414Y10661D02*
D03*
X33553Y10522D02*
D03*
X33692Y10383D02*
D03*
X33832Y10244D02*
D03*
X31256Y7668D02*
D03*
X31117Y7808D02*
D03*
X30978Y7947D02*
D03*
X30839Y8086D02*
D03*
X30700Y8225D02*
D03*
X30560Y8364D02*
D03*
X30421Y8504D02*
D03*
X30282Y8643D02*
D03*
X30143Y8782D02*
D03*
X30004Y8921D02*
D03*
X29864Y9060D02*
D03*
X29725Y9200D02*
D03*
X29586Y9339D02*
D03*
X29447Y9478D02*
D03*
X29308Y9617D02*
D03*
X29169Y9756D02*
D03*
X53244Y12332D02*
D03*
X53383Y12192D02*
D03*
X53522Y12053D02*
D03*
X53661Y11914D02*
D03*
X53800Y11775D02*
D03*
X53940Y11636D02*
D03*
X54079Y11496D02*
D03*
X54218Y11357D02*
D03*
X54357Y11218D02*
D03*
X54496Y11079D02*
D03*
X54636Y10940D02*
D03*
X54775Y10800D02*
D03*
X54914Y10661D02*
D03*
X55053Y10522D02*
D03*
X55192Y10383D02*
D03*
X55332Y10244D02*
D03*
X52756Y7668D02*
D03*
X52617Y7808D02*
D03*
X52478Y7947D02*
D03*
X52339Y8086D02*
D03*
X52200Y8225D02*
D03*
X52060Y8364D02*
D03*
X51921Y8504D02*
D03*
X51782Y8643D02*
D03*
X51643Y8782D02*
D03*
X51504Y8921D02*
D03*
X51364Y9060D02*
D03*
X51225Y9200D02*
D03*
X51086Y9339D02*
D03*
X50947Y9478D02*
D03*
X50808Y9617D02*
D03*
X50669Y9756D02*
D03*
D138*
X12332D02*
D03*
X12192Y9617D02*
D03*
X12053Y9478D02*
D03*
X11914Y9339D02*
D03*
X11775Y9200D02*
D03*
X11636Y9060D02*
D03*
X11496Y8921D02*
D03*
X11357Y8782D02*
D03*
X11218Y8643D02*
D03*
X11079Y8504D02*
D03*
X10940Y8364D02*
D03*
X10800Y8225D02*
D03*
X10661Y8086D02*
D03*
X10522Y7947D02*
D03*
X10383Y7808D02*
D03*
X10244Y7668D02*
D03*
X7668Y10244D02*
D03*
X7808Y10383D02*
D03*
X7947Y10522D02*
D03*
X8086Y10661D02*
D03*
X8225Y10800D02*
D03*
X8364Y10940D02*
D03*
X8504Y11079D02*
D03*
X8643Y11218D02*
D03*
X8782Y11357D02*
D03*
X8921Y11496D02*
D03*
X9060Y11636D02*
D03*
X9200Y11775D02*
D03*
X9339Y11914D02*
D03*
X9478Y12053D02*
D03*
X9617Y12192D02*
D03*
X9756Y12332D02*
D03*
X33832Y9756D02*
D03*
X33692Y9617D02*
D03*
X33553Y9478D02*
D03*
X33414Y9339D02*
D03*
X33275Y9200D02*
D03*
X33136Y9060D02*
D03*
X32996Y8921D02*
D03*
X32857Y8782D02*
D03*
X32718Y8643D02*
D03*
X32579Y8504D02*
D03*
X32440Y8364D02*
D03*
X32300Y8225D02*
D03*
X32161Y8086D02*
D03*
X32022Y7947D02*
D03*
X31883Y7808D02*
D03*
X31744Y7668D02*
D03*
X29169Y10244D02*
D03*
X29308Y10383D02*
D03*
X29447Y10522D02*
D03*
X29586Y10661D02*
D03*
X29725Y10800D02*
D03*
X29864Y10940D02*
D03*
X30004Y11079D02*
D03*
X30143Y11218D02*
D03*
X30282Y11357D02*
D03*
X30421Y11496D02*
D03*
X30560Y11636D02*
D03*
X30700Y11775D02*
D03*
X30839Y11914D02*
D03*
X30978Y12053D02*
D03*
X31117Y12192D02*
D03*
X31256Y12332D02*
D03*
X55332Y9756D02*
D03*
X55192Y9617D02*
D03*
X55053Y9478D02*
D03*
X54914Y9339D02*
D03*
X54775Y9200D02*
D03*
X54636Y9060D02*
D03*
X54496Y8921D02*
D03*
X54357Y8782D02*
D03*
X54218Y8643D02*
D03*
X54079Y8504D02*
D03*
X53940Y8364D02*
D03*
X53800Y8225D02*
D03*
X53661Y8086D02*
D03*
X53522Y7947D02*
D03*
X53383Y7808D02*
D03*
X53244Y7668D02*
D03*
X50669Y10244D02*
D03*
X50808Y10383D02*
D03*
X50947Y10522D02*
D03*
X51086Y10661D02*
D03*
X51225Y10800D02*
D03*
X51364Y10940D02*
D03*
X51504Y11079D02*
D03*
X51643Y11218D02*
D03*
X51782Y11357D02*
D03*
X51921Y11496D02*
D03*
X52060Y11636D02*
D03*
X52200Y11775D02*
D03*
X52339Y11914D02*
D03*
X52478Y12053D02*
D03*
X52617Y12192D02*
D03*
X52756Y12332D02*
D03*
D139*
X18773Y6940D02*
D03*
Y7440D02*
D03*
Y7940D02*
D03*
Y8440D02*
D03*
X16647Y6940D02*
D03*
Y7440D02*
D03*
Y7940D02*
D03*
Y8440D02*
D03*
X18773Y4640D02*
D03*
Y5140D02*
D03*
Y5640D02*
D03*
Y6140D02*
D03*
X16647Y4640D02*
D03*
Y5140D02*
D03*
Y5640D02*
D03*
Y6140D02*
D03*
X18773Y2290D02*
D03*
Y2790D02*
D03*
Y3290D02*
D03*
Y3790D02*
D03*
X16647Y2290D02*
D03*
Y2790D02*
D03*
Y3290D02*
D03*
Y3790D02*
D03*
X3343Y6910D02*
D03*
Y7410D02*
D03*
Y7910D02*
D03*
Y8410D02*
D03*
X1217Y6910D02*
D03*
Y7410D02*
D03*
Y7910D02*
D03*
Y8410D02*
D03*
X3353Y16270D02*
D03*
Y16770D02*
D03*
Y17270D02*
D03*
Y17770D02*
D03*
X1227Y16270D02*
D03*
Y16770D02*
D03*
Y17270D02*
D03*
Y17770D02*
D03*
X3343Y4610D02*
D03*
Y5110D02*
D03*
Y5610D02*
D03*
Y6110D02*
D03*
X1217Y4610D02*
D03*
Y5110D02*
D03*
Y5610D02*
D03*
Y6110D02*
D03*
X3353Y13970D02*
D03*
Y14470D02*
D03*
Y14970D02*
D03*
Y15470D02*
D03*
X1227Y13970D02*
D03*
Y14470D02*
D03*
Y14970D02*
D03*
Y15470D02*
D03*
X3343Y2260D02*
D03*
Y2760D02*
D03*
Y3260D02*
D03*
Y3760D02*
D03*
X1217Y2260D02*
D03*
Y2760D02*
D03*
Y3260D02*
D03*
Y3760D02*
D03*
X3353Y11620D02*
D03*
Y12120D02*
D03*
Y12620D02*
D03*
Y13120D02*
D03*
X1227Y11620D02*
D03*
Y12120D02*
D03*
Y12620D02*
D03*
Y13120D02*
D03*
X18773Y16280D02*
D03*
Y16780D02*
D03*
Y17280D02*
D03*
Y17780D02*
D03*
X16647Y16280D02*
D03*
Y16780D02*
D03*
Y17280D02*
D03*
Y17780D02*
D03*
X18773Y13980D02*
D03*
Y14480D02*
D03*
Y14980D02*
D03*
Y15480D02*
D03*
X16647Y13980D02*
D03*
Y14480D02*
D03*
Y14980D02*
D03*
Y15480D02*
D03*
X18773Y11630D02*
D03*
Y12130D02*
D03*
Y12630D02*
D03*
Y13130D02*
D03*
X16647Y11630D02*
D03*
Y12130D02*
D03*
Y12630D02*
D03*
Y13130D02*
D03*
X40273Y6940D02*
D03*
Y7440D02*
D03*
Y7940D02*
D03*
Y8440D02*
D03*
X38147Y6940D02*
D03*
Y7440D02*
D03*
Y7940D02*
D03*
Y8440D02*
D03*
X40273Y4640D02*
D03*
Y5140D02*
D03*
Y5640D02*
D03*
Y6140D02*
D03*
X38147Y4640D02*
D03*
Y5140D02*
D03*
Y5640D02*
D03*
Y6140D02*
D03*
X40273Y2290D02*
D03*
Y2790D02*
D03*
Y3290D02*
D03*
Y3790D02*
D03*
X38147Y2290D02*
D03*
Y2790D02*
D03*
Y3290D02*
D03*
Y3790D02*
D03*
X24843Y6910D02*
D03*
Y7410D02*
D03*
Y7910D02*
D03*
Y8410D02*
D03*
X22717Y6910D02*
D03*
Y7410D02*
D03*
Y7910D02*
D03*
Y8410D02*
D03*
X24853Y16270D02*
D03*
Y16770D02*
D03*
Y17270D02*
D03*
Y17770D02*
D03*
X22727Y16270D02*
D03*
Y16770D02*
D03*
Y17270D02*
D03*
Y17770D02*
D03*
X24843Y4610D02*
D03*
Y5110D02*
D03*
Y5610D02*
D03*
Y6110D02*
D03*
X22717Y4610D02*
D03*
Y5110D02*
D03*
Y5610D02*
D03*
Y6110D02*
D03*
X24853Y13970D02*
D03*
Y14470D02*
D03*
Y14970D02*
D03*
Y15470D02*
D03*
X22727Y13970D02*
D03*
Y14470D02*
D03*
Y14970D02*
D03*
Y15470D02*
D03*
X24843Y2260D02*
D03*
Y2760D02*
D03*
Y3260D02*
D03*
Y3760D02*
D03*
X22717Y2260D02*
D03*
Y2760D02*
D03*
Y3260D02*
D03*
Y3760D02*
D03*
X24853Y11620D02*
D03*
Y12120D02*
D03*
Y12620D02*
D03*
Y13120D02*
D03*
X22727Y11620D02*
D03*
Y12120D02*
D03*
Y12620D02*
D03*
Y13120D02*
D03*
X40273Y16280D02*
D03*
Y16780D02*
D03*
Y17280D02*
D03*
Y17780D02*
D03*
X38147Y16280D02*
D03*
Y16780D02*
D03*
Y17280D02*
D03*
Y17780D02*
D03*
X40273Y13980D02*
D03*
Y14480D02*
D03*
Y14980D02*
D03*
Y15480D02*
D03*
X38147Y13980D02*
D03*
Y14480D02*
D03*
Y14980D02*
D03*
Y15480D02*
D03*
X40273Y11630D02*
D03*
Y12130D02*
D03*
Y12630D02*
D03*
Y13130D02*
D03*
X38147Y11630D02*
D03*
Y12130D02*
D03*
Y12630D02*
D03*
Y13130D02*
D03*
X61773Y6940D02*
D03*
Y7440D02*
D03*
Y7940D02*
D03*
Y8440D02*
D03*
X59647Y6940D02*
D03*
Y7440D02*
D03*
Y7940D02*
D03*
Y8440D02*
D03*
X61773Y4640D02*
D03*
Y5140D02*
D03*
Y5640D02*
D03*
Y6140D02*
D03*
X59647Y4640D02*
D03*
Y5140D02*
D03*
Y5640D02*
D03*
Y6140D02*
D03*
X61773Y2290D02*
D03*
Y2790D02*
D03*
Y3290D02*
D03*
Y3790D02*
D03*
X59647Y2290D02*
D03*
Y2790D02*
D03*
Y3290D02*
D03*
Y3790D02*
D03*
X46343Y6910D02*
D03*
Y7410D02*
D03*
Y7910D02*
D03*
Y8410D02*
D03*
X44217Y6910D02*
D03*
Y7410D02*
D03*
Y7910D02*
D03*
Y8410D02*
D03*
X46353Y16270D02*
D03*
Y16770D02*
D03*
Y17270D02*
D03*
Y17770D02*
D03*
X44227Y16270D02*
D03*
Y16770D02*
D03*
Y17270D02*
D03*
Y17770D02*
D03*
X46343Y4610D02*
D03*
Y5110D02*
D03*
Y5610D02*
D03*
Y6110D02*
D03*
X44217Y4610D02*
D03*
Y5110D02*
D03*
Y5610D02*
D03*
Y6110D02*
D03*
X46353Y13970D02*
D03*
Y14470D02*
D03*
Y14970D02*
D03*
Y15470D02*
D03*
X44227Y13970D02*
D03*
Y14470D02*
D03*
Y14970D02*
D03*
Y15470D02*
D03*
X46343Y2260D02*
D03*
Y2760D02*
D03*
Y3260D02*
D03*
Y3760D02*
D03*
X44217Y2260D02*
D03*
Y2760D02*
D03*
Y3260D02*
D03*
Y3760D02*
D03*
X46353Y11620D02*
D03*
Y12120D02*
D03*
Y12620D02*
D03*
Y13120D02*
D03*
X44227Y11620D02*
D03*
Y12120D02*
D03*
Y12620D02*
D03*
Y13120D02*
D03*
X61773Y16280D02*
D03*
Y16780D02*
D03*
Y17280D02*
D03*
Y17780D02*
D03*
X59647Y16280D02*
D03*
Y16780D02*
D03*
Y17280D02*
D03*
Y17780D02*
D03*
X61773Y13980D02*
D03*
Y14480D02*
D03*
Y14980D02*
D03*
Y15480D02*
D03*
X59647Y13980D02*
D03*
Y14480D02*
D03*
Y14980D02*
D03*
Y15480D02*
D03*
X61773Y11630D02*
D03*
Y12130D02*
D03*
Y12630D02*
D03*
Y13130D02*
D03*
X59647Y11630D02*
D03*
Y12130D02*
D03*
Y12630D02*
D03*
Y13130D02*
D03*
D140*
X13565Y8440D02*
D03*
Y7940D02*
D03*
Y7440D02*
D03*
Y6940D02*
D03*
X15455Y8440D02*
D03*
Y7940D02*
D03*
Y7440D02*
D03*
Y6940D02*
D03*
X13565Y6140D02*
D03*
Y5640D02*
D03*
Y5140D02*
D03*
Y4640D02*
D03*
X15455Y6140D02*
D03*
Y5640D02*
D03*
Y5140D02*
D03*
Y4640D02*
D03*
X13565Y3790D02*
D03*
Y3290D02*
D03*
Y2790D02*
D03*
Y2290D02*
D03*
X15455Y3790D02*
D03*
Y3290D02*
D03*
Y2790D02*
D03*
Y2290D02*
D03*
X13565Y17780D02*
D03*
Y17280D02*
D03*
Y16780D02*
D03*
Y16280D02*
D03*
X15455Y17780D02*
D03*
Y17280D02*
D03*
Y16780D02*
D03*
Y16280D02*
D03*
X13565Y15480D02*
D03*
Y14980D02*
D03*
Y14480D02*
D03*
Y13980D02*
D03*
X15455Y15480D02*
D03*
Y14980D02*
D03*
Y14480D02*
D03*
Y13980D02*
D03*
X13565Y13130D02*
D03*
Y12630D02*
D03*
Y12130D02*
D03*
Y11630D02*
D03*
X15455Y13130D02*
D03*
Y12630D02*
D03*
Y12130D02*
D03*
Y11630D02*
D03*
X6575Y60720D02*
D03*
Y60220D02*
D03*
Y59720D02*
D03*
Y59220D02*
D03*
Y58720D02*
D03*
Y58220D02*
D03*
Y57720D02*
D03*
X8465Y60720D02*
D03*
Y60220D02*
D03*
Y59720D02*
D03*
Y59220D02*
D03*
Y58720D02*
D03*
Y58220D02*
D03*
Y57720D02*
D03*
X28075Y60720D02*
D03*
Y60220D02*
D03*
Y59720D02*
D03*
Y59220D02*
D03*
Y58720D02*
D03*
Y58220D02*
D03*
Y57720D02*
D03*
X29965Y60720D02*
D03*
Y60220D02*
D03*
Y59720D02*
D03*
Y59220D02*
D03*
Y58720D02*
D03*
Y58220D02*
D03*
Y57720D02*
D03*
X35065Y8440D02*
D03*
Y7940D02*
D03*
Y7440D02*
D03*
Y6940D02*
D03*
X36955Y8440D02*
D03*
Y7940D02*
D03*
Y7440D02*
D03*
Y6940D02*
D03*
X35065Y6140D02*
D03*
Y5640D02*
D03*
Y5140D02*
D03*
Y4640D02*
D03*
X36955Y6140D02*
D03*
Y5640D02*
D03*
Y5140D02*
D03*
Y4640D02*
D03*
X35065Y3790D02*
D03*
Y3290D02*
D03*
Y2790D02*
D03*
Y2290D02*
D03*
X36955Y3790D02*
D03*
Y3290D02*
D03*
Y2790D02*
D03*
Y2290D02*
D03*
X35065Y17780D02*
D03*
Y17280D02*
D03*
Y16780D02*
D03*
Y16280D02*
D03*
X36955Y17780D02*
D03*
Y17280D02*
D03*
Y16780D02*
D03*
Y16280D02*
D03*
X35065Y15480D02*
D03*
Y14980D02*
D03*
Y14480D02*
D03*
Y13980D02*
D03*
X36955Y15480D02*
D03*
Y14980D02*
D03*
Y14480D02*
D03*
Y13980D02*
D03*
X35065Y13130D02*
D03*
Y12630D02*
D03*
Y12130D02*
D03*
Y11630D02*
D03*
X36955Y13130D02*
D03*
Y12630D02*
D03*
Y12130D02*
D03*
Y11630D02*
D03*
X56565Y8440D02*
D03*
Y7940D02*
D03*
Y7440D02*
D03*
Y6940D02*
D03*
X58455Y8440D02*
D03*
Y7940D02*
D03*
Y7440D02*
D03*
Y6940D02*
D03*
X56565Y6140D02*
D03*
Y5640D02*
D03*
Y5140D02*
D03*
Y4640D02*
D03*
X58455Y6140D02*
D03*
Y5640D02*
D03*
Y5140D02*
D03*
Y4640D02*
D03*
X56565Y3790D02*
D03*
Y3290D02*
D03*
Y2790D02*
D03*
Y2290D02*
D03*
X58455Y3790D02*
D03*
Y3290D02*
D03*
Y2790D02*
D03*
Y2290D02*
D03*
X56565Y17780D02*
D03*
Y17280D02*
D03*
Y16780D02*
D03*
Y16280D02*
D03*
X58455Y17780D02*
D03*
Y17280D02*
D03*
Y16780D02*
D03*
Y16280D02*
D03*
X56565Y15480D02*
D03*
Y14980D02*
D03*
Y14480D02*
D03*
Y13980D02*
D03*
X58455Y15480D02*
D03*
Y14980D02*
D03*
Y14480D02*
D03*
Y13980D02*
D03*
X56565Y13130D02*
D03*
Y12630D02*
D03*
Y12130D02*
D03*
Y11630D02*
D03*
X58455Y13130D02*
D03*
Y12630D02*
D03*
Y12130D02*
D03*
Y11630D02*
D03*
X49575Y60720D02*
D03*
Y60220D02*
D03*
Y59720D02*
D03*
Y59220D02*
D03*
Y58720D02*
D03*
Y58220D02*
D03*
Y57720D02*
D03*
X51465Y60720D02*
D03*
Y60220D02*
D03*
Y59720D02*
D03*
Y59220D02*
D03*
Y58720D02*
D03*
Y58220D02*
D03*
Y57720D02*
D03*
D141*
X5508Y8360D02*
D03*
X6492D02*
D03*
X5598Y17720D02*
D03*
X6582D02*
D03*
X5538Y6110D02*
D03*
X6522D02*
D03*
X5628Y15470D02*
D03*
X6612D02*
D03*
X5528Y3770D02*
D03*
X6512D02*
D03*
X5618Y13130D02*
D03*
X6602D02*
D03*
X27008Y8360D02*
D03*
X27992D02*
D03*
X27098Y17720D02*
D03*
X28082D02*
D03*
X27038Y6110D02*
D03*
X28022D02*
D03*
X27128Y15470D02*
D03*
X28112D02*
D03*
X27028Y3770D02*
D03*
X28012D02*
D03*
X27118Y13130D02*
D03*
X28102D02*
D03*
X48508Y8360D02*
D03*
X49492D02*
D03*
X48598Y17720D02*
D03*
X49582D02*
D03*
X48538Y6110D02*
D03*
X49522D02*
D03*
X48628Y15470D02*
D03*
X49612D02*
D03*
X48528Y3770D02*
D03*
X49512D02*
D03*
X48618Y13130D02*
D03*
X49602D02*
D03*
D142*
X5751Y9730D02*
D03*
X3389D02*
D03*
X6161Y890D02*
D03*
X3799D02*
D03*
X16411Y9980D02*
D03*
X14049D02*
D03*
X17251Y19150D02*
D03*
X14889D02*
D03*
X27251Y9730D02*
D03*
X24889D02*
D03*
X27661Y890D02*
D03*
X25299D02*
D03*
X37911Y9980D02*
D03*
X35549D02*
D03*
X38751Y19150D02*
D03*
X36389D02*
D03*
X48751Y9730D02*
D03*
X46389D02*
D03*
X49161Y890D02*
D03*
X46799D02*
D03*
X59411Y9980D02*
D03*
X57049D02*
D03*
X60251Y19150D02*
D03*
X57889D02*
D03*
D143*
X8250Y633D02*
D03*
X8750D02*
D03*
X9250D02*
D03*
X9750D02*
D03*
X10250D02*
D03*
X10750D02*
D03*
X11250D02*
D03*
X11750D02*
D03*
Y2307D02*
D03*
X11250D02*
D03*
X10750D02*
D03*
X10250D02*
D03*
X9750D02*
D03*
X9250D02*
D03*
X8750D02*
D03*
X8250D02*
D03*
Y22133D02*
D03*
X8750D02*
D03*
X9250D02*
D03*
X9750D02*
D03*
X10250D02*
D03*
X10750D02*
D03*
X11250D02*
D03*
X11750D02*
D03*
Y23807D02*
D03*
X11250D02*
D03*
X10750D02*
D03*
X10250D02*
D03*
X9750D02*
D03*
X9250D02*
D03*
X8750D02*
D03*
X8250D02*
D03*
Y66807D02*
D03*
X8750D02*
D03*
X9250D02*
D03*
X9750D02*
D03*
X10250D02*
D03*
X10750D02*
D03*
X11250D02*
D03*
X11750D02*
D03*
Y65133D02*
D03*
X11250D02*
D03*
X10750D02*
D03*
X10250D02*
D03*
X9750D02*
D03*
X9250D02*
D03*
X8750D02*
D03*
X8250D02*
D03*
X12750Y43633D02*
D03*
X12250D02*
D03*
X11750D02*
D03*
X11250D02*
D03*
X10750D02*
D03*
X10250D02*
D03*
X9750D02*
D03*
X9250D02*
D03*
X8750D02*
D03*
X12750Y45307D02*
D03*
X12250D02*
D03*
X11750D02*
D03*
X11250D02*
D03*
X10750D02*
D03*
X10250D02*
D03*
X9750D02*
D03*
X9250D02*
D03*
X8750D02*
D03*
X8250D02*
D03*
Y43633D02*
D03*
X34250D02*
D03*
X33750D02*
D03*
X33250D02*
D03*
X32750D02*
D03*
X32250D02*
D03*
X31750D02*
D03*
X31250D02*
D03*
X30750D02*
D03*
X30250D02*
D03*
X34250Y45307D02*
D03*
X33750D02*
D03*
X33250D02*
D03*
X32750D02*
D03*
X32250D02*
D03*
X31750D02*
D03*
X31250D02*
D03*
X30750D02*
D03*
X30250D02*
D03*
X29750D02*
D03*
Y43633D02*
D03*
Y66807D02*
D03*
X30250D02*
D03*
X30750D02*
D03*
X31250D02*
D03*
X31750D02*
D03*
X32250D02*
D03*
X32750D02*
D03*
X33250D02*
D03*
Y65133D02*
D03*
X32750D02*
D03*
X32250D02*
D03*
X31750D02*
D03*
X31250D02*
D03*
X30750D02*
D03*
X30250D02*
D03*
X29750D02*
D03*
Y22133D02*
D03*
X30250D02*
D03*
X30750D02*
D03*
X31250D02*
D03*
X31750D02*
D03*
X32250D02*
D03*
X32750D02*
D03*
X33250D02*
D03*
Y23807D02*
D03*
X32750D02*
D03*
X32250D02*
D03*
X31750D02*
D03*
X31250D02*
D03*
X30750D02*
D03*
X30250D02*
D03*
X29750D02*
D03*
Y633D02*
D03*
X30250D02*
D03*
X30750D02*
D03*
X31250D02*
D03*
X31750D02*
D03*
X32250D02*
D03*
X32750D02*
D03*
X33250D02*
D03*
Y2307D02*
D03*
X32750D02*
D03*
X32250D02*
D03*
X31750D02*
D03*
X31250D02*
D03*
X30750D02*
D03*
X30250D02*
D03*
X29750D02*
D03*
X51250Y633D02*
D03*
X51750D02*
D03*
X52250D02*
D03*
X52750D02*
D03*
X53250D02*
D03*
X53750D02*
D03*
X54250D02*
D03*
X54750D02*
D03*
Y2307D02*
D03*
X54250D02*
D03*
X53750D02*
D03*
X53250D02*
D03*
X52750D02*
D03*
X52250D02*
D03*
X51750D02*
D03*
X51250D02*
D03*
Y22133D02*
D03*
X51750D02*
D03*
X52250D02*
D03*
X52750D02*
D03*
X53250D02*
D03*
X53750D02*
D03*
X54250D02*
D03*
X54750D02*
D03*
Y23807D02*
D03*
X54250D02*
D03*
X53750D02*
D03*
X53250D02*
D03*
X52750D02*
D03*
X52250D02*
D03*
X51750D02*
D03*
X51250D02*
D03*
Y66807D02*
D03*
X51750D02*
D03*
X52250D02*
D03*
X52750D02*
D03*
X53250D02*
D03*
X53750D02*
D03*
X54250D02*
D03*
X54750D02*
D03*
Y65133D02*
D03*
X54250D02*
D03*
X53750D02*
D03*
X53250D02*
D03*
X52750D02*
D03*
X52250D02*
D03*
X51750D02*
D03*
X51250D02*
D03*
X55750Y43633D02*
D03*
X55250D02*
D03*
X54750D02*
D03*
X54250D02*
D03*
X53750D02*
D03*
X53250D02*
D03*
X52750D02*
D03*
X52250D02*
D03*
X51750D02*
D03*
X55750Y45307D02*
D03*
X55250D02*
D03*
X54750D02*
D03*
X54250D02*
D03*
X53750D02*
D03*
X53250D02*
D03*
X52750D02*
D03*
X52250D02*
D03*
X51750D02*
D03*
X51250D02*
D03*
Y43633D02*
D03*
D144*
X5482Y23594D02*
D03*
Y23850D02*
D03*
Y24106D02*
D03*
Y24362D02*
D03*
Y24618D02*
D03*
Y24874D02*
D03*
Y25130D02*
D03*
Y25386D02*
D03*
X3218Y23594D02*
D03*
Y23850D02*
D03*
Y24106D02*
D03*
Y24362D02*
D03*
Y24618D02*
D03*
Y24874D02*
D03*
Y25130D02*
D03*
Y25386D02*
D03*
X26982Y23594D02*
D03*
Y23850D02*
D03*
Y24106D02*
D03*
Y24362D02*
D03*
Y24618D02*
D03*
Y24874D02*
D03*
Y25130D02*
D03*
Y25386D02*
D03*
X24718Y23594D02*
D03*
Y23850D02*
D03*
Y24106D02*
D03*
Y24362D02*
D03*
Y24618D02*
D03*
Y24874D02*
D03*
Y25130D02*
D03*
Y25386D02*
D03*
X48482Y23594D02*
D03*
Y23850D02*
D03*
Y24106D02*
D03*
Y24362D02*
D03*
Y24618D02*
D03*
Y24874D02*
D03*
Y25130D02*
D03*
Y25386D02*
D03*
X46218Y23594D02*
D03*
Y23850D02*
D03*
Y24106D02*
D03*
Y24362D02*
D03*
Y24618D02*
D03*
Y24874D02*
D03*
Y25130D02*
D03*
Y25386D02*
D03*
D145*
X15632Y30498D02*
D03*
Y30754D02*
D03*
Y31010D02*
D03*
Y31266D02*
D03*
Y31522D02*
D03*
Y31778D02*
D03*
Y32034D02*
D03*
Y32290D02*
D03*
Y32546D02*
D03*
Y32802D02*
D03*
X13388Y30498D02*
D03*
Y30754D02*
D03*
Y31010D02*
D03*
Y31266D02*
D03*
Y31522D02*
D03*
Y31778D02*
D03*
Y32034D02*
D03*
Y32290D02*
D03*
Y32546D02*
D03*
Y32802D02*
D03*
X37132Y30498D02*
D03*
Y30754D02*
D03*
Y31010D02*
D03*
Y31266D02*
D03*
Y31522D02*
D03*
Y31778D02*
D03*
Y32034D02*
D03*
Y32290D02*
D03*
Y32546D02*
D03*
Y32802D02*
D03*
X34888Y30498D02*
D03*
Y30754D02*
D03*
Y31010D02*
D03*
Y31266D02*
D03*
Y31522D02*
D03*
Y31778D02*
D03*
Y32034D02*
D03*
Y32290D02*
D03*
Y32546D02*
D03*
Y32802D02*
D03*
X58632Y30498D02*
D03*
Y30754D02*
D03*
Y31010D02*
D03*
Y31266D02*
D03*
Y31522D02*
D03*
Y31778D02*
D03*
Y32034D02*
D03*
Y32290D02*
D03*
Y32546D02*
D03*
Y32802D02*
D03*
X56388Y30498D02*
D03*
Y30754D02*
D03*
Y31010D02*
D03*
Y31266D02*
D03*
Y31522D02*
D03*
Y31778D02*
D03*
Y32034D02*
D03*
Y32290D02*
D03*
Y32546D02*
D03*
Y32802D02*
D03*
D146*
X10070Y31680D02*
D03*
X31570D02*
D03*
X53070D02*
D03*
D147*
X8249Y30204D02*
D03*
Y30400D02*
D03*
Y30597D02*
D03*
Y30794D02*
D03*
Y30991D02*
D03*
Y31188D02*
D03*
Y31385D02*
D03*
Y31582D02*
D03*
Y31778D02*
D03*
Y31975D02*
D03*
Y32172D02*
D03*
Y32369D02*
D03*
Y32566D02*
D03*
Y32763D02*
D03*
Y32960D02*
D03*
Y33156D02*
D03*
X11891D02*
D03*
Y32960D02*
D03*
Y32763D02*
D03*
Y32566D02*
D03*
Y32369D02*
D03*
Y32172D02*
D03*
Y31975D02*
D03*
Y31778D02*
D03*
Y31582D02*
D03*
Y31385D02*
D03*
Y31188D02*
D03*
Y30991D02*
D03*
Y30794D02*
D03*
Y30597D02*
D03*
Y30400D02*
D03*
Y30204D02*
D03*
X29749D02*
D03*
Y30400D02*
D03*
Y30597D02*
D03*
Y30794D02*
D03*
Y30991D02*
D03*
Y31188D02*
D03*
Y31385D02*
D03*
Y31582D02*
D03*
Y31778D02*
D03*
Y31975D02*
D03*
Y32172D02*
D03*
Y32369D02*
D03*
Y32566D02*
D03*
Y32763D02*
D03*
Y32960D02*
D03*
Y33156D02*
D03*
X33391D02*
D03*
Y32960D02*
D03*
Y32763D02*
D03*
Y32566D02*
D03*
Y32369D02*
D03*
Y32172D02*
D03*
Y31975D02*
D03*
Y31778D02*
D03*
Y31582D02*
D03*
Y31385D02*
D03*
Y31188D02*
D03*
Y30991D02*
D03*
Y30794D02*
D03*
Y30597D02*
D03*
Y30400D02*
D03*
Y30204D02*
D03*
X51249D02*
D03*
Y30400D02*
D03*
Y30597D02*
D03*
Y30794D02*
D03*
Y30991D02*
D03*
Y31188D02*
D03*
Y31385D02*
D03*
Y31582D02*
D03*
Y31778D02*
D03*
Y31975D02*
D03*
Y32172D02*
D03*
Y32369D02*
D03*
Y32566D02*
D03*
Y32763D02*
D03*
Y32960D02*
D03*
Y33156D02*
D03*
X54891D02*
D03*
Y32960D02*
D03*
Y32763D02*
D03*
Y32566D02*
D03*
Y32369D02*
D03*
Y32172D02*
D03*
Y31975D02*
D03*
Y31778D02*
D03*
Y31582D02*
D03*
Y31385D02*
D03*
Y31188D02*
D03*
Y30991D02*
D03*
Y30794D02*
D03*
Y30597D02*
D03*
Y30400D02*
D03*
Y30204D02*
D03*
D148*
X8594Y33501D02*
D03*
X8790D02*
D03*
X8987D02*
D03*
X9184D02*
D03*
X9381D02*
D03*
X9578D02*
D03*
X9775D02*
D03*
X9972D02*
D03*
X10168D02*
D03*
X10365D02*
D03*
X10562D02*
D03*
X10759D02*
D03*
X10956D02*
D03*
X11153D02*
D03*
X11350D02*
D03*
X11546D02*
D03*
Y29859D02*
D03*
X11350D02*
D03*
X11153D02*
D03*
X10956D02*
D03*
X10759D02*
D03*
X10562D02*
D03*
X10365D02*
D03*
X10168D02*
D03*
X9972D02*
D03*
X9775D02*
D03*
X9578D02*
D03*
X9381D02*
D03*
X9184D02*
D03*
X8987D02*
D03*
X8790D02*
D03*
X8594D02*
D03*
X30094Y33501D02*
D03*
X30290D02*
D03*
X30487D02*
D03*
X30684D02*
D03*
X30881D02*
D03*
X31078D02*
D03*
X31275D02*
D03*
X31472D02*
D03*
X31668D02*
D03*
X31865D02*
D03*
X32062D02*
D03*
X32259D02*
D03*
X32456D02*
D03*
X32653D02*
D03*
X32850D02*
D03*
X33046D02*
D03*
Y29859D02*
D03*
X32850D02*
D03*
X32653D02*
D03*
X32456D02*
D03*
X32259D02*
D03*
X32062D02*
D03*
X31865D02*
D03*
X31668D02*
D03*
X31472D02*
D03*
X31275D02*
D03*
X31078D02*
D03*
X30881D02*
D03*
X30684D02*
D03*
X30487D02*
D03*
X30290D02*
D03*
X30094D02*
D03*
X51594Y33501D02*
D03*
X51790D02*
D03*
X51987D02*
D03*
X52184D02*
D03*
X52381D02*
D03*
X52578D02*
D03*
X52775D02*
D03*
X52972D02*
D03*
X53168D02*
D03*
X53365D02*
D03*
X53562D02*
D03*
X53759D02*
D03*
X53956D02*
D03*
X54153D02*
D03*
X54350D02*
D03*
X54546D02*
D03*
Y29859D02*
D03*
X54350D02*
D03*
X54153D02*
D03*
X53956D02*
D03*
X53759D02*
D03*
X53562D02*
D03*
X53365D02*
D03*
X53168D02*
D03*
X52972D02*
D03*
X52775D02*
D03*
X52578D02*
D03*
X52381D02*
D03*
X52184D02*
D03*
X51987D02*
D03*
X51790D02*
D03*
X51594D02*
D03*
D149*
X2885Y31680D02*
D03*
Y31995D02*
D03*
Y32310D02*
D03*
Y31365D02*
D03*
Y31050D02*
D03*
X24385Y31680D02*
D03*
Y31995D02*
D03*
Y32310D02*
D03*
Y31365D02*
D03*
Y31050D02*
D03*
X45885Y31680D02*
D03*
Y31995D02*
D03*
Y32310D02*
D03*
Y31365D02*
D03*
Y31050D02*
D03*
D150*
X17600Y69420D02*
D03*
X6050Y65840D02*
D03*
Y67480D02*
D03*
Y66830D02*
D03*
X12750D02*
D03*
X18720Y73340D02*
D03*
X18710Y72620D02*
D03*
X18780Y70910D02*
D03*
X14080Y68390D02*
D03*
X12410Y46080D02*
D03*
X11580Y53560D02*
D03*
X19210Y52750D02*
D03*
X19220Y53330D02*
D03*
Y53910D02*
D03*
X410Y48710D02*
D03*
X33910Y46080D02*
D03*
X33080Y53560D02*
D03*
X40710Y52750D02*
D03*
X40720Y53330D02*
D03*
Y53910D02*
D03*
X21910Y48710D02*
D03*
X39100Y69420D02*
D03*
X27550Y65840D02*
D03*
Y67480D02*
D03*
Y66830D02*
D03*
X34250D02*
D03*
X40220Y73340D02*
D03*
X40210Y72620D02*
D03*
X40280Y70910D02*
D03*
X35580Y68390D02*
D03*
X60600Y69420D02*
D03*
X49050Y65840D02*
D03*
Y67480D02*
D03*
Y66830D02*
D03*
X55750D02*
D03*
X61720Y73340D02*
D03*
X61710Y72620D02*
D03*
X61780Y70910D02*
D03*
X57080Y68390D02*
D03*
X55410Y46080D02*
D03*
X54580Y53560D02*
D03*
X62210Y52750D02*
D03*
X62220Y53330D02*
D03*
Y53910D02*
D03*
X43410Y48710D02*
D03*
X10750Y15910D02*
D03*
X32250D02*
D03*
X53750D02*
D03*
D151*
X11290Y67740D02*
D03*
X11940D02*
D03*
Y68350D02*
D03*
X11290D02*
D03*
X32790Y67740D02*
D03*
X33440D02*
D03*
Y68350D02*
D03*
X32790D02*
D03*
X54290Y67740D02*
D03*
X54940D02*
D03*
Y68350D02*
D03*
X54290D02*
D03*
D152*
X10213Y77176D02*
D03*
Y77550D02*
D03*
Y77924D02*
D03*
X9287D02*
D03*
Y77176D02*
D03*
X16017Y70366D02*
D03*
Y71114D02*
D03*
X16943D02*
D03*
Y70740D02*
D03*
Y70366D02*
D03*
X31713Y77176D02*
D03*
Y77550D02*
D03*
Y77924D02*
D03*
X30787D02*
D03*
Y77176D02*
D03*
X37517Y70366D02*
D03*
Y71114D02*
D03*
X38443D02*
D03*
Y70740D02*
D03*
Y70366D02*
D03*
X53213Y77176D02*
D03*
Y77550D02*
D03*
Y77924D02*
D03*
X52287D02*
D03*
Y77176D02*
D03*
X59017Y70366D02*
D03*
Y71114D02*
D03*
X59943D02*
D03*
Y70740D02*
D03*
Y70366D02*
D03*
D153*
X6984Y79083D02*
D03*
X6610D02*
D03*
X6236D02*
D03*
Y78157D02*
D03*
X6984D02*
D03*
X28484Y79083D02*
D03*
X28110D02*
D03*
X27736D02*
D03*
Y78157D02*
D03*
X28484D02*
D03*
X49984Y79083D02*
D03*
X49610D02*
D03*
X49236D02*
D03*
Y78157D02*
D03*
X49984D02*
D03*
D154*
X7960Y68780D02*
D03*
Y68080D02*
D03*
X3620Y83300D02*
D03*
Y83910D02*
D03*
X9630Y80170D02*
D03*
X8840Y81020D02*
D03*
X9640Y81010D02*
D03*
X17980Y82220D02*
D03*
X17970Y81470D02*
D03*
X14070Y67650D02*
D03*
X18770Y71550D02*
D03*
X18430Y68710D02*
D03*
X11930Y75660D02*
D03*
X9910Y59900D02*
D03*
X18500Y58700D02*
D03*
Y58120D02*
D03*
Y57550D02*
D03*
X12330Y56040D02*
D03*
X13400Y55790D02*
D03*
X12800Y53560D02*
D03*
X1930Y56110D02*
D03*
X3610Y56790D02*
D03*
X1930Y56700D02*
D03*
X18500Y59300D02*
D03*
X12880Y61990D02*
D03*
X31410Y59900D02*
D03*
X40000Y58700D02*
D03*
Y58120D02*
D03*
Y57550D02*
D03*
X33830Y56040D02*
D03*
X34900Y55790D02*
D03*
X34300Y53560D02*
D03*
X23430Y56110D02*
D03*
X25110Y56790D02*
D03*
X23430Y56700D02*
D03*
X40000Y59300D02*
D03*
X34380Y61990D02*
D03*
X29460Y68780D02*
D03*
Y68080D02*
D03*
X25120Y83300D02*
D03*
Y83910D02*
D03*
X31130Y80170D02*
D03*
X30340Y81020D02*
D03*
X31140Y81010D02*
D03*
X39480Y82220D02*
D03*
X39470Y81470D02*
D03*
X35570Y67650D02*
D03*
X40270Y71550D02*
D03*
X39930Y68710D02*
D03*
X33430Y75660D02*
D03*
X50960Y68780D02*
D03*
Y68080D02*
D03*
X46620Y83300D02*
D03*
Y83910D02*
D03*
X52630Y80170D02*
D03*
X51840Y81020D02*
D03*
X52640Y81010D02*
D03*
X60980Y82220D02*
D03*
X60970Y81470D02*
D03*
X57070Y67650D02*
D03*
X61770Y71550D02*
D03*
X61430Y68710D02*
D03*
X54930Y75660D02*
D03*
X52910Y59900D02*
D03*
X61500Y58700D02*
D03*
Y58120D02*
D03*
Y57550D02*
D03*
X55330Y56040D02*
D03*
X56400Y55790D02*
D03*
X55800Y53560D02*
D03*
X44930Y56110D02*
D03*
X46610Y56790D02*
D03*
X44930Y56700D02*
D03*
X61500Y59300D02*
D03*
X55880Y61990D02*
D03*
D155*
X17550Y67681D02*
D03*
X17050D02*
D03*
X16550D02*
D03*
X16050D02*
D03*
X15550D02*
D03*
X4450D02*
D03*
X3950D02*
D03*
X3450D02*
D03*
X2950D02*
D03*
X2450D02*
D03*
X39050D02*
D03*
X38550D02*
D03*
X38050D02*
D03*
X37550D02*
D03*
X37050D02*
D03*
X25950D02*
D03*
X25450D02*
D03*
X24950D02*
D03*
X24450D02*
D03*
X23950D02*
D03*
X60550D02*
D03*
X60050D02*
D03*
X59550D02*
D03*
X59050D02*
D03*
X58550D02*
D03*
X47450D02*
D03*
X46950D02*
D03*
X46450D02*
D03*
X45950D02*
D03*
X45450D02*
D03*
D156*
X16550Y65319D02*
D03*
X3450D02*
D03*
X38050D02*
D03*
X24950D02*
D03*
X59550D02*
D03*
X46450D02*
D03*
D157*
X8854Y79264D02*
D03*
Y79776D02*
D03*
X8126Y79520D02*
D03*
X30354Y79264D02*
D03*
Y79776D02*
D03*
X29626Y79520D02*
D03*
X51854Y79264D02*
D03*
Y79776D02*
D03*
X51126Y79520D02*
D03*
D158*
X16662Y79533D02*
D03*
X16465D02*
D03*
X16268D02*
D03*
X16071D02*
D03*
X15874D02*
D03*
X15677D02*
D03*
X15481D02*
D03*
X15284D02*
D03*
X15087D02*
D03*
X14890D02*
D03*
X14693D02*
D03*
X14496D02*
D03*
X14299D02*
D03*
X14103D02*
D03*
X13906D02*
D03*
X13709D02*
D03*
X13512D02*
D03*
X13315D02*
D03*
X13118D02*
D03*
X16662Y77347D02*
D03*
X16465D02*
D03*
X16268D02*
D03*
X16071D02*
D03*
X15874D02*
D03*
X15677D02*
D03*
X15481D02*
D03*
X15284D02*
D03*
X15087D02*
D03*
X14890D02*
D03*
X14693D02*
D03*
X14496D02*
D03*
X14299D02*
D03*
X14103D02*
D03*
X13906D02*
D03*
X13709D02*
D03*
X13512D02*
D03*
X13315D02*
D03*
X13118D02*
D03*
X9978Y73530D02*
D03*
X10175D02*
D03*
X10372D02*
D03*
X10568D02*
D03*
X10765D02*
D03*
X10962D02*
D03*
X11159D02*
D03*
X11356D02*
D03*
X11553D02*
D03*
X11749D02*
D03*
X11946D02*
D03*
X12143D02*
D03*
X12340D02*
D03*
X12537D02*
D03*
X12734D02*
D03*
X12931D02*
D03*
Y69140D02*
D03*
X12734D02*
D03*
X12537D02*
D03*
X12340D02*
D03*
X12143D02*
D03*
X11946D02*
D03*
X11749D02*
D03*
X11553D02*
D03*
X11356D02*
D03*
X11159D02*
D03*
X10962D02*
D03*
X10765D02*
D03*
X10568D02*
D03*
X10372D02*
D03*
X10175D02*
D03*
X9978D02*
D03*
X5750Y53979D02*
D03*
X5553D02*
D03*
X5356D02*
D03*
X5160D02*
D03*
X4963D02*
D03*
X4766D02*
D03*
X4569D02*
D03*
X4372D02*
D03*
X4175D02*
D03*
X3978D02*
D03*
X3782D02*
D03*
X3585D02*
D03*
X3388D02*
D03*
X3191D02*
D03*
X2994D02*
D03*
X2797D02*
D03*
X2600D02*
D03*
X2404D02*
D03*
X2207D02*
D03*
X2010D02*
D03*
Y48801D02*
D03*
X2207D02*
D03*
X2404D02*
D03*
X2600D02*
D03*
X2797D02*
D03*
X2994D02*
D03*
X3191D02*
D03*
X3388D02*
D03*
X3585D02*
D03*
X3782D02*
D03*
X3978D02*
D03*
X4175D02*
D03*
X4372D02*
D03*
X4569D02*
D03*
X4766D02*
D03*
X4963D02*
D03*
X5160D02*
D03*
X5356D02*
D03*
X5553D02*
D03*
X5750D02*
D03*
X27250Y53979D02*
D03*
X27053D02*
D03*
X26856D02*
D03*
X26660D02*
D03*
X26463D02*
D03*
X26266D02*
D03*
X26069D02*
D03*
X25872D02*
D03*
X25675D02*
D03*
X25478D02*
D03*
X25282D02*
D03*
X25085D02*
D03*
X24888D02*
D03*
X24691D02*
D03*
X24494D02*
D03*
X24297D02*
D03*
X24100D02*
D03*
X23904D02*
D03*
X23707D02*
D03*
X23510D02*
D03*
Y48801D02*
D03*
X23707D02*
D03*
X23904D02*
D03*
X24100D02*
D03*
X24297D02*
D03*
X24494D02*
D03*
X24691D02*
D03*
X24888D02*
D03*
X25085D02*
D03*
X25282D02*
D03*
X25478D02*
D03*
X25675D02*
D03*
X25872D02*
D03*
X26069D02*
D03*
X26266D02*
D03*
X26463D02*
D03*
X26660D02*
D03*
X26856D02*
D03*
X27053D02*
D03*
X27250D02*
D03*
X38162Y79533D02*
D03*
X37965D02*
D03*
X37768D02*
D03*
X37571D02*
D03*
X37374D02*
D03*
X37177D02*
D03*
X36981D02*
D03*
X36784D02*
D03*
X36587D02*
D03*
X36390D02*
D03*
X36193D02*
D03*
X35996D02*
D03*
X35799D02*
D03*
X35603D02*
D03*
X35406D02*
D03*
X35209D02*
D03*
X35012D02*
D03*
X34815D02*
D03*
X34618D02*
D03*
X38162Y77347D02*
D03*
X37965D02*
D03*
X37768D02*
D03*
X37571D02*
D03*
X37374D02*
D03*
X37177D02*
D03*
X36981D02*
D03*
X36784D02*
D03*
X36587D02*
D03*
X36390D02*
D03*
X36193D02*
D03*
X35996D02*
D03*
X35799D02*
D03*
X35603D02*
D03*
X35406D02*
D03*
X35209D02*
D03*
X35012D02*
D03*
X34815D02*
D03*
X34618D02*
D03*
X31478Y73530D02*
D03*
X31675D02*
D03*
X31872D02*
D03*
X32068D02*
D03*
X32265D02*
D03*
X32462D02*
D03*
X32659D02*
D03*
X32856D02*
D03*
X33053D02*
D03*
X33249D02*
D03*
X33446D02*
D03*
X33643D02*
D03*
X33840D02*
D03*
X34037D02*
D03*
X34234D02*
D03*
X34431D02*
D03*
Y69140D02*
D03*
X34234D02*
D03*
X34037D02*
D03*
X33840D02*
D03*
X33643D02*
D03*
X33446D02*
D03*
X33249D02*
D03*
X33053D02*
D03*
X32856D02*
D03*
X32659D02*
D03*
X32462D02*
D03*
X32265D02*
D03*
X32068D02*
D03*
X31872D02*
D03*
X31675D02*
D03*
X31478D02*
D03*
X59662Y79533D02*
D03*
X59465D02*
D03*
X59268D02*
D03*
X59071D02*
D03*
X58874D02*
D03*
X58677D02*
D03*
X58481D02*
D03*
X58284D02*
D03*
X58087D02*
D03*
X57890D02*
D03*
X57693D02*
D03*
X57496D02*
D03*
X57299D02*
D03*
X57103D02*
D03*
X56906D02*
D03*
X56709D02*
D03*
X56512D02*
D03*
X56315D02*
D03*
X56118D02*
D03*
X59662Y77347D02*
D03*
X59465D02*
D03*
X59268D02*
D03*
X59071D02*
D03*
X58874D02*
D03*
X58677D02*
D03*
X58481D02*
D03*
X58284D02*
D03*
X58087D02*
D03*
X57890D02*
D03*
X57693D02*
D03*
X57496D02*
D03*
X57299D02*
D03*
X57103D02*
D03*
X56906D02*
D03*
X56709D02*
D03*
X56512D02*
D03*
X56315D02*
D03*
X56118D02*
D03*
X52978Y73530D02*
D03*
X53175D02*
D03*
X53372D02*
D03*
X53568D02*
D03*
X53765D02*
D03*
X53962D02*
D03*
X54159D02*
D03*
X54356D02*
D03*
X54553D02*
D03*
X54749D02*
D03*
X54946D02*
D03*
X55143D02*
D03*
X55340D02*
D03*
X55537D02*
D03*
X55734D02*
D03*
X55931D02*
D03*
Y69140D02*
D03*
X55734D02*
D03*
X55537D02*
D03*
X55340D02*
D03*
X55143D02*
D03*
X54946D02*
D03*
X54749D02*
D03*
X54553D02*
D03*
X54356D02*
D03*
X54159D02*
D03*
X53962D02*
D03*
X53765D02*
D03*
X53568D02*
D03*
X53372D02*
D03*
X53175D02*
D03*
X52978D02*
D03*
X48750Y53979D02*
D03*
X48553D02*
D03*
X48356D02*
D03*
X48160D02*
D03*
X47963D02*
D03*
X47766D02*
D03*
X47569D02*
D03*
X47372D02*
D03*
X47175D02*
D03*
X46978D02*
D03*
X46782D02*
D03*
X46585D02*
D03*
X46388D02*
D03*
X46191D02*
D03*
X45994D02*
D03*
X45797D02*
D03*
X45600D02*
D03*
X45404D02*
D03*
X45207D02*
D03*
X45010D02*
D03*
Y48801D02*
D03*
X45207D02*
D03*
X45404D02*
D03*
X45600D02*
D03*
X45797D02*
D03*
X45994D02*
D03*
X46191D02*
D03*
X46388D02*
D03*
X46585D02*
D03*
X46782D02*
D03*
X46978D02*
D03*
X47175D02*
D03*
X47372D02*
D03*
X47569D02*
D03*
X47766D02*
D03*
X47963D02*
D03*
X48160D02*
D03*
X48356D02*
D03*
X48553D02*
D03*
X48750D02*
D03*
D159*
X3127Y76452D02*
D03*
Y76255D02*
D03*
Y76058D02*
D03*
Y75861D02*
D03*
Y75664D02*
D03*
Y75467D02*
D03*
Y75271D02*
D03*
Y75074D02*
D03*
Y74877D02*
D03*
Y74680D02*
D03*
Y74483D02*
D03*
Y74286D02*
D03*
Y74089D02*
D03*
Y73893D02*
D03*
Y73696D02*
D03*
Y73499D02*
D03*
Y73302D02*
D03*
Y73105D02*
D03*
Y72908D02*
D03*
X5313Y76452D02*
D03*
Y76255D02*
D03*
Y76058D02*
D03*
Y75861D02*
D03*
Y75664D02*
D03*
Y75467D02*
D03*
Y75271D02*
D03*
Y75074D02*
D03*
Y74877D02*
D03*
Y74680D02*
D03*
Y74483D02*
D03*
Y74286D02*
D03*
Y74089D02*
D03*
Y73893D02*
D03*
Y73696D02*
D03*
Y73499D02*
D03*
Y73302D02*
D03*
Y73105D02*
D03*
Y72908D02*
D03*
X13649Y72811D02*
D03*
Y72614D02*
D03*
Y72418D02*
D03*
Y72221D02*
D03*
Y72024D02*
D03*
Y71827D02*
D03*
Y71630D02*
D03*
Y71433D02*
D03*
Y71236D02*
D03*
Y71040D02*
D03*
Y70843D02*
D03*
Y70646D02*
D03*
Y70449D02*
D03*
Y70252D02*
D03*
Y70055D02*
D03*
Y69858D02*
D03*
X9259D02*
D03*
Y70055D02*
D03*
Y70252D02*
D03*
Y70449D02*
D03*
Y70646D02*
D03*
Y70843D02*
D03*
Y71040D02*
D03*
Y71236D02*
D03*
Y71433D02*
D03*
Y71630D02*
D03*
Y71827D02*
D03*
Y72024D02*
D03*
Y72221D02*
D03*
Y72418D02*
D03*
Y72614D02*
D03*
Y72811D02*
D03*
X1291Y53260D02*
D03*
Y53063D02*
D03*
Y52866D02*
D03*
Y52670D02*
D03*
Y52473D02*
D03*
Y52276D02*
D03*
Y52079D02*
D03*
Y51882D02*
D03*
Y51685D02*
D03*
Y51488D02*
D03*
Y51292D02*
D03*
Y51095D02*
D03*
Y50898D02*
D03*
Y50701D02*
D03*
Y50504D02*
D03*
Y50307D02*
D03*
Y50110D02*
D03*
Y49914D02*
D03*
Y49717D02*
D03*
Y49520D02*
D03*
X6469D02*
D03*
Y49717D02*
D03*
Y49914D02*
D03*
Y50110D02*
D03*
Y50307D02*
D03*
Y50504D02*
D03*
Y50701D02*
D03*
Y50898D02*
D03*
Y51095D02*
D03*
Y51292D02*
D03*
Y51488D02*
D03*
Y51685D02*
D03*
Y51882D02*
D03*
Y52079D02*
D03*
Y52276D02*
D03*
Y52473D02*
D03*
Y52670D02*
D03*
Y52866D02*
D03*
Y53063D02*
D03*
Y53260D02*
D03*
X22791D02*
D03*
Y53063D02*
D03*
Y52866D02*
D03*
Y52670D02*
D03*
Y52473D02*
D03*
Y52276D02*
D03*
Y52079D02*
D03*
Y51882D02*
D03*
Y51685D02*
D03*
Y51488D02*
D03*
Y51292D02*
D03*
Y51095D02*
D03*
Y50898D02*
D03*
Y50701D02*
D03*
Y50504D02*
D03*
Y50307D02*
D03*
Y50110D02*
D03*
Y49914D02*
D03*
Y49717D02*
D03*
Y49520D02*
D03*
X27969D02*
D03*
Y49717D02*
D03*
Y49914D02*
D03*
Y50110D02*
D03*
Y50307D02*
D03*
Y50504D02*
D03*
Y50701D02*
D03*
Y50898D02*
D03*
Y51095D02*
D03*
Y51292D02*
D03*
Y51488D02*
D03*
Y51685D02*
D03*
Y51882D02*
D03*
Y52079D02*
D03*
Y52276D02*
D03*
Y52473D02*
D03*
Y52670D02*
D03*
Y52866D02*
D03*
Y53063D02*
D03*
Y53260D02*
D03*
X24627Y76452D02*
D03*
Y76255D02*
D03*
Y76058D02*
D03*
Y75861D02*
D03*
Y75664D02*
D03*
Y75467D02*
D03*
Y75271D02*
D03*
Y75074D02*
D03*
Y74877D02*
D03*
Y74680D02*
D03*
Y74483D02*
D03*
Y74286D02*
D03*
Y74089D02*
D03*
Y73893D02*
D03*
Y73696D02*
D03*
Y73499D02*
D03*
Y73302D02*
D03*
Y73105D02*
D03*
Y72908D02*
D03*
X26813Y76452D02*
D03*
Y76255D02*
D03*
Y76058D02*
D03*
Y75861D02*
D03*
Y75664D02*
D03*
Y75467D02*
D03*
Y75271D02*
D03*
Y75074D02*
D03*
Y74877D02*
D03*
Y74680D02*
D03*
Y74483D02*
D03*
Y74286D02*
D03*
Y74089D02*
D03*
Y73893D02*
D03*
Y73696D02*
D03*
Y73499D02*
D03*
Y73302D02*
D03*
Y73105D02*
D03*
Y72908D02*
D03*
X35149Y72811D02*
D03*
Y72614D02*
D03*
Y72418D02*
D03*
Y72221D02*
D03*
Y72024D02*
D03*
Y71827D02*
D03*
Y71630D02*
D03*
Y71433D02*
D03*
Y71236D02*
D03*
Y71040D02*
D03*
Y70843D02*
D03*
Y70646D02*
D03*
Y70449D02*
D03*
Y70252D02*
D03*
Y70055D02*
D03*
Y69858D02*
D03*
X30759D02*
D03*
Y70055D02*
D03*
Y70252D02*
D03*
Y70449D02*
D03*
Y70646D02*
D03*
Y70843D02*
D03*
Y71040D02*
D03*
Y71236D02*
D03*
Y71433D02*
D03*
Y71630D02*
D03*
Y71827D02*
D03*
Y72024D02*
D03*
Y72221D02*
D03*
Y72418D02*
D03*
Y72614D02*
D03*
Y72811D02*
D03*
X46127Y76452D02*
D03*
Y76255D02*
D03*
Y76058D02*
D03*
Y75861D02*
D03*
Y75664D02*
D03*
Y75467D02*
D03*
Y75271D02*
D03*
Y75074D02*
D03*
Y74877D02*
D03*
Y74680D02*
D03*
Y74483D02*
D03*
Y74286D02*
D03*
Y74089D02*
D03*
Y73893D02*
D03*
Y73696D02*
D03*
Y73499D02*
D03*
Y73302D02*
D03*
Y73105D02*
D03*
Y72908D02*
D03*
X48313Y76452D02*
D03*
Y76255D02*
D03*
Y76058D02*
D03*
Y75861D02*
D03*
Y75664D02*
D03*
Y75467D02*
D03*
Y75271D02*
D03*
Y75074D02*
D03*
Y74877D02*
D03*
Y74680D02*
D03*
Y74483D02*
D03*
Y74286D02*
D03*
Y74089D02*
D03*
Y73893D02*
D03*
Y73696D02*
D03*
Y73499D02*
D03*
Y73302D02*
D03*
Y73105D02*
D03*
Y72908D02*
D03*
X56649Y72811D02*
D03*
Y72614D02*
D03*
Y72418D02*
D03*
Y72221D02*
D03*
Y72024D02*
D03*
Y71827D02*
D03*
Y71630D02*
D03*
Y71433D02*
D03*
Y71236D02*
D03*
Y71040D02*
D03*
Y70843D02*
D03*
Y70646D02*
D03*
Y70449D02*
D03*
Y70252D02*
D03*
Y70055D02*
D03*
Y69858D02*
D03*
X52259D02*
D03*
Y70055D02*
D03*
Y70252D02*
D03*
Y70449D02*
D03*
Y70646D02*
D03*
Y70843D02*
D03*
Y71040D02*
D03*
Y71236D02*
D03*
Y71433D02*
D03*
Y71630D02*
D03*
Y71827D02*
D03*
Y72024D02*
D03*
Y72221D02*
D03*
Y72418D02*
D03*
Y72614D02*
D03*
Y72811D02*
D03*
X44291Y53260D02*
D03*
Y53063D02*
D03*
Y52866D02*
D03*
Y52670D02*
D03*
Y52473D02*
D03*
Y52276D02*
D03*
Y52079D02*
D03*
Y51882D02*
D03*
Y51685D02*
D03*
Y51488D02*
D03*
Y51292D02*
D03*
Y51095D02*
D03*
Y50898D02*
D03*
Y50701D02*
D03*
Y50504D02*
D03*
Y50307D02*
D03*
Y50110D02*
D03*
Y49914D02*
D03*
Y49717D02*
D03*
Y49520D02*
D03*
X49469D02*
D03*
Y49717D02*
D03*
Y49914D02*
D03*
Y50110D02*
D03*
Y50307D02*
D03*
Y50504D02*
D03*
Y50701D02*
D03*
Y50898D02*
D03*
Y51095D02*
D03*
Y51292D02*
D03*
Y51488D02*
D03*
Y51685D02*
D03*
Y51882D02*
D03*
Y52079D02*
D03*
Y52276D02*
D03*
Y52473D02*
D03*
Y52670D02*
D03*
Y52866D02*
D03*
Y53063D02*
D03*
Y53260D02*
D03*
D160*
X6730Y81040D02*
D03*
X6415D02*
D03*
X6100D02*
D03*
X5785D02*
D03*
X5470D02*
D03*
X7045Y81355D02*
D03*
X6415D02*
D03*
X6100D02*
D03*
X5785D02*
D03*
X5155D02*
D03*
X7045Y81670D02*
D03*
X6730D02*
D03*
X5470D02*
D03*
X5155D02*
D03*
X7045Y81985D02*
D03*
X6730D02*
D03*
X5470D02*
D03*
X5155D02*
D03*
X7045Y82300D02*
D03*
X6730D02*
D03*
X5470D02*
D03*
X5155D02*
D03*
X7045Y82615D02*
D03*
X6415D02*
D03*
X6100D02*
D03*
X5785D02*
D03*
X5155D02*
D03*
X6730Y82930D02*
D03*
X6415D02*
D03*
X6100D02*
D03*
X5785D02*
D03*
X5470D02*
D03*
X66290Y1580D02*
D03*
Y1895D02*
D03*
Y2210D02*
D03*
Y2525D02*
D03*
Y2840D02*
D03*
X66605Y1265D02*
D03*
Y1895D02*
D03*
Y2210D02*
D03*
Y2525D02*
D03*
Y3155D02*
D03*
X66920Y1265D02*
D03*
Y1580D02*
D03*
Y2840D02*
D03*
Y3155D02*
D03*
X67235Y1265D02*
D03*
Y1580D02*
D03*
Y2840D02*
D03*
Y3155D02*
D03*
X67550Y1265D02*
D03*
Y1580D02*
D03*
Y2840D02*
D03*
Y3155D02*
D03*
X67865Y1265D02*
D03*
Y1895D02*
D03*
Y2210D02*
D03*
Y2525D02*
D03*
Y3155D02*
D03*
X68180Y1580D02*
D03*
Y1895D02*
D03*
Y2210D02*
D03*
Y2525D02*
D03*
Y2840D02*
D03*
X66290Y7980D02*
D03*
Y8295D02*
D03*
Y8610D02*
D03*
Y8925D02*
D03*
Y9240D02*
D03*
X66605Y7665D02*
D03*
Y8295D02*
D03*
Y8610D02*
D03*
Y8925D02*
D03*
Y9555D02*
D03*
X66920Y7665D02*
D03*
Y7980D02*
D03*
Y9240D02*
D03*
Y9555D02*
D03*
X67235Y7665D02*
D03*
Y7980D02*
D03*
Y9240D02*
D03*
Y9555D02*
D03*
X67550Y7665D02*
D03*
Y7980D02*
D03*
Y9240D02*
D03*
Y9555D02*
D03*
X67865Y7665D02*
D03*
Y8295D02*
D03*
Y8610D02*
D03*
Y8925D02*
D03*
Y9555D02*
D03*
X68180Y7980D02*
D03*
Y8295D02*
D03*
Y8610D02*
D03*
Y8925D02*
D03*
Y9240D02*
D03*
X66290Y14380D02*
D03*
Y14695D02*
D03*
Y15010D02*
D03*
Y15325D02*
D03*
Y15640D02*
D03*
X66605Y14065D02*
D03*
Y14695D02*
D03*
Y15010D02*
D03*
Y15325D02*
D03*
Y15955D02*
D03*
X66920Y14065D02*
D03*
Y14380D02*
D03*
Y15640D02*
D03*
Y15955D02*
D03*
X67235Y14065D02*
D03*
Y14380D02*
D03*
Y15640D02*
D03*
Y15955D02*
D03*
X67550Y14065D02*
D03*
Y14380D02*
D03*
Y15640D02*
D03*
Y15955D02*
D03*
X67865Y14065D02*
D03*
Y14695D02*
D03*
Y15010D02*
D03*
Y15325D02*
D03*
Y15955D02*
D03*
X68180Y14380D02*
D03*
Y14695D02*
D03*
Y15010D02*
D03*
Y15325D02*
D03*
Y15640D02*
D03*
X66290Y20730D02*
D03*
Y21045D02*
D03*
Y21360D02*
D03*
Y21675D02*
D03*
Y21990D02*
D03*
X66605Y20415D02*
D03*
Y21045D02*
D03*
Y21360D02*
D03*
Y21675D02*
D03*
Y22305D02*
D03*
X66920Y20415D02*
D03*
Y20730D02*
D03*
Y21990D02*
D03*
Y22305D02*
D03*
X67235Y20415D02*
D03*
Y20730D02*
D03*
Y21990D02*
D03*
Y22305D02*
D03*
X67550Y20415D02*
D03*
Y20730D02*
D03*
Y21990D02*
D03*
Y22305D02*
D03*
X67865Y20415D02*
D03*
Y21045D02*
D03*
Y21360D02*
D03*
Y21675D02*
D03*
Y22305D02*
D03*
X68180Y20730D02*
D03*
Y21045D02*
D03*
Y21360D02*
D03*
Y21675D02*
D03*
Y21990D02*
D03*
X28230Y81040D02*
D03*
X27915D02*
D03*
X27600D02*
D03*
X27285D02*
D03*
X26970D02*
D03*
X28545Y81355D02*
D03*
X27915D02*
D03*
X27600D02*
D03*
X27285D02*
D03*
X26655D02*
D03*
X28545Y81670D02*
D03*
X28230D02*
D03*
X26970D02*
D03*
X26655D02*
D03*
X28545Y81985D02*
D03*
X28230D02*
D03*
X26970D02*
D03*
X26655D02*
D03*
X28545Y82300D02*
D03*
X28230D02*
D03*
X26970D02*
D03*
X26655D02*
D03*
X28545Y82615D02*
D03*
X27915D02*
D03*
X27600D02*
D03*
X27285D02*
D03*
X26655D02*
D03*
X28230Y82930D02*
D03*
X27915D02*
D03*
X27600D02*
D03*
X27285D02*
D03*
X26970D02*
D03*
X49730Y81040D02*
D03*
X49415D02*
D03*
X49100D02*
D03*
X48785D02*
D03*
X48470D02*
D03*
X50045Y81355D02*
D03*
X49415D02*
D03*
X49100D02*
D03*
X48785D02*
D03*
X48155D02*
D03*
X50045Y81670D02*
D03*
X49730D02*
D03*
X48470D02*
D03*
X48155D02*
D03*
X50045Y81985D02*
D03*
X49730D02*
D03*
X48470D02*
D03*
X48155D02*
D03*
X50045Y82300D02*
D03*
X49730D02*
D03*
X48470D02*
D03*
X48155D02*
D03*
X50045Y82615D02*
D03*
X49415D02*
D03*
X49100D02*
D03*
X48785D02*
D03*
X48155D02*
D03*
X49730Y82930D02*
D03*
X49415D02*
D03*
X49100D02*
D03*
X48785D02*
D03*
X48470D02*
D03*
X66290Y46330D02*
D03*
Y46645D02*
D03*
Y46960D02*
D03*
Y47275D02*
D03*
Y47590D02*
D03*
X66605Y46015D02*
D03*
Y46645D02*
D03*
Y46960D02*
D03*
Y47275D02*
D03*
Y47905D02*
D03*
X66920Y46015D02*
D03*
Y46330D02*
D03*
Y47590D02*
D03*
Y47905D02*
D03*
X67235Y46015D02*
D03*
Y46330D02*
D03*
Y47590D02*
D03*
Y47905D02*
D03*
X67550Y46015D02*
D03*
Y46330D02*
D03*
Y47590D02*
D03*
Y47905D02*
D03*
X67865Y46015D02*
D03*
Y46645D02*
D03*
Y46960D02*
D03*
Y47275D02*
D03*
Y47905D02*
D03*
X68180Y46330D02*
D03*
Y46645D02*
D03*
Y46960D02*
D03*
Y47275D02*
D03*
Y47590D02*
D03*
X66290Y39980D02*
D03*
Y40295D02*
D03*
Y40610D02*
D03*
Y40925D02*
D03*
Y41240D02*
D03*
X66605Y39665D02*
D03*
Y40295D02*
D03*
Y40610D02*
D03*
Y40925D02*
D03*
Y41555D02*
D03*
X66920Y39665D02*
D03*
Y39980D02*
D03*
Y41240D02*
D03*
Y41555D02*
D03*
X67235Y39665D02*
D03*
Y39980D02*
D03*
Y41240D02*
D03*
Y41555D02*
D03*
X67550Y39665D02*
D03*
Y39980D02*
D03*
Y41240D02*
D03*
Y41555D02*
D03*
X67865Y39665D02*
D03*
Y40295D02*
D03*
Y40610D02*
D03*
Y40925D02*
D03*
Y41555D02*
D03*
X68180Y39980D02*
D03*
Y40295D02*
D03*
Y40610D02*
D03*
Y40925D02*
D03*
Y41240D02*
D03*
X66290Y33580D02*
D03*
Y33895D02*
D03*
Y34210D02*
D03*
Y34525D02*
D03*
Y34840D02*
D03*
X66605Y33265D02*
D03*
Y33895D02*
D03*
Y34210D02*
D03*
Y34525D02*
D03*
Y35155D02*
D03*
X66920Y33265D02*
D03*
Y33580D02*
D03*
Y34840D02*
D03*
Y35155D02*
D03*
X67235Y33265D02*
D03*
Y33580D02*
D03*
Y34840D02*
D03*
Y35155D02*
D03*
X67550Y33265D02*
D03*
Y33580D02*
D03*
Y34840D02*
D03*
Y35155D02*
D03*
X67865Y33265D02*
D03*
Y33895D02*
D03*
Y34210D02*
D03*
Y34525D02*
D03*
Y35155D02*
D03*
X68180Y33580D02*
D03*
Y33895D02*
D03*
Y34210D02*
D03*
Y34525D02*
D03*
Y34840D02*
D03*
X66290Y27180D02*
D03*
Y27495D02*
D03*
Y27810D02*
D03*
Y28125D02*
D03*
Y28440D02*
D03*
X66605Y26865D02*
D03*
Y27495D02*
D03*
Y27810D02*
D03*
Y28125D02*
D03*
Y28755D02*
D03*
X66920Y26865D02*
D03*
Y27180D02*
D03*
Y28440D02*
D03*
Y28755D02*
D03*
X67235Y26865D02*
D03*
Y27180D02*
D03*
Y28440D02*
D03*
Y28755D02*
D03*
X67550Y26865D02*
D03*
Y27180D02*
D03*
Y28440D02*
D03*
Y28755D02*
D03*
X67865Y26865D02*
D03*
Y27495D02*
D03*
Y27810D02*
D03*
Y28125D02*
D03*
Y28755D02*
D03*
X68180Y27180D02*
D03*
Y27495D02*
D03*
Y27810D02*
D03*
Y28125D02*
D03*
Y28440D02*
D03*
X66290Y71880D02*
D03*
Y72195D02*
D03*
Y72510D02*
D03*
Y72825D02*
D03*
Y73140D02*
D03*
X66605Y71565D02*
D03*
Y72195D02*
D03*
Y72510D02*
D03*
Y72825D02*
D03*
Y73455D02*
D03*
X66920Y71565D02*
D03*
Y71880D02*
D03*
Y73140D02*
D03*
Y73455D02*
D03*
X67235Y71565D02*
D03*
Y71880D02*
D03*
Y73140D02*
D03*
Y73455D02*
D03*
X67550Y71565D02*
D03*
Y71880D02*
D03*
Y73140D02*
D03*
Y73455D02*
D03*
X67865Y71565D02*
D03*
Y72195D02*
D03*
Y72510D02*
D03*
Y72825D02*
D03*
Y73455D02*
D03*
X68180Y71880D02*
D03*
Y72195D02*
D03*
Y72510D02*
D03*
Y72825D02*
D03*
Y73140D02*
D03*
X66290Y65530D02*
D03*
Y65845D02*
D03*
Y66160D02*
D03*
Y66475D02*
D03*
Y66790D02*
D03*
X66605Y65215D02*
D03*
Y65845D02*
D03*
Y66160D02*
D03*
Y66475D02*
D03*
Y67105D02*
D03*
X66920Y65215D02*
D03*
Y65530D02*
D03*
Y66790D02*
D03*
Y67105D02*
D03*
X67235Y65215D02*
D03*
Y65530D02*
D03*
Y66790D02*
D03*
Y67105D02*
D03*
X67550Y65215D02*
D03*
Y65530D02*
D03*
Y66790D02*
D03*
Y67105D02*
D03*
X67865Y65215D02*
D03*
Y65845D02*
D03*
Y66160D02*
D03*
Y66475D02*
D03*
Y67105D02*
D03*
X68180Y65530D02*
D03*
Y65845D02*
D03*
Y66160D02*
D03*
Y66475D02*
D03*
Y66790D02*
D03*
X66290Y59130D02*
D03*
Y59445D02*
D03*
Y59760D02*
D03*
Y60075D02*
D03*
Y60390D02*
D03*
X66605Y58815D02*
D03*
Y59445D02*
D03*
Y59760D02*
D03*
Y60075D02*
D03*
Y60705D02*
D03*
X66920Y58815D02*
D03*
Y59130D02*
D03*
Y60390D02*
D03*
Y60705D02*
D03*
X67235Y58815D02*
D03*
Y59130D02*
D03*
Y60390D02*
D03*
Y60705D02*
D03*
X67550Y58815D02*
D03*
Y59130D02*
D03*
Y60390D02*
D03*
Y60705D02*
D03*
X67865Y58815D02*
D03*
Y59445D02*
D03*
Y59760D02*
D03*
Y60075D02*
D03*
Y60705D02*
D03*
X68180Y59130D02*
D03*
Y59445D02*
D03*
Y59760D02*
D03*
Y60075D02*
D03*
Y60390D02*
D03*
X66290Y52730D02*
D03*
Y53045D02*
D03*
Y53360D02*
D03*
Y53675D02*
D03*
Y53990D02*
D03*
X66605Y52415D02*
D03*
Y53045D02*
D03*
Y53360D02*
D03*
Y53675D02*
D03*
Y54305D02*
D03*
X66920Y52415D02*
D03*
Y52730D02*
D03*
Y53990D02*
D03*
Y54305D02*
D03*
X67235Y52415D02*
D03*
Y52730D02*
D03*
Y53990D02*
D03*
Y54305D02*
D03*
X67550Y52415D02*
D03*
Y52730D02*
D03*
Y53990D02*
D03*
Y54305D02*
D03*
X67865Y52415D02*
D03*
Y53045D02*
D03*
Y53360D02*
D03*
Y53675D02*
D03*
Y54305D02*
D03*
X68180Y52730D02*
D03*
Y53045D02*
D03*
Y53360D02*
D03*
Y53675D02*
D03*
Y53990D02*
D03*
D161*
X10146Y83319D02*
D03*
X10402D02*
D03*
X10658D02*
D03*
X10914D02*
D03*
Y81941D02*
D03*
X10658D02*
D03*
X10402D02*
D03*
X10146D02*
D03*
X31646Y83319D02*
D03*
X31902D02*
D03*
X32158D02*
D03*
X32414D02*
D03*
Y81941D02*
D03*
X32158D02*
D03*
X31902D02*
D03*
X31646D02*
D03*
X53146Y83319D02*
D03*
X53402D02*
D03*
X53658D02*
D03*
X53914D02*
D03*
Y81941D02*
D03*
X53658D02*
D03*
X53402D02*
D03*
X53146D02*
D03*
D162*
X11219Y83014D02*
D03*
Y82758D02*
D03*
Y82502D02*
D03*
Y82246D02*
D03*
X9841D02*
D03*
Y82502D02*
D03*
Y82758D02*
D03*
Y83014D02*
D03*
X32719D02*
D03*
Y82758D02*
D03*
Y82502D02*
D03*
Y82246D02*
D03*
X31341D02*
D03*
Y82502D02*
D03*
Y82758D02*
D03*
Y83014D02*
D03*
X54219D02*
D03*
Y82758D02*
D03*
Y82502D02*
D03*
Y82246D02*
D03*
X52841D02*
D03*
Y82502D02*
D03*
Y82758D02*
D03*
Y83014D02*
D03*
D163*
X10530Y82630D02*
D03*
X32030D02*
D03*
X53530D02*
D03*
D164*
X11454Y71335D02*
D03*
X32954D02*
D03*
X54454D02*
D03*
D165*
X5770Y46510D02*
D03*
X2030D02*
D03*
X27270D02*
D03*
X23530D02*
D03*
X48770D02*
D03*
X45030D02*
D03*
D166*
X12272Y59590D02*
D03*
Y59090D02*
D03*
Y58590D02*
D03*
Y58090D02*
D03*
X14968D02*
D03*
Y58590D02*
D03*
Y59090D02*
D03*
Y59590D02*
D03*
X33772D02*
D03*
Y59090D02*
D03*
Y58590D02*
D03*
Y58090D02*
D03*
X36468D02*
D03*
Y58590D02*
D03*
Y59090D02*
D03*
Y59590D02*
D03*
X55272D02*
D03*
Y59090D02*
D03*
Y58590D02*
D03*
Y58090D02*
D03*
X57968D02*
D03*
Y58590D02*
D03*
Y59090D02*
D03*
Y59590D02*
D03*
D167*
X12870Y57492D02*
D03*
X13370D02*
D03*
X13870D02*
D03*
X14370D02*
D03*
Y60188D02*
D03*
X13870D02*
D03*
X13370D02*
D03*
X12870D02*
D03*
X34370Y57492D02*
D03*
X34870D02*
D03*
X35370D02*
D03*
X35870D02*
D03*
Y60188D02*
D03*
X35370D02*
D03*
X34870D02*
D03*
X34370D02*
D03*
X55870Y57492D02*
D03*
X56370D02*
D03*
X56870D02*
D03*
X57370D02*
D03*
Y60188D02*
D03*
X56870D02*
D03*
X56370D02*
D03*
X55870D02*
D03*
D168*
X18186Y49402D02*
D03*
X17930D02*
D03*
X17674D02*
D03*
X17418D02*
D03*
X17162D02*
D03*
X16906D02*
D03*
X16650D02*
D03*
X16394D02*
D03*
X18186Y47138D02*
D03*
X17930D02*
D03*
X17674D02*
D03*
X17418D02*
D03*
X17162D02*
D03*
X16906D02*
D03*
X16650D02*
D03*
X16394D02*
D03*
X39686Y49402D02*
D03*
X39430D02*
D03*
X39174D02*
D03*
X38918D02*
D03*
X38662D02*
D03*
X38406D02*
D03*
X38150D02*
D03*
X37894D02*
D03*
X39686Y47138D02*
D03*
X39430D02*
D03*
X39174D02*
D03*
X38918D02*
D03*
X38662D02*
D03*
X38406D02*
D03*
X38150D02*
D03*
X37894D02*
D03*
X61186Y49402D02*
D03*
X60930D02*
D03*
X60674D02*
D03*
X60418D02*
D03*
X60162D02*
D03*
X59906D02*
D03*
X59650D02*
D03*
X59394D02*
D03*
X61186Y47138D02*
D03*
X60930D02*
D03*
X60674D02*
D03*
X60418D02*
D03*
X60162D02*
D03*
X59906D02*
D03*
X59650D02*
D03*
X59394D02*
D03*
D169*
X17290Y48270D02*
D03*
X38790D02*
D03*
X60290D02*
D03*
D170*
X10380Y50781D02*
D03*
Y49599D02*
D03*
X31880Y50781D02*
D03*
Y49599D02*
D03*
X53380Y50781D02*
D03*
Y49599D02*
D03*
D171*
X15990Y45730D02*
D03*
Y44195D02*
D03*
X37490Y45730D02*
D03*
Y44195D02*
D03*
X58990Y45730D02*
D03*
Y44195D02*
D03*
D172*
X13346Y54553D02*
D03*
Y54947D02*
D03*
X12814D02*
D03*
Y54553D02*
D03*
X11846Y54563D02*
D03*
Y54957D02*
D03*
X11314D02*
D03*
Y54563D02*
D03*
X34846Y54553D02*
D03*
Y54947D02*
D03*
X34314D02*
D03*
Y54553D02*
D03*
X33346Y54563D02*
D03*
Y54957D02*
D03*
X32814D02*
D03*
Y54563D02*
D03*
X56346Y54553D02*
D03*
Y54947D02*
D03*
X55814D02*
D03*
Y54553D02*
D03*
X54846Y54563D02*
D03*
Y54957D02*
D03*
X54314D02*
D03*
Y54563D02*
D03*
D173*
X13346Y54750D02*
D03*
X12814D02*
D03*
X11846Y54760D02*
D03*
X11314D02*
D03*
X34846Y54750D02*
D03*
X34314D02*
D03*
X33346Y54760D02*
D03*
X32814D02*
D03*
X56346Y54750D02*
D03*
X55814D02*
D03*
X54846Y54760D02*
D03*
X54314D02*
D03*
D174*
X1000Y19000D02*
D03*
X19000D02*
D03*
Y1000D02*
D03*
X1000D02*
D03*
X19000Y83500D02*
D03*
X1000D02*
D03*
Y65500D02*
D03*
X19000D02*
D03*
Y44000D02*
D03*
X1000D02*
D03*
Y62000D02*
D03*
X19000D02*
D03*
X40500Y44000D02*
D03*
X22500D02*
D03*
Y62000D02*
D03*
X40500D02*
D03*
Y83500D02*
D03*
X22500D02*
D03*
Y65500D02*
D03*
X40500D02*
D03*
X22500Y19000D02*
D03*
X40500D02*
D03*
Y1000D02*
D03*
X22500D02*
D03*
X44000Y19000D02*
D03*
X62000D02*
D03*
Y1000D02*
D03*
X44000D02*
D03*
X62000Y83500D02*
D03*
X44000D02*
D03*
Y65500D02*
D03*
X62000D02*
D03*
Y44000D02*
D03*
X44000D02*
D03*
Y62000D02*
D03*
X62000D02*
D03*
D175*
X9250Y15910D02*
D03*
X9750D02*
D03*
X10250D02*
D03*
X30750D02*
D03*
X31250D02*
D03*
X31750D02*
D03*
X52250D02*
D03*
X52750D02*
D03*
X53250D02*
D03*
D176*
X8500Y1470D02*
D03*
X11500D02*
D03*
X8500Y22970D02*
D03*
X11500D02*
D03*
X12500Y65970D02*
D03*
X8500D02*
D03*
X12500Y44470D02*
D03*
X8500D02*
D03*
X34000D02*
D03*
X30000D02*
D03*
X34000Y65970D02*
D03*
X30000D02*
D03*
Y22970D02*
D03*
X33000D02*
D03*
X30000Y1470D02*
D03*
X33000D02*
D03*
X51500D02*
D03*
X54500D02*
D03*
X51500Y22970D02*
D03*
X54500D02*
D03*
X55500Y65970D02*
D03*
X51500D02*
D03*
X55500Y44470D02*
D03*
X51500D02*
D03*
D177*
X1000Y40500D02*
D03*
X19000D02*
D03*
Y22500D02*
D03*
X1000D02*
D03*
X3450Y27587D02*
D03*
Y28375D02*
D03*
X5037Y38050D02*
D03*
X5825D02*
D03*
X6612D02*
D03*
X9762D02*
D03*
X10550D02*
D03*
X11337D02*
D03*
X14487D02*
D03*
X15275D02*
D03*
X16062D02*
D03*
X22500Y40500D02*
D03*
X40500D02*
D03*
Y22500D02*
D03*
X22500D02*
D03*
X24950Y27587D02*
D03*
Y28375D02*
D03*
X26537Y38050D02*
D03*
X27325D02*
D03*
X28112D02*
D03*
X31262D02*
D03*
X32050D02*
D03*
X32837D02*
D03*
X35987D02*
D03*
X36775D02*
D03*
X37562D02*
D03*
X44000Y40500D02*
D03*
X62000D02*
D03*
Y22500D02*
D03*
X44000D02*
D03*
X46450Y27587D02*
D03*
Y28375D02*
D03*
X48037Y38050D02*
D03*
X48825D02*
D03*
X49612D02*
D03*
X52762D02*
D03*
X53550D02*
D03*
X54337D02*
D03*
X57487D02*
D03*
X58275D02*
D03*
X59062D02*
D03*
D178*
X1890Y30814D02*
D03*
Y32546D02*
D03*
X23390Y30814D02*
D03*
Y32546D02*
D03*
X44890Y30814D02*
D03*
Y32546D02*
D03*
D179*
X3450Y26800D02*
D03*
X24950D02*
D03*
X46450D02*
D03*
D180*
X4250Y38050D02*
D03*
X8975D02*
D03*
X13700D02*
D03*
X25750D02*
D03*
X30475D02*
D03*
X35200D02*
D03*
X47250D02*
D03*
X51975D02*
D03*
X56700D02*
D03*
D181*
X19350Y35300D02*
D03*
X18350D02*
D03*
X19350Y36500D02*
D03*
X18350D02*
D03*
X19350Y32900D02*
D03*
X18350D02*
D03*
X19350Y34100D02*
D03*
X18350D02*
D03*
X19350Y30500D02*
D03*
X18350D02*
D03*
X19350Y31700D02*
D03*
X18350D02*
D03*
X19350Y28100D02*
D03*
X18350D02*
D03*
X19350Y29300D02*
D03*
X18350D02*
D03*
X18150Y24900D02*
D03*
Y25900D02*
D03*
X19350Y24900D02*
D03*
Y25900D02*
D03*
X3290Y43720D02*
D03*
Y44720D02*
D03*
X4290Y43720D02*
D03*
Y44720D02*
D03*
X5290Y43720D02*
D03*
Y44720D02*
D03*
X6290Y43720D02*
D03*
X24790D02*
D03*
Y44720D02*
D03*
X25790Y43720D02*
D03*
Y44720D02*
D03*
X26790Y43720D02*
D03*
Y44720D02*
D03*
X27790Y43720D02*
D03*
X40850Y35300D02*
D03*
X39850D02*
D03*
X40850Y36500D02*
D03*
X39850D02*
D03*
X40850Y32900D02*
D03*
X39850D02*
D03*
X40850Y34100D02*
D03*
X39850D02*
D03*
X40850Y30500D02*
D03*
X39850D02*
D03*
X40850Y31700D02*
D03*
X39850D02*
D03*
X40850Y28100D02*
D03*
X39850D02*
D03*
X40850Y29300D02*
D03*
X39850D02*
D03*
X39650Y24900D02*
D03*
Y25900D02*
D03*
X40850Y24900D02*
D03*
Y25900D02*
D03*
X62350Y35300D02*
D03*
X61350D02*
D03*
X62350Y36500D02*
D03*
X61350D02*
D03*
X62350Y32900D02*
D03*
X61350D02*
D03*
X62350Y34100D02*
D03*
X61350D02*
D03*
X62350Y30500D02*
D03*
X61350D02*
D03*
X62350Y31700D02*
D03*
X61350D02*
D03*
X62350Y28100D02*
D03*
X61350D02*
D03*
X62350Y29300D02*
D03*
X61350D02*
D03*
X61150Y24900D02*
D03*
Y25900D02*
D03*
X62350Y24900D02*
D03*
Y25900D02*
D03*
X46290Y43720D02*
D03*
Y44720D02*
D03*
X47290Y43720D02*
D03*
Y44720D02*
D03*
X48290Y43720D02*
D03*
Y44720D02*
D03*
X49290Y43720D02*
D03*
D182*
X17350Y35300D02*
D03*
Y36500D02*
D03*
Y32900D02*
D03*
Y34100D02*
D03*
Y30500D02*
D03*
Y31700D02*
D03*
Y28100D02*
D03*
Y29300D02*
D03*
X6290Y44720D02*
D03*
X27790D02*
D03*
X38850Y35300D02*
D03*
Y36500D02*
D03*
Y32900D02*
D03*
Y34100D02*
D03*
Y30500D02*
D03*
Y31700D02*
D03*
Y28100D02*
D03*
Y29300D02*
D03*
X60350Y35300D02*
D03*
Y36500D02*
D03*
Y32900D02*
D03*
Y34100D02*
D03*
Y30500D02*
D03*
Y31700D02*
D03*
Y28100D02*
D03*
Y29300D02*
D03*
X49290Y44720D02*
D03*
D183*
X18150Y26900D02*
D03*
X19350D02*
D03*
X39650D02*
D03*
X40850D02*
D03*
X61150D02*
D03*
X62350D02*
D03*
D184*
X2740Y79230D02*
D03*
X24240D02*
D03*
X45740D02*
D03*
D185*
X2740Y80230D02*
D03*
Y81230D02*
D03*
Y82230D02*
D03*
X15640Y83620D02*
D03*
X14640D02*
D03*
X13640D02*
D03*
X24240Y80230D02*
D03*
Y81230D02*
D03*
Y82230D02*
D03*
X37140Y83620D02*
D03*
X36140D02*
D03*
X35140D02*
D03*
X45740Y80230D02*
D03*
Y81230D02*
D03*
Y82230D02*
D03*
X58640Y83620D02*
D03*
X57640D02*
D03*
X56640D02*
D03*
D186*
X16640D02*
D03*
X38140D02*
D03*
X59640D02*
D03*
M02*
