%FSLAX23Y23*%
%MOIN*%
G70*
G01*
G75*
%ADD10C,0.018*%
%ADD11R,0.031X0.037*%
%ADD12R,0.037X0.031*%
%ADD13C,0.010*%
%ADD14R,0.051X0.031*%
%ADD15O,0.087X0.024*%
%ADD16R,0.029X0.073*%
%ADD17R,0.039X0.039*%
%ADD18R,0.033X0.014*%
%ADD19R,0.033X0.014*%
G04:AMPARAMS|DCode=20|XSize=228mil|YSize=83mil|CornerRadius=21mil|HoleSize=0mil|Usage=FLASHONLY|Rotation=180.000|XOffset=0mil|YOffset=0mil|HoleType=Round|Shape=RoundedRectangle|*
%AMROUNDEDRECTD20*
21,1,0.228,0.041,0,0,180.0*
21,1,0.187,0.083,0,0,180.0*
1,1,0.041,-0.094,0.021*
1,1,0.041,0.094,0.021*
1,1,0.041,0.094,-0.021*
1,1,0.041,-0.094,-0.021*
%
%ADD20ROUNDEDRECTD20*%
%ADD21R,0.079X0.063*%
%ADD22R,0.110X0.055*%
%ADD23R,0.122X0.118*%
%ADD24O,0.014X0.065*%
%ADD25O,0.069X0.012*%
%ADD26O,0.012X0.069*%
%ADD27R,0.031X0.051*%
%ADD28O,0.022X0.071*%
%ADD29O,0.071X0.022*%
%ADD30R,0.039X0.039*%
%ADD31R,0.217X0.079*%
%ADD32C,0.012*%
%ADD33C,0.020*%
%ADD34C,0.025*%
%ADD35C,0.008*%
%ADD36C,0.035*%
%ADD37R,0.026X0.033*%
%ADD38R,0.045X0.024*%
%ADD39R,0.024X0.045*%
%ADD40R,0.026X0.087*%
%ADD41R,0.130X0.087*%
%ADD42R,0.053X0.020*%
%ADD43R,0.014X0.020*%
%ADD44R,0.020X0.014*%
%ADD45R,0.077X0.077*%
%ADD46R,0.287X0.287*%
%ADD47C,0.015*%
%ADD48C,0.006*%
%ADD49R,0.037X0.030*%
%ADD50R,0.035X0.030*%
%ADD51R,0.030X0.035*%
%ADD52R,0.030X0.037*%
%ADD53R,0.035X0.031*%
%ADD54R,0.031X0.035*%
%ADD55R,0.089X0.020*%
%ADD56R,0.098X0.069*%
%ADD57R,0.138X0.069*%
%ADD58O,0.010X0.033*%
%ADD59O,0.033X0.010*%
%ADD60R,0.301X0.301*%
%ADD61O,0.067X0.014*%
%ADD62R,0.047X0.022*%
%ADD63O,0.063X0.014*%
%ADD64C,0.030*%
%ADD65C,0.016*%
%ADD66P,0.426X4X360.0*%
G04:AMPARAMS|DCode=67|XSize=10mil|YSize=33mil|CornerRadius=0mil|HoleSize=0mil|Usage=FLASHONLY|Rotation=315.000|XOffset=0mil|YOffset=0mil|HoleType=Round|Shape=Round|*
%AMOVALD67*
21,1,0.024,0.010,0.000,0.000,45.0*
1,1,0.010,-0.008,-0.008*
1,1,0.010,0.008,0.008*
%
%ADD67OVALD67*%

G04:AMPARAMS|DCode=68|XSize=10mil|YSize=33mil|CornerRadius=0mil|HoleSize=0mil|Usage=FLASHONLY|Rotation=45.000|XOffset=0mil|YOffset=0mil|HoleType=Round|Shape=Round|*
%AMOVALD68*
21,1,0.024,0.010,0.000,0.000,135.0*
1,1,0.010,0.008,-0.008*
1,1,0.010,-0.008,0.008*
%
%ADD68OVALD68*%

G04:AMPARAMS|DCode=69|XSize=37mil|YSize=31mil|CornerRadius=0mil|HoleSize=0mil|Usage=FLASHONLY|Rotation=45.000|XOffset=0mil|YOffset=0mil|HoleType=Round|Shape=Rectangle|*
%AMROTATEDRECTD69*
4,1,4,-0.002,-0.024,-0.024,-0.002,0.002,0.024,0.024,0.002,-0.002,-0.024,0.0*
%
%ADD69ROTATEDRECTD69*%

G04:AMPARAMS|DCode=70|XSize=37mil|YSize=31mil|CornerRadius=0mil|HoleSize=0mil|Usage=FLASHONLY|Rotation=135.000|XOffset=0mil|YOffset=0mil|HoleType=Round|Shape=Rectangle|*
%AMROTATEDRECTD70*
4,1,4,0.024,-0.002,0.002,-0.024,-0.024,0.002,-0.002,0.024,0.024,-0.002,0.0*
%
%ADD70ROTATEDRECTD70*%

%ADD71R,0.059X0.024*%
%ADD72R,0.031X0.031*%
%ADD73R,0.091X0.142*%
%ADD74C,0.018*%
%ADD75C,0.050*%
%ADD76C,0.025*%
%ADD77C,0.035*%
%ADD78C,0.096*%
%ADD79R,0.059X0.059*%
%ADD80C,0.059*%
%ADD81C,0.050*%
%ADD82C,0.045*%
%ADD83R,0.059X0.059*%
%ADD84C,0.060*%
%ADD85R,0.060X0.060*%
%ADD86R,0.060X0.060*%
%ADD87C,0.046*%
%ADD88C,0.040*%
%ADD89C,0.030*%
%ADD90C,0.039*%
%ADD91C,0.032*%
%ADD92R,6.414X0.076*%
%ADD93R,6.401X0.076*%
%ADD94R,6.406X0.061*%
%ADD95R,0.098X7.393*%
%ADD96R,0.315X0.039*%
%ADD97R,0.047X0.026*%
%ADD98C,0.024*%
%ADD99C,0.040*%
%ADD100R,0.201X0.018*%
%ADD101R,0.218X0.083*%
%ADD102R,0.026X0.047*%
%ADD103R,0.126X0.126*%
%ADD104R,0.012X0.037*%
%ADD105R,0.037X0.012*%
%ADD106R,0.022X0.047*%
D10*
X6629Y5273D02*
D03*
Y5304D02*
D03*
Y5336D02*
D03*
Y5367D02*
D03*
Y5399D02*
D03*
X6661Y5242D02*
D03*
Y5304D02*
D03*
Y5336D02*
D03*
Y5367D02*
D03*
Y5430D02*
D03*
X6692Y5242D02*
D03*
Y5273D02*
D03*
Y5399D02*
D03*
Y5430D02*
D03*
X6724Y5242D02*
D03*
Y5273D02*
D03*
Y5399D02*
D03*
Y5430D02*
D03*
X6755Y5242D02*
D03*
Y5273D02*
D03*
Y5399D02*
D03*
Y5430D02*
D03*
X6786Y5242D02*
D03*
Y5304D02*
D03*
Y5336D02*
D03*
Y5367D02*
D03*
Y5430D02*
D03*
X6818Y5273D02*
D03*
Y5304D02*
D03*
Y5336D02*
D03*
Y5367D02*
D03*
Y5399D02*
D03*
X6629Y5913D02*
D03*
Y5944D02*
D03*
Y5976D02*
D03*
Y6007D02*
D03*
Y6039D02*
D03*
X6661Y5882D02*
D03*
Y5944D02*
D03*
Y5976D02*
D03*
Y6007D02*
D03*
Y6070D02*
D03*
X6692Y5882D02*
D03*
Y5913D02*
D03*
Y6039D02*
D03*
Y6070D02*
D03*
X6724Y5882D02*
D03*
Y5913D02*
D03*
Y6039D02*
D03*
Y6070D02*
D03*
X6755Y5882D02*
D03*
Y5913D02*
D03*
Y6039D02*
D03*
Y6070D02*
D03*
X6786Y5882D02*
D03*
Y5944D02*
D03*
Y5976D02*
D03*
Y6007D02*
D03*
Y6070D02*
D03*
X6818Y5913D02*
D03*
Y5944D02*
D03*
Y5976D02*
D03*
Y6007D02*
D03*
Y6039D02*
D03*
X6629Y6553D02*
D03*
Y6584D02*
D03*
Y6616D02*
D03*
Y6647D02*
D03*
Y6679D02*
D03*
X6661Y6522D02*
D03*
Y6584D02*
D03*
Y6616D02*
D03*
Y6647D02*
D03*
Y6710D02*
D03*
X6692Y6522D02*
D03*
Y6553D02*
D03*
Y6679D02*
D03*
Y6710D02*
D03*
X6724Y6522D02*
D03*
Y6553D02*
D03*
Y6679D02*
D03*
Y6710D02*
D03*
X6755Y6522D02*
D03*
Y6553D02*
D03*
Y6679D02*
D03*
Y6710D02*
D03*
X6786Y6522D02*
D03*
Y6584D02*
D03*
Y6616D02*
D03*
Y6647D02*
D03*
Y6710D02*
D03*
X6818Y6553D02*
D03*
Y6584D02*
D03*
Y6616D02*
D03*
Y6647D02*
D03*
Y6679D02*
D03*
X6629Y7188D02*
D03*
Y7219D02*
D03*
Y7251D02*
D03*
Y7282D02*
D03*
Y7314D02*
D03*
X6661Y7157D02*
D03*
Y7219D02*
D03*
Y7251D02*
D03*
Y7282D02*
D03*
Y7345D02*
D03*
X6692Y7157D02*
D03*
Y7188D02*
D03*
Y7314D02*
D03*
Y7345D02*
D03*
X6724Y7157D02*
D03*
Y7188D02*
D03*
Y7314D02*
D03*
Y7345D02*
D03*
X6755Y7157D02*
D03*
Y7188D02*
D03*
Y7314D02*
D03*
Y7345D02*
D03*
X6786Y7157D02*
D03*
Y7219D02*
D03*
Y7251D02*
D03*
Y7282D02*
D03*
Y7345D02*
D03*
X6818Y7188D02*
D03*
Y7219D02*
D03*
Y7251D02*
D03*
Y7282D02*
D03*
Y7314D02*
D03*
X6629Y2718D02*
D03*
Y2749D02*
D03*
Y2781D02*
D03*
Y2812D02*
D03*
Y2844D02*
D03*
X6661Y2687D02*
D03*
Y2749D02*
D03*
Y2781D02*
D03*
Y2812D02*
D03*
Y2875D02*
D03*
X6692Y2687D02*
D03*
Y2718D02*
D03*
Y2844D02*
D03*
Y2875D02*
D03*
X6724Y2687D02*
D03*
Y2718D02*
D03*
Y2844D02*
D03*
Y2875D02*
D03*
X6755Y2687D02*
D03*
Y2718D02*
D03*
Y2844D02*
D03*
Y2875D02*
D03*
X6786Y2687D02*
D03*
Y2749D02*
D03*
Y2781D02*
D03*
Y2812D02*
D03*
Y2875D02*
D03*
X6818Y2718D02*
D03*
Y2749D02*
D03*
Y2781D02*
D03*
Y2812D02*
D03*
Y2844D02*
D03*
X6629Y3358D02*
D03*
Y3389D02*
D03*
Y3421D02*
D03*
Y3452D02*
D03*
Y3484D02*
D03*
X6661Y3327D02*
D03*
Y3389D02*
D03*
Y3421D02*
D03*
Y3452D02*
D03*
Y3515D02*
D03*
X6692Y3327D02*
D03*
Y3358D02*
D03*
Y3484D02*
D03*
Y3515D02*
D03*
X6724Y3327D02*
D03*
Y3358D02*
D03*
Y3484D02*
D03*
Y3515D02*
D03*
X6755Y3327D02*
D03*
Y3358D02*
D03*
Y3484D02*
D03*
Y3515D02*
D03*
X6786Y3327D02*
D03*
Y3389D02*
D03*
Y3421D02*
D03*
Y3452D02*
D03*
Y3515D02*
D03*
X6818Y3358D02*
D03*
Y3389D02*
D03*
Y3421D02*
D03*
Y3452D02*
D03*
Y3484D02*
D03*
X6629Y3998D02*
D03*
Y4029D02*
D03*
Y4061D02*
D03*
Y4092D02*
D03*
Y4124D02*
D03*
X6661Y3967D02*
D03*
Y4029D02*
D03*
Y4061D02*
D03*
Y4092D02*
D03*
Y4155D02*
D03*
X6692Y3967D02*
D03*
Y3998D02*
D03*
Y4124D02*
D03*
Y4155D02*
D03*
X6724Y3967D02*
D03*
Y3998D02*
D03*
Y4124D02*
D03*
Y4155D02*
D03*
X6755Y3967D02*
D03*
Y3998D02*
D03*
Y4124D02*
D03*
Y4155D02*
D03*
X6786Y3967D02*
D03*
Y4029D02*
D03*
Y4061D02*
D03*
Y4092D02*
D03*
Y4155D02*
D03*
X6818Y3998D02*
D03*
Y4029D02*
D03*
Y4061D02*
D03*
Y4092D02*
D03*
Y4124D02*
D03*
X6629Y4633D02*
D03*
Y4664D02*
D03*
Y4696D02*
D03*
Y4727D02*
D03*
Y4759D02*
D03*
X6661Y4602D02*
D03*
Y4664D02*
D03*
Y4696D02*
D03*
Y4727D02*
D03*
Y4790D02*
D03*
X6692Y4602D02*
D03*
Y4633D02*
D03*
Y4759D02*
D03*
Y4790D02*
D03*
X6724Y4602D02*
D03*
Y4633D02*
D03*
Y4759D02*
D03*
Y4790D02*
D03*
X6755Y4602D02*
D03*
Y4633D02*
D03*
Y4759D02*
D03*
Y4790D02*
D03*
X6786Y4602D02*
D03*
Y4664D02*
D03*
Y4696D02*
D03*
Y4727D02*
D03*
Y4790D02*
D03*
X6818Y4633D02*
D03*
Y4664D02*
D03*
Y4696D02*
D03*
Y4727D02*
D03*
Y4759D02*
D03*
X4973Y8104D02*
D03*
X4942D02*
D03*
X4910D02*
D03*
X4879D02*
D03*
X4847D02*
D03*
X5004Y8136D02*
D03*
X4942D02*
D03*
X4910D02*
D03*
X4879D02*
D03*
X4816D02*
D03*
X5004Y8167D02*
D03*
X4973D02*
D03*
X4847D02*
D03*
X4816D02*
D03*
X5004Y8198D02*
D03*
X4973D02*
D03*
X4847D02*
D03*
X4816D02*
D03*
X5004Y8230D02*
D03*
X4973D02*
D03*
X4847D02*
D03*
X4816D02*
D03*
X5004Y8261D02*
D03*
X4942D02*
D03*
X4910D02*
D03*
X4879D02*
D03*
X4816D02*
D03*
X4973Y8293D02*
D03*
X4942D02*
D03*
X4910D02*
D03*
X4879D02*
D03*
X4847D02*
D03*
X2823Y8104D02*
D03*
X2792D02*
D03*
X2760D02*
D03*
X2729D02*
D03*
X2697D02*
D03*
X2854Y8136D02*
D03*
X2792D02*
D03*
X2760D02*
D03*
X2729D02*
D03*
X2666D02*
D03*
X2854Y8167D02*
D03*
X2823D02*
D03*
X2697D02*
D03*
X2666D02*
D03*
X2854Y8198D02*
D03*
X2823D02*
D03*
X2697D02*
D03*
X2666D02*
D03*
X2854Y8230D02*
D03*
X2823D02*
D03*
X2697D02*
D03*
X2666D02*
D03*
X2854Y8261D02*
D03*
X2792D02*
D03*
X2760D02*
D03*
X2729D02*
D03*
X2666D02*
D03*
X2823Y8293D02*
D03*
X2792D02*
D03*
X2760D02*
D03*
X2729D02*
D03*
X2697D02*
D03*
X6629Y2073D02*
D03*
Y2104D02*
D03*
Y2136D02*
D03*
Y2167D02*
D03*
Y2199D02*
D03*
X6661Y2042D02*
D03*
Y2104D02*
D03*
Y2136D02*
D03*
Y2167D02*
D03*
Y2230D02*
D03*
X6692Y2042D02*
D03*
Y2073D02*
D03*
Y2199D02*
D03*
Y2230D02*
D03*
X6724Y2042D02*
D03*
Y2073D02*
D03*
Y2199D02*
D03*
Y2230D02*
D03*
X6755Y2042D02*
D03*
Y2073D02*
D03*
Y2199D02*
D03*
Y2230D02*
D03*
X6786Y2042D02*
D03*
Y2104D02*
D03*
Y2136D02*
D03*
Y2167D02*
D03*
Y2230D02*
D03*
X6818Y2073D02*
D03*
Y2104D02*
D03*
Y2136D02*
D03*
Y2167D02*
D03*
Y2199D02*
D03*
X6629Y1438D02*
D03*
Y1469D02*
D03*
Y1501D02*
D03*
Y1532D02*
D03*
Y1564D02*
D03*
X6661Y1407D02*
D03*
Y1469D02*
D03*
Y1501D02*
D03*
Y1532D02*
D03*
Y1595D02*
D03*
X6692Y1407D02*
D03*
Y1438D02*
D03*
Y1564D02*
D03*
Y1595D02*
D03*
X6724Y1407D02*
D03*
Y1438D02*
D03*
Y1564D02*
D03*
Y1595D02*
D03*
X6755Y1407D02*
D03*
Y1438D02*
D03*
Y1564D02*
D03*
Y1595D02*
D03*
X6786Y1407D02*
D03*
Y1469D02*
D03*
Y1501D02*
D03*
Y1532D02*
D03*
Y1595D02*
D03*
X6818Y1438D02*
D03*
Y1469D02*
D03*
Y1501D02*
D03*
Y1532D02*
D03*
Y1564D02*
D03*
X6629Y798D02*
D03*
Y829D02*
D03*
Y861D02*
D03*
Y892D02*
D03*
Y924D02*
D03*
X6661Y767D02*
D03*
Y829D02*
D03*
Y861D02*
D03*
Y892D02*
D03*
Y955D02*
D03*
X6692Y767D02*
D03*
Y798D02*
D03*
Y924D02*
D03*
Y955D02*
D03*
X6724Y767D02*
D03*
Y798D02*
D03*
Y924D02*
D03*
Y955D02*
D03*
X6755Y767D02*
D03*
Y798D02*
D03*
Y924D02*
D03*
Y955D02*
D03*
X6786Y767D02*
D03*
Y829D02*
D03*
Y861D02*
D03*
Y892D02*
D03*
Y955D02*
D03*
X6818Y798D02*
D03*
Y829D02*
D03*
Y861D02*
D03*
Y892D02*
D03*
Y924D02*
D03*
X6629Y158D02*
D03*
Y189D02*
D03*
Y221D02*
D03*
Y252D02*
D03*
Y284D02*
D03*
X6661Y127D02*
D03*
Y189D02*
D03*
Y221D02*
D03*
Y252D02*
D03*
Y315D02*
D03*
X6692Y127D02*
D03*
Y158D02*
D03*
Y284D02*
D03*
Y315D02*
D03*
X6724Y127D02*
D03*
Y158D02*
D03*
Y284D02*
D03*
Y315D02*
D03*
X6755Y127D02*
D03*
Y158D02*
D03*
Y284D02*
D03*
Y315D02*
D03*
X6786Y127D02*
D03*
Y189D02*
D03*
Y221D02*
D03*
Y252D02*
D03*
Y315D02*
D03*
X6818Y158D02*
D03*
Y189D02*
D03*
Y221D02*
D03*
Y252D02*
D03*
Y284D02*
D03*
X673Y8104D02*
D03*
X642D02*
D03*
X610D02*
D03*
X579D02*
D03*
X547D02*
D03*
X704Y8136D02*
D03*
X642D02*
D03*
X610D02*
D03*
X579D02*
D03*
X516D02*
D03*
X704Y8167D02*
D03*
X673D02*
D03*
X547D02*
D03*
X516D02*
D03*
X704Y8198D02*
D03*
X673D02*
D03*
X547D02*
D03*
X516D02*
D03*
X704Y8230D02*
D03*
X673D02*
D03*
X547D02*
D03*
X516D02*
D03*
X704Y8261D02*
D03*
X642D02*
D03*
X610D02*
D03*
X579D02*
D03*
X516D02*
D03*
X673Y8293D02*
D03*
X642D02*
D03*
X610D02*
D03*
X579D02*
D03*
X547D02*
D03*
D11*
X6735Y5533D02*
D03*
X6795D02*
D03*
X6685D02*
D03*
X6625D02*
D03*
X6625Y5138D02*
D03*
X6565D02*
D03*
X6730D02*
D03*
X6670D02*
D03*
X6840D02*
D03*
X6780D02*
D03*
X6735Y6173D02*
D03*
X6795D02*
D03*
X6685D02*
D03*
X6625D02*
D03*
X6625Y5778D02*
D03*
X6565D02*
D03*
X6730D02*
D03*
X6670D02*
D03*
X6840D02*
D03*
X6780D02*
D03*
X6735Y6813D02*
D03*
X6795D02*
D03*
X6685D02*
D03*
X6625D02*
D03*
X6625Y6418D02*
D03*
X6565D02*
D03*
X6730D02*
D03*
X6670D02*
D03*
X6840D02*
D03*
X6780D02*
D03*
X6735Y7448D02*
D03*
X6795D02*
D03*
X6685D02*
D03*
X6625D02*
D03*
X6625Y7053D02*
D03*
X6565D02*
D03*
X6730D02*
D03*
X6670D02*
D03*
X6840D02*
D03*
X6780D02*
D03*
X6735Y2978D02*
D03*
X6795D02*
D03*
X6685D02*
D03*
X6625D02*
D03*
X6625Y2583D02*
D03*
X6565D02*
D03*
X6730D02*
D03*
X6670D02*
D03*
X6840D02*
D03*
X6780D02*
D03*
X6735Y3618D02*
D03*
X6795D02*
D03*
X6685D02*
D03*
X6625D02*
D03*
X6625Y3223D02*
D03*
X6565D02*
D03*
X6730D02*
D03*
X6670D02*
D03*
X6840D02*
D03*
X6780D02*
D03*
X6735Y4258D02*
D03*
X6795D02*
D03*
X6685D02*
D03*
X6625D02*
D03*
X6625Y3863D02*
D03*
X6565D02*
D03*
X6730D02*
D03*
X6670D02*
D03*
X6840D02*
D03*
X6780D02*
D03*
X6735Y4893D02*
D03*
X6795D02*
D03*
X6685D02*
D03*
X6625D02*
D03*
X6625Y4498D02*
D03*
X6565D02*
D03*
X6730D02*
D03*
X6670D02*
D03*
X6840D02*
D03*
X6780D02*
D03*
X5100Y5254D02*
D03*
X5040D02*
D03*
X4442Y4795D02*
D03*
X4502D02*
D03*
X5280Y5458D02*
D03*
X5220D02*
D03*
X5528Y6092D02*
D03*
X5588D02*
D03*
X6126Y4629D02*
D03*
X6066D02*
D03*
X5882Y4998D02*
D03*
X5822D02*
D03*
X4746Y4792D02*
D03*
X4806D02*
D03*
X4679D02*
D03*
X4619D02*
D03*
X5038Y5128D02*
D03*
X5098D02*
D03*
X5932Y5761D02*
D03*
X5872D02*
D03*
X5931Y5860D02*
D03*
X5871D02*
D03*
X5932Y5973D02*
D03*
X5872D02*
D03*
X5677Y6091D02*
D03*
X5737D02*
D03*
X5251Y5876D02*
D03*
X5311D02*
D03*
X4810Y5921D02*
D03*
X4870D02*
D03*
X5382Y5739D02*
D03*
X5442D02*
D03*
X4990Y6632D02*
D03*
X5050D02*
D03*
X5331Y8137D02*
D03*
X5391D02*
D03*
X5243Y7848D02*
D03*
X5303D02*
D03*
X5243Y7897D02*
D03*
X5303D02*
D03*
X5273Y7663D02*
D03*
X5333D02*
D03*
X5273Y7614D02*
D03*
X5333D02*
D03*
X5675Y7421D02*
D03*
X5615D02*
D03*
X4982Y7758D02*
D03*
X4922D02*
D03*
X4695Y6847D02*
D03*
X4755D02*
D03*
X4596D02*
D03*
X4536D02*
D03*
X6004Y6846D02*
D03*
X6064D02*
D03*
X5906D02*
D03*
X5846D02*
D03*
X5892Y6976D02*
D03*
X5952D02*
D03*
X5280Y7425D02*
D03*
X5220D02*
D03*
X4608Y7192D02*
D03*
X4668D02*
D03*
X4668Y7240D02*
D03*
X4608D02*
D03*
X4738Y7239D02*
D03*
X4798D02*
D03*
X4967Y7256D02*
D03*
X4907D02*
D03*
X4967Y7304D02*
D03*
X4907D02*
D03*
X4967Y7382D02*
D03*
X4907D02*
D03*
X4967Y7430D02*
D03*
X4907D02*
D03*
X4967Y7478D02*
D03*
X4907D02*
D03*
X4967Y7528D02*
D03*
X4907D02*
D03*
X4737Y7698D02*
D03*
X4797D02*
D03*
Y7748D02*
D03*
X4737D02*
D03*
X4612Y7698D02*
D03*
X4672D02*
D03*
Y7748D02*
D03*
X4612D02*
D03*
X4537Y7267D02*
D03*
X4477D02*
D03*
X4535Y7315D02*
D03*
X4475D02*
D03*
X4533Y7385D02*
D03*
X4473D02*
D03*
X4533Y7433D02*
D03*
X4473D02*
D03*
X4532Y7493D02*
D03*
X4472D02*
D03*
X4532Y7541D02*
D03*
X4472D02*
D03*
X4536Y7638D02*
D03*
X4476D02*
D03*
X4537Y7688D02*
D03*
X4477D02*
D03*
X4798Y7191D02*
D03*
X4738D02*
D03*
X4967Y7619D02*
D03*
X4907D02*
D03*
X4967Y7669D02*
D03*
X4907D02*
D03*
X4840Y8396D02*
D03*
X4780D02*
D03*
X4905D02*
D03*
X4965D02*
D03*
X4960Y8001D02*
D03*
X5020D02*
D03*
X4881Y8002D02*
D03*
X4821D02*
D03*
X5364Y8389D02*
D03*
X5304D02*
D03*
X2840Y6632D02*
D03*
X2900D02*
D03*
X3181Y8137D02*
D03*
X3241D02*
D03*
X3093Y7848D02*
D03*
X3153D02*
D03*
X3093Y7897D02*
D03*
X3153D02*
D03*
X3123Y7663D02*
D03*
X3183D02*
D03*
X3123Y7614D02*
D03*
X3183D02*
D03*
X3525Y7421D02*
D03*
X3465D02*
D03*
X2832Y7758D02*
D03*
X2772D02*
D03*
X2545Y6847D02*
D03*
X2605D02*
D03*
X2446D02*
D03*
X2386D02*
D03*
X3854Y6846D02*
D03*
X3914D02*
D03*
X3756D02*
D03*
X3696D02*
D03*
X3742Y6976D02*
D03*
X3802D02*
D03*
X3130Y7425D02*
D03*
X3070D02*
D03*
X2458Y7192D02*
D03*
X2518D02*
D03*
X2518Y7240D02*
D03*
X2458D02*
D03*
X2588Y7239D02*
D03*
X2648D02*
D03*
X2817Y7256D02*
D03*
X2757D02*
D03*
X2817Y7304D02*
D03*
X2757D02*
D03*
X2817Y7382D02*
D03*
X2757D02*
D03*
X2817Y7430D02*
D03*
X2757D02*
D03*
X2817Y7478D02*
D03*
X2757D02*
D03*
X2817Y7528D02*
D03*
X2757D02*
D03*
X2587Y7698D02*
D03*
X2647D02*
D03*
Y7748D02*
D03*
X2587D02*
D03*
X2462Y7698D02*
D03*
X2522D02*
D03*
Y7748D02*
D03*
X2462D02*
D03*
X2387Y7267D02*
D03*
X2327D02*
D03*
X2385Y7315D02*
D03*
X2325D02*
D03*
X2383Y7385D02*
D03*
X2323D02*
D03*
X2383Y7433D02*
D03*
X2323D02*
D03*
X2382Y7493D02*
D03*
X2322D02*
D03*
X2382Y7541D02*
D03*
X2322D02*
D03*
X2386Y7638D02*
D03*
X2326D02*
D03*
X2387Y7688D02*
D03*
X2327D02*
D03*
X2648Y7191D02*
D03*
X2588D02*
D03*
X2817Y7619D02*
D03*
X2757D02*
D03*
X2817Y7669D02*
D03*
X2757D02*
D03*
X2690Y8396D02*
D03*
X2630D02*
D03*
X2755D02*
D03*
X2815D02*
D03*
X2810Y8001D02*
D03*
X2870D02*
D03*
X2731Y8002D02*
D03*
X2671D02*
D03*
X3214Y8389D02*
D03*
X3154D02*
D03*
X2950Y5254D02*
D03*
X2890D02*
D03*
X2292Y4795D02*
D03*
X2352D02*
D03*
X3130Y5458D02*
D03*
X3070D02*
D03*
X3378Y6092D02*
D03*
X3438D02*
D03*
X3976Y4629D02*
D03*
X3916D02*
D03*
X3732Y4998D02*
D03*
X3672D02*
D03*
X2596Y4792D02*
D03*
X2656D02*
D03*
X2529D02*
D03*
X2469D02*
D03*
X2888Y5128D02*
D03*
X2948D02*
D03*
X3782Y5761D02*
D03*
X3722D02*
D03*
X3781Y5860D02*
D03*
X3721D02*
D03*
X3782Y5973D02*
D03*
X3722D02*
D03*
X3527Y6091D02*
D03*
X3587D02*
D03*
X3101Y5876D02*
D03*
X3161D02*
D03*
X2660Y5921D02*
D03*
X2720D02*
D03*
X3232Y5739D02*
D03*
X3292D02*
D03*
X6735Y2333D02*
D03*
X6795D02*
D03*
X6685D02*
D03*
X6625D02*
D03*
X6625Y1938D02*
D03*
X6565D02*
D03*
X6730D02*
D03*
X6670D02*
D03*
X6840D02*
D03*
X6780D02*
D03*
X6735Y1698D02*
D03*
X6795D02*
D03*
X6685D02*
D03*
X6625D02*
D03*
X6625Y1303D02*
D03*
X6565D02*
D03*
X6730D02*
D03*
X6670D02*
D03*
X6840D02*
D03*
X6780D02*
D03*
X6735Y1058D02*
D03*
X6795D02*
D03*
X6685D02*
D03*
X6625D02*
D03*
X6625Y663D02*
D03*
X6565D02*
D03*
X6730D02*
D03*
X6670D02*
D03*
X6840D02*
D03*
X6780D02*
D03*
X6735Y418D02*
D03*
X6795D02*
D03*
X6685D02*
D03*
X6625D02*
D03*
X6625Y23D02*
D03*
X6565D02*
D03*
X6730D02*
D03*
X6670D02*
D03*
X6840D02*
D03*
X6780D02*
D03*
X800Y5254D02*
D03*
X740D02*
D03*
X142Y4795D02*
D03*
X202D02*
D03*
X980Y5458D02*
D03*
X920D02*
D03*
X1228Y6092D02*
D03*
X1288D02*
D03*
X1826Y4629D02*
D03*
X1766D02*
D03*
X1582Y4998D02*
D03*
X1522D02*
D03*
X446Y4792D02*
D03*
X506D02*
D03*
X379D02*
D03*
X319D02*
D03*
X738Y5128D02*
D03*
X798D02*
D03*
X1632Y5761D02*
D03*
X1572D02*
D03*
X1631Y5860D02*
D03*
X1571D02*
D03*
X1632Y5973D02*
D03*
X1572D02*
D03*
X1377Y6091D02*
D03*
X1437D02*
D03*
X951Y5876D02*
D03*
X1011D02*
D03*
X510Y5921D02*
D03*
X570D02*
D03*
X1082Y5739D02*
D03*
X1142D02*
D03*
X690Y6632D02*
D03*
X750D02*
D03*
X1031Y8137D02*
D03*
X1091D02*
D03*
X943Y7848D02*
D03*
X1003D02*
D03*
X943Y7897D02*
D03*
X1003D02*
D03*
X973Y7663D02*
D03*
X1033D02*
D03*
X973Y7614D02*
D03*
X1033D02*
D03*
X1375Y7421D02*
D03*
X1315D02*
D03*
X682Y7758D02*
D03*
X622D02*
D03*
X395Y6847D02*
D03*
X455D02*
D03*
X296D02*
D03*
X236D02*
D03*
X1704Y6846D02*
D03*
X1764D02*
D03*
X1606D02*
D03*
X1546D02*
D03*
X1592Y6976D02*
D03*
X1652D02*
D03*
X980Y7425D02*
D03*
X920D02*
D03*
X308Y7192D02*
D03*
X368D02*
D03*
X368Y7240D02*
D03*
X308D02*
D03*
X438Y7239D02*
D03*
X498D02*
D03*
X667Y7256D02*
D03*
X607D02*
D03*
X667Y7304D02*
D03*
X607D02*
D03*
X667Y7382D02*
D03*
X607D02*
D03*
X667Y7430D02*
D03*
X607D02*
D03*
X667Y7478D02*
D03*
X607D02*
D03*
X667Y7528D02*
D03*
X607D02*
D03*
X437Y7698D02*
D03*
X497D02*
D03*
Y7748D02*
D03*
X437D02*
D03*
X312Y7698D02*
D03*
X372D02*
D03*
Y7748D02*
D03*
X312D02*
D03*
X237Y7267D02*
D03*
X177D02*
D03*
X235Y7315D02*
D03*
X175D02*
D03*
X233Y7385D02*
D03*
X173D02*
D03*
X233Y7433D02*
D03*
X173D02*
D03*
X232Y7493D02*
D03*
X172D02*
D03*
X232Y7541D02*
D03*
X172D02*
D03*
X236Y7638D02*
D03*
X176D02*
D03*
X237Y7688D02*
D03*
X177D02*
D03*
X498Y7191D02*
D03*
X438D02*
D03*
X667Y7619D02*
D03*
X607D02*
D03*
X667Y7669D02*
D03*
X607D02*
D03*
X540Y8396D02*
D03*
X480D02*
D03*
X605D02*
D03*
X665D02*
D03*
X660Y8001D02*
D03*
X720D02*
D03*
X581Y8002D02*
D03*
X521D02*
D03*
X1064Y8389D02*
D03*
X1004D02*
D03*
D12*
X6525Y5378D02*
D03*
Y5438D02*
D03*
Y5313D02*
D03*
Y5253D02*
D03*
X6920Y5353D02*
D03*
Y5293D02*
D03*
Y5428D02*
D03*
Y5488D02*
D03*
X6525Y6018D02*
D03*
Y6078D02*
D03*
Y5953D02*
D03*
Y5893D02*
D03*
X6920Y5993D02*
D03*
Y5933D02*
D03*
Y6068D02*
D03*
Y6128D02*
D03*
X6525Y6658D02*
D03*
Y6718D02*
D03*
Y6593D02*
D03*
Y6533D02*
D03*
X6920Y6633D02*
D03*
Y6573D02*
D03*
Y6708D02*
D03*
Y6768D02*
D03*
X6525Y7293D02*
D03*
Y7353D02*
D03*
Y7228D02*
D03*
Y7168D02*
D03*
X6920Y7268D02*
D03*
Y7208D02*
D03*
Y7343D02*
D03*
Y7403D02*
D03*
X6525Y2823D02*
D03*
Y2883D02*
D03*
Y2758D02*
D03*
Y2698D02*
D03*
X6920Y2798D02*
D03*
Y2738D02*
D03*
Y2873D02*
D03*
Y2933D02*
D03*
X6525Y3463D02*
D03*
Y3523D02*
D03*
Y3398D02*
D03*
Y3338D02*
D03*
X6920Y3438D02*
D03*
Y3378D02*
D03*
Y3513D02*
D03*
Y3573D02*
D03*
X6525Y4103D02*
D03*
Y4163D02*
D03*
Y4038D02*
D03*
Y3978D02*
D03*
X6920Y4078D02*
D03*
Y4018D02*
D03*
Y4153D02*
D03*
Y4213D02*
D03*
X6525Y4738D02*
D03*
Y4798D02*
D03*
Y4673D02*
D03*
Y4613D02*
D03*
X6920Y4713D02*
D03*
Y4653D02*
D03*
Y4788D02*
D03*
Y4848D02*
D03*
X4501Y5473D02*
D03*
Y5533D02*
D03*
X4615Y5479D02*
D03*
Y5539D02*
D03*
X4666Y5479D02*
D03*
Y5539D02*
D03*
X4831Y6071D02*
D03*
Y6011D02*
D03*
X4767Y6071D02*
D03*
Y6011D02*
D03*
X4515Y5740D02*
D03*
Y5800D02*
D03*
X4438Y5740D02*
D03*
Y5800D02*
D03*
X4363Y5740D02*
D03*
Y5800D02*
D03*
X5176Y4666D02*
D03*
Y4606D02*
D03*
X5227Y4666D02*
D03*
Y4606D02*
D03*
X5276Y4666D02*
D03*
Y4606D02*
D03*
X5325Y4666D02*
D03*
Y4606D02*
D03*
X5376Y4666D02*
D03*
Y4606D02*
D03*
X5425Y4666D02*
D03*
Y4606D02*
D03*
X6185Y4890D02*
D03*
Y4830D02*
D03*
X5352Y5458D02*
D03*
Y5398D02*
D03*
X5710Y4814D02*
D03*
Y4754D02*
D03*
X6185Y4697D02*
D03*
Y4757D02*
D03*
X5991Y5081D02*
D03*
Y5021D02*
D03*
X6068Y5079D02*
D03*
Y5019D02*
D03*
X5126Y4666D02*
D03*
Y4606D02*
D03*
X5474Y4666D02*
D03*
Y4606D02*
D03*
X4343Y5031D02*
D03*
Y5091D02*
D03*
X4876Y5471D02*
D03*
Y5531D02*
D03*
X5440Y6023D02*
D03*
Y5963D02*
D03*
X4769Y5759D02*
D03*
Y5819D02*
D03*
X4831Y5759D02*
D03*
Y5819D02*
D03*
X5245Y6134D02*
D03*
Y6074D02*
D03*
X5723Y5485D02*
D03*
Y5545D02*
D03*
X5425Y5793D02*
D03*
Y5853D02*
D03*
X5312Y5762D02*
D03*
Y5822D02*
D03*
X5251Y5762D02*
D03*
Y5822D02*
D03*
X4993Y6242D02*
D03*
Y6182D02*
D03*
X5109Y6243D02*
D03*
Y6183D02*
D03*
X5051Y6182D02*
D03*
Y6242D02*
D03*
X5694Y4400D02*
D03*
Y4460D02*
D03*
X5167Y7814D02*
D03*
Y7754D02*
D03*
X5410Y7667D02*
D03*
Y7607D02*
D03*
X5377Y7814D02*
D03*
Y7754D02*
D03*
X5562Y7426D02*
D03*
Y7486D02*
D03*
X5499Y7426D02*
D03*
Y7486D02*
D03*
X5733Y7264D02*
D03*
Y7324D02*
D03*
X5786Y7196D02*
D03*
Y7256D02*
D03*
X5734Y7183D02*
D03*
Y7123D02*
D03*
X5377Y6773D02*
D03*
Y6833D02*
D03*
X5327D02*
D03*
Y6773D02*
D03*
X5154Y7183D02*
D03*
Y7123D02*
D03*
X5158Y7323D02*
D03*
Y7263D02*
D03*
X5102Y7258D02*
D03*
Y7198D02*
D03*
X4864Y7918D02*
D03*
Y7858D02*
D03*
X4816Y7859D02*
D03*
Y7919D02*
D03*
X6054Y7012D02*
D03*
Y7072D02*
D03*
X5791Y6708D02*
D03*
Y6768D02*
D03*
X6142Y6708D02*
D03*
Y6768D02*
D03*
X6197D02*
D03*
Y6708D02*
D03*
X5403Y7426D02*
D03*
Y7486D02*
D03*
X5340Y7485D02*
D03*
Y7425D02*
D03*
X6019Y7829D02*
D03*
Y7769D02*
D03*
Y7954D02*
D03*
Y7894D02*
D03*
X5513Y7958D02*
D03*
Y7898D02*
D03*
X5560Y7828D02*
D03*
Y7768D02*
D03*
X6009Y8029D02*
D03*
Y8089D02*
D03*
X6069Y7769D02*
D03*
Y7829D02*
D03*
X5990Y7599D02*
D03*
Y7659D02*
D03*
X5940Y7599D02*
D03*
Y7659D02*
D03*
X5959Y8029D02*
D03*
Y8089D02*
D03*
X5862Y8029D02*
D03*
Y8089D02*
D03*
X5849Y7599D02*
D03*
Y7659D02*
D03*
X5799Y7599D02*
D03*
Y7659D02*
D03*
X5814Y8029D02*
D03*
Y8089D02*
D03*
X6069Y7894D02*
D03*
Y7954D02*
D03*
X5754Y8029D02*
D03*
Y8089D02*
D03*
X5561Y7898D02*
D03*
Y7958D02*
D03*
X5751Y7599D02*
D03*
Y7659D02*
D03*
X5703Y7599D02*
D03*
Y7659D02*
D03*
X5706Y8029D02*
D03*
Y8089D02*
D03*
X5636Y8029D02*
D03*
Y8089D02*
D03*
X5625Y7599D02*
D03*
Y7659D02*
D03*
X5577Y7599D02*
D03*
Y7659D02*
D03*
X5588Y8029D02*
D03*
Y8089D02*
D03*
X5512Y7768D02*
D03*
Y7828D02*
D03*
X5108Y8068D02*
D03*
Y8128D02*
D03*
X4708Y8217D02*
D03*
Y8277D02*
D03*
Y8157D02*
D03*
Y8097D02*
D03*
X5108Y8361D02*
D03*
Y8301D02*
D03*
Y8246D02*
D03*
Y8186D02*
D03*
X5219Y8363D02*
D03*
Y8303D02*
D03*
X5477Y8363D02*
D03*
Y8303D02*
D03*
Y8187D02*
D03*
Y8247D02*
D03*
X4906Y449D02*
D03*
Y509D02*
D03*
X4915Y1385D02*
D03*
Y1445D02*
D03*
X4905Y678D02*
D03*
Y738D02*
D03*
X4914Y1614D02*
D03*
Y1674D02*
D03*
X4905Y218D02*
D03*
Y278D02*
D03*
X4914Y1154D02*
D03*
Y1214D02*
D03*
X4740Y745D02*
D03*
Y805D02*
D03*
X4749Y1681D02*
D03*
Y1741D02*
D03*
X4740Y518D02*
D03*
Y578D02*
D03*
X4749Y1454D02*
D03*
Y1514D02*
D03*
X4742Y282D02*
D03*
Y342D02*
D03*
X4751Y1218D02*
D03*
Y1278D02*
D03*
X4953Y736D02*
D03*
Y796D02*
D03*
X4962Y1672D02*
D03*
Y1732D02*
D03*
X4954Y505D02*
D03*
Y565D02*
D03*
X4963Y1441D02*
D03*
Y1501D02*
D03*
X4953Y269D02*
D03*
Y329D02*
D03*
X4962Y1205D02*
D03*
Y1265D02*
D03*
X4808Y679D02*
D03*
Y739D02*
D03*
X4817Y1615D02*
D03*
Y1675D02*
D03*
X4809Y449D02*
D03*
Y509D02*
D03*
X4818Y1385D02*
D03*
Y1445D02*
D03*
X4810Y218D02*
D03*
Y278D02*
D03*
X4819Y1154D02*
D03*
Y1214D02*
D03*
X4857Y450D02*
D03*
Y510D02*
D03*
X4866Y1386D02*
D03*
Y1446D02*
D03*
X5003Y1018D02*
D03*
Y958D02*
D03*
X4857Y679D02*
D03*
Y739D02*
D03*
X4866Y1615D02*
D03*
Y1675D02*
D03*
X4858Y218D02*
D03*
Y278D02*
D03*
X4867Y1154D02*
D03*
Y1214D02*
D03*
X5634Y937D02*
D03*
Y997D02*
D03*
X5630Y1094D02*
D03*
Y1034D02*
D03*
X2756Y449D02*
D03*
Y509D02*
D03*
X2765Y1385D02*
D03*
Y1445D02*
D03*
X2755Y678D02*
D03*
Y738D02*
D03*
X2764Y1614D02*
D03*
Y1674D02*
D03*
X2755Y218D02*
D03*
Y278D02*
D03*
X2764Y1154D02*
D03*
Y1214D02*
D03*
X2590Y745D02*
D03*
Y805D02*
D03*
X2599Y1681D02*
D03*
Y1741D02*
D03*
X2590Y518D02*
D03*
Y578D02*
D03*
X2599Y1454D02*
D03*
Y1514D02*
D03*
X2592Y282D02*
D03*
Y342D02*
D03*
X2601Y1218D02*
D03*
Y1278D02*
D03*
X2803Y736D02*
D03*
Y796D02*
D03*
X2812Y1672D02*
D03*
Y1732D02*
D03*
X2804Y505D02*
D03*
Y565D02*
D03*
X2813Y1441D02*
D03*
Y1501D02*
D03*
X2803Y269D02*
D03*
Y329D02*
D03*
X2812Y1205D02*
D03*
Y1265D02*
D03*
X2658Y679D02*
D03*
Y739D02*
D03*
X2667Y1615D02*
D03*
Y1675D02*
D03*
X2659Y449D02*
D03*
Y509D02*
D03*
X2668Y1385D02*
D03*
Y1445D02*
D03*
X2660Y218D02*
D03*
Y278D02*
D03*
X2669Y1154D02*
D03*
Y1214D02*
D03*
X2707Y450D02*
D03*
Y510D02*
D03*
X2716Y1386D02*
D03*
Y1446D02*
D03*
X2853Y1018D02*
D03*
Y958D02*
D03*
X2707Y679D02*
D03*
Y739D02*
D03*
X2716Y1615D02*
D03*
Y1675D02*
D03*
X2708Y218D02*
D03*
Y278D02*
D03*
X2717Y1154D02*
D03*
Y1214D02*
D03*
X3484Y937D02*
D03*
Y997D02*
D03*
X3480Y1094D02*
D03*
Y1034D02*
D03*
X3017Y7814D02*
D03*
Y7754D02*
D03*
X3260Y7667D02*
D03*
Y7607D02*
D03*
X3227Y7814D02*
D03*
Y7754D02*
D03*
X3412Y7426D02*
D03*
Y7486D02*
D03*
X3349Y7426D02*
D03*
Y7486D02*
D03*
X3583Y7264D02*
D03*
Y7324D02*
D03*
X3636Y7196D02*
D03*
Y7256D02*
D03*
X3584Y7183D02*
D03*
Y7123D02*
D03*
X3227Y6773D02*
D03*
Y6833D02*
D03*
X3177D02*
D03*
Y6773D02*
D03*
X3004Y7183D02*
D03*
Y7123D02*
D03*
X3008Y7323D02*
D03*
Y7263D02*
D03*
X2952Y7258D02*
D03*
Y7198D02*
D03*
X2714Y7918D02*
D03*
Y7858D02*
D03*
X2666Y7859D02*
D03*
Y7919D02*
D03*
X3904Y7012D02*
D03*
Y7072D02*
D03*
X3641Y6708D02*
D03*
Y6768D02*
D03*
X3992Y6708D02*
D03*
Y6768D02*
D03*
X4047D02*
D03*
Y6708D02*
D03*
X3253Y7426D02*
D03*
Y7486D02*
D03*
X3190Y7485D02*
D03*
Y7425D02*
D03*
X3869Y7829D02*
D03*
Y7769D02*
D03*
Y7954D02*
D03*
Y7894D02*
D03*
X3363Y7958D02*
D03*
Y7898D02*
D03*
X3410Y7828D02*
D03*
Y7768D02*
D03*
X3859Y8029D02*
D03*
Y8089D02*
D03*
X3919Y7769D02*
D03*
Y7829D02*
D03*
X3840Y7599D02*
D03*
Y7659D02*
D03*
X3790Y7599D02*
D03*
Y7659D02*
D03*
X3809Y8029D02*
D03*
Y8089D02*
D03*
X3712Y8029D02*
D03*
Y8089D02*
D03*
X3699Y7599D02*
D03*
Y7659D02*
D03*
X3649Y7599D02*
D03*
Y7659D02*
D03*
X3664Y8029D02*
D03*
Y8089D02*
D03*
X3919Y7894D02*
D03*
Y7954D02*
D03*
X3604Y8029D02*
D03*
Y8089D02*
D03*
X3411Y7898D02*
D03*
Y7958D02*
D03*
X3601Y7599D02*
D03*
Y7659D02*
D03*
X3553Y7599D02*
D03*
Y7659D02*
D03*
X3556Y8029D02*
D03*
Y8089D02*
D03*
X3486Y8029D02*
D03*
Y8089D02*
D03*
X3475Y7599D02*
D03*
Y7659D02*
D03*
X3427Y7599D02*
D03*
Y7659D02*
D03*
X3438Y8029D02*
D03*
Y8089D02*
D03*
X3362Y7768D02*
D03*
Y7828D02*
D03*
X2958Y8068D02*
D03*
Y8128D02*
D03*
X2558Y8217D02*
D03*
Y8277D02*
D03*
Y8157D02*
D03*
Y8097D02*
D03*
X2958Y8361D02*
D03*
Y8301D02*
D03*
Y8246D02*
D03*
Y8186D02*
D03*
X3069Y8363D02*
D03*
Y8303D02*
D03*
X3327Y8363D02*
D03*
Y8303D02*
D03*
Y8187D02*
D03*
Y8247D02*
D03*
X2351Y5473D02*
D03*
Y5533D02*
D03*
X2465Y5479D02*
D03*
Y5539D02*
D03*
X2516Y5479D02*
D03*
Y5539D02*
D03*
X2681Y6071D02*
D03*
Y6011D02*
D03*
X2617Y6071D02*
D03*
Y6011D02*
D03*
X2365Y5740D02*
D03*
Y5800D02*
D03*
X2288Y5740D02*
D03*
Y5800D02*
D03*
X2213Y5740D02*
D03*
Y5800D02*
D03*
X3026Y4666D02*
D03*
Y4606D02*
D03*
X3077Y4666D02*
D03*
Y4606D02*
D03*
X3126Y4666D02*
D03*
Y4606D02*
D03*
X3175Y4666D02*
D03*
Y4606D02*
D03*
X3226Y4666D02*
D03*
Y4606D02*
D03*
X3275Y4666D02*
D03*
Y4606D02*
D03*
X4035Y4890D02*
D03*
Y4830D02*
D03*
X3202Y5458D02*
D03*
Y5398D02*
D03*
X3560Y4814D02*
D03*
Y4754D02*
D03*
X4035Y4697D02*
D03*
Y4757D02*
D03*
X3841Y5081D02*
D03*
Y5021D02*
D03*
X3918Y5079D02*
D03*
Y5019D02*
D03*
X2976Y4666D02*
D03*
Y4606D02*
D03*
X3324Y4666D02*
D03*
Y4606D02*
D03*
X2193Y5031D02*
D03*
Y5091D02*
D03*
X2726Y5471D02*
D03*
Y5531D02*
D03*
X3290Y6023D02*
D03*
Y5963D02*
D03*
X2619Y5759D02*
D03*
Y5819D02*
D03*
X2681Y5759D02*
D03*
Y5819D02*
D03*
X3095Y6134D02*
D03*
Y6074D02*
D03*
X3573Y5485D02*
D03*
Y5545D02*
D03*
X3275Y5793D02*
D03*
Y5853D02*
D03*
X3162Y5762D02*
D03*
Y5822D02*
D03*
X3101Y5762D02*
D03*
Y5822D02*
D03*
X2843Y6242D02*
D03*
Y6182D02*
D03*
X2959Y6243D02*
D03*
Y6183D02*
D03*
X2901Y6182D02*
D03*
Y6242D02*
D03*
X3544Y4400D02*
D03*
Y4460D02*
D03*
X6525Y2178D02*
D03*
Y2238D02*
D03*
Y2113D02*
D03*
Y2053D02*
D03*
X6920Y2153D02*
D03*
Y2093D02*
D03*
Y2228D02*
D03*
Y2288D02*
D03*
X6525Y1543D02*
D03*
Y1603D02*
D03*
Y1478D02*
D03*
Y1418D02*
D03*
X6920Y1518D02*
D03*
Y1458D02*
D03*
Y1593D02*
D03*
Y1653D02*
D03*
X6525Y903D02*
D03*
Y963D02*
D03*
Y838D02*
D03*
Y778D02*
D03*
X6920Y878D02*
D03*
Y818D02*
D03*
Y953D02*
D03*
Y1013D02*
D03*
X6525Y263D02*
D03*
Y323D02*
D03*
Y198D02*
D03*
Y138D02*
D03*
X6920Y238D02*
D03*
Y178D02*
D03*
Y313D02*
D03*
Y373D02*
D03*
X201Y5473D02*
D03*
Y5533D02*
D03*
X315Y5479D02*
D03*
Y5539D02*
D03*
X366Y5479D02*
D03*
Y5539D02*
D03*
X531Y6071D02*
D03*
Y6011D02*
D03*
X467Y6071D02*
D03*
Y6011D02*
D03*
X215Y5740D02*
D03*
Y5800D02*
D03*
X138Y5740D02*
D03*
Y5800D02*
D03*
X63Y5740D02*
D03*
Y5800D02*
D03*
X876Y4666D02*
D03*
Y4606D02*
D03*
X927Y4666D02*
D03*
Y4606D02*
D03*
X976Y4666D02*
D03*
Y4606D02*
D03*
X1025Y4666D02*
D03*
Y4606D02*
D03*
X1076Y4666D02*
D03*
Y4606D02*
D03*
X1125Y4666D02*
D03*
Y4606D02*
D03*
X1885Y4890D02*
D03*
Y4830D02*
D03*
X1052Y5458D02*
D03*
Y5398D02*
D03*
X1410Y4814D02*
D03*
Y4754D02*
D03*
X1885Y4697D02*
D03*
Y4757D02*
D03*
X1691Y5081D02*
D03*
Y5021D02*
D03*
X1768Y5079D02*
D03*
Y5019D02*
D03*
X826Y4666D02*
D03*
Y4606D02*
D03*
X1174Y4666D02*
D03*
Y4606D02*
D03*
X43Y5031D02*
D03*
Y5091D02*
D03*
X576Y5471D02*
D03*
Y5531D02*
D03*
X1140Y6023D02*
D03*
Y5963D02*
D03*
X469Y5759D02*
D03*
Y5819D02*
D03*
X531Y5759D02*
D03*
Y5819D02*
D03*
X945Y6134D02*
D03*
Y6074D02*
D03*
X1423Y5485D02*
D03*
Y5545D02*
D03*
X1125Y5793D02*
D03*
Y5853D02*
D03*
X1012Y5762D02*
D03*
Y5822D02*
D03*
X951Y5762D02*
D03*
Y5822D02*
D03*
X693Y6242D02*
D03*
Y6182D02*
D03*
X809Y6243D02*
D03*
Y6183D02*
D03*
X751Y6182D02*
D03*
Y6242D02*
D03*
X1394Y4400D02*
D03*
Y4460D02*
D03*
X867Y7814D02*
D03*
Y7754D02*
D03*
X1110Y7667D02*
D03*
Y7607D02*
D03*
X1077Y7814D02*
D03*
Y7754D02*
D03*
X1262Y7426D02*
D03*
Y7486D02*
D03*
X1199Y7426D02*
D03*
Y7486D02*
D03*
X1433Y7264D02*
D03*
Y7324D02*
D03*
X1486Y7196D02*
D03*
Y7256D02*
D03*
X1434Y7183D02*
D03*
Y7123D02*
D03*
X1077Y6773D02*
D03*
Y6833D02*
D03*
X1027D02*
D03*
Y6773D02*
D03*
X854Y7183D02*
D03*
Y7123D02*
D03*
X858Y7323D02*
D03*
Y7263D02*
D03*
X802Y7258D02*
D03*
Y7198D02*
D03*
X564Y7918D02*
D03*
Y7858D02*
D03*
X516Y7859D02*
D03*
Y7919D02*
D03*
X1754Y7012D02*
D03*
Y7072D02*
D03*
X1491Y6708D02*
D03*
Y6768D02*
D03*
X1842Y6708D02*
D03*
Y6768D02*
D03*
X1897D02*
D03*
Y6708D02*
D03*
X1103Y7426D02*
D03*
Y7486D02*
D03*
X1040Y7485D02*
D03*
Y7425D02*
D03*
X1719Y7829D02*
D03*
Y7769D02*
D03*
Y7954D02*
D03*
Y7894D02*
D03*
X1213Y7958D02*
D03*
Y7898D02*
D03*
X1260Y7828D02*
D03*
Y7768D02*
D03*
X1709Y8029D02*
D03*
Y8089D02*
D03*
X1769Y7769D02*
D03*
Y7829D02*
D03*
X1690Y7599D02*
D03*
Y7659D02*
D03*
X1640Y7599D02*
D03*
Y7659D02*
D03*
X1659Y8029D02*
D03*
Y8089D02*
D03*
X1562Y8029D02*
D03*
Y8089D02*
D03*
X1549Y7599D02*
D03*
Y7659D02*
D03*
X1499Y7599D02*
D03*
Y7659D02*
D03*
X1514Y8029D02*
D03*
Y8089D02*
D03*
X1769Y7894D02*
D03*
Y7954D02*
D03*
X1454Y8029D02*
D03*
Y8089D02*
D03*
X1261Y7898D02*
D03*
Y7958D02*
D03*
X1451Y7599D02*
D03*
Y7659D02*
D03*
X1403Y7599D02*
D03*
Y7659D02*
D03*
X1406Y8029D02*
D03*
Y8089D02*
D03*
X1336Y8029D02*
D03*
Y8089D02*
D03*
X1325Y7599D02*
D03*
Y7659D02*
D03*
X1277Y7599D02*
D03*
Y7659D02*
D03*
X1288Y8029D02*
D03*
Y8089D02*
D03*
X1212Y7768D02*
D03*
Y7828D02*
D03*
X808Y8068D02*
D03*
Y8128D02*
D03*
X408Y8217D02*
D03*
Y8277D02*
D03*
Y8157D02*
D03*
Y8097D02*
D03*
X808Y8361D02*
D03*
Y8301D02*
D03*
Y8246D02*
D03*
Y8186D02*
D03*
X919Y8363D02*
D03*
Y8303D02*
D03*
X1177Y8363D02*
D03*
Y8303D02*
D03*
Y8187D02*
D03*
Y8247D02*
D03*
X606Y449D02*
D03*
Y509D02*
D03*
X615Y1385D02*
D03*
Y1445D02*
D03*
X605Y678D02*
D03*
Y738D02*
D03*
X614Y1614D02*
D03*
Y1674D02*
D03*
X605Y218D02*
D03*
Y278D02*
D03*
X614Y1154D02*
D03*
Y1214D02*
D03*
X440Y745D02*
D03*
Y805D02*
D03*
X449Y1681D02*
D03*
Y1741D02*
D03*
X440Y518D02*
D03*
Y578D02*
D03*
X449Y1454D02*
D03*
Y1514D02*
D03*
X442Y282D02*
D03*
Y342D02*
D03*
X451Y1218D02*
D03*
Y1278D02*
D03*
X653Y736D02*
D03*
Y796D02*
D03*
X662Y1672D02*
D03*
Y1732D02*
D03*
X654Y505D02*
D03*
Y565D02*
D03*
X663Y1441D02*
D03*
Y1501D02*
D03*
X653Y269D02*
D03*
Y329D02*
D03*
X662Y1205D02*
D03*
Y1265D02*
D03*
X508Y679D02*
D03*
Y739D02*
D03*
X517Y1615D02*
D03*
Y1675D02*
D03*
X509Y449D02*
D03*
Y509D02*
D03*
X518Y1385D02*
D03*
Y1445D02*
D03*
X510Y218D02*
D03*
Y278D02*
D03*
X519Y1154D02*
D03*
Y1214D02*
D03*
X557Y450D02*
D03*
Y510D02*
D03*
X566Y1386D02*
D03*
Y1446D02*
D03*
X703Y1018D02*
D03*
Y958D02*
D03*
X557Y679D02*
D03*
Y739D02*
D03*
X566Y1615D02*
D03*
Y1675D02*
D03*
X558Y218D02*
D03*
Y278D02*
D03*
X567Y1154D02*
D03*
Y1214D02*
D03*
X1334Y937D02*
D03*
Y997D02*
D03*
X1330Y1094D02*
D03*
Y1034D02*
D03*
D14*
X4756Y5549D02*
D03*
Y5471D02*
D03*
X5835Y151D02*
D03*
Y73D02*
D03*
X3685Y151D02*
D03*
Y73D02*
D03*
X2606Y5549D02*
D03*
Y5471D02*
D03*
X456Y5549D02*
D03*
Y5471D02*
D03*
X1535Y151D02*
D03*
Y73D02*
D03*
D15*
X5146Y5772D02*
D03*
Y5822D02*
D03*
Y5872D02*
D03*
Y5922D02*
D03*
Y5972D02*
D03*
Y6022D02*
D03*
Y6072D02*
D03*
X4958Y5772D02*
D03*
Y5822D02*
D03*
Y5872D02*
D03*
Y5922D02*
D03*
Y5972D02*
D03*
Y6022D02*
D03*
Y6072D02*
D03*
X5657Y844D02*
D03*
Y794D02*
D03*
Y744D02*
D03*
Y694D02*
D03*
X5845Y844D02*
D03*
Y794D02*
D03*
Y744D02*
D03*
Y694D02*
D03*
X5657Y614D02*
D03*
Y564D02*
D03*
Y514D02*
D03*
Y464D02*
D03*
X5845Y614D02*
D03*
Y564D02*
D03*
Y514D02*
D03*
Y464D02*
D03*
X5657Y379D02*
D03*
Y329D02*
D03*
Y279D02*
D03*
Y229D02*
D03*
X5845Y379D02*
D03*
Y329D02*
D03*
Y279D02*
D03*
Y229D02*
D03*
X5657Y1778D02*
D03*
Y1728D02*
D03*
Y1678D02*
D03*
Y1628D02*
D03*
X5845Y1778D02*
D03*
Y1728D02*
D03*
Y1678D02*
D03*
Y1628D02*
D03*
X5657Y1548D02*
D03*
Y1498D02*
D03*
Y1448D02*
D03*
Y1398D02*
D03*
X5845Y1548D02*
D03*
Y1498D02*
D03*
Y1448D02*
D03*
Y1398D02*
D03*
X5657Y1313D02*
D03*
Y1263D02*
D03*
Y1213D02*
D03*
Y1163D02*
D03*
X5845Y1313D02*
D03*
Y1263D02*
D03*
Y1213D02*
D03*
Y1163D02*
D03*
X3507Y844D02*
D03*
Y794D02*
D03*
Y744D02*
D03*
Y694D02*
D03*
X3695Y844D02*
D03*
Y794D02*
D03*
Y744D02*
D03*
Y694D02*
D03*
X3507Y614D02*
D03*
Y564D02*
D03*
Y514D02*
D03*
Y464D02*
D03*
X3695Y614D02*
D03*
Y564D02*
D03*
Y514D02*
D03*
Y464D02*
D03*
X3507Y379D02*
D03*
Y329D02*
D03*
Y279D02*
D03*
Y229D02*
D03*
X3695Y379D02*
D03*
Y329D02*
D03*
Y279D02*
D03*
Y229D02*
D03*
X3507Y1778D02*
D03*
Y1728D02*
D03*
Y1678D02*
D03*
Y1628D02*
D03*
X3695Y1778D02*
D03*
Y1728D02*
D03*
Y1678D02*
D03*
Y1628D02*
D03*
X3507Y1548D02*
D03*
Y1498D02*
D03*
Y1448D02*
D03*
Y1398D02*
D03*
X3695Y1548D02*
D03*
Y1498D02*
D03*
Y1448D02*
D03*
Y1398D02*
D03*
X3507Y1313D02*
D03*
Y1263D02*
D03*
Y1213D02*
D03*
Y1163D02*
D03*
X3695Y1313D02*
D03*
Y1263D02*
D03*
Y1213D02*
D03*
Y1163D02*
D03*
X2996Y5772D02*
D03*
Y5822D02*
D03*
Y5872D02*
D03*
Y5922D02*
D03*
Y5972D02*
D03*
Y6022D02*
D03*
Y6072D02*
D03*
X2808Y5772D02*
D03*
Y5822D02*
D03*
Y5872D02*
D03*
Y5922D02*
D03*
Y5972D02*
D03*
Y6022D02*
D03*
Y6072D02*
D03*
X846Y5772D02*
D03*
Y5822D02*
D03*
Y5872D02*
D03*
Y5922D02*
D03*
Y5972D02*
D03*
Y6022D02*
D03*
Y6072D02*
D03*
X658Y5772D02*
D03*
Y5822D02*
D03*
Y5872D02*
D03*
Y5922D02*
D03*
Y5972D02*
D03*
Y6022D02*
D03*
Y6072D02*
D03*
X1357Y844D02*
D03*
Y794D02*
D03*
Y744D02*
D03*
Y694D02*
D03*
X1545Y844D02*
D03*
Y794D02*
D03*
Y744D02*
D03*
Y694D02*
D03*
X1357Y614D02*
D03*
Y564D02*
D03*
Y514D02*
D03*
Y464D02*
D03*
X1545Y614D02*
D03*
Y564D02*
D03*
Y514D02*
D03*
Y464D02*
D03*
X1357Y379D02*
D03*
Y329D02*
D03*
Y279D02*
D03*
Y229D02*
D03*
X1545Y379D02*
D03*
Y329D02*
D03*
Y279D02*
D03*
Y229D02*
D03*
X1357Y1778D02*
D03*
Y1728D02*
D03*
Y1678D02*
D03*
Y1628D02*
D03*
X1545Y1778D02*
D03*
Y1728D02*
D03*
Y1678D02*
D03*
Y1628D02*
D03*
X1357Y1548D02*
D03*
Y1498D02*
D03*
Y1448D02*
D03*
Y1398D02*
D03*
X1545Y1548D02*
D03*
Y1498D02*
D03*
Y1448D02*
D03*
Y1398D02*
D03*
X1357Y1313D02*
D03*
Y1263D02*
D03*
Y1213D02*
D03*
Y1163D02*
D03*
X1545Y1313D02*
D03*
Y1263D02*
D03*
Y1213D02*
D03*
Y1163D02*
D03*
D16*
X5125Y4363D02*
D03*
Y4531D02*
D03*
X5175D02*
D03*
X5225D02*
D03*
X5275D02*
D03*
X5325D02*
D03*
X5375D02*
D03*
X5425D02*
D03*
X5475D02*
D03*
X5525D02*
D03*
X5575D02*
D03*
X5175Y4363D02*
D03*
X5225D02*
D03*
X5275D02*
D03*
X5325D02*
D03*
X5375D02*
D03*
X5425D02*
D03*
X5475D02*
D03*
X5525D02*
D03*
X5575D02*
D03*
X5125Y6513D02*
D03*
X5175D02*
D03*
X5225D02*
D03*
X5275D02*
D03*
X5325D02*
D03*
X5375D02*
D03*
X5425D02*
D03*
X5475D02*
D03*
Y6681D02*
D03*
X5425D02*
D03*
X5375D02*
D03*
X5325D02*
D03*
X5275D02*
D03*
X5225D02*
D03*
X5175D02*
D03*
X5125D02*
D03*
Y2381D02*
D03*
X5175D02*
D03*
X5225D02*
D03*
X5275D02*
D03*
X5325D02*
D03*
X5375D02*
D03*
X5425D02*
D03*
X5475D02*
D03*
Y2213D02*
D03*
X5425D02*
D03*
X5375D02*
D03*
X5325D02*
D03*
X5275D02*
D03*
X5225D02*
D03*
X5175D02*
D03*
X5125D02*
D03*
Y63D02*
D03*
X5175D02*
D03*
X5225D02*
D03*
X5275D02*
D03*
X5325D02*
D03*
X5375D02*
D03*
X5425D02*
D03*
X5475D02*
D03*
Y231D02*
D03*
X5425D02*
D03*
X5375D02*
D03*
X5325D02*
D03*
X5275D02*
D03*
X5225D02*
D03*
X5175D02*
D03*
X5125D02*
D03*
X2975Y63D02*
D03*
X3025D02*
D03*
X3075D02*
D03*
X3125D02*
D03*
X3175D02*
D03*
X3225D02*
D03*
X3275D02*
D03*
X3325D02*
D03*
Y231D02*
D03*
X3275D02*
D03*
X3225D02*
D03*
X3175D02*
D03*
X3125D02*
D03*
X3075D02*
D03*
X3025D02*
D03*
X2975D02*
D03*
Y2381D02*
D03*
X3025D02*
D03*
X3075D02*
D03*
X3125D02*
D03*
X3175D02*
D03*
X3225D02*
D03*
X3275D02*
D03*
X3325D02*
D03*
Y2213D02*
D03*
X3275D02*
D03*
X3225D02*
D03*
X3175D02*
D03*
X3125D02*
D03*
X3075D02*
D03*
X3025D02*
D03*
X2975D02*
D03*
Y6513D02*
D03*
X3025D02*
D03*
X3075D02*
D03*
X3125D02*
D03*
X3175D02*
D03*
X3225D02*
D03*
X3275D02*
D03*
X3325D02*
D03*
Y6681D02*
D03*
X3275D02*
D03*
X3225D02*
D03*
X3175D02*
D03*
X3125D02*
D03*
X3075D02*
D03*
X3025D02*
D03*
X2975D02*
D03*
Y4363D02*
D03*
Y4531D02*
D03*
X3025D02*
D03*
X3075D02*
D03*
X3125D02*
D03*
X3175D02*
D03*
X3225D02*
D03*
X3275D02*
D03*
X3325D02*
D03*
X3375D02*
D03*
X3425D02*
D03*
X3025Y4363D02*
D03*
X3075D02*
D03*
X3125D02*
D03*
X3175D02*
D03*
X3225D02*
D03*
X3275D02*
D03*
X3325D02*
D03*
X3375D02*
D03*
X3425D02*
D03*
X825D02*
D03*
Y4531D02*
D03*
X875D02*
D03*
X925D02*
D03*
X975D02*
D03*
X1025D02*
D03*
X1075D02*
D03*
X1125D02*
D03*
X1175D02*
D03*
X1225D02*
D03*
X1275D02*
D03*
X875Y4363D02*
D03*
X925D02*
D03*
X975D02*
D03*
X1025D02*
D03*
X1075D02*
D03*
X1125D02*
D03*
X1175D02*
D03*
X1225D02*
D03*
X1275D02*
D03*
X825Y6513D02*
D03*
X875D02*
D03*
X925D02*
D03*
X975D02*
D03*
X1025D02*
D03*
X1075D02*
D03*
X1125D02*
D03*
X1175D02*
D03*
Y6681D02*
D03*
X1125D02*
D03*
X1075D02*
D03*
X1025D02*
D03*
X975D02*
D03*
X925D02*
D03*
X875D02*
D03*
X825D02*
D03*
Y2381D02*
D03*
X875D02*
D03*
X925D02*
D03*
X975D02*
D03*
X1025D02*
D03*
X1075D02*
D03*
X1125D02*
D03*
X1175D02*
D03*
Y2213D02*
D03*
X1125D02*
D03*
X1075D02*
D03*
X1025D02*
D03*
X975D02*
D03*
X925D02*
D03*
X875D02*
D03*
X825D02*
D03*
Y63D02*
D03*
X875D02*
D03*
X925D02*
D03*
X975D02*
D03*
X1025D02*
D03*
X1075D02*
D03*
X1125D02*
D03*
X1175D02*
D03*
Y231D02*
D03*
X1125D02*
D03*
X1075D02*
D03*
X1025D02*
D03*
X975D02*
D03*
X925D02*
D03*
X875D02*
D03*
X825D02*
D03*
D17*
X4341Y4871D02*
D03*
X6222Y5391D02*
D03*
Y5333D02*
D03*
X6221Y5275D02*
D03*
X5458Y5356D02*
D03*
X5541Y4608D02*
D03*
X6060Y6942D02*
D03*
X4905Y6584D02*
D03*
Y6748D02*
D03*
Y6683D02*
D03*
X5575D02*
D03*
X6172Y7334D02*
D03*
X6171Y7262D02*
D03*
X6178Y7091D02*
D03*
X5708Y6839D02*
D03*
X3910Y6942D02*
D03*
X2755Y6584D02*
D03*
Y6748D02*
D03*
Y6683D02*
D03*
X3425D02*
D03*
X4022Y7334D02*
D03*
X4021Y7262D02*
D03*
X4028Y7091D02*
D03*
X3558Y6839D02*
D03*
X2191Y4871D02*
D03*
X4072Y5391D02*
D03*
Y5333D02*
D03*
X4071Y5275D02*
D03*
X3308Y5356D02*
D03*
X3391Y4608D02*
D03*
X41Y4871D02*
D03*
X1922Y5391D02*
D03*
Y5333D02*
D03*
X1921Y5275D02*
D03*
X1158Y5356D02*
D03*
X1241Y4608D02*
D03*
X1760Y6942D02*
D03*
X605Y6584D02*
D03*
Y6748D02*
D03*
Y6683D02*
D03*
X1275D02*
D03*
X1872Y7334D02*
D03*
X1871Y7262D02*
D03*
X1878Y7091D02*
D03*
X1408Y6839D02*
D03*
X5375Y1591D02*
D03*
X3225D02*
D03*
X1075D02*
D03*
D18*
X5431Y5456D02*
D03*
Y5496D02*
D03*
X5485D02*
D03*
Y5456D02*
D03*
X5581Y5455D02*
D03*
Y5495D02*
D03*
X5635D02*
D03*
Y5455D02*
D03*
X3281Y5456D02*
D03*
Y5496D02*
D03*
X3335D02*
D03*
Y5456D02*
D03*
X3431Y5455D02*
D03*
Y5495D02*
D03*
X3485D02*
D03*
Y5455D02*
D03*
X1131Y5456D02*
D03*
Y5496D02*
D03*
X1185D02*
D03*
Y5456D02*
D03*
X1281Y5455D02*
D03*
Y5495D02*
D03*
X1335D02*
D03*
Y5455D02*
D03*
D19*
X5431Y5476D02*
D03*
X5485D02*
D03*
X5581Y5475D02*
D03*
X5635D02*
D03*
X3281Y5476D02*
D03*
X3335D02*
D03*
X3431Y5475D02*
D03*
X3485D02*
D03*
X1131Y5476D02*
D03*
X1185D02*
D03*
X1281Y5475D02*
D03*
X1335D02*
D03*
D20*
X5899Y4419D02*
D03*
Y4573D02*
D03*
X3749Y4419D02*
D03*
Y4573D02*
D03*
X1599Y4419D02*
D03*
Y4573D02*
D03*
D21*
X5338Y4960D02*
D03*
Y5078D02*
D03*
X3188Y4960D02*
D03*
Y5078D02*
D03*
X1038Y4960D02*
D03*
Y5078D02*
D03*
D22*
X5831Y4715D02*
D03*
Y4833D02*
D03*
X3681Y4715D02*
D03*
Y4833D02*
D03*
X1531Y4715D02*
D03*
Y4833D02*
D03*
D23*
X6029Y4827D02*
D03*
X3879D02*
D03*
X1729D02*
D03*
D24*
X5939Y4714D02*
D03*
X5965D02*
D03*
X5991D02*
D03*
X6016D02*
D03*
X6042D02*
D03*
X6067D02*
D03*
X6093D02*
D03*
X6119D02*
D03*
X5939Y4940D02*
D03*
X5965D02*
D03*
X5991D02*
D03*
X6016D02*
D03*
X6042D02*
D03*
X6067D02*
D03*
X6093D02*
D03*
X6119D02*
D03*
X3789Y4714D02*
D03*
X3815D02*
D03*
X3841D02*
D03*
X3866D02*
D03*
X3892D02*
D03*
X3917D02*
D03*
X3943D02*
D03*
X3969D02*
D03*
X3789Y4940D02*
D03*
X3815D02*
D03*
X3841D02*
D03*
X3866D02*
D03*
X3892D02*
D03*
X3917D02*
D03*
X3943D02*
D03*
X3969D02*
D03*
X1639Y4714D02*
D03*
X1665D02*
D03*
X1691D02*
D03*
X1716D02*
D03*
X1742D02*
D03*
X1767D02*
D03*
X1793D02*
D03*
X1819D02*
D03*
X1639Y4940D02*
D03*
X1665D02*
D03*
X1691D02*
D03*
X1716D02*
D03*
X1742D02*
D03*
X1767D02*
D03*
X1793D02*
D03*
X1819D02*
D03*
D25*
X4947Y5326D02*
D03*
Y5306D02*
D03*
Y5287D02*
D03*
Y5267D02*
D03*
Y5247D02*
D03*
Y5228D02*
D03*
Y5208D02*
D03*
Y5188D02*
D03*
Y5169D02*
D03*
Y5149D02*
D03*
Y5129D02*
D03*
Y5109D02*
D03*
Y5090D02*
D03*
Y5070D02*
D03*
Y5050D02*
D03*
Y5031D02*
D03*
Y5011D02*
D03*
Y4991D02*
D03*
Y4972D02*
D03*
Y4952D02*
D03*
X4429D02*
D03*
Y4972D02*
D03*
Y4991D02*
D03*
Y5011D02*
D03*
Y5031D02*
D03*
Y5050D02*
D03*
Y5070D02*
D03*
Y5090D02*
D03*
Y5109D02*
D03*
Y5129D02*
D03*
Y5149D02*
D03*
Y5169D02*
D03*
Y5188D02*
D03*
Y5208D02*
D03*
Y5228D02*
D03*
Y5247D02*
D03*
Y5267D02*
D03*
Y5287D02*
D03*
Y5306D02*
D03*
Y5326D02*
D03*
X4613Y7645D02*
D03*
Y7625D02*
D03*
Y7606D02*
D03*
Y7586D02*
D03*
Y7566D02*
D03*
Y7547D02*
D03*
Y7527D02*
D03*
Y7507D02*
D03*
Y7488D02*
D03*
Y7468D02*
D03*
Y7448D02*
D03*
Y7429D02*
D03*
Y7409D02*
D03*
Y7389D02*
D03*
Y7370D02*
D03*
Y7350D02*
D03*
Y7330D02*
D03*
Y7311D02*
D03*
Y7291D02*
D03*
X4831Y7645D02*
D03*
Y7625D02*
D03*
Y7606D02*
D03*
Y7586D02*
D03*
Y7566D02*
D03*
Y7547D02*
D03*
Y7527D02*
D03*
Y7507D02*
D03*
Y7488D02*
D03*
Y7468D02*
D03*
Y7448D02*
D03*
Y7429D02*
D03*
Y7409D02*
D03*
Y7389D02*
D03*
Y7370D02*
D03*
Y7350D02*
D03*
Y7330D02*
D03*
Y7311D02*
D03*
Y7291D02*
D03*
X5665Y7281D02*
D03*
Y7261D02*
D03*
Y7242D02*
D03*
Y7222D02*
D03*
Y7202D02*
D03*
Y7183D02*
D03*
Y7163D02*
D03*
Y7143D02*
D03*
Y7124D02*
D03*
Y7104D02*
D03*
Y7084D02*
D03*
Y7065D02*
D03*
Y7045D02*
D03*
Y7025D02*
D03*
Y7006D02*
D03*
Y6986D02*
D03*
X5226D02*
D03*
Y7006D02*
D03*
Y7025D02*
D03*
Y7045D02*
D03*
Y7065D02*
D03*
Y7084D02*
D03*
Y7104D02*
D03*
Y7124D02*
D03*
Y7143D02*
D03*
Y7163D02*
D03*
Y7183D02*
D03*
Y7202D02*
D03*
Y7222D02*
D03*
Y7242D02*
D03*
Y7261D02*
D03*
Y7281D02*
D03*
X2463Y7645D02*
D03*
Y7625D02*
D03*
Y7606D02*
D03*
Y7586D02*
D03*
Y7566D02*
D03*
Y7547D02*
D03*
Y7527D02*
D03*
Y7507D02*
D03*
Y7488D02*
D03*
Y7468D02*
D03*
Y7448D02*
D03*
Y7429D02*
D03*
Y7409D02*
D03*
Y7389D02*
D03*
Y7370D02*
D03*
Y7350D02*
D03*
Y7330D02*
D03*
Y7311D02*
D03*
Y7291D02*
D03*
X2681Y7645D02*
D03*
Y7625D02*
D03*
Y7606D02*
D03*
Y7586D02*
D03*
Y7566D02*
D03*
Y7547D02*
D03*
Y7527D02*
D03*
Y7507D02*
D03*
Y7488D02*
D03*
Y7468D02*
D03*
Y7448D02*
D03*
Y7429D02*
D03*
Y7409D02*
D03*
Y7389D02*
D03*
Y7370D02*
D03*
Y7350D02*
D03*
Y7330D02*
D03*
Y7311D02*
D03*
Y7291D02*
D03*
X3515Y7281D02*
D03*
Y7261D02*
D03*
Y7242D02*
D03*
Y7222D02*
D03*
Y7202D02*
D03*
Y7183D02*
D03*
Y7163D02*
D03*
Y7143D02*
D03*
Y7124D02*
D03*
Y7104D02*
D03*
Y7084D02*
D03*
Y7065D02*
D03*
Y7045D02*
D03*
Y7025D02*
D03*
Y7006D02*
D03*
Y6986D02*
D03*
X3076D02*
D03*
Y7006D02*
D03*
Y7025D02*
D03*
Y7045D02*
D03*
Y7065D02*
D03*
Y7084D02*
D03*
Y7104D02*
D03*
Y7124D02*
D03*
Y7143D02*
D03*
Y7163D02*
D03*
Y7183D02*
D03*
Y7202D02*
D03*
Y7222D02*
D03*
Y7242D02*
D03*
Y7261D02*
D03*
Y7281D02*
D03*
X2797Y5326D02*
D03*
Y5306D02*
D03*
Y5287D02*
D03*
Y5267D02*
D03*
Y5247D02*
D03*
Y5228D02*
D03*
Y5208D02*
D03*
Y5188D02*
D03*
Y5169D02*
D03*
Y5149D02*
D03*
Y5129D02*
D03*
Y5109D02*
D03*
Y5090D02*
D03*
Y5070D02*
D03*
Y5050D02*
D03*
Y5031D02*
D03*
Y5011D02*
D03*
Y4991D02*
D03*
Y4972D02*
D03*
Y4952D02*
D03*
X2279D02*
D03*
Y4972D02*
D03*
Y4991D02*
D03*
Y5011D02*
D03*
Y5031D02*
D03*
Y5050D02*
D03*
Y5070D02*
D03*
Y5090D02*
D03*
Y5109D02*
D03*
Y5129D02*
D03*
Y5149D02*
D03*
Y5169D02*
D03*
Y5188D02*
D03*
Y5208D02*
D03*
Y5228D02*
D03*
Y5247D02*
D03*
Y5267D02*
D03*
Y5287D02*
D03*
Y5306D02*
D03*
Y5326D02*
D03*
X647D02*
D03*
Y5306D02*
D03*
Y5287D02*
D03*
Y5267D02*
D03*
Y5247D02*
D03*
Y5228D02*
D03*
Y5208D02*
D03*
Y5188D02*
D03*
Y5169D02*
D03*
Y5149D02*
D03*
Y5129D02*
D03*
Y5109D02*
D03*
Y5090D02*
D03*
Y5070D02*
D03*
Y5050D02*
D03*
Y5031D02*
D03*
Y5011D02*
D03*
Y4991D02*
D03*
Y4972D02*
D03*
Y4952D02*
D03*
X129D02*
D03*
Y4972D02*
D03*
Y4991D02*
D03*
Y5011D02*
D03*
Y5031D02*
D03*
Y5050D02*
D03*
Y5070D02*
D03*
Y5090D02*
D03*
Y5109D02*
D03*
Y5129D02*
D03*
Y5149D02*
D03*
Y5169D02*
D03*
Y5188D02*
D03*
Y5208D02*
D03*
Y5228D02*
D03*
Y5247D02*
D03*
Y5267D02*
D03*
Y5287D02*
D03*
Y5306D02*
D03*
Y5326D02*
D03*
X313Y7645D02*
D03*
Y7625D02*
D03*
Y7606D02*
D03*
Y7586D02*
D03*
Y7566D02*
D03*
Y7547D02*
D03*
Y7527D02*
D03*
Y7507D02*
D03*
Y7488D02*
D03*
Y7468D02*
D03*
Y7448D02*
D03*
Y7429D02*
D03*
Y7409D02*
D03*
Y7389D02*
D03*
Y7370D02*
D03*
Y7350D02*
D03*
Y7330D02*
D03*
Y7311D02*
D03*
Y7291D02*
D03*
X531Y7645D02*
D03*
Y7625D02*
D03*
Y7606D02*
D03*
Y7586D02*
D03*
Y7566D02*
D03*
Y7547D02*
D03*
Y7527D02*
D03*
Y7507D02*
D03*
Y7488D02*
D03*
Y7468D02*
D03*
Y7448D02*
D03*
Y7429D02*
D03*
Y7409D02*
D03*
Y7389D02*
D03*
Y7370D02*
D03*
Y7350D02*
D03*
Y7330D02*
D03*
Y7311D02*
D03*
Y7291D02*
D03*
X1365Y7281D02*
D03*
Y7261D02*
D03*
Y7242D02*
D03*
Y7222D02*
D03*
Y7202D02*
D03*
Y7183D02*
D03*
Y7163D02*
D03*
Y7143D02*
D03*
Y7124D02*
D03*
Y7104D02*
D03*
Y7084D02*
D03*
Y7065D02*
D03*
Y7045D02*
D03*
Y7025D02*
D03*
Y7006D02*
D03*
Y6986D02*
D03*
X926D02*
D03*
Y7006D02*
D03*
Y7025D02*
D03*
Y7045D02*
D03*
Y7065D02*
D03*
Y7084D02*
D03*
Y7104D02*
D03*
Y7124D02*
D03*
Y7143D02*
D03*
Y7163D02*
D03*
Y7183D02*
D03*
Y7202D02*
D03*
Y7222D02*
D03*
Y7242D02*
D03*
Y7261D02*
D03*
Y7281D02*
D03*
D26*
X4875Y4880D02*
D03*
X4855D02*
D03*
X4836D02*
D03*
X4816D02*
D03*
X4796D02*
D03*
X4777D02*
D03*
X4757D02*
D03*
X4737D02*
D03*
X4718D02*
D03*
X4698D02*
D03*
X4678D02*
D03*
X4658D02*
D03*
X4639D02*
D03*
X4619D02*
D03*
X4599D02*
D03*
X4580D02*
D03*
X4560D02*
D03*
X4540D02*
D03*
X4521D02*
D03*
X4501D02*
D03*
Y5398D02*
D03*
X4521D02*
D03*
X4540D02*
D03*
X4560D02*
D03*
X4580D02*
D03*
X4599D02*
D03*
X4619D02*
D03*
X4639D02*
D03*
X4658D02*
D03*
X4678D02*
D03*
X4698D02*
D03*
X4718D02*
D03*
X4737D02*
D03*
X4757D02*
D03*
X4777D02*
D03*
X4796D02*
D03*
X4816D02*
D03*
X4836D02*
D03*
X4855D02*
D03*
X4875D02*
D03*
X5966Y7953D02*
D03*
X5946D02*
D03*
X5927D02*
D03*
X5907D02*
D03*
X5887D02*
D03*
X5868D02*
D03*
X5848D02*
D03*
X5828D02*
D03*
X5809D02*
D03*
X5789D02*
D03*
X5769D02*
D03*
X5750D02*
D03*
X5730D02*
D03*
X5710D02*
D03*
X5691D02*
D03*
X5671D02*
D03*
X5651D02*
D03*
X5632D02*
D03*
X5612D02*
D03*
X5966Y7735D02*
D03*
X5946D02*
D03*
X5927D02*
D03*
X5907D02*
D03*
X5887D02*
D03*
X5868D02*
D03*
X5848D02*
D03*
X5828D02*
D03*
X5809D02*
D03*
X5789D02*
D03*
X5769D02*
D03*
X5750D02*
D03*
X5730D02*
D03*
X5710D02*
D03*
X5691D02*
D03*
X5671D02*
D03*
X5651D02*
D03*
X5632D02*
D03*
X5612D02*
D03*
X5298Y7353D02*
D03*
X5317D02*
D03*
X5337D02*
D03*
X5357D02*
D03*
X5377D02*
D03*
X5396D02*
D03*
X5416D02*
D03*
X5436D02*
D03*
X5455D02*
D03*
X5475D02*
D03*
X5495D02*
D03*
X5514D02*
D03*
X5534D02*
D03*
X5554D02*
D03*
X5573D02*
D03*
X5593D02*
D03*
Y6914D02*
D03*
X5573D02*
D03*
X5554D02*
D03*
X5534D02*
D03*
X5514D02*
D03*
X5495D02*
D03*
X5475D02*
D03*
X5455D02*
D03*
X5436D02*
D03*
X5416D02*
D03*
X5396D02*
D03*
X5377D02*
D03*
X5357D02*
D03*
X5337D02*
D03*
X5317D02*
D03*
X5298D02*
D03*
X3816Y7953D02*
D03*
X3796D02*
D03*
X3777D02*
D03*
X3757D02*
D03*
X3737D02*
D03*
X3718D02*
D03*
X3698D02*
D03*
X3678D02*
D03*
X3659D02*
D03*
X3639D02*
D03*
X3619D02*
D03*
X3600D02*
D03*
X3580D02*
D03*
X3560D02*
D03*
X3541D02*
D03*
X3521D02*
D03*
X3501D02*
D03*
X3482D02*
D03*
X3462D02*
D03*
X3816Y7735D02*
D03*
X3796D02*
D03*
X3777D02*
D03*
X3757D02*
D03*
X3737D02*
D03*
X3718D02*
D03*
X3698D02*
D03*
X3678D02*
D03*
X3659D02*
D03*
X3639D02*
D03*
X3619D02*
D03*
X3600D02*
D03*
X3580D02*
D03*
X3560D02*
D03*
X3541D02*
D03*
X3521D02*
D03*
X3501D02*
D03*
X3482D02*
D03*
X3462D02*
D03*
X3148Y7353D02*
D03*
X3167D02*
D03*
X3187D02*
D03*
X3207D02*
D03*
X3227D02*
D03*
X3246D02*
D03*
X3266D02*
D03*
X3286D02*
D03*
X3305D02*
D03*
X3325D02*
D03*
X3345D02*
D03*
X3364D02*
D03*
X3384D02*
D03*
X3404D02*
D03*
X3423D02*
D03*
X3443D02*
D03*
Y6914D02*
D03*
X3423D02*
D03*
X3404D02*
D03*
X3384D02*
D03*
X3364D02*
D03*
X3345D02*
D03*
X3325D02*
D03*
X3305D02*
D03*
X3286D02*
D03*
X3266D02*
D03*
X3246D02*
D03*
X3227D02*
D03*
X3207D02*
D03*
X3187D02*
D03*
X3167D02*
D03*
X3148D02*
D03*
X2725Y4880D02*
D03*
X2705D02*
D03*
X2686D02*
D03*
X2666D02*
D03*
X2646D02*
D03*
X2627D02*
D03*
X2607D02*
D03*
X2587D02*
D03*
X2568D02*
D03*
X2548D02*
D03*
X2528D02*
D03*
X2508D02*
D03*
X2489D02*
D03*
X2469D02*
D03*
X2449D02*
D03*
X2430D02*
D03*
X2410D02*
D03*
X2390D02*
D03*
X2371D02*
D03*
X2351D02*
D03*
Y5398D02*
D03*
X2371D02*
D03*
X2390D02*
D03*
X2410D02*
D03*
X2430D02*
D03*
X2449D02*
D03*
X2469D02*
D03*
X2489D02*
D03*
X2508D02*
D03*
X2528D02*
D03*
X2548D02*
D03*
X2568D02*
D03*
X2587D02*
D03*
X2607D02*
D03*
X2627D02*
D03*
X2646D02*
D03*
X2666D02*
D03*
X2686D02*
D03*
X2705D02*
D03*
X2725D02*
D03*
X575Y4880D02*
D03*
X555D02*
D03*
X536D02*
D03*
X516D02*
D03*
X496D02*
D03*
X477D02*
D03*
X457D02*
D03*
X437D02*
D03*
X418D02*
D03*
X398D02*
D03*
X378D02*
D03*
X358D02*
D03*
X339D02*
D03*
X319D02*
D03*
X299D02*
D03*
X280D02*
D03*
X260D02*
D03*
X240D02*
D03*
X221D02*
D03*
X201D02*
D03*
Y5398D02*
D03*
X221D02*
D03*
X240D02*
D03*
X260D02*
D03*
X280D02*
D03*
X299D02*
D03*
X319D02*
D03*
X339D02*
D03*
X358D02*
D03*
X378D02*
D03*
X398D02*
D03*
X418D02*
D03*
X437D02*
D03*
X457D02*
D03*
X477D02*
D03*
X496D02*
D03*
X516D02*
D03*
X536D02*
D03*
X555D02*
D03*
X575D02*
D03*
X1666Y7953D02*
D03*
X1646D02*
D03*
X1627D02*
D03*
X1607D02*
D03*
X1587D02*
D03*
X1568D02*
D03*
X1548D02*
D03*
X1528D02*
D03*
X1509D02*
D03*
X1489D02*
D03*
X1469D02*
D03*
X1450D02*
D03*
X1430D02*
D03*
X1410D02*
D03*
X1391D02*
D03*
X1371D02*
D03*
X1351D02*
D03*
X1332D02*
D03*
X1312D02*
D03*
X1666Y7735D02*
D03*
X1646D02*
D03*
X1627D02*
D03*
X1607D02*
D03*
X1587D02*
D03*
X1568D02*
D03*
X1548D02*
D03*
X1528D02*
D03*
X1509D02*
D03*
X1489D02*
D03*
X1469D02*
D03*
X1450D02*
D03*
X1430D02*
D03*
X1410D02*
D03*
X1391D02*
D03*
X1371D02*
D03*
X1351D02*
D03*
X1332D02*
D03*
X1312D02*
D03*
X998Y7353D02*
D03*
X1017D02*
D03*
X1037D02*
D03*
X1057D02*
D03*
X1077D02*
D03*
X1096D02*
D03*
X1116D02*
D03*
X1136D02*
D03*
X1155D02*
D03*
X1175D02*
D03*
X1195D02*
D03*
X1214D02*
D03*
X1234D02*
D03*
X1254D02*
D03*
X1273D02*
D03*
X1293D02*
D03*
Y6914D02*
D03*
X1273D02*
D03*
X1254D02*
D03*
X1234D02*
D03*
X1214D02*
D03*
X1195D02*
D03*
X1175D02*
D03*
X1155D02*
D03*
X1136D02*
D03*
X1116D02*
D03*
X1096D02*
D03*
X1077D02*
D03*
X1057D02*
D03*
X1037D02*
D03*
X1017D02*
D03*
X998D02*
D03*
D27*
X5108Y5192D02*
D03*
X5030D02*
D03*
X6145Y915D02*
D03*
X6067D02*
D03*
X4538Y1015D02*
D03*
X4460D02*
D03*
X4743Y1865D02*
D03*
X4821D02*
D03*
X3995Y915D02*
D03*
X3917D02*
D03*
X2388Y1015D02*
D03*
X2310D02*
D03*
X2593Y1865D02*
D03*
X2671D02*
D03*
X2958Y5192D02*
D03*
X2880D02*
D03*
X808D02*
D03*
X730D02*
D03*
X1845Y915D02*
D03*
X1767D02*
D03*
X238Y1015D02*
D03*
X160D02*
D03*
X443Y1865D02*
D03*
X521D02*
D03*
D28*
X5587Y6019D02*
D03*
X5637D02*
D03*
X5687D02*
D03*
X5737D02*
D03*
Y5749D02*
D03*
X5687D02*
D03*
X5637D02*
D03*
X5587D02*
D03*
X3437Y6019D02*
D03*
X3487D02*
D03*
X3537D02*
D03*
X3587D02*
D03*
Y5749D02*
D03*
X3537D02*
D03*
X3487D02*
D03*
X3437D02*
D03*
X1287Y6019D02*
D03*
X1337D02*
D03*
X1387D02*
D03*
X1437D02*
D03*
Y5749D02*
D03*
X1387D02*
D03*
X1337D02*
D03*
X1287D02*
D03*
D29*
X5797Y5959D02*
D03*
Y5909D02*
D03*
Y5859D02*
D03*
Y5809D02*
D03*
X5527D02*
D03*
Y5859D02*
D03*
Y5909D02*
D03*
Y5959D02*
D03*
X3647D02*
D03*
Y5909D02*
D03*
Y5859D02*
D03*
Y5809D02*
D03*
X3377D02*
D03*
Y5859D02*
D03*
Y5909D02*
D03*
Y5959D02*
D03*
X1497D02*
D03*
Y5909D02*
D03*
Y5859D02*
D03*
Y5809D02*
D03*
X1227D02*
D03*
Y5859D02*
D03*
Y5909D02*
D03*
Y5959D02*
D03*
D30*
X5588Y6199D02*
D03*
X6150Y5930D02*
D03*
X4493Y5670D02*
D03*
X4661Y5679D02*
D03*
X4493Y5611D02*
D03*
X5580Y5356D02*
D03*
X5640Y5579D02*
D03*
X5533Y5604D02*
D03*
X6150Y5755D02*
D03*
Y5812D02*
D03*
Y5870D02*
D03*
X5291Y5990D02*
D03*
X5096Y6878D02*
D03*
Y6808D02*
D03*
X4662Y8330D02*
D03*
Y8391D02*
D03*
X5263Y8017D02*
D03*
X5184Y8102D02*
D03*
X5264Y8101D02*
D03*
X6098Y8222D02*
D03*
X6097Y8147D02*
D03*
X5707Y6765D02*
D03*
X6177Y7155D02*
D03*
X6143Y6871D02*
D03*
X5493Y7566D02*
D03*
X2946Y6878D02*
D03*
Y6808D02*
D03*
X2512Y8330D02*
D03*
Y8391D02*
D03*
X3113Y8017D02*
D03*
X3034Y8102D02*
D03*
X3114Y8101D02*
D03*
X3948Y8222D02*
D03*
X3947Y8147D02*
D03*
X3557Y6765D02*
D03*
X4027Y7155D02*
D03*
X3993Y6871D02*
D03*
X3343Y7566D02*
D03*
X3438Y6199D02*
D03*
X4000Y5930D02*
D03*
X2343Y5670D02*
D03*
X2511Y5679D02*
D03*
X2343Y5611D02*
D03*
X3430Y5356D02*
D03*
X3490Y5579D02*
D03*
X3383Y5604D02*
D03*
X4000Y5755D02*
D03*
Y5812D02*
D03*
Y5870D02*
D03*
X3141Y5990D02*
D03*
X1288Y6199D02*
D03*
X1850Y5930D02*
D03*
X193Y5670D02*
D03*
X361Y5679D02*
D03*
X193Y5611D02*
D03*
X1280Y5356D02*
D03*
X1340Y5579D02*
D03*
X1233Y5604D02*
D03*
X1850Y5755D02*
D03*
Y5812D02*
D03*
Y5870D02*
D03*
X991Y5990D02*
D03*
X796Y6878D02*
D03*
Y6808D02*
D03*
X362Y8330D02*
D03*
Y8391D02*
D03*
X963Y8017D02*
D03*
X884Y8102D02*
D03*
X964Y8101D02*
D03*
X1798Y8222D02*
D03*
X1797Y8147D02*
D03*
X1407Y6765D02*
D03*
X1877Y7155D02*
D03*
X1843Y6871D02*
D03*
X1193Y7566D02*
D03*
D31*
X4503Y4651D02*
D03*
X4877D02*
D03*
X2353D02*
D03*
X2727D02*
D03*
X203D02*
D03*
X577D02*
D03*
D37*
X5429Y6774D02*
D03*
X5494D02*
D03*
Y6835D02*
D03*
X5429D02*
D03*
X3279Y6774D02*
D03*
X3344D02*
D03*
Y6835D02*
D03*
X3279D02*
D03*
X1129Y6774D02*
D03*
X1194D02*
D03*
Y6835D02*
D03*
X1129D02*
D03*
D38*
X5321Y7718D02*
D03*
Y7755D02*
D03*
Y7792D02*
D03*
X5229D02*
D03*
Y7718D02*
D03*
X5902Y7037D02*
D03*
Y7111D02*
D03*
X5994D02*
D03*
Y7074D02*
D03*
Y7037D02*
D03*
X3171Y7718D02*
D03*
Y7755D02*
D03*
Y7792D02*
D03*
X3079D02*
D03*
Y7718D02*
D03*
X3752Y7037D02*
D03*
Y7111D02*
D03*
X3844D02*
D03*
Y7074D02*
D03*
Y7037D02*
D03*
X1021Y7718D02*
D03*
Y7755D02*
D03*
Y7792D02*
D03*
X929D02*
D03*
Y7718D02*
D03*
X1602Y7037D02*
D03*
Y7111D02*
D03*
X1694D02*
D03*
Y7074D02*
D03*
Y7037D02*
D03*
D39*
X4998Y7908D02*
D03*
X4961D02*
D03*
X4924D02*
D03*
Y7816D02*
D03*
X4998D02*
D03*
X2848Y7908D02*
D03*
X2811D02*
D03*
X2774D02*
D03*
Y7816D02*
D03*
X2848D02*
D03*
X698Y7908D02*
D03*
X661D02*
D03*
X624D02*
D03*
Y7816D02*
D03*
X698D02*
D03*
D40*
X6055Y6768D02*
D03*
X6005D02*
D03*
X5955D02*
D03*
X5905D02*
D03*
X5855D02*
D03*
X4745D02*
D03*
X4695D02*
D03*
X4645D02*
D03*
X4595D02*
D03*
X4545D02*
D03*
X3905D02*
D03*
X3855D02*
D03*
X3805D02*
D03*
X3755D02*
D03*
X3705D02*
D03*
X2595D02*
D03*
X2545D02*
D03*
X2495D02*
D03*
X2445D02*
D03*
X2395D02*
D03*
X1755D02*
D03*
X1705D02*
D03*
X1655D02*
D03*
X1605D02*
D03*
X1555D02*
D03*
X445D02*
D03*
X395D02*
D03*
X345D02*
D03*
X295D02*
D03*
X245D02*
D03*
D41*
X5955Y6532D02*
D03*
X4645D02*
D03*
X3805D02*
D03*
X2495D02*
D03*
X1655D02*
D03*
X345D02*
D03*
D42*
X5185Y7926D02*
D03*
Y7978D02*
D03*
X5113Y7952D02*
D03*
X3035Y7926D02*
D03*
Y7978D02*
D03*
X2963Y7952D02*
D03*
X885Y7926D02*
D03*
Y7978D02*
D03*
X813Y7952D02*
D03*
D43*
X5315Y8332D02*
D03*
X5340D02*
D03*
X5366D02*
D03*
X5391D02*
D03*
Y8194D02*
D03*
X5366D02*
D03*
X5340D02*
D03*
X5315D02*
D03*
X3165Y8332D02*
D03*
X3190D02*
D03*
X3216D02*
D03*
X3241D02*
D03*
Y8194D02*
D03*
X3216D02*
D03*
X3190D02*
D03*
X3165D02*
D03*
X1015Y8332D02*
D03*
X1040D02*
D03*
X1066D02*
D03*
X1091D02*
D03*
Y8194D02*
D03*
X1066D02*
D03*
X1040D02*
D03*
X1015D02*
D03*
D44*
X5422Y8301D02*
D03*
Y8276D02*
D03*
Y8250D02*
D03*
Y8225D02*
D03*
X5284D02*
D03*
Y8250D02*
D03*
Y8276D02*
D03*
Y8301D02*
D03*
X3272D02*
D03*
Y8276D02*
D03*
Y8250D02*
D03*
Y8225D02*
D03*
X3134D02*
D03*
Y8250D02*
D03*
Y8276D02*
D03*
Y8301D02*
D03*
X1122D02*
D03*
Y8276D02*
D03*
Y8250D02*
D03*
Y8225D02*
D03*
X984D02*
D03*
Y8250D02*
D03*
Y8276D02*
D03*
Y8301D02*
D03*
D45*
X5353Y8263D02*
D03*
X3203D02*
D03*
X1053D02*
D03*
D46*
X5445Y7133D02*
D03*
X3295D02*
D03*
X1145D02*
D03*
D49*
X5300Y3475D02*
D03*
Y3535D02*
D03*
X4398Y3678D02*
D03*
Y3738D02*
D03*
X4338Y3678D02*
D03*
Y3738D02*
D03*
X6015Y2450D02*
D03*
Y2390D02*
D03*
X5570Y3110D02*
D03*
Y3170D02*
D03*
X5013Y3264D02*
D03*
Y3324D02*
D03*
X4515Y2339D02*
D03*
Y2399D02*
D03*
X5047Y3058D02*
D03*
Y3118D02*
D03*
X4927Y2558D02*
D03*
Y2618D02*
D03*
X4935Y2378D02*
D03*
Y2318D02*
D03*
X5575Y3263D02*
D03*
Y3323D02*
D03*
X4515Y2459D02*
D03*
Y2519D02*
D03*
X4935Y2499D02*
D03*
Y2439D02*
D03*
X4727Y3309D02*
D03*
Y3369D02*
D03*
X5027Y2978D02*
D03*
Y2918D02*
D03*
X5087Y2978D02*
D03*
Y2918D02*
D03*
X3150Y3475D02*
D03*
Y3535D02*
D03*
X2248Y3678D02*
D03*
Y3738D02*
D03*
X2188Y3678D02*
D03*
Y3738D02*
D03*
X3865Y2450D02*
D03*
Y2390D02*
D03*
X3420Y3110D02*
D03*
Y3170D02*
D03*
X2863Y3264D02*
D03*
Y3324D02*
D03*
X2365Y2339D02*
D03*
Y2399D02*
D03*
X2897Y3058D02*
D03*
Y3118D02*
D03*
X2777Y2558D02*
D03*
Y2618D02*
D03*
X2785Y2378D02*
D03*
Y2318D02*
D03*
X3425Y3263D02*
D03*
Y3323D02*
D03*
X2365Y2459D02*
D03*
Y2519D02*
D03*
X2785Y2499D02*
D03*
Y2439D02*
D03*
X2577Y3309D02*
D03*
Y3369D02*
D03*
X2877Y2978D02*
D03*
Y2918D02*
D03*
X2937Y2978D02*
D03*
Y2918D02*
D03*
X1000Y3475D02*
D03*
Y3535D02*
D03*
X98Y3678D02*
D03*
Y3738D02*
D03*
X38Y3678D02*
D03*
Y3738D02*
D03*
X1715Y2450D02*
D03*
Y2390D02*
D03*
X1270Y3110D02*
D03*
Y3170D02*
D03*
X713Y3264D02*
D03*
Y3324D02*
D03*
X215Y2339D02*
D03*
Y2399D02*
D03*
X747Y3058D02*
D03*
Y3118D02*
D03*
X627Y2558D02*
D03*
Y2618D02*
D03*
X635Y2378D02*
D03*
Y2318D02*
D03*
X1275Y3263D02*
D03*
Y3323D02*
D03*
X215Y2459D02*
D03*
Y2519D02*
D03*
X635Y2499D02*
D03*
Y2439D02*
D03*
X427Y3309D02*
D03*
Y3369D02*
D03*
X727Y2978D02*
D03*
Y2918D02*
D03*
X787Y2978D02*
D03*
Y2918D02*
D03*
D50*
X4398Y3848D02*
D03*
Y3788D02*
D03*
X5920Y2190D02*
D03*
Y2250D02*
D03*
X4410Y2455D02*
D03*
Y2514D02*
D03*
X4338Y3848D02*
D03*
Y3788D02*
D03*
X5985Y2190D02*
D03*
Y2250D02*
D03*
X4350Y2455D02*
D03*
Y2514D02*
D03*
X2248Y3848D02*
D03*
Y3788D02*
D03*
X3770Y2190D02*
D03*
Y2250D02*
D03*
X2260Y2455D02*
D03*
Y2514D02*
D03*
X2188Y3848D02*
D03*
Y3788D02*
D03*
X3835Y2190D02*
D03*
Y2250D02*
D03*
X2200Y2455D02*
D03*
Y2514D02*
D03*
X98Y3848D02*
D03*
Y3788D02*
D03*
X1620Y2190D02*
D03*
Y2250D02*
D03*
X110Y2455D02*
D03*
Y2514D02*
D03*
X38Y3848D02*
D03*
Y3788D02*
D03*
X1685Y2190D02*
D03*
Y2250D02*
D03*
X50Y2455D02*
D03*
Y2514D02*
D03*
D51*
X6261Y3779D02*
D03*
X6201D02*
D03*
X6261Y3839D02*
D03*
X6201D02*
D03*
X4111Y3779D02*
D03*
X4051D02*
D03*
X4111Y3839D02*
D03*
X4051D02*
D03*
X1961Y3779D02*
D03*
X1901D02*
D03*
X1961Y3839D02*
D03*
X1901D02*
D03*
D52*
X6091Y3779D02*
D03*
X6151D02*
D03*
X5910Y2325D02*
D03*
X5970D02*
D03*
X4880Y2690D02*
D03*
X4940D02*
D03*
X6091Y3839D02*
D03*
X6151D02*
D03*
X4770Y2690D02*
D03*
X4830D02*
D03*
X5156Y3414D02*
D03*
X5216D02*
D03*
X5450Y2940D02*
D03*
X5510D02*
D03*
X5925Y3010D02*
D03*
X5865D02*
D03*
X4789Y2308D02*
D03*
X4729D02*
D03*
X5397Y3408D02*
D03*
X5457D02*
D03*
X3941Y3779D02*
D03*
X4001D02*
D03*
X3760Y2325D02*
D03*
X3820D02*
D03*
X2730Y2690D02*
D03*
X2790D02*
D03*
X3941Y3839D02*
D03*
X4001D02*
D03*
X2620Y2690D02*
D03*
X2680D02*
D03*
X3006Y3414D02*
D03*
X3066D02*
D03*
X3300Y2940D02*
D03*
X3360D02*
D03*
X3775Y3010D02*
D03*
X3715D02*
D03*
X2639Y2308D02*
D03*
X2579D02*
D03*
X3247Y3408D02*
D03*
X3307D02*
D03*
X1791Y3779D02*
D03*
X1851D02*
D03*
X1610Y2325D02*
D03*
X1670D02*
D03*
X580Y2690D02*
D03*
X640D02*
D03*
X1791Y3839D02*
D03*
X1851D02*
D03*
X470Y2690D02*
D03*
X530D02*
D03*
X856Y3414D02*
D03*
X916D02*
D03*
X1150Y2940D02*
D03*
X1210D02*
D03*
X1625Y3010D02*
D03*
X1565D02*
D03*
X489Y2308D02*
D03*
X429D02*
D03*
X1097Y3408D02*
D03*
X1157D02*
D03*
D53*
X4504Y3908D02*
D03*
X4582Y3945D02*
D03*
Y3871D02*
D03*
X5902Y3476D02*
D03*
X5824Y3439D02*
D03*
Y3513D02*
D03*
X4771Y2785D02*
D03*
X4849Y2822D02*
D03*
Y2748D02*
D03*
X4504Y3753D02*
D03*
X4582Y3790D02*
D03*
Y3716D02*
D03*
X5902Y3616D02*
D03*
X5824Y3579D02*
D03*
Y3653D02*
D03*
X2354Y3908D02*
D03*
X2432Y3945D02*
D03*
Y3871D02*
D03*
X3752Y3476D02*
D03*
X3674Y3439D02*
D03*
Y3513D02*
D03*
X2621Y2785D02*
D03*
X2699Y2822D02*
D03*
Y2748D02*
D03*
X2354Y3753D02*
D03*
X2432Y3790D02*
D03*
Y3716D02*
D03*
X3752Y3616D02*
D03*
X3674Y3579D02*
D03*
Y3653D02*
D03*
X204Y3908D02*
D03*
X282Y3945D02*
D03*
Y3871D02*
D03*
X1602Y3476D02*
D03*
X1524Y3439D02*
D03*
Y3513D02*
D03*
X471Y2785D02*
D03*
X549Y2822D02*
D03*
Y2748D02*
D03*
X204Y3753D02*
D03*
X282Y3790D02*
D03*
Y3716D02*
D03*
X1602Y3616D02*
D03*
X1524Y3579D02*
D03*
Y3653D02*
D03*
D54*
X5910Y2381D02*
D03*
X5873Y2459D02*
D03*
X5947D02*
D03*
X5975Y2516D02*
D03*
X5938Y2594D02*
D03*
X6012D02*
D03*
X4805Y2886D02*
D03*
X4768Y2964D02*
D03*
X4842D02*
D03*
X3760Y2381D02*
D03*
X3723Y2459D02*
D03*
X3797D02*
D03*
X3825Y2516D02*
D03*
X3788Y2594D02*
D03*
X3862D02*
D03*
X2655Y2886D02*
D03*
X2618Y2964D02*
D03*
X2692D02*
D03*
X1610Y2381D02*
D03*
X1573Y2459D02*
D03*
X1647D02*
D03*
X1675Y2516D02*
D03*
X1638Y2594D02*
D03*
X1712D02*
D03*
X505Y2886D02*
D03*
X468Y2964D02*
D03*
X542D02*
D03*
D55*
X4588Y3105D02*
D03*
Y3137D02*
D03*
Y3231D02*
D03*
Y3199D02*
D03*
Y3168D02*
D03*
X2438Y3105D02*
D03*
Y3137D02*
D03*
Y3231D02*
D03*
Y3199D02*
D03*
Y3168D02*
D03*
X288Y3105D02*
D03*
Y3137D02*
D03*
Y3231D02*
D03*
Y3199D02*
D03*
Y3168D02*
D03*
D56*
X4586Y2993D02*
D03*
Y3343D02*
D03*
X2436Y2993D02*
D03*
Y3343D02*
D03*
X286Y2993D02*
D03*
Y3343D02*
D03*
D57*
X4402Y2993D02*
D03*
Y3343D02*
D03*
X2252Y2993D02*
D03*
Y3343D02*
D03*
X102Y2993D02*
D03*
Y3343D02*
D03*
D58*
X5159Y2986D02*
D03*
X5179D02*
D03*
X5199D02*
D03*
X5218D02*
D03*
X5238D02*
D03*
X5258D02*
D03*
X5277D02*
D03*
X5297D02*
D03*
X5317D02*
D03*
X5337D02*
D03*
X5356D02*
D03*
X5376D02*
D03*
X5396D02*
D03*
X5415D02*
D03*
X5435D02*
D03*
X5455D02*
D03*
Y3350D02*
D03*
X5435D02*
D03*
X5415D02*
D03*
X5396D02*
D03*
X5376D02*
D03*
X5356D02*
D03*
X5337D02*
D03*
X5317D02*
D03*
X5297D02*
D03*
X5277D02*
D03*
X5258D02*
D03*
X5238D02*
D03*
X5218D02*
D03*
X5199D02*
D03*
X5179D02*
D03*
X5159D02*
D03*
X3009Y2986D02*
D03*
X3029D02*
D03*
X3049D02*
D03*
X3068D02*
D03*
X3088D02*
D03*
X3108D02*
D03*
X3127D02*
D03*
X3147D02*
D03*
X3167D02*
D03*
X3187D02*
D03*
X3206D02*
D03*
X3226D02*
D03*
X3246D02*
D03*
X3265D02*
D03*
X3285D02*
D03*
X3305D02*
D03*
Y3350D02*
D03*
X3285D02*
D03*
X3265D02*
D03*
X3246D02*
D03*
X3226D02*
D03*
X3206D02*
D03*
X3187D02*
D03*
X3167D02*
D03*
X3147D02*
D03*
X3127D02*
D03*
X3108D02*
D03*
X3088D02*
D03*
X3068D02*
D03*
X3049D02*
D03*
X3029D02*
D03*
X3009D02*
D03*
X859Y2986D02*
D03*
X879D02*
D03*
X899D02*
D03*
X918D02*
D03*
X938D02*
D03*
X958D02*
D03*
X977D02*
D03*
X997D02*
D03*
X1017D02*
D03*
X1037D02*
D03*
X1056D02*
D03*
X1076D02*
D03*
X1096D02*
D03*
X1115D02*
D03*
X1135D02*
D03*
X1155D02*
D03*
Y3350D02*
D03*
X1135D02*
D03*
X1115D02*
D03*
X1096D02*
D03*
X1076D02*
D03*
X1056D02*
D03*
X1037D02*
D03*
X1017D02*
D03*
X997D02*
D03*
X977D02*
D03*
X958D02*
D03*
X938D02*
D03*
X918D02*
D03*
X899D02*
D03*
X879D02*
D03*
X859D02*
D03*
D59*
X5489Y3020D02*
D03*
Y3040D02*
D03*
Y3060D02*
D03*
Y3079D02*
D03*
Y3099D02*
D03*
Y3119D02*
D03*
Y3138D02*
D03*
Y3158D02*
D03*
Y3178D02*
D03*
Y3198D02*
D03*
Y3217D02*
D03*
Y3237D02*
D03*
Y3257D02*
D03*
Y3276D02*
D03*
Y3296D02*
D03*
Y3316D02*
D03*
X5125D02*
D03*
Y3296D02*
D03*
Y3276D02*
D03*
Y3257D02*
D03*
Y3237D02*
D03*
Y3217D02*
D03*
Y3198D02*
D03*
Y3178D02*
D03*
Y3158D02*
D03*
Y3138D02*
D03*
Y3119D02*
D03*
Y3099D02*
D03*
Y3079D02*
D03*
Y3060D02*
D03*
Y3040D02*
D03*
Y3020D02*
D03*
X3339D02*
D03*
Y3040D02*
D03*
Y3060D02*
D03*
Y3079D02*
D03*
Y3099D02*
D03*
Y3119D02*
D03*
Y3138D02*
D03*
Y3158D02*
D03*
Y3178D02*
D03*
Y3198D02*
D03*
Y3217D02*
D03*
Y3237D02*
D03*
Y3257D02*
D03*
Y3276D02*
D03*
Y3296D02*
D03*
Y3316D02*
D03*
X2975D02*
D03*
Y3296D02*
D03*
Y3276D02*
D03*
Y3257D02*
D03*
Y3237D02*
D03*
Y3217D02*
D03*
Y3198D02*
D03*
Y3178D02*
D03*
Y3158D02*
D03*
Y3138D02*
D03*
Y3119D02*
D03*
Y3099D02*
D03*
Y3079D02*
D03*
Y3060D02*
D03*
Y3040D02*
D03*
Y3020D02*
D03*
X1189D02*
D03*
Y3040D02*
D03*
Y3060D02*
D03*
Y3079D02*
D03*
Y3099D02*
D03*
Y3119D02*
D03*
Y3138D02*
D03*
Y3158D02*
D03*
Y3178D02*
D03*
Y3198D02*
D03*
Y3217D02*
D03*
Y3237D02*
D03*
Y3257D02*
D03*
Y3276D02*
D03*
Y3296D02*
D03*
Y3316D02*
D03*
X825D02*
D03*
Y3296D02*
D03*
Y3276D02*
D03*
Y3257D02*
D03*
Y3237D02*
D03*
Y3217D02*
D03*
Y3198D02*
D03*
Y3178D02*
D03*
Y3158D02*
D03*
Y3138D02*
D03*
Y3119D02*
D03*
Y3099D02*
D03*
Y3079D02*
D03*
Y3060D02*
D03*
Y3040D02*
D03*
Y3020D02*
D03*
D60*
X5307Y3168D02*
D03*
X3157D02*
D03*
X1007D02*
D03*
D61*
X5639Y3280D02*
D03*
Y3255D02*
D03*
Y3229D02*
D03*
Y3203D02*
D03*
Y3178D02*
D03*
Y3152D02*
D03*
Y3127D02*
D03*
Y3101D02*
D03*
Y3075D02*
D03*
Y3050D02*
D03*
X5863Y3280D02*
D03*
Y3255D02*
D03*
Y3229D02*
D03*
Y3203D02*
D03*
Y3178D02*
D03*
Y3152D02*
D03*
Y3127D02*
D03*
Y3101D02*
D03*
Y3075D02*
D03*
Y3050D02*
D03*
X3489Y3280D02*
D03*
Y3255D02*
D03*
Y3229D02*
D03*
Y3203D02*
D03*
Y3178D02*
D03*
Y3152D02*
D03*
Y3127D02*
D03*
Y3101D02*
D03*
Y3075D02*
D03*
Y3050D02*
D03*
X3713Y3280D02*
D03*
Y3255D02*
D03*
Y3229D02*
D03*
Y3203D02*
D03*
Y3178D02*
D03*
Y3152D02*
D03*
Y3127D02*
D03*
Y3101D02*
D03*
Y3075D02*
D03*
Y3050D02*
D03*
X1339Y3280D02*
D03*
Y3255D02*
D03*
Y3229D02*
D03*
Y3203D02*
D03*
Y3178D02*
D03*
Y3152D02*
D03*
Y3127D02*
D03*
Y3101D02*
D03*
Y3075D02*
D03*
Y3050D02*
D03*
X1563Y3280D02*
D03*
Y3255D02*
D03*
Y3229D02*
D03*
Y3203D02*
D03*
Y3178D02*
D03*
Y3152D02*
D03*
Y3127D02*
D03*
Y3101D02*
D03*
Y3075D02*
D03*
Y3050D02*
D03*
D62*
X5778Y2415D02*
D03*
Y2452D02*
D03*
Y2489D02*
D03*
X5684D02*
D03*
Y2415D02*
D03*
X5778Y2215D02*
D03*
Y2252D02*
D03*
Y2289D02*
D03*
X5684D02*
D03*
Y2215D02*
D03*
X3628Y2415D02*
D03*
Y2452D02*
D03*
Y2489D02*
D03*
X3534D02*
D03*
Y2415D02*
D03*
X3628Y2215D02*
D03*
Y2252D02*
D03*
Y2289D02*
D03*
X3534D02*
D03*
Y2215D02*
D03*
X1478Y2415D02*
D03*
Y2452D02*
D03*
Y2489D02*
D03*
X1384D02*
D03*
Y2415D02*
D03*
X1478Y2215D02*
D03*
Y2252D02*
D03*
Y2289D02*
D03*
X1384D02*
D03*
Y2215D02*
D03*
D63*
X4622Y2539D02*
D03*
Y2513D02*
D03*
Y2487D02*
D03*
Y2462D02*
D03*
Y2436D02*
D03*
Y2411D02*
D03*
Y2385D02*
D03*
Y2359D02*
D03*
X4848Y2539D02*
D03*
Y2513D02*
D03*
Y2487D02*
D03*
Y2462D02*
D03*
Y2436D02*
D03*
Y2411D02*
D03*
Y2385D02*
D03*
Y2359D02*
D03*
X2472Y2539D02*
D03*
Y2513D02*
D03*
Y2487D02*
D03*
Y2462D02*
D03*
Y2436D02*
D03*
Y2411D02*
D03*
Y2385D02*
D03*
Y2359D02*
D03*
X2698Y2539D02*
D03*
Y2513D02*
D03*
Y2487D02*
D03*
Y2462D02*
D03*
Y2436D02*
D03*
Y2411D02*
D03*
Y2385D02*
D03*
Y2359D02*
D03*
X322Y2539D02*
D03*
Y2513D02*
D03*
Y2487D02*
D03*
Y2462D02*
D03*
Y2436D02*
D03*
Y2411D02*
D03*
Y2385D02*
D03*
Y2359D02*
D03*
X548Y2539D02*
D03*
Y2513D02*
D03*
Y2487D02*
D03*
Y2462D02*
D03*
Y2436D02*
D03*
Y2411D02*
D03*
Y2385D02*
D03*
Y2359D02*
D03*
D66*
X5300Y1000D02*
D03*
X3150D02*
D03*
X1000D02*
D03*
D67*
X5324Y1233D02*
D03*
X5338Y1219D02*
D03*
X5352Y1205D02*
D03*
X5366Y1191D02*
D03*
X5380Y1177D02*
D03*
X5394Y1164D02*
D03*
X5408Y1150D02*
D03*
X5422Y1136D02*
D03*
X5436Y1122D02*
D03*
X5450Y1108D02*
D03*
X5464Y1094D02*
D03*
X5477Y1080D02*
D03*
X5491Y1066D02*
D03*
X5505Y1052D02*
D03*
X5519Y1038D02*
D03*
X5533Y1024D02*
D03*
X5276Y767D02*
D03*
X5262Y781D02*
D03*
X5248Y795D02*
D03*
X5234Y809D02*
D03*
X5220Y823D02*
D03*
X5206Y836D02*
D03*
X5192Y850D02*
D03*
X5178Y864D02*
D03*
X5164Y878D02*
D03*
X5150Y892D02*
D03*
X5136Y906D02*
D03*
X5123Y920D02*
D03*
X5109Y934D02*
D03*
X5095Y948D02*
D03*
X5081Y962D02*
D03*
X5067Y976D02*
D03*
X3174Y1233D02*
D03*
X3188Y1219D02*
D03*
X3202Y1205D02*
D03*
X3216Y1191D02*
D03*
X3230Y1177D02*
D03*
X3244Y1164D02*
D03*
X3258Y1150D02*
D03*
X3272Y1136D02*
D03*
X3286Y1122D02*
D03*
X3300Y1108D02*
D03*
X3314Y1094D02*
D03*
X3327Y1080D02*
D03*
X3341Y1066D02*
D03*
X3355Y1052D02*
D03*
X3369Y1038D02*
D03*
X3383Y1024D02*
D03*
X3126Y767D02*
D03*
X3112Y781D02*
D03*
X3098Y795D02*
D03*
X3084Y809D02*
D03*
X3070Y823D02*
D03*
X3056Y836D02*
D03*
X3042Y850D02*
D03*
X3028Y864D02*
D03*
X3014Y878D02*
D03*
X3000Y892D02*
D03*
X2986Y906D02*
D03*
X2973Y920D02*
D03*
X2959Y934D02*
D03*
X2945Y948D02*
D03*
X2931Y962D02*
D03*
X2917Y976D02*
D03*
X1024Y1233D02*
D03*
X1038Y1219D02*
D03*
X1052Y1205D02*
D03*
X1066Y1191D02*
D03*
X1080Y1177D02*
D03*
X1094Y1164D02*
D03*
X1108Y1150D02*
D03*
X1122Y1136D02*
D03*
X1136Y1122D02*
D03*
X1150Y1108D02*
D03*
X1164Y1094D02*
D03*
X1177Y1080D02*
D03*
X1191Y1066D02*
D03*
X1205Y1052D02*
D03*
X1219Y1038D02*
D03*
X1233Y1024D02*
D03*
X976Y767D02*
D03*
X962Y781D02*
D03*
X948Y795D02*
D03*
X934Y809D02*
D03*
X920Y823D02*
D03*
X906Y836D02*
D03*
X892Y850D02*
D03*
X878Y864D02*
D03*
X864Y878D02*
D03*
X850Y892D02*
D03*
X836Y906D02*
D03*
X823Y920D02*
D03*
X809Y934D02*
D03*
X795Y948D02*
D03*
X781Y962D02*
D03*
X767Y976D02*
D03*
D68*
X5533D02*
D03*
X5519Y962D02*
D03*
X5505Y948D02*
D03*
X5491Y934D02*
D03*
X5477Y920D02*
D03*
X5464Y906D02*
D03*
X5450Y892D02*
D03*
X5436Y878D02*
D03*
X5422Y864D02*
D03*
X5408Y850D02*
D03*
X5394Y836D02*
D03*
X5380Y823D02*
D03*
X5366Y809D02*
D03*
X5352Y795D02*
D03*
X5338Y781D02*
D03*
X5324Y767D02*
D03*
X5067Y1024D02*
D03*
X5081Y1038D02*
D03*
X5095Y1052D02*
D03*
X5109Y1066D02*
D03*
X5123Y1080D02*
D03*
X5136Y1094D02*
D03*
X5150Y1108D02*
D03*
X5164Y1122D02*
D03*
X5178Y1136D02*
D03*
X5192Y1150D02*
D03*
X5206Y1164D02*
D03*
X5220Y1177D02*
D03*
X5234Y1191D02*
D03*
X5248Y1205D02*
D03*
X5262Y1219D02*
D03*
X5276Y1233D02*
D03*
X3383Y976D02*
D03*
X3369Y962D02*
D03*
X3355Y948D02*
D03*
X3341Y934D02*
D03*
X3327Y920D02*
D03*
X3314Y906D02*
D03*
X3300Y892D02*
D03*
X3286Y878D02*
D03*
X3272Y864D02*
D03*
X3258Y850D02*
D03*
X3244Y836D02*
D03*
X3230Y823D02*
D03*
X3216Y809D02*
D03*
X3202Y795D02*
D03*
X3188Y781D02*
D03*
X3174Y767D02*
D03*
X2917Y1024D02*
D03*
X2931Y1038D02*
D03*
X2945Y1052D02*
D03*
X2959Y1066D02*
D03*
X2973Y1080D02*
D03*
X2986Y1094D02*
D03*
X3000Y1108D02*
D03*
X3014Y1122D02*
D03*
X3028Y1136D02*
D03*
X3042Y1150D02*
D03*
X3056Y1164D02*
D03*
X3070Y1177D02*
D03*
X3084Y1191D02*
D03*
X3098Y1205D02*
D03*
X3112Y1219D02*
D03*
X3126Y1233D02*
D03*
X1233Y976D02*
D03*
X1219Y962D02*
D03*
X1205Y948D02*
D03*
X1191Y934D02*
D03*
X1177Y920D02*
D03*
X1164Y906D02*
D03*
X1150Y892D02*
D03*
X1136Y878D02*
D03*
X1122Y864D02*
D03*
X1108Y850D02*
D03*
X1094Y836D02*
D03*
X1080Y823D02*
D03*
X1066Y809D02*
D03*
X1052Y795D02*
D03*
X1038Y781D02*
D03*
X1024Y767D02*
D03*
X767Y1024D02*
D03*
X781Y1038D02*
D03*
X795Y1052D02*
D03*
X809Y1066D02*
D03*
X823Y1080D02*
D03*
X836Y1094D02*
D03*
X850Y1108D02*
D03*
X864Y1122D02*
D03*
X878Y1136D02*
D03*
X892Y1150D02*
D03*
X906Y1164D02*
D03*
X920Y1177D02*
D03*
X934Y1191D02*
D03*
X948Y1205D02*
D03*
X962Y1219D02*
D03*
X976Y1233D02*
D03*
D69*
X5441Y1211D02*
D03*
X5399Y1253D02*
D03*
X5085Y832D02*
D03*
X5127Y790D02*
D03*
X5555Y1102D02*
D03*
X5513Y1144D02*
D03*
X3291Y1211D02*
D03*
X3249Y1253D02*
D03*
X2935Y832D02*
D03*
X2977Y790D02*
D03*
X3405Y1102D02*
D03*
X3363Y1144D02*
D03*
X1141Y1211D02*
D03*
X1099Y1253D02*
D03*
X785Y832D02*
D03*
X827Y790D02*
D03*
X1255Y1102D02*
D03*
X1213Y1144D02*
D03*
D70*
X5063Y1110D02*
D03*
X5021Y1068D02*
D03*
X5320Y677D02*
D03*
X5362Y719D02*
D03*
X5519Y861D02*
D03*
X5561Y903D02*
D03*
X2913Y1110D02*
D03*
X2871Y1068D02*
D03*
X3170Y677D02*
D03*
X3212Y719D02*
D03*
X3369Y861D02*
D03*
X3411Y903D02*
D03*
X763Y1110D02*
D03*
X721Y1068D02*
D03*
X1020Y677D02*
D03*
X1062Y719D02*
D03*
X1219Y861D02*
D03*
X1261Y903D02*
D03*
D71*
X6177Y694D02*
D03*
Y744D02*
D03*
Y794D02*
D03*
Y844D02*
D03*
X5965Y694D02*
D03*
Y744D02*
D03*
Y794D02*
D03*
Y844D02*
D03*
X6177Y464D02*
D03*
Y514D02*
D03*
Y564D02*
D03*
Y614D02*
D03*
X5965Y464D02*
D03*
Y514D02*
D03*
Y564D02*
D03*
Y614D02*
D03*
X6177Y229D02*
D03*
Y279D02*
D03*
Y329D02*
D03*
Y379D02*
D03*
X5965Y229D02*
D03*
Y279D02*
D03*
Y329D02*
D03*
Y379D02*
D03*
X4634Y691D02*
D03*
Y741D02*
D03*
Y791D02*
D03*
Y841D02*
D03*
X4422Y691D02*
D03*
Y741D02*
D03*
Y791D02*
D03*
Y841D02*
D03*
X4635Y1627D02*
D03*
Y1677D02*
D03*
Y1727D02*
D03*
Y1777D02*
D03*
X4423Y1627D02*
D03*
Y1677D02*
D03*
Y1727D02*
D03*
Y1777D02*
D03*
X4634Y461D02*
D03*
Y511D02*
D03*
Y561D02*
D03*
Y611D02*
D03*
X4422Y461D02*
D03*
Y511D02*
D03*
Y561D02*
D03*
Y611D02*
D03*
X4635Y1397D02*
D03*
Y1447D02*
D03*
Y1497D02*
D03*
Y1547D02*
D03*
X4423Y1397D02*
D03*
Y1447D02*
D03*
Y1497D02*
D03*
Y1547D02*
D03*
X4634Y226D02*
D03*
Y276D02*
D03*
Y326D02*
D03*
Y376D02*
D03*
X4422Y226D02*
D03*
Y276D02*
D03*
Y326D02*
D03*
Y376D02*
D03*
X4635Y1162D02*
D03*
Y1212D02*
D03*
Y1262D02*
D03*
Y1312D02*
D03*
X4423Y1162D02*
D03*
Y1212D02*
D03*
Y1262D02*
D03*
Y1312D02*
D03*
X6177Y1628D02*
D03*
Y1678D02*
D03*
Y1728D02*
D03*
Y1778D02*
D03*
X5965Y1628D02*
D03*
Y1678D02*
D03*
Y1728D02*
D03*
Y1778D02*
D03*
X6177Y1398D02*
D03*
Y1448D02*
D03*
Y1498D02*
D03*
Y1548D02*
D03*
X5965Y1398D02*
D03*
Y1448D02*
D03*
Y1498D02*
D03*
Y1548D02*
D03*
X6177Y1163D02*
D03*
Y1213D02*
D03*
Y1263D02*
D03*
Y1313D02*
D03*
X5965Y1163D02*
D03*
Y1213D02*
D03*
Y1263D02*
D03*
Y1313D02*
D03*
X4027Y694D02*
D03*
Y744D02*
D03*
Y794D02*
D03*
Y844D02*
D03*
X3815Y694D02*
D03*
Y744D02*
D03*
Y794D02*
D03*
Y844D02*
D03*
X4027Y464D02*
D03*
Y514D02*
D03*
Y564D02*
D03*
Y614D02*
D03*
X3815Y464D02*
D03*
Y514D02*
D03*
Y564D02*
D03*
Y614D02*
D03*
X4027Y229D02*
D03*
Y279D02*
D03*
Y329D02*
D03*
Y379D02*
D03*
X3815Y229D02*
D03*
Y279D02*
D03*
Y329D02*
D03*
Y379D02*
D03*
X2484Y691D02*
D03*
Y741D02*
D03*
Y791D02*
D03*
Y841D02*
D03*
X2272Y691D02*
D03*
Y741D02*
D03*
Y791D02*
D03*
Y841D02*
D03*
X2485Y1627D02*
D03*
Y1677D02*
D03*
Y1727D02*
D03*
Y1777D02*
D03*
X2273Y1627D02*
D03*
Y1677D02*
D03*
Y1727D02*
D03*
Y1777D02*
D03*
X2484Y461D02*
D03*
Y511D02*
D03*
Y561D02*
D03*
Y611D02*
D03*
X2272Y461D02*
D03*
Y511D02*
D03*
Y561D02*
D03*
Y611D02*
D03*
X2485Y1397D02*
D03*
Y1447D02*
D03*
Y1497D02*
D03*
Y1547D02*
D03*
X2273Y1397D02*
D03*
Y1447D02*
D03*
Y1497D02*
D03*
Y1547D02*
D03*
X2484Y226D02*
D03*
Y276D02*
D03*
Y326D02*
D03*
Y376D02*
D03*
X2272Y226D02*
D03*
Y276D02*
D03*
Y326D02*
D03*
Y376D02*
D03*
X2485Y1162D02*
D03*
Y1212D02*
D03*
Y1262D02*
D03*
Y1312D02*
D03*
X2273Y1162D02*
D03*
Y1212D02*
D03*
Y1262D02*
D03*
Y1312D02*
D03*
X4027Y1628D02*
D03*
Y1678D02*
D03*
Y1728D02*
D03*
Y1778D02*
D03*
X3815Y1628D02*
D03*
Y1678D02*
D03*
Y1728D02*
D03*
Y1778D02*
D03*
X4027Y1398D02*
D03*
Y1448D02*
D03*
Y1498D02*
D03*
Y1548D02*
D03*
X3815Y1398D02*
D03*
Y1448D02*
D03*
Y1498D02*
D03*
Y1548D02*
D03*
X4027Y1163D02*
D03*
Y1213D02*
D03*
Y1263D02*
D03*
Y1313D02*
D03*
X3815Y1163D02*
D03*
Y1213D02*
D03*
Y1263D02*
D03*
Y1313D02*
D03*
X1877Y694D02*
D03*
Y744D02*
D03*
Y794D02*
D03*
Y844D02*
D03*
X1665Y694D02*
D03*
Y744D02*
D03*
Y794D02*
D03*
Y844D02*
D03*
X1877Y464D02*
D03*
Y514D02*
D03*
Y564D02*
D03*
Y614D02*
D03*
X1665Y464D02*
D03*
Y514D02*
D03*
Y564D02*
D03*
Y614D02*
D03*
X1877Y229D02*
D03*
Y279D02*
D03*
Y329D02*
D03*
Y379D02*
D03*
X1665Y229D02*
D03*
Y279D02*
D03*
Y329D02*
D03*
Y379D02*
D03*
X334Y691D02*
D03*
Y741D02*
D03*
Y791D02*
D03*
Y841D02*
D03*
X122Y691D02*
D03*
Y741D02*
D03*
Y791D02*
D03*
Y841D02*
D03*
X335Y1627D02*
D03*
Y1677D02*
D03*
Y1727D02*
D03*
Y1777D02*
D03*
X123Y1627D02*
D03*
Y1677D02*
D03*
Y1727D02*
D03*
Y1777D02*
D03*
X334Y461D02*
D03*
Y511D02*
D03*
Y561D02*
D03*
Y611D02*
D03*
X122Y461D02*
D03*
Y511D02*
D03*
Y561D02*
D03*
Y611D02*
D03*
X335Y1397D02*
D03*
Y1447D02*
D03*
Y1497D02*
D03*
Y1547D02*
D03*
X123Y1397D02*
D03*
Y1447D02*
D03*
Y1497D02*
D03*
Y1547D02*
D03*
X334Y226D02*
D03*
Y276D02*
D03*
Y326D02*
D03*
Y376D02*
D03*
X122Y226D02*
D03*
Y276D02*
D03*
Y326D02*
D03*
Y376D02*
D03*
X335Y1162D02*
D03*
Y1212D02*
D03*
Y1262D02*
D03*
Y1312D02*
D03*
X123Y1162D02*
D03*
Y1212D02*
D03*
Y1262D02*
D03*
Y1312D02*
D03*
X1877Y1628D02*
D03*
Y1678D02*
D03*
Y1728D02*
D03*
Y1778D02*
D03*
X1665Y1628D02*
D03*
Y1678D02*
D03*
Y1728D02*
D03*
Y1778D02*
D03*
X1877Y1398D02*
D03*
Y1448D02*
D03*
Y1498D02*
D03*
Y1548D02*
D03*
X1665Y1398D02*
D03*
Y1448D02*
D03*
Y1498D02*
D03*
Y1548D02*
D03*
X1877Y1163D02*
D03*
Y1213D02*
D03*
Y1263D02*
D03*
Y1313D02*
D03*
X1665Y1163D02*
D03*
Y1213D02*
D03*
Y1263D02*
D03*
Y1313D02*
D03*
D72*
X4851Y836D02*
D03*
X4949D02*
D03*
X4860Y1772D02*
D03*
X4958D02*
D03*
X4854Y611D02*
D03*
X4952D02*
D03*
X4863Y1547D02*
D03*
X4961D02*
D03*
X4853Y377D02*
D03*
X4951D02*
D03*
X4862Y1313D02*
D03*
X4960D02*
D03*
X2701Y836D02*
D03*
X2799D02*
D03*
X2710Y1772D02*
D03*
X2808D02*
D03*
X2704Y611D02*
D03*
X2802D02*
D03*
X2713Y1547D02*
D03*
X2811D02*
D03*
X2703Y377D02*
D03*
X2801D02*
D03*
X2712Y1313D02*
D03*
X2810D02*
D03*
X551Y836D02*
D03*
X649D02*
D03*
X560Y1772D02*
D03*
X658D02*
D03*
X554Y611D02*
D03*
X652D02*
D03*
X563Y1547D02*
D03*
X661D02*
D03*
X553Y377D02*
D03*
X651D02*
D03*
X562Y1313D02*
D03*
X660D02*
D03*
D73*
X4875Y973D02*
D03*
X4639D02*
D03*
X4916Y89D02*
D03*
X4680D02*
D03*
X5941Y998D02*
D03*
X5705D02*
D03*
X6025Y1915D02*
D03*
X5789D02*
D03*
X2725Y973D02*
D03*
X2489D02*
D03*
X2766Y89D02*
D03*
X2530D02*
D03*
X3791Y998D02*
D03*
X3555D02*
D03*
X3875Y1915D02*
D03*
X3639D02*
D03*
X575Y973D02*
D03*
X339D02*
D03*
X616Y89D02*
D03*
X380D02*
D03*
X1641Y998D02*
D03*
X1405D02*
D03*
X1725Y1915D02*
D03*
X1489D02*
D03*
D77*
X5150Y4447D02*
D03*
X5550D02*
D03*
Y6597D02*
D03*
X5150D02*
D03*
X5450D02*
D03*
Y2297D02*
D03*
X5150D02*
D03*
Y147D02*
D03*
X5450D02*
D03*
X3000D02*
D03*
X3300D02*
D03*
Y2297D02*
D03*
X3000D02*
D03*
X3400Y6597D02*
D03*
X3000D02*
D03*
X3300D02*
D03*
X3000Y4447D02*
D03*
X3400D02*
D03*
X850D02*
D03*
X1250D02*
D03*
Y6597D02*
D03*
X850D02*
D03*
X1150D02*
D03*
Y2297D02*
D03*
X850D02*
D03*
Y147D02*
D03*
X1150D02*
D03*
D78*
X6200Y6200D02*
D03*
X4400D02*
D03*
Y4400D02*
D03*
X6200D02*
D03*
Y8350D02*
D03*
X4400D02*
D03*
Y6550D02*
D03*
X6200D02*
D03*
X4400Y2250D02*
D03*
X6200D02*
D03*
Y4050D02*
D03*
X4400D02*
D03*
Y1900D02*
D03*
X6200D02*
D03*
Y100D02*
D03*
X4400D02*
D03*
X2250Y1900D02*
D03*
X4050D02*
D03*
Y100D02*
D03*
X2250D02*
D03*
Y2250D02*
D03*
X4050D02*
D03*
Y4050D02*
D03*
X2250D02*
D03*
X4050Y8350D02*
D03*
X2250D02*
D03*
Y6550D02*
D03*
X4050D02*
D03*
Y6200D02*
D03*
X2250D02*
D03*
Y4400D02*
D03*
X4050D02*
D03*
X1900Y6200D02*
D03*
X100D02*
D03*
Y4400D02*
D03*
X1900D02*
D03*
Y8350D02*
D03*
X100D02*
D03*
Y6550D02*
D03*
X1900D02*
D03*
X100Y2250D02*
D03*
X1900D02*
D03*
Y4050D02*
D03*
X100D02*
D03*
Y1900D02*
D03*
X1900D02*
D03*
Y100D02*
D03*
X100D02*
D03*
D79*
X4929Y4472D02*
D03*
X5964Y8362D02*
D03*
X6035Y2930D02*
D03*
Y2810D02*
D03*
Y3170D02*
D03*
Y3050D02*
D03*
Y3410D02*
D03*
Y3290D02*
D03*
Y3650D02*
D03*
Y3530D02*
D03*
X3885Y2930D02*
D03*
Y2810D02*
D03*
Y3170D02*
D03*
Y3050D02*
D03*
Y3410D02*
D03*
Y3290D02*
D03*
Y3650D02*
D03*
Y3530D02*
D03*
X3814Y8362D02*
D03*
X2779Y4472D02*
D03*
X629D02*
D03*
X1664Y8362D02*
D03*
X1735Y2930D02*
D03*
Y2810D02*
D03*
Y3170D02*
D03*
Y3050D02*
D03*
Y3410D02*
D03*
Y3290D02*
D03*
Y3650D02*
D03*
Y3530D02*
D03*
D80*
X4929Y4372D02*
D03*
X4829Y4472D02*
D03*
Y4372D02*
D03*
X4729Y4472D02*
D03*
Y4372D02*
D03*
X4629Y4472D02*
D03*
Y4372D02*
D03*
X4574Y8023D02*
D03*
Y8123D02*
D03*
Y8223D02*
D03*
X5864Y8362D02*
D03*
X5764D02*
D03*
X5664D02*
D03*
X6235Y2590D02*
D03*
Y2490D02*
D03*
X6115Y2590D02*
D03*
Y2490D02*
D03*
X6135Y2930D02*
D03*
X6235D02*
D03*
X6135Y2810D02*
D03*
X6235D02*
D03*
X6135Y3170D02*
D03*
X6235D02*
D03*
X6135Y3050D02*
D03*
X6235D02*
D03*
X6135Y3410D02*
D03*
X6235D02*
D03*
X6135Y3290D02*
D03*
X6235D02*
D03*
X6135Y3650D02*
D03*
X6235D02*
D03*
X6135Y3530D02*
D03*
X6235D02*
D03*
X4085Y2590D02*
D03*
Y2490D02*
D03*
X3965Y2590D02*
D03*
Y2490D02*
D03*
X3985Y2930D02*
D03*
X4085D02*
D03*
X3985Y2810D02*
D03*
X4085D02*
D03*
X3985Y3170D02*
D03*
X4085D02*
D03*
X3985Y3050D02*
D03*
X4085D02*
D03*
X3985Y3410D02*
D03*
X4085D02*
D03*
X3985Y3290D02*
D03*
X4085D02*
D03*
X3985Y3650D02*
D03*
X4085D02*
D03*
X3985Y3530D02*
D03*
X4085D02*
D03*
X2424Y8023D02*
D03*
Y8123D02*
D03*
Y8223D02*
D03*
X3714Y8362D02*
D03*
X3614D02*
D03*
X3514D02*
D03*
X2779Y4372D02*
D03*
X2679Y4472D02*
D03*
Y4372D02*
D03*
X2579Y4472D02*
D03*
Y4372D02*
D03*
X2479Y4472D02*
D03*
Y4372D02*
D03*
X629D02*
D03*
X529Y4472D02*
D03*
Y4372D02*
D03*
X429Y4472D02*
D03*
Y4372D02*
D03*
X329Y4472D02*
D03*
Y4372D02*
D03*
X274Y8023D02*
D03*
Y8123D02*
D03*
Y8223D02*
D03*
X1564Y8362D02*
D03*
X1464D02*
D03*
X1364D02*
D03*
X1935Y2590D02*
D03*
Y2490D02*
D03*
X1815Y2590D02*
D03*
Y2490D02*
D03*
X1835Y2930D02*
D03*
X1935D02*
D03*
X1835Y2810D02*
D03*
X1935D02*
D03*
X1835Y3170D02*
D03*
X1935D02*
D03*
X1835Y3050D02*
D03*
X1935D02*
D03*
X1835Y3410D02*
D03*
X1935D02*
D03*
X1835Y3290D02*
D03*
X1935D02*
D03*
X1835Y3650D02*
D03*
X1935D02*
D03*
X1835Y3530D02*
D03*
X1935D02*
D03*
D83*
X4574Y7923D02*
D03*
X6235Y2690D02*
D03*
X6115D02*
D03*
X4085D02*
D03*
X3965D02*
D03*
X2424Y7923D02*
D03*
X274D02*
D03*
X1935Y2690D02*
D03*
X1815D02*
D03*
D84*
X5906Y3805D02*
D03*
X5827D02*
D03*
X5749D02*
D03*
X5434D02*
D03*
X5355D02*
D03*
X5276D02*
D03*
X4961D02*
D03*
X4882D02*
D03*
X4804D02*
D03*
X4645Y2837D02*
D03*
Y2759D02*
D03*
X3756Y3805D02*
D03*
X3677D02*
D03*
X3599D02*
D03*
X3284D02*
D03*
X3205D02*
D03*
X3126D02*
D03*
X2811D02*
D03*
X2732D02*
D03*
X2654D02*
D03*
X2495Y2837D02*
D03*
Y2759D02*
D03*
X1606Y3805D02*
D03*
X1527D02*
D03*
X1449D02*
D03*
X1134D02*
D03*
X1055D02*
D03*
X976D02*
D03*
X661D02*
D03*
X582D02*
D03*
X504D02*
D03*
X345Y2837D02*
D03*
Y2759D02*
D03*
D85*
X5670Y3805D02*
D03*
X5198D02*
D03*
X4725D02*
D03*
X3520D02*
D03*
X3047D02*
D03*
X2575D02*
D03*
X1370D02*
D03*
X897D02*
D03*
X425D02*
D03*
D86*
X4645Y2680D02*
D03*
X2495D02*
D03*
X345D02*
D03*
D87*
X4489Y3255D02*
D03*
Y3081D02*
D03*
X2339Y3255D02*
D03*
Y3081D02*
D03*
X189Y3255D02*
D03*
Y3081D02*
D03*
D90*
X5225Y1591D02*
D03*
X5275D02*
D03*
X5325D02*
D03*
X3075D02*
D03*
X3125D02*
D03*
X3175D02*
D03*
X925D02*
D03*
X975D02*
D03*
X1025D02*
D03*
M02*
