%FSLAX24Y24*%
%MOIN*%
G70*
G01*
G75*
G04 Layer_Color=16711935*
%ADD10C,0.0177*%
%ADD11R,0.0315X0.0374*%
%ADD12R,0.0374X0.0315*%
%ADD13C,0.0100*%
%ADD14R,0.2165X0.0787*%
%ADD15R,0.0394X0.0394*%
%ADD16R,0.0394X0.0394*%
%ADD17O,0.0709X0.0217*%
%ADD18O,0.0217X0.0709*%
%ADD19R,0.0315X0.0512*%
%ADD20O,0.0118X0.0689*%
%ADD21O,0.0689X0.0118*%
%ADD22O,0.0138X0.0650*%
%ADD23R,0.1220X0.1181*%
%ADD24R,0.1102X0.0551*%
%ADD25R,0.0787X0.0630*%
G04:AMPARAMS|DCode=26|XSize=228.3mil|YSize=82.7mil|CornerRadius=20.7mil|HoleSize=0mil|Usage=FLASHONLY|Rotation=180.000|XOffset=0mil|YOffset=0mil|HoleType=Round|Shape=RoundedRectangle|*
%AMROUNDEDRECTD26*
21,1,0.2283,0.0413,0,0,180.0*
21,1,0.1870,0.0827,0,0,180.0*
1,1,0.0413,-0.0935,0.0207*
1,1,0.0413,0.0935,0.0207*
1,1,0.0413,0.0935,-0.0207*
1,1,0.0413,-0.0935,-0.0207*
%
%ADD26ROUNDEDRECTD26*%
%ADD27R,0.0335X0.0138*%
%ADD28R,0.0335X0.0135*%
%ADD29R,0.0291X0.0728*%
%ADD30O,0.0866X0.0236*%
%ADD31R,0.0512X0.0315*%
%ADD32C,0.0120*%
%ADD33C,0.0200*%
%ADD34C,0.0350*%
%ADD35C,0.0250*%
%ADD36C,0.0080*%
%ADD37R,0.2874X0.2874*%
%ADD38R,0.0768X0.0768*%
%ADD39R,0.0197X0.0138*%
%ADD40R,0.0138X0.0197*%
%ADD41R,0.0532X0.0197*%
%ADD42R,0.1299X0.0866*%
%ADD43R,0.0256X0.0866*%
%ADD44R,0.0236X0.0453*%
%ADD45R,0.0453X0.0236*%
%ADD46R,0.0256X0.0335*%
%ADD47C,0.0150*%
%ADD48R,0.0374X0.0295*%
%ADD49R,0.0295X0.0374*%
%ADD50O,0.0630X0.0138*%
%ADD51R,0.0472X0.0217*%
%ADD52O,0.0669X0.0138*%
%ADD53R,0.3012X0.3012*%
%ADD54O,0.0335X0.0098*%
%ADD55O,0.0098X0.0335*%
%ADD56R,0.1378X0.0689*%
%ADD57R,0.0984X0.0689*%
%ADD58R,0.0886X0.0197*%
%ADD59R,0.0315X0.0354*%
%ADD60R,0.0354X0.0315*%
%ADD61R,0.0354X0.0295*%
%ADD62R,0.0295X0.0354*%
%ADD63C,0.0300*%
%ADD64C,0.0160*%
%ADD65P,0.4259X4X360.0*%
G04:AMPARAMS|DCode=66|XSize=9.8mil|YSize=33.5mil|CornerRadius=0mil|HoleSize=0mil|Usage=FLASHONLY|Rotation=315.000|XOffset=0mil|YOffset=0mil|HoleType=Round|Shape=Round|*
%AMOVALD66*
21,1,0.0236,0.0098,0.0000,0.0000,45.0*
1,1,0.0098,-0.0084,-0.0084*
1,1,0.0098,0.0084,0.0084*
%
%ADD66OVALD66*%

G04:AMPARAMS|DCode=67|XSize=9.8mil|YSize=33.5mil|CornerRadius=0mil|HoleSize=0mil|Usage=FLASHONLY|Rotation=45.000|XOffset=0mil|YOffset=0mil|HoleType=Round|Shape=Round|*
%AMOVALD67*
21,1,0.0236,0.0098,0.0000,0.0000,135.0*
1,1,0.0098,0.0084,-0.0084*
1,1,0.0098,-0.0084,0.0084*
%
%ADD67OVALD67*%

G04:AMPARAMS|DCode=68|XSize=37.4mil|YSize=31.5mil|CornerRadius=0mil|HoleSize=0mil|Usage=FLASHONLY|Rotation=45.000|XOffset=0mil|YOffset=0mil|HoleType=Round|Shape=Rectangle|*
%AMROTATEDRECTD68*
4,1,4,-0.0021,-0.0244,-0.0244,-0.0021,0.0021,0.0244,0.0244,0.0021,-0.0021,-0.0244,0.0*
%
%ADD68ROTATEDRECTD68*%

G04:AMPARAMS|DCode=69|XSize=37.4mil|YSize=31.5mil|CornerRadius=0mil|HoleSize=0mil|Usage=FLASHONLY|Rotation=135.000|XOffset=0mil|YOffset=0mil|HoleType=Round|Shape=Rectangle|*
%AMROTATEDRECTD69*
4,1,4,0.0244,-0.0021,0.0021,-0.0244,-0.0244,0.0021,-0.0021,0.0244,0.0244,-0.0021,0.0*
%
%ADD69ROTATEDRECTD69*%

%ADD70R,0.0591X0.0236*%
%ADD71R,0.0315X0.0315*%
%ADD72R,0.0906X0.1417*%
%ADD73C,0.0180*%
%ADD74C,0.0250*%
%ADD75C,0.0591*%
%ADD76R,0.0591X0.0591*%
%ADD77C,0.0860*%
%ADD78C,0.0354*%
%ADD79C,0.0500*%
%ADD80C,0.0350*%
%ADD81C,0.0450*%
%ADD82R,0.0591X0.0591*%
%ADD83C,0.0600*%
%ADD84R,0.0600X0.0600*%
%ADD85R,0.0600X0.0600*%
%ADD86C,0.0400*%
%ADD87C,0.0300*%
%ADD88C,0.0394*%
%ADD89C,0.0320*%
%ADD90C,0.0500*%
%ADD91R,6.4140X0.0760*%
%ADD92R,6.4010X0.0760*%
%ADD93R,6.4060X0.0610*%
%ADD94R,0.0980X7.3930*%
%ADD95R,0.3150X0.0394*%
%ADD96R,0.0472X0.0256*%
%ADD97C,0.0236*%
%ADD98R,0.2180X0.0830*%
%ADD99R,0.2006X0.0179*%
%ADD100R,0.0456X0.1019*%
%ADD101R,0.0256X0.0472*%
%ADD102R,0.0374X0.0118*%
%ADD103R,0.0118X0.0374*%
%ADD104R,0.1260X0.1260*%
%ADD105R,0.0217X0.0472*%
%ADD106C,0.0060*%
%ADD107C,0.0098*%
%ADD108C,0.0079*%
%ADD109C,0.0050*%
%ADD110C,0.0197*%
%ADD111C,0.0040*%
%ADD112C,0.0059*%
%ADD113R,0.0118X0.0118*%
%ADD114R,0.0138X0.0138*%
%ADD115P,0.0195X4X360.0*%
%ADD116R,0.0276X0.1575*%
%ADD117R,0.0669X0.0669*%
G04:AMPARAMS|DCode=118|XSize=66.9mil|YSize=66.9mil|CornerRadius=0mil|HoleSize=0mil|Usage=FLASHONLY|Rotation=315.000|XOffset=0mil|YOffset=0mil|HoleType=Round|Shape=Rectangle|*
%AMROTATEDRECTD118*
4,1,4,-0.0473,-0.0000,0.0000,0.0473,0.0473,0.0000,-0.0000,-0.0473,-0.0473,-0.0000,0.0*
%
%ADD118ROTATEDRECTD118*%

%ADD119P,0.0947X4X360.0*%
G04:AMPARAMS|DCode=120|XSize=66.9mil|YSize=66.9mil|CornerRadius=0mil|HoleSize=0mil|Usage=FLASHONLY|Rotation=315.000|XOffset=0mil|YOffset=0mil|HoleType=Round|Shape=Rectangle|*
%AMROTATEDRECTD120*
4,1,4,-0.0473,0.0000,-0.0000,0.0473,0.0473,-0.0000,0.0000,-0.0473,-0.0473,0.0000,0.0*
%
%ADD120ROTATEDRECTD120*%

%ADD121P,0.0947X4X360.0*%
%ADD122R,0.0465X0.0209*%
%ADD123O,0.0319X0.0083*%
%ADD124O,0.0083X0.0319*%
%ADD125R,0.1319X0.0630*%
%ADD126R,0.0925X0.0630*%
%ADD127R,0.0827X0.0138*%
%ADD128R,0.0295X0.0335*%
%ADD129R,0.0335X0.0295*%
G04:AMPARAMS|DCode=130|XSize=8.3mil|YSize=31.9mil|CornerRadius=0mil|HoleSize=0mil|Usage=FLASHONLY|Rotation=315.000|XOffset=0mil|YOffset=0mil|HoleType=Round|Shape=Round|*
%AMOVALD130*
21,1,0.0236,0.0083,0.0000,0.0000,45.0*
1,1,0.0083,-0.0084,-0.0084*
1,1,0.0083,0.0084,0.0084*
%
%ADD130OVALD130*%

G04:AMPARAMS|DCode=131|XSize=8.3mil|YSize=31.9mil|CornerRadius=0mil|HoleSize=0mil|Usage=FLASHONLY|Rotation=45.000|XOffset=0mil|YOffset=0mil|HoleType=Round|Shape=Round|*
%AMOVALD131*
21,1,0.0236,0.0083,0.0000,0.0000,135.0*
1,1,0.0083,0.0084,-0.0084*
1,1,0.0083,-0.0084,0.0084*
%
%ADD131OVALD131*%

%ADD132R,0.0295X0.0295*%
%ADD133R,0.0787X0.1299*%
%ADD134R,0.0850X0.1450*%
%ADD135R,0.1300X0.0900*%
%ADD136C,0.0257*%
%ADD137R,0.2245X0.0867*%
%ADD138R,0.0474X0.0474*%
%ADD139R,0.0474X0.0474*%
%ADD140O,0.0789X0.0297*%
%ADD141O,0.0297X0.0789*%
%ADD142O,0.0198X0.0769*%
%ADD143O,0.0769X0.0198*%
%ADD144O,0.0218X0.0730*%
%ADD145R,0.1300X0.1261*%
%ADD146R,0.0827X0.0670*%
G04:AMPARAMS|DCode=147|XSize=236.3mil|YSize=90.7mil|CornerRadius=22.7mil|HoleSize=0mil|Usage=FLASHONLY|Rotation=180.000|XOffset=0mil|YOffset=0mil|HoleType=Round|Shape=RoundedRectangle|*
%AMROUNDEDRECTD147*
21,1,0.2363,0.0453,0,0,180.0*
21,1,0.1910,0.0907,0,0,180.0*
1,1,0.0453,-0.0955,0.0227*
1,1,0.0453,0.0955,0.0227*
1,1,0.0453,0.0955,-0.0227*
1,1,0.0453,-0.0955,-0.0227*
%
%ADD147ROUNDEDRECTD147*%
%ADD148R,0.0415X0.0218*%
%ADD149R,0.0415X0.0215*%
%ADD150R,0.0371X0.0808*%
%ADD151O,0.0946X0.0316*%
%ADD152R,0.2954X0.2954*%
%ADD153R,0.0808X0.0808*%
%ADD154R,0.0277X0.0218*%
%ADD155R,0.0218X0.0277*%
%ADD156R,0.0612X0.0277*%
%ADD157R,0.1379X0.0946*%
%ADD158R,0.0336X0.0946*%
%ADD159R,0.0316X0.0533*%
%ADD160R,0.0533X0.0316*%
%ADD161R,0.0336X0.0415*%
%ADD162O,0.0710X0.0218*%
%ADD163O,0.0749X0.0218*%
%ADD164R,0.3052X0.3052*%
%ADD165O,0.0350X0.0114*%
%ADD166O,0.0114X0.0350*%
%ADD167R,0.0906X0.0217*%
%ADD168P,0.4316X4X360.0*%
G04:AMPARAMS|DCode=169|XSize=11.4mil|YSize=35mil|CornerRadius=0mil|HoleSize=0mil|Usage=FLASHONLY|Rotation=315.000|XOffset=0mil|YOffset=0mil|HoleType=Round|Shape=Round|*
%AMOVALD169*
21,1,0.0236,0.0114,0.0000,0.0000,45.0*
1,1,0.0114,-0.0084,-0.0084*
1,1,0.0114,0.0084,0.0084*
%
%ADD169OVALD169*%

G04:AMPARAMS|DCode=170|XSize=11.4mil|YSize=35mil|CornerRadius=0mil|HoleSize=0mil|Usage=FLASHONLY|Rotation=45.000|XOffset=0mil|YOffset=0mil|HoleType=Round|Shape=Round|*
%AMOVALD170*
21,1,0.0236,0.0114,0.0000,0.0000,135.0*
1,1,0.0114,0.0084,-0.0084*
1,1,0.0114,-0.0084,0.0084*
%
%ADD170OVALD170*%

%ADD171R,0.0611X0.0256*%
%ADD172R,0.0335X0.0335*%
%ADD173R,0.0926X0.1437*%
%ADD174C,0.0671*%
%ADD175R,0.0671X0.0671*%
%ADD176C,0.0940*%
%ADD177C,0.0434*%
%ADD178C,0.0669*%
%ADD179R,0.0669X0.0669*%
%ADD180R,0.0669X0.0669*%
%ADD181C,0.0680*%
%ADD182C,0.0374*%
%ADD183R,0.0680X0.0680*%
%ADD184R,0.0680X0.0680*%
%ADD185R,0.0671X0.0671*%
%ADD186C,0.0474*%
%ADD187R,0.3190X0.0434*%
%ADD188R,0.0552X0.0336*%
%ADD189R,0.0336X0.0552*%
%ADD190R,0.0384X0.0128*%
%ADD191R,0.0128X0.0384*%
%ADD192R,0.1339X0.1339*%
%ADD193R,0.0297X0.0552*%
%ADD194R,0.0400X0.0411*%
%ADD195R,0.0350X0.0094*%
%ADD196R,0.0094X0.0350*%
%ADD197R,0.0178X0.0176*%
%ADD198R,0.0276X0.1575*%
%ADD199C,0.0039*%
%ADD200R,0.0374X0.0090*%
%ADD201R,0.0090X0.0374*%
%ADD202R,0.0374X0.0090*%
%ADD203R,0.0550X0.1700*%
D199*
X65877Y52002D02*
Y54718D01*
X68593Y52002D02*
Y54718D01*
X65877Y52002D02*
X68593D01*
X65877Y54718D02*
X68593D01*
X67325Y55163D02*
Y55497D01*
X67975Y55163D02*
Y55497D01*
X67325D02*
X67975D01*
X67325Y55163D02*
X67975D01*
X66875Y55163D02*
Y55497D01*
X66225Y55163D02*
Y55497D01*
Y55163D02*
X66875D01*
X66225Y55497D02*
X66875D01*
X65083Y53755D02*
X65417D01*
X65083Y54405D02*
X65417D01*
X65083Y53755D02*
Y54405D01*
X65417Y53755D02*
Y54405D01*
X65083Y53155D02*
X65417D01*
X65083Y52505D02*
X65417D01*
Y53155D01*
X65083Y52505D02*
Y53155D01*
X66275Y51213D02*
Y51547D01*
X65625Y51213D02*
Y51547D01*
Y51213D02*
X66275D01*
X65625Y51547D02*
X66275D01*
X67325Y51213D02*
Y51547D01*
X66675Y51213D02*
Y51547D01*
Y51213D02*
X67325D01*
X66675Y51547D02*
X67325D01*
X68425Y51213D02*
Y51547D01*
X67775Y51213D02*
Y51547D01*
Y51213D02*
X68425D01*
X67775Y51547D02*
X68425D01*
X69033Y53555D02*
X69367D01*
X69033Y52905D02*
X69367D01*
Y53555D01*
X69033Y52905D02*
Y53555D01*
X69033Y54255D02*
X69367D01*
X69033Y54905D02*
X69367D01*
X69033Y54255D02*
Y54905D01*
X69367Y54255D02*
Y54905D01*
X65877Y58402D02*
Y61118D01*
X68593Y58402D02*
Y61118D01*
X65877Y58402D02*
X68593D01*
X65877Y61118D02*
X68593D01*
X67325Y61563D02*
Y61897D01*
X67975Y61563D02*
Y61897D01*
X67325D02*
X67975D01*
X67325Y61563D02*
X67975D01*
X66875Y61563D02*
Y61897D01*
X66225Y61563D02*
Y61897D01*
Y61563D02*
X66875D01*
X66225Y61897D02*
X66875D01*
X65083Y60155D02*
X65417D01*
X65083Y60805D02*
X65417D01*
X65083Y60155D02*
Y60805D01*
X65417Y60155D02*
Y60805D01*
X65083Y59555D02*
X65417D01*
X65083Y58905D02*
X65417D01*
Y59555D01*
X65083Y58905D02*
Y59555D01*
X66275Y57613D02*
Y57947D01*
X65625Y57613D02*
Y57947D01*
Y57613D02*
X66275D01*
X65625Y57947D02*
X66275D01*
X67325Y57613D02*
Y57947D01*
X66675Y57613D02*
Y57947D01*
Y57613D02*
X67325D01*
X66675Y57947D02*
X67325D01*
X68425Y57613D02*
Y57947D01*
X67775Y57613D02*
Y57947D01*
Y57613D02*
X68425D01*
X67775Y57947D02*
X68425D01*
X69033Y59955D02*
X69367D01*
X69033Y59305D02*
X69367D01*
Y59955D01*
X69033Y59305D02*
Y59955D01*
X69033Y60655D02*
X69367D01*
X69033Y61305D02*
X69367D01*
X69033Y60655D02*
Y61305D01*
X69367Y60655D02*
Y61305D01*
X65877Y64802D02*
Y67518D01*
X68593Y64802D02*
Y67518D01*
X65877Y64802D02*
X68593D01*
X65877Y67518D02*
X68593D01*
X67325Y67963D02*
Y68297D01*
X67975Y67963D02*
Y68297D01*
X67325D02*
X67975D01*
X67325Y67963D02*
X67975D01*
X66875Y67963D02*
Y68297D01*
X66225Y67963D02*
Y68297D01*
Y67963D02*
X66875D01*
X66225Y68297D02*
X66875D01*
X65083Y66555D02*
X65417D01*
X65083Y67205D02*
X65417D01*
X65083Y66555D02*
Y67205D01*
X65417Y66555D02*
Y67205D01*
X65083Y65955D02*
X65417D01*
X65083Y65305D02*
X65417D01*
Y65955D01*
X65083Y65305D02*
Y65955D01*
X66275Y64013D02*
Y64347D01*
X65625Y64013D02*
Y64347D01*
Y64013D02*
X66275D01*
X65625Y64347D02*
X66275D01*
X67325Y64013D02*
Y64347D01*
X66675Y64013D02*
Y64347D01*
Y64013D02*
X67325D01*
X66675Y64347D02*
X67325D01*
X68425Y64013D02*
Y64347D01*
X67775Y64013D02*
Y64347D01*
Y64013D02*
X68425D01*
X67775Y64347D02*
X68425D01*
X69033Y66355D02*
X69367D01*
X69033Y65705D02*
X69367D01*
Y66355D01*
X69033Y65705D02*
Y66355D01*
X69033Y67055D02*
X69367D01*
X69033Y67705D02*
X69367D01*
X69033Y67055D02*
Y67705D01*
X69367Y67055D02*
Y67705D01*
X65877Y71152D02*
Y73868D01*
X68593Y71152D02*
Y73868D01*
X65877Y71152D02*
X68593D01*
X65877Y73868D02*
X68593D01*
X67325Y74313D02*
Y74647D01*
X67975Y74313D02*
Y74647D01*
X67325D02*
X67975D01*
X67325Y74313D02*
X67975D01*
X66875Y74313D02*
Y74647D01*
X66225Y74313D02*
Y74647D01*
Y74313D02*
X66875D01*
X66225Y74647D02*
X66875D01*
X65083Y72905D02*
X65417D01*
X65083Y73555D02*
X65417D01*
X65083Y72905D02*
Y73555D01*
X65417Y72905D02*
Y73555D01*
X65083Y72305D02*
X65417D01*
X65083Y71655D02*
X65417D01*
Y72305D01*
X65083Y71655D02*
Y72305D01*
X66275Y70363D02*
Y70697D01*
X65625Y70363D02*
Y70697D01*
Y70363D02*
X66275D01*
X65625Y70697D02*
X66275D01*
X67325Y70363D02*
Y70697D01*
X66675Y70363D02*
Y70697D01*
Y70363D02*
X67325D01*
X66675Y70697D02*
X67325D01*
X68425Y70363D02*
Y70697D01*
X67775Y70363D02*
Y70697D01*
Y70363D02*
X68425D01*
X67775Y70697D02*
X68425D01*
X69033Y72705D02*
X69367D01*
X69033Y72055D02*
X69367D01*
Y72705D01*
X69033Y72055D02*
Y72705D01*
X69033Y73405D02*
X69367D01*
X69033Y74055D02*
X69367D01*
X69033Y73405D02*
Y74055D01*
X69367Y73405D02*
Y74055D01*
X65877Y26452D02*
Y29168D01*
X68593Y26452D02*
Y29168D01*
X65877Y26452D02*
X68593D01*
X65877Y29168D02*
X68593D01*
X67325Y29613D02*
Y29947D01*
X67975Y29613D02*
Y29947D01*
X67325D02*
X67975D01*
X67325Y29613D02*
X67975D01*
X66875Y29613D02*
Y29947D01*
X66225Y29613D02*
Y29947D01*
Y29613D02*
X66875D01*
X66225Y29947D02*
X66875D01*
X65083Y28205D02*
X65417D01*
X65083Y28855D02*
X65417D01*
X65083Y28205D02*
Y28855D01*
X65417Y28205D02*
Y28855D01*
X65083Y27605D02*
X65417D01*
X65083Y26955D02*
X65417D01*
Y27605D01*
X65083Y26955D02*
Y27605D01*
X66275Y25663D02*
Y25997D01*
X65625Y25663D02*
Y25997D01*
Y25663D02*
X66275D01*
X65625Y25997D02*
X66275D01*
X67325Y25663D02*
Y25997D01*
X66675Y25663D02*
Y25997D01*
Y25663D02*
X67325D01*
X66675Y25997D02*
X67325D01*
X68425Y25663D02*
Y25997D01*
X67775Y25663D02*
Y25997D01*
Y25663D02*
X68425D01*
X67775Y25997D02*
X68425D01*
X69033Y28005D02*
X69367D01*
X69033Y27355D02*
X69367D01*
Y28005D01*
X69033Y27355D02*
Y28005D01*
X69033Y28705D02*
X69367D01*
X69033Y29355D02*
X69367D01*
X69033Y28705D02*
Y29355D01*
X69367Y28705D02*
Y29355D01*
X65877Y32852D02*
Y35568D01*
X68593Y32852D02*
Y35568D01*
X65877Y32852D02*
X68593D01*
X65877Y35568D02*
X68593D01*
X67325Y36013D02*
Y36347D01*
X67975Y36013D02*
Y36347D01*
X67325D02*
X67975D01*
X67325Y36013D02*
X67975D01*
X66875Y36013D02*
Y36347D01*
X66225Y36013D02*
Y36347D01*
Y36013D02*
X66875D01*
X66225Y36347D02*
X66875D01*
X65083Y34605D02*
X65417D01*
X65083Y35255D02*
X65417D01*
X65083Y34605D02*
Y35255D01*
X65417Y34605D02*
Y35255D01*
X65083Y34005D02*
X65417D01*
X65083Y33355D02*
X65417D01*
Y34005D01*
X65083Y33355D02*
Y34005D01*
X66275Y32063D02*
Y32397D01*
X65625Y32063D02*
Y32397D01*
Y32063D02*
X66275D01*
X65625Y32397D02*
X66275D01*
X67325Y32063D02*
Y32397D01*
X66675Y32063D02*
Y32397D01*
Y32063D02*
X67325D01*
X66675Y32397D02*
X67325D01*
X68425Y32063D02*
Y32397D01*
X67775Y32063D02*
Y32397D01*
Y32063D02*
X68425D01*
X67775Y32397D02*
X68425D01*
X69033Y34405D02*
X69367D01*
X69033Y33755D02*
X69367D01*
Y34405D01*
X69033Y33755D02*
Y34405D01*
X69033Y35105D02*
X69367D01*
X69033Y35755D02*
X69367D01*
X69033Y35105D02*
Y35755D01*
X69367Y35105D02*
Y35755D01*
X65877Y39252D02*
Y41968D01*
X68593Y39252D02*
Y41968D01*
X65877Y39252D02*
X68593D01*
X65877Y41968D02*
X68593D01*
X67325Y42413D02*
Y42747D01*
X67975Y42413D02*
Y42747D01*
X67325D02*
X67975D01*
X67325Y42413D02*
X67975D01*
X66875Y42413D02*
Y42747D01*
X66225Y42413D02*
Y42747D01*
Y42413D02*
X66875D01*
X66225Y42747D02*
X66875D01*
X65083Y41005D02*
X65417D01*
X65083Y41655D02*
X65417D01*
X65083Y41005D02*
Y41655D01*
X65417Y41005D02*
Y41655D01*
X65083Y40405D02*
X65417D01*
X65083Y39755D02*
X65417D01*
Y40405D01*
X65083Y39755D02*
Y40405D01*
X66275Y38463D02*
Y38797D01*
X65625Y38463D02*
Y38797D01*
Y38463D02*
X66275D01*
X65625Y38797D02*
X66275D01*
X67325Y38463D02*
Y38797D01*
X66675Y38463D02*
Y38797D01*
Y38463D02*
X67325D01*
X66675Y38797D02*
X67325D01*
X68425Y38463D02*
Y38797D01*
X67775Y38463D02*
Y38797D01*
Y38463D02*
X68425D01*
X67775Y38797D02*
X68425D01*
X69033Y40805D02*
X69367D01*
X69033Y40155D02*
X69367D01*
Y40805D01*
X69033Y40155D02*
Y40805D01*
X69033Y41505D02*
X69367D01*
X69033Y42155D02*
X69367D01*
X69033Y41505D02*
Y42155D01*
X69367Y41505D02*
Y42155D01*
X65877Y45602D02*
Y48318D01*
X68593Y45602D02*
Y48318D01*
X65877Y45602D02*
X68593D01*
X65877Y48318D02*
X68593D01*
X67325Y48763D02*
Y49097D01*
X67975Y48763D02*
Y49097D01*
X67325D02*
X67975D01*
X67325Y48763D02*
X67975D01*
X66875Y48763D02*
Y49097D01*
X66225Y48763D02*
Y49097D01*
Y48763D02*
X66875D01*
X66225Y49097D02*
X66875D01*
X65083Y47355D02*
X65417D01*
X65083Y48005D02*
X65417D01*
X65083Y47355D02*
Y48005D01*
X65417Y47355D02*
Y48005D01*
X65083Y46755D02*
X65417D01*
X65083Y46105D02*
X65417D01*
Y46755D01*
X65083Y46105D02*
Y46755D01*
X66275Y44813D02*
Y45147D01*
X65625Y44813D02*
Y45147D01*
Y44813D02*
X66275D01*
X65625Y45147D02*
X66275D01*
X67325Y44813D02*
Y45147D01*
X66675Y44813D02*
Y45147D01*
Y44813D02*
X67325D01*
X66675Y45147D02*
X67325D01*
X68425Y44813D02*
Y45147D01*
X67775Y44813D02*
Y45147D01*
Y44813D02*
X68425D01*
X67775Y45147D02*
X68425D01*
X69033Y47155D02*
X69367D01*
X69033Y46505D02*
X69367D01*
Y47155D01*
X69033Y46505D02*
Y47155D01*
X69033Y47855D02*
X69367D01*
X69033Y48505D02*
X69367D01*
X69033Y47855D02*
Y48505D01*
X69367Y47855D02*
Y48505D01*
X49065Y53378D02*
G03*
X49065Y53378I-197J0D01*
G01*
X50284Y60588D02*
G03*
X50284Y60588I-197J0D01*
G01*
X57107Y43975D02*
Y44625D01*
X56773Y43975D02*
Y44625D01*
X57107D01*
X56773Y43975D02*
X57107D01*
X54445Y57223D02*
Y57557D01*
X53795Y57223D02*
Y57557D01*
Y57223D02*
X54445D01*
X53795Y57557D02*
X54445D01*
X50343Y62445D02*
X50677D01*
X50343Y61795D02*
X50677D01*
Y62445D01*
X50343Y61795D02*
Y62445D01*
X50923Y61805D02*
X51257D01*
X50923Y62455D02*
X51257D01*
X50923Y61805D02*
Y62455D01*
X51257Y61805D02*
Y62455D01*
X49763Y61795D02*
X50097D01*
X49763Y62445D02*
X50097D01*
X49763Y61795D02*
Y62445D01*
X50097Y61795D02*
Y62445D01*
X48725Y59043D02*
Y59377D01*
X48075Y59043D02*
Y59377D01*
Y59043D02*
X48725D01*
X48075Y59377D02*
X48725D01*
X53135Y58593D02*
Y58927D01*
X52485Y58593D02*
Y58927D01*
Y58593D02*
X53135D01*
X52485Y58927D02*
X53135D01*
X52343Y58245D02*
X52677D01*
X52343Y57595D02*
X52677D01*
Y58245D01*
X52343Y57595D02*
Y58245D01*
X52953D02*
X53287D01*
X52953Y57595D02*
X53287D01*
Y58245D01*
X52953Y57595D02*
Y58245D01*
X54083Y58555D02*
X54417D01*
X54083Y57905D02*
X54417D01*
Y58555D01*
X54083Y57905D02*
Y58555D01*
X57395Y60743D02*
Y61077D01*
X56745Y60743D02*
Y61077D01*
Y60743D02*
X57395D01*
X56745Y61077D02*
X57395D01*
X58695Y59563D02*
Y59897D01*
X59345Y59563D02*
Y59897D01*
X58695D02*
X59345D01*
X58695Y59563D02*
X59345D01*
X58685Y58433D02*
Y58767D01*
X59335Y58433D02*
Y58767D01*
X58685D02*
X59335D01*
X58685Y58433D02*
X59335D01*
X57063Y55475D02*
X57397D01*
X57063Y54825D02*
X57397D01*
Y55475D01*
X57063Y54825D02*
Y55475D01*
X58695Y57443D02*
Y57777D01*
X59345Y57443D02*
Y57777D01*
X58695D02*
X59345D01*
X58695Y57443D02*
X59345D01*
X52283Y60715D02*
X52617D01*
X52283Y61365D02*
X52617D01*
X52283Y60715D02*
Y61365D01*
X52617Y60715D02*
Y61365D01*
X48143Y58215D02*
X48477D01*
X48143Y57565D02*
X48477D01*
Y58215D01*
X48143Y57565D02*
Y58215D01*
X47523D02*
X47857D01*
X47523Y57565D02*
X47857D01*
Y58215D01*
X47523Y57565D02*
Y58215D01*
X55169Y57389D02*
Y60070D01*
Y57389D02*
X58071D01*
Y60291D01*
X55390D02*
X58071D01*
X55169Y60070D02*
X55390Y60291D01*
X54233Y59605D02*
X54567D01*
X54233Y60255D02*
X54567D01*
X54233Y59605D02*
Y60255D01*
X54567Y59605D02*
Y60255D01*
X48593Y55335D02*
X48927D01*
X48593Y54685D02*
X48927D01*
Y55335D01*
X48593Y54685D02*
Y55335D01*
X51123Y51644D02*
Y52196D01*
X50257Y51644D02*
Y52196D01*
Y51644D02*
X51123D01*
X50257Y52196D02*
X51123D01*
X44518Y53752D02*
X49242D01*
X44518Y49028D02*
X49242D01*
Y53752D01*
X44518Y49028D02*
Y53752D01*
X43263Y50935D02*
X43597D01*
X43263Y50285D02*
X43597D01*
Y50935D01*
X43263Y50285D02*
Y50935D01*
X46817Y49594D02*
Y50146D01*
X47683Y49594D02*
Y50146D01*
X46817Y49594D02*
X47683D01*
X46817Y50146D02*
X47683D01*
X51005Y51113D02*
Y51447D01*
X50355Y51113D02*
Y51447D01*
Y51113D02*
X51005D01*
X50355Y51447D02*
X51005D01*
X46165Y47753D02*
Y48087D01*
X46815Y47753D02*
Y48087D01*
X46165D02*
X46815D01*
X46165Y47753D02*
X46815D01*
X48085Y47753D02*
Y48087D01*
X47435Y47753D02*
Y48087D01*
Y47753D02*
X48085D01*
X47435Y48087D02*
X48085D01*
X54573Y46035D02*
X54907D01*
X54573Y46685D02*
X54907D01*
X54573Y46035D02*
Y46685D01*
X54907Y46035D02*
Y46685D01*
X51093Y46035D02*
X51427D01*
X51093Y46685D02*
X51427D01*
X51093Y46035D02*
Y46685D01*
X51427Y46035D02*
Y46685D01*
X60513Y50165D02*
X60847D01*
X60513Y50815D02*
X60847D01*
X60513Y50165D02*
Y50815D01*
X60847Y50165D02*
Y50815D01*
X59743Y50185D02*
X60077D01*
X59743Y50835D02*
X60077D01*
X59743Y50185D02*
Y50835D01*
X60077Y50185D02*
Y50835D01*
X61683Y47595D02*
X62017D01*
X61683Y46945D02*
X62017D01*
Y47595D01*
X61683Y46945D02*
Y47595D01*
X61294Y47384D02*
Y49156D01*
X59286Y47384D02*
Y49156D01*
X61294D01*
X59286Y47384D02*
X61294D01*
X58195Y49813D02*
Y50147D01*
X58845Y49813D02*
Y50147D01*
X58195D02*
X58845D01*
X58195Y49813D02*
X58845D01*
X57779Y47071D02*
X58842D01*
X57779Y48409D02*
X58842D01*
X57779Y47071D02*
Y48409D01*
X58842Y47071D02*
Y48409D01*
X56933Y47515D02*
X57267D01*
X56933Y48165D02*
X57267D01*
X56933Y47515D02*
Y48165D01*
X57267Y47515D02*
Y48165D01*
X60635Y46123D02*
Y46457D01*
X61285Y46123D02*
Y46457D01*
X60635D02*
X61285D01*
X60635Y46123D02*
X61285D01*
X53026Y50859D02*
X53734D01*
X53026Y49521D02*
X53734D01*
Y50859D01*
X53026Y49521D02*
Y50859D01*
X56316Y54415D02*
Y55085D01*
X55844Y54415D02*
Y55085D01*
Y54415D02*
X56316D01*
X55844Y55085D02*
X56316D01*
X54816Y54425D02*
Y55095D01*
X54344Y54425D02*
Y55095D01*
Y54425D02*
X54816D01*
X54344Y55095D02*
X54816D01*
X55905Y60753D02*
Y61087D01*
X55255Y60753D02*
Y61087D01*
Y60753D02*
X55905D01*
X55255Y61087D02*
X55905D01*
X53353Y53955D02*
X53687D01*
X53353Y54605D02*
X53687D01*
X53353Y53955D02*
Y54605D01*
X53687Y53955D02*
Y54605D01*
X52175Y54413D02*
Y54747D01*
X52825Y54413D02*
Y54747D01*
X52175D02*
X52825D01*
X52175Y54413D02*
X52825D01*
X61683Y48275D02*
X62017D01*
X61683Y48925D02*
X62017D01*
X61683Y48275D02*
Y48925D01*
X62017Y48275D02*
Y48925D01*
X54083Y46035D02*
X54417D01*
X54083Y46685D02*
X54417D01*
X54083Y46035D02*
Y46685D01*
X54417Y46035D02*
Y46685D01*
X53593Y46035D02*
X53927D01*
X53593Y46685D02*
X53927D01*
X53593Y46035D02*
Y46685D01*
X53927Y46035D02*
Y46685D01*
X53083Y46035D02*
X53417D01*
X53083Y46685D02*
X53417D01*
X53083Y46035D02*
Y46685D01*
X53417Y46035D02*
Y46685D01*
X52593Y46035D02*
X52927D01*
X52593Y46685D02*
X52927D01*
X52593Y46035D02*
Y46685D01*
X52927Y46035D02*
Y46685D01*
X52103Y46035D02*
X52437D01*
X52103Y46685D02*
X52437D01*
X52103Y46035D02*
Y46685D01*
X52437Y46035D02*
Y46685D01*
X51593Y46035D02*
X51927D01*
X51593Y46685D02*
X51927D01*
X51593Y46035D02*
Y46685D01*
X51927Y46035D02*
Y46685D01*
X43463Y58025D02*
X43797D01*
X43463Y57375D02*
X43797D01*
Y58025D01*
X43463Y57375D02*
Y58025D01*
X44213D02*
X44547D01*
X44213Y57375D02*
X44547D01*
Y58025D01*
X44213Y57375D02*
Y58025D01*
X44983D02*
X45317D01*
X44983Y57375D02*
X45317D01*
Y58025D01*
X44983Y57375D02*
Y58025D01*
X49733Y57498D02*
Y60942D01*
X51307Y57498D02*
Y60942D01*
X49733D02*
X51307D01*
X49733Y57498D02*
X51307D01*
X47503Y60085D02*
X47837D01*
X47503Y60735D02*
X47837D01*
X47503Y60085D02*
Y60735D01*
X47837Y60085D02*
Y60735D01*
X48143Y60085D02*
X48477D01*
X48143Y60735D02*
X48477D01*
X48143Y60085D02*
Y60735D01*
X48477Y60085D02*
Y60735D01*
X47284Y55533D02*
X47836D01*
X47284Y54667D02*
X47836D01*
Y55533D01*
X47284Y54667D02*
Y55533D01*
X46493Y55415D02*
X46827D01*
X46493Y54765D02*
X46827D01*
Y55415D01*
X46493Y54765D02*
Y55415D01*
X45983D02*
X46317D01*
X45983Y54765D02*
X46317D01*
Y55415D01*
X45983Y54765D02*
Y55415D01*
X44843Y55355D02*
X45177D01*
X44843Y54705D02*
X45177D01*
Y55355D01*
X44843Y54705D02*
Y55355D01*
X45045Y47783D02*
Y48117D01*
X44395Y47783D02*
Y48117D01*
Y47783D02*
X45045D01*
X44395Y48117D02*
X45045D01*
X50375Y52373D02*
Y52707D01*
X51025Y52373D02*
Y52707D01*
X50375D02*
X51025D01*
X50375Y52373D02*
X51025D01*
X53057Y72929D02*
G03*
X53057Y72929I-197J0D01*
G01*
X46944Y76235D02*
G03*
X46944Y76235I-197J0D01*
G01*
X59642Y78912D02*
G03*
X59642Y78912I-197J0D01*
G01*
X52486Y69366D02*
Y73303D01*
X56423Y69366D02*
Y73303D01*
X52486D02*
X56423D01*
X52486Y69366D02*
X56423D01*
X54937Y81845D02*
Y82495D01*
X54603Y81845D02*
Y82495D01*
X54937D01*
X54603Y81845D02*
X54937D01*
X54603Y83005D02*
Y83655D01*
X54937Y83005D02*
Y83655D01*
X54603Y83005D02*
X54937D01*
X54603Y83655D02*
X54937D01*
X52023Y83005D02*
Y83655D01*
X52357Y83005D02*
Y83655D01*
X52023Y83005D02*
X52357D01*
X52023Y83655D02*
X52357D01*
X53015Y84057D02*
X53665D01*
X53015Y83723D02*
X53665D01*
X53015D02*
Y84057D01*
X53665Y83723D02*
Y84057D01*
X50913Y81835D02*
Y82485D01*
X51247Y81835D02*
Y82485D01*
X50913Y81835D02*
X51247D01*
X50913Y82485D02*
X51247D01*
X50913Y82985D02*
Y83635D01*
X51247Y82985D02*
Y83635D01*
X50913Y82985D02*
X51247D01*
X50913Y83635D02*
X51247D01*
X46913Y80945D02*
Y81595D01*
X47247Y80945D02*
Y81595D01*
X46913Y80945D02*
X47247D01*
X46913Y81595D02*
X47247D01*
X48185Y80187D02*
X48835D01*
X48185Y79853D02*
X48835D01*
X48185D02*
Y80187D01*
X48835Y79853D02*
Y80187D01*
X49575Y79843D02*
X50225D01*
X49575Y80177D02*
X50225D01*
Y79843D02*
Y80177D01*
X49575Y79843D02*
Y80177D01*
X47247Y82145D02*
Y82795D01*
X46913Y82145D02*
Y82795D01*
X47247D01*
X46913Y82145D02*
X47247D01*
X47742Y80627D02*
Y83343D01*
X50458Y80627D02*
Y83343D01*
X47742D02*
X50458D01*
X47742Y80627D02*
X50458D01*
X49025Y83793D02*
X49675D01*
X49025Y84127D02*
X49675D01*
Y83793D02*
Y84127D01*
X49025Y83793D02*
Y84127D01*
X47775D02*
X48425D01*
X47775Y83793D02*
X48425D01*
X47775D02*
Y84127D01*
X48425Y83793D02*
Y84127D01*
X51247Y80655D02*
Y81305D01*
X50913Y80655D02*
Y81305D01*
X51247D01*
X50913Y80655D02*
X51247D01*
X49045Y76523D02*
Y76857D01*
X49695Y76523D02*
Y76857D01*
X49045D02*
X49695D01*
X49045Y76523D02*
X49695D01*
X49045Y76023D02*
Y76357D01*
X49695Y76023D02*
Y76357D01*
X49045D02*
X49695D01*
X49045Y76023D02*
X49695D01*
X47355Y71743D02*
Y72077D01*
X48005Y71743D02*
Y72077D01*
X47355D02*
X48005D01*
X47355Y71743D02*
X48005D01*
X47355Y72223D02*
Y72557D01*
X48005Y72223D02*
Y72557D01*
X47355Y72223D02*
X48005D01*
X47355Y72557D02*
X48005D01*
X44745Y76713D02*
Y77047D01*
X45395Y76713D02*
Y77047D01*
X44745D02*
X45395D01*
X44745Y76713D02*
X45395D01*
X44735Y76213D02*
Y76547D01*
X45385Y76213D02*
Y76547D01*
X44735D02*
X45385D01*
X44735Y76213D02*
X45385D01*
X44695Y75243D02*
Y75577D01*
X45345Y75243D02*
Y75577D01*
X44695D02*
X45345D01*
X44695Y75243D02*
X45345D01*
X44695Y74763D02*
Y75097D01*
X45345Y74763D02*
Y75097D01*
X44695D02*
X45345D01*
X44695Y74763D02*
X45345D01*
X44705Y74163D02*
Y74497D01*
X45355Y74163D02*
Y74497D01*
X44705D02*
X45355D01*
X44705Y74163D02*
X45355D01*
X44705Y73683D02*
Y74017D01*
X45355Y73683D02*
Y74017D01*
X44705D02*
X45355D01*
X44705Y73683D02*
X45355D01*
X44725Y72983D02*
Y73317D01*
X45375Y72983D02*
Y73317D01*
X44725D02*
X45375D01*
X44725Y72983D02*
X45375D01*
X44745Y72503D02*
Y72837D01*
X45395Y72503D02*
Y72837D01*
X44745D02*
X45395D01*
X44745Y72503D02*
X45395D01*
X46095Y77313D02*
Y77647D01*
X46745Y77313D02*
Y77647D01*
X46095D02*
X46745D01*
X46095Y77313D02*
X46745D01*
Y76813D02*
Y77147D01*
X46095Y76813D02*
Y77147D01*
Y76813D02*
X46745D01*
X46095Y77147D02*
X46745D01*
X47345Y77313D02*
Y77647D01*
X47995Y77313D02*
Y77647D01*
X47345D02*
X47995D01*
X47345Y77313D02*
X47995D01*
Y76813D02*
Y77147D01*
X47345Y76813D02*
Y77147D01*
Y76813D02*
X47995D01*
X47345Y77147D02*
X47995D01*
X46374Y72751D02*
X48066D01*
X46374Y76609D02*
X48066D01*
Y72751D02*
Y76609D01*
X46374Y72751D02*
Y76609D01*
X49045Y75113D02*
Y75447D01*
X49695Y75113D02*
Y75447D01*
X49045D02*
X49695D01*
X49045Y75113D02*
X49695D01*
X49045Y74613D02*
Y74947D01*
X49695Y74613D02*
Y74947D01*
X49045D02*
X49695D01*
X49045Y74613D02*
X49695D01*
X49045Y74133D02*
Y74467D01*
X49695Y74133D02*
Y74467D01*
X49045D02*
X49695D01*
X49045Y74133D02*
X49695D01*
X49045Y73653D02*
Y73987D01*
X49695Y73653D02*
Y73987D01*
X49045D02*
X49695D01*
X49045Y73653D02*
X49695D01*
X49045Y72873D02*
Y73207D01*
X49695Y72873D02*
Y73207D01*
X49045D02*
X49695D01*
X49045Y72873D02*
X49695D01*
X49045Y72393D02*
Y72727D01*
X49695Y72393D02*
Y72727D01*
X49045D02*
X49695D01*
X49045Y72393D02*
X49695D01*
X48005Y72223D02*
Y72557D01*
X47355Y72223D02*
Y72557D01*
Y72223D02*
X48005D01*
X47355Y72557D02*
X48005D01*
X46055Y72233D02*
Y72567D01*
X46705Y72233D02*
Y72567D01*
X46055D02*
X46705D01*
X46055Y72233D02*
X46705D01*
X46705Y71753D02*
Y72087D01*
X46055Y71753D02*
Y72087D01*
Y71753D02*
X46705D01*
X46055Y72087D02*
X46705D01*
X46165Y77313D02*
Y77647D01*
X46815Y77313D02*
Y77647D01*
X46165Y77313D02*
X46815D01*
X46165Y77647D02*
X46815D01*
Y76813D02*
Y77147D01*
X46165Y76813D02*
Y77147D01*
X46815D01*
X46165Y76813D02*
X46815D01*
X47345Y77313D02*
Y77647D01*
X47995Y77313D02*
Y77647D01*
X47345Y77313D02*
X47995D01*
X47345Y77647D02*
X47995D01*
Y76813D02*
Y77147D01*
X47345Y76813D02*
Y77147D01*
X47995D01*
X47345Y76813D02*
X47995D01*
X48445Y75643D02*
Y75977D01*
X49095Y75643D02*
Y75977D01*
X48445Y75643D02*
X49095D01*
X48445Y75977D02*
X49095D01*
X48445Y74613D02*
Y74947D01*
X49095Y74613D02*
Y74947D01*
X48445Y74613D02*
X49095D01*
X48445Y74947D02*
X49095D01*
X48445Y72533D02*
Y72867D01*
X49095Y72533D02*
Y72867D01*
X48445Y72533D02*
X49095D01*
X48445Y72867D02*
X49095D01*
X48445Y71733D02*
Y72067D01*
X49095Y71733D02*
Y72067D01*
X48445Y71733D02*
X49095D01*
X48445Y72067D02*
X49095D01*
X46055Y71753D02*
Y72087D01*
X46705Y71753D02*
Y72087D01*
X46055Y71753D02*
X46705D01*
X46055Y72087D02*
X46705D01*
Y72233D02*
Y72567D01*
X46055Y72233D02*
Y72567D01*
X46705D01*
X46055Y72233D02*
X46705D01*
X48445Y73533D02*
Y73867D01*
X49095Y73533D02*
Y73867D01*
X48445Y73533D02*
X49095D01*
X48445Y73867D02*
X49095D01*
X44485Y72713D02*
Y73047D01*
X45135Y72713D02*
Y73047D01*
X44485Y72713D02*
X45135D01*
X44485Y73047D02*
X45135D01*
X44745Y75243D02*
Y75577D01*
X45395Y75243D02*
Y75577D01*
X44745Y75243D02*
X45395D01*
X44745Y75577D02*
X45395D01*
X48005Y71743D02*
Y72077D01*
X47355Y71743D02*
Y72077D01*
X48005D01*
X47355Y71743D02*
X48005D01*
X55961Y77594D02*
Y79286D01*
X59819Y77594D02*
Y79286D01*
X55961Y77594D02*
X59819D01*
X55961Y79286D02*
X59819D01*
X54953Y78305D02*
X55287D01*
X54953Y77655D02*
X55287D01*
Y78305D01*
X54953Y77655D02*
Y78305D01*
X55713Y80915D02*
X56047D01*
X55713Y80265D02*
X56047D01*
Y80915D01*
X55713Y80265D02*
Y80915D01*
X55603Y76615D02*
X55937D01*
X55603Y75965D02*
X55937D01*
Y76615D01*
X55603Y75965D02*
Y76615D01*
X56083D02*
X56417D01*
X56083Y75965D02*
X56417D01*
Y76615D01*
X56083Y75965D02*
Y76615D01*
X55433Y78305D02*
X55767D01*
X55433Y77655D02*
X55767D01*
X55433D02*
Y78305D01*
X55767Y77655D02*
Y78305D01*
X56193Y80915D02*
X56527D01*
X56193Y80265D02*
X56527D01*
Y80915D01*
X56193Y80265D02*
Y80915D01*
X54963Y79605D02*
X55297D01*
X54963Y78955D02*
X55297D01*
X54963D02*
Y79605D01*
X55297Y78955D02*
Y79605D01*
X56893Y80915D02*
X57227D01*
X56893Y80265D02*
X57227D01*
Y80915D01*
X56893Y80265D02*
Y80915D01*
X56863Y76615D02*
X57197D01*
X56863Y75965D02*
X57197D01*
Y76615D01*
X56863Y75965D02*
Y76615D01*
X57343D02*
X57677D01*
X57343Y75965D02*
X57677D01*
Y76615D01*
X57343Y75965D02*
Y76615D01*
X55443Y79605D02*
X55777D01*
X55443Y78955D02*
X55777D01*
Y79605D01*
X55443Y78955D02*
Y79605D01*
X57373Y80915D02*
X57707D01*
X57373Y80265D02*
X57707D01*
Y80915D01*
X57373Y80265D02*
Y80915D01*
X60523Y79565D02*
X60857D01*
X60523Y78915D02*
X60857D01*
Y79565D01*
X60523Y78915D02*
Y79565D01*
X57973Y80915D02*
X58307D01*
X57973Y80265D02*
X58307D01*
Y80915D01*
X57973Y80265D02*
Y80915D01*
X57823Y76615D02*
X58157D01*
X57823Y75965D02*
X58157D01*
Y76615D01*
X57823Y75965D02*
Y76615D01*
X58323D02*
X58657D01*
X58323Y75965D02*
X58657D01*
Y76615D01*
X58323Y75965D02*
Y76615D01*
X60523Y79495D02*
X60857D01*
X60523Y78845D02*
X60857D01*
X60523D02*
Y79495D01*
X60857Y78845D02*
Y79495D01*
X58453Y80915D02*
X58787D01*
X58453Y80265D02*
X58787D01*
Y80915D01*
X58453Y80265D02*
Y80915D01*
X60523Y78315D02*
X60857D01*
X60523Y77665D02*
X60857D01*
X60523D02*
Y78315D01*
X60857Y77665D02*
Y78315D01*
X59423Y80915D02*
X59757D01*
X59423Y80265D02*
X59757D01*
Y80915D01*
X59423Y80265D02*
Y80915D01*
X59233Y76615D02*
X59567D01*
X59233Y75965D02*
X59567D01*
Y76615D01*
X59233Y75965D02*
Y76615D01*
X59733D02*
X60067D01*
X59733Y75965D02*
X60067D01*
Y76615D01*
X59733Y75965D02*
Y76615D01*
X60523Y78315D02*
X60857D01*
X60523Y77665D02*
X60857D01*
Y78315D01*
X60523Y77665D02*
Y78315D01*
X59923Y80915D02*
X60257D01*
X59923Y80265D02*
X60257D01*
Y80915D01*
X59923Y80265D02*
Y80915D01*
X55433Y77655D02*
X55767D01*
X55433Y78305D02*
X55767D01*
X55433Y77655D02*
Y78305D01*
X55767Y77655D02*
Y78305D01*
X57823Y77215D02*
X58157D01*
X57823Y76565D02*
X58157D01*
X57823D02*
Y77215D01*
X58157Y76565D02*
Y77215D01*
X56743D02*
X57077D01*
X56743Y76565D02*
X57077D01*
X56743D02*
Y77215D01*
X57077Y76565D02*
Y77215D01*
X54943D02*
X55277D01*
X54943Y76565D02*
X55277D01*
X54943D02*
Y77215D01*
X55277Y76565D02*
Y77215D01*
X55743D02*
X56077D01*
X55743Y76565D02*
X56077D01*
X55743D02*
Y77215D01*
X56077Y76565D02*
Y77215D01*
X58853D02*
X59187D01*
X58853Y76565D02*
X59187D01*
X58853D02*
Y77215D01*
X59187Y76565D02*
Y77215D01*
X54953Y77655D02*
X55287D01*
X54953Y78305D02*
X55287D01*
Y77655D02*
Y78305D01*
X54953Y77655D02*
Y78305D01*
X55443Y78955D02*
X55777D01*
X55443Y79605D02*
X55777D01*
Y78955D02*
Y79605D01*
X55443Y78955D02*
Y79605D01*
X55923Y81175D02*
X56257D01*
X55923Y80525D02*
X56257D01*
X55923D02*
Y81175D01*
X56257Y80525D02*
Y81175D01*
X54963Y78955D02*
X55297D01*
X54963Y79605D02*
X55297D01*
X54963Y78955D02*
Y79605D01*
X55297Y78955D02*
Y79605D01*
X60023Y78915D02*
X60357D01*
X60023Y79565D02*
X60357D01*
X60023Y78915D02*
Y79565D01*
X60357Y78915D02*
Y79565D01*
X60023Y78845D02*
X60357D01*
X60023Y79495D02*
X60357D01*
Y78845D02*
Y79495D01*
X60023Y78845D02*
Y79495D01*
Y77665D02*
X60357D01*
X60023Y78315D02*
X60357D01*
Y77665D02*
Y78315D01*
X60023Y77665D02*
Y78315D01*
X58453Y80915D02*
X58787D01*
X58453Y80265D02*
X58787D01*
X58453D02*
Y80915D01*
X58787Y80265D02*
Y80915D01*
X60023Y77665D02*
X60357D01*
X60023Y78315D02*
X60357D01*
X60023Y77665D02*
Y78315D01*
X60357Y77665D02*
Y78315D01*
X53233Y74225D02*
Y74875D01*
X53567Y74225D02*
Y74875D01*
X53233Y74225D02*
X53567D01*
X53233Y74875D02*
X53567D01*
X52175Y74417D02*
X52825D01*
X52175Y74083D02*
X52825D01*
X52175D02*
Y74417D01*
X52825Y74083D02*
Y74417D01*
X54197Y74235D02*
Y74885D01*
X53863Y74235D02*
Y74885D01*
X54197D01*
X53863Y74235D02*
X54197D01*
X51224Y79953D02*
X51756D01*
X51224Y79087D02*
X51756D01*
X51224D02*
Y79953D01*
X51756Y79087D02*
Y79953D01*
X45161Y65801D02*
Y67199D01*
X47739Y65801D02*
Y67199D01*
X45161Y65801D02*
X47739D01*
X45161Y67199D02*
X47739D01*
X58895Y69593D02*
X59545D01*
X58895Y69927D02*
X59545D01*
Y69593D02*
Y69927D01*
X58895Y69593D02*
Y69927D01*
X58435Y68627D02*
X59085D01*
X58435Y68293D02*
X59085D01*
X58435D02*
Y68627D01*
X59085Y68293D02*
Y68627D01*
X60015Y68293D02*
X60665D01*
X60015Y68627D02*
X60665D01*
Y68293D02*
Y68627D01*
X60015Y68293D02*
Y68627D01*
X58261Y65801D02*
Y67199D01*
X60839Y65801D02*
Y67199D01*
X58261Y65801D02*
X60839D01*
X58261Y67199D02*
X60839D01*
X45335Y68637D02*
X45985D01*
X45335Y68303D02*
X45985D01*
X45335D02*
Y68637D01*
X45985Y68303D02*
Y68637D01*
X46925Y68303D02*
X47575D01*
X46925Y68637D02*
X47575D01*
Y68303D02*
Y68637D01*
X46925Y68303D02*
Y68637D01*
X61803Y67055D02*
Y67705D01*
X62137Y67055D02*
Y67705D01*
X61803Y67055D02*
X62137D01*
X61803Y67705D02*
X62137D01*
X61587Y67055D02*
Y67705D01*
X61253Y67055D02*
Y67705D01*
X61587D01*
X61253Y67055D02*
X61587D01*
X58077D02*
Y67705D01*
X57743Y67055D02*
Y67705D01*
X58077D01*
X57743Y67055D02*
X58077D01*
X60707Y70095D02*
Y70745D01*
X60373Y70095D02*
Y70745D01*
X60707D01*
X60373Y70095D02*
X60707D01*
X48327Y78565D02*
Y79215D01*
X47993Y78565D02*
Y79215D01*
X48327D01*
X47993Y78565D02*
X48327D01*
X48473Y78555D02*
Y79205D01*
X48807Y78555D02*
Y79205D01*
X48473Y78555D02*
X48807D01*
X48473Y79205D02*
X48807D01*
X49195Y77747D02*
X49845D01*
X49195Y77413D02*
X49845D01*
X49195D02*
Y77747D01*
X49845Y77413D02*
Y77747D01*
X50853Y71955D02*
Y72605D01*
X51187Y71955D02*
Y72605D01*
X50853Y71955D02*
X51187D01*
X50853Y72605D02*
X51187D01*
X51413Y72605D02*
Y73255D01*
X51747Y72605D02*
Y73255D01*
X51413Y72605D02*
X51747D01*
X51413Y73255D02*
X51747D01*
X51373Y71205D02*
Y71855D01*
X51707Y71205D02*
Y71855D01*
X51373Y71205D02*
X51707D01*
X51373Y71855D02*
X51707D01*
X49000Y78266D02*
Y78974D01*
X50220Y78266D02*
Y78974D01*
X49000Y78266D02*
X50220D01*
X49000Y78974D02*
X50220D01*
X53103Y67705D02*
Y68355D01*
X53437Y67705D02*
Y68355D01*
X53103Y67705D02*
X53437D01*
X53103Y68355D02*
X53437D01*
X53937Y67705D02*
Y68355D01*
X53603Y67705D02*
Y68355D01*
X53937D01*
X53603Y67705D02*
X53937D01*
X59834Y70130D02*
Y71350D01*
X59126Y70130D02*
Y71350D01*
Y70130D02*
X59834D01*
X59126Y71350D02*
X59834D01*
X57173Y71205D02*
Y71855D01*
X57507Y71205D02*
Y71855D01*
X57173Y71205D02*
X57507D01*
X57173Y71855D02*
X57507D01*
X58027Y71935D02*
Y72585D01*
X57693Y71935D02*
Y72585D01*
X58027D01*
X57693Y71935D02*
X58027D01*
X57497Y72615D02*
Y73265D01*
X57163Y72615D02*
Y73265D01*
X57497D01*
X57163Y72615D02*
X57497D01*
X56125Y74377D02*
X56775D01*
X56125Y74043D02*
X56775D01*
X56125D02*
Y74377D01*
X56775Y74043D02*
Y74377D01*
X55157Y74235D02*
Y74885D01*
X54823Y74235D02*
Y74885D01*
X55157D01*
X54823Y74235D02*
X55157D01*
X55787D02*
Y74885D01*
X55453Y74235D02*
Y74885D01*
X55787D01*
X55453Y74235D02*
X55787D01*
X53603Y77515D02*
Y78165D01*
X53937Y77515D02*
Y78165D01*
X53603Y77515D02*
X53937D01*
X53603Y78165D02*
X53937D01*
X53933Y76045D02*
Y76695D01*
X54267Y76045D02*
Y76695D01*
X53933Y76045D02*
X54267D01*
X53933Y76695D02*
X54267D01*
X52705Y75973D02*
X53355D01*
X52705Y76307D02*
X53355D01*
Y75973D02*
Y76307D01*
X52705Y75973D02*
Y76307D01*
Y76463D02*
X53355D01*
X52705Y76797D02*
X53355D01*
Y76463D02*
Y76797D01*
X52705Y76463D02*
Y76797D01*
X51503Y77515D02*
Y78165D01*
X51837Y77515D02*
Y78165D01*
X51503Y77515D02*
X51837D01*
X51503Y78165D02*
X51837D01*
X52396Y78160D02*
X53104D01*
X52396Y76940D02*
X53104D01*
X52396D02*
Y78160D01*
X53104Y76940D02*
Y78160D01*
X52405Y78803D02*
X53055D01*
X52405Y79137D02*
X53055D01*
Y78803D02*
Y79137D01*
X52405Y78803D02*
Y79137D01*
Y78313D02*
X53055D01*
X52405Y78647D02*
X53055D01*
Y78313D02*
Y78647D01*
X52405Y78313D02*
Y78647D01*
X51577Y77235D02*
Y77885D01*
X51243Y77235D02*
Y77885D01*
Y77235D02*
X51577D01*
X51243Y77885D02*
X51577D01*
X52117Y77230D02*
Y77900D01*
X51743Y77230D02*
Y77900D01*
Y77230D02*
X52117D01*
X51743Y77900D02*
X52117D01*
X53905Y73893D02*
X54575D01*
X53905Y74267D02*
X54575D01*
X53905Y73893D02*
Y74267D01*
X54575Y73893D02*
Y74267D01*
X54641Y71735D02*
Y72405D01*
X54267Y71735D02*
Y72405D01*
Y71735D02*
X54641D01*
X54267Y72405D02*
X54641D01*
X55103Y70255D02*
Y70925D01*
X55477Y70255D02*
Y70925D01*
X55103D02*
X55477D01*
X55103Y70255D02*
X55477D01*
X54583Y69985D02*
Y70635D01*
X54917Y69985D02*
Y70635D01*
X54583D02*
X54917D01*
X54583Y69985D02*
X54917D01*
X53993D02*
Y70635D01*
X54327Y69985D02*
Y70635D01*
X53993D02*
X54327D01*
X53993Y69985D02*
X54327D01*
X53403Y70255D02*
Y70925D01*
X53777Y70255D02*
Y70925D01*
X53403D02*
X53777D01*
X53403Y70255D02*
X53777D01*
X53285Y81203D02*
X53935D01*
X53285Y81537D02*
X53935D01*
Y81203D02*
Y81537D01*
X53285Y81203D02*
Y81537D01*
X53925Y73363D02*
X54575D01*
X53925Y73697D02*
X54575D01*
X53925Y73363D02*
Y73697D01*
X54575Y73363D02*
Y73697D01*
X50525Y66153D02*
Y66487D01*
X49875Y66153D02*
Y66487D01*
Y66153D02*
X50525D01*
X49875Y66487D02*
X50525D01*
X59705Y66263D02*
Y66597D01*
X60355Y66263D02*
Y66597D01*
X59705Y66263D02*
X60355D01*
X59705Y66597D02*
X60355D01*
X48257Y31070D02*
G03*
X48257Y31070I-197J0D01*
G01*
X48059Y23860D02*
G03*
X48059Y23860I-197J0D01*
G01*
X57195Y32575D02*
G03*
X57195Y32575I-197J0D01*
G01*
X51850Y30263D02*
G03*
X51850Y30263I-197J0D01*
G01*
X50703Y29155D02*
Y29805D01*
X51037Y29155D02*
Y29805D01*
X50703Y29155D02*
X51037D01*
X50703Y29805D02*
X51037D01*
X50103Y29155D02*
Y29805D01*
X50437Y29155D02*
Y29805D01*
X50103Y29155D02*
X50437D01*
X50103Y29805D02*
X50437D01*
X47437Y33065D02*
Y33715D01*
X47103Y33065D02*
Y33715D01*
X47437D01*
X47103Y33065D02*
X47437D01*
X53945Y33913D02*
X54595D01*
X53945Y34247D02*
X54595D01*
Y33913D02*
Y34247D01*
X53945Y33913D02*
Y34247D01*
X47686Y30696D02*
Y32664D01*
X49654Y30696D02*
Y32664D01*
X47686Y30696D02*
X49654D01*
X47686Y32664D02*
X49654D01*
X48236Y23486D02*
Y25494D01*
X46464Y23486D02*
Y25494D01*
Y23486D02*
X48236D01*
X46464Y25494D02*
X48236D01*
X49183Y24365D02*
Y25015D01*
X49517Y24365D02*
Y25015D01*
X49183Y24365D02*
X49517D01*
X49183Y25015D02*
X49517D01*
X45317Y24565D02*
Y25215D01*
X44983Y24565D02*
Y25215D01*
X45317D01*
X44983Y24565D02*
X45317D01*
X55917Y32605D02*
Y33255D01*
X55583Y32605D02*
Y33255D01*
X55917D01*
X55583Y32605D02*
X55917D01*
X56624Y30351D02*
X58396D01*
X56624Y32949D02*
X58396D01*
Y30351D02*
Y32949D01*
X56624Y30351D02*
Y32949D01*
X54861Y29889D02*
Y33471D01*
X51279Y29889D02*
Y33471D01*
X54861D01*
X51279Y29889D02*
X54861D01*
X49183Y23155D02*
Y23805D01*
X49517Y23155D02*
Y23805D01*
X49183Y23155D02*
X49517D01*
X49183Y23805D02*
X49517D01*
X47265Y23247D02*
X47915D01*
X47265Y22913D02*
X47915D01*
X47265D02*
Y23247D01*
X47915Y22913D02*
Y23247D01*
X49437Y25555D02*
Y26205D01*
X49103Y25555D02*
Y26205D01*
X49437D01*
X49103Y25555D02*
X49437D01*
X58625Y30267D02*
X59275D01*
X58625Y29933D02*
X59275D01*
X58625D02*
Y30267D01*
X59275Y29933D02*
Y30267D01*
X54475Y29233D02*
X55125D01*
X54475Y29567D02*
X55125D01*
Y29233D02*
Y29567D01*
X54475Y29233D02*
Y29567D01*
X50637Y30555D02*
Y31205D01*
X50303Y30555D02*
Y31205D01*
X50637D01*
X50303Y30555D02*
X50637D01*
X45317Y23365D02*
Y24015D01*
X44983Y23365D02*
Y24015D01*
X45317D01*
X44983Y23365D02*
X45317D01*
X51535Y33973D02*
X52185D01*
X51535Y34307D02*
X52185D01*
Y33973D02*
Y34307D01*
X51535D02*
X51535Y33973D01*
X50297Y32615D02*
Y33265D01*
X49963Y32615D02*
Y33265D01*
X50297D01*
X49963Y32615D02*
X50297D01*
X55533Y31725D02*
X55867D01*
X55533Y31075D02*
X55867D01*
Y31725D01*
X55533Y31075D02*
Y31725D01*
X48325Y26733D02*
Y27067D01*
X47675Y26733D02*
Y27067D01*
Y26733D02*
X48325D01*
X47675Y27067D02*
X48325D01*
X59983Y23875D02*
X60317D01*
X59983Y24525D02*
X60317D01*
X59983Y23875D02*
Y24525D01*
X60317Y23875D02*
Y24525D01*
X61535Y38223D02*
Y38557D01*
X60885Y38223D02*
Y38557D01*
Y38223D02*
X61535D01*
X60885Y38557D02*
X61535D01*
X43213Y37405D02*
X43547D01*
X43213Y36755D02*
X43547D01*
Y37405D01*
X43213Y36755D02*
Y37405D01*
X49425Y26733D02*
Y27067D01*
X48775Y26733D02*
Y27067D01*
Y26733D02*
X49425D01*
X48775Y27067D02*
X49425D01*
X59725Y23083D02*
Y23417D01*
X59075Y23083D02*
Y23417D01*
Y23083D02*
X59725D01*
X59075Y23417D02*
X59725D01*
X61535Y37623D02*
Y37957D01*
X60885Y37623D02*
Y37957D01*
Y37623D02*
X61535D01*
X60885Y37957D02*
X61535D01*
X43813Y37405D02*
X44147D01*
X43813Y36755D02*
X44147D01*
Y37405D01*
X43813Y36755D02*
Y37405D01*
X48775Y32983D02*
Y33317D01*
X48125Y32983D02*
Y33317D01*
X48775D01*
X48125Y32983D02*
X48775D01*
X53167Y34725D02*
Y35375D01*
X52833Y34725D02*
Y35375D01*
X53167D01*
X52833Y34725D02*
X53167D01*
X53197Y12004D02*
G03*
X53197Y12004I-197J0D01*
G01*
X60495Y8296D02*
G03*
X60495Y8296I-197J0D01*
G01*
Y5996D02*
G03*
X60495Y5996I-197J0D01*
G01*
Y3646D02*
G03*
X60495Y3646I-197J0D01*
G01*
X57274Y8320D02*
G03*
X57274Y8320I-197J0D01*
G01*
Y6020D02*
G03*
X57274Y6020I-197J0D01*
G01*
Y3670D02*
G03*
X57274Y3670I-197J0D01*
G01*
X45066Y8266D02*
G03*
X45066Y8266I-197J0D01*
G01*
X45076Y17626D02*
G03*
X45076Y17626I-197J0D01*
G01*
X45066Y5966D02*
G03*
X45066Y5966I-197J0D01*
G01*
X45076Y15326D02*
G03*
X45076Y15326I-197J0D01*
G01*
X45066Y3616D02*
G03*
X45066Y3616I-197J0D01*
G01*
X45076Y12976D02*
G03*
X45076Y12976I-197J0D01*
G01*
X60495Y17636D02*
G03*
X60495Y17636I-197J0D01*
G01*
Y15336D02*
G03*
X60495Y15336I-197J0D01*
G01*
Y12986D02*
G03*
X60495Y12986I-197J0D01*
G01*
X57274Y17660D02*
G03*
X57274Y17660I-197J0D01*
G01*
Y15360D02*
G03*
X57274Y15360I-197J0D01*
G01*
Y13010D02*
G03*
X57274Y13010I-197J0D01*
G01*
X61318Y8296D02*
G03*
X61318Y8296I-197J0D01*
G01*
Y5996D02*
G03*
X61318Y5996I-197J0D01*
G01*
Y3646D02*
G03*
X61318Y3646I-197J0D01*
G01*
X61318Y17636D02*
G03*
X61318Y17636I-197J0D01*
G01*
Y15336D02*
G03*
X61318Y15336I-197J0D01*
G01*
Y12986D02*
G03*
X61318Y12986I-197J0D01*
G01*
X45888Y8266D02*
G03*
X45888Y8266I-197J0D01*
G01*
X45898Y17626D02*
G03*
X45898Y17626I-197J0D01*
G01*
X45888Y5966D02*
G03*
X45888Y5966I-197J0D01*
G01*
X45898Y15326D02*
G03*
X45898Y15326I-197J0D01*
G01*
X45888Y3616D02*
G03*
X45888Y3616I-197J0D01*
G01*
X45898Y12976D02*
G03*
X45898Y12976I-197J0D01*
G01*
X49030Y8290D02*
G03*
X49030Y8290I-197J0D01*
G01*
X49120Y17650D02*
G03*
X49120Y17650I-197J0D01*
G01*
X49030Y5990D02*
G03*
X49030Y5990I-197J0D01*
G01*
X49120Y15350D02*
G03*
X49120Y15350I-197J0D01*
G01*
X49030Y3640D02*
G03*
X49030Y3640I-197J0D01*
G01*
X49120Y13000D02*
G03*
X49120Y13000I-197J0D01*
G01*
X50913Y7655D02*
Y8305D01*
X51247Y7655D02*
Y8305D01*
X50913D02*
X51247D01*
X50913Y7655D02*
X51247D01*
X50467Y10000D02*
X53000Y7467D01*
X53000Y12533D02*
X55533Y10000D01*
X53000Y7467D02*
X55533Y10000D01*
X50467Y10000D02*
X53000Y12533D01*
X53852Y12431D02*
X54311Y11972D01*
X54089Y12668D02*
X54548Y12209D01*
X54311Y11972D02*
X54548Y12209D01*
X53852Y12431D02*
X54089Y12668D01*
X50309Y10542D02*
X50768Y11001D01*
X50072Y10779D02*
X50531Y11238D01*
X50768Y11001D01*
X50072Y10779D02*
X50309Y10542D01*
X53062Y6869D02*
X53521Y7328D01*
X53299Y6632D02*
X53758Y7091D01*
X53062Y6869D02*
X53299Y6632D01*
X53521Y7328D02*
X53758Y7091D01*
X50949Y8458D02*
X51408Y7999D01*
X50712Y8221D02*
X51171Y7762D01*
X50712Y8221D02*
X50949Y8458D01*
X51171Y7762D02*
X51408Y7999D01*
X55052Y8709D02*
X55511Y9168D01*
X55289Y8472D02*
X55748Y8931D01*
X55052Y8709D02*
X55289Y8472D01*
X55511Y9168D02*
X55748Y8931D01*
X59925Y6710D02*
X61495D01*
X59925Y8670D02*
X61495D01*
Y6710D02*
Y8670D01*
X59925Y6710D02*
Y8670D01*
Y4410D02*
X61495D01*
X59925Y6370D02*
X61495D01*
Y4410D02*
Y6370D01*
X59925Y4410D02*
Y6370D01*
Y2060D02*
X61495D01*
X59925Y4020D02*
X61495D01*
Y2060D02*
Y4020D01*
X59925Y2060D02*
Y4020D01*
X56723Y6706D02*
Y8674D01*
X58297Y6706D02*
Y8674D01*
X56723D02*
X58297D01*
X56723Y6706D02*
X58297D01*
X56723Y4406D02*
Y6374D01*
X58297Y4406D02*
Y6374D01*
X56723D02*
X58297D01*
X56723Y4406D02*
X58297D01*
X56723Y2056D02*
Y4024D01*
X58297Y2056D02*
Y4024D01*
X56723D02*
X58297D01*
X56723Y2056D02*
X58297D01*
X48893Y4465D02*
Y5115D01*
X49227Y4465D02*
Y5115D01*
X48893Y4465D02*
X49227D01*
X48893Y5115D02*
X49227D01*
X48983Y13825D02*
Y14475D01*
X49317Y13825D02*
Y14475D01*
X48983Y13825D02*
X49317D01*
X48983Y14475D02*
X49317D01*
X48883Y6755D02*
Y7405D01*
X49217Y6755D02*
Y7405D01*
X48883Y6755D02*
X49217D01*
X48883Y7405D02*
X49217D01*
X48973Y16115D02*
Y16765D01*
X49307Y16115D02*
Y16765D01*
X48973Y16115D02*
X49307D01*
X48973Y16765D02*
X49307D01*
X48883Y2155D02*
Y2805D01*
X49217Y2155D02*
Y2805D01*
X48883Y2155D02*
X49217D01*
X48883Y2805D02*
X49217D01*
X48973Y11515D02*
Y12165D01*
X49307Y11515D02*
Y12165D01*
X48973Y11515D02*
X49307D01*
X48973Y12165D02*
X49307D01*
X47233Y7425D02*
Y8075D01*
X47567Y7425D02*
Y8075D01*
X47233Y7425D02*
X47567D01*
X47233Y8075D02*
X47567D01*
X47323Y16785D02*
Y17435D01*
X47657Y16785D02*
Y17435D01*
X47323Y16785D02*
X47657D01*
X47323Y17435D02*
X47657D01*
X47233Y5155D02*
Y5805D01*
X47567Y5155D02*
Y5805D01*
X47233Y5155D02*
X47567D01*
X47233Y5805D02*
X47567D01*
X47323Y14515D02*
Y15165D01*
X47657Y14515D02*
Y15165D01*
X47323Y14515D02*
X47657D01*
X47323Y15165D02*
X47657D01*
X47253Y2795D02*
Y3445D01*
X47587Y2795D02*
Y3445D01*
X47253Y2795D02*
X47587D01*
X47253Y3445D02*
X47587D01*
X47343Y12155D02*
Y12805D01*
X47677Y12155D02*
Y12805D01*
X47343Y12155D02*
X47677D01*
X47343Y12805D02*
X47677D01*
X49363Y7335D02*
Y7985D01*
X49697Y7335D02*
Y7985D01*
X49363Y7335D02*
X49697D01*
X49363Y7985D02*
X49697D01*
X49453Y16695D02*
Y17345D01*
X49787Y16695D02*
Y17345D01*
X49453Y16695D02*
X49787D01*
X49453Y17345D02*
X49787D01*
X49373Y5025D02*
Y5675D01*
X49707Y5025D02*
Y5675D01*
X49373Y5025D02*
X49707D01*
X49373Y5675D02*
X49707D01*
X49463Y14385D02*
Y15035D01*
X49797Y14385D02*
Y15035D01*
X49463Y14385D02*
X49797D01*
X49463Y15035D02*
X49797D01*
X49363Y2665D02*
Y3315D01*
X49697Y2665D02*
Y3315D01*
X49363Y2665D02*
X49697D01*
X49363Y3315D02*
X49697D01*
X49453Y12025D02*
Y12675D01*
X49787Y12025D02*
Y12675D01*
X49453Y12025D02*
X49787D01*
X49453Y12675D02*
X49787D01*
X44495Y6680D02*
X46066D01*
X44495Y8640D02*
X46066D01*
Y6680D02*
Y8640D01*
X44495Y6680D02*
Y8640D01*
X44505Y16040D02*
X46076D01*
X44505Y18000D02*
X46076D01*
Y16040D02*
Y18000D01*
X44505Y16040D02*
Y18000D01*
X44495Y4380D02*
X46066D01*
X44495Y6340D02*
X46066D01*
Y4380D02*
Y6340D01*
X44495Y4380D02*
Y6340D01*
X44505Y13740D02*
X46076D01*
X44505Y15700D02*
X46076D01*
Y13740D02*
Y15700D01*
X44505Y13740D02*
Y15700D01*
X44495Y2030D02*
X46066D01*
X44495Y3990D02*
X46066D01*
Y2030D02*
Y3990D01*
X44495Y2030D02*
Y3990D01*
X44505Y11390D02*
X46076D01*
X44505Y13350D02*
X46076D01*
Y11390D02*
Y13350D01*
X44505Y11390D02*
Y13350D01*
X59924Y16050D02*
X61495D01*
X59924Y18010D02*
X61495D01*
Y16050D02*
Y18010D01*
X59924Y16050D02*
Y18010D01*
Y13750D02*
X61495D01*
X59924Y15710D02*
X61495D01*
Y13750D02*
Y15710D01*
X59924Y13750D02*
Y15710D01*
Y11400D02*
X61495D01*
X59924Y13360D02*
X61495D01*
Y11400D02*
Y13360D01*
X59924Y11400D02*
Y13360D01*
X47913Y6765D02*
Y7415D01*
X48247Y6765D02*
Y7415D01*
X47913Y6765D02*
X48247D01*
X47913Y7415D02*
X48247D01*
X48003Y16125D02*
Y16775D01*
X48337Y16125D02*
Y16775D01*
X48003Y16125D02*
X48337D01*
X48003Y16775D02*
X48337D01*
X47923Y4465D02*
Y5115D01*
X48257Y4465D02*
Y5115D01*
X47923Y4465D02*
X48257D01*
X47923Y5115D02*
X48257D01*
X48013Y13825D02*
Y14475D01*
X48347Y13825D02*
Y14475D01*
X48013Y13825D02*
X48347D01*
X48013Y14475D02*
X48347D01*
X47933Y2155D02*
Y2805D01*
X48267Y2155D02*
Y2805D01*
X47933Y2155D02*
X48267D01*
X47933Y2805D02*
X48267D01*
X48023Y11515D02*
Y12165D01*
X48357Y11515D02*
Y12165D01*
X48023Y11515D02*
X48357D01*
X48023Y12165D02*
X48357D01*
X48403Y4475D02*
Y5125D01*
X48737Y4475D02*
Y5125D01*
X48403Y4475D02*
X48737D01*
X48403Y5125D02*
X48737D01*
X48493Y13835D02*
Y14485D01*
X48827Y13835D02*
Y14485D01*
X48493Y13835D02*
X48827D01*
X48493Y14485D02*
X48827D01*
X50197Y9555D02*
Y10205D01*
X49863Y9555D02*
Y10205D01*
X50197D01*
X49863Y9555D02*
X50197D01*
X48403Y6765D02*
Y7415D01*
X48737Y6765D02*
Y7415D01*
X48403Y6765D02*
X48737D01*
X48403Y7415D02*
X48737D01*
X48493Y16125D02*
Y16775D01*
X48827Y16125D02*
Y16775D01*
X48493Y16125D02*
X48827D01*
X48493Y16775D02*
X48827D01*
X48413Y2155D02*
Y2805D01*
X48747Y2155D02*
Y2805D01*
X48413Y2155D02*
X48747D01*
X48413Y2805D02*
X48747D01*
X48503Y11515D02*
Y12165D01*
X48837Y11515D02*
Y12165D01*
X48503Y11515D02*
X48837D01*
X48503Y12165D02*
X48837D01*
X56722Y16046D02*
Y18014D01*
X58297Y16046D02*
Y18014D01*
X56722D02*
X58297D01*
X56722Y16046D02*
X58297D01*
X56722Y13746D02*
Y15714D01*
X58297Y13746D02*
Y15714D01*
X56722D02*
X58297D01*
X56722Y13746D02*
X58297D01*
X56722Y11396D02*
Y13364D01*
X58297Y11396D02*
Y13364D01*
X56722D02*
X58297D01*
X56722Y11396D02*
X58297D01*
X54992Y11341D02*
X55451Y10882D01*
X55229Y11578D02*
X55688Y11119D01*
X55451Y10882D02*
X55688Y11119D01*
X54992Y11341D02*
X55229Y11578D01*
X46120Y8880D02*
Y10580D01*
X49020Y8880D02*
Y10580D01*
X46120D02*
X49020D01*
X46120Y8880D02*
X49020D01*
X46530Y40D02*
Y1740D01*
X49430Y40D02*
Y1740D01*
X46530D02*
X49430D01*
X46530Y40D02*
X49430D01*
X56780Y9130D02*
Y10830D01*
X59680Y9130D02*
Y10830D01*
X56780D02*
X59680D01*
X56780Y9130D02*
X59680D01*
X60627Y9426D02*
X61493D01*
X60627Y8874D02*
X61493D01*
X60627D02*
Y9426D01*
X61493Y8874D02*
Y9426D01*
X44557Y10426D02*
X45423D01*
X44557Y9874D02*
X45423D01*
X44557D02*
Y10426D01*
X45423Y9874D02*
Y10426D01*
X58074Y687D02*
Y1553D01*
X58626Y687D02*
Y1553D01*
X58074Y687D02*
X58626D01*
X58074Y1553D02*
X58626D01*
X47387Y18374D02*
X48253D01*
X47387Y18926D02*
X48253D01*
Y18374D02*
Y18926D01*
X47387Y18374D02*
Y18926D01*
X57620Y18300D02*
Y20000D01*
X60520Y18300D02*
Y20000D01*
X57620D02*
X60520D01*
X57620Y18300D02*
X60520D01*
X56173Y9345D02*
Y9995D01*
X56507Y9345D02*
Y9995D01*
X56173Y9345D02*
X56507D01*
X56173Y9995D02*
X56507D01*
X56467Y10315D02*
Y10965D01*
X56133Y10315D02*
Y10965D01*
X56467D01*
X56133Y10315D02*
X56467D01*
X54217Y3085D02*
Y3735D01*
X53883Y3085D02*
Y3735D01*
Y3085D02*
X54217D01*
X53883Y3735D02*
X54217D01*
X53717Y3095D02*
Y3745D01*
X53383Y3095D02*
Y3745D01*
Y3095D02*
X53717D01*
X53383Y3745D02*
X53717D01*
X53217Y3105D02*
Y3755D01*
X52883Y3105D02*
Y3755D01*
Y3105D02*
X53217D01*
X52883Y3755D02*
X53217D01*
X52717Y3105D02*
Y3755D01*
X52383Y3105D02*
Y3755D01*
Y3105D02*
X52717D01*
X52383Y3755D02*
X52717D01*
X52217Y3105D02*
Y3755D01*
X51883Y3105D02*
Y3755D01*
Y3105D02*
X52217D01*
X51883Y3755D02*
X52217D01*
X51717Y3105D02*
Y3755D01*
X51383Y3105D02*
Y3755D01*
Y3105D02*
X51717D01*
X51383Y3755D02*
X51717D01*
X51217Y3105D02*
Y3755D01*
X50883Y3105D02*
Y3755D01*
Y3105D02*
X51217D01*
X50883Y3755D02*
X51217D01*
X50717Y3105D02*
Y3755D01*
X50383Y3105D02*
Y3755D01*
Y3105D02*
X50717D01*
X50383Y3755D02*
X50717D01*
X57027Y2185D02*
Y2835D01*
X56693Y2185D02*
Y2835D01*
Y2185D02*
X57027D01*
X56693Y2835D02*
X57027D01*
X58677Y7455D02*
Y8105D01*
X58343Y7455D02*
Y8105D01*
Y7455D02*
X58677D01*
X58343Y8105D02*
X58677D01*
X56547Y7365D02*
Y8015D01*
X56213Y7365D02*
Y8015D01*
Y7365D02*
X56547D01*
X56213Y8015D02*
X56547D01*
X59925Y6710D02*
X61495D01*
X59925Y8670D02*
X61495D01*
X59925Y6710D02*
Y8670D01*
X61495Y6710D02*
Y8670D01*
X59925Y4410D02*
X61495D01*
X59925Y6370D02*
X61495D01*
X59925Y4410D02*
Y6370D01*
X61495Y4410D02*
Y6370D01*
X59925Y2060D02*
X61495D01*
X59925Y4020D02*
X61495D01*
X59925Y2060D02*
Y4020D01*
X61495Y2060D02*
Y4020D01*
X57997Y6795D02*
Y7445D01*
X57663Y6795D02*
Y7445D01*
Y6795D02*
X57997D01*
X57663Y7445D02*
X57997D01*
X57497Y2185D02*
Y2835D01*
X57163Y2185D02*
Y2835D01*
Y2185D02*
X57497D01*
X57163Y2835D02*
X57497D01*
X57017Y4495D02*
Y5145D01*
X56683Y4495D02*
Y5145D01*
Y4495D02*
X57017D01*
X56683Y5145D02*
X57017D01*
X57017Y13835D02*
Y14485D01*
X56683Y13835D02*
Y14485D01*
Y13835D02*
X57017D01*
X56683Y14485D02*
X57017D01*
X57027Y6785D02*
Y7435D01*
X56693Y6785D02*
Y7435D01*
Y6785D02*
X57027D01*
X56693Y7435D02*
X57027D01*
X57027Y16125D02*
Y16775D01*
X56693Y16125D02*
Y16775D01*
Y16125D02*
X57027D01*
X56693Y16775D02*
X57027D01*
Y11525D02*
Y12175D01*
X56693Y11525D02*
Y12175D01*
Y11525D02*
X57027D01*
X56693Y12175D02*
X57027D01*
X58677Y16795D02*
Y17445D01*
X58343Y16795D02*
Y17445D01*
Y16795D02*
X58677D01*
X58343Y17445D02*
X58677D01*
X58677Y5185D02*
Y5835D01*
X58343Y5185D02*
Y5835D01*
Y5185D02*
X58677D01*
X58343Y5835D02*
X58677D01*
X58677Y14525D02*
Y15175D01*
X58343Y14525D02*
Y15175D01*
Y14525D02*
X58677D01*
X58343Y15175D02*
X58677D01*
X58657Y2825D02*
Y3475D01*
X58323Y2825D02*
Y3475D01*
Y2825D02*
X58657D01*
X58323Y3475D02*
X58657D01*
X58657Y12165D02*
Y12815D01*
X58323Y12165D02*
Y12815D01*
Y12165D02*
X58657D01*
X58323Y12815D02*
X58657D01*
X56547Y16705D02*
Y17355D01*
X56213Y16705D02*
Y17355D01*
Y16705D02*
X56547D01*
X56213Y17355D02*
X56547D01*
X56537Y5055D02*
Y5705D01*
X56203Y5055D02*
Y5705D01*
Y5055D02*
X56537D01*
X56203Y5705D02*
X56537D01*
X56537Y14395D02*
Y15045D01*
X56203Y14395D02*
Y15045D01*
Y14395D02*
X56537D01*
X56203Y15045D02*
X56537D01*
X56547Y2695D02*
Y3345D01*
X56213Y2695D02*
Y3345D01*
Y2695D02*
X56547D01*
X56213Y3345D02*
X56547D01*
X56547Y12035D02*
Y12685D01*
X56213Y12035D02*
Y12685D01*
Y12035D02*
X56547D01*
X56213Y12685D02*
X56547D01*
X59924Y16050D02*
X61495D01*
X59924Y18010D02*
X61495D01*
X59924Y16050D02*
Y18010D01*
X61495Y16050D02*
Y18010D01*
X59924Y13750D02*
X61495D01*
X59924Y15710D02*
X61495D01*
X59924Y13750D02*
Y15710D01*
X61495Y13750D02*
Y15710D01*
X59924Y11400D02*
X61495D01*
X59924Y13360D02*
X61495D01*
X59924Y11400D02*
Y13360D01*
X61495Y11400D02*
Y13360D01*
X44495Y6680D02*
X46066D01*
X44495Y8640D02*
X46066D01*
X44495Y6680D02*
Y8640D01*
X46066Y6680D02*
Y8640D01*
X44505Y16040D02*
X46076D01*
X44505Y18000D02*
X46076D01*
X44505Y16040D02*
Y18000D01*
X46076Y16040D02*
Y18000D01*
X44495Y4380D02*
X46066D01*
X44495Y6340D02*
X46066D01*
X44495Y4380D02*
Y6340D01*
X46066Y4380D02*
Y6340D01*
X44505Y13740D02*
X46076D01*
X44505Y15700D02*
X46076D01*
X44505Y13740D02*
Y15700D01*
X46076Y13740D02*
Y15700D01*
X44495Y2030D02*
X46066D01*
X44495Y3990D02*
X46066D01*
X44495Y2030D02*
Y3990D01*
X46066Y2030D02*
Y3990D01*
X44505Y11390D02*
X46076D01*
X44505Y13350D02*
X46076D01*
X44505Y11390D02*
Y13350D01*
X46076Y11390D02*
Y13350D01*
X57997Y16135D02*
Y16785D01*
X57663Y16135D02*
Y16785D01*
Y16135D02*
X57997D01*
X57663Y16785D02*
X57997D01*
X57987Y4495D02*
Y5145D01*
X57653Y4495D02*
Y5145D01*
Y4495D02*
X57987D01*
X57653Y5145D02*
X57987D01*
X57987Y13835D02*
Y14485D01*
X57653Y13835D02*
Y14485D01*
Y13835D02*
X57987D01*
X57653Y14485D02*
X57987D01*
X57977Y2185D02*
Y2835D01*
X57643Y2185D02*
Y2835D01*
Y2185D02*
X57977D01*
X57643Y2835D02*
X57977D01*
X57977Y11525D02*
Y12175D01*
X57643Y11525D02*
Y12175D01*
Y11525D02*
X57977D01*
X57643Y12175D02*
X57977D01*
X57507Y4505D02*
Y5155D01*
X57173Y4505D02*
Y5155D01*
Y4505D02*
X57507D01*
X57173Y5155D02*
X57507D01*
X57507Y13845D02*
Y14495D01*
X57173Y13845D02*
Y14495D01*
Y13845D02*
X57507D01*
X57173Y14495D02*
X57507D01*
X57507Y6795D02*
Y7445D01*
X57173Y6795D02*
Y7445D01*
Y6795D02*
X57507D01*
X57173Y7445D02*
X57507D01*
X57507Y16135D02*
Y16785D01*
X57173Y16135D02*
Y16785D01*
Y16135D02*
X57507D01*
X57173Y16785D02*
X57507D01*
X57497Y11525D02*
Y12175D01*
X57163Y11525D02*
Y12175D01*
Y11525D02*
X57497D01*
X57163Y12175D02*
X57497D01*
X49187Y6676D02*
Y8644D01*
X47613Y6676D02*
Y8644D01*
X49187D01*
X47613Y6676D02*
X49187D01*
X49278Y16036D02*
Y18004D01*
X47703Y16036D02*
Y18004D01*
X49278D01*
X47703Y16036D02*
X49278D01*
X49187Y4376D02*
Y6344D01*
X47613Y4376D02*
Y6344D01*
X49187D01*
X47613Y4376D02*
X49187D01*
X49278Y13736D02*
Y15704D01*
X47703Y13736D02*
Y15704D01*
X49278D01*
X47703Y13736D02*
X49278D01*
X49187Y2026D02*
Y3994D01*
X47613Y2026D02*
Y3994D01*
X49187D01*
X47613Y2026D02*
X49187D01*
X49278Y11386D02*
Y13354D01*
X47703Y11386D02*
Y13354D01*
X49278D01*
X47703Y11386D02*
X49278D01*
X48400Y18240D02*
Y19940D01*
X45500Y18240D02*
Y19940D01*
X48400D01*
X45500Y18240D02*
X48400D01*
X60617Y10476D02*
X61483D01*
X60617Y9924D02*
X61483D01*
Y10476D01*
X60617Y9924D02*
Y10476D01*
X44527Y9406D02*
X45393D01*
X44527Y8854D02*
X45393D01*
Y9406D01*
X44527Y8854D02*
Y9406D01*
X47886Y627D02*
Y1493D01*
X47334Y627D02*
Y1493D01*
Y627D02*
X47886D01*
X47334Y1493D02*
X47886D01*
X57747Y18434D02*
X58613D01*
X57747Y18986D02*
X58613D01*
X57747Y18434D02*
Y18986D01*
X58613Y18434D02*
Y18986D01*
X59420Y80D02*
Y1780D01*
X56520Y80D02*
Y1780D01*
X59420D01*
X56520Y80D02*
X59420D01*
X31697Y12004D02*
G03*
X31697Y12004I-197J0D01*
G01*
X38995Y8296D02*
G03*
X38995Y8296I-197J0D01*
G01*
Y5996D02*
G03*
X38995Y5996I-197J0D01*
G01*
Y3646D02*
G03*
X38995Y3646I-197J0D01*
G01*
X35774Y8320D02*
G03*
X35774Y8320I-197J0D01*
G01*
Y6020D02*
G03*
X35774Y6020I-197J0D01*
G01*
Y3670D02*
G03*
X35774Y3670I-197J0D01*
G01*
X23566Y8266D02*
G03*
X23566Y8266I-197J0D01*
G01*
X23576Y17626D02*
G03*
X23576Y17626I-197J0D01*
G01*
X23566Y5966D02*
G03*
X23566Y5966I-197J0D01*
G01*
X23576Y15326D02*
G03*
X23576Y15326I-197J0D01*
G01*
X23566Y3616D02*
G03*
X23566Y3616I-197J0D01*
G01*
X23576Y12976D02*
G03*
X23576Y12976I-197J0D01*
G01*
X38995Y17636D02*
G03*
X38995Y17636I-197J0D01*
G01*
Y15336D02*
G03*
X38995Y15336I-197J0D01*
G01*
Y12986D02*
G03*
X38995Y12986I-197J0D01*
G01*
X35774Y17660D02*
G03*
X35774Y17660I-197J0D01*
G01*
Y15360D02*
G03*
X35774Y15360I-197J0D01*
G01*
Y13010D02*
G03*
X35774Y13010I-197J0D01*
G01*
X39818Y8296D02*
G03*
X39818Y8296I-197J0D01*
G01*
Y5996D02*
G03*
X39818Y5996I-197J0D01*
G01*
Y3646D02*
G03*
X39818Y3646I-197J0D01*
G01*
X39818Y17636D02*
G03*
X39818Y17636I-197J0D01*
G01*
Y15336D02*
G03*
X39818Y15336I-197J0D01*
G01*
Y12986D02*
G03*
X39818Y12986I-197J0D01*
G01*
X24388Y8266D02*
G03*
X24388Y8266I-197J0D01*
G01*
X24398Y17626D02*
G03*
X24398Y17626I-197J0D01*
G01*
X24388Y5966D02*
G03*
X24388Y5966I-197J0D01*
G01*
X24398Y15326D02*
G03*
X24398Y15326I-197J0D01*
G01*
X24388Y3616D02*
G03*
X24388Y3616I-197J0D01*
G01*
X24398Y12976D02*
G03*
X24398Y12976I-197J0D01*
G01*
X27530Y8290D02*
G03*
X27530Y8290I-197J0D01*
G01*
X27620Y17650D02*
G03*
X27620Y17650I-197J0D01*
G01*
X27530Y5990D02*
G03*
X27530Y5990I-197J0D01*
G01*
X27620Y15350D02*
G03*
X27620Y15350I-197J0D01*
G01*
X27530Y3640D02*
G03*
X27530Y3640I-197J0D01*
G01*
X27620Y13000D02*
G03*
X27620Y13000I-197J0D01*
G01*
X29413Y7655D02*
Y8305D01*
X29747Y7655D02*
Y8305D01*
X29413D02*
X29747D01*
X29413Y7655D02*
X29747D01*
X28967Y10000D02*
X31500Y7467D01*
X31500Y12533D02*
X34033Y10000D01*
X31500Y7467D02*
X34033Y10000D01*
X28967Y10000D02*
X31500Y12533D01*
X32352Y12431D02*
X32811Y11972D01*
X32589Y12668D02*
X33048Y12209D01*
X32811Y11972D02*
X33048Y12209D01*
X32352Y12431D02*
X32589Y12668D01*
X28809Y10542D02*
X29268Y11001D01*
X28572Y10779D02*
X29031Y11238D01*
X29268Y11001D01*
X28572Y10779D02*
X28809Y10542D01*
X31562Y6869D02*
X32021Y7328D01*
X31799Y6632D02*
X32258Y7091D01*
X31562Y6869D02*
X31799Y6632D01*
X32021Y7328D02*
X32258Y7091D01*
X29449Y8458D02*
X29908Y7999D01*
X29212Y8221D02*
X29671Y7762D01*
X29212Y8221D02*
X29449Y8458D01*
X29671Y7762D02*
X29908Y7999D01*
X33552Y8709D02*
X34011Y9168D01*
X33789Y8472D02*
X34248Y8931D01*
X33552Y8709D02*
X33789Y8472D01*
X34011Y9168D02*
X34248Y8931D01*
X38425Y6710D02*
X39995D01*
X38425Y8670D02*
X39995D01*
Y6710D02*
Y8670D01*
X38425Y6710D02*
Y8670D01*
Y4410D02*
X39995D01*
X38425Y6370D02*
X39995D01*
Y4410D02*
Y6370D01*
X38425Y4410D02*
Y6370D01*
Y2060D02*
X39995D01*
X38425Y4020D02*
X39995D01*
Y2060D02*
Y4020D01*
X38425Y2060D02*
Y4020D01*
X35223Y6706D02*
Y8674D01*
X36797Y6706D02*
Y8674D01*
X35223D02*
X36797D01*
X35223Y6706D02*
X36797D01*
X35223Y4406D02*
Y6374D01*
X36797Y4406D02*
Y6374D01*
X35223D02*
X36797D01*
X35223Y4406D02*
X36797D01*
X35223Y2056D02*
Y4024D01*
X36797Y2056D02*
Y4024D01*
X35223D02*
X36797D01*
X35223Y2056D02*
X36797D01*
X27393Y4465D02*
Y5115D01*
X27727Y4465D02*
Y5115D01*
X27393Y4465D02*
X27727D01*
X27393Y5115D02*
X27727D01*
X27483Y13825D02*
Y14475D01*
X27817Y13825D02*
Y14475D01*
X27483Y13825D02*
X27817D01*
X27483Y14475D02*
X27817D01*
X27383Y6755D02*
Y7405D01*
X27717Y6755D02*
Y7405D01*
X27383Y6755D02*
X27717D01*
X27383Y7405D02*
X27717D01*
X27473Y16115D02*
Y16765D01*
X27807Y16115D02*
Y16765D01*
X27473Y16115D02*
X27807D01*
X27473Y16765D02*
X27807D01*
X27383Y2155D02*
Y2805D01*
X27717Y2155D02*
Y2805D01*
X27383Y2155D02*
X27717D01*
X27383Y2805D02*
X27717D01*
X27473Y11515D02*
Y12165D01*
X27807Y11515D02*
Y12165D01*
X27473Y11515D02*
X27807D01*
X27473Y12165D02*
X27807D01*
X25733Y7425D02*
Y8075D01*
X26067Y7425D02*
Y8075D01*
X25733Y7425D02*
X26067D01*
X25733Y8075D02*
X26067D01*
X25823Y16785D02*
Y17435D01*
X26157Y16785D02*
Y17435D01*
X25823Y16785D02*
X26157D01*
X25823Y17435D02*
X26157D01*
X25733Y5155D02*
Y5805D01*
X26067Y5155D02*
Y5805D01*
X25733Y5155D02*
X26067D01*
X25733Y5805D02*
X26067D01*
X25823Y14515D02*
Y15165D01*
X26157Y14515D02*
Y15165D01*
X25823Y14515D02*
X26157D01*
X25823Y15165D02*
X26157D01*
X25753Y2795D02*
Y3445D01*
X26087Y2795D02*
Y3445D01*
X25753Y2795D02*
X26087D01*
X25753Y3445D02*
X26087D01*
X25843Y12155D02*
Y12805D01*
X26177Y12155D02*
Y12805D01*
X25843Y12155D02*
X26177D01*
X25843Y12805D02*
X26177D01*
X27863Y7335D02*
Y7985D01*
X28197Y7335D02*
Y7985D01*
X27863Y7335D02*
X28197D01*
X27863Y7985D02*
X28197D01*
X27953Y16695D02*
Y17345D01*
X28287Y16695D02*
Y17345D01*
X27953Y16695D02*
X28287D01*
X27953Y17345D02*
X28287D01*
X27873Y5025D02*
Y5675D01*
X28207Y5025D02*
Y5675D01*
X27873Y5025D02*
X28207D01*
X27873Y5675D02*
X28207D01*
X27963Y14385D02*
Y15035D01*
X28297Y14385D02*
Y15035D01*
X27963Y14385D02*
X28297D01*
X27963Y15035D02*
X28297D01*
X27863Y2665D02*
Y3315D01*
X28197Y2665D02*
Y3315D01*
X27863Y2665D02*
X28197D01*
X27863Y3315D02*
X28197D01*
X27953Y12025D02*
Y12675D01*
X28287Y12025D02*
Y12675D01*
X27953Y12025D02*
X28287D01*
X27953Y12675D02*
X28287D01*
X22995Y6680D02*
X24566D01*
X22995Y8640D02*
X24566D01*
Y6680D02*
Y8640D01*
X22995Y6680D02*
Y8640D01*
X23005Y16040D02*
X24576D01*
X23005Y18000D02*
X24576D01*
Y16040D02*
Y18000D01*
X23005Y16040D02*
Y18000D01*
X22995Y4380D02*
X24566D01*
X22995Y6340D02*
X24566D01*
Y4380D02*
Y6340D01*
X22995Y4380D02*
Y6340D01*
X23005Y13740D02*
X24576D01*
X23005Y15700D02*
X24576D01*
Y13740D02*
Y15700D01*
X23005Y13740D02*
Y15700D01*
X22995Y2030D02*
X24566D01*
X22995Y3990D02*
X24566D01*
Y2030D02*
Y3990D01*
X22995Y2030D02*
Y3990D01*
X23005Y11390D02*
X24576D01*
X23005Y13350D02*
X24576D01*
Y11390D02*
Y13350D01*
X23005Y11390D02*
Y13350D01*
X38424Y16050D02*
X39995D01*
X38424Y18010D02*
X39995D01*
Y16050D02*
Y18010D01*
X38424Y16050D02*
Y18010D01*
Y13750D02*
X39995D01*
X38424Y15710D02*
X39995D01*
Y13750D02*
Y15710D01*
X38424Y13750D02*
Y15710D01*
Y11400D02*
X39995D01*
X38424Y13360D02*
X39995D01*
Y11400D02*
Y13360D01*
X38424Y11400D02*
Y13360D01*
X26413Y6765D02*
Y7415D01*
X26747Y6765D02*
Y7415D01*
X26413Y6765D02*
X26747D01*
X26413Y7415D02*
X26747D01*
X26503Y16125D02*
Y16775D01*
X26837Y16125D02*
Y16775D01*
X26503Y16125D02*
X26837D01*
X26503Y16775D02*
X26837D01*
X26423Y4465D02*
Y5115D01*
X26757Y4465D02*
Y5115D01*
X26423Y4465D02*
X26757D01*
X26423Y5115D02*
X26757D01*
X26513Y13825D02*
Y14475D01*
X26847Y13825D02*
Y14475D01*
X26513Y13825D02*
X26847D01*
X26513Y14475D02*
X26847D01*
X26433Y2155D02*
Y2805D01*
X26767Y2155D02*
Y2805D01*
X26433Y2155D02*
X26767D01*
X26433Y2805D02*
X26767D01*
X26523Y11515D02*
Y12165D01*
X26857Y11515D02*
Y12165D01*
X26523Y11515D02*
X26857D01*
X26523Y12165D02*
X26857D01*
X26903Y4475D02*
Y5125D01*
X27237Y4475D02*
Y5125D01*
X26903Y4475D02*
X27237D01*
X26903Y5125D02*
X27237D01*
X26993Y13835D02*
Y14485D01*
X27327Y13835D02*
Y14485D01*
X26993Y13835D02*
X27327D01*
X26993Y14485D02*
X27327D01*
X28697Y9555D02*
Y10205D01*
X28363Y9555D02*
Y10205D01*
X28697D01*
X28363Y9555D02*
X28697D01*
X26903Y6765D02*
Y7415D01*
X27237Y6765D02*
Y7415D01*
X26903Y6765D02*
X27237D01*
X26903Y7415D02*
X27237D01*
X26993Y16125D02*
Y16775D01*
X27327Y16125D02*
Y16775D01*
X26993Y16125D02*
X27327D01*
X26993Y16775D02*
X27327D01*
X26913Y2155D02*
Y2805D01*
X27247Y2155D02*
Y2805D01*
X26913Y2155D02*
X27247D01*
X26913Y2805D02*
X27247D01*
X27003Y11515D02*
Y12165D01*
X27337Y11515D02*
Y12165D01*
X27003Y11515D02*
X27337D01*
X27003Y12165D02*
X27337D01*
X35222Y16046D02*
Y18014D01*
X36797Y16046D02*
Y18014D01*
X35222D02*
X36797D01*
X35222Y16046D02*
X36797D01*
X35222Y13746D02*
Y15714D01*
X36797Y13746D02*
Y15714D01*
X35222D02*
X36797D01*
X35222Y13746D02*
X36797D01*
X35222Y11396D02*
Y13364D01*
X36797Y11396D02*
Y13364D01*
X35222D02*
X36797D01*
X35222Y11396D02*
X36797D01*
X33492Y11341D02*
X33951Y10882D01*
X33729Y11578D02*
X34188Y11119D01*
X33951Y10882D02*
X34188Y11119D01*
X33492Y11341D02*
X33729Y11578D01*
X24620Y8880D02*
Y10580D01*
X27520Y8880D02*
Y10580D01*
X24620D02*
X27520D01*
X24620Y8880D02*
X27520D01*
X25030Y40D02*
Y1740D01*
X27930Y40D02*
Y1740D01*
X25030D02*
X27930D01*
X25030Y40D02*
X27930D01*
X35280Y9130D02*
Y10830D01*
X38180Y9130D02*
Y10830D01*
X35280D02*
X38180D01*
X35280Y9130D02*
X38180D01*
X39127Y9426D02*
X39993D01*
X39127Y8874D02*
X39993D01*
X39127D02*
Y9426D01*
X39993Y8874D02*
Y9426D01*
X23057Y10426D02*
X23923D01*
X23057Y9874D02*
X23923D01*
X23057D02*
Y10426D01*
X23923Y9874D02*
Y10426D01*
X36574Y687D02*
Y1553D01*
X37126Y687D02*
Y1553D01*
X36574Y687D02*
X37126D01*
X36574Y1553D02*
X37126D01*
X25887Y18374D02*
X26753D01*
X25887Y18926D02*
X26753D01*
Y18374D02*
Y18926D01*
X25887Y18374D02*
Y18926D01*
X36120Y18300D02*
Y20000D01*
X39020Y18300D02*
Y20000D01*
X36120D02*
X39020D01*
X36120Y18300D02*
X39020D01*
X34673Y9345D02*
Y9995D01*
X35007Y9345D02*
Y9995D01*
X34673Y9345D02*
X35007D01*
X34673Y9995D02*
X35007D01*
X34967Y10315D02*
Y10965D01*
X34633Y10315D02*
Y10965D01*
X34967D01*
X34633Y10315D02*
X34967D01*
X32717Y3085D02*
Y3735D01*
X32383Y3085D02*
Y3735D01*
Y3085D02*
X32717D01*
X32383Y3735D02*
X32717D01*
X32217Y3095D02*
Y3745D01*
X31883Y3095D02*
Y3745D01*
Y3095D02*
X32217D01*
X31883Y3745D02*
X32217D01*
X31717Y3105D02*
Y3755D01*
X31383Y3105D02*
Y3755D01*
Y3105D02*
X31717D01*
X31383Y3755D02*
X31717D01*
X31217Y3105D02*
Y3755D01*
X30883Y3105D02*
Y3755D01*
Y3105D02*
X31217D01*
X30883Y3755D02*
X31217D01*
X30717Y3105D02*
Y3755D01*
X30383Y3105D02*
Y3755D01*
Y3105D02*
X30717D01*
X30383Y3755D02*
X30717D01*
X30217Y3105D02*
Y3755D01*
X29883Y3105D02*
Y3755D01*
Y3105D02*
X30217D01*
X29883Y3755D02*
X30217D01*
X29717Y3105D02*
Y3755D01*
X29383Y3105D02*
Y3755D01*
Y3105D02*
X29717D01*
X29383Y3755D02*
X29717D01*
X29217Y3105D02*
Y3755D01*
X28883Y3105D02*
Y3755D01*
Y3105D02*
X29217D01*
X28883Y3755D02*
X29217D01*
X35527Y2185D02*
Y2835D01*
X35193Y2185D02*
Y2835D01*
Y2185D02*
X35527D01*
X35193Y2835D02*
X35527D01*
X37177Y7455D02*
Y8105D01*
X36843Y7455D02*
Y8105D01*
Y7455D02*
X37177D01*
X36843Y8105D02*
X37177D01*
X35047Y7365D02*
Y8015D01*
X34713Y7365D02*
Y8015D01*
Y7365D02*
X35047D01*
X34713Y8015D02*
X35047D01*
X38425Y6710D02*
X39995D01*
X38425Y8670D02*
X39995D01*
X38425Y6710D02*
Y8670D01*
X39995Y6710D02*
Y8670D01*
X38425Y4410D02*
X39995D01*
X38425Y6370D02*
X39995D01*
X38425Y4410D02*
Y6370D01*
X39995Y4410D02*
Y6370D01*
X38425Y2060D02*
X39995D01*
X38425Y4020D02*
X39995D01*
X38425Y2060D02*
Y4020D01*
X39995Y2060D02*
Y4020D01*
X36497Y6795D02*
Y7445D01*
X36163Y6795D02*
Y7445D01*
Y6795D02*
X36497D01*
X36163Y7445D02*
X36497D01*
X35997Y2185D02*
Y2835D01*
X35663Y2185D02*
Y2835D01*
Y2185D02*
X35997D01*
X35663Y2835D02*
X35997D01*
X35517Y4495D02*
Y5145D01*
X35183Y4495D02*
Y5145D01*
Y4495D02*
X35517D01*
X35183Y5145D02*
X35517D01*
X35517Y13835D02*
Y14485D01*
X35183Y13835D02*
Y14485D01*
Y13835D02*
X35517D01*
X35183Y14485D02*
X35517D01*
X35527Y6785D02*
Y7435D01*
X35193Y6785D02*
Y7435D01*
Y6785D02*
X35527D01*
X35193Y7435D02*
X35527D01*
X35527Y16125D02*
Y16775D01*
X35193Y16125D02*
Y16775D01*
Y16125D02*
X35527D01*
X35193Y16775D02*
X35527D01*
Y11525D02*
Y12175D01*
X35193Y11525D02*
Y12175D01*
Y11525D02*
X35527D01*
X35193Y12175D02*
X35527D01*
X37177Y16795D02*
Y17445D01*
X36843Y16795D02*
Y17445D01*
Y16795D02*
X37177D01*
X36843Y17445D02*
X37177D01*
X37177Y5185D02*
Y5835D01*
X36843Y5185D02*
Y5835D01*
Y5185D02*
X37177D01*
X36843Y5835D02*
X37177D01*
X37177Y14525D02*
Y15175D01*
X36843Y14525D02*
Y15175D01*
Y14525D02*
X37177D01*
X36843Y15175D02*
X37177D01*
X37157Y2825D02*
Y3475D01*
X36823Y2825D02*
Y3475D01*
Y2825D02*
X37157D01*
X36823Y3475D02*
X37157D01*
X37157Y12165D02*
Y12815D01*
X36823Y12165D02*
Y12815D01*
Y12165D02*
X37157D01*
X36823Y12815D02*
X37157D01*
X35047Y16705D02*
Y17355D01*
X34713Y16705D02*
Y17355D01*
Y16705D02*
X35047D01*
X34713Y17355D02*
X35047D01*
X35037Y5055D02*
Y5705D01*
X34703Y5055D02*
Y5705D01*
Y5055D02*
X35037D01*
X34703Y5705D02*
X35037D01*
X35037Y14395D02*
Y15045D01*
X34703Y14395D02*
Y15045D01*
Y14395D02*
X35037D01*
X34703Y15045D02*
X35037D01*
X35047Y2695D02*
Y3345D01*
X34713Y2695D02*
Y3345D01*
Y2695D02*
X35047D01*
X34713Y3345D02*
X35047D01*
X35047Y12035D02*
Y12685D01*
X34713Y12035D02*
Y12685D01*
Y12035D02*
X35047D01*
X34713Y12685D02*
X35047D01*
X38424Y16050D02*
X39995D01*
X38424Y18010D02*
X39995D01*
X38424Y16050D02*
Y18010D01*
X39995Y16050D02*
Y18010D01*
X38424Y13750D02*
X39995D01*
X38424Y15710D02*
X39995D01*
X38424Y13750D02*
Y15710D01*
X39995Y13750D02*
Y15710D01*
X38424Y11400D02*
X39995D01*
X38424Y13360D02*
X39995D01*
X38424Y11400D02*
Y13360D01*
X39995Y11400D02*
Y13360D01*
X22995Y6680D02*
X24566D01*
X22995Y8640D02*
X24566D01*
X22995Y6680D02*
Y8640D01*
X24566Y6680D02*
Y8640D01*
X23005Y16040D02*
X24576D01*
X23005Y18000D02*
X24576D01*
X23005Y16040D02*
Y18000D01*
X24576Y16040D02*
Y18000D01*
X22995Y4380D02*
X24566D01*
X22995Y6340D02*
X24566D01*
X22995Y4380D02*
Y6340D01*
X24566Y4380D02*
Y6340D01*
X23005Y13740D02*
X24576D01*
X23005Y15700D02*
X24576D01*
X23005Y13740D02*
Y15700D01*
X24576Y13740D02*
Y15700D01*
X22995Y2030D02*
X24566D01*
X22995Y3990D02*
X24566D01*
X22995Y2030D02*
Y3990D01*
X24566Y2030D02*
Y3990D01*
X23005Y11390D02*
X24576D01*
X23005Y13350D02*
X24576D01*
X23005Y11390D02*
Y13350D01*
X24576Y11390D02*
Y13350D01*
X36497Y16135D02*
Y16785D01*
X36163Y16135D02*
Y16785D01*
Y16135D02*
X36497D01*
X36163Y16785D02*
X36497D01*
X36487Y4495D02*
Y5145D01*
X36153Y4495D02*
Y5145D01*
Y4495D02*
X36487D01*
X36153Y5145D02*
X36487D01*
X36487Y13835D02*
Y14485D01*
X36153Y13835D02*
Y14485D01*
Y13835D02*
X36487D01*
X36153Y14485D02*
X36487D01*
X36477Y2185D02*
Y2835D01*
X36143Y2185D02*
Y2835D01*
Y2185D02*
X36477D01*
X36143Y2835D02*
X36477D01*
X36477Y11525D02*
Y12175D01*
X36143Y11525D02*
Y12175D01*
Y11525D02*
X36477D01*
X36143Y12175D02*
X36477D01*
X36007Y4505D02*
Y5155D01*
X35673Y4505D02*
Y5155D01*
Y4505D02*
X36007D01*
X35673Y5155D02*
X36007D01*
X36007Y13845D02*
Y14495D01*
X35673Y13845D02*
Y14495D01*
Y13845D02*
X36007D01*
X35673Y14495D02*
X36007D01*
X36007Y6795D02*
Y7445D01*
X35673Y6795D02*
Y7445D01*
Y6795D02*
X36007D01*
X35673Y7445D02*
X36007D01*
X36007Y16135D02*
Y16785D01*
X35673Y16135D02*
Y16785D01*
Y16135D02*
X36007D01*
X35673Y16785D02*
X36007D01*
X35997Y11525D02*
Y12175D01*
X35663Y11525D02*
Y12175D01*
Y11525D02*
X35997D01*
X35663Y12175D02*
X35997D01*
X27687Y6676D02*
Y8644D01*
X26113Y6676D02*
Y8644D01*
X27687D01*
X26113Y6676D02*
X27687D01*
X27778Y16036D02*
Y18004D01*
X26203Y16036D02*
Y18004D01*
X27778D01*
X26203Y16036D02*
X27778D01*
X27687Y4376D02*
Y6344D01*
X26113Y4376D02*
Y6344D01*
X27687D01*
X26113Y4376D02*
X27687D01*
X27778Y13736D02*
Y15704D01*
X26203Y13736D02*
Y15704D01*
X27778D01*
X26203Y13736D02*
X27778D01*
X27687Y2026D02*
Y3994D01*
X26113Y2026D02*
Y3994D01*
X27687D01*
X26113Y2026D02*
X27687D01*
X27778Y11386D02*
Y13354D01*
X26203Y11386D02*
Y13354D01*
X27778D01*
X26203Y11386D02*
X27778D01*
X26900Y18240D02*
Y19940D01*
X24000Y18240D02*
Y19940D01*
X26900D01*
X24000Y18240D02*
X26900D01*
X39117Y10476D02*
X39983D01*
X39117Y9924D02*
X39983D01*
Y10476D01*
X39117Y9924D02*
Y10476D01*
X23027Y9406D02*
X23893D01*
X23027Y8854D02*
X23893D01*
Y9406D01*
X23027Y8854D02*
Y9406D01*
X26386Y627D02*
Y1493D01*
X25834Y627D02*
Y1493D01*
Y627D02*
X26386D01*
X25834Y1493D02*
X26386D01*
X36247Y18434D02*
X37113D01*
X36247Y18986D02*
X37113D01*
X36247Y18434D02*
Y18986D01*
X37113Y18434D02*
Y18986D01*
X37920Y80D02*
Y1780D01*
X35020Y80D02*
Y1780D01*
X37920D01*
X35020Y80D02*
X37920D01*
X26757Y31070D02*
G03*
X26757Y31070I-197J0D01*
G01*
X26559Y23860D02*
G03*
X26559Y23860I-197J0D01*
G01*
X35695Y32575D02*
G03*
X35695Y32575I-197J0D01*
G01*
X30350Y30263D02*
G03*
X30350Y30263I-197J0D01*
G01*
X29203Y29155D02*
Y29805D01*
X29537Y29155D02*
Y29805D01*
X29203Y29155D02*
X29537D01*
X29203Y29805D02*
X29537D01*
X28603Y29155D02*
Y29805D01*
X28937Y29155D02*
Y29805D01*
X28603Y29155D02*
X28937D01*
X28603Y29805D02*
X28937D01*
X25937Y33065D02*
Y33715D01*
X25603Y33065D02*
Y33715D01*
X25937D01*
X25603Y33065D02*
X25937D01*
X32445Y33913D02*
X33095D01*
X32445Y34247D02*
X33095D01*
Y33913D02*
Y34247D01*
X32445Y33913D02*
Y34247D01*
X26186Y30696D02*
Y32664D01*
X28154Y30696D02*
Y32664D01*
X26186Y30696D02*
X28154D01*
X26186Y32664D02*
X28154D01*
X26736Y23486D02*
Y25494D01*
X24964Y23486D02*
Y25494D01*
Y23486D02*
X26736D01*
X24964Y25494D02*
X26736D01*
X27683Y24365D02*
Y25015D01*
X28017Y24365D02*
Y25015D01*
X27683Y24365D02*
X28017D01*
X27683Y25015D02*
X28017D01*
X23817Y24565D02*
Y25215D01*
X23483Y24565D02*
Y25215D01*
X23817D01*
X23483Y24565D02*
X23817D01*
X34417Y32605D02*
Y33255D01*
X34083Y32605D02*
Y33255D01*
X34417D01*
X34083Y32605D02*
X34417D01*
X35124Y30351D02*
X36896D01*
X35124Y32949D02*
X36896D01*
Y30351D02*
Y32949D01*
X35124Y30351D02*
Y32949D01*
X33361Y29889D02*
Y33471D01*
X29779Y29889D02*
Y33471D01*
X33361D01*
X29779Y29889D02*
X33361D01*
X27683Y23155D02*
Y23805D01*
X28017Y23155D02*
Y23805D01*
X27683Y23155D02*
X28017D01*
X27683Y23805D02*
X28017D01*
X25765Y23247D02*
X26415D01*
X25765Y22913D02*
X26415D01*
X25765D02*
Y23247D01*
X26415Y22913D02*
Y23247D01*
X27937Y25555D02*
Y26205D01*
X27603Y25555D02*
Y26205D01*
X27937D01*
X27603Y25555D02*
X27937D01*
X37125Y30267D02*
X37775D01*
X37125Y29933D02*
X37775D01*
X37125D02*
Y30267D01*
X37775Y29933D02*
Y30267D01*
X32975Y29233D02*
X33625D01*
X32975Y29567D02*
X33625D01*
Y29233D02*
Y29567D01*
X32975Y29233D02*
Y29567D01*
X29137Y30555D02*
Y31205D01*
X28803Y30555D02*
Y31205D01*
X29137D01*
X28803Y30555D02*
X29137D01*
X23817Y23365D02*
Y24015D01*
X23483Y23365D02*
Y24015D01*
X23817D01*
X23483Y23365D02*
X23817D01*
X30035Y33973D02*
X30685D01*
X30035Y34307D02*
X30685D01*
Y33973D02*
Y34307D01*
X30035D02*
X30035Y33973D01*
X28797Y32615D02*
Y33265D01*
X28463Y32615D02*
Y33265D01*
X28797D01*
X28463Y32615D02*
X28797D01*
X34033Y31725D02*
X34367D01*
X34033Y31075D02*
X34367D01*
Y31725D01*
X34033Y31075D02*
Y31725D01*
X26825Y26733D02*
Y27067D01*
X26175Y26733D02*
Y27067D01*
Y26733D02*
X26825D01*
X26175Y27067D02*
X26825D01*
X38483Y23875D02*
X38817D01*
X38483Y24525D02*
X38817D01*
X38483Y23875D02*
Y24525D01*
X38817Y23875D02*
Y24525D01*
X40035Y38223D02*
Y38557D01*
X39385Y38223D02*
Y38557D01*
Y38223D02*
X40035D01*
X39385Y38557D02*
X40035D01*
X21713Y37405D02*
X22047D01*
X21713Y36755D02*
X22047D01*
Y37405D01*
X21713Y36755D02*
Y37405D01*
X27925Y26733D02*
Y27067D01*
X27275Y26733D02*
Y27067D01*
Y26733D02*
X27925D01*
X27275Y27067D02*
X27925D01*
X38225Y23083D02*
Y23417D01*
X37575Y23083D02*
Y23417D01*
Y23083D02*
X38225D01*
X37575Y23417D02*
X38225D01*
X40035Y37623D02*
Y37957D01*
X39385Y37623D02*
Y37957D01*
Y37623D02*
X40035D01*
X39385Y37957D02*
X40035D01*
X22313Y37405D02*
X22647D01*
X22313Y36755D02*
X22647D01*
Y37405D01*
X22313Y36755D02*
Y37405D01*
X27275Y32983D02*
Y33317D01*
X26625Y32983D02*
Y33317D01*
X27275D01*
X26625Y32983D02*
X27275D01*
X31667Y34725D02*
Y35375D01*
X31333Y34725D02*
Y35375D01*
X31667D01*
X31333Y34725D02*
X31667D01*
X31557Y72929D02*
G03*
X31557Y72929I-197J0D01*
G01*
X25444Y76235D02*
G03*
X25444Y76235I-197J0D01*
G01*
X38142Y78912D02*
G03*
X38142Y78912I-197J0D01*
G01*
X30986Y69366D02*
Y73303D01*
X34923Y69366D02*
Y73303D01*
X30986D02*
X34923D01*
X30986Y69366D02*
X34923D01*
X33437Y81845D02*
Y82495D01*
X33103Y81845D02*
Y82495D01*
X33437D01*
X33103Y81845D02*
X33437D01*
X33103Y83005D02*
Y83655D01*
X33437Y83005D02*
Y83655D01*
X33103Y83005D02*
X33437D01*
X33103Y83655D02*
X33437D01*
X30523Y83005D02*
Y83655D01*
X30857Y83005D02*
Y83655D01*
X30523Y83005D02*
X30857D01*
X30523Y83655D02*
X30857D01*
X31515Y84057D02*
X32165D01*
X31515Y83723D02*
X32165D01*
X31515D02*
Y84057D01*
X32165Y83723D02*
Y84057D01*
X29413Y81835D02*
Y82485D01*
X29747Y81835D02*
Y82485D01*
X29413Y81835D02*
X29747D01*
X29413Y82485D02*
X29747D01*
X29413Y82985D02*
Y83635D01*
X29747Y82985D02*
Y83635D01*
X29413Y82985D02*
X29747D01*
X29413Y83635D02*
X29747D01*
X25413Y80945D02*
Y81595D01*
X25747Y80945D02*
Y81595D01*
X25413Y80945D02*
X25747D01*
X25413Y81595D02*
X25747D01*
X26685Y80187D02*
X27335D01*
X26685Y79853D02*
X27335D01*
X26685D02*
Y80187D01*
X27335Y79853D02*
Y80187D01*
X28075Y79843D02*
X28725D01*
X28075Y80177D02*
X28725D01*
Y79843D02*
Y80177D01*
X28075Y79843D02*
Y80177D01*
X25747Y82145D02*
Y82795D01*
X25413Y82145D02*
Y82795D01*
X25747D01*
X25413Y82145D02*
X25747D01*
X26242Y80627D02*
Y83343D01*
X28958Y80627D02*
Y83343D01*
X26242D02*
X28958D01*
X26242Y80627D02*
X28958D01*
X27525Y83793D02*
X28175D01*
X27525Y84127D02*
X28175D01*
Y83793D02*
Y84127D01*
X27525Y83793D02*
Y84127D01*
X26275D02*
X26925D01*
X26275Y83793D02*
X26925D01*
X26275D02*
Y84127D01*
X26925Y83793D02*
Y84127D01*
X29747Y80655D02*
Y81305D01*
X29413Y80655D02*
Y81305D01*
X29747D01*
X29413Y80655D02*
X29747D01*
X27545Y76523D02*
Y76857D01*
X28195Y76523D02*
Y76857D01*
X27545D02*
X28195D01*
X27545Y76523D02*
X28195D01*
X27545Y76023D02*
Y76357D01*
X28195Y76023D02*
Y76357D01*
X27545D02*
X28195D01*
X27545Y76023D02*
X28195D01*
X25855Y71743D02*
Y72077D01*
X26505Y71743D02*
Y72077D01*
X25855D02*
X26505D01*
X25855Y71743D02*
X26505D01*
X25855Y72223D02*
Y72557D01*
X26505Y72223D02*
Y72557D01*
X25855Y72223D02*
X26505D01*
X25855Y72557D02*
X26505D01*
X23245Y76713D02*
Y77047D01*
X23895Y76713D02*
Y77047D01*
X23245D02*
X23895D01*
X23245Y76713D02*
X23895D01*
X23235Y76213D02*
Y76547D01*
X23885Y76213D02*
Y76547D01*
X23235D02*
X23885D01*
X23235Y76213D02*
X23885D01*
X23195Y75243D02*
Y75577D01*
X23845Y75243D02*
Y75577D01*
X23195D02*
X23845D01*
X23195Y75243D02*
X23845D01*
X23195Y74763D02*
Y75097D01*
X23845Y74763D02*
Y75097D01*
X23195D02*
X23845D01*
X23195Y74763D02*
X23845D01*
X23205Y74163D02*
Y74497D01*
X23855Y74163D02*
Y74497D01*
X23205D02*
X23855D01*
X23205Y74163D02*
X23855D01*
X23205Y73683D02*
Y74017D01*
X23855Y73683D02*
Y74017D01*
X23205D02*
X23855D01*
X23205Y73683D02*
X23855D01*
X23225Y72983D02*
Y73317D01*
X23875Y72983D02*
Y73317D01*
X23225D02*
X23875D01*
X23225Y72983D02*
X23875D01*
X23245Y72503D02*
Y72837D01*
X23895Y72503D02*
Y72837D01*
X23245D02*
X23895D01*
X23245Y72503D02*
X23895D01*
X24595Y77313D02*
Y77647D01*
X25245Y77313D02*
Y77647D01*
X24595D02*
X25245D01*
X24595Y77313D02*
X25245D01*
Y76813D02*
Y77147D01*
X24595Y76813D02*
Y77147D01*
Y76813D02*
X25245D01*
X24595Y77147D02*
X25245D01*
X25845Y77313D02*
Y77647D01*
X26495Y77313D02*
Y77647D01*
X25845D02*
X26495D01*
X25845Y77313D02*
X26495D01*
Y76813D02*
Y77147D01*
X25845Y76813D02*
Y77147D01*
Y76813D02*
X26495D01*
X25845Y77147D02*
X26495D01*
X24874Y72751D02*
X26566D01*
X24874Y76609D02*
X26566D01*
Y72751D02*
Y76609D01*
X24874Y72751D02*
Y76609D01*
X27545Y75113D02*
Y75447D01*
X28195Y75113D02*
Y75447D01*
X27545D02*
X28195D01*
X27545Y75113D02*
X28195D01*
X27545Y74613D02*
Y74947D01*
X28195Y74613D02*
Y74947D01*
X27545D02*
X28195D01*
X27545Y74613D02*
X28195D01*
X27545Y74133D02*
Y74467D01*
X28195Y74133D02*
Y74467D01*
X27545D02*
X28195D01*
X27545Y74133D02*
X28195D01*
X27545Y73653D02*
Y73987D01*
X28195Y73653D02*
Y73987D01*
X27545D02*
X28195D01*
X27545Y73653D02*
X28195D01*
X27545Y72873D02*
Y73207D01*
X28195Y72873D02*
Y73207D01*
X27545D02*
X28195D01*
X27545Y72873D02*
X28195D01*
X27545Y72393D02*
Y72727D01*
X28195Y72393D02*
Y72727D01*
X27545D02*
X28195D01*
X27545Y72393D02*
X28195D01*
X26505Y72223D02*
Y72557D01*
X25855Y72223D02*
Y72557D01*
Y72223D02*
X26505D01*
X25855Y72557D02*
X26505D01*
X24555Y72233D02*
Y72567D01*
X25205Y72233D02*
Y72567D01*
X24555D02*
X25205D01*
X24555Y72233D02*
X25205D01*
X25205Y71753D02*
Y72087D01*
X24555Y71753D02*
Y72087D01*
Y71753D02*
X25205D01*
X24555Y72087D02*
X25205D01*
X24665Y77313D02*
Y77647D01*
X25315Y77313D02*
Y77647D01*
X24665Y77313D02*
X25315D01*
X24665Y77647D02*
X25315D01*
Y76813D02*
Y77147D01*
X24665Y76813D02*
Y77147D01*
X25315D01*
X24665Y76813D02*
X25315D01*
X25845Y77313D02*
Y77647D01*
X26495Y77313D02*
Y77647D01*
X25845Y77313D02*
X26495D01*
X25845Y77647D02*
X26495D01*
Y76813D02*
Y77147D01*
X25845Y76813D02*
Y77147D01*
X26495D01*
X25845Y76813D02*
X26495D01*
X26945Y75643D02*
Y75977D01*
X27595Y75643D02*
Y75977D01*
X26945Y75643D02*
X27595D01*
X26945Y75977D02*
X27595D01*
X26945Y74613D02*
Y74947D01*
X27595Y74613D02*
Y74947D01*
X26945Y74613D02*
X27595D01*
X26945Y74947D02*
X27595D01*
X26945Y72533D02*
Y72867D01*
X27595Y72533D02*
Y72867D01*
X26945Y72533D02*
X27595D01*
X26945Y72867D02*
X27595D01*
X26945Y71733D02*
Y72067D01*
X27595Y71733D02*
Y72067D01*
X26945Y71733D02*
X27595D01*
X26945Y72067D02*
X27595D01*
X24555Y71753D02*
Y72087D01*
X25205Y71753D02*
Y72087D01*
X24555Y71753D02*
X25205D01*
X24555Y72087D02*
X25205D01*
Y72233D02*
Y72567D01*
X24555Y72233D02*
Y72567D01*
X25205D01*
X24555Y72233D02*
X25205D01*
X26945Y73533D02*
Y73867D01*
X27595Y73533D02*
Y73867D01*
X26945Y73533D02*
X27595D01*
X26945Y73867D02*
X27595D01*
X22985Y72713D02*
Y73047D01*
X23635Y72713D02*
Y73047D01*
X22985Y72713D02*
X23635D01*
X22985Y73047D02*
X23635D01*
X23245Y75243D02*
Y75577D01*
X23895Y75243D02*
Y75577D01*
X23245Y75243D02*
X23895D01*
X23245Y75577D02*
X23895D01*
X26505Y71743D02*
Y72077D01*
X25855Y71743D02*
Y72077D01*
X26505D01*
X25855Y71743D02*
X26505D01*
X34461Y77594D02*
Y79286D01*
X38319Y77594D02*
Y79286D01*
X34461Y77594D02*
X38319D01*
X34461Y79286D02*
X38319D01*
X33453Y78305D02*
X33787D01*
X33453Y77655D02*
X33787D01*
Y78305D01*
X33453Y77655D02*
Y78305D01*
X34213Y80915D02*
X34547D01*
X34213Y80265D02*
X34547D01*
Y80915D01*
X34213Y80265D02*
Y80915D01*
X34103Y76615D02*
X34437D01*
X34103Y75965D02*
X34437D01*
Y76615D01*
X34103Y75965D02*
Y76615D01*
X34583D02*
X34917D01*
X34583Y75965D02*
X34917D01*
Y76615D01*
X34583Y75965D02*
Y76615D01*
X33933Y78305D02*
X34267D01*
X33933Y77655D02*
X34267D01*
X33933D02*
Y78305D01*
X34267Y77655D02*
Y78305D01*
X34693Y80915D02*
X35027D01*
X34693Y80265D02*
X35027D01*
Y80915D01*
X34693Y80265D02*
Y80915D01*
X33463Y79605D02*
X33797D01*
X33463Y78955D02*
X33797D01*
X33463D02*
Y79605D01*
X33797Y78955D02*
Y79605D01*
X35393Y80915D02*
X35727D01*
X35393Y80265D02*
X35727D01*
Y80915D01*
X35393Y80265D02*
Y80915D01*
X35363Y76615D02*
X35697D01*
X35363Y75965D02*
X35697D01*
Y76615D01*
X35363Y75965D02*
Y76615D01*
X35843D02*
X36177D01*
X35843Y75965D02*
X36177D01*
Y76615D01*
X35843Y75965D02*
Y76615D01*
X33943Y79605D02*
X34277D01*
X33943Y78955D02*
X34277D01*
Y79605D01*
X33943Y78955D02*
Y79605D01*
X35873Y80915D02*
X36207D01*
X35873Y80265D02*
X36207D01*
Y80915D01*
X35873Y80265D02*
Y80915D01*
X39023Y79565D02*
X39357D01*
X39023Y78915D02*
X39357D01*
Y79565D01*
X39023Y78915D02*
Y79565D01*
X36473Y80915D02*
X36807D01*
X36473Y80265D02*
X36807D01*
Y80915D01*
X36473Y80265D02*
Y80915D01*
X36323Y76615D02*
X36657D01*
X36323Y75965D02*
X36657D01*
Y76615D01*
X36323Y75965D02*
Y76615D01*
X36823D02*
X37157D01*
X36823Y75965D02*
X37157D01*
Y76615D01*
X36823Y75965D02*
Y76615D01*
X39023Y79495D02*
X39357D01*
X39023Y78845D02*
X39357D01*
X39023D02*
Y79495D01*
X39357Y78845D02*
Y79495D01*
X36953Y80915D02*
X37287D01*
X36953Y80265D02*
X37287D01*
Y80915D01*
X36953Y80265D02*
Y80915D01*
X39023Y78315D02*
X39357D01*
X39023Y77665D02*
X39357D01*
X39023D02*
Y78315D01*
X39357Y77665D02*
Y78315D01*
X37923Y80915D02*
X38257D01*
X37923Y80265D02*
X38257D01*
Y80915D01*
X37923Y80265D02*
Y80915D01*
X37733Y76615D02*
X38067D01*
X37733Y75965D02*
X38067D01*
Y76615D01*
X37733Y75965D02*
Y76615D01*
X38233D02*
X38567D01*
X38233Y75965D02*
X38567D01*
Y76615D01*
X38233Y75965D02*
Y76615D01*
X39023Y78315D02*
X39357D01*
X39023Y77665D02*
X39357D01*
Y78315D01*
X39023Y77665D02*
Y78315D01*
X38423Y80915D02*
X38757D01*
X38423Y80265D02*
X38757D01*
Y80915D01*
X38423Y80265D02*
Y80915D01*
X33933Y77655D02*
X34267D01*
X33933Y78305D02*
X34267D01*
X33933Y77655D02*
Y78305D01*
X34267Y77655D02*
Y78305D01*
X36323Y77215D02*
X36657D01*
X36323Y76565D02*
X36657D01*
X36323D02*
Y77215D01*
X36657Y76565D02*
Y77215D01*
X35243D02*
X35577D01*
X35243Y76565D02*
X35577D01*
X35243D02*
Y77215D01*
X35577Y76565D02*
Y77215D01*
X33443D02*
X33777D01*
X33443Y76565D02*
X33777D01*
X33443D02*
Y77215D01*
X33777Y76565D02*
Y77215D01*
X34243D02*
X34577D01*
X34243Y76565D02*
X34577D01*
X34243D02*
Y77215D01*
X34577Y76565D02*
Y77215D01*
X37353D02*
X37687D01*
X37353Y76565D02*
X37687D01*
X37353D02*
Y77215D01*
X37687Y76565D02*
Y77215D01*
X33453Y77655D02*
X33787D01*
X33453Y78305D02*
X33787D01*
Y77655D02*
Y78305D01*
X33453Y77655D02*
Y78305D01*
X33943Y78955D02*
X34277D01*
X33943Y79605D02*
X34277D01*
Y78955D02*
Y79605D01*
X33943Y78955D02*
Y79605D01*
X34423Y81175D02*
X34757D01*
X34423Y80525D02*
X34757D01*
X34423D02*
Y81175D01*
X34757Y80525D02*
Y81175D01*
X33463Y78955D02*
X33797D01*
X33463Y79605D02*
X33797D01*
X33463Y78955D02*
Y79605D01*
X33797Y78955D02*
Y79605D01*
X38523Y78915D02*
X38857D01*
X38523Y79565D02*
X38857D01*
X38523Y78915D02*
Y79565D01*
X38857Y78915D02*
Y79565D01*
X38523Y78845D02*
X38857D01*
X38523Y79495D02*
X38857D01*
Y78845D02*
Y79495D01*
X38523Y78845D02*
Y79495D01*
Y77665D02*
X38857D01*
X38523Y78315D02*
X38857D01*
Y77665D02*
Y78315D01*
X38523Y77665D02*
Y78315D01*
X36953Y80915D02*
X37287D01*
X36953Y80265D02*
X37287D01*
X36953D02*
Y80915D01*
X37287Y80265D02*
Y80915D01*
X38523Y77665D02*
X38857D01*
X38523Y78315D02*
X38857D01*
X38523Y77665D02*
Y78315D01*
X38857Y77665D02*
Y78315D01*
X31733Y74225D02*
Y74875D01*
X32067Y74225D02*
Y74875D01*
X31733Y74225D02*
X32067D01*
X31733Y74875D02*
X32067D01*
X30675Y74417D02*
X31325D01*
X30675Y74083D02*
X31325D01*
X30675D02*
Y74417D01*
X31325Y74083D02*
Y74417D01*
X32697Y74235D02*
Y74885D01*
X32363Y74235D02*
Y74885D01*
X32697D01*
X32363Y74235D02*
X32697D01*
X29724Y79953D02*
X30256D01*
X29724Y79087D02*
X30256D01*
X29724D02*
Y79953D01*
X30256Y79087D02*
Y79953D01*
X23661Y65801D02*
Y67199D01*
X26239Y65801D02*
Y67199D01*
X23661Y65801D02*
X26239D01*
X23661Y67199D02*
X26239D01*
X37395Y69593D02*
X38045D01*
X37395Y69927D02*
X38045D01*
Y69593D02*
Y69927D01*
X37395Y69593D02*
Y69927D01*
X36935Y68627D02*
X37585D01*
X36935Y68293D02*
X37585D01*
X36935D02*
Y68627D01*
X37585Y68293D02*
Y68627D01*
X38515Y68293D02*
X39165D01*
X38515Y68627D02*
X39165D01*
Y68293D02*
Y68627D01*
X38515Y68293D02*
Y68627D01*
X36761Y65801D02*
Y67199D01*
X39339Y65801D02*
Y67199D01*
X36761Y65801D02*
X39339D01*
X36761Y67199D02*
X39339D01*
X23835Y68637D02*
X24485D01*
X23835Y68303D02*
X24485D01*
X23835D02*
Y68637D01*
X24485Y68303D02*
Y68637D01*
X25425Y68303D02*
X26075D01*
X25425Y68637D02*
X26075D01*
Y68303D02*
Y68637D01*
X25425Y68303D02*
Y68637D01*
X40303Y67055D02*
Y67705D01*
X40637Y67055D02*
Y67705D01*
X40303Y67055D02*
X40637D01*
X40303Y67705D02*
X40637D01*
X40087Y67055D02*
Y67705D01*
X39753Y67055D02*
Y67705D01*
X40087D01*
X39753Y67055D02*
X40087D01*
X36577D02*
Y67705D01*
X36243Y67055D02*
Y67705D01*
X36577D01*
X36243Y67055D02*
X36577D01*
X39207Y70095D02*
Y70745D01*
X38873Y70095D02*
Y70745D01*
X39207D01*
X38873Y70095D02*
X39207D01*
X26827Y78565D02*
Y79215D01*
X26493Y78565D02*
Y79215D01*
X26827D01*
X26493Y78565D02*
X26827D01*
X26973Y78555D02*
Y79205D01*
X27307Y78555D02*
Y79205D01*
X26973Y78555D02*
X27307D01*
X26973Y79205D02*
X27307D01*
X27695Y77747D02*
X28345D01*
X27695Y77413D02*
X28345D01*
X27695D02*
Y77747D01*
X28345Y77413D02*
Y77747D01*
X29353Y71955D02*
Y72605D01*
X29687Y71955D02*
Y72605D01*
X29353Y71955D02*
X29687D01*
X29353Y72605D02*
X29687D01*
X29913Y72605D02*
Y73255D01*
X30247Y72605D02*
Y73255D01*
X29913Y72605D02*
X30247D01*
X29913Y73255D02*
X30247D01*
X29873Y71205D02*
Y71855D01*
X30207Y71205D02*
Y71855D01*
X29873Y71205D02*
X30207D01*
X29873Y71855D02*
X30207D01*
X27500Y78266D02*
Y78974D01*
X28720Y78266D02*
Y78974D01*
X27500Y78266D02*
X28720D01*
X27500Y78974D02*
X28720D01*
X31603Y67705D02*
Y68355D01*
X31937Y67705D02*
Y68355D01*
X31603Y67705D02*
X31937D01*
X31603Y68355D02*
X31937D01*
X32437Y67705D02*
Y68355D01*
X32103Y67705D02*
Y68355D01*
X32437D01*
X32103Y67705D02*
X32437D01*
X38334Y70130D02*
Y71350D01*
X37626Y70130D02*
Y71350D01*
Y70130D02*
X38334D01*
X37626Y71350D02*
X38334D01*
X35673Y71205D02*
Y71855D01*
X36007Y71205D02*
Y71855D01*
X35673Y71205D02*
X36007D01*
X35673Y71855D02*
X36007D01*
X36527Y71935D02*
Y72585D01*
X36193Y71935D02*
Y72585D01*
X36527D01*
X36193Y71935D02*
X36527D01*
X35997Y72615D02*
Y73265D01*
X35663Y72615D02*
Y73265D01*
X35997D01*
X35663Y72615D02*
X35997D01*
X34625Y74377D02*
X35275D01*
X34625Y74043D02*
X35275D01*
X34625D02*
Y74377D01*
X35275Y74043D02*
Y74377D01*
X33657Y74235D02*
Y74885D01*
X33323Y74235D02*
Y74885D01*
X33657D01*
X33323Y74235D02*
X33657D01*
X34287D02*
Y74885D01*
X33953Y74235D02*
Y74885D01*
X34287D01*
X33953Y74235D02*
X34287D01*
X32103Y77515D02*
Y78165D01*
X32437Y77515D02*
Y78165D01*
X32103Y77515D02*
X32437D01*
X32103Y78165D02*
X32437D01*
X32433Y76045D02*
Y76695D01*
X32767Y76045D02*
Y76695D01*
X32433Y76045D02*
X32767D01*
X32433Y76695D02*
X32767D01*
X31205Y75973D02*
X31855D01*
X31205Y76307D02*
X31855D01*
Y75973D02*
Y76307D01*
X31205Y75973D02*
Y76307D01*
Y76463D02*
X31855D01*
X31205Y76797D02*
X31855D01*
Y76463D02*
Y76797D01*
X31205Y76463D02*
Y76797D01*
X30003Y77515D02*
Y78165D01*
X30337Y77515D02*
Y78165D01*
X30003Y77515D02*
X30337D01*
X30003Y78165D02*
X30337D01*
X30896Y78160D02*
X31604D01*
X30896Y76940D02*
X31604D01*
X30896D02*
Y78160D01*
X31604Y76940D02*
Y78160D01*
X30905Y78803D02*
X31555D01*
X30905Y79137D02*
X31555D01*
Y78803D02*
Y79137D01*
X30905Y78803D02*
Y79137D01*
Y78313D02*
X31555D01*
X30905Y78647D02*
X31555D01*
Y78313D02*
Y78647D01*
X30905Y78313D02*
Y78647D01*
X30077Y77235D02*
Y77885D01*
X29743Y77235D02*
Y77885D01*
Y77235D02*
X30077D01*
X29743Y77885D02*
X30077D01*
X30617Y77230D02*
Y77900D01*
X30243Y77230D02*
Y77900D01*
Y77230D02*
X30617D01*
X30243Y77900D02*
X30617D01*
X32405Y73893D02*
X33075D01*
X32405Y74267D02*
X33075D01*
X32405Y73893D02*
Y74267D01*
X33075Y73893D02*
Y74267D01*
X33141Y71735D02*
Y72405D01*
X32767Y71735D02*
Y72405D01*
Y71735D02*
X33141D01*
X32767Y72405D02*
X33141D01*
X33603Y70255D02*
Y70925D01*
X33977Y70255D02*
Y70925D01*
X33603D02*
X33977D01*
X33603Y70255D02*
X33977D01*
X33083Y69985D02*
Y70635D01*
X33417Y69985D02*
Y70635D01*
X33083D02*
X33417D01*
X33083Y69985D02*
X33417D01*
X32493D02*
Y70635D01*
X32827Y69985D02*
Y70635D01*
X32493D02*
X32827D01*
X32493Y69985D02*
X32827D01*
X31903Y70255D02*
Y70925D01*
X32277Y70255D02*
Y70925D01*
X31903D02*
X32277D01*
X31903Y70255D02*
X32277D01*
X31785Y81203D02*
X32435D01*
X31785Y81537D02*
X32435D01*
Y81203D02*
Y81537D01*
X31785Y81203D02*
Y81537D01*
X32425Y73363D02*
X33075D01*
X32425Y73697D02*
X33075D01*
X32425Y73363D02*
Y73697D01*
X33075Y73363D02*
Y73697D01*
X29025Y66153D02*
Y66487D01*
X28375Y66153D02*
Y66487D01*
Y66153D02*
X29025D01*
X28375Y66487D02*
X29025D01*
X38205Y66263D02*
Y66597D01*
X38855Y66263D02*
Y66597D01*
X38205Y66263D02*
X38855D01*
X38205Y66597D02*
X38855D01*
X27565Y53378D02*
G03*
X27565Y53378I-197J0D01*
G01*
X28784Y60588D02*
G03*
X28784Y60588I-197J0D01*
G01*
X35607Y43975D02*
Y44625D01*
X35273Y43975D02*
Y44625D01*
X35607D01*
X35273Y43975D02*
X35607D01*
X32945Y57223D02*
Y57557D01*
X32295Y57223D02*
Y57557D01*
Y57223D02*
X32945D01*
X32295Y57557D02*
X32945D01*
X28843Y62445D02*
X29177D01*
X28843Y61795D02*
X29177D01*
Y62445D01*
X28843Y61795D02*
Y62445D01*
X29423Y61805D02*
X29757D01*
X29423Y62455D02*
X29757D01*
X29423Y61805D02*
Y62455D01*
X29757Y61805D02*
Y62455D01*
X28263Y61795D02*
X28597D01*
X28263Y62445D02*
X28597D01*
X28263Y61795D02*
Y62445D01*
X28597Y61795D02*
Y62445D01*
X27225Y59043D02*
Y59377D01*
X26575Y59043D02*
Y59377D01*
Y59043D02*
X27225D01*
X26575Y59377D02*
X27225D01*
X31635Y58593D02*
Y58927D01*
X30985Y58593D02*
Y58927D01*
Y58593D02*
X31635D01*
X30985Y58927D02*
X31635D01*
X30843Y58245D02*
X31177D01*
X30843Y57595D02*
X31177D01*
Y58245D01*
X30843Y57595D02*
Y58245D01*
X31453D02*
X31787D01*
X31453Y57595D02*
X31787D01*
Y58245D01*
X31453Y57595D02*
Y58245D01*
X32583Y58555D02*
X32917D01*
X32583Y57905D02*
X32917D01*
Y58555D01*
X32583Y57905D02*
Y58555D01*
X35895Y60743D02*
Y61077D01*
X35245Y60743D02*
Y61077D01*
Y60743D02*
X35895D01*
X35245Y61077D02*
X35895D01*
X37195Y59563D02*
Y59897D01*
X37845Y59563D02*
Y59897D01*
X37195D02*
X37845D01*
X37195Y59563D02*
X37845D01*
X37185Y58433D02*
Y58767D01*
X37835Y58433D02*
Y58767D01*
X37185D02*
X37835D01*
X37185Y58433D02*
X37835D01*
X35563Y55475D02*
X35897D01*
X35563Y54825D02*
X35897D01*
Y55475D01*
X35563Y54825D02*
Y55475D01*
X37195Y57443D02*
Y57777D01*
X37845Y57443D02*
Y57777D01*
X37195D02*
X37845D01*
X37195Y57443D02*
X37845D01*
X30783Y60715D02*
X31117D01*
X30783Y61365D02*
X31117D01*
X30783Y60715D02*
Y61365D01*
X31117Y60715D02*
Y61365D01*
X26643Y58215D02*
X26977D01*
X26643Y57565D02*
X26977D01*
Y58215D01*
X26643Y57565D02*
Y58215D01*
X26023D02*
X26357D01*
X26023Y57565D02*
X26357D01*
Y58215D01*
X26023Y57565D02*
Y58215D01*
X33669Y57389D02*
Y60070D01*
Y57389D02*
X36571D01*
Y60291D01*
X33890D02*
X36571D01*
X33669Y60070D02*
X33890Y60291D01*
X32733Y59605D02*
X33067D01*
X32733Y60255D02*
X33067D01*
X32733Y59605D02*
Y60255D01*
X33067Y59605D02*
Y60255D01*
X27093Y55335D02*
X27427D01*
X27093Y54685D02*
X27427D01*
Y55335D01*
X27093Y54685D02*
Y55335D01*
X29623Y51644D02*
Y52196D01*
X28757Y51644D02*
Y52196D01*
Y51644D02*
X29623D01*
X28757Y52196D02*
X29623D01*
X23018Y53752D02*
X27742D01*
X23018Y49028D02*
X27742D01*
Y53752D01*
X23018Y49028D02*
Y53752D01*
X21763Y50935D02*
X22097D01*
X21763Y50285D02*
X22097D01*
Y50935D01*
X21763Y50285D02*
Y50935D01*
X25317Y49594D02*
Y50146D01*
X26183Y49594D02*
Y50146D01*
X25317Y49594D02*
X26183D01*
X25317Y50146D02*
X26183D01*
X29505Y51113D02*
Y51447D01*
X28855Y51113D02*
Y51447D01*
Y51113D02*
X29505D01*
X28855Y51447D02*
X29505D01*
X24665Y47753D02*
Y48087D01*
X25315Y47753D02*
Y48087D01*
X24665D02*
X25315D01*
X24665Y47753D02*
X25315D01*
X26585Y47753D02*
Y48087D01*
X25935Y47753D02*
Y48087D01*
Y47753D02*
X26585D01*
X25935Y48087D02*
X26585D01*
X33073Y46035D02*
X33407D01*
X33073Y46685D02*
X33407D01*
X33073Y46035D02*
Y46685D01*
X33407Y46035D02*
Y46685D01*
X29593Y46035D02*
X29927D01*
X29593Y46685D02*
X29927D01*
X29593Y46035D02*
Y46685D01*
X29927Y46035D02*
Y46685D01*
X39013Y50165D02*
X39347D01*
X39013Y50815D02*
X39347D01*
X39013Y50165D02*
Y50815D01*
X39347Y50165D02*
Y50815D01*
X38243Y50185D02*
X38577D01*
X38243Y50835D02*
X38577D01*
X38243Y50185D02*
Y50835D01*
X38577Y50185D02*
Y50835D01*
X40183Y47595D02*
X40517D01*
X40183Y46945D02*
X40517D01*
Y47595D01*
X40183Y46945D02*
Y47595D01*
X39794Y47384D02*
Y49156D01*
X37786Y47384D02*
Y49156D01*
X39794D01*
X37786Y47384D02*
X39794D01*
X36695Y49813D02*
Y50147D01*
X37345Y49813D02*
Y50147D01*
X36695D02*
X37345D01*
X36695Y49813D02*
X37345D01*
X36279Y47071D02*
X37341D01*
X36279Y48409D02*
X37341D01*
X36279Y47071D02*
Y48409D01*
X37341Y47071D02*
Y48409D01*
X35433Y47515D02*
X35767D01*
X35433Y48165D02*
X35767D01*
X35433Y47515D02*
Y48165D01*
X35767Y47515D02*
Y48165D01*
X39135Y46123D02*
Y46457D01*
X39785Y46123D02*
Y46457D01*
X39135D02*
X39785D01*
X39135Y46123D02*
X39785D01*
X31526Y50859D02*
X32234D01*
X31526Y49521D02*
X32234D01*
Y50859D01*
X31526Y49521D02*
Y50859D01*
X34816Y54415D02*
Y55085D01*
X34344Y54415D02*
Y55085D01*
Y54415D02*
X34816D01*
X34344Y55085D02*
X34816D01*
X33316Y54425D02*
Y55095D01*
X32844Y54425D02*
Y55095D01*
Y54425D02*
X33316D01*
X32844Y55095D02*
X33316D01*
X34405Y60753D02*
Y61087D01*
X33755Y60753D02*
Y61087D01*
Y60753D02*
X34405D01*
X33755Y61087D02*
X34405D01*
X31853Y53955D02*
X32187D01*
X31853Y54605D02*
X32187D01*
X31853Y53955D02*
Y54605D01*
X32187Y53955D02*
Y54605D01*
X30675Y54413D02*
Y54747D01*
X31325Y54413D02*
Y54747D01*
X30675D02*
X31325D01*
X30675Y54413D02*
X31325D01*
X40183Y48275D02*
X40517D01*
X40183Y48925D02*
X40517D01*
X40183Y48275D02*
Y48925D01*
X40517Y48275D02*
Y48925D01*
X32583Y46035D02*
X32917D01*
X32583Y46685D02*
X32917D01*
X32583Y46035D02*
Y46685D01*
X32917Y46035D02*
Y46685D01*
X32093Y46035D02*
X32427D01*
X32093Y46685D02*
X32427D01*
X32093Y46035D02*
Y46685D01*
X32427Y46035D02*
Y46685D01*
X31583Y46035D02*
X31917D01*
X31583Y46685D02*
X31917D01*
X31583Y46035D02*
Y46685D01*
X31917Y46035D02*
Y46685D01*
X31093Y46035D02*
X31427D01*
X31093Y46685D02*
X31427D01*
X31093Y46035D02*
Y46685D01*
X31427Y46035D02*
Y46685D01*
X30603Y46035D02*
X30937D01*
X30603Y46685D02*
X30937D01*
X30603Y46035D02*
Y46685D01*
X30937Y46035D02*
Y46685D01*
X30093Y46035D02*
X30427D01*
X30093Y46685D02*
X30427D01*
X30093Y46035D02*
Y46685D01*
X30427Y46035D02*
Y46685D01*
X21963Y58025D02*
X22297D01*
X21963Y57375D02*
X22297D01*
Y58025D01*
X21963Y57375D02*
Y58025D01*
X22713D02*
X23047D01*
X22713Y57375D02*
X23047D01*
Y58025D01*
X22713Y57375D02*
Y58025D01*
X23483D02*
X23817D01*
X23483Y57375D02*
X23817D01*
Y58025D01*
X23483Y57375D02*
Y58025D01*
X28233Y57498D02*
Y60942D01*
X29807Y57498D02*
Y60942D01*
X28233D02*
X29807D01*
X28233Y57498D02*
X29807D01*
X26003Y60085D02*
X26337D01*
X26003Y60735D02*
X26337D01*
X26003Y60085D02*
Y60735D01*
X26337Y60085D02*
Y60735D01*
X26643Y60085D02*
X26977D01*
X26643Y60735D02*
X26977D01*
X26643Y60085D02*
Y60735D01*
X26977Y60085D02*
Y60735D01*
X25784Y55533D02*
X26336D01*
X25784Y54667D02*
X26336D01*
Y55533D01*
X25784Y54667D02*
Y55533D01*
X24993Y55415D02*
X25327D01*
X24993Y54765D02*
X25327D01*
Y55415D01*
X24993Y54765D02*
Y55415D01*
X24483D02*
X24817D01*
X24483Y54765D02*
X24817D01*
Y55415D01*
X24483Y54765D02*
Y55415D01*
X23343Y55355D02*
X23677D01*
X23343Y54705D02*
X23677D01*
Y55355D01*
X23343Y54705D02*
Y55355D01*
X23545Y47783D02*
Y48117D01*
X22895Y47783D02*
Y48117D01*
Y47783D02*
X23545D01*
X22895Y48117D02*
X23545D01*
X28875Y52373D02*
Y52707D01*
X29525Y52373D02*
Y52707D01*
X28875D02*
X29525D01*
X28875Y52373D02*
X29525D01*
X65877Y20002D02*
Y22718D01*
X68593Y20002D02*
Y22718D01*
X65877Y20002D02*
X68593D01*
X65877Y22718D02*
X68593D01*
X67325Y23163D02*
Y23497D01*
X67975Y23163D02*
Y23497D01*
X67325D02*
X67975D01*
X67325Y23163D02*
X67975D01*
X66875Y23163D02*
Y23497D01*
X66225Y23163D02*
Y23497D01*
Y23163D02*
X66875D01*
X66225Y23497D02*
X66875D01*
X65083Y21755D02*
X65417D01*
X65083Y22405D02*
X65417D01*
X65083Y21755D02*
Y22405D01*
X65417Y21755D02*
Y22405D01*
X65083Y21155D02*
X65417D01*
X65083Y20505D02*
X65417D01*
Y21155D01*
X65083Y20505D02*
Y21155D01*
X66275Y19213D02*
Y19547D01*
X65625Y19213D02*
Y19547D01*
Y19213D02*
X66275D01*
X65625Y19547D02*
X66275D01*
X67325Y19213D02*
Y19547D01*
X66675Y19213D02*
Y19547D01*
Y19213D02*
X67325D01*
X66675Y19547D02*
X67325D01*
X68425Y19213D02*
Y19547D01*
X67775Y19213D02*
Y19547D01*
Y19213D02*
X68425D01*
X67775Y19547D02*
X68425D01*
X69033Y21555D02*
X69367D01*
X69033Y20905D02*
X69367D01*
Y21555D01*
X69033Y20905D02*
Y21555D01*
X69033Y22255D02*
X69367D01*
X69033Y22905D02*
X69367D01*
X69033Y22255D02*
Y22905D01*
X69367Y22255D02*
Y22905D01*
X65877Y13652D02*
Y16368D01*
X68593Y13652D02*
Y16368D01*
X65877Y13652D02*
X68593D01*
X65877Y16368D02*
X68593D01*
X67325Y16813D02*
Y17147D01*
X67975Y16813D02*
Y17147D01*
X67325D02*
X67975D01*
X67325Y16813D02*
X67975D01*
X66875Y16813D02*
Y17147D01*
X66225Y16813D02*
Y17147D01*
Y16813D02*
X66875D01*
X66225Y17147D02*
X66875D01*
X65083Y15405D02*
X65417D01*
X65083Y16055D02*
X65417D01*
X65083Y15405D02*
Y16055D01*
X65417Y15405D02*
Y16055D01*
X65083Y14805D02*
X65417D01*
X65083Y14155D02*
X65417D01*
Y14805D01*
X65083Y14155D02*
Y14805D01*
X66275Y12863D02*
Y13197D01*
X65625Y12863D02*
Y13197D01*
Y12863D02*
X66275D01*
X65625Y13197D02*
X66275D01*
X67325Y12863D02*
Y13197D01*
X66675Y12863D02*
Y13197D01*
Y12863D02*
X67325D01*
X66675Y13197D02*
X67325D01*
X68425Y12863D02*
Y13197D01*
X67775Y12863D02*
Y13197D01*
Y12863D02*
X68425D01*
X67775Y13197D02*
X68425D01*
X69033Y15205D02*
X69367D01*
X69033Y14555D02*
X69367D01*
Y15205D01*
X69033Y14555D02*
Y15205D01*
X69033Y15905D02*
X69367D01*
X69033Y16555D02*
X69367D01*
X69033Y15905D02*
Y16555D01*
X69367Y15905D02*
Y16555D01*
X65877Y7252D02*
Y9968D01*
X68593Y7252D02*
Y9968D01*
X65877Y7252D02*
X68593D01*
X65877Y9968D02*
X68593D01*
X67325Y10413D02*
Y10747D01*
X67975Y10413D02*
Y10747D01*
X67325D02*
X67975D01*
X67325Y10413D02*
X67975D01*
X66875Y10413D02*
Y10747D01*
X66225Y10413D02*
Y10747D01*
Y10413D02*
X66875D01*
X66225Y10747D02*
X66875D01*
X65083Y9005D02*
X65417D01*
X65083Y9655D02*
X65417D01*
X65083Y9005D02*
Y9655D01*
X65417Y9005D02*
Y9655D01*
X65083Y8405D02*
X65417D01*
X65083Y7755D02*
X65417D01*
Y8405D01*
X65083Y7755D02*
Y8405D01*
X66275Y6463D02*
Y6797D01*
X65625Y6463D02*
Y6797D01*
Y6463D02*
X66275D01*
X65625Y6797D02*
X66275D01*
X67325Y6463D02*
Y6797D01*
X66675Y6463D02*
Y6797D01*
Y6463D02*
X67325D01*
X66675Y6797D02*
X67325D01*
X68425Y6463D02*
Y6797D01*
X67775Y6463D02*
Y6797D01*
Y6463D02*
X68425D01*
X67775Y6797D02*
X68425D01*
X69033Y8805D02*
X69367D01*
X69033Y8155D02*
X69367D01*
Y8805D01*
X69033Y8155D02*
Y8805D01*
X69033Y9505D02*
X69367D01*
X69033Y10155D02*
X69367D01*
X69033Y9505D02*
Y10155D01*
X69367Y9505D02*
Y10155D01*
X65877Y852D02*
Y3568D01*
X68593Y852D02*
Y3568D01*
X65877Y852D02*
X68593D01*
X65877Y3568D02*
X68593D01*
X67325Y4013D02*
Y4347D01*
X67975Y4013D02*
Y4347D01*
X67325D02*
X67975D01*
X67325Y4013D02*
X67975D01*
X66875Y4013D02*
Y4347D01*
X66225Y4013D02*
Y4347D01*
Y4013D02*
X66875D01*
X66225Y4347D02*
X66875D01*
X65083Y2605D02*
X65417D01*
X65083Y3255D02*
X65417D01*
X65083Y2605D02*
Y3255D01*
X65417Y2605D02*
Y3255D01*
X65083Y2005D02*
X65417D01*
X65083Y1355D02*
X65417D01*
Y2005D01*
X65083Y1355D02*
Y2005D01*
X66275Y63D02*
Y397D01*
X65625Y63D02*
Y397D01*
Y63D02*
X66275D01*
X65625Y397D02*
X66275D01*
X67325Y63D02*
Y397D01*
X66675Y63D02*
Y397D01*
Y63D02*
X67325D01*
X66675Y397D02*
X67325D01*
X68425Y63D02*
Y397D01*
X67775Y63D02*
Y397D01*
Y63D02*
X68425D01*
X67775Y397D02*
X68425D01*
X69033Y2405D02*
X69367D01*
X69033Y1755D02*
X69367D01*
Y2405D01*
X69033Y1755D02*
Y2405D01*
X69033Y3105D02*
X69367D01*
X69033Y3755D02*
X69367D01*
X69033Y3105D02*
Y3755D01*
X69367Y3105D02*
Y3755D01*
X6065Y53378D02*
G03*
X6065Y53378I-197J0D01*
G01*
X7284Y60588D02*
G03*
X7284Y60588I-197J0D01*
G01*
X14107Y43975D02*
Y44625D01*
X13773Y43975D02*
Y44625D01*
X14107D01*
X13773Y43975D02*
X14107D01*
X11445Y57223D02*
Y57557D01*
X10795Y57223D02*
Y57557D01*
Y57223D02*
X11445D01*
X10795Y57557D02*
X11445D01*
X7343Y62445D02*
X7677D01*
X7343Y61795D02*
X7677D01*
Y62445D01*
X7343Y61795D02*
Y62445D01*
X7923Y61805D02*
X8257D01*
X7923Y62455D02*
X8257D01*
X7923Y61805D02*
Y62455D01*
X8257Y61805D02*
Y62455D01*
X6763Y61795D02*
X7097D01*
X6763Y62445D02*
X7097D01*
X6763Y61795D02*
Y62445D01*
X7097Y61795D02*
Y62445D01*
X5725Y59043D02*
Y59377D01*
X5075Y59043D02*
Y59377D01*
Y59043D02*
X5725D01*
X5075Y59377D02*
X5725D01*
X10135Y58593D02*
Y58927D01*
X9485Y58593D02*
Y58927D01*
Y58593D02*
X10135D01*
X9485Y58927D02*
X10135D01*
X9343Y58245D02*
X9677D01*
X9343Y57595D02*
X9677D01*
Y58245D01*
X9343Y57595D02*
Y58245D01*
X9953D02*
X10287D01*
X9953Y57595D02*
X10287D01*
Y58245D01*
X9953Y57595D02*
Y58245D01*
X11083Y58555D02*
X11417D01*
X11083Y57905D02*
X11417D01*
Y58555D01*
X11083Y57905D02*
Y58555D01*
X14395Y60743D02*
Y61077D01*
X13745Y60743D02*
Y61077D01*
Y60743D02*
X14395D01*
X13745Y61077D02*
X14395D01*
X15695Y59563D02*
Y59897D01*
X16345Y59563D02*
Y59897D01*
X15695D02*
X16345D01*
X15695Y59563D02*
X16345D01*
X15685Y58433D02*
Y58767D01*
X16335Y58433D02*
Y58767D01*
X15685D02*
X16335D01*
X15685Y58433D02*
X16335D01*
X14063Y55475D02*
X14397D01*
X14063Y54825D02*
X14397D01*
Y55475D01*
X14063Y54825D02*
Y55475D01*
X15695Y57443D02*
Y57777D01*
X16345Y57443D02*
Y57777D01*
X15695D02*
X16345D01*
X15695Y57443D02*
X16345D01*
X9283Y60715D02*
X9617D01*
X9283Y61365D02*
X9617D01*
X9283Y60715D02*
Y61365D01*
X9617Y60715D02*
Y61365D01*
X5143Y58215D02*
X5477D01*
X5143Y57565D02*
X5477D01*
Y58215D01*
X5143Y57565D02*
Y58215D01*
X4523D02*
X4857D01*
X4523Y57565D02*
X4857D01*
Y58215D01*
X4523Y57565D02*
Y58215D01*
X12169Y57389D02*
Y60070D01*
Y57389D02*
X15071D01*
Y60291D01*
X12390D02*
X15071D01*
X12169Y60070D02*
X12390Y60291D01*
X11233Y59605D02*
X11567D01*
X11233Y60255D02*
X11567D01*
X11233Y59605D02*
Y60255D01*
X11567Y59605D02*
Y60255D01*
X5593Y55335D02*
X5927D01*
X5593Y54685D02*
X5927D01*
Y55335D01*
X5593Y54685D02*
Y55335D01*
X8123Y51644D02*
Y52196D01*
X7257Y51644D02*
Y52196D01*
Y51644D02*
X8123D01*
X7257Y52196D02*
X8123D01*
X1518Y53752D02*
X6242D01*
X1518Y49028D02*
X6242D01*
Y53752D01*
X1518Y49028D02*
Y53752D01*
X263Y50935D02*
X597D01*
X263Y50285D02*
X597D01*
Y50935D01*
X263Y50285D02*
Y50935D01*
X3817Y49594D02*
Y50146D01*
X4683Y49594D02*
Y50146D01*
X3817Y49594D02*
X4683D01*
X3817Y50146D02*
X4683D01*
X8005Y51113D02*
Y51447D01*
X7355Y51113D02*
Y51447D01*
Y51113D02*
X8005D01*
X7355Y51447D02*
X8005D01*
X3165Y47753D02*
Y48087D01*
X3815Y47753D02*
Y48087D01*
X3165D02*
X3815D01*
X3165Y47753D02*
X3815D01*
X5085Y47753D02*
Y48087D01*
X4435Y47753D02*
Y48087D01*
Y47753D02*
X5085D01*
X4435Y48087D02*
X5085D01*
X11573Y46035D02*
X11907D01*
X11573Y46685D02*
X11907D01*
X11573Y46035D02*
Y46685D01*
X11907Y46035D02*
Y46685D01*
X8093Y46035D02*
X8427D01*
X8093Y46685D02*
X8427D01*
X8093Y46035D02*
Y46685D01*
X8427Y46035D02*
Y46685D01*
X17513Y50165D02*
X17847D01*
X17513Y50815D02*
X17847D01*
X17513Y50165D02*
Y50815D01*
X17847Y50165D02*
Y50815D01*
X16743Y50185D02*
X17077D01*
X16743Y50835D02*
X17077D01*
X16743Y50185D02*
Y50835D01*
X17077Y50185D02*
Y50835D01*
X18683Y47595D02*
X19017D01*
X18683Y46945D02*
X19017D01*
Y47595D01*
X18683Y46945D02*
Y47595D01*
X18294Y47384D02*
Y49156D01*
X16286Y47384D02*
Y49156D01*
X18294D01*
X16286Y47384D02*
X18294D01*
X15195Y49813D02*
Y50147D01*
X15845Y49813D02*
Y50147D01*
X15195D02*
X15845D01*
X15195Y49813D02*
X15845D01*
X14778Y47071D02*
X15841D01*
X14778Y48409D02*
X15841D01*
X14778Y47071D02*
Y48409D01*
X15841Y47071D02*
Y48409D01*
X13933Y47515D02*
X14267D01*
X13933Y48165D02*
X14267D01*
X13933Y47515D02*
Y48165D01*
X14267Y47515D02*
Y48165D01*
X17635Y46123D02*
Y46457D01*
X18285Y46123D02*
Y46457D01*
X17635D02*
X18285D01*
X17635Y46123D02*
X18285D01*
X10026Y50859D02*
X10734D01*
X10026Y49521D02*
X10734D01*
Y50859D01*
X10026Y49521D02*
Y50859D01*
X13316Y54415D02*
Y55085D01*
X12844Y54415D02*
Y55085D01*
Y54415D02*
X13316D01*
X12844Y55085D02*
X13316D01*
X11816Y54425D02*
Y55095D01*
X11344Y54425D02*
Y55095D01*
Y54425D02*
X11816D01*
X11344Y55095D02*
X11816D01*
X12905Y60753D02*
Y61087D01*
X12255Y60753D02*
Y61087D01*
Y60753D02*
X12905D01*
X12255Y61087D02*
X12905D01*
X10353Y53955D02*
X10687D01*
X10353Y54605D02*
X10687D01*
X10353Y53955D02*
Y54605D01*
X10687Y53955D02*
Y54605D01*
X9175Y54413D02*
Y54747D01*
X9825Y54413D02*
Y54747D01*
X9175D02*
X9825D01*
X9175Y54413D02*
X9825D01*
X18683Y48275D02*
X19017D01*
X18683Y48925D02*
X19017D01*
X18683Y48275D02*
Y48925D01*
X19017Y48275D02*
Y48925D01*
X11083Y46035D02*
X11417D01*
X11083Y46685D02*
X11417D01*
X11083Y46035D02*
Y46685D01*
X11417Y46035D02*
Y46685D01*
X10593Y46035D02*
X10927D01*
X10593Y46685D02*
X10927D01*
X10593Y46035D02*
Y46685D01*
X10927Y46035D02*
Y46685D01*
X10083Y46035D02*
X10417D01*
X10083Y46685D02*
X10417D01*
X10083Y46035D02*
Y46685D01*
X10417Y46035D02*
Y46685D01*
X9593Y46035D02*
X9927D01*
X9593Y46685D02*
X9927D01*
X9593Y46035D02*
Y46685D01*
X9927Y46035D02*
Y46685D01*
X9103Y46035D02*
X9437D01*
X9103Y46685D02*
X9437D01*
X9103Y46035D02*
Y46685D01*
X9437Y46035D02*
Y46685D01*
X8593Y46035D02*
X8927D01*
X8593Y46685D02*
X8927D01*
X8593Y46035D02*
Y46685D01*
X8927Y46035D02*
Y46685D01*
X463Y58025D02*
X797D01*
X463Y57375D02*
X797D01*
Y58025D01*
X463Y57375D02*
Y58025D01*
X1213D02*
X1547D01*
X1213Y57375D02*
X1547D01*
Y58025D01*
X1213Y57375D02*
Y58025D01*
X1983D02*
X2317D01*
X1983Y57375D02*
X2317D01*
Y58025D01*
X1983Y57375D02*
Y58025D01*
X6733Y57498D02*
Y60942D01*
X8307Y57498D02*
Y60942D01*
X6733D02*
X8307D01*
X6733Y57498D02*
X8307D01*
X4503Y60085D02*
X4837D01*
X4503Y60735D02*
X4837D01*
X4503Y60085D02*
Y60735D01*
X4837Y60085D02*
Y60735D01*
X5143Y60085D02*
X5477D01*
X5143Y60735D02*
X5477D01*
X5143Y60085D02*
Y60735D01*
X5477Y60085D02*
Y60735D01*
X4284Y55533D02*
X4836D01*
X4284Y54667D02*
X4836D01*
Y55533D01*
X4284Y54667D02*
Y55533D01*
X3493Y55415D02*
X3827D01*
X3493Y54765D02*
X3827D01*
Y55415D01*
X3493Y54765D02*
Y55415D01*
X2983D02*
X3317D01*
X2983Y54765D02*
X3317D01*
Y55415D01*
X2983Y54765D02*
Y55415D01*
X1843Y55355D02*
X2177D01*
X1843Y54705D02*
X2177D01*
Y55355D01*
X1843Y54705D02*
Y55355D01*
X2045Y47783D02*
Y48117D01*
X1395Y47783D02*
Y48117D01*
Y47783D02*
X2045D01*
X1395Y48117D02*
X2045D01*
X7375Y52373D02*
Y52707D01*
X8025Y52373D02*
Y52707D01*
X7375D02*
X8025D01*
X7375Y52373D02*
X8025D01*
X10057Y72929D02*
G03*
X10057Y72929I-197J0D01*
G01*
X3944Y76235D02*
G03*
X3944Y76235I-197J0D01*
G01*
X16642Y78912D02*
G03*
X16642Y78912I-197J0D01*
G01*
X9486Y69366D02*
Y73303D01*
X13423Y69366D02*
Y73303D01*
X9486D02*
X13423D01*
X9486Y69366D02*
X13423D01*
X11937Y81845D02*
Y82495D01*
X11603Y81845D02*
Y82495D01*
X11937D01*
X11603Y81845D02*
X11937D01*
X11603Y83005D02*
Y83655D01*
X11937Y83005D02*
Y83655D01*
X11603Y83005D02*
X11937D01*
X11603Y83655D02*
X11937D01*
X9023Y83005D02*
Y83655D01*
X9357Y83005D02*
Y83655D01*
X9023Y83005D02*
X9357D01*
X9023Y83655D02*
X9357D01*
X10015Y84057D02*
X10665D01*
X10015Y83723D02*
X10665D01*
X10015D02*
Y84057D01*
X10665Y83723D02*
Y84057D01*
X7913Y81835D02*
Y82485D01*
X8247Y81835D02*
Y82485D01*
X7913Y81835D02*
X8247D01*
X7913Y82485D02*
X8247D01*
X7913Y82985D02*
Y83635D01*
X8247Y82985D02*
Y83635D01*
X7913Y82985D02*
X8247D01*
X7913Y83635D02*
X8247D01*
X3913Y80945D02*
Y81595D01*
X4247Y80945D02*
Y81595D01*
X3913Y80945D02*
X4247D01*
X3913Y81595D02*
X4247D01*
X5185Y80187D02*
X5835D01*
X5185Y79853D02*
X5835D01*
X5185D02*
Y80187D01*
X5835Y79853D02*
Y80187D01*
X6575Y79843D02*
X7225D01*
X6575Y80177D02*
X7225D01*
Y79843D02*
Y80177D01*
X6575Y79843D02*
Y80177D01*
X4247Y82145D02*
Y82795D01*
X3913Y82145D02*
Y82795D01*
X4247D01*
X3913Y82145D02*
X4247D01*
X4742Y80627D02*
Y83343D01*
X7458Y80627D02*
Y83343D01*
X4742D02*
X7458D01*
X4742Y80627D02*
X7458D01*
X6025Y83793D02*
X6675D01*
X6025Y84127D02*
X6675D01*
Y83793D02*
Y84127D01*
X6025Y83793D02*
Y84127D01*
X4775D02*
X5425D01*
X4775Y83793D02*
X5425D01*
X4775D02*
Y84127D01*
X5425Y83793D02*
Y84127D01*
X8247Y80655D02*
Y81305D01*
X7913Y80655D02*
Y81305D01*
X8247D01*
X7913Y80655D02*
X8247D01*
X6045Y76523D02*
Y76857D01*
X6695Y76523D02*
Y76857D01*
X6045D02*
X6695D01*
X6045Y76523D02*
X6695D01*
X6045Y76023D02*
Y76357D01*
X6695Y76023D02*
Y76357D01*
X6045D02*
X6695D01*
X6045Y76023D02*
X6695D01*
X4355Y71743D02*
Y72077D01*
X5005Y71743D02*
Y72077D01*
X4355D02*
X5005D01*
X4355Y71743D02*
X5005D01*
X4355Y72223D02*
Y72557D01*
X5005Y72223D02*
Y72557D01*
X4355Y72223D02*
X5005D01*
X4355Y72557D02*
X5005D01*
X1745Y76713D02*
Y77047D01*
X2395Y76713D02*
Y77047D01*
X1745D02*
X2395D01*
X1745Y76713D02*
X2395D01*
X1735Y76213D02*
Y76547D01*
X2385Y76213D02*
Y76547D01*
X1735D02*
X2385D01*
X1735Y76213D02*
X2385D01*
X1695Y75243D02*
Y75577D01*
X2345Y75243D02*
Y75577D01*
X1695D02*
X2345D01*
X1695Y75243D02*
X2345D01*
X1695Y74763D02*
Y75097D01*
X2345Y74763D02*
Y75097D01*
X1695D02*
X2345D01*
X1695Y74763D02*
X2345D01*
X1705Y74163D02*
Y74497D01*
X2355Y74163D02*
Y74497D01*
X1705D02*
X2355D01*
X1705Y74163D02*
X2355D01*
X1705Y73683D02*
Y74017D01*
X2355Y73683D02*
Y74017D01*
X1705D02*
X2355D01*
X1705Y73683D02*
X2355D01*
X1725Y72983D02*
Y73317D01*
X2375Y72983D02*
Y73317D01*
X1725D02*
X2375D01*
X1725Y72983D02*
X2375D01*
X1745Y72503D02*
Y72837D01*
X2395Y72503D02*
Y72837D01*
X1745D02*
X2395D01*
X1745Y72503D02*
X2395D01*
X3095Y77313D02*
Y77647D01*
X3745Y77313D02*
Y77647D01*
X3095D02*
X3745D01*
X3095Y77313D02*
X3745D01*
Y76813D02*
Y77147D01*
X3095Y76813D02*
Y77147D01*
Y76813D02*
X3745D01*
X3095Y77147D02*
X3745D01*
X4345Y77313D02*
Y77647D01*
X4995Y77313D02*
Y77647D01*
X4345D02*
X4995D01*
X4345Y77313D02*
X4995D01*
Y76813D02*
Y77147D01*
X4345Y76813D02*
Y77147D01*
Y76813D02*
X4995D01*
X4345Y77147D02*
X4995D01*
X3374Y72751D02*
X5066D01*
X3374Y76609D02*
X5066D01*
Y72751D02*
Y76609D01*
X3374Y72751D02*
Y76609D01*
X6045Y75113D02*
Y75447D01*
X6695Y75113D02*
Y75447D01*
X6045D02*
X6695D01*
X6045Y75113D02*
X6695D01*
X6045Y74613D02*
Y74947D01*
X6695Y74613D02*
Y74947D01*
X6045D02*
X6695D01*
X6045Y74613D02*
X6695D01*
X6045Y74133D02*
Y74467D01*
X6695Y74133D02*
Y74467D01*
X6045D02*
X6695D01*
X6045Y74133D02*
X6695D01*
X6045Y73653D02*
Y73987D01*
X6695Y73653D02*
Y73987D01*
X6045D02*
X6695D01*
X6045Y73653D02*
X6695D01*
X6045Y72873D02*
Y73207D01*
X6695Y72873D02*
Y73207D01*
X6045D02*
X6695D01*
X6045Y72873D02*
X6695D01*
X6045Y72393D02*
Y72727D01*
X6695Y72393D02*
Y72727D01*
X6045D02*
X6695D01*
X6045Y72393D02*
X6695D01*
X5005Y72223D02*
Y72557D01*
X4355Y72223D02*
Y72557D01*
Y72223D02*
X5005D01*
X4355Y72557D02*
X5005D01*
X3055Y72233D02*
Y72567D01*
X3705Y72233D02*
Y72567D01*
X3055D02*
X3705D01*
X3055Y72233D02*
X3705D01*
X3705Y71753D02*
Y72087D01*
X3055Y71753D02*
Y72087D01*
Y71753D02*
X3705D01*
X3055Y72087D02*
X3705D01*
X3165Y77313D02*
Y77647D01*
X3815Y77313D02*
Y77647D01*
X3165Y77313D02*
X3815D01*
X3165Y77647D02*
X3815D01*
Y76813D02*
Y77147D01*
X3165Y76813D02*
Y77147D01*
X3815D01*
X3165Y76813D02*
X3815D01*
X4345Y77313D02*
Y77647D01*
X4995Y77313D02*
Y77647D01*
X4345Y77313D02*
X4995D01*
X4345Y77647D02*
X4995D01*
Y76813D02*
Y77147D01*
X4345Y76813D02*
Y77147D01*
X4995D01*
X4345Y76813D02*
X4995D01*
X5445Y75643D02*
Y75977D01*
X6095Y75643D02*
Y75977D01*
X5445Y75643D02*
X6095D01*
X5445Y75977D02*
X6095D01*
X5445Y74613D02*
Y74947D01*
X6095Y74613D02*
Y74947D01*
X5445Y74613D02*
X6095D01*
X5445Y74947D02*
X6095D01*
X5445Y72533D02*
Y72867D01*
X6095Y72533D02*
Y72867D01*
X5445Y72533D02*
X6095D01*
X5445Y72867D02*
X6095D01*
X5445Y71733D02*
Y72067D01*
X6095Y71733D02*
Y72067D01*
X5445Y71733D02*
X6095D01*
X5445Y72067D02*
X6095D01*
X3055Y71753D02*
Y72087D01*
X3705Y71753D02*
Y72087D01*
X3055Y71753D02*
X3705D01*
X3055Y72087D02*
X3705D01*
Y72233D02*
Y72567D01*
X3055Y72233D02*
Y72567D01*
X3705D01*
X3055Y72233D02*
X3705D01*
X5445Y73533D02*
Y73867D01*
X6095Y73533D02*
Y73867D01*
X5445Y73533D02*
X6095D01*
X5445Y73867D02*
X6095D01*
X1485Y72713D02*
Y73047D01*
X2135Y72713D02*
Y73047D01*
X1485Y72713D02*
X2135D01*
X1485Y73047D02*
X2135D01*
X1745Y75243D02*
Y75577D01*
X2395Y75243D02*
Y75577D01*
X1745Y75243D02*
X2395D01*
X1745Y75577D02*
X2395D01*
X5005Y71743D02*
Y72077D01*
X4355Y71743D02*
Y72077D01*
X5005D01*
X4355Y71743D02*
X5005D01*
X12961Y77594D02*
Y79286D01*
X16819Y77594D02*
Y79286D01*
X12961Y77594D02*
X16819D01*
X12961Y79286D02*
X16819D01*
X11953Y78305D02*
X12287D01*
X11953Y77655D02*
X12287D01*
Y78305D01*
X11953Y77655D02*
Y78305D01*
X12713Y80915D02*
X13047D01*
X12713Y80265D02*
X13047D01*
Y80915D01*
X12713Y80265D02*
Y80915D01*
X12603Y76615D02*
X12937D01*
X12603Y75965D02*
X12937D01*
Y76615D01*
X12603Y75965D02*
Y76615D01*
X13083D02*
X13417D01*
X13083Y75965D02*
X13417D01*
Y76615D01*
X13083Y75965D02*
Y76615D01*
X12433Y78305D02*
X12767D01*
X12433Y77655D02*
X12767D01*
X12433D02*
Y78305D01*
X12767Y77655D02*
Y78305D01*
X13193Y80915D02*
X13527D01*
X13193Y80265D02*
X13527D01*
Y80915D01*
X13193Y80265D02*
Y80915D01*
X11963Y79605D02*
X12297D01*
X11963Y78955D02*
X12297D01*
X11963D02*
Y79605D01*
X12297Y78955D02*
Y79605D01*
X13893Y80915D02*
X14227D01*
X13893Y80265D02*
X14227D01*
Y80915D01*
X13893Y80265D02*
Y80915D01*
X13863Y76615D02*
X14197D01*
X13863Y75965D02*
X14197D01*
Y76615D01*
X13863Y75965D02*
Y76615D01*
X14343D02*
X14677D01*
X14343Y75965D02*
X14677D01*
Y76615D01*
X14343Y75965D02*
Y76615D01*
X12443Y79605D02*
X12777D01*
X12443Y78955D02*
X12777D01*
Y79605D01*
X12443Y78955D02*
Y79605D01*
X14373Y80915D02*
X14707D01*
X14373Y80265D02*
X14707D01*
Y80915D01*
X14373Y80265D02*
Y80915D01*
X17523Y79565D02*
X17857D01*
X17523Y78915D02*
X17857D01*
Y79565D01*
X17523Y78915D02*
Y79565D01*
X14973Y80915D02*
X15307D01*
X14973Y80265D02*
X15307D01*
Y80915D01*
X14973Y80265D02*
Y80915D01*
X14823Y76615D02*
X15157D01*
X14823Y75965D02*
X15157D01*
Y76615D01*
X14823Y75965D02*
Y76615D01*
X15323D02*
X15657D01*
X15323Y75965D02*
X15657D01*
Y76615D01*
X15323Y75965D02*
Y76615D01*
X17523Y79495D02*
X17857D01*
X17523Y78845D02*
X17857D01*
X17523D02*
Y79495D01*
X17857Y78845D02*
Y79495D01*
X15453Y80915D02*
X15787D01*
X15453Y80265D02*
X15787D01*
Y80915D01*
X15453Y80265D02*
Y80915D01*
X17523Y78315D02*
X17857D01*
X17523Y77665D02*
X17857D01*
X17523D02*
Y78315D01*
X17857Y77665D02*
Y78315D01*
X16423Y80915D02*
X16757D01*
X16423Y80265D02*
X16757D01*
Y80915D01*
X16423Y80265D02*
Y80915D01*
X16233Y76615D02*
X16567D01*
X16233Y75965D02*
X16567D01*
Y76615D01*
X16233Y75965D02*
Y76615D01*
X16733D02*
X17067D01*
X16733Y75965D02*
X17067D01*
Y76615D01*
X16733Y75965D02*
Y76615D01*
X17523Y78315D02*
X17857D01*
X17523Y77665D02*
X17857D01*
Y78315D01*
X17523Y77665D02*
Y78315D01*
X16923Y80915D02*
X17257D01*
X16923Y80265D02*
X17257D01*
Y80915D01*
X16923Y80265D02*
Y80915D01*
X12433Y77655D02*
X12767D01*
X12433Y78305D02*
X12767D01*
X12433Y77655D02*
Y78305D01*
X12767Y77655D02*
Y78305D01*
X14823Y77215D02*
X15157D01*
X14823Y76565D02*
X15157D01*
X14823D02*
Y77215D01*
X15157Y76565D02*
Y77215D01*
X13743D02*
X14077D01*
X13743Y76565D02*
X14077D01*
X13743D02*
Y77215D01*
X14077Y76565D02*
Y77215D01*
X11943D02*
X12277D01*
X11943Y76565D02*
X12277D01*
X11943D02*
Y77215D01*
X12277Y76565D02*
Y77215D01*
X12743D02*
X13077D01*
X12743Y76565D02*
X13077D01*
X12743D02*
Y77215D01*
X13077Y76565D02*
Y77215D01*
X15853D02*
X16187D01*
X15853Y76565D02*
X16187D01*
X15853D02*
Y77215D01*
X16187Y76565D02*
Y77215D01*
X11953Y77655D02*
X12287D01*
X11953Y78305D02*
X12287D01*
Y77655D02*
Y78305D01*
X11953Y77655D02*
Y78305D01*
X12443Y78955D02*
X12777D01*
X12443Y79605D02*
X12777D01*
Y78955D02*
Y79605D01*
X12443Y78955D02*
Y79605D01*
X12923Y81175D02*
X13257D01*
X12923Y80525D02*
X13257D01*
X12923D02*
Y81175D01*
X13257Y80525D02*
Y81175D01*
X11963Y78955D02*
X12297D01*
X11963Y79605D02*
X12297D01*
X11963Y78955D02*
Y79605D01*
X12297Y78955D02*
Y79605D01*
X17023Y78915D02*
X17357D01*
X17023Y79565D02*
X17357D01*
X17023Y78915D02*
Y79565D01*
X17357Y78915D02*
Y79565D01*
X17023Y78845D02*
X17357D01*
X17023Y79495D02*
X17357D01*
Y78845D02*
Y79495D01*
X17023Y78845D02*
Y79495D01*
Y77665D02*
X17357D01*
X17023Y78315D02*
X17357D01*
Y77665D02*
Y78315D01*
X17023Y77665D02*
Y78315D01*
X15453Y80915D02*
X15787D01*
X15453Y80265D02*
X15787D01*
X15453D02*
Y80915D01*
X15787Y80265D02*
Y80915D01*
X17023Y77665D02*
X17357D01*
X17023Y78315D02*
X17357D01*
X17023Y77665D02*
Y78315D01*
X17357Y77665D02*
Y78315D01*
X10233Y74225D02*
Y74875D01*
X10567Y74225D02*
Y74875D01*
X10233Y74225D02*
X10567D01*
X10233Y74875D02*
X10567D01*
X9175Y74417D02*
X9825D01*
X9175Y74083D02*
X9825D01*
X9175D02*
Y74417D01*
X9825Y74083D02*
Y74417D01*
X11197Y74235D02*
Y74885D01*
X10863Y74235D02*
Y74885D01*
X11197D01*
X10863Y74235D02*
X11197D01*
X8224Y79953D02*
X8756D01*
X8224Y79087D02*
X8756D01*
X8224D02*
Y79953D01*
X8756Y79087D02*
Y79953D01*
X2161Y65801D02*
Y67199D01*
X4739Y65801D02*
Y67199D01*
X2161Y65801D02*
X4739D01*
X2161Y67199D02*
X4739D01*
X15895Y69593D02*
X16545D01*
X15895Y69927D02*
X16545D01*
Y69593D02*
Y69927D01*
X15895Y69593D02*
Y69927D01*
X15435Y68627D02*
X16085D01*
X15435Y68293D02*
X16085D01*
X15435D02*
Y68627D01*
X16085Y68293D02*
Y68627D01*
X17015Y68293D02*
X17665D01*
X17015Y68627D02*
X17665D01*
Y68293D02*
Y68627D01*
X17015Y68293D02*
Y68627D01*
X15261Y65801D02*
Y67199D01*
X17839Y65801D02*
Y67199D01*
X15261Y65801D02*
X17839D01*
X15261Y67199D02*
X17839D01*
X2335Y68637D02*
X2985D01*
X2335Y68303D02*
X2985D01*
X2335D02*
Y68637D01*
X2985Y68303D02*
Y68637D01*
X3925Y68303D02*
X4575D01*
X3925Y68637D02*
X4575D01*
Y68303D02*
Y68637D01*
X3925Y68303D02*
Y68637D01*
X18803Y67055D02*
Y67705D01*
X19137Y67055D02*
Y67705D01*
X18803Y67055D02*
X19137D01*
X18803Y67705D02*
X19137D01*
X18587Y67055D02*
Y67705D01*
X18253Y67055D02*
Y67705D01*
X18587D01*
X18253Y67055D02*
X18587D01*
X15077D02*
Y67705D01*
X14743Y67055D02*
Y67705D01*
X15077D01*
X14743Y67055D02*
X15077D01*
X17707Y70095D02*
Y70745D01*
X17373Y70095D02*
Y70745D01*
X17707D01*
X17373Y70095D02*
X17707D01*
X5327Y78565D02*
Y79215D01*
X4993Y78565D02*
Y79215D01*
X5327D01*
X4993Y78565D02*
X5327D01*
X5473Y78555D02*
Y79205D01*
X5807Y78555D02*
Y79205D01*
X5473Y78555D02*
X5807D01*
X5473Y79205D02*
X5807D01*
X6195Y77747D02*
X6845D01*
X6195Y77413D02*
X6845D01*
X6195D02*
Y77747D01*
X6845Y77413D02*
Y77747D01*
X7853Y71955D02*
Y72605D01*
X8187Y71955D02*
Y72605D01*
X7853Y71955D02*
X8187D01*
X7853Y72605D02*
X8187D01*
X8413Y72605D02*
Y73255D01*
X8747Y72605D02*
Y73255D01*
X8413Y72605D02*
X8747D01*
X8413Y73255D02*
X8747D01*
X8373Y71205D02*
Y71855D01*
X8707Y71205D02*
Y71855D01*
X8373Y71205D02*
X8707D01*
X8373Y71855D02*
X8707D01*
X6000Y78266D02*
Y78974D01*
X7220Y78266D02*
Y78974D01*
X6000Y78266D02*
X7220D01*
X6000Y78974D02*
X7220D01*
X10103Y67705D02*
Y68355D01*
X10437Y67705D02*
Y68355D01*
X10103Y67705D02*
X10437D01*
X10103Y68355D02*
X10437D01*
X10937Y67705D02*
Y68355D01*
X10603Y67705D02*
Y68355D01*
X10937D01*
X10603Y67705D02*
X10937D01*
X16834Y70130D02*
Y71350D01*
X16126Y70130D02*
Y71350D01*
Y70130D02*
X16834D01*
X16126Y71350D02*
X16834D01*
X14173Y71205D02*
Y71855D01*
X14507Y71205D02*
Y71855D01*
X14173Y71205D02*
X14507D01*
X14173Y71855D02*
X14507D01*
X15027Y71935D02*
Y72585D01*
X14693Y71935D02*
Y72585D01*
X15027D01*
X14693Y71935D02*
X15027D01*
X14497Y72615D02*
Y73265D01*
X14163Y72615D02*
Y73265D01*
X14497D01*
X14163Y72615D02*
X14497D01*
X13125Y74377D02*
X13775D01*
X13125Y74043D02*
X13775D01*
X13125D02*
Y74377D01*
X13775Y74043D02*
Y74377D01*
X12157Y74235D02*
Y74885D01*
X11823Y74235D02*
Y74885D01*
X12157D01*
X11823Y74235D02*
X12157D01*
X12787D02*
Y74885D01*
X12453Y74235D02*
Y74885D01*
X12787D01*
X12453Y74235D02*
X12787D01*
X10603Y77515D02*
Y78165D01*
X10937Y77515D02*
Y78165D01*
X10603Y77515D02*
X10937D01*
X10603Y78165D02*
X10937D01*
X10933Y76045D02*
Y76695D01*
X11267Y76045D02*
Y76695D01*
X10933Y76045D02*
X11267D01*
X10933Y76695D02*
X11267D01*
X9705Y75973D02*
X10355D01*
X9705Y76307D02*
X10355D01*
Y75973D02*
Y76307D01*
X9705Y75973D02*
Y76307D01*
Y76463D02*
X10355D01*
X9705Y76797D02*
X10355D01*
Y76463D02*
Y76797D01*
X9705Y76463D02*
Y76797D01*
X8503Y77515D02*
Y78165D01*
X8837Y77515D02*
Y78165D01*
X8503Y77515D02*
X8837D01*
X8503Y78165D02*
X8837D01*
X9396Y78160D02*
X10104D01*
X9396Y76940D02*
X10104D01*
X9396D02*
Y78160D01*
X10104Y76940D02*
Y78160D01*
X9405Y78803D02*
X10055D01*
X9405Y79137D02*
X10055D01*
Y78803D02*
Y79137D01*
X9405Y78803D02*
Y79137D01*
Y78313D02*
X10055D01*
X9405Y78647D02*
X10055D01*
Y78313D02*
Y78647D01*
X9405Y78313D02*
Y78647D01*
X8577Y77235D02*
Y77885D01*
X8243Y77235D02*
Y77885D01*
Y77235D02*
X8577D01*
X8243Y77885D02*
X8577D01*
X9117Y77230D02*
Y77900D01*
X8743Y77230D02*
Y77900D01*
Y77230D02*
X9117D01*
X8743Y77900D02*
X9117D01*
X10905Y73893D02*
X11575D01*
X10905Y74267D02*
X11575D01*
X10905Y73893D02*
Y74267D01*
X11575Y73893D02*
Y74267D01*
X11641Y71735D02*
Y72405D01*
X11267Y71735D02*
Y72405D01*
Y71735D02*
X11641D01*
X11267Y72405D02*
X11641D01*
X12103Y70255D02*
Y70925D01*
X12477Y70255D02*
Y70925D01*
X12103D02*
X12477D01*
X12103Y70255D02*
X12477D01*
X11583Y69985D02*
Y70635D01*
X11917Y69985D02*
Y70635D01*
X11583D02*
X11917D01*
X11583Y69985D02*
X11917D01*
X10993D02*
Y70635D01*
X11327Y69985D02*
Y70635D01*
X10993D02*
X11327D01*
X10993Y69985D02*
X11327D01*
X10403Y70255D02*
Y70925D01*
X10777Y70255D02*
Y70925D01*
X10403D02*
X10777D01*
X10403Y70255D02*
X10777D01*
X10285Y81203D02*
X10935D01*
X10285Y81537D02*
X10935D01*
Y81203D02*
Y81537D01*
X10285Y81203D02*
Y81537D01*
X10925Y73363D02*
X11575D01*
X10925Y73697D02*
X11575D01*
X10925Y73363D02*
Y73697D01*
X11575Y73363D02*
Y73697D01*
X7525Y66153D02*
Y66487D01*
X6875Y66153D02*
Y66487D01*
Y66153D02*
X7525D01*
X6875Y66487D02*
X7525D01*
X16705Y66263D02*
Y66597D01*
X17355Y66263D02*
Y66597D01*
X16705Y66263D02*
X17355D01*
X16705Y66597D02*
X17355D01*
X5257Y31070D02*
G03*
X5257Y31070I-197J0D01*
G01*
X5059Y23860D02*
G03*
X5059Y23860I-197J0D01*
G01*
X14195Y32575D02*
G03*
X14195Y32575I-197J0D01*
G01*
X8850Y30263D02*
G03*
X8850Y30263I-197J0D01*
G01*
X7703Y29155D02*
Y29805D01*
X8037Y29155D02*
Y29805D01*
X7703Y29155D02*
X8037D01*
X7703Y29805D02*
X8037D01*
X7103Y29155D02*
Y29805D01*
X7437Y29155D02*
Y29805D01*
X7103Y29155D02*
X7437D01*
X7103Y29805D02*
X7437D01*
X4437Y33065D02*
Y33715D01*
X4103Y33065D02*
Y33715D01*
X4437D01*
X4103Y33065D02*
X4437D01*
X10945Y33913D02*
X11595D01*
X10945Y34247D02*
X11595D01*
Y33913D02*
Y34247D01*
X10945Y33913D02*
Y34247D01*
X4686Y30696D02*
Y32664D01*
X6654Y30696D02*
Y32664D01*
X4686Y30696D02*
X6654D01*
X4686Y32664D02*
X6654D01*
X5236Y23486D02*
Y25494D01*
X3464Y23486D02*
Y25494D01*
Y23486D02*
X5236D01*
X3464Y25494D02*
X5236D01*
X6183Y24365D02*
Y25015D01*
X6517Y24365D02*
Y25015D01*
X6183Y24365D02*
X6517D01*
X6183Y25015D02*
X6517D01*
X2317Y24565D02*
Y25215D01*
X1983Y24565D02*
Y25215D01*
X2317D01*
X1983Y24565D02*
X2317D01*
X12917Y32605D02*
Y33255D01*
X12583Y32605D02*
Y33255D01*
X12917D01*
X12583Y32605D02*
X12917D01*
X13624Y30351D02*
X15396D01*
X13624Y32949D02*
X15396D01*
Y30351D02*
Y32949D01*
X13624Y30351D02*
Y32949D01*
X11861Y29889D02*
Y33471D01*
X8279Y29889D02*
Y33471D01*
X11861D01*
X8279Y29889D02*
X11861D01*
X6183Y23155D02*
Y23805D01*
X6517Y23155D02*
Y23805D01*
X6183Y23155D02*
X6517D01*
X6183Y23805D02*
X6517D01*
X4265Y23247D02*
X4915D01*
X4265Y22913D02*
X4915D01*
X4265D02*
Y23247D01*
X4915Y22913D02*
Y23247D01*
X6437Y25555D02*
Y26205D01*
X6103Y25555D02*
Y26205D01*
X6437D01*
X6103Y25555D02*
X6437D01*
X15625Y30267D02*
X16275D01*
X15625Y29933D02*
X16275D01*
X15625D02*
Y30267D01*
X16275Y29933D02*
Y30267D01*
X11475Y29233D02*
X12125D01*
X11475Y29567D02*
X12125D01*
Y29233D02*
Y29567D01*
X11475Y29233D02*
Y29567D01*
X7637Y30555D02*
Y31205D01*
X7303Y30555D02*
Y31205D01*
X7637D01*
X7303Y30555D02*
X7637D01*
X2317Y23365D02*
Y24015D01*
X1983Y23365D02*
Y24015D01*
X2317D01*
X1983Y23365D02*
X2317D01*
X8535Y33973D02*
X9185D01*
X8535Y34307D02*
X9185D01*
Y33973D02*
Y34307D01*
X8535D02*
X8535Y33973D01*
X7297Y32615D02*
Y33265D01*
X6963Y32615D02*
Y33265D01*
X7297D01*
X6963Y32615D02*
X7297D01*
X12533Y31725D02*
X12867D01*
X12533Y31075D02*
X12867D01*
Y31725D01*
X12533Y31075D02*
Y31725D01*
X5325Y26733D02*
Y27067D01*
X4675Y26733D02*
Y27067D01*
Y26733D02*
X5325D01*
X4675Y27067D02*
X5325D01*
X16983Y23875D02*
X17317D01*
X16983Y24525D02*
X17317D01*
X16983Y23875D02*
Y24525D01*
X17317Y23875D02*
Y24525D01*
X18535Y38223D02*
Y38557D01*
X17885Y38223D02*
Y38557D01*
Y38223D02*
X18535D01*
X17885Y38557D02*
X18535D01*
X213Y37405D02*
X547D01*
X213Y36755D02*
X547D01*
Y37405D01*
X213Y36755D02*
Y37405D01*
X6425Y26733D02*
Y27067D01*
X5775Y26733D02*
Y27067D01*
Y26733D02*
X6425D01*
X5775Y27067D02*
X6425D01*
X16725Y23083D02*
Y23417D01*
X16075Y23083D02*
Y23417D01*
Y23083D02*
X16725D01*
X16075Y23417D02*
X16725D01*
X18535Y37623D02*
Y37957D01*
X17885Y37623D02*
Y37957D01*
Y37623D02*
X18535D01*
X17885Y37957D02*
X18535D01*
X813Y37405D02*
X1147D01*
X813Y36755D02*
X1147D01*
Y37405D01*
X813Y36755D02*
Y37405D01*
X5775Y32983D02*
Y33317D01*
X5125Y32983D02*
Y33317D01*
X5775D01*
X5125Y32983D02*
X5775D01*
X10167Y34725D02*
Y35375D01*
X9833Y34725D02*
Y35375D01*
X10167D01*
X9833Y34725D02*
X10167D01*
X10197Y12004D02*
G03*
X10197Y12004I-197J0D01*
G01*
X17495Y8296D02*
G03*
X17495Y8296I-197J0D01*
G01*
Y5996D02*
G03*
X17495Y5996I-197J0D01*
G01*
Y3646D02*
G03*
X17495Y3646I-197J0D01*
G01*
X14274Y8320D02*
G03*
X14274Y8320I-197J0D01*
G01*
Y6020D02*
G03*
X14274Y6020I-197J0D01*
G01*
Y3670D02*
G03*
X14274Y3670I-197J0D01*
G01*
X2066Y8266D02*
G03*
X2066Y8266I-197J0D01*
G01*
X2076Y17626D02*
G03*
X2076Y17626I-197J0D01*
G01*
X2066Y5966D02*
G03*
X2066Y5966I-197J0D01*
G01*
X2076Y15326D02*
G03*
X2076Y15326I-197J0D01*
G01*
X2066Y3616D02*
G03*
X2066Y3616I-197J0D01*
G01*
X2076Y12976D02*
G03*
X2076Y12976I-197J0D01*
G01*
X17495Y17636D02*
G03*
X17495Y17636I-197J0D01*
G01*
Y15336D02*
G03*
X17495Y15336I-197J0D01*
G01*
Y12986D02*
G03*
X17495Y12986I-197J0D01*
G01*
X14274Y17660D02*
G03*
X14274Y17660I-197J0D01*
G01*
Y15360D02*
G03*
X14274Y15360I-197J0D01*
G01*
Y13010D02*
G03*
X14274Y13010I-197J0D01*
G01*
X18318Y8296D02*
G03*
X18318Y8296I-197J0D01*
G01*
Y5996D02*
G03*
X18318Y5996I-197J0D01*
G01*
Y3646D02*
G03*
X18318Y3646I-197J0D01*
G01*
X18318Y17636D02*
G03*
X18318Y17636I-197J0D01*
G01*
Y15336D02*
G03*
X18318Y15336I-197J0D01*
G01*
Y12986D02*
G03*
X18318Y12986I-197J0D01*
G01*
X2888Y8266D02*
G03*
X2888Y8266I-197J0D01*
G01*
X2898Y17626D02*
G03*
X2898Y17626I-197J0D01*
G01*
X2888Y5966D02*
G03*
X2888Y5966I-197J0D01*
G01*
X2898Y15326D02*
G03*
X2898Y15326I-197J0D01*
G01*
X2888Y3616D02*
G03*
X2888Y3616I-197J0D01*
G01*
X2898Y12976D02*
G03*
X2898Y12976I-197J0D01*
G01*
X6030Y8290D02*
G03*
X6030Y8290I-197J0D01*
G01*
X6120Y17650D02*
G03*
X6120Y17650I-197J0D01*
G01*
X6030Y5990D02*
G03*
X6030Y5990I-197J0D01*
G01*
X6120Y15350D02*
G03*
X6120Y15350I-197J0D01*
G01*
X6030Y3640D02*
G03*
X6030Y3640I-197J0D01*
G01*
X6120Y13000D02*
G03*
X6120Y13000I-197J0D01*
G01*
X7913Y7655D02*
Y8305D01*
X8247Y7655D02*
Y8305D01*
X7913D02*
X8247D01*
X7913Y7655D02*
X8247D01*
X7467Y10000D02*
X10000Y7467D01*
X10000Y12533D02*
X12533Y10000D01*
X10000Y7467D02*
X12533Y10000D01*
X7467Y10000D02*
X10000Y12533D01*
X10852Y12431D02*
X11311Y11972D01*
X11089Y12668D02*
X11548Y12209D01*
X11311Y11972D02*
X11548Y12209D01*
X10852Y12431D02*
X11089Y12668D01*
X7309Y10542D02*
X7768Y11001D01*
X7072Y10779D02*
X7531Y11238D01*
X7768Y11001D01*
X7072Y10779D02*
X7309Y10542D01*
X10062Y6869D02*
X10521Y7328D01*
X10299Y6632D02*
X10758Y7091D01*
X10062Y6869D02*
X10299Y6632D01*
X10521Y7328D02*
X10758Y7091D01*
X7949Y8458D02*
X8408Y7999D01*
X7712Y8221D02*
X8171Y7762D01*
X7712Y8221D02*
X7949Y8458D01*
X8171Y7762D02*
X8408Y7999D01*
X12052Y8709D02*
X12511Y9168D01*
X12289Y8472D02*
X12748Y8931D01*
X12052Y8709D02*
X12289Y8472D01*
X12511Y9168D02*
X12748Y8931D01*
X16925Y6710D02*
X18495D01*
X16925Y8670D02*
X18495D01*
Y6710D02*
Y8670D01*
X16925Y6710D02*
Y8670D01*
Y4410D02*
X18495D01*
X16925Y6370D02*
X18495D01*
Y4410D02*
Y6370D01*
X16925Y4410D02*
Y6370D01*
Y2060D02*
X18495D01*
X16925Y4020D02*
X18495D01*
Y2060D02*
Y4020D01*
X16925Y2060D02*
Y4020D01*
X13723Y6706D02*
Y8674D01*
X15297Y6706D02*
Y8674D01*
X13723D02*
X15297D01*
X13723Y6706D02*
X15297D01*
X13723Y4406D02*
Y6374D01*
X15297Y4406D02*
Y6374D01*
X13723D02*
X15297D01*
X13723Y4406D02*
X15297D01*
X13723Y2056D02*
Y4024D01*
X15297Y2056D02*
Y4024D01*
X13723D02*
X15297D01*
X13723Y2056D02*
X15297D01*
X5893Y4465D02*
Y5115D01*
X6227Y4465D02*
Y5115D01*
X5893Y4465D02*
X6227D01*
X5893Y5115D02*
X6227D01*
X5983Y13825D02*
Y14475D01*
X6317Y13825D02*
Y14475D01*
X5983Y13825D02*
X6317D01*
X5983Y14475D02*
X6317D01*
X5883Y6755D02*
Y7405D01*
X6217Y6755D02*
Y7405D01*
X5883Y6755D02*
X6217D01*
X5883Y7405D02*
X6217D01*
X5973Y16115D02*
Y16765D01*
X6307Y16115D02*
Y16765D01*
X5973Y16115D02*
X6307D01*
X5973Y16765D02*
X6307D01*
X5883Y2155D02*
Y2805D01*
X6217Y2155D02*
Y2805D01*
X5883Y2155D02*
X6217D01*
X5883Y2805D02*
X6217D01*
X5973Y11515D02*
Y12165D01*
X6307Y11515D02*
Y12165D01*
X5973Y11515D02*
X6307D01*
X5973Y12165D02*
X6307D01*
X4233Y7425D02*
Y8075D01*
X4567Y7425D02*
Y8075D01*
X4233Y7425D02*
X4567D01*
X4233Y8075D02*
X4567D01*
X4323Y16785D02*
Y17435D01*
X4657Y16785D02*
Y17435D01*
X4323Y16785D02*
X4657D01*
X4323Y17435D02*
X4657D01*
X4233Y5155D02*
Y5805D01*
X4567Y5155D02*
Y5805D01*
X4233Y5155D02*
X4567D01*
X4233Y5805D02*
X4567D01*
X4323Y14515D02*
Y15165D01*
X4657Y14515D02*
Y15165D01*
X4323Y14515D02*
X4657D01*
X4323Y15165D02*
X4657D01*
X4253Y2795D02*
Y3445D01*
X4587Y2795D02*
Y3445D01*
X4253Y2795D02*
X4587D01*
X4253Y3445D02*
X4587D01*
X4343Y12155D02*
Y12805D01*
X4677Y12155D02*
Y12805D01*
X4343Y12155D02*
X4677D01*
X4343Y12805D02*
X4677D01*
X6363Y7335D02*
Y7985D01*
X6697Y7335D02*
Y7985D01*
X6363Y7335D02*
X6697D01*
X6363Y7985D02*
X6697D01*
X6453Y16695D02*
Y17345D01*
X6787Y16695D02*
Y17345D01*
X6453Y16695D02*
X6787D01*
X6453Y17345D02*
X6787D01*
X6373Y5025D02*
Y5675D01*
X6707Y5025D02*
Y5675D01*
X6373Y5025D02*
X6707D01*
X6373Y5675D02*
X6707D01*
X6463Y14385D02*
Y15035D01*
X6797Y14385D02*
Y15035D01*
X6463Y14385D02*
X6797D01*
X6463Y15035D02*
X6797D01*
X6363Y2665D02*
Y3315D01*
X6697Y2665D02*
Y3315D01*
X6363Y2665D02*
X6697D01*
X6363Y3315D02*
X6697D01*
X6453Y12025D02*
Y12675D01*
X6787Y12025D02*
Y12675D01*
X6453Y12025D02*
X6787D01*
X6453Y12675D02*
X6787D01*
X1495Y6680D02*
X3066D01*
X1495Y8640D02*
X3066D01*
Y6680D02*
Y8640D01*
X1495Y6680D02*
Y8640D01*
X1505Y16040D02*
X3076D01*
X1505Y18000D02*
X3076D01*
Y16040D02*
Y18000D01*
X1505Y16040D02*
Y18000D01*
X1495Y4380D02*
X3066D01*
X1495Y6340D02*
X3066D01*
Y4380D02*
Y6340D01*
X1495Y4380D02*
Y6340D01*
X1505Y13740D02*
X3076D01*
X1505Y15700D02*
X3076D01*
Y13740D02*
Y15700D01*
X1505Y13740D02*
Y15700D01*
X1495Y2030D02*
X3066D01*
X1495Y3990D02*
X3066D01*
Y2030D02*
Y3990D01*
X1495Y2030D02*
Y3990D01*
X1505Y11390D02*
X3076D01*
X1505Y13350D02*
X3076D01*
Y11390D02*
Y13350D01*
X1505Y11390D02*
Y13350D01*
X16924Y16050D02*
X18495D01*
X16924Y18010D02*
X18495D01*
Y16050D02*
Y18010D01*
X16924Y16050D02*
Y18010D01*
Y13750D02*
X18495D01*
X16924Y15710D02*
X18495D01*
Y13750D02*
Y15710D01*
X16924Y13750D02*
Y15710D01*
Y11400D02*
X18495D01*
X16924Y13360D02*
X18495D01*
Y11400D02*
Y13360D01*
X16924Y11400D02*
Y13360D01*
X4913Y6765D02*
Y7415D01*
X5247Y6765D02*
Y7415D01*
X4913Y6765D02*
X5247D01*
X4913Y7415D02*
X5247D01*
X5003Y16125D02*
Y16775D01*
X5337Y16125D02*
Y16775D01*
X5003Y16125D02*
X5337D01*
X5003Y16775D02*
X5337D01*
X4923Y4465D02*
Y5115D01*
X5257Y4465D02*
Y5115D01*
X4923Y4465D02*
X5257D01*
X4923Y5115D02*
X5257D01*
X5013Y13825D02*
Y14475D01*
X5347Y13825D02*
Y14475D01*
X5013Y13825D02*
X5347D01*
X5013Y14475D02*
X5347D01*
X4933Y2155D02*
Y2805D01*
X5267Y2155D02*
Y2805D01*
X4933Y2155D02*
X5267D01*
X4933Y2805D02*
X5267D01*
X5023Y11515D02*
Y12165D01*
X5357Y11515D02*
Y12165D01*
X5023Y11515D02*
X5357D01*
X5023Y12165D02*
X5357D01*
X5403Y4475D02*
Y5125D01*
X5737Y4475D02*
Y5125D01*
X5403Y4475D02*
X5737D01*
X5403Y5125D02*
X5737D01*
X5493Y13835D02*
Y14485D01*
X5827Y13835D02*
Y14485D01*
X5493Y13835D02*
X5827D01*
X5493Y14485D02*
X5827D01*
X7197Y9555D02*
Y10205D01*
X6863Y9555D02*
Y10205D01*
X7197D01*
X6863Y9555D02*
X7197D01*
X5403Y6765D02*
Y7415D01*
X5737Y6765D02*
Y7415D01*
X5403Y6765D02*
X5737D01*
X5403Y7415D02*
X5737D01*
X5493Y16125D02*
Y16775D01*
X5827Y16125D02*
Y16775D01*
X5493Y16125D02*
X5827D01*
X5493Y16775D02*
X5827D01*
X5413Y2155D02*
Y2805D01*
X5747Y2155D02*
Y2805D01*
X5413Y2155D02*
X5747D01*
X5413Y2805D02*
X5747D01*
X5503Y11515D02*
Y12165D01*
X5837Y11515D02*
Y12165D01*
X5503Y11515D02*
X5837D01*
X5503Y12165D02*
X5837D01*
X13722Y16046D02*
Y18014D01*
X15297Y16046D02*
Y18014D01*
X13722D02*
X15297D01*
X13722Y16046D02*
X15297D01*
X13722Y13746D02*
Y15714D01*
X15297Y13746D02*
Y15714D01*
X13722D02*
X15297D01*
X13722Y13746D02*
X15297D01*
X13722Y11396D02*
Y13364D01*
X15297Y11396D02*
Y13364D01*
X13722D02*
X15297D01*
X13722Y11396D02*
X15297D01*
X11992Y11341D02*
X12451Y10882D01*
X12229Y11578D02*
X12688Y11119D01*
X12451Y10882D02*
X12688Y11119D01*
X11992Y11341D02*
X12229Y11578D01*
X3120Y8880D02*
Y10580D01*
X6020Y8880D02*
Y10580D01*
X3120D02*
X6020D01*
X3120Y8880D02*
X6020D01*
X3530Y40D02*
Y1740D01*
X6430Y40D02*
Y1740D01*
X3530D02*
X6430D01*
X3530Y40D02*
X6430D01*
X13780Y9130D02*
Y10830D01*
X16680Y9130D02*
Y10830D01*
X13780D02*
X16680D01*
X13780Y9130D02*
X16680D01*
X17627Y9426D02*
X18493D01*
X17627Y8874D02*
X18493D01*
X17627D02*
Y9426D01*
X18493Y8874D02*
Y9426D01*
X1557Y10426D02*
X2423D01*
X1557Y9874D02*
X2423D01*
X1557D02*
Y10426D01*
X2423Y9874D02*
Y10426D01*
X15074Y687D02*
Y1553D01*
X15626Y687D02*
Y1553D01*
X15074Y687D02*
X15626D01*
X15074Y1553D02*
X15626D01*
X4387Y18374D02*
X5253D01*
X4387Y18926D02*
X5253D01*
Y18374D02*
Y18926D01*
X4387Y18374D02*
Y18926D01*
X14620Y18300D02*
Y20000D01*
X17520Y18300D02*
Y20000D01*
X14620D02*
X17520D01*
X14620Y18300D02*
X17520D01*
X13173Y9345D02*
Y9995D01*
X13507Y9345D02*
Y9995D01*
X13173Y9345D02*
X13507D01*
X13173Y9995D02*
X13507D01*
X13467Y10315D02*
Y10965D01*
X13133Y10315D02*
Y10965D01*
X13467D01*
X13133Y10315D02*
X13467D01*
X11217Y3085D02*
Y3735D01*
X10883Y3085D02*
Y3735D01*
Y3085D02*
X11217D01*
X10883Y3735D02*
X11217D01*
X10717Y3095D02*
Y3745D01*
X10383Y3095D02*
Y3745D01*
Y3095D02*
X10717D01*
X10383Y3745D02*
X10717D01*
X10217Y3105D02*
Y3755D01*
X9883Y3105D02*
Y3755D01*
Y3105D02*
X10217D01*
X9883Y3755D02*
X10217D01*
X9717Y3105D02*
Y3755D01*
X9383Y3105D02*
Y3755D01*
Y3105D02*
X9717D01*
X9383Y3755D02*
X9717D01*
X9217Y3105D02*
Y3755D01*
X8883Y3105D02*
Y3755D01*
Y3105D02*
X9217D01*
X8883Y3755D02*
X9217D01*
X8717Y3105D02*
Y3755D01*
X8383Y3105D02*
Y3755D01*
Y3105D02*
X8717D01*
X8383Y3755D02*
X8717D01*
X8217Y3105D02*
Y3755D01*
X7883Y3105D02*
Y3755D01*
Y3105D02*
X8217D01*
X7883Y3755D02*
X8217D01*
X7717Y3105D02*
Y3755D01*
X7383Y3105D02*
Y3755D01*
Y3105D02*
X7717D01*
X7383Y3755D02*
X7717D01*
X14027Y2185D02*
Y2835D01*
X13693Y2185D02*
Y2835D01*
Y2185D02*
X14027D01*
X13693Y2835D02*
X14027D01*
X15677Y7455D02*
Y8105D01*
X15343Y7455D02*
Y8105D01*
Y7455D02*
X15677D01*
X15343Y8105D02*
X15677D01*
X13547Y7365D02*
Y8015D01*
X13213Y7365D02*
Y8015D01*
Y7365D02*
X13547D01*
X13213Y8015D02*
X13547D01*
X16925Y6710D02*
X18495D01*
X16925Y8670D02*
X18495D01*
X16925Y6710D02*
Y8670D01*
X18495Y6710D02*
Y8670D01*
X16925Y4410D02*
X18495D01*
X16925Y6370D02*
X18495D01*
X16925Y4410D02*
Y6370D01*
X18495Y4410D02*
Y6370D01*
X16925Y2060D02*
X18495D01*
X16925Y4020D02*
X18495D01*
X16925Y2060D02*
Y4020D01*
X18495Y2060D02*
Y4020D01*
X14997Y6795D02*
Y7445D01*
X14663Y6795D02*
Y7445D01*
Y6795D02*
X14997D01*
X14663Y7445D02*
X14997D01*
X14497Y2185D02*
Y2835D01*
X14163Y2185D02*
Y2835D01*
Y2185D02*
X14497D01*
X14163Y2835D02*
X14497D01*
X14017Y4495D02*
Y5145D01*
X13683Y4495D02*
Y5145D01*
Y4495D02*
X14017D01*
X13683Y5145D02*
X14017D01*
X14017Y13835D02*
Y14485D01*
X13683Y13835D02*
Y14485D01*
Y13835D02*
X14017D01*
X13683Y14485D02*
X14017D01*
X14027Y6785D02*
Y7435D01*
X13693Y6785D02*
Y7435D01*
Y6785D02*
X14027D01*
X13693Y7435D02*
X14027D01*
X14027Y16125D02*
Y16775D01*
X13693Y16125D02*
Y16775D01*
Y16125D02*
X14027D01*
X13693Y16775D02*
X14027D01*
Y11525D02*
Y12175D01*
X13693Y11525D02*
Y12175D01*
Y11525D02*
X14027D01*
X13693Y12175D02*
X14027D01*
X15677Y16795D02*
Y17445D01*
X15343Y16795D02*
Y17445D01*
Y16795D02*
X15677D01*
X15343Y17445D02*
X15677D01*
X15677Y5185D02*
Y5835D01*
X15343Y5185D02*
Y5835D01*
Y5185D02*
X15677D01*
X15343Y5835D02*
X15677D01*
X15677Y14525D02*
Y15175D01*
X15343Y14525D02*
Y15175D01*
Y14525D02*
X15677D01*
X15343Y15175D02*
X15677D01*
X15657Y2825D02*
Y3475D01*
X15323Y2825D02*
Y3475D01*
Y2825D02*
X15657D01*
X15323Y3475D02*
X15657D01*
X15657Y12165D02*
Y12815D01*
X15323Y12165D02*
Y12815D01*
Y12165D02*
X15657D01*
X15323Y12815D02*
X15657D01*
X13547Y16705D02*
Y17355D01*
X13213Y16705D02*
Y17355D01*
Y16705D02*
X13547D01*
X13213Y17355D02*
X13547D01*
X13537Y5055D02*
Y5705D01*
X13203Y5055D02*
Y5705D01*
Y5055D02*
X13537D01*
X13203Y5705D02*
X13537D01*
X13537Y14395D02*
Y15045D01*
X13203Y14395D02*
Y15045D01*
Y14395D02*
X13537D01*
X13203Y15045D02*
X13537D01*
X13547Y2695D02*
Y3345D01*
X13213Y2695D02*
Y3345D01*
Y2695D02*
X13547D01*
X13213Y3345D02*
X13547D01*
X13547Y12035D02*
Y12685D01*
X13213Y12035D02*
Y12685D01*
Y12035D02*
X13547D01*
X13213Y12685D02*
X13547D01*
X16924Y16050D02*
X18495D01*
X16924Y18010D02*
X18495D01*
X16924Y16050D02*
Y18010D01*
X18495Y16050D02*
Y18010D01*
X16924Y13750D02*
X18495D01*
X16924Y15710D02*
X18495D01*
X16924Y13750D02*
Y15710D01*
X18495Y13750D02*
Y15710D01*
X16924Y11400D02*
X18495D01*
X16924Y13360D02*
X18495D01*
X16924Y11400D02*
Y13360D01*
X18495Y11400D02*
Y13360D01*
X1495Y6680D02*
X3066D01*
X1495Y8640D02*
X3066D01*
X1495Y6680D02*
Y8640D01*
X3066Y6680D02*
Y8640D01*
X1505Y16040D02*
X3076D01*
X1505Y18000D02*
X3076D01*
X1505Y16040D02*
Y18000D01*
X3076Y16040D02*
Y18000D01*
X1495Y4380D02*
X3066D01*
X1495Y6340D02*
X3066D01*
X1495Y4380D02*
Y6340D01*
X3066Y4380D02*
Y6340D01*
X1505Y13740D02*
X3076D01*
X1505Y15700D02*
X3076D01*
X1505Y13740D02*
Y15700D01*
X3076Y13740D02*
Y15700D01*
X1495Y2030D02*
X3066D01*
X1495Y3990D02*
X3066D01*
X1495Y2030D02*
Y3990D01*
X3066Y2030D02*
Y3990D01*
X1505Y11390D02*
X3076D01*
X1505Y13350D02*
X3076D01*
X1505Y11390D02*
Y13350D01*
X3076Y11390D02*
Y13350D01*
X14997Y16135D02*
Y16785D01*
X14663Y16135D02*
Y16785D01*
Y16135D02*
X14997D01*
X14663Y16785D02*
X14997D01*
X14987Y4495D02*
Y5145D01*
X14653Y4495D02*
Y5145D01*
Y4495D02*
X14987D01*
X14653Y5145D02*
X14987D01*
X14987Y13835D02*
Y14485D01*
X14653Y13835D02*
Y14485D01*
Y13835D02*
X14987D01*
X14653Y14485D02*
X14987D01*
X14977Y2185D02*
Y2835D01*
X14643Y2185D02*
Y2835D01*
Y2185D02*
X14977D01*
X14643Y2835D02*
X14977D01*
X14977Y11525D02*
Y12175D01*
X14643Y11525D02*
Y12175D01*
Y11525D02*
X14977D01*
X14643Y12175D02*
X14977D01*
X14507Y4505D02*
Y5155D01*
X14173Y4505D02*
Y5155D01*
Y4505D02*
X14507D01*
X14173Y5155D02*
X14507D01*
X14507Y13845D02*
Y14495D01*
X14173Y13845D02*
Y14495D01*
Y13845D02*
X14507D01*
X14173Y14495D02*
X14507D01*
X14507Y6795D02*
Y7445D01*
X14173Y6795D02*
Y7445D01*
Y6795D02*
X14507D01*
X14173Y7445D02*
X14507D01*
X14507Y16135D02*
Y16785D01*
X14173Y16135D02*
Y16785D01*
Y16135D02*
X14507D01*
X14173Y16785D02*
X14507D01*
X14497Y11525D02*
Y12175D01*
X14163Y11525D02*
Y12175D01*
Y11525D02*
X14497D01*
X14163Y12175D02*
X14497D01*
X6187Y6676D02*
Y8644D01*
X4613Y6676D02*
Y8644D01*
X6187D01*
X4613Y6676D02*
X6187D01*
X6277Y16036D02*
Y18004D01*
X4703Y16036D02*
Y18004D01*
X6277D01*
X4703Y16036D02*
X6277D01*
X6187Y4376D02*
Y6344D01*
X4613Y4376D02*
Y6344D01*
X6187D01*
X4613Y4376D02*
X6187D01*
X6277Y13736D02*
Y15704D01*
X4703Y13736D02*
Y15704D01*
X6277D01*
X4703Y13736D02*
X6277D01*
X6187Y2026D02*
Y3994D01*
X4613Y2026D02*
Y3994D01*
X6187D01*
X4613Y2026D02*
X6187D01*
X6277Y11386D02*
Y13354D01*
X4703Y11386D02*
Y13354D01*
X6277D01*
X4703Y11386D02*
X6277D01*
X5400Y18240D02*
Y19940D01*
X2500Y18240D02*
Y19940D01*
X5400D01*
X2500Y18240D02*
X5400D01*
X17617Y10476D02*
X18483D01*
X17617Y9924D02*
X18483D01*
Y10476D01*
X17617Y9924D02*
Y10476D01*
X1527Y9406D02*
X2393D01*
X1527Y8854D02*
X2393D01*
Y9406D01*
X1527Y8854D02*
Y9406D01*
X4886Y627D02*
Y1493D01*
X4334Y627D02*
Y1493D01*
Y627D02*
X4886D01*
X4334Y1493D02*
X4886D01*
X14747Y18434D02*
X15613D01*
X14747Y18986D02*
X15613D01*
X14747Y18434D02*
Y18986D01*
X15613Y18434D02*
Y18986D01*
X16420Y80D02*
Y1780D01*
X13520Y80D02*
Y1780D01*
X16420D01*
X13520Y80D02*
X16420D01*
D200*
X51930Y77855D02*
D03*
X53590Y70300D02*
D03*
X30430Y77855D02*
D03*
X32090Y70300D02*
D03*
X8930Y77855D02*
D03*
X10590Y70300D02*
D03*
D201*
X54530Y74080D02*
D03*
X33030D02*
D03*
X11530D02*
D03*
D202*
X54454Y72360D02*
D03*
X55290Y70300D02*
D03*
X32954Y72360D02*
D03*
X33790Y70300D02*
D03*
X11454Y72360D02*
D03*
X12290Y70300D02*
D03*
D203*
X46845Y9730D02*
D03*
X47255Y890D02*
D03*
X57505Y9980D02*
D03*
X58345Y19150D02*
D03*
X47675Y19090D02*
D03*
X58695Y930D02*
D03*
X25345Y9730D02*
D03*
X25755Y890D02*
D03*
X36005Y9980D02*
D03*
X36845Y19150D02*
D03*
X26175Y19090D02*
D03*
X37195Y930D02*
D03*
X3845Y9730D02*
D03*
X4255Y890D02*
D03*
X14505Y9980D02*
D03*
X15345Y19150D02*
D03*
X4675Y19090D02*
D03*
X15695Y930D02*
D03*
M02*
