%FSLAX23Y23*%
%MOIN*%
G70*
G01*
G75*
G04 Layer_Color=8388736*
%ADD10C,0.018*%
%ADD11R,0.031X0.037*%
%ADD12R,0.037X0.031*%
%ADD13C,0.010*%
%ADD14R,0.051X0.031*%
%ADD15O,0.087X0.024*%
%ADD16R,0.029X0.073*%
%ADD17R,0.039X0.039*%
%ADD18R,0.033X0.014*%
%ADD19R,0.033X0.014*%
G04:AMPARAMS|DCode=20|XSize=228mil|YSize=83mil|CornerRadius=21mil|HoleSize=0mil|Usage=FLASHONLY|Rotation=180.000|XOffset=0mil|YOffset=0mil|HoleType=Round|Shape=RoundedRectangle|*
%AMROUNDEDRECTD20*
21,1,0.228,0.041,0,0,180.0*
21,1,0.187,0.083,0,0,180.0*
1,1,0.041,-0.094,0.021*
1,1,0.041,0.094,0.021*
1,1,0.041,0.094,-0.021*
1,1,0.041,-0.094,-0.021*
%
%ADD20ROUNDEDRECTD20*%
%ADD21R,0.079X0.063*%
%ADD22R,0.110X0.055*%
%ADD23R,0.122X0.118*%
%ADD24O,0.014X0.065*%
%ADD25O,0.069X0.012*%
%ADD26O,0.012X0.069*%
%ADD27R,0.031X0.051*%
%ADD28O,0.022X0.071*%
%ADD29O,0.071X0.022*%
%ADD30R,0.039X0.039*%
%ADD31R,0.217X0.079*%
%ADD32C,0.012*%
%ADD33C,0.020*%
%ADD34C,0.025*%
%ADD35C,0.008*%
%ADD36C,0.035*%
%ADD37R,0.026X0.033*%
%ADD38R,0.045X0.024*%
%ADD39R,0.024X0.045*%
%ADD40R,0.026X0.087*%
%ADD41R,0.130X0.087*%
%ADD42R,0.053X0.020*%
%ADD43R,0.014X0.020*%
%ADD44R,0.020X0.014*%
%ADD45R,0.077X0.077*%
%ADD46R,0.287X0.287*%
%ADD47C,0.015*%
%ADD48C,0.006*%
%ADD49R,0.037X0.030*%
%ADD50R,0.030X0.037*%
%ADD51O,0.063X0.014*%
%ADD52R,0.047X0.022*%
%ADD53O,0.067X0.014*%
%ADD54R,0.301X0.301*%
%ADD55O,0.033X0.010*%
%ADD56O,0.010X0.033*%
%ADD57R,0.138X0.069*%
%ADD58R,0.098X0.069*%
%ADD59R,0.089X0.020*%
%ADD60R,0.031X0.035*%
%ADD61R,0.035X0.031*%
%ADD62R,0.035X0.030*%
%ADD63R,0.030X0.035*%
%ADD64C,0.030*%
%ADD65C,0.016*%
%ADD66R,0.091X0.142*%
G04:AMPARAMS|DCode=67|XSize=37mil|YSize=31mil|CornerRadius=0mil|HoleSize=0mil|Usage=FLASHONLY|Rotation=45.000|XOffset=0mil|YOffset=0mil|HoleType=Round|Shape=Rectangle|*
%AMROTATEDRECTD67*
4,1,4,-0.002,-0.024,-0.024,-0.002,0.002,0.024,0.024,0.002,-0.002,-0.024,0.0*
%
%ADD67ROTATEDRECTD67*%

%ADD68R,0.059X0.024*%
%ADD69R,0.031X0.031*%
G04:AMPARAMS|DCode=70|XSize=37mil|YSize=31mil|CornerRadius=0mil|HoleSize=0mil|Usage=FLASHONLY|Rotation=315.000|XOffset=0mil|YOffset=0mil|HoleType=Round|Shape=Rectangle|*
%AMROTATEDRECTD70*
4,1,4,-0.024,0.002,-0.002,0.024,0.024,-0.002,0.002,-0.024,-0.024,0.002,0.0*
%
%ADD70ROTATEDRECTD70*%

G04:AMPARAMS|DCode=71|XSize=10mil|YSize=33mil|CornerRadius=0mil|HoleSize=0mil|Usage=FLASHONLY|Rotation=45.000|XOffset=0mil|YOffset=0mil|HoleType=Round|Shape=Round|*
%AMOVALD71*
21,1,0.024,0.010,0.000,0.000,135.0*
1,1,0.010,0.008,-0.008*
1,1,0.010,-0.008,0.008*
%
%ADD71OVALD71*%

G04:AMPARAMS|DCode=72|XSize=10mil|YSize=33mil|CornerRadius=0mil|HoleSize=0mil|Usage=FLASHONLY|Rotation=315.000|XOffset=0mil|YOffset=0mil|HoleType=Round|Shape=Round|*
%AMOVALD72*
21,1,0.024,0.010,0.000,0.000,45.0*
1,1,0.010,-0.008,-0.008*
1,1,0.010,0.008,0.008*
%
%ADD72OVALD72*%

%ADD73P,0.426X4X360.0*%
%ADD74C,0.018*%
%ADD75C,0.025*%
%ADD76C,0.035*%
%ADD77C,0.096*%
%ADD78R,0.059X0.059*%
%ADD79C,0.059*%
%ADD80C,0.035*%
%ADD81C,0.050*%
%ADD82C,0.045*%
%ADD83R,0.059X0.059*%
%ADD84C,0.046*%
%ADD85R,0.060X0.060*%
%ADD86C,0.060*%
%ADD87R,0.060X0.060*%
%ADD88C,0.040*%
%ADD89C,0.030*%
%ADD90C,0.039*%
%ADD91C,0.032*%
%ADD92C,0.050*%
%ADD93R,6.414X0.076*%
%ADD94R,6.401X0.076*%
%ADD95R,6.406X0.061*%
%ADD96R,0.098X7.393*%
%ADD97R,0.315X0.039*%
%ADD98R,0.047X0.026*%
%ADD99C,0.024*%
%ADD100C,0.040*%
%ADD101R,0.201X0.018*%
%ADD102R,0.218X0.083*%
%ADD103R,0.026X0.047*%
%ADD104R,0.037X0.012*%
%ADD105R,0.012X0.037*%
%ADD106R,0.126X0.126*%
%ADD107R,0.022X0.047*%
%ADD108C,0.010*%
%ADD109C,0.008*%
%ADD110C,0.005*%
%ADD111C,0.020*%
%ADD112C,0.004*%
%ADD113C,0.006*%
%ADD114R,0.012X0.012*%
%ADD115R,0.014X0.014*%
%ADD116R,0.028X0.157*%
%ADD117P,0.019X4X360.0*%
%ADD118R,0.067X0.067*%
G04:AMPARAMS|DCode=119|XSize=67mil|YSize=67mil|CornerRadius=0mil|HoleSize=0mil|Usage=FLASHONLY|Rotation=315.000|XOffset=0mil|YOffset=0mil|HoleType=Round|Shape=Rectangle|*
%AMROTATEDRECTD119*
4,1,4,-0.047,0.000,-0.000,0.047,0.047,-0.000,0.000,-0.047,-0.047,0.000,0.0*
%
%ADD119ROTATEDRECTD119*%

%ADD120P,0.095X4X360.0*%
G04:AMPARAMS|DCode=121|XSize=67mil|YSize=67mil|CornerRadius=0mil|HoleSize=0mil|Usage=FLASHONLY|Rotation=315.000|XOffset=0mil|YOffset=0mil|HoleType=Round|Shape=Rectangle|*
%AMROTATEDRECTD121*
4,1,4,-0.047,-0.000,0.000,0.047,0.047,0.000,-0.000,-0.047,-0.047,-0.000,0.0*
%
%ADD121ROTATEDRECTD121*%

%ADD122P,0.095X4X360.0*%
%ADD123R,0.046X0.021*%
%ADD124O,0.032X0.008*%
%ADD125O,0.008X0.032*%
%ADD126R,0.132X0.063*%
%ADD127R,0.093X0.063*%
%ADD128R,0.083X0.014*%
%ADD129R,0.030X0.033*%
%ADD130R,0.033X0.030*%
%ADD131R,0.079X0.130*%
%ADD132R,0.030X0.030*%
G04:AMPARAMS|DCode=133|XSize=8mil|YSize=32mil|CornerRadius=0mil|HoleSize=0mil|Usage=FLASHONLY|Rotation=45.000|XOffset=0mil|YOffset=0mil|HoleType=Round|Shape=Round|*
%AMOVALD133*
21,1,0.024,0.008,0.000,0.000,135.0*
1,1,0.008,0.008,-0.008*
1,1,0.008,-0.008,0.008*
%
%ADD133OVALD133*%

G04:AMPARAMS|DCode=134|XSize=8mil|YSize=32mil|CornerRadius=0mil|HoleSize=0mil|Usage=FLASHONLY|Rotation=315.000|XOffset=0mil|YOffset=0mil|HoleType=Round|Shape=Round|*
%AMOVALD134*
21,1,0.024,0.008,0.000,0.000,45.0*
1,1,0.008,-0.008,-0.008*
1,1,0.008,0.008,0.008*
%
%ADD134OVALD134*%

%ADD135R,0.085X0.145*%
%ADD136R,0.130X0.090*%
%ADD137C,0.026*%
%ADD138O,0.095X0.032*%
%ADD139R,0.037X0.081*%
%ADD140R,0.047X0.047*%
%ADD141R,0.041X0.022*%
%ADD142R,0.041X0.022*%
G04:AMPARAMS|DCode=143|XSize=236mil|YSize=91mil|CornerRadius=23mil|HoleSize=0mil|Usage=FLASHONLY|Rotation=180.000|XOffset=0mil|YOffset=0mil|HoleType=Round|Shape=RoundedRectangle|*
%AMROUNDEDRECTD143*
21,1,0.236,0.045,0,0,180.0*
21,1,0.191,0.091,0,0,180.0*
1,1,0.045,-0.096,0.023*
1,1,0.045,0.096,0.023*
1,1,0.045,0.096,-0.023*
1,1,0.045,-0.096,-0.023*
%
%ADD143ROUNDEDRECTD143*%
%ADD144R,0.083X0.067*%
%ADD145R,0.130X0.126*%
%ADD146O,0.022X0.073*%
%ADD147O,0.077X0.020*%
%ADD148O,0.020X0.077*%
%ADD149O,0.030X0.079*%
%ADD150O,0.079X0.030*%
%ADD151R,0.047X0.047*%
%ADD152R,0.225X0.087*%
%ADD153R,0.022X0.028*%
%ADD154R,0.028X0.022*%
%ADD155R,0.081X0.081*%
%ADD156O,0.071X0.022*%
%ADD157O,0.075X0.022*%
%ADD158R,0.305X0.305*%
%ADD159O,0.035X0.011*%
%ADD160O,0.011X0.035*%
%ADD161R,0.091X0.022*%
%ADD162R,0.093X0.144*%
%ADD163R,0.061X0.026*%
%ADD164R,0.033X0.033*%
G04:AMPARAMS|DCode=165|XSize=11mil|YSize=35mil|CornerRadius=0mil|HoleSize=0mil|Usage=FLASHONLY|Rotation=45.000|XOffset=0mil|YOffset=0mil|HoleType=Round|Shape=Round|*
%AMOVALD165*
21,1,0.024,0.011,0.000,0.000,135.0*
1,1,0.011,0.008,-0.008*
1,1,0.011,-0.008,0.008*
%
%ADD165OVALD165*%

G04:AMPARAMS|DCode=166|XSize=11mil|YSize=35mil|CornerRadius=0mil|HoleSize=0mil|Usage=FLASHONLY|Rotation=315.000|XOffset=0mil|YOffset=0mil|HoleType=Round|Shape=Round|*
%AMOVALD166*
21,1,0.024,0.011,0.000,0.000,45.0*
1,1,0.011,-0.008,-0.008*
1,1,0.011,0.008,0.008*
%
%ADD166OVALD166*%

%ADD167P,0.432X4X360.0*%
%ADD168C,0.043*%
%ADD169C,0.104*%
%ADD170R,0.067X0.067*%
%ADD171C,0.067*%
%ADD172R,0.067X0.067*%
%ADD173C,0.067*%
%ADD174R,0.067X0.067*%
%ADD175C,0.048*%
%ADD176R,0.068X0.068*%
%ADD177C,0.068*%
%ADD178R,0.068X0.068*%
%ADD179R,0.067X0.067*%
%ADD180C,0.047*%
D11*
X6735Y5533D02*
D03*
X6795D02*
D03*
X6685D02*
D03*
X6625D02*
D03*
X6625Y5138D02*
D03*
X6565D02*
D03*
X6730D02*
D03*
X6670D02*
D03*
X6840D02*
D03*
X6780D02*
D03*
X6735Y6173D02*
D03*
X6795D02*
D03*
X6685D02*
D03*
X6625D02*
D03*
X6625Y5778D02*
D03*
X6565D02*
D03*
X6730D02*
D03*
X6670D02*
D03*
X6840D02*
D03*
X6780D02*
D03*
X6735Y6813D02*
D03*
X6795D02*
D03*
X6685D02*
D03*
X6625D02*
D03*
X6625Y6418D02*
D03*
X6565D02*
D03*
X6730D02*
D03*
X6670D02*
D03*
X6840D02*
D03*
X6780D02*
D03*
X6735Y7448D02*
D03*
X6795D02*
D03*
X6685D02*
D03*
X6625D02*
D03*
X6625Y7053D02*
D03*
X6565D02*
D03*
X6730D02*
D03*
X6670D02*
D03*
X6840D02*
D03*
X6780D02*
D03*
X6735Y2978D02*
D03*
X6795D02*
D03*
X6685D02*
D03*
X6625D02*
D03*
X6625Y2583D02*
D03*
X6565D02*
D03*
X6730D02*
D03*
X6670D02*
D03*
X6840D02*
D03*
X6780D02*
D03*
X6735Y3618D02*
D03*
X6795D02*
D03*
X6685D02*
D03*
X6625D02*
D03*
X6625Y3223D02*
D03*
X6565D02*
D03*
X6730D02*
D03*
X6670D02*
D03*
X6840D02*
D03*
X6780D02*
D03*
X6735Y4258D02*
D03*
X6795D02*
D03*
X6685D02*
D03*
X6625D02*
D03*
X6625Y3863D02*
D03*
X6565D02*
D03*
X6730D02*
D03*
X6670D02*
D03*
X6840D02*
D03*
X6780D02*
D03*
X6735Y4893D02*
D03*
X6795D02*
D03*
X6685D02*
D03*
X6625D02*
D03*
X6625Y4498D02*
D03*
X6565D02*
D03*
X6730D02*
D03*
X6670D02*
D03*
X6840D02*
D03*
X6780D02*
D03*
X5100Y5254D02*
D03*
X5040D02*
D03*
X4442Y4795D02*
D03*
X4502D02*
D03*
X5280Y5458D02*
D03*
X5220D02*
D03*
X5528Y6092D02*
D03*
X5588D02*
D03*
X6126Y4629D02*
D03*
X6066D02*
D03*
X5882Y4998D02*
D03*
X5822D02*
D03*
X4746Y4792D02*
D03*
X4806D02*
D03*
X4679D02*
D03*
X4619D02*
D03*
X5038Y5128D02*
D03*
X5098D02*
D03*
X5932Y5761D02*
D03*
X5872D02*
D03*
X5931Y5860D02*
D03*
X5871D02*
D03*
X5932Y5973D02*
D03*
X5872D02*
D03*
X5677Y6091D02*
D03*
X5737D02*
D03*
X5251Y5876D02*
D03*
X5311D02*
D03*
X4810Y5921D02*
D03*
X4870D02*
D03*
X5382Y5739D02*
D03*
X5442D02*
D03*
X4990Y6632D02*
D03*
X5050D02*
D03*
X5331Y8137D02*
D03*
X5391D02*
D03*
X5243Y7848D02*
D03*
X5303D02*
D03*
X5243Y7897D02*
D03*
X5303D02*
D03*
X5273Y7663D02*
D03*
X5333D02*
D03*
X5273Y7614D02*
D03*
X5333D02*
D03*
X5675Y7421D02*
D03*
X5615D02*
D03*
X4982Y7758D02*
D03*
X4922D02*
D03*
X4695Y6847D02*
D03*
X4755D02*
D03*
X4596D02*
D03*
X4536D02*
D03*
X6004Y6846D02*
D03*
X6064D02*
D03*
X5906D02*
D03*
X5846D02*
D03*
X5892Y6976D02*
D03*
X5952D02*
D03*
X5280Y7425D02*
D03*
X5220D02*
D03*
X4608Y7192D02*
D03*
X4668D02*
D03*
X4668Y7240D02*
D03*
X4608D02*
D03*
X4738Y7239D02*
D03*
X4798D02*
D03*
X4967Y7256D02*
D03*
X4907D02*
D03*
X4967Y7304D02*
D03*
X4907D02*
D03*
X4967Y7382D02*
D03*
X4907D02*
D03*
X4967Y7430D02*
D03*
X4907D02*
D03*
X4967Y7478D02*
D03*
X4907D02*
D03*
X4967Y7528D02*
D03*
X4907D02*
D03*
X4737Y7698D02*
D03*
X4797D02*
D03*
Y7748D02*
D03*
X4737D02*
D03*
X4612Y7698D02*
D03*
X4672D02*
D03*
Y7748D02*
D03*
X4612D02*
D03*
X4537Y7267D02*
D03*
X4477D02*
D03*
X4535Y7315D02*
D03*
X4475D02*
D03*
X4533Y7385D02*
D03*
X4473D02*
D03*
X4533Y7433D02*
D03*
X4473D02*
D03*
X4532Y7493D02*
D03*
X4472D02*
D03*
X4532Y7541D02*
D03*
X4472D02*
D03*
X4536Y7638D02*
D03*
X4476D02*
D03*
X4537Y7688D02*
D03*
X4477D02*
D03*
X4798Y7191D02*
D03*
X4738D02*
D03*
X4967Y7619D02*
D03*
X4907D02*
D03*
X4967Y7669D02*
D03*
X4907D02*
D03*
X4840Y8396D02*
D03*
X4780D02*
D03*
X4905D02*
D03*
X4965D02*
D03*
X4960Y8001D02*
D03*
X5020D02*
D03*
X4881Y8002D02*
D03*
X4821D02*
D03*
X5364Y8389D02*
D03*
X5304D02*
D03*
X2840Y6632D02*
D03*
X2900D02*
D03*
X3181Y8137D02*
D03*
X3241D02*
D03*
X3093Y7848D02*
D03*
X3153D02*
D03*
X3093Y7897D02*
D03*
X3153D02*
D03*
X3123Y7663D02*
D03*
X3183D02*
D03*
X3123Y7614D02*
D03*
X3183D02*
D03*
X3525Y7421D02*
D03*
X3465D02*
D03*
X2832Y7758D02*
D03*
X2772D02*
D03*
X2545Y6847D02*
D03*
X2605D02*
D03*
X2446D02*
D03*
X2386D02*
D03*
X3854Y6846D02*
D03*
X3914D02*
D03*
X3756D02*
D03*
X3696D02*
D03*
X3742Y6976D02*
D03*
X3802D02*
D03*
X3130Y7425D02*
D03*
X3070D02*
D03*
X2458Y7192D02*
D03*
X2518D02*
D03*
X2518Y7240D02*
D03*
X2458D02*
D03*
X2588Y7239D02*
D03*
X2648D02*
D03*
X2817Y7256D02*
D03*
X2757D02*
D03*
X2817Y7304D02*
D03*
X2757D02*
D03*
X2817Y7382D02*
D03*
X2757D02*
D03*
X2817Y7430D02*
D03*
X2757D02*
D03*
X2817Y7478D02*
D03*
X2757D02*
D03*
X2817Y7528D02*
D03*
X2757D02*
D03*
X2587Y7698D02*
D03*
X2647D02*
D03*
Y7748D02*
D03*
X2587D02*
D03*
X2462Y7698D02*
D03*
X2522D02*
D03*
Y7748D02*
D03*
X2462D02*
D03*
X2387Y7267D02*
D03*
X2327D02*
D03*
X2385Y7315D02*
D03*
X2325D02*
D03*
X2383Y7385D02*
D03*
X2323D02*
D03*
X2383Y7433D02*
D03*
X2323D02*
D03*
X2382Y7493D02*
D03*
X2322D02*
D03*
X2382Y7541D02*
D03*
X2322D02*
D03*
X2386Y7638D02*
D03*
X2326D02*
D03*
X2387Y7688D02*
D03*
X2327D02*
D03*
X2648Y7191D02*
D03*
X2588D02*
D03*
X2817Y7619D02*
D03*
X2757D02*
D03*
X2817Y7669D02*
D03*
X2757D02*
D03*
X2690Y8396D02*
D03*
X2630D02*
D03*
X2755D02*
D03*
X2815D02*
D03*
X2810Y8001D02*
D03*
X2870D02*
D03*
X2731Y8002D02*
D03*
X2671D02*
D03*
X3214Y8389D02*
D03*
X3154D02*
D03*
X2950Y5254D02*
D03*
X2890D02*
D03*
X2292Y4795D02*
D03*
X2352D02*
D03*
X3130Y5458D02*
D03*
X3070D02*
D03*
X3378Y6092D02*
D03*
X3438D02*
D03*
X3976Y4629D02*
D03*
X3916D02*
D03*
X3732Y4998D02*
D03*
X3672D02*
D03*
X2596Y4792D02*
D03*
X2656D02*
D03*
X2529D02*
D03*
X2469D02*
D03*
X2888Y5128D02*
D03*
X2948D02*
D03*
X3782Y5761D02*
D03*
X3722D02*
D03*
X3781Y5860D02*
D03*
X3721D02*
D03*
X3782Y5973D02*
D03*
X3722D02*
D03*
X3527Y6091D02*
D03*
X3587D02*
D03*
X3101Y5876D02*
D03*
X3161D02*
D03*
X2660Y5921D02*
D03*
X2720D02*
D03*
X3232Y5739D02*
D03*
X3292D02*
D03*
X6735Y2333D02*
D03*
X6795D02*
D03*
X6685D02*
D03*
X6625D02*
D03*
X6625Y1938D02*
D03*
X6565D02*
D03*
X6730D02*
D03*
X6670D02*
D03*
X6840D02*
D03*
X6780D02*
D03*
X6735Y1698D02*
D03*
X6795D02*
D03*
X6685D02*
D03*
X6625D02*
D03*
X6625Y1303D02*
D03*
X6565D02*
D03*
X6730D02*
D03*
X6670D02*
D03*
X6840D02*
D03*
X6780D02*
D03*
X6735Y1058D02*
D03*
X6795D02*
D03*
X6685D02*
D03*
X6625D02*
D03*
X6625Y663D02*
D03*
X6565D02*
D03*
X6730D02*
D03*
X6670D02*
D03*
X6840D02*
D03*
X6780D02*
D03*
X6735Y418D02*
D03*
X6795D02*
D03*
X6685D02*
D03*
X6625D02*
D03*
X6625Y23D02*
D03*
X6565D02*
D03*
X6730D02*
D03*
X6670D02*
D03*
X6840D02*
D03*
X6780D02*
D03*
X800Y5254D02*
D03*
X740D02*
D03*
X142Y4795D02*
D03*
X202D02*
D03*
X980Y5458D02*
D03*
X920D02*
D03*
X1228Y6092D02*
D03*
X1288D02*
D03*
X1826Y4629D02*
D03*
X1766D02*
D03*
X1582Y4998D02*
D03*
X1522D02*
D03*
X446Y4792D02*
D03*
X506D02*
D03*
X379D02*
D03*
X319D02*
D03*
X738Y5128D02*
D03*
X798D02*
D03*
X1632Y5761D02*
D03*
X1572D02*
D03*
X1631Y5860D02*
D03*
X1571D02*
D03*
X1632Y5973D02*
D03*
X1572D02*
D03*
X1377Y6091D02*
D03*
X1437D02*
D03*
X951Y5876D02*
D03*
X1011D02*
D03*
X510Y5921D02*
D03*
X570D02*
D03*
X1082Y5739D02*
D03*
X1142D02*
D03*
X690Y6632D02*
D03*
X750D02*
D03*
X1031Y8137D02*
D03*
X1091D02*
D03*
X943Y7848D02*
D03*
X1003D02*
D03*
X943Y7897D02*
D03*
X1003D02*
D03*
X973Y7663D02*
D03*
X1033D02*
D03*
X973Y7614D02*
D03*
X1033D02*
D03*
X1375Y7421D02*
D03*
X1315D02*
D03*
X682Y7758D02*
D03*
X622D02*
D03*
X395Y6847D02*
D03*
X455D02*
D03*
X296D02*
D03*
X236D02*
D03*
X1704Y6846D02*
D03*
X1764D02*
D03*
X1606D02*
D03*
X1546D02*
D03*
X1592Y6976D02*
D03*
X1652D02*
D03*
X980Y7425D02*
D03*
X920D02*
D03*
X308Y7192D02*
D03*
X368D02*
D03*
X368Y7240D02*
D03*
X308D02*
D03*
X438Y7239D02*
D03*
X498D02*
D03*
X667Y7256D02*
D03*
X607D02*
D03*
X667Y7304D02*
D03*
X607D02*
D03*
X667Y7382D02*
D03*
X607D02*
D03*
X667Y7430D02*
D03*
X607D02*
D03*
X667Y7478D02*
D03*
X607D02*
D03*
X667Y7528D02*
D03*
X607D02*
D03*
X437Y7698D02*
D03*
X497D02*
D03*
Y7748D02*
D03*
X437D02*
D03*
X312Y7698D02*
D03*
X372D02*
D03*
Y7748D02*
D03*
X312D02*
D03*
X237Y7267D02*
D03*
X177D02*
D03*
X235Y7315D02*
D03*
X175D02*
D03*
X233Y7385D02*
D03*
X173D02*
D03*
X233Y7433D02*
D03*
X173D02*
D03*
X232Y7493D02*
D03*
X172D02*
D03*
X232Y7541D02*
D03*
X172D02*
D03*
X236Y7638D02*
D03*
X176D02*
D03*
X237Y7688D02*
D03*
X177D02*
D03*
X498Y7191D02*
D03*
X438D02*
D03*
X667Y7619D02*
D03*
X607D02*
D03*
X667Y7669D02*
D03*
X607D02*
D03*
X540Y8396D02*
D03*
X480D02*
D03*
X605D02*
D03*
X665D02*
D03*
X660Y8001D02*
D03*
X720D02*
D03*
X581Y8002D02*
D03*
X521D02*
D03*
X1064Y8389D02*
D03*
X1004D02*
D03*
D12*
X6525Y5378D02*
D03*
Y5438D02*
D03*
Y5313D02*
D03*
Y5253D02*
D03*
X6920Y5353D02*
D03*
Y5293D02*
D03*
Y5428D02*
D03*
Y5488D02*
D03*
X6525Y6018D02*
D03*
Y6078D02*
D03*
Y5953D02*
D03*
Y5893D02*
D03*
X6920Y5993D02*
D03*
Y5933D02*
D03*
Y6068D02*
D03*
Y6128D02*
D03*
X6525Y6658D02*
D03*
Y6718D02*
D03*
Y6593D02*
D03*
Y6533D02*
D03*
X6920Y6633D02*
D03*
Y6573D02*
D03*
Y6708D02*
D03*
Y6768D02*
D03*
X6525Y7293D02*
D03*
Y7353D02*
D03*
Y7228D02*
D03*
Y7168D02*
D03*
X6920Y7268D02*
D03*
Y7208D02*
D03*
Y7343D02*
D03*
Y7403D02*
D03*
X6525Y2823D02*
D03*
Y2883D02*
D03*
Y2758D02*
D03*
Y2698D02*
D03*
X6920Y2798D02*
D03*
Y2738D02*
D03*
Y2873D02*
D03*
Y2933D02*
D03*
X6525Y3463D02*
D03*
Y3523D02*
D03*
Y3398D02*
D03*
Y3338D02*
D03*
X6920Y3438D02*
D03*
Y3378D02*
D03*
Y3513D02*
D03*
Y3573D02*
D03*
X6525Y4103D02*
D03*
Y4163D02*
D03*
Y4038D02*
D03*
Y3978D02*
D03*
X6920Y4078D02*
D03*
Y4018D02*
D03*
Y4153D02*
D03*
Y4213D02*
D03*
X6525Y4738D02*
D03*
Y4798D02*
D03*
Y4673D02*
D03*
Y4613D02*
D03*
X6920Y4713D02*
D03*
Y4653D02*
D03*
Y4788D02*
D03*
Y4848D02*
D03*
X4501Y5473D02*
D03*
Y5533D02*
D03*
X4615Y5479D02*
D03*
Y5539D02*
D03*
X4666Y5479D02*
D03*
Y5539D02*
D03*
X4831Y6071D02*
D03*
Y6011D02*
D03*
X4767Y6071D02*
D03*
Y6011D02*
D03*
X4515Y5740D02*
D03*
Y5800D02*
D03*
X4438Y5740D02*
D03*
Y5800D02*
D03*
X4363Y5740D02*
D03*
Y5800D02*
D03*
X5176Y4666D02*
D03*
Y4606D02*
D03*
X5227Y4666D02*
D03*
Y4606D02*
D03*
X5276Y4666D02*
D03*
Y4606D02*
D03*
X5325Y4666D02*
D03*
Y4606D02*
D03*
X5376Y4666D02*
D03*
Y4606D02*
D03*
X5425Y4666D02*
D03*
Y4606D02*
D03*
X6185Y4890D02*
D03*
Y4830D02*
D03*
X5352Y5458D02*
D03*
Y5398D02*
D03*
X5710Y4814D02*
D03*
Y4754D02*
D03*
X6185Y4697D02*
D03*
Y4757D02*
D03*
X5991Y5081D02*
D03*
Y5021D02*
D03*
X6068Y5079D02*
D03*
Y5019D02*
D03*
X5126Y4666D02*
D03*
Y4606D02*
D03*
X5474Y4666D02*
D03*
Y4606D02*
D03*
X4343Y5031D02*
D03*
Y5091D02*
D03*
X4876Y5471D02*
D03*
Y5531D02*
D03*
X5440Y6023D02*
D03*
Y5963D02*
D03*
X4769Y5759D02*
D03*
Y5819D02*
D03*
X4831Y5759D02*
D03*
Y5819D02*
D03*
X5245Y6134D02*
D03*
Y6074D02*
D03*
X5723Y5485D02*
D03*
Y5545D02*
D03*
X5425Y5793D02*
D03*
Y5853D02*
D03*
X5312Y5762D02*
D03*
Y5822D02*
D03*
X5251Y5762D02*
D03*
Y5822D02*
D03*
X4993Y6242D02*
D03*
Y6182D02*
D03*
X5109Y6243D02*
D03*
Y6183D02*
D03*
X5051Y6182D02*
D03*
Y6242D02*
D03*
X5694Y4400D02*
D03*
Y4460D02*
D03*
X5167Y7814D02*
D03*
Y7754D02*
D03*
X5410Y7667D02*
D03*
Y7607D02*
D03*
X5377Y7814D02*
D03*
Y7754D02*
D03*
X5562Y7426D02*
D03*
Y7486D02*
D03*
X5499Y7426D02*
D03*
Y7486D02*
D03*
X5733Y7264D02*
D03*
Y7324D02*
D03*
X5786Y7196D02*
D03*
Y7256D02*
D03*
X5734Y7183D02*
D03*
Y7123D02*
D03*
X5377Y6773D02*
D03*
Y6833D02*
D03*
X5327D02*
D03*
Y6773D02*
D03*
X5154Y7183D02*
D03*
Y7123D02*
D03*
X5158Y7323D02*
D03*
Y7263D02*
D03*
X5102Y7258D02*
D03*
Y7198D02*
D03*
X4864Y7918D02*
D03*
Y7858D02*
D03*
X4816Y7859D02*
D03*
Y7919D02*
D03*
X6054Y7012D02*
D03*
Y7072D02*
D03*
X5791Y6708D02*
D03*
Y6768D02*
D03*
X6142Y6708D02*
D03*
Y6768D02*
D03*
X6197D02*
D03*
Y6708D02*
D03*
X5403Y7426D02*
D03*
Y7486D02*
D03*
X5340Y7485D02*
D03*
Y7425D02*
D03*
X6019Y7829D02*
D03*
Y7769D02*
D03*
Y7954D02*
D03*
Y7894D02*
D03*
X5513Y7958D02*
D03*
Y7898D02*
D03*
X5560Y7828D02*
D03*
Y7768D02*
D03*
X6009Y8029D02*
D03*
Y8089D02*
D03*
X6069Y7769D02*
D03*
Y7829D02*
D03*
X5990Y7599D02*
D03*
Y7659D02*
D03*
X5940Y7599D02*
D03*
Y7659D02*
D03*
X5959Y8029D02*
D03*
Y8089D02*
D03*
X5862Y8029D02*
D03*
Y8089D02*
D03*
X5849Y7599D02*
D03*
Y7659D02*
D03*
X5799Y7599D02*
D03*
Y7659D02*
D03*
X5814Y8029D02*
D03*
Y8089D02*
D03*
X6069Y7894D02*
D03*
Y7954D02*
D03*
X5754Y8029D02*
D03*
Y8089D02*
D03*
X5561Y7898D02*
D03*
Y7958D02*
D03*
X5751Y7599D02*
D03*
Y7659D02*
D03*
X5703Y7599D02*
D03*
Y7659D02*
D03*
X5706Y8029D02*
D03*
Y8089D02*
D03*
X5636Y8029D02*
D03*
Y8089D02*
D03*
X5625Y7599D02*
D03*
Y7659D02*
D03*
X5577Y7599D02*
D03*
Y7659D02*
D03*
X5588Y8029D02*
D03*
Y8089D02*
D03*
X5512Y7768D02*
D03*
Y7828D02*
D03*
X5108Y8068D02*
D03*
Y8128D02*
D03*
X4708Y8217D02*
D03*
Y8277D02*
D03*
Y8157D02*
D03*
Y8097D02*
D03*
X5108Y8361D02*
D03*
Y8301D02*
D03*
Y8246D02*
D03*
Y8186D02*
D03*
X5219Y8363D02*
D03*
Y8303D02*
D03*
X5477Y8363D02*
D03*
Y8303D02*
D03*
Y8187D02*
D03*
Y8247D02*
D03*
X5630Y1034D02*
D03*
Y1094D02*
D03*
X5634Y997D02*
D03*
Y937D02*
D03*
X4867Y1214D02*
D03*
Y1154D02*
D03*
X4858Y278D02*
D03*
Y218D02*
D03*
X4866Y1675D02*
D03*
Y1615D02*
D03*
X4857Y739D02*
D03*
Y679D02*
D03*
X5003Y958D02*
D03*
Y1018D02*
D03*
X4866Y1446D02*
D03*
Y1386D02*
D03*
X4857Y510D02*
D03*
Y450D02*
D03*
X4819Y1214D02*
D03*
Y1154D02*
D03*
X4810Y278D02*
D03*
Y218D02*
D03*
X4818Y1445D02*
D03*
Y1385D02*
D03*
X4809Y509D02*
D03*
Y449D02*
D03*
X4817Y1675D02*
D03*
Y1615D02*
D03*
X4808Y739D02*
D03*
Y679D02*
D03*
X4962Y1265D02*
D03*
Y1205D02*
D03*
X4953Y329D02*
D03*
Y269D02*
D03*
X4963Y1501D02*
D03*
Y1441D02*
D03*
X4954Y565D02*
D03*
Y505D02*
D03*
X4962Y1732D02*
D03*
Y1672D02*
D03*
X4953Y796D02*
D03*
Y736D02*
D03*
X4751Y1278D02*
D03*
Y1218D02*
D03*
X4742Y342D02*
D03*
Y282D02*
D03*
X4749Y1514D02*
D03*
Y1454D02*
D03*
X4740Y578D02*
D03*
Y518D02*
D03*
X4749Y1741D02*
D03*
Y1681D02*
D03*
X4740Y805D02*
D03*
Y745D02*
D03*
X4914Y1214D02*
D03*
Y1154D02*
D03*
X4905Y278D02*
D03*
Y218D02*
D03*
X4914Y1674D02*
D03*
Y1614D02*
D03*
X4905Y738D02*
D03*
Y678D02*
D03*
X4915Y1445D02*
D03*
Y1385D02*
D03*
X4906Y509D02*
D03*
Y449D02*
D03*
X3480Y1034D02*
D03*
Y1094D02*
D03*
X3484Y997D02*
D03*
Y937D02*
D03*
X2717Y1214D02*
D03*
Y1154D02*
D03*
X2708Y278D02*
D03*
Y218D02*
D03*
X2716Y1675D02*
D03*
Y1615D02*
D03*
X2707Y739D02*
D03*
Y679D02*
D03*
X2853Y958D02*
D03*
Y1018D02*
D03*
X2716Y1446D02*
D03*
Y1386D02*
D03*
X2707Y510D02*
D03*
Y450D02*
D03*
X2669Y1214D02*
D03*
Y1154D02*
D03*
X2660Y278D02*
D03*
Y218D02*
D03*
X2668Y1445D02*
D03*
Y1385D02*
D03*
X2659Y509D02*
D03*
Y449D02*
D03*
X2667Y1675D02*
D03*
Y1615D02*
D03*
X2658Y739D02*
D03*
Y679D02*
D03*
X2812Y1265D02*
D03*
Y1205D02*
D03*
X2803Y329D02*
D03*
Y269D02*
D03*
X2813Y1501D02*
D03*
Y1441D02*
D03*
X2804Y565D02*
D03*
Y505D02*
D03*
X2812Y1732D02*
D03*
Y1672D02*
D03*
X2803Y796D02*
D03*
Y736D02*
D03*
X2601Y1278D02*
D03*
Y1218D02*
D03*
X2592Y342D02*
D03*
Y282D02*
D03*
X2599Y1514D02*
D03*
Y1454D02*
D03*
X2590Y578D02*
D03*
Y518D02*
D03*
X2599Y1741D02*
D03*
Y1681D02*
D03*
X2590Y805D02*
D03*
Y745D02*
D03*
X2764Y1214D02*
D03*
Y1154D02*
D03*
X2755Y278D02*
D03*
Y218D02*
D03*
X2764Y1674D02*
D03*
Y1614D02*
D03*
X2755Y738D02*
D03*
Y678D02*
D03*
X2765Y1445D02*
D03*
Y1385D02*
D03*
X2756Y509D02*
D03*
Y449D02*
D03*
X3017Y7814D02*
D03*
Y7754D02*
D03*
X3260Y7667D02*
D03*
Y7607D02*
D03*
X3227Y7814D02*
D03*
Y7754D02*
D03*
X3412Y7426D02*
D03*
Y7486D02*
D03*
X3349Y7426D02*
D03*
Y7486D02*
D03*
X3583Y7264D02*
D03*
Y7324D02*
D03*
X3636Y7196D02*
D03*
Y7256D02*
D03*
X3584Y7183D02*
D03*
Y7123D02*
D03*
X3227Y6773D02*
D03*
Y6833D02*
D03*
X3177D02*
D03*
Y6773D02*
D03*
X3004Y7183D02*
D03*
Y7123D02*
D03*
X3008Y7323D02*
D03*
Y7263D02*
D03*
X2952Y7258D02*
D03*
Y7198D02*
D03*
X2714Y7918D02*
D03*
Y7858D02*
D03*
X2666Y7859D02*
D03*
Y7919D02*
D03*
X3904Y7012D02*
D03*
Y7072D02*
D03*
X3641Y6708D02*
D03*
Y6768D02*
D03*
X3992Y6708D02*
D03*
Y6768D02*
D03*
X4047D02*
D03*
Y6708D02*
D03*
X3253Y7426D02*
D03*
Y7486D02*
D03*
X3190Y7485D02*
D03*
Y7425D02*
D03*
X3869Y7829D02*
D03*
Y7769D02*
D03*
Y7954D02*
D03*
Y7894D02*
D03*
X3363Y7958D02*
D03*
Y7898D02*
D03*
X3410Y7828D02*
D03*
Y7768D02*
D03*
X3859Y8029D02*
D03*
Y8089D02*
D03*
X3919Y7769D02*
D03*
Y7829D02*
D03*
X3840Y7599D02*
D03*
Y7659D02*
D03*
X3790Y7599D02*
D03*
Y7659D02*
D03*
X3809Y8029D02*
D03*
Y8089D02*
D03*
X3712Y8029D02*
D03*
Y8089D02*
D03*
X3699Y7599D02*
D03*
Y7659D02*
D03*
X3649Y7599D02*
D03*
Y7659D02*
D03*
X3664Y8029D02*
D03*
Y8089D02*
D03*
X3919Y7894D02*
D03*
Y7954D02*
D03*
X3604Y8029D02*
D03*
Y8089D02*
D03*
X3411Y7898D02*
D03*
Y7958D02*
D03*
X3601Y7599D02*
D03*
Y7659D02*
D03*
X3553Y7599D02*
D03*
Y7659D02*
D03*
X3556Y8029D02*
D03*
Y8089D02*
D03*
X3486Y8029D02*
D03*
Y8089D02*
D03*
X3475Y7599D02*
D03*
Y7659D02*
D03*
X3427Y7599D02*
D03*
Y7659D02*
D03*
X3438Y8029D02*
D03*
Y8089D02*
D03*
X3362Y7768D02*
D03*
Y7828D02*
D03*
X2958Y8068D02*
D03*
Y8128D02*
D03*
X2558Y8217D02*
D03*
Y8277D02*
D03*
Y8157D02*
D03*
Y8097D02*
D03*
X2958Y8361D02*
D03*
Y8301D02*
D03*
Y8246D02*
D03*
Y8186D02*
D03*
X3069Y8363D02*
D03*
Y8303D02*
D03*
X3327Y8363D02*
D03*
Y8303D02*
D03*
Y8187D02*
D03*
Y8247D02*
D03*
X2351Y5473D02*
D03*
Y5533D02*
D03*
X2465Y5479D02*
D03*
Y5539D02*
D03*
X2516Y5479D02*
D03*
Y5539D02*
D03*
X2681Y6071D02*
D03*
Y6011D02*
D03*
X2617Y6071D02*
D03*
Y6011D02*
D03*
X2365Y5740D02*
D03*
Y5800D02*
D03*
X2288Y5740D02*
D03*
Y5800D02*
D03*
X2213Y5740D02*
D03*
Y5800D02*
D03*
X3026Y4666D02*
D03*
Y4606D02*
D03*
X3077Y4666D02*
D03*
Y4606D02*
D03*
X3126Y4666D02*
D03*
Y4606D02*
D03*
X3175Y4666D02*
D03*
Y4606D02*
D03*
X3226Y4666D02*
D03*
Y4606D02*
D03*
X3275Y4666D02*
D03*
Y4606D02*
D03*
X4035Y4890D02*
D03*
Y4830D02*
D03*
X3202Y5458D02*
D03*
Y5398D02*
D03*
X3560Y4814D02*
D03*
Y4754D02*
D03*
X4035Y4697D02*
D03*
Y4757D02*
D03*
X3841Y5081D02*
D03*
Y5021D02*
D03*
X3918Y5079D02*
D03*
Y5019D02*
D03*
X2976Y4666D02*
D03*
Y4606D02*
D03*
X3324Y4666D02*
D03*
Y4606D02*
D03*
X2193Y5031D02*
D03*
Y5091D02*
D03*
X2726Y5471D02*
D03*
Y5531D02*
D03*
X3290Y6023D02*
D03*
Y5963D02*
D03*
X2619Y5759D02*
D03*
Y5819D02*
D03*
X2681Y5759D02*
D03*
Y5819D02*
D03*
X3095Y6134D02*
D03*
Y6074D02*
D03*
X3573Y5485D02*
D03*
Y5545D02*
D03*
X3275Y5793D02*
D03*
Y5853D02*
D03*
X3162Y5762D02*
D03*
Y5822D02*
D03*
X3101Y5762D02*
D03*
Y5822D02*
D03*
X2843Y6242D02*
D03*
Y6182D02*
D03*
X2959Y6243D02*
D03*
Y6183D02*
D03*
X2901Y6182D02*
D03*
Y6242D02*
D03*
X3544Y4400D02*
D03*
Y4460D02*
D03*
X6525Y2178D02*
D03*
Y2238D02*
D03*
Y2113D02*
D03*
Y2053D02*
D03*
X6920Y2153D02*
D03*
Y2093D02*
D03*
Y2228D02*
D03*
Y2288D02*
D03*
X6525Y1543D02*
D03*
Y1603D02*
D03*
Y1478D02*
D03*
Y1418D02*
D03*
X6920Y1518D02*
D03*
Y1458D02*
D03*
Y1593D02*
D03*
Y1653D02*
D03*
X6525Y903D02*
D03*
Y963D02*
D03*
Y838D02*
D03*
Y778D02*
D03*
X6920Y878D02*
D03*
Y818D02*
D03*
Y953D02*
D03*
Y1013D02*
D03*
X6525Y263D02*
D03*
Y323D02*
D03*
Y198D02*
D03*
Y138D02*
D03*
X6920Y238D02*
D03*
Y178D02*
D03*
Y313D02*
D03*
Y373D02*
D03*
X201Y5473D02*
D03*
Y5533D02*
D03*
X315Y5479D02*
D03*
Y5539D02*
D03*
X366Y5479D02*
D03*
Y5539D02*
D03*
X531Y6071D02*
D03*
Y6011D02*
D03*
X467Y6071D02*
D03*
Y6011D02*
D03*
X215Y5740D02*
D03*
Y5800D02*
D03*
X138Y5740D02*
D03*
Y5800D02*
D03*
X63Y5740D02*
D03*
Y5800D02*
D03*
X876Y4666D02*
D03*
Y4606D02*
D03*
X927Y4666D02*
D03*
Y4606D02*
D03*
X976Y4666D02*
D03*
Y4606D02*
D03*
X1025Y4666D02*
D03*
Y4606D02*
D03*
X1076Y4666D02*
D03*
Y4606D02*
D03*
X1125Y4666D02*
D03*
Y4606D02*
D03*
X1885Y4890D02*
D03*
Y4830D02*
D03*
X1052Y5458D02*
D03*
Y5398D02*
D03*
X1410Y4814D02*
D03*
Y4754D02*
D03*
X1885Y4697D02*
D03*
Y4757D02*
D03*
X1691Y5081D02*
D03*
Y5021D02*
D03*
X1768Y5079D02*
D03*
Y5019D02*
D03*
X826Y4666D02*
D03*
Y4606D02*
D03*
X1174Y4666D02*
D03*
Y4606D02*
D03*
X43Y5031D02*
D03*
Y5091D02*
D03*
X576Y5471D02*
D03*
Y5531D02*
D03*
X1140Y6023D02*
D03*
Y5963D02*
D03*
X469Y5759D02*
D03*
Y5819D02*
D03*
X531Y5759D02*
D03*
Y5819D02*
D03*
X945Y6134D02*
D03*
Y6074D02*
D03*
X1423Y5485D02*
D03*
Y5545D02*
D03*
X1125Y5793D02*
D03*
Y5853D02*
D03*
X1012Y5762D02*
D03*
Y5822D02*
D03*
X951Y5762D02*
D03*
Y5822D02*
D03*
X693Y6242D02*
D03*
Y6182D02*
D03*
X809Y6243D02*
D03*
Y6183D02*
D03*
X751Y6182D02*
D03*
Y6242D02*
D03*
X1394Y4400D02*
D03*
Y4460D02*
D03*
X867Y7814D02*
D03*
Y7754D02*
D03*
X1110Y7667D02*
D03*
Y7607D02*
D03*
X1077Y7814D02*
D03*
Y7754D02*
D03*
X1262Y7426D02*
D03*
Y7486D02*
D03*
X1199Y7426D02*
D03*
Y7486D02*
D03*
X1433Y7264D02*
D03*
Y7324D02*
D03*
X1486Y7196D02*
D03*
Y7256D02*
D03*
X1434Y7183D02*
D03*
Y7123D02*
D03*
X1077Y6773D02*
D03*
Y6833D02*
D03*
X1027D02*
D03*
Y6773D02*
D03*
X854Y7183D02*
D03*
Y7123D02*
D03*
X858Y7323D02*
D03*
Y7263D02*
D03*
X802Y7258D02*
D03*
Y7198D02*
D03*
X564Y7918D02*
D03*
Y7858D02*
D03*
X516Y7859D02*
D03*
Y7919D02*
D03*
X1754Y7012D02*
D03*
Y7072D02*
D03*
X1491Y6708D02*
D03*
Y6768D02*
D03*
X1842Y6708D02*
D03*
Y6768D02*
D03*
X1897D02*
D03*
Y6708D02*
D03*
X1103Y7426D02*
D03*
Y7486D02*
D03*
X1040Y7485D02*
D03*
Y7425D02*
D03*
X1719Y7829D02*
D03*
Y7769D02*
D03*
Y7954D02*
D03*
Y7894D02*
D03*
X1213Y7958D02*
D03*
Y7898D02*
D03*
X1260Y7828D02*
D03*
Y7768D02*
D03*
X1709Y8029D02*
D03*
Y8089D02*
D03*
X1769Y7769D02*
D03*
Y7829D02*
D03*
X1690Y7599D02*
D03*
Y7659D02*
D03*
X1640Y7599D02*
D03*
Y7659D02*
D03*
X1659Y8029D02*
D03*
Y8089D02*
D03*
X1562Y8029D02*
D03*
Y8089D02*
D03*
X1549Y7599D02*
D03*
Y7659D02*
D03*
X1499Y7599D02*
D03*
Y7659D02*
D03*
X1514Y8029D02*
D03*
Y8089D02*
D03*
X1769Y7894D02*
D03*
Y7954D02*
D03*
X1454Y8029D02*
D03*
Y8089D02*
D03*
X1261Y7898D02*
D03*
Y7958D02*
D03*
X1451Y7599D02*
D03*
Y7659D02*
D03*
X1403Y7599D02*
D03*
Y7659D02*
D03*
X1406Y8029D02*
D03*
Y8089D02*
D03*
X1336Y8029D02*
D03*
Y8089D02*
D03*
X1325Y7599D02*
D03*
Y7659D02*
D03*
X1277Y7599D02*
D03*
Y7659D02*
D03*
X1288Y8029D02*
D03*
Y8089D02*
D03*
X1212Y7768D02*
D03*
Y7828D02*
D03*
X808Y8068D02*
D03*
Y8128D02*
D03*
X408Y8217D02*
D03*
Y8277D02*
D03*
Y8157D02*
D03*
Y8097D02*
D03*
X808Y8361D02*
D03*
Y8301D02*
D03*
Y8246D02*
D03*
Y8186D02*
D03*
X919Y8363D02*
D03*
Y8303D02*
D03*
X1177Y8363D02*
D03*
Y8303D02*
D03*
Y8187D02*
D03*
Y8247D02*
D03*
X1330Y1034D02*
D03*
Y1094D02*
D03*
X1334Y997D02*
D03*
Y937D02*
D03*
X567Y1214D02*
D03*
Y1154D02*
D03*
X558Y278D02*
D03*
Y218D02*
D03*
X566Y1675D02*
D03*
Y1615D02*
D03*
X557Y739D02*
D03*
Y679D02*
D03*
X703Y958D02*
D03*
Y1018D02*
D03*
X566Y1446D02*
D03*
Y1386D02*
D03*
X557Y510D02*
D03*
Y450D02*
D03*
X519Y1214D02*
D03*
Y1154D02*
D03*
X510Y278D02*
D03*
Y218D02*
D03*
X518Y1445D02*
D03*
Y1385D02*
D03*
X509Y509D02*
D03*
Y449D02*
D03*
X517Y1675D02*
D03*
Y1615D02*
D03*
X508Y739D02*
D03*
Y679D02*
D03*
X662Y1265D02*
D03*
Y1205D02*
D03*
X653Y329D02*
D03*
Y269D02*
D03*
X663Y1501D02*
D03*
Y1441D02*
D03*
X654Y565D02*
D03*
Y505D02*
D03*
X662Y1732D02*
D03*
Y1672D02*
D03*
X653Y796D02*
D03*
Y736D02*
D03*
X451Y1278D02*
D03*
Y1218D02*
D03*
X442Y342D02*
D03*
Y282D02*
D03*
X449Y1514D02*
D03*
Y1454D02*
D03*
X440Y578D02*
D03*
Y518D02*
D03*
X449Y1741D02*
D03*
Y1681D02*
D03*
X440Y805D02*
D03*
Y745D02*
D03*
X614Y1214D02*
D03*
Y1154D02*
D03*
X605Y278D02*
D03*
Y218D02*
D03*
X614Y1674D02*
D03*
Y1614D02*
D03*
X605Y738D02*
D03*
Y678D02*
D03*
X615Y1445D02*
D03*
Y1385D02*
D03*
X606Y509D02*
D03*
Y449D02*
D03*
D13*
X5402Y5263D02*
X5362D01*
Y5233D01*
X5382D01*
X5362D01*
Y5203D01*
X5432Y5243D02*
X5452D01*
X5462Y5233D01*
Y5203D01*
X5432D01*
X5422Y5213D01*
X5432Y5223D01*
X5462D01*
X5482Y5203D02*
X5502D01*
X5492D01*
Y5263D01*
X5482D01*
X5572Y5243D02*
X5542D01*
X5532Y5233D01*
Y5213D01*
X5542Y5203D01*
X5572D01*
X5602D02*
X5622D01*
X5632Y5213D01*
Y5233D01*
X5622Y5243D01*
X5602D01*
X5592Y5233D01*
Y5213D01*
X5602Y5203D01*
X5652D02*
Y5243D01*
X5682D01*
X5692Y5233D01*
Y5203D01*
X5812Y5263D02*
X5772D01*
Y5233D01*
X5792D01*
X5772D01*
Y5203D01*
X5872Y5253D02*
X5862Y5263D01*
X5842D01*
X5832Y5253D01*
Y5213D01*
X5842Y5203D01*
X5862D01*
X5872Y5213D01*
X5451Y5153D02*
X5464D01*
X5458D01*
Y5113D01*
X5451D01*
X5464D01*
X5484D02*
Y5153D01*
X5498Y5140D01*
X5511Y5153D01*
Y5113D01*
X5524Y5153D02*
Y5120D01*
X5531Y5113D01*
X5544D01*
X5551Y5120D01*
Y5153D01*
X5564Y5106D02*
X5591D01*
X5631Y5146D02*
X5624Y5153D01*
X5611D01*
X5604Y5146D01*
Y5120D01*
X5611Y5113D01*
X5624D01*
X5631Y5120D01*
X5644Y5113D02*
Y5153D01*
X5664D01*
X5671Y5146D01*
Y5133D01*
X5664Y5126D01*
X5644D01*
X5684Y5153D02*
Y5120D01*
X5691Y5113D01*
X5704D01*
X5711Y5120D01*
Y5153D01*
X5724Y5113D02*
Y5120D01*
X5731D01*
Y5113D01*
X5724D01*
X5758D02*
X5771D01*
X5764D01*
Y5153D01*
X5758Y5146D01*
X4881Y3504D02*
Y3604D01*
X4336Y3604D02*
X4881D01*
X4336Y3504D02*
Y3604D01*
Y3504D02*
X4881D01*
X4553Y3479D02*
X4527D01*
Y3459D01*
X4540D01*
X4527D01*
Y3439D01*
X4593Y3472D02*
X4587Y3479D01*
X4573D01*
X4567Y3472D01*
Y3446D01*
X4573Y3439D01*
X4587D01*
X4593Y3446D01*
X4607Y3479D02*
Y3446D01*
X4613Y3439D01*
X4627D01*
X4633Y3446D01*
Y3479D01*
X4647Y3439D02*
Y3446D01*
X4653D01*
Y3439D01*
X4647D01*
X4680D02*
X4693D01*
X4687D01*
Y3479D01*
X4680Y3472D01*
X4395Y3585D02*
X4355D01*
Y3555D01*
X4375D01*
X4355D01*
Y3525D01*
X4425Y3565D02*
X4445D01*
X4455Y3555D01*
Y3525D01*
X4425D01*
X4415Y3535D01*
X4425Y3545D01*
X4455D01*
X4475Y3525D02*
X4495D01*
X4485D01*
Y3585D01*
X4475D01*
X4565Y3565D02*
X4535D01*
X4525Y3555D01*
Y3535D01*
X4535Y3525D01*
X4565D01*
X4595D02*
X4615D01*
X4625Y3535D01*
Y3555D01*
X4615Y3565D01*
X4595D01*
X4585Y3555D01*
Y3535D01*
X4595Y3525D01*
X4645D02*
Y3565D01*
X4675D01*
X4685Y3555D01*
Y3525D01*
X4805Y3585D02*
X4765D01*
Y3555D01*
X4785D01*
X4765D01*
Y3525D01*
X4865Y3575D02*
X4855Y3585D01*
X4835D01*
X4825Y3575D01*
Y3535D01*
X4835Y3525D01*
X4855D01*
X4865Y3535D01*
X5228Y1786D02*
Y1826D01*
X5241Y1813D01*
X5255Y1826D01*
Y1786D01*
X5295Y1819D02*
X5288Y1826D01*
X5275D01*
X5268Y1819D01*
Y1793D01*
X5275Y1786D01*
X5288D01*
X5295Y1793D01*
X5308Y1826D02*
Y1793D01*
X5315Y1786D01*
X5328D01*
X5335Y1793D01*
Y1826D01*
X5348Y1786D02*
Y1793D01*
X5355D01*
Y1786D01*
X5348D01*
X5381D02*
X5395D01*
X5388D01*
Y1826D01*
X5381Y1819D01*
X5091Y1931D02*
X5051D01*
Y1901D01*
X5071D01*
X5051D01*
Y1871D01*
X5121Y1911D02*
X5141D01*
X5151Y1901D01*
Y1871D01*
X5121D01*
X5111Y1881D01*
X5121Y1891D01*
X5151D01*
X5171Y1871D02*
X5191D01*
X5181D01*
Y1931D01*
X5171D01*
X5261Y1911D02*
X5231D01*
X5221Y1901D01*
Y1881D01*
X5231Y1871D01*
X5261D01*
X5291D02*
X5311D01*
X5321Y1881D01*
Y1901D01*
X5311Y1911D01*
X5291D01*
X5281Y1901D01*
Y1881D01*
X5291Y1871D01*
X5341D02*
Y1911D01*
X5371D01*
X5381Y1901D01*
Y1871D01*
X5501Y1931D02*
X5461D01*
Y1901D01*
X5481D01*
X5461D01*
Y1871D01*
X5561Y1921D02*
X5551Y1931D01*
X5531D01*
X5521Y1921D01*
Y1881D01*
X5531Y1871D01*
X5551D01*
X5561Y1881D01*
X3078Y1786D02*
Y1826D01*
X3091Y1813D01*
X3105Y1826D01*
Y1786D01*
X3145Y1819D02*
X3138Y1826D01*
X3125D01*
X3118Y1819D01*
Y1793D01*
X3125Y1786D01*
X3138D01*
X3145Y1793D01*
X3158Y1826D02*
Y1793D01*
X3165Y1786D01*
X3178D01*
X3185Y1793D01*
Y1826D01*
X3198Y1786D02*
Y1793D01*
X3205D01*
Y1786D01*
X3198D01*
X3231D02*
X3245D01*
X3238D01*
Y1826D01*
X3231Y1819D01*
X2941Y1931D02*
X2901D01*
Y1901D01*
X2921D01*
X2901D01*
Y1871D01*
X2971Y1911D02*
X2991D01*
X3001Y1901D01*
Y1871D01*
X2971D01*
X2961Y1881D01*
X2971Y1891D01*
X3001D01*
X3021Y1871D02*
X3041D01*
X3031D01*
Y1931D01*
X3021D01*
X3111Y1911D02*
X3081D01*
X3071Y1901D01*
Y1881D01*
X3081Y1871D01*
X3111D01*
X3141D02*
X3161D01*
X3171Y1881D01*
Y1901D01*
X3161Y1911D01*
X3141D01*
X3131Y1901D01*
Y1881D01*
X3141Y1871D01*
X3191D02*
Y1911D01*
X3221D01*
X3231Y1901D01*
Y1871D01*
X3351Y1931D02*
X3311D01*
Y1901D01*
X3331D01*
X3311D01*
Y1871D01*
X3411Y1921D02*
X3401Y1931D01*
X3381D01*
X3371Y1921D01*
Y1881D01*
X3381Y1871D01*
X3401D01*
X3411Y1881D01*
X2731Y3504D02*
Y3604D01*
X2186Y3604D02*
X2731D01*
X2186Y3504D02*
Y3604D01*
Y3504D02*
X2731D01*
X2403Y3479D02*
X2377D01*
Y3459D01*
X2390D01*
X2377D01*
Y3439D01*
X2443Y3472D02*
X2437Y3479D01*
X2423D01*
X2417Y3472D01*
Y3446D01*
X2423Y3439D01*
X2437D01*
X2443Y3446D01*
X2457Y3479D02*
Y3446D01*
X2463Y3439D01*
X2477D01*
X2483Y3446D01*
Y3479D01*
X2497Y3439D02*
Y3446D01*
X2503D01*
Y3439D01*
X2497D01*
X2530D02*
X2543D01*
X2537D01*
Y3479D01*
X2530Y3472D01*
X2245Y3585D02*
X2205D01*
Y3555D01*
X2225D01*
X2205D01*
Y3525D01*
X2275Y3565D02*
X2295D01*
X2305Y3555D01*
Y3525D01*
X2275D01*
X2265Y3535D01*
X2275Y3545D01*
X2305D01*
X2325Y3525D02*
X2345D01*
X2335D01*
Y3585D01*
X2325D01*
X2415Y3565D02*
X2385D01*
X2375Y3555D01*
Y3535D01*
X2385Y3525D01*
X2415D01*
X2445D02*
X2465D01*
X2475Y3535D01*
Y3555D01*
X2465Y3565D01*
X2445D01*
X2435Y3555D01*
Y3535D01*
X2445Y3525D01*
X2495D02*
Y3565D01*
X2525D01*
X2535Y3555D01*
Y3525D01*
X2655Y3585D02*
X2615D01*
Y3555D01*
X2635D01*
X2615D01*
Y3525D01*
X2715Y3575D02*
X2705Y3585D01*
X2685D01*
X2675Y3575D01*
Y3535D01*
X2685Y3525D01*
X2705D01*
X2715Y3535D01*
X3252Y5263D02*
X3212D01*
Y5233D01*
X3232D01*
X3212D01*
Y5203D01*
X3282Y5243D02*
X3302D01*
X3312Y5233D01*
Y5203D01*
X3282D01*
X3272Y5213D01*
X3282Y5223D01*
X3312D01*
X3332Y5203D02*
X3352D01*
X3342D01*
Y5263D01*
X3332D01*
X3422Y5243D02*
X3392D01*
X3382Y5233D01*
Y5213D01*
X3392Y5203D01*
X3422D01*
X3452D02*
X3472D01*
X3482Y5213D01*
Y5233D01*
X3472Y5243D01*
X3452D01*
X3442Y5233D01*
Y5213D01*
X3452Y5203D01*
X3502D02*
Y5243D01*
X3532D01*
X3542Y5233D01*
Y5203D01*
X3662Y5263D02*
X3622D01*
Y5233D01*
X3642D01*
X3622D01*
Y5203D01*
X3722Y5253D02*
X3712Y5263D01*
X3692D01*
X3682Y5253D01*
Y5213D01*
X3692Y5203D01*
X3712D01*
X3722Y5213D01*
X3301Y5153D02*
X3314D01*
X3308D01*
Y5113D01*
X3301D01*
X3314D01*
X3334D02*
Y5153D01*
X3348Y5140D01*
X3361Y5153D01*
Y5113D01*
X3374Y5153D02*
Y5120D01*
X3381Y5113D01*
X3394D01*
X3401Y5120D01*
Y5153D01*
X3414Y5106D02*
X3441D01*
X3481Y5146D02*
X3474Y5153D01*
X3461D01*
X3454Y5146D01*
Y5120D01*
X3461Y5113D01*
X3474D01*
X3481Y5120D01*
X3494Y5113D02*
Y5153D01*
X3514D01*
X3521Y5146D01*
Y5133D01*
X3514Y5126D01*
X3494D01*
X3534Y5153D02*
Y5120D01*
X3541Y5113D01*
X3554D01*
X3561Y5120D01*
Y5153D01*
X3574Y5113D02*
Y5120D01*
X3581D01*
Y5113D01*
X3574D01*
X3608D02*
X3621D01*
X3614D01*
Y5153D01*
X3608Y5146D01*
X1102Y5263D02*
X1062D01*
Y5233D01*
X1082D01*
X1062D01*
Y5203D01*
X1132Y5243D02*
X1152D01*
X1162Y5233D01*
Y5203D01*
X1132D01*
X1122Y5213D01*
X1132Y5223D01*
X1162D01*
X1182Y5203D02*
X1202D01*
X1192D01*
Y5263D01*
X1182D01*
X1272Y5243D02*
X1242D01*
X1232Y5233D01*
Y5213D01*
X1242Y5203D01*
X1272D01*
X1302D02*
X1322D01*
X1332Y5213D01*
Y5233D01*
X1322Y5243D01*
X1302D01*
X1292Y5233D01*
Y5213D01*
X1302Y5203D01*
X1352D02*
Y5243D01*
X1382D01*
X1392Y5233D01*
Y5203D01*
X1512Y5263D02*
X1472D01*
Y5233D01*
X1492D01*
X1472D01*
Y5203D01*
X1572Y5253D02*
X1562Y5263D01*
X1542D01*
X1532Y5253D01*
Y5213D01*
X1542Y5203D01*
X1562D01*
X1572Y5213D01*
X1151Y5153D02*
X1164D01*
X1158D01*
Y5113D01*
X1151D01*
X1164D01*
X1184D02*
Y5153D01*
X1198Y5140D01*
X1211Y5153D01*
Y5113D01*
X1224Y5153D02*
Y5120D01*
X1231Y5113D01*
X1244D01*
X1251Y5120D01*
Y5153D01*
X1264Y5106D02*
X1291D01*
X1331Y5146D02*
X1324Y5153D01*
X1311D01*
X1304Y5146D01*
Y5120D01*
X1311Y5113D01*
X1324D01*
X1331Y5120D01*
X1344Y5113D02*
Y5153D01*
X1364D01*
X1371Y5146D01*
Y5133D01*
X1364Y5126D01*
X1344D01*
X1384Y5153D02*
Y5120D01*
X1391Y5113D01*
X1404D01*
X1411Y5120D01*
Y5153D01*
X1424Y5113D02*
Y5120D01*
X1431D01*
Y5113D01*
X1424D01*
X1458D02*
X1471D01*
X1464D01*
Y5153D01*
X1458Y5146D01*
X581Y3504D02*
Y3604D01*
X36Y3604D02*
X581D01*
X36Y3504D02*
Y3604D01*
Y3504D02*
X581D01*
X253Y3479D02*
X227D01*
Y3459D01*
X240D01*
X227D01*
Y3439D01*
X293Y3472D02*
X287Y3479D01*
X273D01*
X267Y3472D01*
Y3446D01*
X273Y3439D01*
X287D01*
X293Y3446D01*
X307Y3479D02*
Y3446D01*
X313Y3439D01*
X327D01*
X333Y3446D01*
Y3479D01*
X347Y3439D02*
Y3446D01*
X353D01*
Y3439D01*
X347D01*
X380D02*
X393D01*
X387D01*
Y3479D01*
X380Y3472D01*
X95Y3585D02*
X55D01*
Y3555D01*
X75D01*
X55D01*
Y3525D01*
X125Y3565D02*
X145D01*
X155Y3555D01*
Y3525D01*
X125D01*
X115Y3535D01*
X125Y3545D01*
X155D01*
X175Y3525D02*
X195D01*
X185D01*
Y3585D01*
X175D01*
X265Y3565D02*
X235D01*
X225Y3555D01*
Y3535D01*
X235Y3525D01*
X265D01*
X295D02*
X315D01*
X325Y3535D01*
Y3555D01*
X315Y3565D01*
X295D01*
X285Y3555D01*
Y3535D01*
X295Y3525D01*
X345D02*
Y3565D01*
X375D01*
X385Y3555D01*
Y3525D01*
X505Y3585D02*
X465D01*
Y3555D01*
X485D01*
X465D01*
Y3525D01*
X565Y3575D02*
X555Y3585D01*
X535D01*
X525Y3575D01*
Y3535D01*
X535Y3525D01*
X555D01*
X565Y3535D01*
X928Y1786D02*
Y1826D01*
X941Y1813D01*
X955Y1826D01*
Y1786D01*
X995Y1819D02*
X988Y1826D01*
X975D01*
X968Y1819D01*
Y1793D01*
X975Y1786D01*
X988D01*
X995Y1793D01*
X1008Y1826D02*
Y1793D01*
X1015Y1786D01*
X1028D01*
X1035Y1793D01*
Y1826D01*
X1048Y1786D02*
Y1793D01*
X1055D01*
Y1786D01*
X1048D01*
X1081D02*
X1095D01*
X1088D01*
Y1826D01*
X1081Y1819D01*
X791Y1931D02*
X751D01*
Y1901D01*
X771D01*
X751D01*
Y1871D01*
X821Y1911D02*
X841D01*
X851Y1901D01*
Y1871D01*
X821D01*
X811Y1881D01*
X821Y1891D01*
X851D01*
X871Y1871D02*
X891D01*
X881D01*
Y1931D01*
X871D01*
X961Y1911D02*
X931D01*
X921Y1901D01*
Y1881D01*
X931Y1871D01*
X961D01*
X991D02*
X1011D01*
X1021Y1881D01*
Y1901D01*
X1011Y1911D01*
X991D01*
X981Y1901D01*
Y1881D01*
X991Y1871D01*
X1041D02*
Y1911D01*
X1071D01*
X1081Y1901D01*
Y1871D01*
X1201Y1931D02*
X1161D01*
Y1901D01*
X1181D01*
X1161D01*
Y1871D01*
X1261Y1921D02*
X1251Y1931D01*
X1231D01*
X1221Y1921D01*
Y1881D01*
X1231Y1871D01*
X1251D01*
X1261Y1881D01*
D14*
X4756Y5549D02*
D03*
Y5471D02*
D03*
X5835Y73D02*
D03*
Y151D02*
D03*
X3685Y73D02*
D03*
Y151D02*
D03*
X2606Y5549D02*
D03*
Y5471D02*
D03*
X456Y5549D02*
D03*
Y5471D02*
D03*
X1535Y73D02*
D03*
Y151D02*
D03*
D22*
X5831Y4715D02*
D03*
Y4833D02*
D03*
X3681Y4715D02*
D03*
Y4833D02*
D03*
X1531Y4715D02*
D03*
Y4833D02*
D03*
D27*
X5108Y5192D02*
D03*
X5030D02*
D03*
X4821Y1865D02*
D03*
X4743D02*
D03*
X4460Y1015D02*
D03*
X4538D02*
D03*
X6067Y915D02*
D03*
X6145D02*
D03*
X2671Y1865D02*
D03*
X2593D02*
D03*
X2310Y1015D02*
D03*
X2388D02*
D03*
X3917Y915D02*
D03*
X3995D02*
D03*
X2958Y5192D02*
D03*
X2880D02*
D03*
X808D02*
D03*
X730D02*
D03*
X521Y1865D02*
D03*
X443D02*
D03*
X160Y1015D02*
D03*
X238D02*
D03*
X1767Y915D02*
D03*
X1845D02*
D03*
D35*
X5337Y5183D02*
Y5284D01*
Y5183D02*
X5892D01*
X5337Y5285D02*
X5892D01*
Y5184D02*
Y5285D01*
X4928Y7011D02*
Y7112D01*
X4373D02*
X4928D01*
X4373Y7010D02*
X4928D01*
X4373D02*
Y7111D01*
X5026Y1851D02*
X5581D01*
X5026Y1953D02*
X5581D01*
X5026Y1851D02*
Y1952D01*
X5581Y1852D02*
Y1953D01*
X2876Y1851D02*
X3431D01*
X2876Y1953D02*
X3431D01*
X2876Y1851D02*
Y1952D01*
X3431Y1852D02*
Y1953D01*
X2778Y7011D02*
Y7112D01*
X2223D02*
X2778D01*
X2223Y7010D02*
X2778D01*
X2223D02*
Y7111D01*
X3187Y5183D02*
Y5284D01*
Y5183D02*
X3742D01*
X3187Y5285D02*
X3742D01*
Y5184D02*
Y5285D01*
X1037Y5183D02*
Y5284D01*
Y5183D02*
X1592D01*
X1037Y5285D02*
X1592D01*
Y5184D02*
Y5285D01*
X628Y7011D02*
Y7112D01*
X73D02*
X628D01*
X73Y7010D02*
X628D01*
X73D02*
Y7111D01*
X726Y1851D02*
X1281D01*
X726Y1953D02*
X1281D01*
X726Y1851D02*
Y1952D01*
X1281Y1852D02*
Y1953D01*
D48*
X4449Y6972D02*
X4462D01*
X4456D01*
Y6932D01*
X4449D01*
X4462D01*
X4482D02*
Y6972D01*
X4496Y6959D01*
X4509Y6972D01*
Y6932D01*
X4522Y6972D02*
Y6939D01*
X4529Y6932D01*
X4542D01*
X4549Y6939D01*
Y6972D01*
X4562Y6925D02*
X4589D01*
X4629Y6965D02*
X4622Y6972D01*
X4609D01*
X4602Y6965D01*
Y6959D01*
X4609Y6952D01*
X4622D01*
X4629Y6945D01*
Y6939D01*
X4622Y6932D01*
X4609D01*
X4602Y6939D01*
X4669Y6972D02*
X4642D01*
Y6932D01*
X4669D01*
X4642Y6952D02*
X4656D01*
X4682Y6932D02*
Y6972D01*
X4709Y6932D01*
Y6972D01*
X4749Y6965D02*
X4742Y6972D01*
X4729D01*
X4722Y6965D01*
Y6959D01*
X4729Y6952D01*
X4742D01*
X4749Y6945D01*
Y6939D01*
X4742Y6932D01*
X4729D01*
X4722Y6939D01*
X4789Y6972D02*
X4762D01*
Y6932D01*
X4789D01*
X4762Y6952D02*
X4776D01*
X4802Y6932D02*
Y6939D01*
X4809D01*
Y6932D01*
X4802D01*
X4836D02*
X4849D01*
X4842D01*
Y6972D01*
X4836Y6965D01*
X4438Y7090D02*
X4398D01*
Y7060D01*
X4418D01*
X4398D01*
Y7030D01*
X4468Y7070D02*
X4488D01*
X4498Y7060D01*
Y7030D01*
X4468D01*
X4458Y7040D01*
X4468Y7050D01*
X4498D01*
X4518Y7030D02*
X4538D01*
X4528D01*
Y7090D01*
X4518D01*
X4608Y7070D02*
X4578D01*
X4568Y7060D01*
Y7040D01*
X4578Y7030D01*
X4608D01*
X4638D02*
X4658D01*
X4668Y7040D01*
Y7060D01*
X4658Y7070D01*
X4638D01*
X4628Y7060D01*
Y7040D01*
X4638Y7030D01*
X4688D02*
Y7070D01*
X4718D01*
X4728Y7060D01*
Y7030D01*
X4848Y7090D02*
X4808D01*
Y7060D01*
X4828D01*
X4808D01*
Y7030D01*
X4908Y7080D02*
X4898Y7090D01*
X4878D01*
X4868Y7080D01*
Y7040D01*
X4878Y7030D01*
X4898D01*
X4908Y7040D01*
X2299Y6972D02*
X2312D01*
X2306D01*
Y6932D01*
X2299D01*
X2312D01*
X2332D02*
Y6972D01*
X2346Y6959D01*
X2359Y6972D01*
Y6932D01*
X2372Y6972D02*
Y6939D01*
X2379Y6932D01*
X2392D01*
X2399Y6939D01*
Y6972D01*
X2412Y6925D02*
X2439D01*
X2479Y6965D02*
X2472Y6972D01*
X2459D01*
X2452Y6965D01*
Y6959D01*
X2459Y6952D01*
X2472D01*
X2479Y6945D01*
Y6939D01*
X2472Y6932D01*
X2459D01*
X2452Y6939D01*
X2519Y6972D02*
X2492D01*
Y6932D01*
X2519D01*
X2492Y6952D02*
X2506D01*
X2532Y6932D02*
Y6972D01*
X2559Y6932D01*
Y6972D01*
X2599Y6965D02*
X2592Y6972D01*
X2579D01*
X2572Y6965D01*
Y6959D01*
X2579Y6952D01*
X2592D01*
X2599Y6945D01*
Y6939D01*
X2592Y6932D01*
X2579D01*
X2572Y6939D01*
X2639Y6972D02*
X2612D01*
Y6932D01*
X2639D01*
X2612Y6952D02*
X2626D01*
X2652Y6932D02*
Y6939D01*
X2659D01*
Y6932D01*
X2652D01*
X2686D02*
X2699D01*
X2692D01*
Y6972D01*
X2686Y6965D01*
X2288Y7090D02*
X2248D01*
Y7060D01*
X2268D01*
X2248D01*
Y7030D01*
X2318Y7070D02*
X2338D01*
X2348Y7060D01*
Y7030D01*
X2318D01*
X2308Y7040D01*
X2318Y7050D01*
X2348D01*
X2368Y7030D02*
X2388D01*
X2378D01*
Y7090D01*
X2368D01*
X2458Y7070D02*
X2428D01*
X2418Y7060D01*
Y7040D01*
X2428Y7030D01*
X2458D01*
X2488D02*
X2508D01*
X2518Y7040D01*
Y7060D01*
X2508Y7070D01*
X2488D01*
X2478Y7060D01*
Y7040D01*
X2488Y7030D01*
X2538D02*
Y7070D01*
X2568D01*
X2578Y7060D01*
Y7030D01*
X2698Y7090D02*
X2658D01*
Y7060D01*
X2678D01*
X2658D01*
Y7030D01*
X2758Y7080D02*
X2748Y7090D01*
X2728D01*
X2718Y7080D01*
Y7040D01*
X2728Y7030D01*
X2748D01*
X2758Y7040D01*
X149Y6972D02*
X162D01*
X156D01*
Y6932D01*
X149D01*
X162D01*
X182D02*
Y6972D01*
X196Y6959D01*
X209Y6972D01*
Y6932D01*
X222Y6972D02*
Y6939D01*
X229Y6932D01*
X242D01*
X249Y6939D01*
Y6972D01*
X262Y6925D02*
X289D01*
X329Y6965D02*
X322Y6972D01*
X309D01*
X302Y6965D01*
Y6959D01*
X309Y6952D01*
X322D01*
X329Y6945D01*
Y6939D01*
X322Y6932D01*
X309D01*
X302Y6939D01*
X369Y6972D02*
X342D01*
Y6932D01*
X369D01*
X342Y6952D02*
X356D01*
X382Y6932D02*
Y6972D01*
X409Y6932D01*
Y6972D01*
X449Y6965D02*
X442Y6972D01*
X429D01*
X422Y6965D01*
Y6959D01*
X429Y6952D01*
X442D01*
X449Y6945D01*
Y6939D01*
X442Y6932D01*
X429D01*
X422Y6939D01*
X489Y6972D02*
X462D01*
Y6932D01*
X489D01*
X462Y6952D02*
X476D01*
X502Y6932D02*
Y6939D01*
X509D01*
Y6932D01*
X502D01*
X536D02*
X549D01*
X542D01*
Y6972D01*
X536Y6965D01*
X138Y7090D02*
X98D01*
Y7060D01*
X118D01*
X98D01*
Y7030D01*
X168Y7070D02*
X188D01*
X198Y7060D01*
Y7030D01*
X168D01*
X158Y7040D01*
X168Y7050D01*
X198D01*
X218Y7030D02*
X238D01*
X228D01*
Y7090D01*
X218D01*
X308Y7070D02*
X278D01*
X268Y7060D01*
Y7040D01*
X278Y7030D01*
X308D01*
X338D02*
X358D01*
X368Y7040D01*
Y7060D01*
X358Y7070D01*
X338D01*
X328Y7060D01*
Y7040D01*
X338Y7030D01*
X388D02*
Y7070D01*
X418D01*
X428Y7060D01*
Y7030D01*
X548Y7090D02*
X508D01*
Y7060D01*
X528D01*
X508D01*
Y7030D01*
X608Y7080D02*
X598Y7090D01*
X578D01*
X568Y7080D01*
Y7040D01*
X578Y7030D01*
X598D01*
X608Y7040D01*
D49*
X5087Y2918D02*
D03*
Y2978D02*
D03*
X5027Y2918D02*
D03*
Y2978D02*
D03*
X4727Y3369D02*
D03*
Y3309D02*
D03*
X4935Y2439D02*
D03*
Y2499D02*
D03*
X4515Y2519D02*
D03*
Y2459D02*
D03*
X5575Y3323D02*
D03*
Y3263D02*
D03*
X4935Y2318D02*
D03*
Y2378D02*
D03*
X4927Y2618D02*
D03*
Y2558D02*
D03*
X5047Y3118D02*
D03*
Y3058D02*
D03*
X4515Y2399D02*
D03*
Y2339D02*
D03*
X5013Y3324D02*
D03*
Y3264D02*
D03*
X5570Y3170D02*
D03*
Y3110D02*
D03*
X6015Y2390D02*
D03*
Y2450D02*
D03*
X4338Y3738D02*
D03*
Y3678D02*
D03*
X4398Y3738D02*
D03*
Y3678D02*
D03*
X5300Y3535D02*
D03*
Y3475D02*
D03*
X2937Y2918D02*
D03*
Y2978D02*
D03*
X2877Y2918D02*
D03*
Y2978D02*
D03*
X2577Y3369D02*
D03*
Y3309D02*
D03*
X2785Y2439D02*
D03*
Y2499D02*
D03*
X2365Y2519D02*
D03*
Y2459D02*
D03*
X3425Y3323D02*
D03*
Y3263D02*
D03*
X2785Y2318D02*
D03*
Y2378D02*
D03*
X2777Y2618D02*
D03*
Y2558D02*
D03*
X2897Y3118D02*
D03*
Y3058D02*
D03*
X2365Y2399D02*
D03*
Y2339D02*
D03*
X2863Y3324D02*
D03*
Y3264D02*
D03*
X3420Y3170D02*
D03*
Y3110D02*
D03*
X3865Y2390D02*
D03*
Y2450D02*
D03*
X2188Y3738D02*
D03*
Y3678D02*
D03*
X2248Y3738D02*
D03*
Y3678D02*
D03*
X3150Y3535D02*
D03*
Y3475D02*
D03*
X787Y2918D02*
D03*
Y2978D02*
D03*
X727Y2918D02*
D03*
Y2978D02*
D03*
X427Y3369D02*
D03*
Y3309D02*
D03*
X635Y2439D02*
D03*
Y2499D02*
D03*
X215Y2519D02*
D03*
Y2459D02*
D03*
X1275Y3323D02*
D03*
Y3263D02*
D03*
X635Y2318D02*
D03*
Y2378D02*
D03*
X627Y2618D02*
D03*
Y2558D02*
D03*
X747Y3118D02*
D03*
Y3058D02*
D03*
X215Y2399D02*
D03*
Y2339D02*
D03*
X713Y3324D02*
D03*
Y3264D02*
D03*
X1270Y3170D02*
D03*
Y3110D02*
D03*
X1715Y2390D02*
D03*
Y2450D02*
D03*
X38Y3738D02*
D03*
Y3678D02*
D03*
X98Y3738D02*
D03*
Y3678D02*
D03*
X1000Y3535D02*
D03*
Y3475D02*
D03*
D50*
X5457Y3408D02*
D03*
X5397D02*
D03*
X4729Y2308D02*
D03*
X4789D02*
D03*
X5865Y3010D02*
D03*
X5925D02*
D03*
X5510Y2940D02*
D03*
X5450D02*
D03*
X5216Y3414D02*
D03*
X5156D02*
D03*
X4830Y2690D02*
D03*
X4770D02*
D03*
X6151Y3839D02*
D03*
X6091D02*
D03*
X4940Y2690D02*
D03*
X4880D02*
D03*
X5970Y2325D02*
D03*
X5910D02*
D03*
X6151Y3779D02*
D03*
X6091D02*
D03*
X3307Y3408D02*
D03*
X3247D02*
D03*
X2579Y2308D02*
D03*
X2639D02*
D03*
X3715Y3010D02*
D03*
X3775D02*
D03*
X3360Y2940D02*
D03*
X3300D02*
D03*
X3066Y3414D02*
D03*
X3006D02*
D03*
X2680Y2690D02*
D03*
X2620D02*
D03*
X4001Y3839D02*
D03*
X3941D02*
D03*
X2790Y2690D02*
D03*
X2730D02*
D03*
X3820Y2325D02*
D03*
X3760D02*
D03*
X4001Y3779D02*
D03*
X3941D02*
D03*
X1157Y3408D02*
D03*
X1097D02*
D03*
X429Y2308D02*
D03*
X489D02*
D03*
X1565Y3010D02*
D03*
X1625D02*
D03*
X1210Y2940D02*
D03*
X1150D02*
D03*
X916Y3414D02*
D03*
X856D02*
D03*
X530Y2690D02*
D03*
X470D02*
D03*
X1851Y3839D02*
D03*
X1791D02*
D03*
X640Y2690D02*
D03*
X580D02*
D03*
X1670Y2325D02*
D03*
X1610D02*
D03*
X1851Y3779D02*
D03*
X1791D02*
D03*
D52*
X5684Y2215D02*
D03*
Y2289D02*
D03*
X5778D02*
D03*
Y2252D02*
D03*
Y2215D02*
D03*
X5684Y2415D02*
D03*
Y2489D02*
D03*
X5778D02*
D03*
Y2452D02*
D03*
Y2415D02*
D03*
X3534Y2215D02*
D03*
Y2289D02*
D03*
X3628D02*
D03*
Y2252D02*
D03*
Y2215D02*
D03*
X3534Y2415D02*
D03*
Y2489D02*
D03*
X3628D02*
D03*
Y2452D02*
D03*
Y2415D02*
D03*
X1384Y2215D02*
D03*
Y2289D02*
D03*
X1478D02*
D03*
Y2252D02*
D03*
Y2215D02*
D03*
X1384Y2415D02*
D03*
Y2489D02*
D03*
X1478D02*
D03*
Y2452D02*
D03*
Y2415D02*
D03*
D57*
X4402Y3343D02*
D03*
Y2993D02*
D03*
X2252Y3343D02*
D03*
Y2993D02*
D03*
X102Y3343D02*
D03*
Y2993D02*
D03*
D58*
X4586Y3343D02*
D03*
Y2993D02*
D03*
X2436Y3343D02*
D03*
Y2993D02*
D03*
X286Y3343D02*
D03*
Y2993D02*
D03*
D60*
X4842Y2964D02*
D03*
X4768D02*
D03*
X4805Y2886D02*
D03*
X6012Y2594D02*
D03*
X5938D02*
D03*
X5975Y2516D02*
D03*
X5947Y2459D02*
D03*
X5873D02*
D03*
X5910Y2381D02*
D03*
X2692Y2964D02*
D03*
X2618D02*
D03*
X2655Y2886D02*
D03*
X3862Y2594D02*
D03*
X3788D02*
D03*
X3825Y2516D02*
D03*
X3797Y2459D02*
D03*
X3723D02*
D03*
X3760Y2381D02*
D03*
X542Y2964D02*
D03*
X468D02*
D03*
X505Y2886D02*
D03*
X1712Y2594D02*
D03*
X1638D02*
D03*
X1675Y2516D02*
D03*
X1647Y2459D02*
D03*
X1573D02*
D03*
X1610Y2381D02*
D03*
D61*
X5824Y3653D02*
D03*
Y3579D02*
D03*
X5902Y3616D02*
D03*
X4582Y3716D02*
D03*
Y3790D02*
D03*
X4504Y3753D02*
D03*
X4849Y2748D02*
D03*
Y2822D02*
D03*
X4771Y2785D02*
D03*
X5824Y3513D02*
D03*
Y3439D02*
D03*
X5902Y3476D02*
D03*
X4582Y3871D02*
D03*
Y3945D02*
D03*
X4504Y3908D02*
D03*
X3674Y3653D02*
D03*
Y3579D02*
D03*
X3752Y3616D02*
D03*
X2432Y3716D02*
D03*
Y3790D02*
D03*
X2354Y3753D02*
D03*
X2699Y2748D02*
D03*
Y2822D02*
D03*
X2621Y2785D02*
D03*
X3674Y3513D02*
D03*
Y3439D02*
D03*
X3752Y3476D02*
D03*
X2432Y3871D02*
D03*
Y3945D02*
D03*
X2354Y3908D02*
D03*
X1524Y3653D02*
D03*
Y3579D02*
D03*
X1602Y3616D02*
D03*
X282Y3716D02*
D03*
Y3790D02*
D03*
X204Y3753D02*
D03*
X549Y2748D02*
D03*
Y2822D02*
D03*
X471Y2785D02*
D03*
X1524Y3513D02*
D03*
Y3439D02*
D03*
X1602Y3476D02*
D03*
X282Y3871D02*
D03*
Y3945D02*
D03*
X204Y3908D02*
D03*
D62*
X4350Y2514D02*
D03*
Y2455D02*
D03*
X5985Y2250D02*
D03*
Y2190D02*
D03*
X4338Y3788D02*
D03*
Y3848D02*
D03*
X4410Y2514D02*
D03*
Y2455D02*
D03*
X5920Y2250D02*
D03*
Y2190D02*
D03*
X4398Y3788D02*
D03*
Y3848D02*
D03*
X2200Y2514D02*
D03*
Y2455D02*
D03*
X3835Y2250D02*
D03*
Y2190D02*
D03*
X2188Y3788D02*
D03*
Y3848D02*
D03*
X2260Y2514D02*
D03*
Y2455D02*
D03*
X3770Y2250D02*
D03*
Y2190D02*
D03*
X2248Y3788D02*
D03*
Y3848D02*
D03*
X50Y2514D02*
D03*
Y2455D02*
D03*
X1685Y2250D02*
D03*
Y2190D02*
D03*
X38Y3788D02*
D03*
Y3848D02*
D03*
X110Y2514D02*
D03*
Y2455D02*
D03*
X1620Y2250D02*
D03*
Y2190D02*
D03*
X98Y3788D02*
D03*
Y3848D02*
D03*
D63*
X6201Y3839D02*
D03*
X6261D02*
D03*
X6201Y3779D02*
D03*
X6261D02*
D03*
X4051Y3839D02*
D03*
X4111D02*
D03*
X4051Y3779D02*
D03*
X4111D02*
D03*
X1901Y3839D02*
D03*
X1961D02*
D03*
X1901Y3779D02*
D03*
X1961D02*
D03*
D67*
X5513Y1144D02*
D03*
X5555Y1102D02*
D03*
X5127Y790D02*
D03*
X5085Y832D02*
D03*
X5399Y1253D02*
D03*
X5441Y1211D02*
D03*
X3363Y1144D02*
D03*
X3405Y1102D02*
D03*
X2977Y790D02*
D03*
X2935Y832D02*
D03*
X3249Y1253D02*
D03*
X3291Y1211D02*
D03*
X1213Y1144D02*
D03*
X1255Y1102D02*
D03*
X827Y790D02*
D03*
X785Y832D02*
D03*
X1099Y1253D02*
D03*
X1141Y1211D02*
D03*
D70*
X5561Y903D02*
D03*
X5519Y861D02*
D03*
X5362Y719D02*
D03*
X5320Y677D02*
D03*
X5021Y1068D02*
D03*
X5063Y1110D02*
D03*
X3411Y903D02*
D03*
X3369Y861D02*
D03*
X3212Y719D02*
D03*
X3170Y677D02*
D03*
X2871Y1068D02*
D03*
X2913Y1110D02*
D03*
X1261Y903D02*
D03*
X1219Y861D02*
D03*
X1062Y719D02*
D03*
X1020Y677D02*
D03*
X721Y1068D02*
D03*
X763Y1110D02*
D03*
D135*
X4344Y1232D02*
D03*
Y1472D02*
D03*
Y1702D02*
D03*
X6256Y1699D02*
D03*
Y1469D02*
D03*
Y1238D02*
D03*
Y768D02*
D03*
Y539D02*
D03*
Y299D02*
D03*
X4344Y301D02*
D03*
Y541D02*
D03*
Y771D02*
D03*
X2194Y1232D02*
D03*
Y1472D02*
D03*
Y1702D02*
D03*
X4107Y1699D02*
D03*
Y1469D02*
D03*
Y1238D02*
D03*
Y768D02*
D03*
Y539D02*
D03*
Y299D02*
D03*
X2194Y301D02*
D03*
Y541D02*
D03*
Y771D02*
D03*
X43Y1232D02*
D03*
Y1472D02*
D03*
Y1702D02*
D03*
X1957Y1699D02*
D03*
Y1469D02*
D03*
Y1238D02*
D03*
Y768D02*
D03*
Y539D02*
D03*
Y299D02*
D03*
X43Y301D02*
D03*
Y541D02*
D03*
Y771D02*
D03*
D136*
X4365Y935D02*
D03*
Y1045D02*
D03*
X6235D02*
D03*
Y935D02*
D03*
X2215D02*
D03*
Y1045D02*
D03*
X4085D02*
D03*
Y935D02*
D03*
X65D02*
D03*
Y1045D02*
D03*
X1935D02*
D03*
Y935D02*
D03*
D137*
X6629Y5273D02*
D03*
Y5304D02*
D03*
Y5336D02*
D03*
Y5367D02*
D03*
Y5399D02*
D03*
X6661Y5242D02*
D03*
Y5304D02*
D03*
Y5336D02*
D03*
Y5367D02*
D03*
Y5430D02*
D03*
X6692Y5242D02*
D03*
Y5273D02*
D03*
Y5399D02*
D03*
Y5430D02*
D03*
X6724Y5242D02*
D03*
Y5273D02*
D03*
Y5399D02*
D03*
Y5430D02*
D03*
X6755Y5242D02*
D03*
Y5273D02*
D03*
Y5399D02*
D03*
Y5430D02*
D03*
X6786Y5242D02*
D03*
Y5304D02*
D03*
Y5336D02*
D03*
Y5367D02*
D03*
Y5430D02*
D03*
X6818Y5273D02*
D03*
Y5304D02*
D03*
Y5336D02*
D03*
Y5367D02*
D03*
Y5399D02*
D03*
X6629Y5913D02*
D03*
Y5944D02*
D03*
Y5976D02*
D03*
Y6007D02*
D03*
Y6039D02*
D03*
X6661Y5882D02*
D03*
Y5944D02*
D03*
Y5976D02*
D03*
Y6007D02*
D03*
Y6070D02*
D03*
X6692Y5882D02*
D03*
Y5913D02*
D03*
Y6039D02*
D03*
Y6070D02*
D03*
X6724Y5882D02*
D03*
Y5913D02*
D03*
Y6039D02*
D03*
Y6070D02*
D03*
X6755Y5882D02*
D03*
Y5913D02*
D03*
Y6039D02*
D03*
Y6070D02*
D03*
X6786Y5882D02*
D03*
Y5944D02*
D03*
Y5976D02*
D03*
Y6007D02*
D03*
Y6070D02*
D03*
X6818Y5913D02*
D03*
Y5944D02*
D03*
Y5976D02*
D03*
Y6007D02*
D03*
Y6039D02*
D03*
X6629Y6553D02*
D03*
Y6584D02*
D03*
Y6616D02*
D03*
Y6647D02*
D03*
Y6679D02*
D03*
X6661Y6522D02*
D03*
Y6584D02*
D03*
Y6616D02*
D03*
Y6647D02*
D03*
Y6710D02*
D03*
X6692Y6522D02*
D03*
Y6553D02*
D03*
Y6679D02*
D03*
Y6710D02*
D03*
X6724Y6522D02*
D03*
Y6553D02*
D03*
Y6679D02*
D03*
Y6710D02*
D03*
X6755Y6522D02*
D03*
Y6553D02*
D03*
Y6679D02*
D03*
Y6710D02*
D03*
X6786Y6522D02*
D03*
Y6584D02*
D03*
Y6616D02*
D03*
Y6647D02*
D03*
Y6710D02*
D03*
X6818Y6553D02*
D03*
Y6584D02*
D03*
Y6616D02*
D03*
Y6647D02*
D03*
Y6679D02*
D03*
X6629Y7188D02*
D03*
Y7219D02*
D03*
Y7251D02*
D03*
Y7282D02*
D03*
Y7314D02*
D03*
X6661Y7157D02*
D03*
Y7219D02*
D03*
Y7251D02*
D03*
Y7282D02*
D03*
Y7345D02*
D03*
X6692Y7157D02*
D03*
Y7188D02*
D03*
Y7314D02*
D03*
Y7345D02*
D03*
X6724Y7157D02*
D03*
Y7188D02*
D03*
Y7314D02*
D03*
Y7345D02*
D03*
X6755Y7157D02*
D03*
Y7188D02*
D03*
Y7314D02*
D03*
Y7345D02*
D03*
X6786Y7157D02*
D03*
Y7219D02*
D03*
Y7251D02*
D03*
Y7282D02*
D03*
Y7345D02*
D03*
X6818Y7188D02*
D03*
Y7219D02*
D03*
Y7251D02*
D03*
Y7282D02*
D03*
Y7314D02*
D03*
X6629Y2718D02*
D03*
Y2749D02*
D03*
Y2781D02*
D03*
Y2812D02*
D03*
Y2844D02*
D03*
X6661Y2687D02*
D03*
Y2749D02*
D03*
Y2781D02*
D03*
Y2812D02*
D03*
Y2875D02*
D03*
X6692Y2687D02*
D03*
Y2718D02*
D03*
Y2844D02*
D03*
Y2875D02*
D03*
X6724Y2687D02*
D03*
Y2718D02*
D03*
Y2844D02*
D03*
Y2875D02*
D03*
X6755Y2687D02*
D03*
Y2718D02*
D03*
Y2844D02*
D03*
Y2875D02*
D03*
X6786Y2687D02*
D03*
Y2749D02*
D03*
Y2781D02*
D03*
Y2812D02*
D03*
Y2875D02*
D03*
X6818Y2718D02*
D03*
Y2749D02*
D03*
Y2781D02*
D03*
Y2812D02*
D03*
Y2844D02*
D03*
X6629Y3358D02*
D03*
Y3389D02*
D03*
Y3421D02*
D03*
Y3452D02*
D03*
Y3484D02*
D03*
X6661Y3327D02*
D03*
Y3389D02*
D03*
Y3421D02*
D03*
Y3452D02*
D03*
Y3515D02*
D03*
X6692Y3327D02*
D03*
Y3358D02*
D03*
Y3484D02*
D03*
Y3515D02*
D03*
X6724Y3327D02*
D03*
Y3358D02*
D03*
Y3484D02*
D03*
Y3515D02*
D03*
X6755Y3327D02*
D03*
Y3358D02*
D03*
Y3484D02*
D03*
Y3515D02*
D03*
X6786Y3327D02*
D03*
Y3389D02*
D03*
Y3421D02*
D03*
Y3452D02*
D03*
Y3515D02*
D03*
X6818Y3358D02*
D03*
Y3389D02*
D03*
Y3421D02*
D03*
Y3452D02*
D03*
Y3484D02*
D03*
X6629Y3998D02*
D03*
Y4029D02*
D03*
Y4061D02*
D03*
Y4092D02*
D03*
Y4124D02*
D03*
X6661Y3967D02*
D03*
Y4029D02*
D03*
Y4061D02*
D03*
Y4092D02*
D03*
Y4155D02*
D03*
X6692Y3967D02*
D03*
Y3998D02*
D03*
Y4124D02*
D03*
Y4155D02*
D03*
X6724Y3967D02*
D03*
Y3998D02*
D03*
Y4124D02*
D03*
Y4155D02*
D03*
X6755Y3967D02*
D03*
Y3998D02*
D03*
Y4124D02*
D03*
Y4155D02*
D03*
X6786Y3967D02*
D03*
Y4029D02*
D03*
Y4061D02*
D03*
Y4092D02*
D03*
Y4155D02*
D03*
X6818Y3998D02*
D03*
Y4029D02*
D03*
Y4061D02*
D03*
Y4092D02*
D03*
Y4124D02*
D03*
X6629Y4633D02*
D03*
Y4664D02*
D03*
Y4696D02*
D03*
Y4727D02*
D03*
Y4759D02*
D03*
X6661Y4602D02*
D03*
Y4664D02*
D03*
Y4696D02*
D03*
Y4727D02*
D03*
Y4790D02*
D03*
X6692Y4602D02*
D03*
Y4633D02*
D03*
Y4759D02*
D03*
Y4790D02*
D03*
X6724Y4602D02*
D03*
Y4633D02*
D03*
Y4759D02*
D03*
Y4790D02*
D03*
X6755Y4602D02*
D03*
Y4633D02*
D03*
Y4759D02*
D03*
Y4790D02*
D03*
X6786Y4602D02*
D03*
Y4664D02*
D03*
Y4696D02*
D03*
Y4727D02*
D03*
Y4790D02*
D03*
X6818Y4633D02*
D03*
Y4664D02*
D03*
Y4696D02*
D03*
Y4727D02*
D03*
Y4759D02*
D03*
X6629Y2073D02*
D03*
Y2104D02*
D03*
Y2136D02*
D03*
Y2167D02*
D03*
Y2199D02*
D03*
X6661Y2042D02*
D03*
Y2104D02*
D03*
Y2136D02*
D03*
Y2167D02*
D03*
Y2230D02*
D03*
X6692Y2042D02*
D03*
Y2073D02*
D03*
Y2199D02*
D03*
Y2230D02*
D03*
X6724Y2042D02*
D03*
Y2073D02*
D03*
Y2199D02*
D03*
Y2230D02*
D03*
X6755Y2042D02*
D03*
Y2073D02*
D03*
Y2199D02*
D03*
Y2230D02*
D03*
X6786Y2042D02*
D03*
Y2104D02*
D03*
Y2136D02*
D03*
Y2167D02*
D03*
Y2230D02*
D03*
X6818Y2073D02*
D03*
Y2104D02*
D03*
Y2136D02*
D03*
Y2167D02*
D03*
Y2199D02*
D03*
X6629Y1438D02*
D03*
Y1469D02*
D03*
Y1501D02*
D03*
Y1532D02*
D03*
Y1564D02*
D03*
X6661Y1407D02*
D03*
Y1469D02*
D03*
Y1501D02*
D03*
Y1532D02*
D03*
Y1595D02*
D03*
X6692Y1407D02*
D03*
Y1438D02*
D03*
Y1564D02*
D03*
Y1595D02*
D03*
X6724Y1407D02*
D03*
Y1438D02*
D03*
Y1564D02*
D03*
Y1595D02*
D03*
X6755Y1407D02*
D03*
Y1438D02*
D03*
Y1564D02*
D03*
Y1595D02*
D03*
X6786Y1407D02*
D03*
Y1469D02*
D03*
Y1501D02*
D03*
Y1532D02*
D03*
Y1595D02*
D03*
X6818Y1438D02*
D03*
Y1469D02*
D03*
Y1501D02*
D03*
Y1532D02*
D03*
Y1564D02*
D03*
X6629Y798D02*
D03*
Y829D02*
D03*
Y861D02*
D03*
Y892D02*
D03*
Y924D02*
D03*
X6661Y767D02*
D03*
Y829D02*
D03*
Y861D02*
D03*
Y892D02*
D03*
Y955D02*
D03*
X6692Y767D02*
D03*
Y798D02*
D03*
Y924D02*
D03*
Y955D02*
D03*
X6724Y767D02*
D03*
Y798D02*
D03*
Y924D02*
D03*
Y955D02*
D03*
X6755Y767D02*
D03*
Y798D02*
D03*
Y924D02*
D03*
Y955D02*
D03*
X6786Y767D02*
D03*
Y829D02*
D03*
Y861D02*
D03*
Y892D02*
D03*
Y955D02*
D03*
X6818Y798D02*
D03*
Y829D02*
D03*
Y861D02*
D03*
Y892D02*
D03*
Y924D02*
D03*
X6629Y158D02*
D03*
Y189D02*
D03*
Y221D02*
D03*
Y252D02*
D03*
Y284D02*
D03*
X6661Y127D02*
D03*
Y189D02*
D03*
Y221D02*
D03*
Y252D02*
D03*
Y315D02*
D03*
X6692Y127D02*
D03*
Y158D02*
D03*
Y284D02*
D03*
Y315D02*
D03*
X6724Y127D02*
D03*
Y158D02*
D03*
Y284D02*
D03*
Y315D02*
D03*
X6755Y127D02*
D03*
Y158D02*
D03*
Y284D02*
D03*
Y315D02*
D03*
X6786Y127D02*
D03*
Y189D02*
D03*
Y221D02*
D03*
Y252D02*
D03*
Y315D02*
D03*
X6818Y158D02*
D03*
Y189D02*
D03*
Y221D02*
D03*
Y252D02*
D03*
Y284D02*
D03*
D138*
X5146Y5772D02*
D03*
Y5822D02*
D03*
Y5872D02*
D03*
Y5922D02*
D03*
Y5972D02*
D03*
Y6022D02*
D03*
Y6072D02*
D03*
X4958Y5772D02*
D03*
Y5822D02*
D03*
Y5872D02*
D03*
Y5922D02*
D03*
Y5972D02*
D03*
Y6022D02*
D03*
Y6072D02*
D03*
X5845Y1163D02*
D03*
Y1213D02*
D03*
Y1263D02*
D03*
Y1313D02*
D03*
X5657Y1163D02*
D03*
Y1213D02*
D03*
Y1263D02*
D03*
Y1313D02*
D03*
X5845Y1398D02*
D03*
Y1448D02*
D03*
Y1498D02*
D03*
Y1548D02*
D03*
X5657Y1398D02*
D03*
Y1448D02*
D03*
Y1498D02*
D03*
Y1548D02*
D03*
X5845Y1628D02*
D03*
Y1678D02*
D03*
Y1728D02*
D03*
Y1778D02*
D03*
X5657Y1628D02*
D03*
Y1678D02*
D03*
Y1728D02*
D03*
Y1778D02*
D03*
X5845Y229D02*
D03*
Y279D02*
D03*
Y329D02*
D03*
Y379D02*
D03*
X5657Y229D02*
D03*
Y279D02*
D03*
Y329D02*
D03*
Y379D02*
D03*
X5845Y464D02*
D03*
Y514D02*
D03*
Y564D02*
D03*
Y614D02*
D03*
X5657Y464D02*
D03*
Y514D02*
D03*
Y564D02*
D03*
Y614D02*
D03*
X5845Y694D02*
D03*
Y744D02*
D03*
Y794D02*
D03*
Y844D02*
D03*
X5657Y694D02*
D03*
Y744D02*
D03*
Y794D02*
D03*
Y844D02*
D03*
X3695Y1163D02*
D03*
Y1213D02*
D03*
Y1263D02*
D03*
Y1313D02*
D03*
X3507Y1163D02*
D03*
Y1213D02*
D03*
Y1263D02*
D03*
Y1313D02*
D03*
X3695Y1398D02*
D03*
Y1448D02*
D03*
Y1498D02*
D03*
Y1548D02*
D03*
X3507Y1398D02*
D03*
Y1448D02*
D03*
Y1498D02*
D03*
Y1548D02*
D03*
X3695Y1628D02*
D03*
Y1678D02*
D03*
Y1728D02*
D03*
Y1778D02*
D03*
X3507Y1628D02*
D03*
Y1678D02*
D03*
Y1728D02*
D03*
Y1778D02*
D03*
X3695Y229D02*
D03*
Y279D02*
D03*
Y329D02*
D03*
Y379D02*
D03*
X3507Y229D02*
D03*
Y279D02*
D03*
Y329D02*
D03*
Y379D02*
D03*
X3695Y464D02*
D03*
Y514D02*
D03*
Y564D02*
D03*
Y614D02*
D03*
X3507Y464D02*
D03*
Y514D02*
D03*
Y564D02*
D03*
Y614D02*
D03*
X3695Y694D02*
D03*
Y744D02*
D03*
Y794D02*
D03*
Y844D02*
D03*
X3507Y694D02*
D03*
Y744D02*
D03*
Y794D02*
D03*
Y844D02*
D03*
X2996Y5772D02*
D03*
Y5822D02*
D03*
Y5872D02*
D03*
Y5922D02*
D03*
Y5972D02*
D03*
Y6022D02*
D03*
Y6072D02*
D03*
X2808Y5772D02*
D03*
Y5822D02*
D03*
Y5872D02*
D03*
Y5922D02*
D03*
Y5972D02*
D03*
Y6022D02*
D03*
Y6072D02*
D03*
X846Y5772D02*
D03*
Y5822D02*
D03*
Y5872D02*
D03*
Y5922D02*
D03*
Y5972D02*
D03*
Y6022D02*
D03*
Y6072D02*
D03*
X658Y5772D02*
D03*
Y5822D02*
D03*
Y5872D02*
D03*
Y5922D02*
D03*
Y5972D02*
D03*
Y6022D02*
D03*
Y6072D02*
D03*
X1545Y1163D02*
D03*
Y1213D02*
D03*
Y1263D02*
D03*
Y1313D02*
D03*
X1357Y1163D02*
D03*
Y1213D02*
D03*
Y1263D02*
D03*
Y1313D02*
D03*
X1545Y1398D02*
D03*
Y1448D02*
D03*
Y1498D02*
D03*
Y1548D02*
D03*
X1357Y1398D02*
D03*
Y1448D02*
D03*
Y1498D02*
D03*
Y1548D02*
D03*
X1545Y1628D02*
D03*
Y1678D02*
D03*
Y1728D02*
D03*
Y1778D02*
D03*
X1357Y1628D02*
D03*
Y1678D02*
D03*
Y1728D02*
D03*
Y1778D02*
D03*
X1545Y229D02*
D03*
Y279D02*
D03*
Y329D02*
D03*
Y379D02*
D03*
X1357Y229D02*
D03*
Y279D02*
D03*
Y329D02*
D03*
Y379D02*
D03*
X1545Y464D02*
D03*
Y514D02*
D03*
Y564D02*
D03*
Y614D02*
D03*
X1357Y464D02*
D03*
Y514D02*
D03*
Y564D02*
D03*
Y614D02*
D03*
X1545Y694D02*
D03*
Y744D02*
D03*
Y794D02*
D03*
Y844D02*
D03*
X1357Y694D02*
D03*
Y744D02*
D03*
Y794D02*
D03*
Y844D02*
D03*
D139*
X5125Y4363D02*
D03*
Y4531D02*
D03*
X5175D02*
D03*
X5225D02*
D03*
X5275D02*
D03*
X5325D02*
D03*
X5375D02*
D03*
X5425D02*
D03*
X5475D02*
D03*
X5525D02*
D03*
X5575D02*
D03*
X5175Y4363D02*
D03*
X5225D02*
D03*
X5275D02*
D03*
X5325D02*
D03*
X5375D02*
D03*
X5425D02*
D03*
X5475D02*
D03*
X5525D02*
D03*
X5575D02*
D03*
X5125Y2213D02*
D03*
X5175D02*
D03*
X5225D02*
D03*
X5275D02*
D03*
X5325D02*
D03*
X5375D02*
D03*
X5425D02*
D03*
X5475D02*
D03*
Y2381D02*
D03*
X5425D02*
D03*
X5375D02*
D03*
X5325D02*
D03*
X5275D02*
D03*
X5225D02*
D03*
X5175D02*
D03*
X5125D02*
D03*
Y231D02*
D03*
X5175D02*
D03*
X5225D02*
D03*
X5275D02*
D03*
X5325D02*
D03*
X5375D02*
D03*
X5425D02*
D03*
X5475D02*
D03*
Y63D02*
D03*
X5425D02*
D03*
X5375D02*
D03*
X5325D02*
D03*
X5275D02*
D03*
X5225D02*
D03*
X5175D02*
D03*
X5125D02*
D03*
X2975Y231D02*
D03*
X3025D02*
D03*
X3075D02*
D03*
X3125D02*
D03*
X3175D02*
D03*
X3225D02*
D03*
X3275D02*
D03*
X3325D02*
D03*
Y63D02*
D03*
X3275D02*
D03*
X3225D02*
D03*
X3175D02*
D03*
X3125D02*
D03*
X3075D02*
D03*
X3025D02*
D03*
X2975D02*
D03*
Y2213D02*
D03*
X3025D02*
D03*
X3075D02*
D03*
X3125D02*
D03*
X3175D02*
D03*
X3225D02*
D03*
X3275D02*
D03*
X3325D02*
D03*
Y2381D02*
D03*
X3275D02*
D03*
X3225D02*
D03*
X3175D02*
D03*
X3125D02*
D03*
X3075D02*
D03*
X3025D02*
D03*
X2975D02*
D03*
Y4363D02*
D03*
Y4531D02*
D03*
X3025D02*
D03*
X3075D02*
D03*
X3125D02*
D03*
X3175D02*
D03*
X3225D02*
D03*
X3275D02*
D03*
X3325D02*
D03*
X3375D02*
D03*
X3425D02*
D03*
X3025Y4363D02*
D03*
X3075D02*
D03*
X3125D02*
D03*
X3175D02*
D03*
X3225D02*
D03*
X3275D02*
D03*
X3325D02*
D03*
X3375D02*
D03*
X3425D02*
D03*
X825D02*
D03*
Y4531D02*
D03*
X875D02*
D03*
X925D02*
D03*
X975D02*
D03*
X1025D02*
D03*
X1075D02*
D03*
X1125D02*
D03*
X1175D02*
D03*
X1225D02*
D03*
X1275D02*
D03*
X875Y4363D02*
D03*
X925D02*
D03*
X975D02*
D03*
X1025D02*
D03*
X1075D02*
D03*
X1125D02*
D03*
X1175D02*
D03*
X1225D02*
D03*
X1275D02*
D03*
X825Y2213D02*
D03*
X875D02*
D03*
X925D02*
D03*
X975D02*
D03*
X1025D02*
D03*
X1075D02*
D03*
X1125D02*
D03*
X1175D02*
D03*
Y2381D02*
D03*
X1125D02*
D03*
X1075D02*
D03*
X1025D02*
D03*
X975D02*
D03*
X925D02*
D03*
X875D02*
D03*
X825D02*
D03*
Y231D02*
D03*
X875D02*
D03*
X925D02*
D03*
X975D02*
D03*
X1025D02*
D03*
X1075D02*
D03*
X1125D02*
D03*
X1175D02*
D03*
Y63D02*
D03*
X1125D02*
D03*
X1075D02*
D03*
X1025D02*
D03*
X975D02*
D03*
X925D02*
D03*
X875D02*
D03*
X825D02*
D03*
D140*
X4341Y4871D02*
D03*
X6222Y5391D02*
D03*
Y5333D02*
D03*
X6221Y5275D02*
D03*
X5458Y5356D02*
D03*
X5541Y4608D02*
D03*
X2191Y4871D02*
D03*
X4072Y5391D02*
D03*
Y5333D02*
D03*
X4071Y5275D02*
D03*
X3308Y5356D02*
D03*
X3391Y4608D02*
D03*
X41Y4871D02*
D03*
X1922Y5391D02*
D03*
Y5333D02*
D03*
X1921Y5275D02*
D03*
X1158Y5356D02*
D03*
X1241Y4608D02*
D03*
X5375Y1591D02*
D03*
X3225D02*
D03*
X1075D02*
D03*
D141*
X5431Y5456D02*
D03*
Y5496D02*
D03*
X5485D02*
D03*
Y5456D02*
D03*
X5581Y5455D02*
D03*
Y5495D02*
D03*
X5635D02*
D03*
Y5455D02*
D03*
X3281Y5456D02*
D03*
Y5496D02*
D03*
X3335D02*
D03*
Y5456D02*
D03*
X3431Y5455D02*
D03*
Y5495D02*
D03*
X3485D02*
D03*
Y5455D02*
D03*
X1131Y5456D02*
D03*
Y5496D02*
D03*
X1185D02*
D03*
Y5456D02*
D03*
X1281Y5455D02*
D03*
Y5495D02*
D03*
X1335D02*
D03*
Y5455D02*
D03*
D142*
X5431Y5476D02*
D03*
X5485D02*
D03*
X5581Y5475D02*
D03*
X5635D02*
D03*
X3281Y5476D02*
D03*
X3335D02*
D03*
X3431Y5475D02*
D03*
X3485D02*
D03*
X1131Y5476D02*
D03*
X1185D02*
D03*
X1281Y5475D02*
D03*
X1335D02*
D03*
D143*
X5899Y4419D02*
D03*
Y4573D02*
D03*
X3749Y4419D02*
D03*
Y4573D02*
D03*
X1599Y4419D02*
D03*
Y4573D02*
D03*
D144*
X5338Y4960D02*
D03*
Y5078D02*
D03*
X3188Y4960D02*
D03*
Y5078D02*
D03*
X1038Y4960D02*
D03*
Y5078D02*
D03*
D145*
X6029Y4827D02*
D03*
X3879D02*
D03*
X1729D02*
D03*
D146*
X5939Y4714D02*
D03*
X5965D02*
D03*
X5991D02*
D03*
X6016D02*
D03*
X6042D02*
D03*
X6067D02*
D03*
X6093D02*
D03*
X6119D02*
D03*
X5939Y4940D02*
D03*
X5965D02*
D03*
X5991D02*
D03*
X6016D02*
D03*
X6042D02*
D03*
X6067D02*
D03*
X6093D02*
D03*
X6119D02*
D03*
X3789Y4714D02*
D03*
X3815D02*
D03*
X3841D02*
D03*
X3866D02*
D03*
X3892D02*
D03*
X3917D02*
D03*
X3943D02*
D03*
X3969D02*
D03*
X3789Y4940D02*
D03*
X3815D02*
D03*
X3841D02*
D03*
X3866D02*
D03*
X3892D02*
D03*
X3917D02*
D03*
X3943D02*
D03*
X3969D02*
D03*
X1639Y4714D02*
D03*
X1665D02*
D03*
X1691D02*
D03*
X1716D02*
D03*
X1742D02*
D03*
X1767D02*
D03*
X1793D02*
D03*
X1819D02*
D03*
X1639Y4940D02*
D03*
X1665D02*
D03*
X1691D02*
D03*
X1716D02*
D03*
X1742D02*
D03*
X1767D02*
D03*
X1793D02*
D03*
X1819D02*
D03*
D147*
X4947Y5326D02*
D03*
Y5306D02*
D03*
Y5287D02*
D03*
Y5267D02*
D03*
Y5247D02*
D03*
Y5228D02*
D03*
Y5208D02*
D03*
Y5188D02*
D03*
Y5169D02*
D03*
Y5149D02*
D03*
Y5129D02*
D03*
Y5109D02*
D03*
Y5090D02*
D03*
Y5070D02*
D03*
Y5050D02*
D03*
Y5031D02*
D03*
Y5011D02*
D03*
Y4991D02*
D03*
Y4972D02*
D03*
Y4952D02*
D03*
X4429D02*
D03*
Y4972D02*
D03*
Y4991D02*
D03*
Y5011D02*
D03*
Y5031D02*
D03*
Y5050D02*
D03*
Y5070D02*
D03*
Y5090D02*
D03*
Y5109D02*
D03*
Y5129D02*
D03*
Y5149D02*
D03*
Y5169D02*
D03*
Y5188D02*
D03*
Y5208D02*
D03*
Y5228D02*
D03*
Y5247D02*
D03*
Y5267D02*
D03*
Y5287D02*
D03*
Y5306D02*
D03*
Y5326D02*
D03*
X2797D02*
D03*
Y5306D02*
D03*
Y5287D02*
D03*
Y5267D02*
D03*
Y5247D02*
D03*
Y5228D02*
D03*
Y5208D02*
D03*
Y5188D02*
D03*
Y5169D02*
D03*
Y5149D02*
D03*
Y5129D02*
D03*
Y5109D02*
D03*
Y5090D02*
D03*
Y5070D02*
D03*
Y5050D02*
D03*
Y5031D02*
D03*
Y5011D02*
D03*
Y4991D02*
D03*
Y4972D02*
D03*
Y4952D02*
D03*
X2279D02*
D03*
Y4972D02*
D03*
Y4991D02*
D03*
Y5011D02*
D03*
Y5031D02*
D03*
Y5050D02*
D03*
Y5070D02*
D03*
Y5090D02*
D03*
Y5109D02*
D03*
Y5129D02*
D03*
Y5149D02*
D03*
Y5169D02*
D03*
Y5188D02*
D03*
Y5208D02*
D03*
Y5228D02*
D03*
Y5247D02*
D03*
Y5267D02*
D03*
Y5287D02*
D03*
Y5306D02*
D03*
Y5326D02*
D03*
X647D02*
D03*
Y5306D02*
D03*
Y5287D02*
D03*
Y5267D02*
D03*
Y5247D02*
D03*
Y5228D02*
D03*
Y5208D02*
D03*
Y5188D02*
D03*
Y5169D02*
D03*
Y5149D02*
D03*
Y5129D02*
D03*
Y5109D02*
D03*
Y5090D02*
D03*
Y5070D02*
D03*
Y5050D02*
D03*
Y5031D02*
D03*
Y5011D02*
D03*
Y4991D02*
D03*
Y4972D02*
D03*
Y4952D02*
D03*
X129D02*
D03*
Y4972D02*
D03*
Y4991D02*
D03*
Y5011D02*
D03*
Y5031D02*
D03*
Y5050D02*
D03*
Y5070D02*
D03*
Y5090D02*
D03*
Y5109D02*
D03*
Y5129D02*
D03*
Y5149D02*
D03*
Y5169D02*
D03*
Y5188D02*
D03*
Y5208D02*
D03*
Y5228D02*
D03*
Y5247D02*
D03*
Y5267D02*
D03*
Y5287D02*
D03*
Y5306D02*
D03*
Y5326D02*
D03*
D148*
X4875Y4880D02*
D03*
X4855D02*
D03*
X4836D02*
D03*
X4816D02*
D03*
X4796D02*
D03*
X4777D02*
D03*
X4757D02*
D03*
X4737D02*
D03*
X4718D02*
D03*
X4698D02*
D03*
X4678D02*
D03*
X4658D02*
D03*
X4639D02*
D03*
X4619D02*
D03*
X4599D02*
D03*
X4580D02*
D03*
X4560D02*
D03*
X4540D02*
D03*
X4521D02*
D03*
X4501D02*
D03*
Y5398D02*
D03*
X4521D02*
D03*
X4540D02*
D03*
X4560D02*
D03*
X4580D02*
D03*
X4599D02*
D03*
X4619D02*
D03*
X4639D02*
D03*
X4658D02*
D03*
X4678D02*
D03*
X4698D02*
D03*
X4718D02*
D03*
X4737D02*
D03*
X4757D02*
D03*
X4777D02*
D03*
X4796D02*
D03*
X4816D02*
D03*
X4836D02*
D03*
X4855D02*
D03*
X4875D02*
D03*
X2725Y4880D02*
D03*
X2705D02*
D03*
X2686D02*
D03*
X2666D02*
D03*
X2646D02*
D03*
X2627D02*
D03*
X2607D02*
D03*
X2587D02*
D03*
X2568D02*
D03*
X2548D02*
D03*
X2528D02*
D03*
X2508D02*
D03*
X2489D02*
D03*
X2469D02*
D03*
X2449D02*
D03*
X2430D02*
D03*
X2410D02*
D03*
X2390D02*
D03*
X2371D02*
D03*
X2351D02*
D03*
Y5398D02*
D03*
X2371D02*
D03*
X2390D02*
D03*
X2410D02*
D03*
X2430D02*
D03*
X2449D02*
D03*
X2469D02*
D03*
X2489D02*
D03*
X2508D02*
D03*
X2528D02*
D03*
X2548D02*
D03*
X2568D02*
D03*
X2587D02*
D03*
X2607D02*
D03*
X2627D02*
D03*
X2646D02*
D03*
X2666D02*
D03*
X2686D02*
D03*
X2705D02*
D03*
X2725D02*
D03*
X575Y4880D02*
D03*
X555D02*
D03*
X536D02*
D03*
X516D02*
D03*
X496D02*
D03*
X477D02*
D03*
X457D02*
D03*
X437D02*
D03*
X418D02*
D03*
X398D02*
D03*
X378D02*
D03*
X358D02*
D03*
X339D02*
D03*
X319D02*
D03*
X299D02*
D03*
X280D02*
D03*
X260D02*
D03*
X240D02*
D03*
X221D02*
D03*
X201D02*
D03*
Y5398D02*
D03*
X221D02*
D03*
X240D02*
D03*
X260D02*
D03*
X280D02*
D03*
X299D02*
D03*
X319D02*
D03*
X339D02*
D03*
X358D02*
D03*
X378D02*
D03*
X398D02*
D03*
X418D02*
D03*
X437D02*
D03*
X457D02*
D03*
X477D02*
D03*
X496D02*
D03*
X516D02*
D03*
X536D02*
D03*
X555D02*
D03*
X575D02*
D03*
D149*
X5587Y6019D02*
D03*
X5637D02*
D03*
X5687D02*
D03*
X5737D02*
D03*
Y5749D02*
D03*
X5687D02*
D03*
X5637D02*
D03*
X5587D02*
D03*
X3437Y6019D02*
D03*
X3487D02*
D03*
X3537D02*
D03*
X3587D02*
D03*
Y5749D02*
D03*
X3537D02*
D03*
X3487D02*
D03*
X3437D02*
D03*
X1287Y6019D02*
D03*
X1337D02*
D03*
X1387D02*
D03*
X1437D02*
D03*
Y5749D02*
D03*
X1387D02*
D03*
X1337D02*
D03*
X1287D02*
D03*
D150*
X5797Y5959D02*
D03*
Y5909D02*
D03*
Y5859D02*
D03*
Y5809D02*
D03*
X5527D02*
D03*
Y5859D02*
D03*
Y5909D02*
D03*
Y5959D02*
D03*
X3647D02*
D03*
Y5909D02*
D03*
Y5859D02*
D03*
Y5809D02*
D03*
X3377D02*
D03*
Y5859D02*
D03*
Y5909D02*
D03*
Y5959D02*
D03*
X1497D02*
D03*
Y5909D02*
D03*
Y5859D02*
D03*
Y5809D02*
D03*
X1227D02*
D03*
Y5859D02*
D03*
Y5909D02*
D03*
Y5959D02*
D03*
D151*
X5588Y6199D02*
D03*
X6150Y5930D02*
D03*
X4493Y5670D02*
D03*
X4661Y5679D02*
D03*
X4493Y5611D02*
D03*
X5580Y5356D02*
D03*
X5640Y5579D02*
D03*
X5533Y5604D02*
D03*
X6150Y5755D02*
D03*
Y5812D02*
D03*
Y5870D02*
D03*
X5291Y5990D02*
D03*
X3438Y6199D02*
D03*
X4000Y5930D02*
D03*
X2343Y5670D02*
D03*
X2511Y5679D02*
D03*
X2343Y5611D02*
D03*
X3430Y5356D02*
D03*
X3490Y5579D02*
D03*
X3383Y5604D02*
D03*
X4000Y5755D02*
D03*
Y5812D02*
D03*
Y5870D02*
D03*
X3141Y5990D02*
D03*
X1288Y6199D02*
D03*
X1850Y5930D02*
D03*
X193Y5670D02*
D03*
X361Y5679D02*
D03*
X193Y5611D02*
D03*
X1280Y5356D02*
D03*
X1340Y5579D02*
D03*
X1233Y5604D02*
D03*
X1850Y5755D02*
D03*
Y5812D02*
D03*
Y5870D02*
D03*
X991Y5990D02*
D03*
D152*
X4503Y4651D02*
D03*
X4877D02*
D03*
X2353D02*
D03*
X2727D02*
D03*
X203D02*
D03*
X577D02*
D03*
D153*
X5315Y8332D02*
D03*
X5340D02*
D03*
X5366D02*
D03*
X5391D02*
D03*
Y8194D02*
D03*
X5366D02*
D03*
X5340D02*
D03*
X5315D02*
D03*
X3165Y8332D02*
D03*
X3190D02*
D03*
X3216D02*
D03*
X3241D02*
D03*
Y8194D02*
D03*
X3216D02*
D03*
X3190D02*
D03*
X3165D02*
D03*
X1015Y8332D02*
D03*
X1040D02*
D03*
X1066D02*
D03*
X1091D02*
D03*
Y8194D02*
D03*
X1066D02*
D03*
X1040D02*
D03*
X1015D02*
D03*
D154*
X5422Y8301D02*
D03*
Y8276D02*
D03*
Y8250D02*
D03*
Y8225D02*
D03*
X5284D02*
D03*
Y8250D02*
D03*
Y8276D02*
D03*
Y8301D02*
D03*
X3272D02*
D03*
Y8276D02*
D03*
Y8250D02*
D03*
Y8225D02*
D03*
X3134D02*
D03*
Y8250D02*
D03*
Y8276D02*
D03*
Y8301D02*
D03*
X1122D02*
D03*
Y8276D02*
D03*
Y8250D02*
D03*
Y8225D02*
D03*
X984D02*
D03*
Y8250D02*
D03*
Y8276D02*
D03*
Y8301D02*
D03*
D155*
X5353Y8263D02*
D03*
X3203D02*
D03*
X1053D02*
D03*
D156*
X4848Y2359D02*
D03*
Y2385D02*
D03*
Y2411D02*
D03*
Y2436D02*
D03*
Y2462D02*
D03*
Y2487D02*
D03*
Y2513D02*
D03*
Y2539D02*
D03*
X4622Y2359D02*
D03*
Y2385D02*
D03*
Y2411D02*
D03*
Y2436D02*
D03*
Y2462D02*
D03*
Y2487D02*
D03*
Y2513D02*
D03*
Y2539D02*
D03*
X2698Y2359D02*
D03*
Y2385D02*
D03*
Y2411D02*
D03*
Y2436D02*
D03*
Y2462D02*
D03*
Y2487D02*
D03*
Y2513D02*
D03*
Y2539D02*
D03*
X2472Y2359D02*
D03*
Y2385D02*
D03*
Y2411D02*
D03*
Y2436D02*
D03*
Y2462D02*
D03*
Y2487D02*
D03*
Y2513D02*
D03*
Y2539D02*
D03*
X548Y2359D02*
D03*
Y2385D02*
D03*
Y2411D02*
D03*
Y2436D02*
D03*
Y2462D02*
D03*
Y2487D02*
D03*
Y2513D02*
D03*
Y2539D02*
D03*
X322Y2359D02*
D03*
Y2385D02*
D03*
Y2411D02*
D03*
Y2436D02*
D03*
Y2462D02*
D03*
Y2487D02*
D03*
Y2513D02*
D03*
Y2539D02*
D03*
D157*
X5863Y3050D02*
D03*
Y3075D02*
D03*
Y3101D02*
D03*
Y3127D02*
D03*
Y3152D02*
D03*
Y3178D02*
D03*
Y3203D02*
D03*
Y3229D02*
D03*
Y3255D02*
D03*
Y3280D02*
D03*
X5639Y3050D02*
D03*
Y3075D02*
D03*
Y3101D02*
D03*
Y3127D02*
D03*
Y3152D02*
D03*
Y3178D02*
D03*
Y3203D02*
D03*
Y3229D02*
D03*
Y3255D02*
D03*
Y3280D02*
D03*
X3713Y3050D02*
D03*
Y3075D02*
D03*
Y3101D02*
D03*
Y3127D02*
D03*
Y3152D02*
D03*
Y3178D02*
D03*
Y3203D02*
D03*
Y3229D02*
D03*
Y3255D02*
D03*
Y3280D02*
D03*
X3489Y3050D02*
D03*
Y3075D02*
D03*
Y3101D02*
D03*
Y3127D02*
D03*
Y3152D02*
D03*
Y3178D02*
D03*
Y3203D02*
D03*
Y3229D02*
D03*
Y3255D02*
D03*
Y3280D02*
D03*
X1563Y3050D02*
D03*
Y3075D02*
D03*
Y3101D02*
D03*
Y3127D02*
D03*
Y3152D02*
D03*
Y3178D02*
D03*
Y3203D02*
D03*
Y3229D02*
D03*
Y3255D02*
D03*
Y3280D02*
D03*
X1339Y3050D02*
D03*
Y3075D02*
D03*
Y3101D02*
D03*
Y3127D02*
D03*
Y3152D02*
D03*
Y3178D02*
D03*
Y3203D02*
D03*
Y3229D02*
D03*
Y3255D02*
D03*
Y3280D02*
D03*
D158*
X5307Y3168D02*
D03*
X3157D02*
D03*
X1007D02*
D03*
D159*
X5125Y3020D02*
D03*
Y3040D02*
D03*
Y3060D02*
D03*
Y3079D02*
D03*
Y3099D02*
D03*
Y3119D02*
D03*
Y3138D02*
D03*
Y3158D02*
D03*
Y3178D02*
D03*
Y3198D02*
D03*
Y3217D02*
D03*
Y3237D02*
D03*
Y3257D02*
D03*
Y3276D02*
D03*
Y3296D02*
D03*
Y3316D02*
D03*
X5489D02*
D03*
Y3296D02*
D03*
Y3276D02*
D03*
Y3257D02*
D03*
Y3237D02*
D03*
Y3217D02*
D03*
Y3198D02*
D03*
Y3178D02*
D03*
Y3158D02*
D03*
Y3138D02*
D03*
Y3119D02*
D03*
Y3099D02*
D03*
Y3079D02*
D03*
Y3060D02*
D03*
Y3040D02*
D03*
Y3020D02*
D03*
X2975D02*
D03*
Y3040D02*
D03*
Y3060D02*
D03*
Y3079D02*
D03*
Y3099D02*
D03*
Y3119D02*
D03*
Y3138D02*
D03*
Y3158D02*
D03*
Y3178D02*
D03*
Y3198D02*
D03*
Y3217D02*
D03*
Y3237D02*
D03*
Y3257D02*
D03*
Y3276D02*
D03*
Y3296D02*
D03*
Y3316D02*
D03*
X3339D02*
D03*
Y3296D02*
D03*
Y3276D02*
D03*
Y3257D02*
D03*
Y3237D02*
D03*
Y3217D02*
D03*
Y3198D02*
D03*
Y3178D02*
D03*
Y3158D02*
D03*
Y3138D02*
D03*
Y3119D02*
D03*
Y3099D02*
D03*
Y3079D02*
D03*
Y3060D02*
D03*
Y3040D02*
D03*
Y3020D02*
D03*
X825D02*
D03*
Y3040D02*
D03*
Y3060D02*
D03*
Y3079D02*
D03*
Y3099D02*
D03*
Y3119D02*
D03*
Y3138D02*
D03*
Y3158D02*
D03*
Y3178D02*
D03*
Y3198D02*
D03*
Y3217D02*
D03*
Y3237D02*
D03*
Y3257D02*
D03*
Y3276D02*
D03*
Y3296D02*
D03*
Y3316D02*
D03*
X1189D02*
D03*
Y3296D02*
D03*
Y3276D02*
D03*
Y3257D02*
D03*
Y3237D02*
D03*
Y3217D02*
D03*
Y3198D02*
D03*
Y3178D02*
D03*
Y3158D02*
D03*
Y3138D02*
D03*
Y3119D02*
D03*
Y3099D02*
D03*
Y3079D02*
D03*
Y3060D02*
D03*
Y3040D02*
D03*
Y3020D02*
D03*
D160*
X5159Y3350D02*
D03*
X5179D02*
D03*
X5199D02*
D03*
X5218D02*
D03*
X5238D02*
D03*
X5258D02*
D03*
X5277D02*
D03*
X5297D02*
D03*
X5317D02*
D03*
X5337D02*
D03*
X5356D02*
D03*
X5376D02*
D03*
X5396D02*
D03*
X5415D02*
D03*
X5435D02*
D03*
X5455D02*
D03*
Y2986D02*
D03*
X5435D02*
D03*
X5415D02*
D03*
X5396D02*
D03*
X5376D02*
D03*
X5356D02*
D03*
X5337D02*
D03*
X5317D02*
D03*
X5297D02*
D03*
X5277D02*
D03*
X5258D02*
D03*
X5238D02*
D03*
X5218D02*
D03*
X5199D02*
D03*
X5179D02*
D03*
X5159D02*
D03*
X3009Y3350D02*
D03*
X3029D02*
D03*
X3049D02*
D03*
X3068D02*
D03*
X3088D02*
D03*
X3108D02*
D03*
X3127D02*
D03*
X3147D02*
D03*
X3167D02*
D03*
X3187D02*
D03*
X3206D02*
D03*
X3226D02*
D03*
X3246D02*
D03*
X3265D02*
D03*
X3285D02*
D03*
X3305D02*
D03*
Y2986D02*
D03*
X3285D02*
D03*
X3265D02*
D03*
X3246D02*
D03*
X3226D02*
D03*
X3206D02*
D03*
X3187D02*
D03*
X3167D02*
D03*
X3147D02*
D03*
X3127D02*
D03*
X3108D02*
D03*
X3088D02*
D03*
X3068D02*
D03*
X3049D02*
D03*
X3029D02*
D03*
X3009D02*
D03*
X859Y3350D02*
D03*
X879D02*
D03*
X899D02*
D03*
X918D02*
D03*
X938D02*
D03*
X958D02*
D03*
X977D02*
D03*
X997D02*
D03*
X1017D02*
D03*
X1037D02*
D03*
X1056D02*
D03*
X1076D02*
D03*
X1096D02*
D03*
X1115D02*
D03*
X1135D02*
D03*
X1155D02*
D03*
Y2986D02*
D03*
X1135D02*
D03*
X1115D02*
D03*
X1096D02*
D03*
X1076D02*
D03*
X1056D02*
D03*
X1037D02*
D03*
X1017D02*
D03*
X997D02*
D03*
X977D02*
D03*
X958D02*
D03*
X938D02*
D03*
X918D02*
D03*
X899D02*
D03*
X879D02*
D03*
X859D02*
D03*
D161*
X4588Y3168D02*
D03*
Y3199D02*
D03*
Y3231D02*
D03*
Y3137D02*
D03*
Y3105D02*
D03*
X2438Y3168D02*
D03*
Y3199D02*
D03*
Y3231D02*
D03*
Y3137D02*
D03*
Y3105D02*
D03*
X288Y3168D02*
D03*
Y3199D02*
D03*
Y3231D02*
D03*
Y3137D02*
D03*
Y3105D02*
D03*
D162*
X5789Y1915D02*
D03*
X6025D02*
D03*
X5705Y998D02*
D03*
X5941D02*
D03*
X4680Y89D02*
D03*
X4916D02*
D03*
X4639Y973D02*
D03*
X4875D02*
D03*
X3639Y1915D02*
D03*
X3875D02*
D03*
X3555Y998D02*
D03*
X3791D02*
D03*
X2530Y89D02*
D03*
X2766D02*
D03*
X2489Y973D02*
D03*
X2725D02*
D03*
X1489Y1915D02*
D03*
X1725D02*
D03*
X1405Y998D02*
D03*
X1641D02*
D03*
X380Y89D02*
D03*
X616D02*
D03*
X339Y973D02*
D03*
X575D02*
D03*
D163*
X5965Y1313D02*
D03*
Y1263D02*
D03*
Y1213D02*
D03*
Y1163D02*
D03*
X6177Y1313D02*
D03*
Y1263D02*
D03*
Y1213D02*
D03*
Y1163D02*
D03*
X5965Y1548D02*
D03*
Y1498D02*
D03*
Y1448D02*
D03*
Y1398D02*
D03*
X6177Y1548D02*
D03*
Y1498D02*
D03*
Y1448D02*
D03*
Y1398D02*
D03*
X5965Y1778D02*
D03*
Y1728D02*
D03*
Y1678D02*
D03*
Y1628D02*
D03*
X6177Y1778D02*
D03*
Y1728D02*
D03*
Y1678D02*
D03*
Y1628D02*
D03*
X4423Y1312D02*
D03*
Y1262D02*
D03*
Y1212D02*
D03*
Y1162D02*
D03*
X4635Y1312D02*
D03*
Y1262D02*
D03*
Y1212D02*
D03*
Y1162D02*
D03*
X4422Y376D02*
D03*
Y326D02*
D03*
Y276D02*
D03*
Y226D02*
D03*
X4634Y376D02*
D03*
Y326D02*
D03*
Y276D02*
D03*
Y226D02*
D03*
X4423Y1547D02*
D03*
Y1497D02*
D03*
Y1447D02*
D03*
Y1397D02*
D03*
X4635Y1547D02*
D03*
Y1497D02*
D03*
Y1447D02*
D03*
Y1397D02*
D03*
X4422Y611D02*
D03*
Y561D02*
D03*
Y511D02*
D03*
Y461D02*
D03*
X4634Y611D02*
D03*
Y561D02*
D03*
Y511D02*
D03*
Y461D02*
D03*
X4423Y1777D02*
D03*
Y1727D02*
D03*
Y1677D02*
D03*
Y1627D02*
D03*
X4635Y1777D02*
D03*
Y1727D02*
D03*
Y1677D02*
D03*
Y1627D02*
D03*
X4422Y841D02*
D03*
Y791D02*
D03*
Y741D02*
D03*
Y691D02*
D03*
X4634Y841D02*
D03*
Y791D02*
D03*
Y741D02*
D03*
Y691D02*
D03*
X5965Y379D02*
D03*
Y329D02*
D03*
Y279D02*
D03*
Y229D02*
D03*
X6177Y379D02*
D03*
Y329D02*
D03*
Y279D02*
D03*
Y229D02*
D03*
X5965Y614D02*
D03*
Y564D02*
D03*
Y514D02*
D03*
Y464D02*
D03*
X6177Y614D02*
D03*
Y564D02*
D03*
Y514D02*
D03*
Y464D02*
D03*
X5965Y844D02*
D03*
Y794D02*
D03*
Y744D02*
D03*
Y694D02*
D03*
X6177Y844D02*
D03*
Y794D02*
D03*
Y744D02*
D03*
Y694D02*
D03*
X3815Y1313D02*
D03*
Y1263D02*
D03*
Y1213D02*
D03*
Y1163D02*
D03*
X4027Y1313D02*
D03*
Y1263D02*
D03*
Y1213D02*
D03*
Y1163D02*
D03*
X3815Y1548D02*
D03*
Y1498D02*
D03*
Y1448D02*
D03*
Y1398D02*
D03*
X4027Y1548D02*
D03*
Y1498D02*
D03*
Y1448D02*
D03*
Y1398D02*
D03*
X3815Y1778D02*
D03*
Y1728D02*
D03*
Y1678D02*
D03*
Y1628D02*
D03*
X4027Y1778D02*
D03*
Y1728D02*
D03*
Y1678D02*
D03*
Y1628D02*
D03*
X2273Y1312D02*
D03*
Y1262D02*
D03*
Y1212D02*
D03*
Y1162D02*
D03*
X2485Y1312D02*
D03*
Y1262D02*
D03*
Y1212D02*
D03*
Y1162D02*
D03*
X2272Y376D02*
D03*
Y326D02*
D03*
Y276D02*
D03*
Y226D02*
D03*
X2484Y376D02*
D03*
Y326D02*
D03*
Y276D02*
D03*
Y226D02*
D03*
X2273Y1547D02*
D03*
Y1497D02*
D03*
Y1447D02*
D03*
Y1397D02*
D03*
X2485Y1547D02*
D03*
Y1497D02*
D03*
Y1447D02*
D03*
Y1397D02*
D03*
X2272Y611D02*
D03*
Y561D02*
D03*
Y511D02*
D03*
Y461D02*
D03*
X2484Y611D02*
D03*
Y561D02*
D03*
Y511D02*
D03*
Y461D02*
D03*
X2273Y1777D02*
D03*
Y1727D02*
D03*
Y1677D02*
D03*
Y1627D02*
D03*
X2485Y1777D02*
D03*
Y1727D02*
D03*
Y1677D02*
D03*
Y1627D02*
D03*
X2272Y841D02*
D03*
Y791D02*
D03*
Y741D02*
D03*
Y691D02*
D03*
X2484Y841D02*
D03*
Y791D02*
D03*
Y741D02*
D03*
Y691D02*
D03*
X3815Y379D02*
D03*
Y329D02*
D03*
Y279D02*
D03*
Y229D02*
D03*
X4027Y379D02*
D03*
Y329D02*
D03*
Y279D02*
D03*
Y229D02*
D03*
X3815Y614D02*
D03*
Y564D02*
D03*
Y514D02*
D03*
Y464D02*
D03*
X4027Y614D02*
D03*
Y564D02*
D03*
Y514D02*
D03*
Y464D02*
D03*
X3815Y844D02*
D03*
Y794D02*
D03*
Y744D02*
D03*
Y694D02*
D03*
X4027Y844D02*
D03*
Y794D02*
D03*
Y744D02*
D03*
Y694D02*
D03*
X1665Y1313D02*
D03*
Y1263D02*
D03*
Y1213D02*
D03*
Y1163D02*
D03*
X1877Y1313D02*
D03*
Y1263D02*
D03*
Y1213D02*
D03*
Y1163D02*
D03*
X1665Y1548D02*
D03*
Y1498D02*
D03*
Y1448D02*
D03*
Y1398D02*
D03*
X1877Y1548D02*
D03*
Y1498D02*
D03*
Y1448D02*
D03*
Y1398D02*
D03*
X1665Y1778D02*
D03*
Y1728D02*
D03*
Y1678D02*
D03*
Y1628D02*
D03*
X1877Y1778D02*
D03*
Y1728D02*
D03*
Y1678D02*
D03*
Y1628D02*
D03*
X123Y1312D02*
D03*
Y1262D02*
D03*
Y1212D02*
D03*
Y1162D02*
D03*
X335Y1312D02*
D03*
Y1262D02*
D03*
Y1212D02*
D03*
Y1162D02*
D03*
X122Y376D02*
D03*
Y326D02*
D03*
Y276D02*
D03*
Y226D02*
D03*
X334Y376D02*
D03*
Y326D02*
D03*
Y276D02*
D03*
Y226D02*
D03*
X123Y1547D02*
D03*
Y1497D02*
D03*
Y1447D02*
D03*
Y1397D02*
D03*
X335Y1547D02*
D03*
Y1497D02*
D03*
Y1447D02*
D03*
Y1397D02*
D03*
X122Y611D02*
D03*
Y561D02*
D03*
Y511D02*
D03*
Y461D02*
D03*
X334Y611D02*
D03*
Y561D02*
D03*
Y511D02*
D03*
Y461D02*
D03*
X123Y1777D02*
D03*
Y1727D02*
D03*
Y1677D02*
D03*
Y1627D02*
D03*
X335Y1777D02*
D03*
Y1727D02*
D03*
Y1677D02*
D03*
Y1627D02*
D03*
X122Y841D02*
D03*
Y791D02*
D03*
Y741D02*
D03*
Y691D02*
D03*
X334Y841D02*
D03*
Y791D02*
D03*
Y741D02*
D03*
Y691D02*
D03*
X1665Y379D02*
D03*
Y329D02*
D03*
Y279D02*
D03*
Y229D02*
D03*
X1877Y379D02*
D03*
Y329D02*
D03*
Y279D02*
D03*
Y229D02*
D03*
X1665Y614D02*
D03*
Y564D02*
D03*
Y514D02*
D03*
Y464D02*
D03*
X1877Y614D02*
D03*
Y564D02*
D03*
Y514D02*
D03*
Y464D02*
D03*
X1665Y844D02*
D03*
Y794D02*
D03*
Y744D02*
D03*
Y694D02*
D03*
X1877Y844D02*
D03*
Y794D02*
D03*
Y744D02*
D03*
Y694D02*
D03*
D164*
X4960Y1313D02*
D03*
X4862D02*
D03*
X4951Y377D02*
D03*
X4853D02*
D03*
X4961Y1547D02*
D03*
X4863D02*
D03*
X4952Y611D02*
D03*
X4854D02*
D03*
X4958Y1772D02*
D03*
X4860D02*
D03*
X4949Y836D02*
D03*
X4851D02*
D03*
X2810Y1313D02*
D03*
X2712D02*
D03*
X2801Y377D02*
D03*
X2703D02*
D03*
X2811Y1547D02*
D03*
X2713D02*
D03*
X2802Y611D02*
D03*
X2704D02*
D03*
X2808Y1772D02*
D03*
X2710D02*
D03*
X2799Y836D02*
D03*
X2701D02*
D03*
X660Y1313D02*
D03*
X562D02*
D03*
X651Y377D02*
D03*
X553D02*
D03*
X661Y1547D02*
D03*
X563D02*
D03*
X652Y611D02*
D03*
X554D02*
D03*
X658Y1772D02*
D03*
X560D02*
D03*
X649Y836D02*
D03*
X551D02*
D03*
D165*
X5276Y1233D02*
D03*
X5262Y1219D02*
D03*
X5248Y1205D02*
D03*
X5234Y1191D02*
D03*
X5220Y1177D02*
D03*
X5206Y1164D02*
D03*
X5192Y1150D02*
D03*
X5178Y1136D02*
D03*
X5164Y1122D02*
D03*
X5150Y1108D02*
D03*
X5136Y1094D02*
D03*
X5123Y1080D02*
D03*
X5109Y1066D02*
D03*
X5095Y1052D02*
D03*
X5081Y1038D02*
D03*
X5067Y1024D02*
D03*
X5324Y767D02*
D03*
X5338Y781D02*
D03*
X5352Y795D02*
D03*
X5366Y809D02*
D03*
X5380Y823D02*
D03*
X5394Y836D02*
D03*
X5408Y850D02*
D03*
X5422Y864D02*
D03*
X5436Y878D02*
D03*
X5450Y892D02*
D03*
X5464Y906D02*
D03*
X5477Y920D02*
D03*
X5491Y934D02*
D03*
X5505Y948D02*
D03*
X5519Y962D02*
D03*
X5533Y976D02*
D03*
X3126Y1233D02*
D03*
X3112Y1219D02*
D03*
X3098Y1205D02*
D03*
X3084Y1191D02*
D03*
X3070Y1177D02*
D03*
X3056Y1164D02*
D03*
X3042Y1150D02*
D03*
X3028Y1136D02*
D03*
X3014Y1122D02*
D03*
X3000Y1108D02*
D03*
X2986Y1094D02*
D03*
X2973Y1080D02*
D03*
X2959Y1066D02*
D03*
X2945Y1052D02*
D03*
X2931Y1038D02*
D03*
X2917Y1024D02*
D03*
X3174Y767D02*
D03*
X3188Y781D02*
D03*
X3202Y795D02*
D03*
X3216Y809D02*
D03*
X3230Y823D02*
D03*
X3244Y836D02*
D03*
X3258Y850D02*
D03*
X3272Y864D02*
D03*
X3286Y878D02*
D03*
X3300Y892D02*
D03*
X3314Y906D02*
D03*
X3327Y920D02*
D03*
X3341Y934D02*
D03*
X3355Y948D02*
D03*
X3369Y962D02*
D03*
X3383Y976D02*
D03*
X976Y1233D02*
D03*
X962Y1219D02*
D03*
X948Y1205D02*
D03*
X934Y1191D02*
D03*
X920Y1177D02*
D03*
X906Y1164D02*
D03*
X892Y1150D02*
D03*
X878Y1136D02*
D03*
X864Y1122D02*
D03*
X850Y1108D02*
D03*
X836Y1094D02*
D03*
X823Y1080D02*
D03*
X809Y1066D02*
D03*
X795Y1052D02*
D03*
X781Y1038D02*
D03*
X767Y1024D02*
D03*
X1024Y767D02*
D03*
X1038Y781D02*
D03*
X1052Y795D02*
D03*
X1066Y809D02*
D03*
X1080Y823D02*
D03*
X1094Y836D02*
D03*
X1108Y850D02*
D03*
X1122Y864D02*
D03*
X1136Y878D02*
D03*
X1150Y892D02*
D03*
X1164Y906D02*
D03*
X1177Y920D02*
D03*
X1191Y934D02*
D03*
X1205Y948D02*
D03*
X1219Y962D02*
D03*
X1233Y976D02*
D03*
D166*
X5067D02*
D03*
X5081Y962D02*
D03*
X5095Y948D02*
D03*
X5109Y934D02*
D03*
X5123Y920D02*
D03*
X5136Y906D02*
D03*
X5150Y892D02*
D03*
X5164Y878D02*
D03*
X5178Y864D02*
D03*
X5192Y850D02*
D03*
X5206Y836D02*
D03*
X5220Y823D02*
D03*
X5234Y809D02*
D03*
X5248Y795D02*
D03*
X5262Y781D02*
D03*
X5276Y767D02*
D03*
X5533Y1024D02*
D03*
X5519Y1038D02*
D03*
X5505Y1052D02*
D03*
X5491Y1066D02*
D03*
X5477Y1080D02*
D03*
X5464Y1094D02*
D03*
X5450Y1108D02*
D03*
X5436Y1122D02*
D03*
X5422Y1136D02*
D03*
X5408Y1150D02*
D03*
X5394Y1164D02*
D03*
X5380Y1177D02*
D03*
X5366Y1191D02*
D03*
X5352Y1205D02*
D03*
X5338Y1219D02*
D03*
X5324Y1233D02*
D03*
X2917Y976D02*
D03*
X2931Y962D02*
D03*
X2945Y948D02*
D03*
X2959Y934D02*
D03*
X2973Y920D02*
D03*
X2986Y906D02*
D03*
X3000Y892D02*
D03*
X3014Y878D02*
D03*
X3028Y864D02*
D03*
X3042Y850D02*
D03*
X3056Y836D02*
D03*
X3070Y823D02*
D03*
X3084Y809D02*
D03*
X3098Y795D02*
D03*
X3112Y781D02*
D03*
X3126Y767D02*
D03*
X3383Y1024D02*
D03*
X3369Y1038D02*
D03*
X3355Y1052D02*
D03*
X3341Y1066D02*
D03*
X3327Y1080D02*
D03*
X3314Y1094D02*
D03*
X3300Y1108D02*
D03*
X3286Y1122D02*
D03*
X3272Y1136D02*
D03*
X3258Y1150D02*
D03*
X3244Y1164D02*
D03*
X3230Y1177D02*
D03*
X3216Y1191D02*
D03*
X3202Y1205D02*
D03*
X3188Y1219D02*
D03*
X3174Y1233D02*
D03*
X767Y976D02*
D03*
X781Y962D02*
D03*
X795Y948D02*
D03*
X809Y934D02*
D03*
X823Y920D02*
D03*
X836Y906D02*
D03*
X850Y892D02*
D03*
X864Y878D02*
D03*
X878Y864D02*
D03*
X892Y850D02*
D03*
X906Y836D02*
D03*
X920Y823D02*
D03*
X934Y809D02*
D03*
X948Y795D02*
D03*
X962Y781D02*
D03*
X976Y767D02*
D03*
X1233Y1024D02*
D03*
X1219Y1038D02*
D03*
X1205Y1052D02*
D03*
X1191Y1066D02*
D03*
X1177Y1080D02*
D03*
X1164Y1094D02*
D03*
X1150Y1108D02*
D03*
X1136Y1122D02*
D03*
X1122Y1136D02*
D03*
X1108Y1150D02*
D03*
X1094Y1164D02*
D03*
X1080Y1177D02*
D03*
X1066Y1191D02*
D03*
X1052Y1205D02*
D03*
X1038Y1219D02*
D03*
X1024Y1233D02*
D03*
D167*
X5300Y1000D02*
D03*
X3150D02*
D03*
X1000D02*
D03*
D168*
X5150Y4447D02*
D03*
X5550D02*
D03*
X5150Y2297D02*
D03*
X5450D02*
D03*
Y147D02*
D03*
X5150D02*
D03*
X3300D02*
D03*
X3000D02*
D03*
Y2297D02*
D03*
X3300D02*
D03*
X3000Y4447D02*
D03*
X3400D02*
D03*
X850D02*
D03*
X1250D02*
D03*
X850Y2297D02*
D03*
X1150D02*
D03*
Y147D02*
D03*
X850D02*
D03*
D169*
X6200Y6200D02*
D03*
X4400D02*
D03*
Y4400D02*
D03*
X6200D02*
D03*
Y6550D02*
D03*
X4400Y4050D02*
D03*
X6200D02*
D03*
Y2250D02*
D03*
X4400D02*
D03*
Y100D02*
D03*
X6200D02*
D03*
Y1900D02*
D03*
X4400D02*
D03*
X2250Y100D02*
D03*
X4050D02*
D03*
Y1900D02*
D03*
X2250D02*
D03*
Y4050D02*
D03*
X4050D02*
D03*
Y2250D02*
D03*
X2250D02*
D03*
X4050Y6550D02*
D03*
Y6200D02*
D03*
X2250D02*
D03*
Y4400D02*
D03*
X4050D02*
D03*
X1900Y6200D02*
D03*
X100D02*
D03*
Y4400D02*
D03*
X1900D02*
D03*
Y6550D02*
D03*
X100Y4050D02*
D03*
X1900D02*
D03*
Y2250D02*
D03*
X100D02*
D03*
Y100D02*
D03*
X1900D02*
D03*
Y1900D02*
D03*
X100D02*
D03*
D170*
X4929Y4472D02*
D03*
X6035Y3530D02*
D03*
Y3650D02*
D03*
Y3290D02*
D03*
Y3410D02*
D03*
Y3050D02*
D03*
Y3170D02*
D03*
Y2810D02*
D03*
Y2930D02*
D03*
X3885Y3530D02*
D03*
Y3650D02*
D03*
Y3290D02*
D03*
Y3410D02*
D03*
Y3050D02*
D03*
Y3170D02*
D03*
Y2810D02*
D03*
Y2930D02*
D03*
X2779Y4472D02*
D03*
X629D02*
D03*
X1735Y3530D02*
D03*
Y3650D02*
D03*
Y3290D02*
D03*
Y3410D02*
D03*
Y3050D02*
D03*
Y3170D02*
D03*
Y2810D02*
D03*
Y2930D02*
D03*
D171*
X4929Y4372D02*
D03*
X4829Y4472D02*
D03*
Y4372D02*
D03*
X4729Y4472D02*
D03*
Y4372D02*
D03*
X4629Y4472D02*
D03*
Y4372D02*
D03*
X6235Y3530D02*
D03*
X6135D02*
D03*
X6235Y3650D02*
D03*
X6135D02*
D03*
X6235Y3290D02*
D03*
X6135D02*
D03*
X6235Y3410D02*
D03*
X6135D02*
D03*
X6235Y3050D02*
D03*
X6135D02*
D03*
X6235Y3170D02*
D03*
X6135D02*
D03*
X6235Y2810D02*
D03*
X6135D02*
D03*
X6235Y2930D02*
D03*
X6135D02*
D03*
X6115Y2490D02*
D03*
Y2590D02*
D03*
X6235Y2490D02*
D03*
Y2590D02*
D03*
X4085Y3530D02*
D03*
X3985D02*
D03*
X4085Y3650D02*
D03*
X3985D02*
D03*
X4085Y3290D02*
D03*
X3985D02*
D03*
X4085Y3410D02*
D03*
X3985D02*
D03*
X4085Y3050D02*
D03*
X3985D02*
D03*
X4085Y3170D02*
D03*
X3985D02*
D03*
X4085Y2810D02*
D03*
X3985D02*
D03*
X4085Y2930D02*
D03*
X3985D02*
D03*
X3965Y2490D02*
D03*
Y2590D02*
D03*
X4085Y2490D02*
D03*
Y2590D02*
D03*
X2779Y4372D02*
D03*
X2679Y4472D02*
D03*
Y4372D02*
D03*
X2579Y4472D02*
D03*
Y4372D02*
D03*
X2479Y4472D02*
D03*
Y4372D02*
D03*
X629D02*
D03*
X529Y4472D02*
D03*
Y4372D02*
D03*
X429Y4472D02*
D03*
Y4372D02*
D03*
X329Y4472D02*
D03*
Y4372D02*
D03*
X1935Y3530D02*
D03*
X1835D02*
D03*
X1935Y3650D02*
D03*
X1835D02*
D03*
X1935Y3290D02*
D03*
X1835D02*
D03*
X1935Y3410D02*
D03*
X1835D02*
D03*
X1935Y3050D02*
D03*
X1835D02*
D03*
X1935Y3170D02*
D03*
X1835D02*
D03*
X1935Y2810D02*
D03*
X1835D02*
D03*
X1935Y2930D02*
D03*
X1835D02*
D03*
X1815Y2490D02*
D03*
Y2590D02*
D03*
X1935Y2490D02*
D03*
Y2590D02*
D03*
D172*
X4574Y7923D02*
D03*
X2424D02*
D03*
X274D02*
D03*
D173*
X4574Y8023D02*
D03*
Y8123D02*
D03*
Y8223D02*
D03*
X5864Y8362D02*
D03*
X5764D02*
D03*
X5664D02*
D03*
X2424Y8023D02*
D03*
Y8123D02*
D03*
Y8223D02*
D03*
X3714Y8362D02*
D03*
X3614D02*
D03*
X3514D02*
D03*
X274Y8023D02*
D03*
Y8123D02*
D03*
Y8223D02*
D03*
X1564Y8362D02*
D03*
X1464D02*
D03*
X1364D02*
D03*
D174*
X5964D02*
D03*
X3814D02*
D03*
X1664D02*
D03*
D175*
X4489Y3081D02*
D03*
Y3255D02*
D03*
X2339Y3081D02*
D03*
Y3255D02*
D03*
X189Y3081D02*
D03*
Y3255D02*
D03*
D176*
X4645Y2680D02*
D03*
X2495D02*
D03*
X345D02*
D03*
D177*
X4645Y2759D02*
D03*
Y2837D02*
D03*
X4804Y3805D02*
D03*
X4882D02*
D03*
X4961D02*
D03*
X5276D02*
D03*
X5355D02*
D03*
X5434D02*
D03*
X5749D02*
D03*
X5827D02*
D03*
X5906D02*
D03*
X2495Y2759D02*
D03*
Y2837D02*
D03*
X2654Y3805D02*
D03*
X2732D02*
D03*
X2811D02*
D03*
X3126D02*
D03*
X3205D02*
D03*
X3284D02*
D03*
X3599D02*
D03*
X3677D02*
D03*
X3756D02*
D03*
X345Y2759D02*
D03*
Y2837D02*
D03*
X504Y3805D02*
D03*
X582D02*
D03*
X661D02*
D03*
X976D02*
D03*
X1055D02*
D03*
X1134D02*
D03*
X1449D02*
D03*
X1527D02*
D03*
X1606D02*
D03*
D178*
X4725D02*
D03*
X5198D02*
D03*
X5670D02*
D03*
X2575D02*
D03*
X3047D02*
D03*
X3520D02*
D03*
X425D02*
D03*
X897D02*
D03*
X1370D02*
D03*
D179*
X6115Y2690D02*
D03*
X6235D02*
D03*
X3965D02*
D03*
X4085D02*
D03*
X1815D02*
D03*
X1935D02*
D03*
D180*
X5325Y1591D02*
D03*
X5275D02*
D03*
X5225D02*
D03*
X3175D02*
D03*
X3125D02*
D03*
X3075D02*
D03*
X1025D02*
D03*
X975D02*
D03*
X925D02*
D03*
M02*
