M48
;Layer_Color=9474304
;FILE_FORMAT=2:5
INCH,LZ
;TYPE=PLATED
T1F00S00C0.01500
T2F00S00C0.02000
T3F00S00C0.02200
T4F00S00C0.02362
T5F00S00C0.02500
T6F00S00C0.02800
T7F00S00C0.03150
T8F00S00C0.03543
T9F00S00C0.08600
;TYPE=NON_PLATED
T10F00S00C0.03543
%
T01
X00252Y00037
X00278
X00279Y00065
Y00093
X00251
Y00066
Y0012
X00278
Y00147
X00252
X00247Y00225
Y00251
X00273Y00252
Y00225
X0020401Y00227
Y00257
Y00287
Y00317
Y00347
Y00377
X0017401
Y00347
Y00317
Y00287
Y00257
Y00227
X0011201Y00193
X00062Y00259
Y00289
Y00319
Y00349
X00032
Y00319
Y00289
Y00259
Y00494
Y00524
Y00554
Y00584
X00062
Y00554
Y00524
Y00494
X0017401Y00492
X0020401
Y00462
X0017401
Y00522
X0020401
Y00552
Y00582
Y00612
X0017401
Y00582
Y00552
X00256Y0059
X00286
X00271Y00611
X00241
X00255Y00699
X00283Y00698
X00269Y0072
X00241Y00721
X0020401
Y00691
X0017401
Y00721
Y00751
X0020401
Y00781
X0017401
Y00811
X0020401
Y00841
X0017401
X00123Y00901
X00093
X00063
Y00931
Y00961
X00033
Y00931
Y00901
X00032Y00813
X00062
Y00783
X00032
Y00753
X00062
Y00723
X00032
X0011101Y00655
X0010901Y00424
X00243Y00377
X00269Y00378
X00257Y00355
X00283Y00356
X00285Y00468
X00257Y00469
X00272Y0049
X00242
X0039601Y00433
X0038434Y0020966
X00505Y00105
X00531
X00557
Y00079
X00531
X00505
Y00053
Y00027
X00531
X00557
Y00053
X00531
X0057501Y00308
X00697Y00313
Y00346
X00703Y00279
X00809Y00172
X00795Y00113
X00888Y00122
X00944
X00991Y00121
X00975Y00173
X01025
X0107
X01101Y00177
X0120966Y0023066
X012Y00337
X01162Y00341
X01161Y00372
X01237Y00393
X01218Y0042
X01198Y00496
X01166Y00474
X01142Y00532
X01146Y00565
X01055
X01049Y00611
X00996Y00569
X00997Y00504
X00985Y00422
X00915Y00408
X0088Y00407
X00849
X00818Y00408
X00741Y00503
X0074181Y0053719
X00742Y00573
X00741Y00628
X00739Y00665
X0074Y00696
X00741Y00733
X00854Y00728
X0086Y0077
X00861Y0081
X0082495Y0086305
X0080609Y0088803
X00775Y00902
X0075Y00941
X00737Y01015
X00677Y01074
X00668Y00932
X00506Y00938
Y00964
Y0099
Y01016
Y01042
Y01068
X00478Y01069
Y01042
Y01016
Y0099
Y00964
Y00938
Y00912
X00506
X0045
Y00938
Y00964
Y0099
Y01016
Y01042
Y01069
X0039201Y01146
X00283Y01084
X00257
X0027Y01062
X00244
X00123Y01073
Y01043
Y01013
X00093
Y01043
Y01073
X00063
X00033
Y01043
X00063
Y01013
X00033
X00093Y00961
Y00931
X00123
Y00961
X0012101Y01129
X0082566Y011415
X01174Y01156
X01186Y01117
X0123124Y0107315
X01263Y01061
X01264Y01022
X01295Y01036
X01298Y0096
X01265
X0128052Y0093168
X01335Y00902
X01253Y00793
X01161Y008
X01165Y00769
Y00738
X01169Y00707
X01096Y0068
X01115Y00654
X01087Y0079
X00907Y0076
X00903Y00727
X00934Y00722
X0093Y00686
X00961Y00685
X00895Y00694
X00859Y00648
X00828Y00653
X0057701Y00541
Y00771
X0038901Y00669
X01083Y00476
X01093Y00431
X01059Y00434
X0125Y00583
X01414Y00544
Y00774
X01416Y00311
X0144Y00114
Y00088
Y00062
Y00036
X00925Y00173
X00893
X01289Y01116
X01263Y01145
X01489Y0109
Y01064
Y01038
X01515
Y01064
Y0109
X01542
Y01064
Y01038
X01568
Y01064
Y0109
X0160799Y01147
X01715Y01089
X01741
X01752Y01065
X01725
X01878Y01076
X01908
X01938
Y01046
Y01016
X01968
Y01046
Y01076
X01908Y01046
Y01016
X01878
Y01046
Y00964
Y00934
Y00904
X01908
Y00934
Y00964
X01938
Y00934
Y00904
X01968
Y00934
Y00964
Y00814
Y00784
Y00754
Y00724
X01938
Y00754
Y00784
Y00814
X01826
Y00844
X01796
Y00814
Y00784
X01826
Y00754
X01796
Y00724
X01826
Y00694
X01796
X01756Y00699
X0173
X01743Y00722
X01717
X01716Y00614
X01742
X01754Y00591
X01728
X01796Y00585
X01826
Y00615
X01796
Y00555
X01826
Y00525
Y00495
Y00465
X01796
Y00495
Y00525
X01742Y00489
X01716
X01729Y00466
X01755
X01741Y00382
X01715Y00383
X01725Y00359
X01752Y00358
X01796Y0035
Y0032
Y0029
Y0026
Y0023
X01826
Y0026
Y0029
Y0032
Y0035
Y0038
X01796
X01878Y00427
X01938Y00495
Y00525
Y00555
Y00585
X01968
Y00555
Y00525
Y00495
Y0035
Y0032
Y0029
Y0026
X01938
Y0029
Y0032
Y0035
X01879Y00196
X01752Y00231
X01751Y00259
X01722
Y00231
X01724Y00153
X0175
Y00126
X01723
Y00099
Y00072
X01751Y00071
Y00099
X0175Y00043
X01724
X01492Y00036
Y00062
X01466
Y00088
X01492
Y00114
X01466
Y00036
X01608Y00213
X01595Y00436
X01602Y00672
X01568Y00918
Y00944
Y0097
X01542
Y00944
Y00918
X01515
Y00944
Y0097
X01489
Y00944
Y00918
X0187899Y0113
X02183Y01073
X02213
X02243
X02273
Y01043
Y01013
X02243
Y01043
X02213
X02183
Y01013
X02213
Y00961
X02183
Y00931
X02213
Y00901
X02183
X02243
Y00931
Y00961
X02273
Y00931
Y00901
X0232401Y00841
X0235401
Y00811
Y00781
Y00751
Y00721
Y00691
X0232401
Y00721
Y00751
Y00781
Y00811
X02212Y00813
X02182
Y00783
X02212
Y00753
X02182
Y00723
X02212
X0226101Y00655
X0232401Y00612
X0235401
Y00582
Y00552
Y00522
Y00492
Y00462
X0232401
Y00492
Y00522
Y00552
Y00582
X02406Y0059
X02436
X02421Y00611
X02391
X02405Y00699
X02433Y00698
X02419Y0072
X02391Y00721
X0253901Y00669
X0254601Y00433
X02435Y00468
X02407Y00469
X02422Y0049
X02392
X02393Y00377
X02419Y00378
X02407Y00355
X02433Y00356
X0235401Y00347
Y00377
X0232401
Y00347
Y00317
X0235401
Y00287
Y00257
Y00227
X0232401
Y00257
Y00287
X02397Y00251
Y00225
X02423
Y00252
X02428Y00147
X02402
X02401Y0012
Y00093
Y00066
X02429Y00065
Y00093
X02428Y0012
Y00037
X02402
X02655Y00027
X02681
X02707
Y00053
Y00079
Y00105
X02681
X02655
Y00079
X02681
Y00053
X02655
X0253434Y0020966
X0226201Y00193
X02212Y00259
Y00289
Y00319
Y00349
X02182
Y00319
Y00289
Y00259
Y00494
Y00524
Y00554
Y00584
X02212
Y00554
Y00524
Y00494
X0225901Y00424
X0272501Y00308
X02847Y00313
Y00346
X02853Y00279
X02959Y00172
X02945Y00113
X02968Y00408
X02999Y00407
X02891Y00503
X0289181Y0053719
X02892Y00573
X02891Y00628
X02889Y00665
X0289Y00696
X02891Y00733
X03004Y00728
X0301Y0077
X03011Y0081
X0297495Y0086305
X0295609Y0088803
X02925Y00902
X029Y00941
X02887Y01015
X02827Y01074
X02818Y00932
X02656Y00938
Y00964
Y0099
Y01016
Y01042
Y01068
X02628Y01069
Y01042
Y01016
Y0099
Y00964
Y00938
Y00912
X02656
X026
Y00938
Y00964
Y0099
Y01016
Y01042
Y01069
X0254201Y01146
X02433Y01084
X02407
X0242Y01062
X02394
X0227101Y01129
X0297566Y011415
X02978Y00653
X03009Y00648
X0272701Y00541
Y00771
X0188Y00658
X03045Y00694
X03053Y00727
X03084Y00722
X0308Y00686
X03111Y00685
X03057Y0076
X03237Y0079
X03311Y008
X03315Y00769
Y00738
X03319Y00707
X03246Y0068
X03265Y00654
X03199Y00611
X03205Y00565
X03146Y00569
X03147Y00504
X03135Y00422
X03065Y00408
X0303Y00407
X03209Y00434
X03243Y00431
X03233Y00476
X03316Y00474
X03348Y00496
X03292Y00532
X03296Y00565
X034Y00583
X03368Y0042
X03387Y00393
X0335Y00337
X03312Y00341
X03311Y00372
X0335966Y0023066
X03251Y00177
X0322Y00173
X03175
X03125
X03075
X03043
X03038Y00122
X03094
X03141Y00121
X0359Y00114
Y00088
Y00062
X03616
X03642
Y00088
X03616
Y00114
X03642
Y00036
X03616
X0359
X03874Y00043
X039
X03901Y00071
Y00099
X039Y00126
Y00153
X03874
X03873Y00126
Y00099
Y00072
X03872Y00231
Y00259
X03901
X03902Y00231
X03946Y0023
Y0026
Y0029
Y0032
Y0035
Y0038
X03976
Y0035
Y0032
Y0029
Y0026
Y0023
X04029Y00196
X04088Y0026
X04118
Y0029
Y0032
Y0035
X04088
Y0032
Y0029
X04028Y00427
X03976Y00465
Y00495
Y00525
Y00555
Y00585
Y00615
X03946
Y00585
Y00555
Y00525
Y00495
Y00465
X03905Y00466
X03879
X03892Y00489
X03866
X03865Y00383
X03891Y00382
X03902Y00358
X03875Y00359
X03745Y00436
X03758Y00213
X03566Y00311
X03564Y00544
Y00774
X03403Y00793
X0343052Y0093168
X03415Y0096
X03448
X03445Y01036
X03414Y01022
X03413Y01061
X0338124Y0107315
X03336Y01117
X03324Y01156
X03413Y01145
X03439Y01116
X03639Y0109
Y01064
Y01038
X03665
Y01064
Y0109
X03692
Y01064
Y01038
X03718
Y01064
Y0109
X0375799Y01147
X03865Y01089
X03891
X03902Y01065
X03875
X04028Y01076
X04058
X04088
Y01046
Y01016
X04118
Y01046
Y01076
X04058Y01046
Y01016
X04028
Y01046
Y00964
Y00934
Y00904
X04058
Y00934
Y00964
X04088
Y00934
Y00904
X04118
Y00934
Y00964
Y00814
Y00784
Y00754
Y00724
X04088
Y00754
Y00784
Y00814
X03976
Y00844
X03946
Y00814
Y00784
X03976
Y00754
X03946
Y00724
X03976
Y00694
X03946
X03906Y00699
X0388
X03893Y00722
X03867
X03866Y00614
X03892
X03904Y00591
X03878
X03752Y00672
X03718Y00918
Y00944
Y0097
X03692
Y00944
Y00918
X03665
Y00944
Y0097
X03639
Y00944
Y00918
X03485Y00902
X0402899Y0113
X04333Y01073
X04363
X04393
X04423
Y01043
Y01013
X04393
Y01043
X04363
X04333
Y01013
X04363
Y00961
X04333
Y00931
X04363
Y00901
X04333
X04393
Y00931
Y00961
X04423
Y00931
Y00901
X0447401Y00841
X0450401
Y00811
Y00781
Y00751
Y00721
Y00691
X0447401
Y00721
Y00751
Y00781
Y00811
X04362Y00813
X04332
Y00783
X04362
Y00753
X04332
Y00723
X04362
X0441101Y00655
X0447401Y00612
X0450401
Y00582
Y00552
Y00522
Y00492
Y00462
X0447401
Y00492
Y00522
Y00552
Y00582
X04556Y0059
X04571Y00611
X04541
X04555Y00699
X04569Y0072
X04541Y00721
X04542Y0049
X04572
X04557Y00469
X04569Y00378
X04543Y00377
X04557Y00355
X0450401Y00347
Y00377
X0447401
Y00347
Y00317
X0450401
Y00287
Y00257
Y00227
X0447401
Y00257
Y00287
X04547Y00251
Y00225
X04573
Y00252
X04552Y00147
X04551Y0012
Y00093
Y00066
X04552Y00037
X0441201Y00193
X04362Y00259
Y00289
Y00319
Y00349
X04332
Y00319
Y00289
Y00259
Y00494
Y00524
Y00554
Y00584
X04362
Y00554
Y00524
Y00494
X0440901Y00424
X04118Y00495
X04088
Y00525
Y00555
Y00585
X04118
Y00555
Y00525
X0403Y00658
X0442101Y01129
X04557Y01084
X0457Y01062
X04544
X04583Y01084
X0469201Y01146
X0475Y01069
Y01042
Y01016
Y0099
Y00964
Y00938
Y00912
X04778
Y00938
Y00964
Y0099
Y01016
Y01042
Y01069
X04806Y01068
Y01042
Y01016
Y0099
Y00964
Y00938
Y00912
X04968Y00932
X0505Y00941
X05075Y00902
X0510609Y0088803
X0512495Y0086305
X05161Y0081
X0516Y0077
X05154Y00728
X05203Y00727
X05234Y00722
X0523Y00686
X05261Y00685
X05195Y00694
X05207Y0076
X05159Y00648
X05128Y00653
X05039Y00665
X0504Y00696
X05041Y00733
Y00628
X05042Y00573
X0504181Y0053719
X05041Y00503
X05118Y00408
X05149Y00407
X0518
X05215Y00408
X05285Y00422
X05359Y00434
X05393Y00431
X05383Y00476
X05466Y00474
X05498Y00496
X05442Y00532
X05446Y00565
X05355
X05349Y00611
X05296Y00569
X05297Y00504
X05415Y00654
X05396Y0068
X05469Y00707
X05465Y00738
Y00769
X05461Y008
X05387Y0079
X05553Y00793
X0558052Y0093168
X05565Y0096
X05598
X05595Y01036
X05564Y01022
X05563Y01061
X0553124Y0107315
X05486Y01117
X05474Y01156
X05563Y01145
X05589Y01116
X05789Y0109
Y01064
Y01038
X05815
Y01064
Y0109
X05842
Y01064
Y01038
X05868
Y01064
Y0109
X0590799Y01147
X06015Y01089
X06041
X06052Y01065
X06025
X05868Y0097
X05842
Y00944
X05868
Y00918
X05842
X05815
Y00944
Y0097
X05789
Y00944
Y00918
X05635Y00902
X05714Y00774
Y00544
X0555Y00583
X05518Y0042
X05537Y00393
X055Y00337
X05462Y00341
X05461Y00372
X0550966Y0023066
X05401Y00177
X0537Y00173
X05325
X05275
X05225
X05193
X05188Y00122
X05244
X05291Y00121
X05095Y00113
X05109Y00172
X05003Y00279
X04997Y00313
Y00346
X0487501Y00308
X04857Y00105
X04831
X04805
Y00079
X04831
X04857
Y00053
Y00027
X04831
X04805
Y00053
X04831
X04579Y00065
Y00093
X04578Y0012
Y00147
Y00037
X0468434Y0020966
X0469601Y00433
X04585Y00468
X04583Y00356
X04586Y0059
X04583Y00698
X0468901Y00669
X0487701Y00771
Y00541
X04977Y01074
X05037Y01015
X0512566Y011415
X05902Y00672
X0603Y00699
X06056
X06043Y00722
X06017
X06096Y00724
Y00754
Y00784
Y00814
X06126
Y00844
X06096
X06126Y00784
Y00754
Y00724
Y00694
X06096
Y00615
X06126
Y00585
Y00555
Y00525
Y00495
Y00465
X06096
Y00495
Y00525
Y00555
Y00585
X06054Y00591
X06028
X06016Y00614
X06042
Y00489
X06016
X06029Y00466
X06055
X06041Y00382
X06015Y00383
X06025Y00359
X06052Y00358
X06096Y0035
Y0032
Y0029
Y0026
Y0023
X06126
Y0026
Y0029
Y0032
Y0035
Y0038
X06096
X06051Y00259
X06052Y00231
X06022
Y00259
X06024Y00153
X0605
Y00126
X06023
Y00099
Y00072
X06051Y00071
Y00099
X0605Y00043
X06024
X05792Y00036
Y00062
X05766
X0574
Y00088
X05766
X05792
Y00114
X05766
X0574
Y00036
X05766
X05908Y00213
X05895Y00436
X05716Y00311
X06238Y0032
X06268
Y0035
X06238
Y0029
X06268
Y0026
X06238
X06179Y00196
X06178Y00427
X06238Y00495
Y00525
Y00555
Y00585
X06268
Y00555
Y00525
Y00495
Y00724
X06238
Y00754
X06268
Y00784
X06238
Y00814
X06268
Y00904
X06238
X06208
X06178
Y00934
Y00964
X06208
Y00934
X06238
X06268
Y00964
X06238
Y01016
X06268
Y01046
X06238
Y01076
X06268
X06208
Y01046
Y01016
X06178
Y01046
Y01076
X0617899Y0113
X0618Y00658
X06526Y00665
X06585Y00718
X06599Y00771
X0656347Y0077847
X06593Y00896
X06602Y00935
X06583Y01056
X06533Y01009
X06832Y01058
X06872Y00947
X06749Y00836
X06706Y00742
X06583Y00416
X06533Y00369
X06602Y00295
X06593Y00256
X06599Y00131
X0656347Y0013847
X06585Y00078
X06526Y00025
X06706Y00102
X06749Y00196
X06872Y00307
X06832Y00418
X06706Y01382
X06599Y01411
X0656347Y0141847
X06585Y01358
X06526Y01305
X06268Y01284
X06238
Y01254
Y01224
Y01194
X06268
Y01224
Y01254
Y01429
Y01459
Y01489
Y01519
X06238
Y01489
Y01459
Y01429
X0617799Y01361
X0617999Y01592
X06238Y01658
Y01688
Y01718
Y01748
X06268
Y01718
Y01688
Y01658
X06533Y01649
X06583Y01696
X06602Y01575
X06593Y01536
X06749Y01476
X06872Y01587
X06832Y01698
X06706Y02017
X06599Y02046
X0656347Y0205347
X06585Y01993
X06526Y0194
X06593Y02171
X06602Y0221
X06583Y02331
X06533Y02284
X06526Y02585
X06585Y02638
X06599Y02691
X0656347Y0269847
X06706Y02662
X06832Y02333
X06872Y02222
X06749Y02111
X0612599Y01778
Y01748
X0609599
Y01718
X0612599
Y01688
Y01658
Y01628
X0609599
Y01658
Y01688
X0604Y01655
X06014
X06027Y01633
X06053Y01632
X06042Y01548
X06016
X06028Y01526
X06054Y01525
X0609599Y01519
X0612599
Y01549
X0609599
Y01489
X0612599
Y01459
Y01429
Y01399
X0609599
Y01429
Y01459
X0604Y01425
X06014Y01424
X06027Y01402
X06053Y01403
X06041Y01314
X06015Y01315
X06027Y01292
X06053Y01291
X0609599Y01284
X0612599
Y01314
X0609599
Y01254
X0612599
Y01224
Y01194
Y01164
X0609599
Y01194
Y01224
X06043Y01189
X06017
X0603Y01166
X06056
X0589499Y0137
X0590199Y01606
X05897Y01874
Y019
X05923
X05949
Y01926
X05923
X05897
Y01952
X05923
X05949
Y01874
X05923
X0609599Y01778
X0571399Y01708
X05544Y01728
X05519Y01678
X05495Y01497
X05474Y01448
X054375Y0137988
X05403Y01376
X0539248Y0132548
X05458Y01324
X0549Y01329
X05445Y0125346
X05416Y01282
X05351Y0126
X05315
X05285Y01277
X05276Y01316
X05278Y0135
X05249Y01366
X05218Y0136
X05243Y01305
X0514Y01299
Y0134
X05134Y01382
X05166Y01434
X05251Y01425
X05202Y01494
X05124Y01489
X05109Y01534
X0514
X0505
X05051Y01503
Y01472
Y01438
X05046Y01407
X05Y01277
Y0122
X05185Y01217
X05173Y01186
X05156Y01159
X05373Y0122611
X0536Y01413
X0571399Y01478
X0571599Y01245
X0524Y01723
X05061Y01727
Y01653
X0488601Y01707
Y01477
X0470501Y01369
X04579Y01401
Y01289
X04582Y01165
X04581Y01524
Y01633
X0469801Y01605
X04706Y01871
Y01897
X0468
X04654
Y01923
X0468
X04706
Y01949
X0468
X04654
Y01871
X0468
Y02375
X047Y02421
X0468Y0249
X04757Y02469
X0478643Y0253857
X04881Y0262
X05055Y02618
X05113Y02622
X05189Y02611
X05143Y0271
X04986Y02706
X04982Y02527
X05091
X05132Y0246
X05182
X05232
X05282
X05332
X05382
X05432
X05482
X05532Y02422
X05496Y02541
X05577Y02667
X05678Y02607
X05761Y0269
X05931Y02634
X05821Y02451
X05824Y02252
X056356Y022146
X0553334Y0223134
X0540778Y0227757
X05282Y02295
X05232
X05076Y02311
X05074Y02242
X04994Y02309
X04891Y02314
X04714Y02643
X0562614Y0235686
X0455Y02335
X04459Y02473
X04568Y02617
X03781Y02634
X03611Y0269
X03528Y02607
X03427Y02667
X03346Y02541
X03332Y0246
X03282
X03232
X03182
X03132
X03082
X03032
X03039Y02611
X03082Y02295
X03132
X0325778Y0227757
X0338334Y0223134
X034856Y022146
X0347614Y0235686
X03382Y02422
X03671Y02451
X03674Y02252
X03747Y01952
Y01926
Y019
X03773
X03799
Y01926
X03773
Y01952
X03799
Y01874
X03773
X03747
X0375199Y01606
X03877Y01633
X03903Y01632
X0389Y01655
X03864
X0394599Y01658
X0397599
Y01688
Y01718
Y01748
Y01778
X0394599
Y01748
Y01718
Y01688
Y01628
X0397599
Y01549
Y01519
Y01489
Y01459
Y01429
Y01399
X0394599
Y01429
Y01459
Y01489
Y01519
Y01549
X03892Y01548
X03866
X03878Y01526
X03904Y01525
X0389Y01425
X03864Y01424
X03877Y01402
X03903Y01403
X03891Y01314
X03865Y01315
X03877Y01292
X03903Y01291
X0394599Y01284
X0397599
Y01314
X0394599
Y01254
X0397599
Y01224
Y01194
Y01164
X0394599
Y01194
Y01224
X03893Y01189
X03867
X0388Y01166
X03906
X04088Y01194
Y01224
Y01254
Y01284
X04118
Y01254
Y01224
Y01194
X04332Y01193
Y01223
X04362
Y01253
X04332
Y01283
X04362
Y01193
X0447401
Y01223
Y01253
Y01283
Y01313
X0450401
Y01283
Y01253
Y01223
Y01193
Y01163
X0447401
X04556Y01165
X04569Y01187
X04543
X04553Y01289
X04542Y01312
X04568
X04553Y01401
X04542Y01424
X04568
X0450401Y01428
X0447401
Y01458
Y01488
Y01518
Y01548
X0450401
Y01518
Y01488
Y01458
Y01398
X0447401
X0442201Y0136
X04362Y01428
Y01458
Y01488
Y01518
X04332
Y01488
Y01458
Y01428
X04118Y01429
Y01459
Y01489
Y01519
X04088
Y01489
Y01459
Y01429
X0402799Y01361
X0402999Y01592
X04088Y01658
Y01688
Y01718
Y01748
X04118
Y01718
Y01688
Y01658
X04332Y01657
X04362
Y01687
X04332
Y01717
X04362
Y01747
X04332
X0447401
Y01777
X0450401
Y01747
Y01717
X0447401
Y01687
Y01657
Y01627
X0450401
Y01657
Y01687
X04542Y01655
X04568
X04555Y01633
X04568Y01546
X04542
X04555Y01524
X0442001Y01591
X0374499Y0137
X0356399Y01478
Y01708
X03394Y01728
X03369Y01678
X03345Y01497
X03324Y01448
X032875Y0137988
X03253Y01376
X0324248Y0132548
X03308Y01324
X0334Y01329
X03295Y0125346
X03266Y01282
X03201Y0126
X03165
X03135Y01277
X03126Y01316
X03128Y0135
X03099Y01366
X03068Y0136
X03093Y01305
X03101Y01425
X03016Y01434
X03052Y01494
X0321Y01413
X03223Y0122611
X03035Y01217
X03023Y01186
X0356599Y01245
X0309Y01723
X02911Y01727
Y01653
X029Y01534
X02901Y01503
Y01472
Y01438
X02896Y01407
X02984Y01382
X0299Y0134
Y01299
X03006Y01159
X0285Y0122
Y01277
X0273601Y01477
Y01707
X0254801Y01605
X02431Y01633
X02405
X02418Y01655
X02392
X0235401Y01657
X0232401
Y01687
Y01717
Y01747
Y01777
X0235401
Y01747
Y01717
Y01687
Y01627
X0232401
Y01548
Y01518
Y01488
Y01458
Y01428
Y01398
X0235401
Y01428
Y01458
Y01488
Y01518
Y01548
X02392Y01546
X02418
X02405Y01524
X02431
X02418Y01424
X02392
X02403Y01401
X02429
X02418Y01312
X02392
X02403Y01289
X02429
X0235401Y01283
X0232401
Y01313
X0235401
Y01253
X0232401
Y01223
Y01193
Y01163
X0235401
Y01193
Y01223
X02393Y01187
X02419
X02406Y01165
X02432
X02212Y01193
Y01223
X02182
Y01253
Y01283
X02212
Y01253
X02182Y01193
X01968Y01194
X01938
Y01224
Y01254
Y01284
X01968
Y01254
Y01224
X0182599
Y01254
Y01284
Y01314
X0179599
Y01284
Y01254
Y01224
Y01194
X0182599
Y01164
X0179599
X01756Y01166
X0173
X01743Y01189
X01717
X01727Y01292
X01753Y01291
X01741Y01314
X01715Y01315
X01727Y01402
X01753Y01403
X0174Y01425
X01714Y01424
X0179599Y01429
X0182599
Y01459
Y01489
Y01519
Y01549
X0179599
Y01519
Y01489
Y01459
Y01399
X0182599
X0187799Y01361
X01938Y01429
X01968
Y01459
Y01489
Y01519
X01938
Y01489
Y01459
X0187999Y01592
X0182599Y01628
Y01658
Y01688
Y01718
Y01748
Y01778
X0179599
Y01748
Y01718
Y01688
Y01658
Y01628
X01753Y01632
X01727Y01633
X0174Y01655
X01714
X01716Y01548
X01742
X01754Y01525
X01728Y01526
X0160199Y01606
X0159499Y0137
X01597Y01874
Y019
X01623
X01649
Y01926
X01623
X01597
Y01952
X01623
X01649
Y01874
X01623
X01938Y01748
X01968
Y01718
X01938
Y01688
X01968
Y01658
X01938
X02182Y01657
X02212
Y01687
X02182
Y01717
X02212
Y01747
X02182
Y01518
X02212
Y01488
Y01458
Y01428
X02182
Y01458
Y01488
X0227001Y01591
X0227201Y0136
X0255501Y01369
X02556Y01871
Y01897
X0253
X02504
Y01923
X0253
X02556
Y01949
X0253
X02504
Y01871
X0253
Y02375
X0255Y02421
X0253Y0249
X02607Y02469
X0263643Y0253857
X02731Y0262
X02905Y02618
X02963Y02622
X02941Y02527
X02982Y0246
X02926Y02311
X02924Y02242
X02844Y02309
X02741Y02314
X02832Y02527
X02836Y02706
X02993Y0271
X02564Y02643
X02418Y02617
X02309Y02473
X024Y02335
X01524Y02252
X01521Y02451
X01631Y02634
X01461Y0269
X02959Y01534
X0299
X02974Y01489
X0141399Y01478
Y01708
X01244Y01728
X01219Y01678
X01195Y01497
X01174Y01448
X011375Y0137988
X01103Y01376
X0109248Y0132548
X01158Y01324
X0119Y01329
X01145Y0125346
X01116Y01282
X01051Y0126
X01015
X00985Y01277
X00976Y01316
X00978Y0135
X00949Y01366
X00918Y0136
X00943Y01305
X0084Y01299
Y0134
X00834Y01382
X00866Y01434
X00951Y01425
X00902Y01494
X00824Y01489
X00809Y01534
X0084
X0075
X00751Y01503
Y01472
Y01438
X00746Y01407
X007Y01277
Y0122
X00885Y01217
X00873Y01186
X00856Y01159
X01073Y0122611
X0106Y01413
X0094Y01723
X00761Y01727
Y01653
X0058601Y01707
Y01477
X0040501Y01369
X00279Y01401
X00253
X00242Y01424
X00268
X0020401Y01428
X0017401
Y01458
Y01488
Y01518
Y01548
X0020401
Y01518
Y01488
Y01458
Y01398
X0017401
Y01313
Y01283
Y01253
Y01223
Y01193
Y01163
X0020401
Y01193
Y01223
Y01253
Y01283
Y01313
X00242Y01312
X00268
X00279Y01289
X00253
X00243Y01187
X00269
X00256Y01165
X00282
X00062Y01193
Y01223
X00032
Y01253
Y01283
X00062
Y01253
X00032Y01193
Y01428
X00062
Y01458
Y01488
Y01518
X00032
Y01488
Y01458
X0012201Y0136
X0012001Y01591
X0017401Y01627
Y01657
Y01687
Y01717
Y01747
Y01777
X0020401
Y01747
Y01717
Y01687
Y01657
Y01627
X00255Y01633
X00281
X00268Y01655
X00242
Y01546
X00268
X00255Y01524
X00281
X0039801Y01605
X00406Y01871
Y01897
X0038
X00354
Y01923
X0038
X00406
Y01949
X0038
X00354
Y01871
X0038
X00062Y01747
Y01717
Y01687
Y01657
X00032
Y01687
Y01717
Y01747
X0025Y02335
X0038Y02375
X004Y02421
X0038Y0249
X00457Y02469
X0048643Y0253857
X00581Y0262
X00755Y02618
X00813Y02622
X00889Y02611
X00843Y0271
X00686Y02706
X00682Y02527
X00791
X00832Y0246
X00882
X00932
X00982
X01032
X01082
X01132
X01182
X01232Y02422
X01196Y02541
X01277Y02667
X01378Y02607
X0132614Y0235686
X013356Y022146
X0123334Y0223134
X0110778Y0227757
X00982Y02295
X00932
X00776Y02311
X00774Y02242
X00694Y02309
X00591Y02314
X00414Y02643
X00268Y02617
X00159Y02473
X0141599Y01245
X01271Y0275
X01308Y02825
X0123Y0289
X0116Y02885
X0096Y02875
X00942Y02911
X00873Y02858
X00827Y02932
X00667Y02928
X00601Y02958
X00577Y02896
X00597Y02793
X00664Y02834
X00794Y02797
X00913Y02739
X00674Y03058
X00547Y03003
X00368Y02999
X00389Y0316571
X0039001Y032
X00362Y03289
X00441Y03269
X00427Y03424
X00513Y03394
X00547Y0336
X0061502Y0332902
X0065298Y0337398
X00747Y03367
X00733Y03453
X00646Y03483
X0066318Y0351082
X0069818Y0354582
X00756Y03636
X00786Y03664
X00851Y03692
X00692Y03694
X00622Y03622
X00849Y0353
X00962Y03533
X00924Y03486
X00927Y03587
X0101Y03622
X01081Y03627
X01167
X0121Y03653
X01184Y03743
X01308Y0375
X01165Y03558
X01205Y03408
X0131453Y0332253
X0127Y0317051
X0123108Y0315816
X0123205Y0312395
X01227Y03085
X0127083Y0305097
X01244Y03024
X0130721Y0300397
X0131247Y02972
X0138326Y0305725
X01415Y03052
X01398Y03117
X013988Y031522
X00775Y03218
X0074647Y0319753
X002855Y03398
X00238Y03656
X00341Y03763
X00369Y0392
X0013753Y03889
X00768Y03846
X00789Y03912
X0081Y03971
X00901Y03912
X01461Y0372626
X015Y03617
X0145681Y0345519
X01524Y03309
X0156547Y0297147
X016003Y02959
Y02794
X02518Y02999
X02697Y03003
X02751Y02958
X02727Y02896
X02817Y02928
X02814Y02834
X02747Y02793
X02944Y02797
X02977Y02932
X02824Y03058
X0289647Y0319753
X02925Y03218
X02897Y03367
X02883Y03453
X02796Y03483
X0281318Y0351082
X0284818Y0354582
X02906Y03636
X02936Y03664
X03001Y03692
X02842Y03694
X02772Y03622
X0280298Y0337398
X0276502Y0332902
X02697Y0336
X02663Y03394
X02577Y03424
X024355Y03398
X02512Y03289
X02591Y03269
X0254001Y032
X02539Y0316571
X02388Y03656
X02491Y03763
X02519Y0392
X0228753Y03889
X02918Y03846
X02939Y03912
X0296Y03971
X02999Y0353
X03112Y03533
X03074Y03486
X03077Y03587
X0316Y03622
X03231Y03627
X03317
X0336Y03653
X03334Y03743
X03458Y0375
X03611Y0372626
X0365Y03617
X0360681Y0345519
X03674Y03309
X0346453Y0332253
X03355Y03408
X03315Y03558
X0338108Y0315816
X0338205Y0312395
X03377Y03085
X0342083Y0305097
X03394Y03024
X0345721Y0300397
X0346247Y02972
X03458Y02825
X03421Y0275
X0338Y0289
X0331Y02885
X0311Y02875
X03092Y02911
X03023Y02858
X03063Y02739
X037503Y02794
Y02959
X0371547Y0297147
X03565Y03052
X0353326Y0305725
X03548Y03117
X0354879Y031522
X0342Y0317051
X03051Y03912
X0443753Y03889
X04538Y03656
X04641Y03763
X04669Y0392
X05089Y03912
X0511Y03971
X05201Y03912
X05068Y03846
X05086Y03664
X05056Y03636
X04992Y03694
X04922Y03622
X0499818Y0354582
X0496318Y0351082
X04946Y03483
X0495298Y0337398
X0491502Y0332902
X04847Y0336
X04813Y03394
X04727Y03424
X045855Y03398
X04662Y03289
X04741Y03269
X0469001Y032
X04689Y0316571
X04668Y02999
X04847Y03003
X04901Y02958
X04877Y02896
X04967Y02928
X04964Y02834
X04897Y02793
X05094Y02797
X05173Y02858
X0526Y02875
X05242Y02911
X05127Y02932
X04974Y03058
X0504647Y0319753
X05075Y03218
X05047Y03367
X05033Y03453
X05149Y0353
X05262Y03533
X05224Y03486
X05227Y03587
X0531Y03622
X05381Y03627
X05467
X0551Y03653
X05484Y03743
X05608Y0375
X05761Y0372626
X058Y03617
X0575681Y0345519
X05824Y03309
X0561453Y0332253
X05505Y03408
X05465Y03558
X05151Y03692
X0553108Y0315816
X0553205Y0312395
X05527Y03085
X0557083Y0305097
X05544Y03024
X0560721Y0300397
X0561247Y02972
X05608Y02825
X05571Y0275
X0553Y0289
X0546Y02885
X05213Y02739
X059003Y02794
Y02959
X0586547Y0297147
X05715Y03052
X0568326Y0305725
X05698Y03117
X0569879Y031522
X0557Y0317051
X06526Y03225
X06585Y03278
X06599Y03331
X0656347Y0333847
X06593Y03456
X06602Y03495
X06583Y03616
X06533Y03569
X06526Y03865
X06585Y03918
X06599Y03971
X0656347Y0397847
X06593Y04096
X06602Y04135
X06583Y04256
X06533Y04209
X06832Y04258
X06872Y04147
X06749Y04036
X06706Y03942
X06832Y03618
X06872Y03507
X06749Y03396
X06706Y03302
X06583Y02976
X06533Y02929
X06602Y02855
X06593Y02816
X06749Y02756
X06872Y02867
X06832Y02978
X06706Y04577
X06599Y04606
X0656347Y0461347
X06585Y04553
X06526Y045
X06593Y04731
X06602Y0477
X06583Y04891
X06533Y04844
X06526Y0514
X06585Y05193
X06599Y05246
X0656347Y0525347
X06593Y05371
X06602Y0541
X06583Y05531
X06533Y05484
X06526Y0578
X06585Y05833
X06832Y05533
X06872Y05422
X06749Y05311
X06706Y05217
X06832Y04893
X06872Y04782
X06749Y04671
X06029Y05004
X0594
X0567068Y0545532
X05701Y05639
X05637Y05691
X05488Y05708
Y05625
X05344Y05559
X05261Y05679
X05156Y05737
X05142Y0554
X05047Y05628
X0481263Y0554937
X04666Y0557
X04615
Y0561
X0462347Y0575947
X0536253Y0582153
X05352Y05357
X0520199Y0532601
X05188Y0516
X0515Y05192
X05142Y05128
X05029Y05001
X0492377Y04911
X047569Y049369
X04711Y04941
X04802Y05089
X04884Y05143
Y05173
X04907Y04718
X04856Y04722
X04825Y04747
X04578Y04792
X05087Y04823
X05088Y04854
X0512Y04793
X0511Y04472
X05102Y04412
X05194Y04417
X05225Y04419
X05275
Y04473
X05225
X05194
X05325Y04474
X05375Y04475
X05425Y04474
X05469Y04475
X05041Y04503
X0589Y05796
X05941Y05812
X0611
X06112Y05771
X04545Y05681
X04538Y05584
X04501Y05569
X0449058Y0522758
X0449179Y0518821
X04343Y05128
X0447Y04837
X04542Y04823
X03879Y05004
X0379
X0352068Y0545532
X03551Y05639
X03487Y05691
X03338Y05708
Y05625
X03194Y05559
X03111Y05679
X0321253Y0582153
X03202Y05357
X0305199Y0532601
X03038Y0516
X03044Y04473
X03075
X03125
X03175Y04474
X03225Y04475
X03275Y04474
X03319Y04475
X03125Y04419
X03075
X03044Y04417
X0374Y05796
X03791Y05812
X0396
X03962Y05771
X03006Y05737
X02992Y0554
X02897Y05628
X0266263Y0554937
X02516Y0557
X02465
Y0561
X02388Y05584
X02351Y05569
X02395Y05681
X0247347Y0575947
X0234058Y0522758
X0234179Y0518821
X02193Y05128
X0232Y04837
X02392Y04823
X02428Y04792
X02561Y04941
X026069Y049369
X0277377Y04911
X02879Y05001
X02938Y04854
X02937Y04823
X0297Y04793
X02757Y04718
X02706Y04722
X02675Y04747
X02652Y05089
X02734Y05143
Y05173
X03Y05192
X02992Y05128
X0296Y04472
X02952Y04412
X02891Y04503
X01729Y05004
X0164
X01641Y05812
X0159Y05796
X0181Y05812
X01812Y05771
X01401Y05639
X01337Y05691
X01188Y05708
Y05625
X01044Y05559
X00961Y05679
X00856Y05737
X00842Y0554
X00747Y05628
X0051263Y0554937
X00366Y0557
X00315
Y0561
X00238Y05584
X00201Y05569
X00245Y05681
X0032347Y0575947
X0019058Y0522758
X0019179Y0518821
X00043Y05128
X0017Y04837
X00242Y04823
X00278Y04792
X00411Y04941
X004569Y049369
X0062377Y04911
X00729Y05001
X00788Y04854
X00787Y04823
X0082Y04793
X00607Y04718
X00556Y04722
X00525Y04747
X00502Y05089
X00584Y05143
Y05173
X0085Y05192
X00888Y0516
X00842Y05128
X0090199Y0532601
X01052Y05357
X0137068Y0545532
X0106253Y0582153
X01075Y04475
X01025Y04474
X00975Y04473
X00925
X00894
Y04417
X00925Y04419
X00975
X00802Y04412
X0081Y04472
X00741Y04503
X01125Y04474
X01169Y04475
X00914Y05853
X00778Y05972
X00751Y06145
X0057Y06129
X0078766Y0651334
X0088187Y0657
X00925Y06568
X00975Y06569
X01025Y06621
X01075Y06626
X01125Y06737
X01175Y06736
X01274Y06744
X01296Y06794
X0128Y06862
X01329Y0689
X0125369Y0696131
X01175Y06971
X0113558Y0696358
X01101Y06969
X01042Y06971
X00983Y0705
X00979Y07134
X0081347Y0712347
X00801Y0716
X00822Y0708
X00784Y073
X00746Y07299
X00701Y07304
X00749Y07362
X00713Y07406
X00839Y07389
X0107652Y0729952
X01113Y07299
X0115451Y0729951
X0119Y073
X01229Y07299
X01309Y07209
X01311Y07154
X01434Y070372
X01424Y06659
X01392Y06631
X01311Y06603
X01341Y06568
X0131577Y0651677
X01331Y06084
X00975Y06739
X0098647Y0677347
X0098Y06846
X00902Y06877
X00925Y0674
X00875Y06739
X00825Y0674
X00605Y06801
X0048953Y06812
X00549Y06878
X00511Y06682
X00345Y06837
X002Y0681053
X00242Y07192
X0021053Y0723153
X0014447Y07234
X00143Y07397
X00203Y0735
X00402Y07363
X00447Y07374
X004783Y0737812
X00483Y07331
X00438Y07277
X0054747Y0722747
X00531Y07142
X0039428Y0715172
X00348Y07138
X01488Y07153
X01551Y07105
X01573Y07209
X01871Y07218
X01728Y07363
X01692Y06976
X01656Y0688
X01655Y06838
X01796Y06846
X01897Y06671
X01474Y06811
X01504Y06846
X0235Y0681053
X02495Y06837
X0263953Y06812
X02699Y06878
X02755Y06801
X02661Y06682
X02975Y0674
X0293766Y0651334
X02901Y06145
X0272Y06129
X02928Y05972
X02972Y0708
X0296347Y0712347
X02951Y0716
X02934Y073
X02896Y07299
X02851Y07304
X02899Y07362
X02863Y07406
X02989Y07389
X026283Y0737812
X02597Y07374
X02552Y07363
X02633Y07331
X02588Y07277
X0269747Y0722747
X02681Y07142
X0254428Y0715172
X02498Y07138
X02392Y07192
X0236053Y0723153
X0229447Y07234
X02293Y07397
X02353Y0735
X0322652Y0729952
X03263Y07299
X0330451Y0729951
X0334Y073
X03379Y07299
X03459Y07209
X03461Y07154
X03638Y07153
X03701Y07105
X03723Y07209
X04021Y07218
X03878Y07363
X03842Y06976
X03806Y0688
X03805Y06838
X03946Y06846
X04047Y06671
X03574Y06659
X03542Y06631
X03461Y06603
X03491Y06568
X0346577Y0651677
X03424Y06744
X03446Y06794
X0343Y06862
X03479Y0689
X0340369Y0696131
X03325Y06971
X0328558Y0696358
X03251Y06969
X03192Y06971
X03133Y0705
X03129Y07134
X0313Y06846
X0313647Y0677347
X03125Y06739
X03075Y0674
X03025Y06739
X03052Y06877
X0303187Y0657
X03075Y06568
X03125Y06569
X03175Y06621
X03225Y06626
X03275Y06737
X03325Y06736
X03624Y06811
X03654Y06846
X03584Y070372
X03481Y06084
X03064Y05853
X045Y0681053
X04542Y07192
X0451053Y0723153
X0444447Y07234
X04443Y07397
X04503Y0735
X04702Y07363
X04747Y07374
X047783Y0737812
X04783Y07331
X04738Y07277
X0484747Y0722747
X04831Y07142
X0469428Y0715172
X04648Y07138
X04645Y06837
X0478953Y06812
X04849Y06878
X04905Y06801
X04811Y06682
X05125Y0674
X05175Y06739
X05225Y0674
X05275Y06739
X0528647Y0677347
X0528Y06846
X05202Y06877
X05342Y06971
X05401Y06969
X0543558Y0696358
X05475Y06971
X0555369Y0696131
X0558Y06862
X05629Y0689
X05596Y06794
X05574Y06744
X05475Y06736
X05425Y06737
X05375Y06626
X05325Y06621
X05275Y06569
X05225Y06568
X0518187Y0657
X0508766Y0651334
X05051Y06145
X0487Y06129
X05078Y05972
X05214Y05853
X05631Y06084
X0561577Y0651677
X05641Y06568
X05611Y06603
X05692Y06631
X05724Y06659
X05774Y06811
X05804Y06846
X05955Y06838
X05956Y0688
X05992Y06976
X06096Y06846
X05851Y07105
X05788Y07153
X05873Y07209
X05609
X05611Y07154
X05529Y07299
X0549Y073
X0545451Y0729951
X05413Y07299
X0537652Y0729952
X05279Y07134
X05283Y0705
X05122Y0708
X0511347Y0712347
X05101Y0716
X05084Y073
X05046Y07299
X05001Y07304
X05049Y07362
X05013Y07406
X05139Y07389
X06028Y07363
X05734Y070372
X06171Y07218
X0656347Y0716847
X06599Y07161
X06585Y07108
X06526Y07055
X06706Y07132
X06749Y07226
X06593Y07286
X06602Y07325
X06533Y07399
X06872Y07337
X06832Y06813
X06872Y06702
X06749Y06591
X06706Y06497
X06599Y06526
X0656347Y0653347
X06585Y06473
X06526Y0642
X06593Y06651
X06602Y0669
X06583Y06811
X06533Y06764
X06197Y06671
X06533Y06124
X06583Y06171
X06602Y0605
X06593Y06011
X06599Y05886
X0656347Y0589347
X06706Y05857
X06749Y05951
X06872Y06062
X06832Y06173
Y07448
X06583Y07446
X0614147Y0789447
X0611128Y0786772
X0597647Y0782853
X05976Y07788
X0591Y07789
X05863Y07788
X05831Y0779
X05783Y0779
X05791Y07821
X05745
X05695Y07819
X0569912Y077877
X05652Y07783
X05598Y07828
X05684Y07864
X05749Y079
X05804Y07902
X05831Y07882
X05907Y07869
X05921Y08026
X05911Y0809
X05831Y08147
X05784Y08135
X05706
X05671Y08056
X0555253Y0805547
X0555247Y0808853
X05513Y08024
X05459Y07918
X0547272Y0787172
X05377Y07848
X05434Y07725
X0554847Y0771853
X05625Y07565
X05626Y07531
X05624Y07472
X05682Y07515
X0573Y07553
X05807Y07563
X05849
X0588743Y0755743
X05942Y07564
X05916Y07446
X06011Y07703
X06069Y08023
X06058Y08147
X06051Y08222
X05877
X0543647Y0818747
X05292Y0817149
X052542Y082502
X05267Y08389
X0543347Y0836253
X0514847Y0818647
X05025Y08102
X049936Y079626
X04895Y07948
X0496274Y0781574
X0506086Y0773286
X05063Y07575
X0500857Y0756643
X05003Y07528
Y07486
X05043Y07455
X05129Y07481
X05002Y07621
X04863Y0769
X04778Y07655
X0473747Y0765547
X04777Y07589
X04778Y07542
X04776Y0751
X04776Y07462
X04745Y0747
Y07424
X04666Y07428
X04664Y07483
X04684Y0751
X04697Y07586
X0469828Y0779028
X0467153Y0782047
X04697Y07846
X0477547Y0785847
X04714Y07988
X04631
X0475Y0809747
Y08186
X0478047Y0835353
X0518542Y0801258
X05194Y07848
X051Y07869
X0522874Y0768326
X05237Y07644
X05359Y07578
X05448
X05457Y07525
X05499Y07518
X05395Y07519
X0454Y076
X04476Y07593
X04438Y07493
X04543Y07748
X0399147Y0789447
X0396128Y0786772
X0382647Y0782853
X03826Y07788
X0376Y07789
X03713Y07788
X03681Y0779
X03633Y0779
X03641Y07821
X03595
X03545Y07819
X0354912Y077877
X03502Y07783
X03448Y07828
X03534Y07864
X03599Y079
X03654Y07902
X03681Y07882
X03757Y07869
X03771Y08026
X03761Y0809
X03681Y08147
X03634Y08135
X03556
X03521Y08056
X0340253Y0805547
X0340247Y0808853
X03363Y08024
X03309Y07918
X0332272Y0787172
X03227Y07848
X03284Y07725
X0339847Y0771853
X03475Y07565
X03476Y07531
X03474Y07472
X03532Y07515
X0358Y07553
X03657Y07563
X03699
X0373743Y0755743
X03792Y07564
X03766Y07446
X03861Y07703
X03919Y08023
X03908Y08147
X03901Y08222
X03727
X0328647Y0818747
X03142Y0817149
X031042Y082502
X03117Y08389
X0328347Y0836253
X0303542Y0801258
X03044Y07848
X0307874Y0768326
X03087Y07644
X03209Y07578
X03298
X03307Y07525
X03349Y07518
X03245Y07519
X02979Y07481
X02893Y07455
X02853Y07486
Y07528
X0285857Y0756643
X02852Y07621
X02913Y07575
X0291086Y0773286
X0295Y07869
X0281274Y0781574
X028436Y079626
X02745Y07948
X0262547Y0785847
X02547Y07846
X0252153Y0782047
X0254828Y0779028
X0258747Y0765547
X02628Y07655
X02627Y07589
X02628Y07542
X02626Y0751
X02626Y07462
X02595Y0747
Y07424
X02516Y07428
X02514Y07483
X02534Y0751
X02547Y07586
X0239Y076
X02326Y07593
X02288Y07493
X02393Y07748
X02481Y07988
X02564
X026Y0809747
Y08186
X0263047Y0835353
X02875Y08102
X0299847Y0818647
X02713Y0769
X01711Y07703
X01676Y07788
X0167647Y0782853
X0161Y07789
X01563Y07788
X01531Y0779
X01483Y0779
X01491Y07821
X01504Y07902
X01531Y07882
X01607Y07869
X01621Y08026
X01611Y0809
X01531Y08147
X01484Y08135
X01577Y08222
X01751
X01758Y08147
X01769Y08023
X0181128Y0786772
X0184147Y0789447
X01642Y07564
X0158743Y0755743
X01549Y07563
X01507
X01616Y07446
X0143Y07553
X01382Y07515
X01326Y07531
X01325Y07565
X01324Y07472
X01199Y07518
X01157Y07525
X01148Y07578
X01059
X01095Y07519
X01134Y07725
X0124847Y0771853
X01298Y07828
X01352Y07783
X0139912Y077877
X01395Y07819
X01445Y07821
X01449Y079
X01384Y07864
X01371Y08056
X01406Y08135
X0125247Y0808853
X0125253Y0805547
X01213Y08024
X01159Y07918
X0117272Y0787172
X01077Y07848
X00894
X008Y07869
X0076086Y0773286
X00763Y07575
X0070857Y0756643
X00703Y07528
Y07486
X00743Y07455
X00829Y07481
X00702Y07621
X00563Y0769
X00478Y07655
X0043747Y0765547
X00477Y07589
X00478Y07542
X00476Y0751
X00476Y07462
X00445Y0747
Y07424
X00366Y07428
X00364Y07483
X00384Y0751
X00397Y07586
X0024Y076
X00176Y07593
X00138Y07493
X00243Y07748
X0039828Y0779028
X0037153Y0782047
X00397Y07846
X0047547Y0785847
X00414Y07988
X00331
X0045Y0809747
Y08186
X0048047Y0835353
X00725Y08102
X006936Y079626
X00595Y07948
X0066274Y0781574
X0092874Y0768326
X00937Y07644
X0088542Y0801258
X0084847Y0818647
X00992Y0817149
X009542Y082502
X00967Y08389
X0113347Y0836253
X0113647Y0818747
T02
X0039001Y00299
X0050901Y00376
X0065601Y00428
X0065701Y00657
X0051201Y00611
X0039101Y00534
X0038901Y00763
X0050901Y00836
X00658Y01135
X0134099Y0113
X01364Y0088
X01334Y0066
X01335Y00431
X01341Y00196
X01212Y00081
X01213Y00046
X01099Y0013
X01062Y00131
X0065001Y00193
X01482Y00379
X01601Y00302
X016Y00537
X01479Y00614
X01482Y00839
X01489Y01004
X01602Y00766
X0253901Y00763
X0265901Y00836
X0266201Y00611
X0280701Y00657
X0280601Y00428
X0265901Y00376
X0254001Y00299
X0254101Y00534
X0280001Y00193
X02808Y01135
X0349099Y0113
X03514Y0088
X03632Y00839
X03639Y01004
X03752Y00766
X0375Y00537
X03629Y00614
X03484Y0066
X03485Y00431
X03632Y00379
X03751Y00302
X03491Y00196
X03362Y00081
X03363Y00046
X03249Y0013
X03212Y00131
X0469001Y00299
X0480901Y00376
X0495601Y00428
X0495701Y00657
X0481201Y00611
X0469101Y00534
X0468901Y00763
X0480901Y00836
X04958Y01135
X0564099Y0113
X05664Y0088
X05782Y00839
X05789Y01004
X05902Y00766
X059Y00537
X05779Y00614
X05634Y0066
X05635Y00431
X05782Y00379
X05901Y00302
X05641Y00196
X05512Y00081
X05513Y00046
X05399Y0013
X05362Y00131
X0495001Y00193
X0496501Y01364
X0481801Y01312
X0469901Y01235
X0470001Y0147
X0482101Y01547
X0496601Y01593
X0481801Y01772
X04887Y01863
X0469801Y01699
X0563399Y01594
X0577899Y01548
X0589999Y01471
X0590199Y017
X0578199Y01773
X0572Y01871
X0563499Y01365
X0578199Y01313
X0590099Y01236
X05837Y0252
X03687
X0357Y01871
X0363199Y01773
X0375199Y017
X0374999Y01471
X0362899Y01548
X0348399Y01594
X0348499Y01365
X0363199Y01313
X0375099Y01236
X0281501Y01364
X0266801Y01312
X0254901Y01235
X0255001Y0147
X0267101Y01547
X0281601Y01593
X0266801Y01772
X02737Y01863
X0254801Y01699
X0160199Y017
X0148199Y01773
X0147899Y01548
X0159999Y01471
X0160099Y01236
X0148199Y01313
X01537Y0252
X0142Y01871
X0133399Y01594
X0133499Y01365
X0066501Y01364
X0051801Y01312
X0039901Y01235
X0040001Y0147
X0052101Y01547
X0066601Y01593
X0051801Y01772
X00587Y01863
X0039801Y01699
X01396Y0324486
X01268Y03518
X03418
X03546Y0324486
X05696
X05568Y03518
X06185Y04656
X06113Y04827
X06117Y04872
X05948Y04863
Y04809
X0550346Y0445454
X05494Y04419
X05406Y04431
X05601Y05804
X05737Y05809
X03587
X03451Y05804
X03798Y04863
Y04809
X03963Y04827
X03967Y04872
X04035Y04656
X0335346Y0445454
X03344Y04419
X03256Y04431
X01885Y04656
X01813Y04827
X01817Y04872
X01648Y04863
Y04809
X0120346Y0445454
X01194Y04419
X01106Y04431
X01301Y05804
X01437Y05809
X0144Y05909
X01387Y05962
X0114Y06064
X00918Y05922
X00464Y05921
X00138Y05847
X00645Y06227
X01106Y06574
X01188Y06568
X01203Y06601
X01754Y0711
X02288Y05847
X02614Y05921
X02795Y06227
X03068Y05922
X0329Y06064
X03537Y05962
X0359Y05909
X04438Y05847
X03904Y0711
X03353Y06601
X03338Y06568
X03256Y06574
X04945Y06227
X04764Y05921
X05218Y05922
X0544Y06064
X05687Y05962
X0574Y05909
X05488Y06568
X05503Y06601
X05406Y06574
X06054Y0711
T03
X00508Y00146
X0070301Y00383
X0070201Y00611
X0069801Y00841
X01303Y00834
X01289Y00614
X01288Y00386
X01489Y00152
X02658Y00146
X0285301Y00383
X0285201Y00611
X0284801Y00841
X03453Y00834
X03439Y00614
X03438Y00386
X03639Y00152
X04808Y00146
X0500301Y00383
X0500201Y00611
X0499801Y00841
X05603Y00834
X05589Y00614
X05588Y00386
X05789Y00152
X05589Y01321
X0558899Y01548
X0559299Y01778
X0500701Y01777
X0501101Y01547
X05007Y01319
X03439Y01321
X0343899Y01548
X0344299Y01778
X0285701Y01777
X0286101Y01547
X02857Y01319
X01289Y01321
X0128899Y01548
X0129299Y01778
X0070701Y01777
X0071101Y01547
X00707Y01319
T04
X05225Y01591
X05275
X05325
X05375
X03225
X03175
X03125
X03075
X01075
X01025
X00975
X00925
T05
X05746Y04524
X05654Y04616
X05309Y05618
X0489Y05697
X03159Y05618
X03504Y04616
X03596Y04524
X0274Y05697
X01009Y05618
X0059Y05697
X01354Y04616
X01446Y04524
X01057Y05937
X0057Y05866
X0272
X03207Y05937
X0487Y05866
X05357Y05937
T06
X0572Y0236
X05835Y0233
X03685
X0357Y0236
X01535Y0233
X0142Y0236
X06221Y05211
X05923Y05078
X05831Y04899
X0571Y04872
X0542594Y0495995
X05293Y05142
X05087Y05065
X0473721Y0532679
X0463879Y0532221
X05697Y04336
X04519Y05053
X0450332Y0530632
X04071Y05211
X03773Y05078
X03681Y04899
X0356Y04872
X0327594Y0495995
X03143Y05142
X03547Y04336
X02937Y05065
X02369Y05053
X0235332Y0530632
X0248879Y0532221
X0258721Y0532679
X01921Y05211
X01623Y05078
X01531Y04899
X0141Y04872
X0112594Y0495995
X00993Y05142
X00787Y05065
X00219Y05053
X0020332Y0530632
X0033879Y0532221
X0043721Y0532679
X01397Y04336
X01375Y06484
X01399Y06536
X0045411Y0653189
X01612Y06659
X0173253Y0669053
X0176289Y0653189
X0188Y06962
X0260411Y0653189
X03549Y06536
X03525Y06484
X03762Y06659
X0388253Y0669053
X0391289Y0653189
X0403Y06962
X0475411Y0653189
X05699Y06536
X05675Y06484
X05912Y06659
X0603253Y0669053
X0606289Y0653189
X0618Y06962
X06186Y0818
X04613Y08294
X04036Y0818
X02463Y08294
X01886Y0818
X00313Y08294
T07
X04645Y0268
X02495
X00345
Y0275874
Y0283748
X00425Y03805
X0050374
X0058248
X0066122
X008975
X0097624
X0105498
X0113372
X0137
X0144874
X0152748
X0160622
X02575
X0265374
X0273248
X0281122
X02495Y0283748
Y0275874
X030475Y03805
X0312624
X0320498
X0328372
X0352
X0359874
X0367748
X0375622
X04725
X0480374
X0488248
X0496122
X051975
X0527624
X0535498
X0543372
X0567
X0574874
X0582748
X0590622
X04645Y0283748
Y0275874
T08
X06235Y0249
Y0259
Y0269
X06115
Y0259
Y0249
X04085
Y0259
Y0269
X03965
Y0259
Y0249
X01935
Y0259
Y0269
X01815
Y0259
Y0249
X01835Y0281
X01735
Y0293
X01835
X01935
Y0281
Y0305
X01835
X01735
Y0317
X01835
X01935
Y0329
X01835
X01735
Y0341
X01835
X01935
Y0353
X01835
X01735
Y0365
X01835
X01935
X03885
X03985
X04085
Y0353
X03985
X03885
Y0341
X03985
X04085
Y0329
X03985
X03885
Y0317
X03985
X04085
Y0305
X03985
X03885
Y0293
X03985
X04085
Y0281
X03985
X03885
X06035
X06135
Y0293
X06035
Y0305
X06135
Y0317
X06035
Y0329
X06135
Y0341
X06035
Y0353
X06135
Y0365
X06035
X06235
Y0353
Y0341
Y0329
Y0317
Y0305
Y0293
Y0281
X04929Y04372
Y04472
X04829
Y04372
X04729
Y04472
X04629
Y04372
X02779
Y04472
X02679
Y04372
X02579
Y04472
X02479
Y04372
X00629
Y04472
X00529
Y04372
X00429
Y04472
X00329
Y04372
X05664Y08362
X05764
X05864
X05964
X04574Y08223
Y08123
Y08023
Y07923
X03814Y08362
X03714
X03614
X03514
X02424Y08223
Y08123
Y08023
Y07923
X01664Y08362
X01564
X01464
X01364
X00274Y08223
Y08123
Y08023
Y07923
T09
X001Y001
X019
X0225
X0405
X044
X062
Y019
Y0225
X044
Y019
X0405
Y0225
X0225
Y019
X019
Y0225
X001
Y019
Y0405
X019
X0225
X0405
X044
X062
Y044
X044
X0405
X0225
X019
X001
Y062
Y0655
X019
X0225
Y062
X019
X0405
X044
Y0655
X0405
X062
Y062
Y0835
X044
X0405
X0225
X019
X001
T10
X0085Y00147
X0115
X03
X033
X0515
X0545
Y02297
X0515
X033
X03
X0115
X0085
X0018905Y0308139
Y0325461
X0233905
Y0308139
X0448905
Y0325461
X0515Y04447
X0555
X034
X03
X0125
X0085
Y06597
X0115
X0125
X03
X033
X034
X0515
X0545
X0555
M30
