*
*
G04 PADS Layout (Build Number 2008.43.1) generated Gerber (RS-274-X) file*
G04 PC Version=2.1*
*
%IN "TEX002_F2803x_r1.pcb"*%
*
%MOIN*%
*
%FSLAX35Y35*%
*
*
*
*
G04 PC Standard Apertures*
*
*
G04 Thermal Relief Aperture macro.*
%AMTER*
1,1,$1,0,0*
1,0,$1-$2,0,0*
21,0,$3,$4,0,0,45*
21,0,$3,$4,0,0,135*
%
*
*
G04 Annular Aperture macro.*
%AMANN*
1,1,$1,0,0*
1,0,$2,0,0*
%
*
*
G04 Odd Aperture macro.*
%AMODD*
1,1,$1,0,0*
1,0,$1-0.005,0,0*
%
*
*
G04 PC Custom Aperture Macros*
*
*
*
*
*
*
G04 PC Aperture Table*
*
%ADD011R,0.039X0.039*%
%ADD012R,0.051X0.051*%
%ADD014R,0.03937X0.03937*%
%ADD027C,0.01*%
%ADD028C,0.005*%
%ADD029C,0.012*%
%ADD033C,0.008*%
%ADD037C,0.025*%
%ADD042C,0.006*%
%ADD060C,0*%
%ADD069C,0.04*%
*
*
*
*
G04 PC Circuitry*
G04 Layer Name TEX002_F2803x_r1.pcb - circuitry*
%LPD*%
*
*
G04 PC Custom Flashes*
G04 Layer Name TEX002_F2803x_r1.pcb - flashes*
%LPD*%
*
*
G04 PC Circuitry*
G04 Layer Name TEX002_F2803x_r1.pcb - circuitry*
%LPD*%
*
G54D11*
G01X1145050Y1070000D02*
X1144650D01*
X1138350D02*
X1137950D01*
X1247050Y1025000D02*
X1246650D01*
X1240350D02*
X1239950D01*
X1229050Y1077000D02*
X1228650D01*
X1222350D02*
X1221950D01*
X1197500Y1047550D02*
Y1047150D01*
Y1040850D02*
Y1040450D01*
X1294950Y1045000D02*
X1295350D01*
X1301650D02*
X1302050D01*
X1294950Y1055000D02*
X1295350D01*
X1301650D02*
X1302050D01*
X1200450Y1031000D02*
X1200850D01*
X1207150D02*
X1207550D01*
X1190500Y1065050D02*
Y1064650D01*
Y1058350D02*
Y1057950D01*
X1159050Y1074000D02*
X1158650D01*
X1152350D02*
X1151950D01*
X1244000Y1066050D02*
Y1065650D01*
Y1059350D02*
Y1058950D01*
X1214450Y1083500D02*
X1214850D01*
X1221150D02*
X1221550D01*
X1046050Y1087500D02*
X1045650D01*
X1039350D02*
X1038950D01*
X1301050D02*
X1300650D01*
X1294350D02*
X1293950D01*
X1159050Y1066000D02*
X1158650D01*
X1152350D02*
X1151950D01*
X1145050Y1063000D02*
X1144650D01*
X1138350D02*
X1137950D01*
X1145050Y1077500D02*
X1144650D01*
X1138350D02*
X1137950D01*
X1159050Y1056500D02*
X1158650D01*
X1152350D02*
X1151950D01*
X1159050Y1049000D02*
X1158650D01*
X1152350D02*
X1151950D01*
X1145050Y1048500D02*
X1144650D01*
X1138350D02*
X1137950D01*
X1145050Y1056500D02*
X1144650D01*
X1138350D02*
X1137950D01*
X1211050Y1058500D02*
X1210650D01*
X1204350D02*
X1203950D01*
X1340000Y1056050D02*
Y1055650D01*
Y1049350D02*
Y1048950D01*
X1337500Y1031050D02*
Y1030650D01*
Y1024350D02*
Y1023950D01*
X1330000Y1056050D02*
Y1055650D01*
Y1049350D02*
Y1048950D01*
X1201950Y1079000D02*
X1202350D01*
X1208650D02*
X1209050D01*
X1312500Y1088550D02*
Y1088150D01*
Y1081850D02*
Y1081450D01*
X1322500Y1088550D02*
Y1088150D01*
Y1081850D02*
Y1081450D01*
X1332500Y1088550D02*
Y1088150D01*
Y1081850D02*
Y1081450D01*
G54D12*
X1247250Y1031600D02*
Y1032400D01*
X1239750Y1031600D02*
Y1032400D01*
X1207750Y1070900D02*
Y1070100D01*
X1215250Y1070900D02*
Y1070100D01*
X1213750Y1042100D02*
Y1042900D01*
X1206250Y1042100D02*
Y1042900D01*
X1210250Y1023600D02*
Y1024400D01*
X1202750Y1023600D02*
Y1024400D01*
G54D14*
X1035000Y1002756D02*
Y1007874D01*
X1040000Y1002756D02*
Y1007874D01*
X1045000Y1002756D02*
Y1007874D01*
X1050000Y1002756D02*
Y1007874D01*
X1055000Y1002756D02*
Y1007874D01*
X1060000Y1002756D02*
Y1007874D01*
X1085000Y1002756D02*
Y1007874D01*
X1090000Y1002756D02*
Y1007874D01*
X1095000Y1002756D02*
Y1007874D01*
X1100000Y1002756D02*
Y1007874D01*
X1105000Y1002756D02*
Y1007874D01*
X1110000Y1002756D02*
Y1007874D01*
X1115000Y1002756D02*
Y1007874D01*
X1120000Y1002756D02*
Y1007874D01*
X1125000Y1002756D02*
Y1007874D01*
X1130000Y1002756D02*
Y1007874D01*
X1135000Y1002756D02*
Y1007874D01*
X1140000Y1002756D02*
Y1007874D01*
X1145000Y1002756D02*
Y1007874D01*
X1150000Y1002756D02*
Y1007874D01*
X1155000Y1002756D02*
Y1007874D01*
X1160000Y1002756D02*
Y1007874D01*
X1185000Y1002756D02*
Y1007874D01*
X1190000Y1002756D02*
Y1007874D01*
X1195000Y1002756D02*
Y1007874D01*
X1200000Y1002756D02*
Y1007874D01*
X1205000Y1002756D02*
Y1007874D01*
X1210000Y1002756D02*
Y1007874D01*
X1215000Y1002756D02*
Y1007874D01*
X1220000Y1002756D02*
Y1007874D01*
X1225000Y1002756D02*
Y1007874D01*
X1230000Y1002756D02*
Y1007874D01*
X1235000Y1002756D02*
Y1007874D01*
X1240000Y1002756D02*
Y1007874D01*
X1245000Y1002756D02*
Y1007874D01*
X1250000Y1002756D02*
Y1007874D01*
X1255000Y1002756D02*
Y1007874D01*
X1260000Y1002756D02*
Y1007874D01*
X1265000Y1002756D02*
Y1007874D01*
X1270000Y1002756D02*
Y1007874D01*
X1275000Y1002756D02*
Y1007874D01*
X1280000Y1002756D02*
Y1007874D01*
X1285000Y1002756D02*
Y1007874D01*
X1290000Y1002756D02*
Y1007874D01*
X1295000Y1002756D02*
Y1007874D01*
X1300000Y1002756D02*
Y1007874D01*
X1305000Y1002756D02*
Y1007874D01*
X1310000Y1002756D02*
Y1007874D01*
X1315000Y1002756D02*
Y1007874D01*
X1320000Y1002756D02*
Y1007874D01*
G54D27*
X1293580Y664184D02*
Y654341D01*
X1297670*
X1303466Y664184D02*
X1300739Y654341D01*
X1303466Y664184D02*
X1306193Y654341D01*
X1301761Y657622D02*
X1305170D01*
X1309261Y664184D02*
X1311989Y659497D01*
Y654341*
X1314716Y664184D02*
X1311989Y659497D01*
X1317784Y664184D02*
Y654341D01*
Y664184D02*
X1322216D01*
X1317784Y659497D02*
X1320511D01*
X1317784Y654341D02*
X1322216D01*
X1325284Y664184D02*
Y654341D01*
Y664184D02*
X1328352D01*
X1329375Y663716*
X1329716Y663247*
X1330057Y662309*
Y661372*
X1329716Y660434*
X1329375Y659966*
X1328352Y659497*
X1325284*
X1327670D02*
X1330057Y654341D01*
X1035078Y707903D02*
Y698060D01*
Y707903D02*
X1038146D01*
X1039169Y707435*
X1039509Y706966*
X1039850Y706028*
Y704622*
X1039509Y703685*
X1039169Y703216*
X1038146Y702747*
X1035078*
X1042919Y707903D02*
Y698060D01*
X1047691Y707903D02*
Y698060D01*
X1042919Y703216D02*
X1047691D01*
X1052805Y707903D02*
X1052123Y707435D01*
X1051441Y706497*
X1051100Y705560*
X1050759Y704153*
Y701810*
X1051100Y700403*
X1051441Y699466*
X1052123Y698528*
X1052805Y698060*
X1054169*
X1054850Y698528*
X1055532Y699466*
X1055873Y700403*
X1056214Y701810*
Y704153*
X1055873Y705560*
X1055532Y706497*
X1054850Y707435*
X1054169Y707903*
X1052805*
X1059282D02*
Y698060D01*
Y707903D02*
X1064055Y698060D01*
Y707903D02*
Y698060D01*
X1067123Y707903D02*
Y698060D01*
Y707903D02*
X1071555D01*
X1067123Y703216D02*
X1069850D01*
X1067123Y698060D02*
X1071555D01*
X1074964Y704622D02*
X1074623Y704153D01*
X1074964Y703685*
X1075305Y704153*
X1074964Y704622*
Y698997D02*
X1074623Y698528D01*
X1074964Y698060*
X1075305Y698528*
X1074964Y698997*
X1090646Y707903D02*
X1087237D01*
X1086896Y703685*
X1087237Y704153*
X1088259Y704622*
X1089282*
X1090305Y704153*
X1090987Y703216*
X1091328Y701810*
X1090987Y700872*
X1090646Y699466*
X1089964Y698528*
X1088941Y698060*
X1087919*
X1086896Y698528*
X1086555Y698997*
X1086214Y699935*
X1096441Y707903D02*
X1095419Y707435D01*
X1094737Y706028*
X1094396Y703685*
Y702278*
X1094737Y699935*
X1095419Y698528*
X1096441Y698060*
X1097123*
X1098146Y698528*
X1098828Y699935*
X1099169Y702278*
Y703685*
X1098828Y706028*
X1098146Y707435*
X1097123Y707903*
X1096441*
X1103941D02*
X1102919Y707435D01*
X1102578Y706497*
Y705560*
X1102919Y704622*
X1103600Y704153*
X1104964Y703685*
X1105987Y703216*
X1106669Y702278*
X1107009Y701341*
Y699935*
X1106669Y698997*
X1106328Y698528*
X1105305Y698060*
X1103941*
X1102919Y698528*
X1102578Y698997*
X1102237Y699935*
Y701341*
X1102578Y702278*
X1103259Y703216*
X1104282Y703685*
X1105646Y704153*
X1106328Y704622*
X1106669Y705560*
Y706497*
X1106328Y707435*
X1105305Y707903*
X1103941*
X1110419Y698997D02*
X1110078Y698528D01*
X1110419Y698060*
X1110759Y698528*
X1110419Y698997*
X1118259Y704622D02*
X1117919Y703216D01*
X1117237Y702278*
X1116214Y701810*
X1115873*
X1114850Y702278*
X1114169Y703216*
X1113828Y704622*
Y705091*
X1114169Y706497*
X1114850Y707435*
X1115873Y707903*
X1116214*
X1117237Y707435*
X1117919Y706497*
X1118259Y704622*
Y702278*
X1117919Y699935*
X1117237Y698528*
X1116214Y698060*
X1115532*
X1114509Y698528*
X1114169Y699466*
X1124737Y707903D02*
X1121328Y701341D01*
X1126441*
X1124737Y707903D02*
Y698060D01*
X1134282Y707903D02*
X1130873Y698060D01*
X1129509Y707903D02*
X1134282D01*
X1137691Y698997D02*
X1137350Y698528D01*
X1137691Y698060*
X1138032Y698528*
X1137691Y698997*
X1141441Y705560D02*
Y706028D01*
X1141782Y706966*
X1142123Y707435*
X1142805Y707903*
X1144169*
X1144850Y707435*
X1145191Y706966*
X1145532Y706028*
Y705091*
X1145191Y704153*
X1144509Y702747*
X1141100Y698060*
X1145873*
X1153714Y707903D02*
X1150305Y698060D01*
X1148941Y707903D02*
X1153714D01*
X1158828D02*
X1157805Y707435D01*
X1157123Y706028*
X1156782Y703685*
Y702278*
X1157123Y699935*
X1157805Y698528*
X1158828Y698060*
X1159509*
X1160532Y698528*
X1161214Y699935*
X1161555Y702278*
Y703685*
X1161214Y706028*
X1160532Y707435*
X1159509Y707903*
X1158828*
X1169055Y704622D02*
X1168714Y703216D01*
X1168032Y702278*
X1167009Y701810*
X1166669*
X1165646Y702278*
X1164964Y703216*
X1164623Y704622*
Y705091*
X1164964Y706497*
X1165646Y707435*
X1166669Y707903*
X1167009*
X1168032Y707435*
X1168714Y706497*
X1169055Y704622*
Y702278*
X1168714Y699935*
X1168032Y698528*
X1167009Y698060*
X1166328*
X1165305Y698528*
X1164964Y699466*
X1032578Y726403D02*
Y716560D01*
Y726403D02*
X1035305Y716560D01*
X1038032Y726403D02*
X1035305Y716560D01*
X1038032Y726403D02*
Y716560D01*
X1041100Y726403D02*
X1041441Y725935D01*
X1041782Y726403*
X1041441Y726872*
X1041100Y726403*
X1041441Y723122D02*
Y716560D01*
X1048941Y726403D02*
Y716560D01*
Y721716D02*
X1048259Y722653D01*
X1047578Y723122*
X1046555*
X1045873Y722653*
X1045191Y721716*
X1044850Y720310*
Y719372*
X1045191Y717966*
X1045873Y717028*
X1046555Y716560*
X1047578*
X1048259Y717028*
X1048941Y717966*
X1056100Y726403D02*
Y716560D01*
Y721716D02*
X1055419Y722653D01*
X1054737Y723122*
X1053714*
X1053032Y722653*
X1052350Y721716*
X1052009Y720310*
Y719372*
X1052350Y717966*
X1053032Y717028*
X1053714Y716560*
X1054737*
X1055419Y717028*
X1056100Y717966*
X1059169Y726403D02*
Y716560D01*
X1062237Y720310D02*
X1066328D01*
Y721247*
X1065987Y722185*
X1065646Y722653*
X1064964Y723122*
X1063941*
X1063259Y722653*
X1062578Y721716*
X1062237Y720310*
Y719372*
X1062578Y717966*
X1063259Y717028*
X1063941Y716560*
X1064964*
X1065646Y717028*
X1066328Y717966*
X1069396Y726403D02*
Y716560D01*
Y721716D02*
X1070078Y722653D01*
X1070759Y723122*
X1071782*
X1072464Y722653*
X1073146Y721716*
X1073487Y720310*
Y719372*
X1073146Y717966*
X1072464Y717028*
X1071782Y716560*
X1070759*
X1070078Y717028*
X1069396Y717966*
X1078259Y723122D02*
X1077578Y722653D01*
X1076896Y721716*
X1076555Y720310*
Y719372*
X1076896Y717966*
X1077578Y717028*
X1078259Y716560*
X1079282*
X1079964Y717028*
X1080646Y717966*
X1080987Y719372*
Y720310*
X1080646Y721716*
X1079964Y722653*
X1079282Y723122*
X1078259*
X1084055D02*
Y716560D01*
Y720310D02*
X1084396Y721716D01*
X1085078Y722653*
X1085759Y723122*
X1086782*
X1091555D02*
X1090873Y722653D01*
X1090191Y721716*
X1089850Y720310*
Y719372*
X1090191Y717966*
X1090873Y717028*
X1091555Y716560*
X1092578*
X1093259Y717028*
X1093941Y717966*
X1094282Y719372*
Y720310*
X1093941Y721716*
X1093259Y722653*
X1092578Y723122*
X1091555*
X1098032Y717028D02*
X1097691Y716560D01*
X1097350Y717028*
X1097691Y717497*
X1098032Y717028*
Y716091*
X1097691Y715153*
X1097350Y714685*
X1108941Y726403D02*
Y716560D01*
Y726403D02*
X1111669Y716560D01*
X1114396Y726403D02*
X1111669Y716560D01*
X1114396Y726403D02*
Y716560D01*
X1120191Y726403D02*
X1117464Y716560D01*
X1120191Y726403D02*
X1122919Y716560D01*
X1118487Y719841D02*
X1121896D01*
X1135873Y726403D02*
X1134850Y725935D01*
X1134169Y724528*
X1133828Y722185*
Y720778*
X1134169Y718435*
X1134850Y717028*
X1135873Y716560*
X1136555*
X1137578Y717028*
X1138259Y718435*
X1138600Y720778*
Y722185*
X1138259Y724528*
X1137578Y725935*
X1136555Y726403*
X1135873*
X1142009Y724060D02*
Y724528D01*
X1142350Y725466*
X1142691Y725935*
X1143373Y726403*
X1144737*
X1145419Y725935*
X1145759Y725466*
X1146100Y724528*
Y723591*
X1145759Y722653*
X1145078Y721247*
X1141669Y716560*
X1146441*
X1150191Y726403D02*
X1153941D01*
X1151896Y722653*
X1152919*
X1153600Y722185*
X1153941Y721716*
X1154282Y720310*
Y719372*
X1153941Y717966*
X1153259Y717028*
X1152237Y716560*
X1151214*
X1150191Y717028*
X1149850Y717497*
X1149509Y718435*
X1160759Y726403D02*
X1157350Y719841D01*
X1162464*
X1160759Y726403D02*
Y716560D01*
X1169623Y724997D02*
X1169282Y725935D01*
X1168259Y726403*
X1167578*
X1166555Y725935*
X1165873Y724528*
X1165532Y722185*
Y719841*
X1165873Y717966*
X1166555Y717028*
X1167578Y716560*
X1167919*
X1168941Y717028*
X1169623Y717966*
X1169964Y719372*
Y719841*
X1169623Y721247*
X1168941Y722185*
X1167919Y722653*
X1167578*
X1166555Y722185*
X1165873Y721247*
X1165532Y719841*
X1041078Y743028D02*
X1041759Y743497D01*
X1042782Y744903*
Y735060*
X1045850Y743028D02*
X1046532Y743497D01*
X1047555Y744903*
Y735060*
X1052328Y744903D02*
X1051305Y744435D01*
X1050964Y743497*
Y742560*
X1051305Y741622*
X1051987Y741153*
X1053350Y740685*
X1054373Y740216*
X1055055Y739278*
X1055396Y738341*
Y736935*
X1055055Y735997*
X1054714Y735528*
X1053691Y735060*
X1052328*
X1051305Y735528*
X1050964Y735997*
X1050623Y736935*
Y738341*
X1050964Y739278*
X1051646Y740216*
X1052669Y740685*
X1054032Y741153*
X1054714Y741622*
X1055055Y742560*
Y743497*
X1054714Y744435*
X1053691Y744903*
X1052328*
X1062896D02*
X1059487D01*
X1059146Y740685*
X1059487Y741153*
X1060509Y741622*
X1061532*
X1062555Y741153*
X1063237Y740216*
X1063578Y738810*
X1063237Y737872*
X1062896Y736466*
X1062214Y735528*
X1061191Y735060*
X1060169*
X1059146Y735528*
X1058805Y735997*
X1058464Y736935*
X1079600Y742560D02*
X1079259Y743497D01*
X1078578Y744435*
X1077896Y744903*
X1076532*
X1075850Y744435*
X1075169Y743497*
X1074828Y742560*
X1074487Y741153*
Y738810*
X1074828Y737403*
X1075169Y736466*
X1075850Y735528*
X1076532Y735060*
X1077896*
X1078578Y735528*
X1079259Y736466*
X1079600Y737403*
X1082669Y738810D02*
X1086759D01*
Y739747*
X1086419Y740685*
X1086078Y741153*
X1085396Y741622*
X1084373*
X1083691Y741153*
X1083009Y740216*
X1082669Y738810*
Y737872*
X1083009Y736466*
X1083691Y735528*
X1084373Y735060*
X1085396*
X1086078Y735528*
X1086759Y736466*
X1089828Y741622D02*
Y735060D01*
Y739747D02*
X1090850Y741153D01*
X1091532Y741622*
X1092555*
X1093237Y741153*
X1093578Y739747*
Y735060*
X1097669Y744903D02*
Y736935D01*
X1098009Y735528*
X1098691Y735060*
X1099373*
X1096646Y741622D02*
X1099032D01*
X1102441D02*
Y735060D01*
Y738810D02*
X1102782Y740216D01*
X1103464Y741153*
X1104146Y741622*
X1105169*
X1108237Y738810D02*
X1112328D01*
Y739747*
X1111987Y740685*
X1111646Y741153*
X1110964Y741622*
X1109941*
X1109259Y741153*
X1108578Y740216*
X1108237Y738810*
Y737872*
X1108578Y736466*
X1109259Y735528*
X1109941Y735060*
X1110964*
X1111646Y735528*
X1112328Y736466*
X1128009Y743497D02*
X1127328Y744435D01*
X1126305Y744903*
X1124941*
X1123919Y744435*
X1123237Y743497*
Y742560*
X1123578Y741622*
X1123919Y741153*
X1124600Y740685*
X1126646Y739747*
X1127328Y739278*
X1127669Y738810*
X1128009Y737872*
Y736466*
X1127328Y735528*
X1126305Y735060*
X1124941*
X1123919Y735528*
X1123237Y736466*
X1132100Y744903D02*
Y736935D01*
X1132441Y735528*
X1133123Y735060*
X1133805*
X1131078Y741622D02*
X1133464D01*
X1136873D02*
Y735060D01*
Y738810D02*
X1137214Y740216D01*
X1137896Y741153*
X1138578Y741622*
X1139600*
X1142669Y738810D02*
X1146759D01*
Y739747*
X1146419Y740685*
X1146078Y741153*
X1145396Y741622*
X1144373*
X1143691Y741153*
X1143009Y740216*
X1142669Y738810*
Y737872*
X1143009Y736466*
X1143691Y735528*
X1144373Y735060*
X1145396*
X1146078Y735528*
X1146759Y736466*
X1149828Y738810D02*
X1153919D01*
Y739747*
X1153578Y740685*
X1153237Y741153*
X1152555Y741622*
X1151532*
X1150850Y741153*
X1150169Y740216*
X1149828Y738810*
Y737872*
X1150169Y736466*
X1150850Y735528*
X1151532Y735060*
X1152555*
X1153237Y735528*
X1153919Y736466*
X1158009Y744903D02*
Y736935D01*
X1158350Y735528*
X1159032Y735060*
X1159714*
X1156987Y741622D02*
X1159373D01*
X1163955Y663388D02*
Y664013D01*
X1163955D02*
X1164409Y665263D01*
X1164409D02*
X1164864Y665888D01*
X1164864D02*
X1165773Y666513D01*
X1165773D02*
X1167591D01*
X1167591D02*
X1168500Y665888D01*
X1168500D02*
X1168955Y665263D01*
X1168955D02*
X1169409Y664013D01*
X1169409D02*
Y662763D01*
X1169409D02*
X1168955Y661513D01*
X1168955D02*
X1168045Y659637D01*
X1168045D02*
X1163500Y653387D01*
X1163500D02*
X1169864D01*
X1182136Y669013D02*
X1173955Y649012D01*
X1186227Y664013D02*
X1187136Y664638D01*
X1187136D02*
X1188500Y666513D01*
X1188500D02*
Y653387D01*
X1198955Y666513D02*
X1194409Y653387D01*
X1192591Y666513D02*
X1198955D01*
X1211227Y669013D02*
X1203045Y649012D01*
X1218045Y666513D02*
X1216682Y665888D01*
X1216682D02*
X1215773Y664013D01*
X1215773D02*
X1215318Y660887D01*
X1215318D02*
Y659012D01*
X1215318D02*
X1215773Y655887D01*
X1215773D02*
X1216682Y654012D01*
X1216682D02*
X1218045Y653387D01*
X1218045D02*
X1218955D01*
X1218955D02*
X1220318Y654012D01*
X1220318D02*
X1221227Y655887D01*
X1221227D02*
X1221682Y659012D01*
X1221682D02*
Y660887D01*
X1221682D02*
X1221227Y664013D01*
X1221227D02*
X1220318Y665888D01*
X1220318D02*
X1218955Y666513D01*
X1218955D02*
X1218045D01*
X1231682Y662138D02*
X1231227Y660262D01*
X1231227D02*
X1230318Y659012D01*
X1230318D02*
X1228955Y658387D01*
X1228955D02*
X1228500D01*
X1228500D02*
X1227136Y659012D01*
X1227136D02*
X1226227Y660262D01*
X1226227D02*
X1225773Y662138D01*
X1225773D02*
Y662763D01*
X1225773D02*
X1226227Y664638D01*
X1226227D02*
X1227136Y665888D01*
X1227136D02*
X1228500Y666513D01*
X1228500D02*
X1228955D01*
X1228955D02*
X1230318Y665888D01*
X1230318D02*
X1231227Y664638D01*
X1231227D02*
X1231682Y662138D01*
X1231682D02*
Y659012D01*
X1231682D02*
X1231227Y655887D01*
X1231227D02*
X1230318Y654012D01*
X1230318D02*
X1228955Y653387D01*
X1228955D02*
X1228045D01*
X1228045D02*
X1226682Y654012D01*
X1226682D02*
X1226227Y655262D01*
X838909Y666344D02*
Y658844D01*
X838568Y657438*
X838568D02*
X838227Y656969D01*
X837545Y656500*
X836864*
X836182Y656969*
X835841Y657438*
X835841D02*
X835500Y658844D01*
Y659781*
X843682Y663063D02*
X843000Y662594D01*
X842318Y661656*
X841977Y660250*
Y659313*
X841977D02*
X842318Y657906D01*
X843000Y656969*
X843682Y656500*
X844705*
X845386Y656969*
X846068Y657906*
X846409Y659313*
X846409D02*
Y660250D01*
X846068Y661656*
X845386Y662594*
X844705Y663063*
X844705D02*
X843682D01*
X849477Y666344D02*
Y656500D01*
Y661656D02*
X850159Y662594D01*
X850841Y663063*
X850841D02*
X851864D01*
X851864D02*
X852545Y662594D01*
X853227Y661656*
X853568Y660250*
Y659313*
X853568D02*
X853227Y657906D01*
X852545Y656969*
X851864Y656500*
X850841*
X850159Y656969*
X849477Y657906*
X864477Y666344D02*
Y656500D01*
Y666344D02*
X869250Y656500D01*
Y666344D02*
Y656500D01*
X874023Y663063D02*
X873341Y662594D01*
X872659Y661656*
X872318Y660250*
Y659313*
X872318D02*
X872659Y657906D01*
X873341Y656969*
X874023Y656500*
X875045*
X875727Y656969*
X876409Y657906*
X876750Y659313*
X876750D02*
Y660250D01*
X876409Y661656*
X875727Y662594*
X875045Y663063*
X875045D02*
X874023D01*
X880159D02*
X879818Y662594D01*
X880159Y662125*
X880500Y662594*
X880159Y663063*
Y657438D02*
X879818Y656969D01*
X880159Y656500*
X880500Y656969*
X880159Y657438*
X1041000Y663544D02*
Y653700D01*
Y663544D02*
X1043386D01*
X1044409Y663075*
X1045091Y662138*
X1045091D02*
X1045432Y661200D01*
X1045773Y659794*
Y657450*
X1045432Y656044*
X1045091Y655106*
X1044409Y654169*
X1043386Y653700*
X1041000*
X1052932Y660263D02*
Y653700D01*
Y658856D02*
X1052250Y659794D01*
X1051568Y660263*
X1051568D02*
X1050545D01*
X1050545D02*
X1049864Y659794D01*
X1049182Y658856*
X1048841Y657450*
Y656513*
X1048841D02*
X1049182Y655106D01*
X1049864Y654169*
X1050545Y653700*
X1051568*
X1052250Y654169*
X1052932Y655106*
X1057023Y663544D02*
Y655575D01*
X1057364Y654169*
X1058045Y653700*
X1058727*
X1056000Y660263D02*
X1058386D01*
X1061795Y657450D02*
X1065886D01*
Y658388*
X1065886D02*
X1065545Y659325D01*
X1065205Y659794*
X1064523Y660263*
X1064523D02*
X1063500D01*
X1063500D02*
X1062818Y659794D01*
X1062136Y658856*
X1061795Y657450*
Y656513*
X1061795D02*
X1062136Y655106D01*
X1062818Y654169*
X1063500Y653700*
X1064523*
X1065205Y654169*
X1065886Y655106*
X1069295Y660263D02*
X1068955Y659794D01*
X1069295Y659325*
X1069636Y659794*
X1069295Y660263*
Y654638D02*
X1068955Y654169D01*
X1069295Y653700*
X1069636Y654169*
X1069295Y654638*
X841305Y763403D02*
X838578Y753560D01*
X841305Y763403D02*
X844032Y753560D01*
X839600Y756841D02*
X843009D01*
X847100Y760122D02*
Y753560D01*
Y757310D02*
X847441Y758716D01*
X848123Y759653*
X848805Y760122*
X849828*
X853919Y763403D02*
Y755435D01*
X854259Y754028*
X854941Y753560*
X855623*
X852896Y760122D02*
X855282D01*
X858691D02*
X860055Y753560D01*
X861419Y760122D02*
X860055Y753560D01*
X861419Y760122D02*
X862782Y753560D01*
X864146Y760122D02*
X862782Y753560D01*
X868919Y760122D02*
X868237Y759653D01*
X867555Y758716*
X867214Y757310*
Y756372*
X867555Y754966*
X868237Y754028*
X868919Y753560*
X869941*
X870623Y754028*
X871305Y754966*
X871646Y756372*
Y757310*
X871305Y758716*
X870623Y759653*
X869941Y760122*
X868919*
X874714D02*
Y753560D01*
Y757310D02*
X875055Y758716D01*
X875737Y759653*
X876419Y760122*
X877441*
X880509Y763403D02*
Y753560D01*
X883919Y760122D02*
X880509Y755435D01*
X881873Y757310D02*
X884259Y753560D01*
X895169Y763403D02*
Y753560D01*
Y763403D02*
X897555D01*
X898578Y762935*
X899259Y761997*
X899600Y761060*
X899941Y759653*
Y757310*
X899600Y755903*
X899259Y754966*
X898578Y754028*
X897555Y753560*
X895169*
X903009Y757310D02*
X907100D01*
Y758247*
X906759Y759185*
X906419Y759653*
X905737Y760122*
X904714*
X904032Y759653*
X903350Y758716*
X903009Y757310*
Y756372*
X903350Y754966*
X904032Y754028*
X904714Y753560*
X905737*
X906419Y754028*
X907100Y754966*
X913919Y758716D02*
X913578Y759653D01*
X912555Y760122*
X911532*
X910509Y759653*
X910169Y758716*
X910509Y757778*
X911191Y757310*
X912896Y756841*
X913578Y756372*
X913919Y755435*
Y754966*
X913578Y754028*
X912555Y753560*
X911532*
X910509Y754028*
X910169Y754966*
X916987Y763403D02*
X917328Y762935D01*
X917669Y763403*
X917328Y763872*
X916987Y763403*
X917328Y760122D02*
Y753560D01*
X924828Y760122D02*
Y752622D01*
X924487Y751216*
X924146Y750747*
X923464Y750278*
X922441*
X921759Y750747*
X924828Y758716D02*
X924146Y759653D01*
X923464Y760122*
X922441*
X921759Y759653*
X921078Y758716*
X920737Y757310*
Y756372*
X921078Y754966*
X921759Y754028*
X922441Y753560*
X923464*
X924146Y754028*
X924828Y754966*
X927896Y760122D02*
Y753560D01*
Y758247D02*
X928919Y759653D01*
X929600Y760122*
X930623*
X931305Y759653*
X931646Y758247*
Y753560*
X934714Y757310D02*
X938805D01*
Y758247*
X938464Y759185*
X938123Y759653*
X937441Y760122*
X936419*
X935737Y759653*
X935055Y758716*
X934714Y757310*
Y756372*
X935055Y754966*
X935737Y754028*
X936419Y753560*
X937441*
X938123Y754028*
X938805Y754966*
X945964Y763403D02*
Y753560D01*
Y758716D02*
X945282Y759653D01*
X944600Y760122*
X943578*
X942896Y759653*
X942214Y758716*
X941873Y757310*
Y756372*
X942214Y754966*
X942896Y754028*
X943578Y753560*
X944600*
X945282Y754028*
X945964Y754966*
X956873Y763403D02*
Y753560D01*
Y763403D02*
X959941D01*
X960964Y762935*
X961305Y762466*
X961646Y761528*
Y760591*
X961305Y759653*
X960964Y759185*
X959941Y758716*
X956873D02*
X959941D01*
X960964Y758247*
X961305Y757778*
X961646Y756841*
Y755435*
X961305Y754497*
X960964Y754028*
X959941Y753560*
X956873*
X965055Y760122D02*
X967100Y753560D01*
X969146Y760122D02*
X967100Y753560D01*
X966419Y751685*
X965737Y750747*
X965055Y750278*
X964714*
X972555Y760122D02*
X972214Y759653D01*
X972555Y759185*
X972896Y759653*
X972555Y760122*
Y754497D02*
X972214Y754028D01*
X972555Y753560*
X972896Y754028*
X972555Y754497*
X983805Y763403D02*
X985509Y753560D01*
X987214Y763403D02*
X985509Y753560D01*
X987214Y763403D02*
X988919Y753560D01*
X990623Y763403D02*
X988919Y753560D01*
X993691Y763403D02*
X994032Y762935D01*
X994373Y763403*
X994032Y763872*
X993691Y763403*
X994032Y760122D02*
Y753560D01*
X997441Y763403D02*
Y753560D01*
X1000509Y763403D02*
Y753560D01*
X1005282Y760122D02*
X1004600Y759653D01*
X1003919Y758716*
X1003578Y757310*
Y756372*
X1003919Y754966*
X1004600Y754028*
X1005282Y753560*
X1006305*
X1006987Y754028*
X1007669Y754966*
X1008009Y756372*
Y757310*
X1007669Y758716*
X1006987Y759653*
X1006305Y760122*
X1005282*
X1011078D02*
X1012441Y753560D01*
X1013805Y760122D02*
X1012441Y753560D01*
X1013805Y760122D02*
X1015169Y753560D01*
X1016532Y760122D02*
X1015169Y753560D01*
X1032214Y761997D02*
X1031532Y762935D01*
X1030509Y763403*
X1029146*
X1028123Y762935*
X1027441Y761997*
Y761060*
X1027782Y760122*
X1028123Y759653*
X1028805Y759185*
X1030850Y758247*
X1031532Y757778*
X1031873Y757310*
X1032214Y756372*
Y754966*
X1031532Y754028*
X1030509Y753560*
X1029146*
X1028123Y754028*
X1027441Y754966*
X1035282Y760122D02*
Y750278D01*
Y758716D02*
X1035964Y759653D01*
X1036646Y760122*
X1037669*
X1038350Y759653*
X1039032Y758716*
X1039373Y757310*
Y756372*
X1039032Y754966*
X1038350Y754028*
X1037669Y753560*
X1036646*
X1035964Y754028*
X1035282Y754966*
X1042441Y760122D02*
Y753560D01*
Y757310D02*
X1042782Y758716D01*
X1043464Y759653*
X1044146Y760122*
X1045169*
X1048237Y763403D02*
X1048578Y762935D01*
X1048919Y763403*
X1048578Y763872*
X1048237Y763403*
X1048578Y760122D02*
Y753560D01*
X1051987Y760122D02*
Y753560D01*
Y758247D02*
X1053009Y759653D01*
X1053691Y760122*
X1054714*
X1055396Y759653*
X1055737Y758247*
Y753560*
X1062896Y760122D02*
Y752622D01*
X1062555Y751216*
X1062214Y750747*
X1061532Y750278*
X1060509*
X1059828Y750747*
X1062896Y758716D02*
X1062214Y759653D01*
X1061532Y760122*
X1060509*
X1059828Y759653*
X1059146Y758716*
X1058805Y757310*
Y756372*
X1059146Y754966*
X1059828Y754028*
X1060509Y753560*
X1061532*
X1062214Y754028*
X1062896Y754966*
X1076191Y763403D02*
Y753560D01*
X1073805Y763403D02*
X1078578D01*
X1081646Y757310D02*
X1085737D01*
Y758247*
X1085396Y759185*
X1085055Y759653*
X1084373Y760122*
X1083350*
X1082669Y759653*
X1081987Y758716*
X1081646Y757310*
Y756372*
X1081987Y754966*
X1082669Y754028*
X1083350Y753560*
X1084373*
X1085055Y754028*
X1085737Y754966*
X1092896Y758716D02*
X1092214Y759653D01*
X1091532Y760122*
X1090509*
X1089828Y759653*
X1089146Y758716*
X1088805Y757310*
Y756372*
X1089146Y754966*
X1089828Y754028*
X1090509Y753560*
X1091532*
X1092214Y754028*
X1092896Y754966*
X1095964Y763403D02*
Y753560D01*
Y758247D02*
X1096987Y759653D01*
X1097669Y760122*
X1098691*
X1099373Y759653*
X1099714Y758247*
Y753560*
X1102782Y760122D02*
Y753560D01*
Y758247D02*
X1103805Y759653D01*
X1104487Y760122*
X1105509*
X1106191Y759653*
X1106532Y758247*
Y753560*
X1109600Y763403D02*
X1109941Y762935D01*
X1110282Y763403*
X1109941Y763872*
X1109600Y763403*
X1109941Y760122D02*
Y753560D01*
X1117441Y758716D02*
X1116759Y759653D01*
X1116078Y760122*
X1115055*
X1114373Y759653*
X1113691Y758716*
X1113350Y757310*
Y756372*
X1113691Y754966*
X1114373Y754028*
X1115055Y753560*
X1116078*
X1116759Y754028*
X1117441Y754966*
X1124600Y760122D02*
Y753560D01*
Y758716D02*
X1123919Y759653D01*
X1123237Y760122*
X1122214*
X1121532Y759653*
X1120850Y758716*
X1120509Y757310*
Y756372*
X1120850Y754966*
X1121532Y754028*
X1122214Y753560*
X1123237*
X1123919Y754028*
X1124600Y754966*
X1127669Y763403D02*
Y753560D01*
X1143350Y761997D02*
X1142669Y762935D01*
X1141646Y763403*
X1140282*
X1139259Y762935*
X1138578Y761997*
Y761060*
X1138919Y760122*
X1139259Y759653*
X1139941Y759185*
X1141987Y758247*
X1142669Y757778*
X1143009Y757310*
X1143350Y756372*
Y754966*
X1142669Y754028*
X1141646Y753560*
X1140282*
X1139259Y754028*
X1138578Y754966*
X1146419Y757310D02*
X1150509D01*
Y758247*
X1150169Y759185*
X1149828Y759653*
X1149146Y760122*
X1148123*
X1147441Y759653*
X1146759Y758716*
X1146419Y757310*
Y756372*
X1146759Y754966*
X1147441Y754028*
X1148123Y753560*
X1149146*
X1149828Y754028*
X1150509Y754966*
X1153578Y760122D02*
Y753560D01*
Y757310D02*
X1153919Y758716D01*
X1154600Y759653*
X1155282Y760122*
X1156305*
X1159373D02*
X1161419Y753560D01*
X1163464Y760122D02*
X1161419Y753560D01*
X1166532Y763403D02*
X1166873Y762935D01*
X1167214Y763403*
X1166873Y763872*
X1166532Y763403*
X1166873Y760122D02*
Y753560D01*
X1174373Y758716D02*
X1173691Y759653D01*
X1173009Y760122*
X1171987*
X1171305Y759653*
X1170623Y758716*
X1170282Y757310*
Y756372*
X1170623Y754966*
X1171305Y754028*
X1171987Y753560*
X1173009*
X1173691Y754028*
X1174373Y754966*
X1177441Y757310D02*
X1181532D01*
Y758247*
X1181191Y759185*
X1180850Y759653*
X1180169Y760122*
X1179146*
X1178464Y759653*
X1177782Y758716*
X1177441Y757310*
Y756372*
X1177782Y754966*
X1178464Y754028*
X1179146Y753560*
X1180169*
X1180850Y754028*
X1181532Y754966*
X1188350Y758716D02*
X1188009Y759653D01*
X1186987Y760122*
X1185964*
X1184941Y759653*
X1184600Y758716*
X1184941Y757778*
X1185623Y757310*
X1187328Y756841*
X1188009Y756372*
X1188350Y755435*
Y754966*
X1188009Y754028*
X1186987Y753560*
X1185964*
X1184941Y754028*
X1184600Y754966*
X1204373Y761060D02*
X1204032Y761997D01*
X1203350Y762935*
X1202669Y763403*
X1201305*
X1200623Y762935*
X1199941Y761997*
X1199600Y761060*
X1199259Y759653*
Y757310*
X1199600Y755903*
X1199941Y754966*
X1200623Y754028*
X1201305Y753560*
X1202669*
X1203350Y754028*
X1204032Y754966*
X1204373Y755903*
X1209146Y760122D02*
X1208464Y759653D01*
X1207782Y758716*
X1207441Y757310*
Y756372*
X1207782Y754966*
X1208464Y754028*
X1209146Y753560*
X1210169*
X1210850Y754028*
X1211532Y754966*
X1211873Y756372*
Y757310*
X1211532Y758716*
X1210850Y759653*
X1210169Y760122*
X1209146*
X1214941D02*
Y753560D01*
Y757310D02*
X1215282Y758716D01*
X1215964Y759653*
X1216646Y760122*
X1217669*
X1220737D02*
Y750278D01*
Y758716D02*
X1221419Y759653D01*
X1222100Y760122*
X1223123*
X1223805Y759653*
X1224487Y758716*
X1224828Y757310*
Y756372*
X1224487Y754966*
X1223805Y754028*
X1223123Y753560*
X1222100*
X1221419Y754028*
X1220737Y754966*
X1228237Y754497D02*
X1227896Y754028D01*
X1228237Y753560*
X1228578Y754028*
X1228237Y754497*
X906682Y665513D02*
Y652387D01*
X903500Y665513D02*
X909864D01*
X913955D02*
Y652387D01*
Y665513D02*
X919864D01*
X913955Y659262D02*
X917591D01*
X913955Y652387D02*
X919864D01*
X923955Y665513D02*
X930318Y652387D01*
Y665513D02*
X923955Y652387D01*
X934864Y653637D02*
X934409Y653012D01*
X934409D02*
X934864Y652387D01*
X934864D02*
X935318Y653012D01*
X935318D02*
X934864Y653637D01*
X942136Y665513D02*
X940773Y664888D01*
X940773D02*
X939864Y663013D01*
X939864D02*
X939409Y659887D01*
X939409D02*
Y658012D01*
X939409D02*
X939864Y654887D01*
X939864D02*
X940773Y653012D01*
X940773D02*
X942136Y652387D01*
X942136D02*
X943045D01*
X943045D02*
X944409Y653012D01*
X944409D02*
X945318Y654887D01*
X945318D02*
X945773Y658012D01*
X945773D02*
Y659887D01*
X945773D02*
X945318Y663013D01*
X945318D02*
X944409Y664888D01*
X944409D02*
X943045Y665513D01*
X943045D02*
X942136D01*
X952591D02*
X951227Y664888D01*
X951227D02*
X950318Y663013D01*
X950318D02*
X949864Y659887D01*
X949864D02*
Y658012D01*
X949864D02*
X950318Y654887D01*
X950318D02*
X951227Y653012D01*
X951227D02*
X952591Y652387D01*
X952591D02*
X953500D01*
X953500D02*
X954864Y653012D01*
X954864D02*
X955773Y654887D01*
X955773D02*
X956227Y658012D01*
X956227D02*
Y659887D01*
X956227D02*
X955773Y663013D01*
X955773D02*
X954864Y664888D01*
X954864D02*
X953500Y665513D01*
X953500D02*
X952591D01*
X960773Y662388D02*
Y663013D01*
X960773D02*
X961227Y664263D01*
X961227D02*
X961682Y664888D01*
X961682D02*
X962591Y665513D01*
X962591D02*
X964409D01*
X964409D02*
X965318Y664888D01*
X965318D02*
X965773Y664263D01*
X965773D02*
X966227Y663013D01*
X966227D02*
Y661763D01*
X966227D02*
X965773Y660513D01*
X965773D02*
X964864Y658637D01*
X964864D02*
X960318Y652387D01*
X960318D02*
X966682D01*
X1260727Y835044D02*
X1258000Y825200D01*
X1260727Y835044D02*
X1263455Y825200D01*
X1259023Y828481D02*
X1262432D01*
X1266523Y831763D02*
Y825200D01*
Y828950D02*
X1266864Y830356D01*
X1267545Y831294*
X1268227Y831763*
X1268227D02*
X1269250D01*
X1273341Y835044D02*
Y827075D01*
X1273682Y825669*
X1274364Y825200*
X1275045*
X1272318Y831763D02*
X1274705D01*
X1278114D02*
X1279477Y825200D01*
X1280841Y831763D02*
X1279477Y825200D01*
X1280841Y831763D02*
X1282205Y825200D01*
X1283568Y831763D02*
X1282205Y825200D01*
X1288341Y831763D02*
X1287659Y831294D01*
X1286977Y830356*
X1286636Y828950*
Y828013*
X1286636D02*
X1286977Y826606D01*
X1287659Y825669*
X1288341Y825200*
X1289364*
X1290045Y825669*
X1290727Y826606*
X1291068Y828013*
X1291068D02*
Y828950D01*
X1290727Y830356*
X1290045Y831294*
X1289364Y831763*
X1289364D02*
X1288341D01*
X1294136D02*
Y825200D01*
Y828950D02*
X1294477Y830356D01*
X1295159Y831294*
X1295841Y831763*
X1295841D02*
X1296864D01*
X1299932Y835044D02*
Y825200D01*
X1303341Y831763D02*
X1299932Y827075D01*
X1301295Y828950D02*
X1303682Y825200D01*
X1314591Y835044D02*
Y825200D01*
Y835044D02*
X1316977D01*
X1318000Y834575*
X1318682Y833638*
X1318682D02*
X1319023Y832700D01*
X1319364Y831294*
Y828950*
X1319023Y827544*
X1318682Y826606*
X1318000Y825669*
X1316977Y825200*
X1314591*
X1322432Y828950D02*
X1326523D01*
Y829888*
X1326523D02*
X1326182Y830825D01*
X1325841Y831294*
X1325159Y831763*
X1325159D02*
X1324136D01*
X1324136D02*
X1323455Y831294D01*
X1322773Y830356*
X1322432Y828950*
Y828013*
X1322432D02*
X1322773Y826606D01*
X1323455Y825669*
X1324136Y825200*
X1325159*
X1325841Y825669*
X1326523Y826606*
X1333341Y830356D02*
X1333000Y831294D01*
X1331977Y831763*
X1331977D02*
X1330955D01*
X1330955D02*
X1329932Y831294D01*
X1329591Y830356*
X1329932Y829419*
X1330614Y828950*
X1332318Y828481*
X1333000Y828013*
X1333000D02*
X1333341Y827075D01*
Y826606*
X1333000Y825669*
X1331977Y825200*
X1330955*
X1329932Y825669*
X1329591Y826606*
X1336409Y835044D02*
X1336750Y834575D01*
X1337091Y835044*
X1336750Y835513*
X1336750D02*
X1336409Y835044D01*
X1336750Y831763D02*
Y825200D01*
X1344250Y831763D02*
Y824262D01*
X1344250D02*
X1343909Y822856D01*
X1343568Y822387*
X1343568D02*
X1342886Y821919D01*
X1341864*
X1341182Y822387*
X1344250Y830356D02*
X1343568Y831294D01*
X1342886Y831763*
X1342886D02*
X1341864D01*
X1341864D02*
X1341182Y831294D01*
X1340500Y830356*
X1340159Y828950*
Y828013*
X1340159D02*
X1340500Y826606D01*
X1341182Y825669*
X1341864Y825200*
X1342886*
X1343568Y825669*
X1344250Y826606*
X1347318Y831763D02*
Y825200D01*
Y829888D02*
X1348341Y831294D01*
X1349023Y831763*
X1349023D02*
X1350045D01*
X1350045D02*
X1350727Y831294D01*
X1351068Y829888*
X1351068D02*
Y825200D01*
X1354136Y828950D02*
X1358227D01*
Y829888*
X1358227D02*
X1357886Y830825D01*
X1357545Y831294*
X1356864Y831763*
X1356864D02*
X1355841D01*
X1355841D02*
X1355159Y831294D01*
X1354477Y830356*
X1354136Y828950*
Y828013*
X1354136D02*
X1354477Y826606D01*
X1355159Y825669*
X1355841Y825200*
X1356864*
X1357545Y825669*
X1358227Y826606*
X1365386Y835044D02*
Y825200D01*
Y830356D02*
X1364705Y831294D01*
X1364023Y831763*
X1364023D02*
X1363000D01*
X1363000D02*
X1362318Y831294D01*
X1361636Y830356*
X1361295Y828950*
Y828013*
X1361295D02*
X1361636Y826606D01*
X1362318Y825669*
X1363000Y825200*
X1364023*
X1364705Y825669*
X1365386Y826606*
X1376295Y835044D02*
Y825200D01*
Y835044D02*
X1380727D01*
X1376295Y830356D02*
X1379023D01*
X1385500Y831763D02*
X1384818Y831294D01*
X1384136Y830356*
X1383795Y828950*
Y828013*
X1383795D02*
X1384136Y826606D01*
X1384818Y825669*
X1385500Y825200*
X1386523*
X1387205Y825669*
X1387886Y826606*
X1388227Y828013*
X1388227D02*
Y828950D01*
X1387886Y830356*
X1387205Y831294*
X1386523Y831763*
X1386523D02*
X1385500D01*
X1391295D02*
Y825200D01*
Y828950D02*
X1391636Y830356D01*
X1392318Y831294*
X1393000Y831763*
X1393000D02*
X1394023D01*
X1397432D02*
X1397091Y831294D01*
X1397432Y830825*
X1397773Y831294*
X1397432Y831763*
Y826138D02*
X1397091Y825669D01*
X1397432Y825200*
X1397773Y825669*
X1397432Y826138*
X1258000Y780044D02*
Y770200D01*
Y780044D02*
X1261068D01*
X1262091Y779575*
X1262432Y779106*
X1262773Y778169*
Y777231*
X1262432Y776294*
X1262091Y775825*
X1261068Y775356*
X1258000D02*
X1261068D01*
X1262091Y774888*
X1262091D02*
X1262432Y774419D01*
X1262773Y773481*
Y772075*
X1262432Y771138*
X1262432D02*
X1262091Y770669D01*
X1261068Y770200*
X1258000*
X1267545Y776763D02*
X1266864Y776294D01*
X1266182Y775356*
X1265841Y773950*
Y773013*
X1265841D02*
X1266182Y771606D01*
X1266864Y770669*
X1267545Y770200*
X1268568*
X1269250Y770669*
X1269932Y771606*
X1270273Y773013*
X1270273D02*
Y773950D01*
X1269932Y775356*
X1269250Y776294*
X1268568Y776763*
X1268568D02*
X1267545D01*
X1277432D02*
Y770200D01*
Y775356D02*
X1276750Y776294D01*
X1276068Y776763*
X1276068D02*
X1275045D01*
X1275045D02*
X1274364Y776294D01*
X1273682Y775356*
X1273341Y773950*
Y773013*
X1273341D02*
X1273682Y771606D01*
X1274364Y770669*
X1275045Y770200*
X1276068*
X1276750Y770669*
X1277432Y771606*
X1280500Y776763D02*
Y770200D01*
Y773950D02*
X1280841Y775356D01*
X1281523Y776294*
X1282205Y776763*
X1282205D02*
X1283227D01*
X1290386Y780044D02*
Y770200D01*
Y775356D02*
X1289705Y776294D01*
X1289023Y776763*
X1289023D02*
X1288000D01*
X1288000D02*
X1287318Y776294D01*
X1286636Y775356*
X1286295Y773950*
Y773013*
X1286295D02*
X1286636Y771606D01*
X1287318Y770669*
X1288000Y770200*
X1289023*
X1289705Y770669*
X1290386Y771606*
X1301295Y780044D02*
Y770200D01*
Y780044D02*
X1303682D01*
X1304705Y779575*
X1305386Y778638*
X1305386D02*
X1305727Y777700D01*
X1306068Y776294*
Y773950*
X1305727Y772544*
X1305386Y771606*
X1304705Y770669*
X1303682Y770200*
X1301295*
X1309136Y773950D02*
X1313227D01*
Y774888*
X1313227D02*
X1312886Y775825D01*
X1312545Y776294*
X1311864Y776763*
X1311864D02*
X1310841D01*
X1310841D02*
X1310159Y776294D01*
X1309477Y775356*
X1309136Y773950*
Y773013*
X1309136D02*
X1309477Y771606D01*
X1310159Y770669*
X1310841Y770200*
X1311864*
X1312545Y770669*
X1313227Y771606*
X1320045Y775356D02*
X1319705Y776294D01*
X1318682Y776763*
X1318682D02*
X1317659D01*
X1317659D02*
X1316636Y776294D01*
X1316295Y775356*
X1316636Y774419*
X1317318Y773950*
X1319023Y773481*
X1319705Y773013*
X1319705D02*
X1320045Y772075D01*
Y771606*
X1319705Y770669*
X1318682Y770200*
X1317659*
X1316636Y770669*
X1316295Y771606*
X1327205Y775356D02*
X1326523Y776294D01*
X1325841Y776763*
X1325841D02*
X1324818D01*
X1324818D02*
X1324136Y776294D01*
X1323455Y775356*
X1323114Y773950*
Y773013*
X1323114D02*
X1323455Y771606D01*
X1324136Y770669*
X1324818Y770200*
X1325841*
X1326523Y770669*
X1327205Y771606*
X1330273Y776763D02*
Y770200D01*
Y773950D02*
X1330614Y775356D01*
X1331295Y776294*
X1331977Y776763*
X1331977D02*
X1333000D01*
X1336068Y780044D02*
X1336409Y779575D01*
X1336750Y780044*
X1336409Y780513*
X1336409D02*
X1336068Y780044D01*
X1336409Y776763D02*
Y770200D01*
X1339818Y776763D02*
Y766919D01*
Y775356D02*
X1340500Y776294D01*
X1341182Y776763*
X1341182D02*
X1342205D01*
X1342205D02*
X1342886Y776294D01*
X1343568Y775356*
X1343909Y773950*
Y773013*
X1343909D02*
X1343568Y771606D01*
X1342886Y770669*
X1342205Y770200*
X1341182*
X1340500Y770669*
X1339818Y771606*
X1348000Y780044D02*
Y772075D01*
X1348341Y770669*
X1349023Y770200*
X1349705*
X1346977Y776763D02*
X1349364D01*
X1352773Y780044D02*
X1353114Y779575D01*
X1353455Y780044*
X1353114Y780513*
X1353114D02*
X1352773Y780044D01*
X1353114Y776763D02*
Y770200D01*
X1358227Y776763D02*
X1357545Y776294D01*
X1356864Y775356*
X1356523Y773950*
Y773013*
X1356523D02*
X1356864Y771606D01*
X1357545Y770669*
X1358227Y770200*
X1359250*
X1359932Y770669*
X1360614Y771606*
X1360955Y773013*
X1360955D02*
Y773950D01*
X1360614Y775356*
X1359932Y776294*
X1359250Y776763*
X1359250D02*
X1358227D01*
X1364023D02*
Y770200D01*
Y774888D02*
X1365045Y776294D01*
X1365727Y776763*
X1365727D02*
X1366750D01*
X1366750D02*
X1367432Y776294D01*
X1367773Y774888*
X1367773D02*
Y770200D01*
X1371182Y776763D02*
X1370841Y776294D01*
X1371182Y775825*
X1371523Y776294*
X1371182Y776763*
Y771138D02*
X1370841Y770669D01*
X1371182Y770200*
X1371523Y770669*
X1371182Y771138*
X1258000Y710044D02*
Y700200D01*
Y710044D02*
X1261068D01*
X1262091Y709575*
X1262432Y709106*
X1262773Y708169*
Y706763*
X1262773D02*
X1262432Y705825D01*
X1262091Y705356*
X1261068Y704888*
X1261068D02*
X1258000D01*
X1269932Y706763D02*
Y700200D01*
Y705356D02*
X1269250Y706294D01*
X1268568Y706763*
X1268568D02*
X1267545D01*
X1267545D02*
X1266864Y706294D01*
X1266182Y705356*
X1265841Y703950*
Y703013*
X1265841D02*
X1266182Y701606D01*
X1266864Y700669*
X1267545Y700200*
X1268568*
X1269250Y700669*
X1269932Y701606*
X1273000Y706763D02*
Y700200D01*
Y703950D02*
X1273341Y705356D01*
X1274023Y706294*
X1274705Y706763*
X1274705D02*
X1275727D01*
X1279818Y710044D02*
Y702075D01*
X1280159Y700669*
X1280841Y700200*
X1281523*
X1278795Y706763D02*
X1281182D01*
X1292432Y710044D02*
Y700200D01*
Y710044D02*
X1297205Y700200D01*
Y710044D02*
Y700200D01*
X1301977Y706763D02*
X1301295Y706294D01*
X1300614Y705356*
X1300273Y703950*
Y703013*
X1300273D02*
X1300614Y701606D01*
X1301295Y700669*
X1301977Y700200*
X1303000*
X1303682Y700669*
X1304364Y701606*
X1304705Y703013*
X1304705D02*
Y703950D01*
X1304364Y705356*
X1303682Y706294*
X1303000Y706763*
X1303000D02*
X1301977D01*
X1308114D02*
X1307773Y706294D01*
X1308114Y705825*
X1308455Y706294*
X1308114Y706763*
Y701138D02*
X1307773Y700669D01*
X1308114Y700200*
X1308455Y700669*
X1308114Y701138*
X1558000Y710044D02*
Y700200D01*
Y710044D02*
X1561068D01*
X1562091Y709575*
X1562432Y709106*
X1562773Y708169*
Y707231*
X1562432Y706294*
X1562091Y705825*
X1561068Y705356*
X1558000*
X1560386D02*
X1562773Y700200D01*
X1565841Y703950D02*
X1569932D01*
Y704888*
X1569932D02*
X1569591Y705825D01*
X1569250Y706294*
X1568568Y706763*
X1568568D02*
X1567545D01*
X1567545D02*
X1566864Y706294D01*
X1566182Y705356*
X1565841Y703950*
Y703013*
X1565841D02*
X1566182Y701606D01*
X1566864Y700669*
X1567545Y700200*
X1568568*
X1569250Y700669*
X1569932Y701606*
X1573000Y706763D02*
X1575045Y700200D01*
X1577091Y706763D02*
X1575045Y700200D01*
X1580159Y710044D02*
X1580500Y709575D01*
X1580841Y710044*
X1580500Y710513*
X1580500D02*
X1580159Y710044D01*
X1580500Y706763D02*
Y700200D01*
X1587659Y705356D02*
X1587318Y706294D01*
X1586295Y706763*
X1586295D02*
X1585273D01*
X1585273D02*
X1584250Y706294D01*
X1583909Y705356*
X1584250Y704419*
X1584932Y703950*
X1586636Y703481*
X1587318Y703013*
X1587318D02*
X1587659Y702075D01*
Y701606*
X1587318Y700669*
X1586295Y700200*
X1585273*
X1584250Y700669*
X1583909Y701606*
X1590727Y710044D02*
X1591068Y709575D01*
X1591409Y710044*
X1591068Y710513*
X1591068D02*
X1590727Y710044D01*
X1591068Y706763D02*
Y700200D01*
X1596182Y706763D02*
X1595500Y706294D01*
X1594818Y705356*
X1594477Y703950*
Y703013*
X1594477D02*
X1594818Y701606D01*
X1595500Y700669*
X1596182Y700200*
X1597205*
X1597886Y700669*
X1598568Y701606*
X1598909Y703013*
X1598909D02*
Y703950D01*
X1598568Y705356*
X1597886Y706294*
X1597205Y706763*
X1597205D02*
X1596182D01*
X1601977D02*
Y700200D01*
Y704888D02*
X1603000Y706294D01*
X1603682Y706763*
X1603682D02*
X1604705D01*
X1604705D02*
X1605386Y706294D01*
X1605727Y704888*
X1605727D02*
Y700200D01*
X1609136Y706763D02*
X1608795Y706294D01*
X1609136Y705825*
X1609477Y706294*
X1609136Y706763*
Y701138D02*
X1608795Y700669D01*
X1609136Y700200*
X1609477Y700669*
X1609136Y701138*
X1353000Y698325D02*
Y685200D01*
Y698325D02*
X1358909D01*
X1353000Y692075D02*
X1356636D01*
X1363455Y695200D02*
Y695825D01*
X1363909Y697075*
X1364364Y697700*
X1365273Y698325*
X1367091*
X1368000Y697700*
X1368455Y697075*
X1368909Y695825*
Y694575*
X1368455Y693325*
X1367545Y691450*
X1363000Y685200*
X1369364*
X1375727Y698325D02*
X1374364Y697700D01*
X1373909Y696450*
Y695200*
X1374364Y693950*
X1375273Y693325*
X1377091Y692700*
X1378455Y692075*
X1379364Y690825*
X1379818Y689575*
Y687700*
X1379364Y686450*
X1378909Y685825*
X1377545Y685200*
X1375727*
X1374364Y685825*
X1373909Y686450*
X1373455Y687700*
Y689575*
X1373909Y690825*
X1374818Y692075*
X1376182Y692700*
X1378000Y693325*
X1378909Y693950*
X1379364Y695200*
Y696450*
X1378909Y697700*
X1377545Y698325*
X1375727*
X1386636D02*
X1385273Y697700D01*
X1384364Y695825*
X1383909Y692700*
Y690825*
X1384364Y687700*
X1385273Y685825*
X1386636Y685200*
X1387545*
X1388909Y685825*
X1389818Y687700*
X1390273Y690825*
Y692700*
X1389818Y695825*
X1388909Y697700*
X1387545Y698325*
X1386636*
X1395273D02*
X1400273D01*
X1397545Y693325*
X1398909*
X1399818Y692700*
X1400273Y692075*
X1400727Y690200*
Y688950*
X1400273Y687075*
X1399364Y685825*
X1398000Y685200*
X1396636*
X1395273Y685825*
X1394818Y686450*
X1394364Y687700*
X1404818Y693950D02*
X1409818Y685200D01*
Y693950D02*
X1404818Y685200D01*
X1629727Y699813D02*
X1630636Y700438D01*
X1630636D02*
X1632000Y702313D01*
X1632000D02*
Y689187D01*
X1636545Y690437D02*
X1636091Y689812D01*
X1636091D02*
X1636545Y689187D01*
X1636545D02*
X1637000Y689812D01*
X1637000D02*
X1636545Y690437D01*
X1643818Y702313D02*
X1642455Y701688D01*
X1642455D02*
X1641545Y699813D01*
X1641545D02*
X1641091Y696687D01*
X1641091D02*
Y694812D01*
X1641091D02*
X1641545Y691687D01*
X1641545D02*
X1642455Y689812D01*
X1642455D02*
X1643818Y689187D01*
X1643818D02*
X1644727D01*
X1644727D02*
X1646091Y689812D01*
X1646091D02*
X1647000Y691687D01*
X1647000D02*
X1647455Y694812D01*
X1647455D02*
Y696687D01*
X1647455D02*
X1647000Y699813D01*
X1647000D02*
X1646091Y701688D01*
X1646091D02*
X1644727Y702313D01*
X1644727D02*
X1643818D01*
X1399545Y810513D02*
Y797387D01*
X1396364Y810513D02*
X1402727D01*
X1406818Y802387D02*
X1412273D01*
X1412273D02*
Y803637D01*
X1412273D02*
X1411818Y804887D01*
X1411818D02*
X1411364Y805513D01*
X1411364D02*
X1410455Y806138D01*
X1410455D02*
X1409091D01*
X1409091D02*
X1408182Y805513D01*
X1408182D02*
X1407273Y804262D01*
X1407273D02*
X1406818Y802387D01*
X1406818D02*
Y801137D01*
X1406818D02*
X1407273Y799262D01*
X1407273D02*
X1408182Y798012D01*
X1408182D02*
X1409091Y797387D01*
X1409091D02*
X1410455D01*
X1410455D02*
X1411364Y798012D01*
X1411364D02*
X1412273Y799262D01*
X1416364Y806138D02*
X1421364Y797387D01*
Y806138D02*
X1416364Y797387D01*
X1430909Y806138D02*
Y797387D01*
Y804262D02*
X1430000Y805513D01*
X1430000D02*
X1429091Y806138D01*
X1429091D02*
X1427727D01*
X1427727D02*
X1426818Y805513D01*
X1426818D02*
X1425909Y804262D01*
X1425909D02*
X1425455Y802387D01*
X1425455D02*
Y801137D01*
X1425455D02*
X1425909Y799262D01*
X1425909D02*
X1426818Y798012D01*
X1426818D02*
X1427727Y797387D01*
X1427727D02*
X1429091D01*
X1429091D02*
X1430000Y798012D01*
X1430000D02*
X1430909Y799262D01*
X1440000Y804262D02*
X1439545Y805513D01*
X1439545D02*
X1438182Y806138D01*
X1438182D02*
X1436818D01*
X1436818D02*
X1435455Y805513D01*
X1435455D02*
X1435000Y804262D01*
X1435000D02*
X1435455Y803012D01*
X1435455D02*
X1436364Y802387D01*
X1436364D02*
X1438636Y801762D01*
X1438636D02*
X1439545Y801137D01*
X1439545D02*
X1440000Y799887D01*
X1440000D02*
Y799262D01*
X1440000D02*
X1439545Y798012D01*
X1439545D02*
X1438182Y797387D01*
X1438182D02*
X1436818D01*
X1436818D02*
X1435455Y798012D01*
X1435455D02*
X1435000Y799262D01*
X1454545Y810513D02*
Y797387D01*
X1458636Y806138D02*
Y797387D01*
Y803637D02*
X1460000Y805513D01*
X1460000D02*
X1460909Y806138D01*
X1460909D02*
X1462273D01*
X1462273D02*
X1463182Y805513D01*
X1463182D02*
X1463636Y803637D01*
X1463636D02*
Y797387D01*
X1472727Y804262D02*
X1472273Y805513D01*
X1472273D02*
X1470909Y806138D01*
X1470909D02*
X1469545D01*
X1469545D02*
X1468182Y805513D01*
X1468182D02*
X1467727Y804262D01*
X1467727D02*
X1468182Y803012D01*
X1468182D02*
X1469091Y802387D01*
X1469091D02*
X1471364Y801762D01*
X1471364D02*
X1472273Y801137D01*
X1472273D02*
X1472727Y799887D01*
X1472727D02*
Y799262D01*
X1472727D02*
X1472273Y798012D01*
X1472273D02*
X1470909Y797387D01*
X1470909D02*
X1469545D01*
X1469545D02*
X1468182Y798012D01*
X1468182D02*
X1467727Y799262D01*
X1478182Y810513D02*
Y799887D01*
X1478182D02*
X1478636Y798012D01*
X1478636D02*
X1479545Y797387D01*
X1479545D02*
X1480455D01*
X1476818Y806138D02*
X1480000D01*
X1484545D02*
Y797387D01*
Y802387D02*
X1485000Y804262D01*
X1485000D02*
X1485909Y805513D01*
X1485909D02*
X1486818Y806138D01*
X1486818D02*
X1488182D01*
X1492273D02*
Y799887D01*
X1492273D02*
X1492727Y798012D01*
X1492727D02*
X1493636Y797387D01*
X1493636D02*
X1495000D01*
X1495000D02*
X1495909Y798012D01*
X1495909D02*
X1497273Y799887D01*
Y806138D02*
Y797387D01*
X1501364Y806138D02*
Y797387D01*
Y803637D02*
X1502727Y805513D01*
X1502727D02*
X1503636Y806138D01*
X1503636D02*
X1505000D01*
X1505000D02*
X1505909Y805513D01*
X1505909D02*
X1506364Y803637D01*
X1506364D02*
Y797387D01*
Y803637D02*
X1507727Y805513D01*
X1507727D02*
X1508636Y806138D01*
X1508636D02*
X1510000D01*
X1510000D02*
X1510909Y805513D01*
X1510909D02*
X1511364Y803637D01*
X1511364D02*
Y797387D01*
X1515455Y802387D02*
X1520909D01*
X1520909D02*
Y803637D01*
X1520909D02*
X1520455Y804887D01*
X1520455D02*
X1520000Y805513D01*
X1520000D02*
X1519091Y806138D01*
X1519091D02*
X1517727D01*
X1517727D02*
X1516818Y805513D01*
X1516818D02*
X1515909Y804262D01*
X1515909D02*
X1515455Y802387D01*
X1515455D02*
Y801137D01*
X1515455D02*
X1515909Y799262D01*
X1515909D02*
X1516818Y798012D01*
X1516818D02*
X1517727Y797387D01*
X1517727D02*
X1519091D01*
X1519091D02*
X1520000Y798012D01*
X1520000D02*
X1520909Y799262D01*
X1525000Y806138D02*
Y797387D01*
Y803637D02*
X1526364Y805513D01*
X1526364D02*
X1527273Y806138D01*
X1527273D02*
X1528636D01*
X1528636D02*
X1529545Y805513D01*
X1529545D02*
X1530000Y803637D01*
X1530000D02*
Y797387D01*
X1535455Y810513D02*
Y799887D01*
X1535455D02*
X1535909Y798012D01*
X1535909D02*
X1536818Y797387D01*
X1536818D02*
X1537727D01*
X1534091Y806138D02*
X1537273D01*
X1546818Y804262D02*
X1546364Y805513D01*
X1546364D02*
X1545000Y806138D01*
X1545000D02*
X1543636D01*
X1543636D02*
X1542273Y805513D01*
X1542273D02*
X1541818Y804262D01*
X1541818D02*
X1542273Y803012D01*
X1542273D02*
X1543182Y802387D01*
X1543182D02*
X1545455Y801762D01*
X1545455D02*
X1546364Y801137D01*
X1546364D02*
X1546818Y799887D01*
X1546818D02*
Y799262D01*
X1546818D02*
X1546364Y798012D01*
X1546364D02*
X1545000Y797387D01*
X1545000D02*
X1543636D01*
X1543636D02*
X1542273Y798012D01*
X1542273D02*
X1541818Y799262D01*
X1381850Y749372D02*
Y736247D01*
Y749372D02*
X1387759D01*
X1381850Y743122D02*
X1385487D01*
X1392305Y746247D02*
Y746872D01*
X1392759Y748122*
X1393214Y748747*
X1394123Y749372*
X1395941*
X1396850Y748747*
X1397305Y748122*
X1397759Y746872*
Y745622*
X1397305Y744372*
X1396396Y742497*
X1391850Y736247*
X1398214*
X1404578Y749372D02*
X1403214Y748747D01*
X1402759Y747497*
Y746247*
X1403214Y744997*
X1404123Y744372*
X1405941Y743747*
X1407305Y743122*
X1408214Y741872*
X1408669Y740622*
Y738747*
X1408214Y737497*
X1407759Y736872*
X1406396Y736247*
X1404578*
X1403214Y736872*
X1402759Y737497*
X1402305Y738747*
Y740622*
X1402759Y741872*
X1403669Y743122*
X1405032Y743747*
X1406850Y744372*
X1407759Y744997*
X1408214Y746247*
Y747497*
X1407759Y748747*
X1406396Y749372*
X1404578*
X1415487D02*
X1414123Y748747D01*
X1413214Y746872*
X1412759Y743747*
Y741872*
X1413214Y738747*
X1414123Y736872*
X1415487Y736247*
X1416396*
X1417759Y736872*
X1418669Y738747*
X1419123Y741872*
Y743747*
X1418669Y746872*
X1417759Y748747*
X1416396Y749372*
X1415487*
X1424123D02*
X1429123D01*
X1426396Y744372*
X1427759*
X1428669Y743747*
X1429123Y743122*
X1429578Y741247*
Y739997*
X1429123Y738122*
X1428214Y736872*
X1426850Y736247*
X1425487*
X1424123Y736872*
X1423669Y737497*
X1423214Y738747*
X1433669Y744997D02*
X1438669Y736247D01*
Y744997D02*
X1433669Y736247D01*
X1458669Y743122D02*
X1457759Y744372D01*
X1456850Y744997*
X1455487*
X1454578Y744372*
X1453669Y743122*
X1453214Y741247*
Y739997*
X1453669Y738122*
X1454578Y736872*
X1455487Y736247*
X1456850*
X1457759Y736872*
X1458669Y738122*
X1465032Y744997D02*
X1464123Y744372D01*
X1463214Y743122*
X1462759Y741247*
Y739997*
X1463214Y738122*
X1464123Y736872*
X1465032Y736247*
X1466396*
X1467305Y736872*
X1468214Y738122*
X1468669Y739997*
Y741247*
X1468214Y743122*
X1467305Y744372*
X1466396Y744997*
X1465032*
X1472759D02*
Y736247D01*
Y742497D02*
X1474123Y744372D01*
X1475032Y744997*
X1476396*
X1477305Y744372*
X1477759Y742497*
Y736247*
X1483214Y749372D02*
Y738747D01*
X1483669Y736872*
X1484578Y736247*
X1485487*
X1481850Y744997D02*
X1485032D01*
X1489578D02*
Y736247D01*
Y741247D02*
X1490032Y743122D01*
X1490941Y744372*
X1491850Y744997*
X1493214*
X1499578D02*
X1498669Y744372D01*
X1497759Y743122*
X1497305Y741247*
Y739997*
X1497759Y738122*
X1498669Y736872*
X1499578Y736247*
X1500941*
X1501850Y736872*
X1502759Y738122*
X1503214Y739997*
Y741247*
X1502759Y743122*
X1501850Y744372*
X1500941Y744997*
X1499578*
X1507305Y749372D02*
Y736247D01*
X1518214Y746247D02*
X1517759Y747497D01*
X1516850Y748747*
X1515941Y749372*
X1514123*
X1513214Y748747*
X1512305Y747497*
X1511850Y746247*
X1511396Y744372*
Y741247*
X1511850Y739372*
X1512305Y738122*
X1513214Y736872*
X1514123Y736247*
X1515941*
X1516850Y736872*
X1517759Y738122*
X1518214Y739372*
X1525941Y749372D02*
X1522305Y736247D01*
X1525941Y749372D02*
X1529578Y736247D01*
X1523669Y740622D02*
X1528214D01*
X1533669Y749372D02*
Y736247D01*
Y749372D02*
X1537759D01*
X1539123Y748747*
X1539578Y748122*
X1540032Y746872*
Y745622*
X1539578Y744372*
X1539123Y743747*
X1537759Y743122*
X1533669*
X1536850D02*
X1540032Y736247D01*
X1544123Y749372D02*
Y736247D01*
Y749372D02*
X1547305D01*
X1548669Y748747*
X1549578Y747497*
X1550032Y746247*
X1550487Y744372*
Y741247*
X1550032Y739372*
X1549578Y738122*
X1548669Y736872*
X1547305Y736247*
X1544123*
X1506205Y662578D02*
X1505523Y663516D01*
X1504500Y663984*
X1503136*
X1502114Y663516*
X1501432Y662578*
Y661641*
X1501773Y660703*
X1502114Y660234*
X1502795Y659766*
X1504841Y658828*
X1505523Y658359*
X1505864Y657891*
X1506205Y656953*
Y655547*
X1505523Y654609*
X1504500Y654141*
X1503136*
X1502114Y654609*
X1501432Y655547*
X1509273Y657891D02*
X1513364D01*
Y658828*
X1513023Y659766*
X1512682Y660234*
X1512000Y660703*
X1510977*
X1510295Y660234*
X1509614Y659297*
X1509273Y657891*
Y656953*
X1509614Y655547*
X1510295Y654609*
X1510977Y654141*
X1512000*
X1512682Y654609*
X1513364Y655547*
X1520523Y659297D02*
X1519841Y660234D01*
X1519159Y660703*
X1518136*
X1517455Y660234*
X1516773Y659297*
X1516432Y657891*
Y656953*
X1516773Y655547*
X1517455Y654609*
X1518136Y654141*
X1519159*
X1519841Y654609*
X1520523Y655547*
X1525295Y660703D02*
X1524614Y660234D01*
X1523932Y659297*
X1523591Y657891*
Y656953*
X1523932Y655547*
X1524614Y654609*
X1525295Y654141*
X1526318*
X1527000Y654609*
X1527682Y655547*
X1528023Y656953*
Y657891*
X1527682Y659297*
X1527000Y660234*
X1526318Y660703*
X1525295*
X1531091D02*
Y654141D01*
Y658828D02*
X1532114Y660234D01*
X1532795Y660703*
X1533818*
X1534500Y660234*
X1534841Y658828*
Y654141*
X1542000Y663984D02*
Y654141D01*
Y659297D02*
X1541318Y660234D01*
X1540636Y660703*
X1539614*
X1538932Y660234*
X1538250Y659297*
X1537909Y657891*
Y656953*
X1538250Y655547*
X1538932Y654609*
X1539614Y654141*
X1540636*
X1541318Y654609*
X1542000Y655547*
X1549159Y660703D02*
Y654141D01*
Y659297D02*
X1548477Y660234D01*
X1547795Y660703*
X1546773*
X1546091Y660234*
X1545409Y659297*
X1545068Y657891*
Y656953*
X1545409Y655547*
X1546091Y654609*
X1546773Y654141*
X1547795*
X1548477Y654609*
X1549159Y655547*
X1552227Y660703D02*
Y654141D01*
Y657891D02*
X1552568Y659297D01*
X1553250Y660234*
X1553932Y660703*
X1554955*
X1558364D02*
X1560409Y654141D01*
X1562455Y660703D02*
X1560409Y654141D01*
X1559727Y652266*
X1559045Y651328*
X1558364Y650859*
X1558023*
X1578136Y662578D02*
X1577455Y663516D01*
X1576432Y663984*
X1575068*
X1574045Y663516*
X1573364Y662578*
Y661641*
X1573705Y660703*
X1574045Y660234*
X1574727Y659766*
X1576773Y658828*
X1577455Y658359*
X1577795Y657891*
X1578136Y656953*
Y655547*
X1577455Y654609*
X1576432Y654141*
X1575068*
X1574045Y654609*
X1573364Y655547*
X1581205Y663984D02*
X1581545Y663516D01*
X1581886Y663984*
X1581545Y664453*
X1581205Y663984*
X1581545Y660703D02*
Y654141D01*
X1589045Y663984D02*
Y654141D01*
Y659297D02*
X1588364Y660234D01*
X1587682Y660703*
X1586659*
X1585977Y660234*
X1585295Y659297*
X1584955Y657891*
Y656953*
X1585295Y655547*
X1585977Y654609*
X1586659Y654141*
X1587682*
X1588364Y654609*
X1589045Y655547*
X1592114Y657891D02*
X1596205D01*
Y658828*
X1595864Y659766*
X1595523Y660234*
X1594841Y660703*
X1593818*
X1593136Y660234*
X1592455Y659297*
X1592114Y657891*
Y656953*
X1592455Y655547*
X1593136Y654609*
X1593818Y654141*
X1594841*
X1595523Y654609*
X1596205Y655547*
X1349670Y663984D02*
X1346261Y657422D01*
X1351375*
X1349670Y663984D02*
Y654141D01*
G54D28*
X1082500Y1018500D02*
Y1034000D01*
X1085000Y1036500*
Y1045000*
Y1005315D02*
Y1034000D01*
X1087500Y1036500*
Y1056000*
X1098000Y1066500*
Y1070000*
X1128000Y1018000D02*
X1130000Y1016000D01*
Y1005315*
X1181000Y1012000D02*
X1184000Y1015000D01*
X1233500Y1012500D02*
X1243000Y1022000D01*
X1256000*
X1257500Y1023500*
X1228500Y1012500D02*
Y1016500D01*
X1231000Y1019000*
Y1029500*
X1209500Y1011500D02*
Y1015500D01*
X1215000Y1021000*
Y1034000*
X1216500Y1035500*
X1209500Y1011500D02*
X1210000Y1011000D01*
Y1005315*
X1218500Y1012500D02*
Y1015500D01*
X1220500Y1017500*
Y1026500*
X1222500Y1028500*
Y1048000*
X1223500Y1012500D02*
Y1025500D01*
X1228000Y1030000*
Y1037500*
X1213500Y1015000D02*
X1218500Y1020000D01*
Y1028000*
X1220500Y1030000*
Y1047000*
X1234000Y1023500D02*
X1240150D01*
Y1025500*
X1211500Y1012500D02*
Y1016000D01*
X1217500Y1022000*
Y1028500*
X1219500Y1030500*
Y1038500*
X1230000Y1005315D02*
Y1011000D01*
X1231000Y1012000*
Y1015000*
X1225000Y1005315D02*
Y1011000D01*
X1226000Y1012000*
Y1026000*
X1229000Y1029000*
Y1039000*
X1220000Y1005315D02*
Y1010500D01*
X1221500Y1012000*
Y1025000*
X1223500Y1027000*
Y1048500*
X1215000Y1005315D02*
Y1013500D01*
X1217200Y1015700*
Y1016458*
X1219500Y1018759*
Y1027500*
X1221500Y1029500*
Y1047500*
X1253500Y1005315D02*
X1255000D01*
Y1028500D02*
X1257500D01*
X1259500Y1030500*
X1279000*
X1254000Y1025500D02*
X1256000D01*
X1259500Y1029000*
X1275500*
X1277000Y1027500*
X1283000*
X1243000Y1016000D02*
Y1010000D01*
X1245000Y1008000*
Y1005315*
X1243000Y1016000D02*
X1245000Y1018000D01*
X1266500*
X1267500Y1019000*
X1273500*
X1248500Y1012500D02*
X1250000Y1011000D01*
Y1005315*
X1263000Y1024500D02*
X1284500D01*
X1286000Y1026000*
X1288000*
X1290500Y1023500*
X1245000Y1013000D02*
Y1015000D01*
X1247000Y1017000*
X1275000*
X1276500Y1018500*
X1281000*
X1282500Y1017000*
X1240000Y1013000D02*
Y1016000D01*
X1244000Y1020000*
X1264500*
X1267000Y1022500*
X1283000*
X1285500Y1020000*
X1289500*
X1260500Y1027000D02*
X1271000D01*
X1272500Y1025500*
X1284000*
X1286500Y1028000*
X1290500*
X1294000Y1024500*
Y1022000*
X1270000Y1005315D02*
Y1012500D01*
X1272000Y1014500*
X1265000Y1005315D02*
Y1014500D01*
X1260000Y1005315D02*
Y1010500D01*
X1261500Y1012000*
X1240000Y1005315D02*
Y1008000D01*
X1242000Y1010000*
Y1016500*
X1244500Y1019000*
X1265500*
X1267500Y1021000*
X1282500*
X1287500Y1016000*
X1235000Y1005315D02*
Y1011000D01*
X1236000Y1012000*
Y1013500*
X1243500Y1021000*
X1264000*
X1266500Y1023500*
X1286500*
X1240150Y1025000D02*
Y1025500D01*
X1278500Y1005315D02*
X1280000D01*
X1307500Y1015000D02*
Y1017000D01*
X1308000Y1017500*
Y1038500*
X1309500Y1040000*
Y1061000*
X1313000Y1015000D02*
Y1028500D01*
X1318000Y1033500*
Y1069500*
X1297500Y1013500D02*
Y1023000D01*
X1300000Y1025500*
X1290500Y1023500D02*
X1292000Y1022000D01*
X1310000Y1005315D02*
Y1037500D01*
X1314000Y1041500*
X1305000Y1005315D02*
Y1016500D01*
X1306500Y1018000*
Y1060000*
X1295000Y1005315D02*
Y1017500D01*
X1290000Y1005315D02*
Y1012000D01*
X1292000Y1014000*
Y1022000*
X1285000Y1005315D02*
Y1011000D01*
X1286500Y1012500*
X1275000Y1005315D02*
Y1013500D01*
X1277500Y1016000*
X1337500Y1015500D02*
Y1024150D01*
X1315000Y1005315D02*
Y1012500D01*
X1320000Y1017500*
Y1029500*
X1039000Y1047500D02*
Y1042500D01*
X1040000Y1041500*
Y1005315*
X1090000Y1050000D02*
Y1056000D01*
X1101000Y1067000*
Y1072500*
X1090000Y1050000D02*
X1092000Y1048000D01*
Y1043000*
X1095000Y1040000*
Y1005315*
X1090000Y1046000D02*
Y1042000D01*
X1092500Y1039500*
Y1018500*
X1100000Y1052000D02*
Y1059500D01*
X1108500Y1068000*
X1100000Y1052000D02*
X1101000Y1051000D01*
Y1048500*
X1104500Y1045000*
X1108000*
X1115000Y1038000*
Y1005315*
X1096000Y1049000D02*
Y1058000D01*
X1106500Y1068500*
X1096000Y1049000D02*
X1105000Y1040000D01*
Y1005315*
X1109000Y1059000D02*
Y1062500D01*
X1112000Y1065500*
X1109000Y1059000D02*
X1118500Y1049500D01*
Y1046500*
X1145000Y1020000*
Y1005315*
X1103500Y1058000D02*
Y1056431D01*
X1110750Y1049181*
Y1048095*
X1132500Y1026345*
Y1018500*
X1102500Y1053000D02*
Y1050500D01*
X1106000Y1047000*
X1108000*
X1122500Y1032500*
Y1018500*
X1105500Y1056500D02*
Y1061000D01*
X1111000Y1066500*
X1105500Y1056500D02*
X1115000Y1047000D01*
Y1046000*
X1135000Y1026000*
Y1005315*
X1101500Y1056000D02*
Y1059000D01*
X1110000Y1067500*
X1101500Y1056000D02*
X1102000Y1055500D01*
X1103000*
X1106000Y1052500*
Y1050500*
X1125000Y1031500*
Y1005315*
X1098000Y1051500D02*
Y1049500D01*
X1108000Y1039500*
X1110000*
X1112500Y1037000*
Y1018500*
X1107500Y1057500D02*
X1116937Y1048063D01*
Y1046063*
X1140000Y1023000*
Y1021000*
X1142500Y1018500*
X1111000Y1060000D02*
X1120250Y1050750D01*
Y1046250*
X1149500Y1017000*
X1094000Y1049500D02*
Y1047000D01*
X1102500Y1038500*
Y1018500*
X1148500Y1042500D02*
Y1052000D01*
X1149500Y1053000*
X1152000*
X1148500Y1042500D02*
Y1039000D01*
X1156500Y1031000*
X1176500*
X1178000Y1029500*
X1134500Y1059500D02*
Y1057500D01*
X1135500Y1056500*
X1138150*
X1152000Y1053000D02*
X1152150D01*
Y1056500*
X1152500Y1045500D02*
Y1038500D01*
X1158000Y1033000*
X1174500*
X1124000Y1053500D02*
X1128000Y1049500D01*
Y1041500*
X1148500Y1021000*
X1151000*
X1155000Y1017000*
X1178000*
X1180500Y1019500*
X1126500Y1055500D02*
X1129000Y1053000D01*
Y1042500*
X1149000Y1022500*
X1151500*
X1156000Y1018000*
X1174500*
X1177000Y1020500*
X1131000Y1060000D02*
Y1044500D01*
X1150500Y1025000*
X1170500*
X1138000Y1044500D02*
X1138150Y1044650D01*
Y1048500*
X1138000Y1044500D02*
X1155000Y1027500D01*
X1171000*
X1173500Y1025000*
X1176000*
X1128500Y1058000D02*
X1130000Y1056500D01*
Y1043500*
X1149500Y1024000*
X1152500*
X1155500Y1021000*
X1173500*
X1134500Y1063000D02*
X1138150D01*
X1148500Y1066500D02*
X1151650D01*
X1152150Y1066000*
X1120500Y1064500D02*
Y1073500D01*
X1128500Y1081500*
X1156000*
X1160000Y1077500*
X1161000*
X1165000Y1073500*
Y1067500*
X1172000Y1060500*
Y1053000*
X1181500Y1043500*
Y1032000*
X1182000Y1031500*
X1128500Y1065500D02*
X1133500D01*
X1134500Y1066500*
X1148500*
X1138150Y1056500D02*
X1141500Y1053150D01*
Y1043500*
X1156500Y1028500*
X1173500*
X1152150Y1049000D02*
Y1045500D01*
X1152500*
X1168000Y1035500D02*
X1176000D01*
X1178500Y1033000*
X1164000Y1056000D02*
Y1062000D01*
X1186500Y1063500D02*
X1190500D01*
Y1064850*
X1220500Y1064000D02*
Y1051500D01*
X1223500Y1048500*
X1220500Y1064000D02*
X1224000Y1067500D01*
X1228500*
X1225000Y1073000D02*
X1217500Y1065500D01*
Y1050000*
X1220500Y1047000*
X1232000Y1062500D02*
X1234000D01*
X1234500Y1062000*
Y1059000*
X1239000Y1054500*
X1262500*
X1265500Y1057500*
X1282000*
X1283000Y1056500*
X1287000*
X1228500Y1063000D02*
X1230500Y1065000D01*
X1233000*
X1235500Y1062500*
Y1059500*
X1239500Y1055500*
X1261000*
X1264500Y1059000*
X1283500*
X1226000Y1053000D02*
Y1049500D01*
X1229000Y1046500*
X1232500*
X1236500Y1042500*
X1245500*
X1247500Y1044500*
X1252500*
X1254500Y1042500*
X1276000*
X1277500Y1041000*
Y1037500*
X1226000Y1053000D02*
X1228000Y1055000D01*
X1199500Y1058500D02*
X1204150D01*
X1201500Y1040500D02*
X1206250D01*
Y1042500*
X1219500Y1064500D02*
Y1051000D01*
X1222500Y1048000*
X1219500Y1064500D02*
X1224500Y1069500D01*
X1231500*
X1232500Y1070500*
X1234500*
X1228500Y1052000D02*
X1231500Y1049000D01*
X1241000*
X1242500Y1047500*
X1254500*
X1256500Y1045500*
X1266500*
X1267500Y1046500*
X1289500*
X1200500Y1035000D02*
X1200650Y1034850D01*
Y1031000*
X1228500Y1042500D02*
Y1039500D01*
X1229000Y1039000*
X1223000Y1055000D02*
Y1050500D01*
X1224500Y1049000*
Y1039000*
X1226000Y1037500*
Y1035500*
X1218500Y1065000D02*
X1224000Y1070500D01*
X1231000*
X1232000Y1071500*
Y1072500*
X1233000Y1073500*
X1237000*
X1218500Y1065000D02*
Y1050500D01*
X1221500Y1047500*
X1233000Y1067500D02*
X1235500Y1065000D01*
X1237000*
X1243000Y1071000*
Y1091500*
X1231500Y1059500D02*
X1233250Y1057750D01*
X1234000*
X1238250Y1053500*
X1264500*
X1267000Y1056000*
X1272500*
X1274500Y1054000*
X1280500*
X1232000Y1035000D02*
X1235000D01*
X1236500Y1036500*
X1251000*
X1253750Y1033750*
Y1032000*
X1254750Y1031000*
X1256500*
X1256500*
X1258500*
X1260000Y1032500*
X1262000*
X1218500Y1042000D02*
Y1039500D01*
X1219500Y1038500*
X1226500Y1046000D02*
Y1039000D01*
X1228000Y1037500*
X1196500Y1031500D02*
Y1034000D01*
X1200000Y1037500*
X1210000*
X1212000Y1035500*
X1230000Y1039000D02*
Y1030500D01*
X1231000Y1029500*
X1230000Y1039000D02*
X1231000Y1040000D01*
Y1044500*
X1223500Y1060000D02*
X1228000D01*
X1231500Y1056500*
X1233500*
X1237500Y1052500*
X1270500*
X1231500Y1052000D02*
X1233500Y1050000D01*
X1243000*
X1244000Y1049000*
X1255000*
X1257500Y1046500*
X1264500*
X1265500Y1047500*
X1277500*
X1280000Y1050000*
X1200650Y1031000D02*
Y1024000D01*
X1202750*
X1197500Y1040650D02*
X1201350D01*
X1201500Y1040500*
X1251000Y1041000D02*
X1252000Y1041500D01*
X1269000*
X1270500Y1040000*
X1275500*
X1254000Y1037500D02*
X1267500D01*
X1258000Y1039500D02*
X1264500D01*
X1256000Y1033000D02*
X1259000D01*
X1260500Y1034500*
X1291500*
X1239000Y1062500D02*
Y1064500D01*
X1240000Y1065500*
X1243650*
X1244000Y1065850*
X1258000Y1035500D02*
X1270500D01*
X1271500Y1036500*
X1235000Y1047000D02*
X1238500Y1043500D01*
X1244500*
X1246500Y1045500*
X1253500*
X1255500Y1043500*
X1278500*
X1236000Y1067500D02*
X1238000D01*
X1241500Y1071000*
Y1090500*
X1238500Y1047000D02*
X1241000Y1044500D01*
X1244000*
X1246000Y1046500*
X1254000*
X1256000Y1044500*
X1267500*
X1268500Y1045500*
X1282500*
X1284500Y1043500*
X1287500*
X1234500Y1052000D02*
X1236500D01*
X1237500Y1051000*
X1267000*
X1268500Y1049500*
X1272500*
X1239750Y1032000D02*
X1240150Y1029600D01*
Y1025500*
X1247250Y1032000D02*
Y1030500D01*
X1305000Y1066000D02*
Y1061500D01*
X1306500Y1060000*
X1307500Y1063000D02*
X1309500Y1061000D01*
X1301850Y1055000D02*
Y1059500D01*
X1302000*
X1337500Y1043000D02*
X1340000Y1045500D01*
Y1049150*
X1330000D02*
Y1045500D01*
X1332500Y1043000*
X1035000Y1079000D02*
X1080500D01*
X1091500Y1090000*
X1153500*
X1159000Y1095500*
X1170500*
X1177000Y1089000*
Y1076000*
X1182000Y1071000*
X1200500*
X1202000Y1069500*
Y1067000*
X1206500Y1062500*
X1213000*
X1215500Y1060000*
Y1055000*
X1103500Y1074500D02*
X1106500Y1071500D01*
Y1068500*
X1103500Y1078500D02*
X1107500D01*
X1110000Y1076000*
Y1067500*
X1101000Y1076500D02*
X1107000D01*
X1108500Y1075000*
Y1068000*
Y1082500D02*
X1112000Y1079000D01*
Y1065500*
X1110500Y1085000D02*
X1113000Y1082500D01*
Y1062000*
X1122000Y1053000*
Y1046000*
X1148500Y1019500*
X1150500*
X1155000Y1015000*
Y1005315*
X1106000Y1080500D02*
X1108500D01*
X1111000Y1078000*
Y1066500*
X1128240Y1076500D02*
X1131500D01*
X1132500Y1077500*
X1138150*
X1152150Y1074000D02*
X1148500D01*
X1149000Y1073500*
X1124500Y1070000D02*
X1128000Y1073500D01*
X1149000*
X1144850Y1070000D02*
X1148500D01*
X1164000Y1078000D02*
X1165500D01*
X1167000Y1076500*
Y1068500*
X1174000Y1061500*
Y1052500*
X1184000Y1042500*
Y1015000*
X1164500Y1082000D02*
X1169500D01*
X1170500Y1081000*
Y1069000*
X1176500Y1063000*
Y1053000*
X1186000Y1043500*
Y1019000*
X1187500Y1017500*
Y1012000*
X1161500Y1093000D02*
X1162000Y1093500D01*
X1169000*
X1176000Y1086500*
Y1074500*
X1181500Y1069000*
Y1055500*
X1191000Y1046000*
Y1021500*
X1200000Y1012500*
Y1005315*
X1164500Y1091000D02*
X1169500D01*
X1175000Y1085500*
Y1072500*
X1180500Y1067000*
Y1055000*
X1190000Y1045500*
Y1021000*
X1197500Y1013500*
Y1012000*
X1164500Y1086000D02*
X1170000D01*
X1173000Y1083000*
Y1070500*
X1178500Y1065000*
Y1054000*
X1188000Y1044500*
Y1020000*
X1192500Y1015500*
Y1012000*
X1161500Y1088500D02*
X1169000D01*
X1174000Y1083500*
Y1071500*
X1179500Y1066000*
Y1054500*
X1189000Y1045000*
Y1020500*
X1195000Y1014500*
Y1005315*
X1161500Y1080500D02*
X1163000D01*
X1163500Y1080000*
X1167000*
X1169000Y1078000*
Y1068500*
X1175500Y1062000*
Y1052500*
X1185000Y1043000*
Y1005315*
X1161500Y1084000D02*
X1170000D01*
X1172000Y1082000*
Y1069500*
X1177500Y1064000*
Y1053500*
X1187000Y1044000*
Y1019500*
X1190000Y1016500*
Y1005315*
X1182000Y1092000D02*
X1186776D01*
X1189276Y1094500*
X1240000*
X1243000Y1091500*
X1179500Y1090000D02*
X1192500D01*
X1195500Y1093000*
X1239000*
X1241500Y1090500*
X1220000Y1073000D02*
Y1074850D01*
X1222150Y1077000*
X1212000Y1087500D02*
X1215000Y1090500D01*
X1228500*
X1230000Y1089000*
X1239000*
X1208850Y1079000D02*
X1213000D01*
X1214000Y1078000*
Y1075500*
X1215250Y1070500D02*
Y1073000D01*
X1220000*
X1214650Y1083500D02*
X1216000D01*
Y1088000*
X1302500Y1080000D02*
Y1078000D01*
X1308500Y1072000*
X1315500*
X1317500Y1074000*
Y1090500*
X1318500Y1091500*
X1326000*
X1328500Y1094000*
X1332500*
X1302500Y1094500D02*
X1307000D01*
X1308500Y1096000*
X1317500*
X1319500Y1094000*
X1322500*
X1312500Y1077000D02*
Y1081650D01*
X1286000Y1091000D02*
Y1070000D01*
X1289000Y1067000*
Y1065000*
X1288000Y1084000D02*
Y1070000D01*
X1291500Y1066500*
Y1042000*
X1300000Y1033500*
Y1025500*
X1332500Y1076500D02*
Y1081650D01*
X1322500Y1077000D02*
Y1081650D01*
X1008328Y1027034D02*
X1005047D01*
X1008328D02*
Y1028057D01*
X1008172Y1028398*
X1008016Y1028511*
X1007703Y1028625*
X1007234*
X1006922Y1028511*
X1006766Y1028398*
X1006609Y1028057*
Y1027034*
X1008328Y1029648D02*
X1005047D01*
X1006766D02*
X1007078Y1029875D01*
X1007234Y1030102*
Y1030443*
X1007078Y1030670*
X1006766Y1030898*
X1006297Y1031011*
X1005984*
X1005516Y1030898*
X1005203Y1030670*
X1005047Y1030443*
Y1030102*
X1005203Y1029875*
X1005516Y1029648*
G54D29*
X1060000Y1012500D02*
Y1005315D01*
X1035000D02*
Y1012500D01*
X1110000Y1005315D02*
Y1012000D01*
X1100000Y1005315D02*
Y1012000D01*
X1090000Y1005315D02*
Y1012000D01*
X1120000Y1005315D02*
Y1012000D01*
X1205000Y1005315D02*
Y1012500D01*
X1206000Y1013500*
X1207500*
X1253500Y1012500D02*
Y1005315D01*
X1246850Y1025000D02*
X1251000D01*
X1278500Y1013000D02*
Y1005315D01*
X1300000D02*
Y1015000D01*
X1301500Y1016500*
X1144850Y1056500D02*
X1148000D01*
X1148500Y1057000*
Y1059500*
X1144850Y1048500D02*
Y1044650D01*
X1145000Y1044500*
X1144850Y1063000D02*
X1148500D01*
X1186500Y1059000D02*
X1190500D01*
Y1058150*
X1158850Y1049000D02*
X1162500D01*
X1158850Y1056500D02*
Y1053150D01*
X1159000Y1053000*
X1158850Y1066000D02*
Y1062500D01*
X1159000*
X1207500Y1065500D02*
X1207750Y1066000D01*
Y1070500*
X1213500Y1047000D02*
X1213750D01*
Y1042500*
X1210850Y1058500D02*
X1212000D01*
Y1055000*
X1207350Y1031000D02*
X1210250Y1028100D01*
Y1024000*
X1207350Y1031000D02*
Y1035350D01*
X1207500Y1035500*
X1197500Y1047350D02*
X1201350D01*
X1201500Y1047500*
X1239000Y1059000D02*
X1243500D01*
X1244000Y1059150*
X1247250Y1030500D02*
X1251500D01*
X1300000Y1049500D02*
Y1046850D01*
X1301850Y1045000*
X1295150Y1055000D02*
X1296500Y1056350D01*
Y1059500*
X1295150Y1045000D02*
X1296260D01*
Y1041000*
X1337500Y1035500D02*
Y1030850D01*
X1330000Y1055850D02*
Y1060500D01*
X1340000Y1055850D02*
Y1060000D01*
X1030000Y1093500D02*
Y1090000D01*
X1032500Y1087500*
X1039150*
X1045850D02*
X1050000D01*
X1131000Y1070000D02*
X1138150D01*
X1144850Y1077500D02*
X1148500D01*
X1158850Y1074000D02*
Y1070500D01*
X1159000*
X1197500Y1079000D02*
X1202150D01*
X1219500Y1088000D02*
Y1083500D01*
X1221350*
X1228850Y1077000D02*
Y1072650D01*
X1229000Y1072500*
X1288500Y1087500D02*
X1294150D01*
X1307500Y1090000D02*
X1312500D01*
Y1088350*
X1300850Y1087500D02*
X1305500D01*
X1307000Y1086000*
X1332500Y1088350D02*
X1337850D01*
X1338000Y1088500*
X1322500Y1088350D02*
X1327350D01*
X1327500Y1088500*
G54D33*
X652000Y645200D02*
X1688000D01*
Y1350000*
X652000*
Y645200*
X1253500D02*
X1688000D01*
Y840200*
X1253500*
Y645200*
X1253000Y785200D02*
X1688000D01*
Y645200*
X1253000*
Y785200*
Y675200D02*
X1688000D01*
Y645200*
X1253000*
Y675200*
X1413000*
Y645200*
X1253000*
Y675200*
Y785200D02*
X1688000D01*
Y840200*
X1253000*
Y785200*
Y715200D02*
X1688000D01*
Y785200*
X1253000*
Y715200*
X1553000Y675200D02*
X1688000D01*
Y715200*
X1553000*
Y675200*
X818500Y675700D02*
X1024000D01*
Y645200*
X818500*
Y675700*
X1024000Y645200D02*
X1253500D01*
Y675700*
X1024000*
Y645200*
X818500Y785700D02*
X1253500D01*
Y675700*
X818500*
Y785700*
G54D37*
X1022500Y1029500D03*
X1060000Y1012500D03*
X1035000D03*
X1082500Y1018500D03*
X1092500D03*
X1102500D03*
X1112500D03*
X1110000Y1012000D03*
X1100000D03*
X1090000D03*
X1132500Y1018500D03*
X1120000Y1012000D03*
X1128000Y1018000D03*
X1149500Y1017000D03*
X1142500Y1018500D03*
X1122500D03*
X1178000Y1029500D03*
X1176000Y1025000D03*
X1173500Y1028500D03*
X1170500Y1025000D03*
X1177000Y1020500D03*
X1173500Y1021000D03*
X1180500Y1019500D03*
X1187500Y1012000D03*
X1192500D03*
X1181000D03*
X1231000Y1015000D03*
X1233500Y1012500D03*
X1228500D03*
X1218500D03*
X1223500D03*
X1213500Y1015000D03*
X1228000Y1023500D03*
X1234000D03*
X1211500Y1012500D03*
X1207500Y1013500D03*
X1202500D03*
X1197500Y1012000D03*
X1255000Y1028500D03*
X1254000Y1025500D03*
X1253500Y1012500D03*
X1265000Y1014500D03*
X1273500Y1019000D03*
X1248500Y1012500D03*
X1263000Y1024500D03*
X1245000Y1013000D03*
X1240000D03*
X1272000Y1014500D03*
X1251000Y1025000D03*
X1261500Y1012000D03*
X1256000Y1014500D03*
X1257500Y1023500D03*
X1260500Y1027000D03*
X1286500Y1023500D03*
X1307500Y1015000D03*
X1277500Y1016000D03*
X1289500Y1020000D03*
X1282500Y1017000D03*
X1283000Y1027500D03*
X1294000Y1022000D03*
X1300000Y1025500D03*
X1295000Y1017500D03*
X1278500Y1013000D03*
X1313000Y1015000D03*
X1297500Y1013500D03*
X1286500Y1012500D03*
X1301500Y1016500D03*
X1287500Y1016000D03*
X1290500Y1023500D03*
X1302500Y1012000D03*
X1316500Y1025500D03*
X1337500Y1015500D03*
X1320000Y1029500D03*
X1022500Y1069000D03*
X1031000Y1039000D03*
X1033500Y1061500D03*
X1031000Y1051000D03*
X1062500Y1057000D03*
X1055000D03*
X1049000Y1067500D03*
X1041500Y1050500D03*
X1055000Y1032000D03*
X1036000Y1050000D03*
X1039000Y1047500D03*
X1090000Y1046000D03*
X1103500Y1058000D03*
X1102500Y1053000D03*
X1085000Y1045000D03*
X1098000Y1051500D03*
X1107500Y1057500D03*
X1111000Y1060000D03*
X1094000Y1049500D03*
X1148500Y1042500D03*
X1134500Y1059500D03*
X1152000Y1053000D03*
X1152500Y1045500D03*
X1145000Y1044500D03*
X1124000Y1053500D03*
X1126500Y1055500D03*
X1131000Y1060000D03*
X1138000Y1044500D03*
X1128500Y1058000D03*
X1138000Y1052500D03*
X1148500Y1063000D03*
X1134500D03*
X1148500Y1066500D03*
Y1059500D03*
X1120500Y1064500D03*
X1128500Y1065500D03*
X1174500Y1033000D03*
X1168000Y1035500D03*
X1182000Y1031500D03*
X1164000Y1062000D03*
X1178500Y1033000D03*
X1164000Y1056000D03*
X1162500Y1049000D03*
X1159000Y1062500D03*
Y1053000D03*
X1186500Y1063500D03*
Y1059000D03*
X1232000Y1062500D03*
X1228500Y1063000D03*
X1231000Y1044500D03*
X1199500Y1058500D03*
X1201500Y1040500D03*
X1228500Y1052000D03*
X1207500Y1065500D03*
X1200500Y1035000D03*
X1228500Y1042500D03*
X1223000Y1055000D03*
X1215500D03*
X1212000D03*
X1201500Y1047500D03*
X1207500Y1035500D03*
X1213500Y1047000D03*
X1226000Y1035500D03*
X1233000Y1067500D03*
X1212000Y1035500D03*
X1231500Y1059500D03*
X1232000Y1035000D03*
X1216500Y1035500D03*
X1218500Y1042000D03*
X1226500Y1046000D03*
X1196500Y1031500D03*
X1228500Y1067500D03*
X1223500Y1060000D03*
X1228000Y1055000D03*
X1231500Y1052000D03*
X1271500Y1036500D03*
X1272500Y1049500D03*
X1267500Y1037500D03*
X1251000Y1041000D03*
X1270500Y1052500D03*
X1254000Y1037500D03*
X1258000Y1039500D03*
X1256000Y1033000D03*
X1259000Y1048500D03*
Y1057500D03*
X1262000Y1032500D03*
X1239000Y1059000D03*
Y1062500D03*
X1251500Y1030500D03*
X1258000Y1035500D03*
X1264500Y1039500D03*
X1235000Y1047000D03*
X1236000Y1067500D03*
X1238500Y1047000D03*
X1234500Y1052000D03*
X1283500Y1059000D03*
X1289500Y1046500D03*
X1287500Y1043500D03*
X1275500Y1040000D03*
X1278500Y1043500D03*
X1314000Y1041500D03*
X1289000Y1065000D03*
X1291500Y1034500D03*
X1305000Y1066000D03*
X1302000Y1059500D03*
X1287000Y1056500D03*
X1307500Y1063000D03*
X1279000Y1030500D03*
X1277500Y1037500D03*
X1280000Y1050000D03*
X1280500Y1054000D03*
X1296500Y1059500D03*
X1300000Y1049500D03*
X1313500Y1035000D03*
X1296260Y1041000D03*
X1337500Y1035500D03*
X1320000Y1045000D03*
X1340000Y1060000D03*
X1330000Y1060500D03*
X1314500Y1046500D03*
X1318000Y1069500D03*
X1337500Y1043000D03*
X1332500D03*
X1030000Y1073000D03*
Y1093500D03*
X1022500Y1088500D03*
X1055000Y1089500D03*
X1035000Y1079000D03*
X1050000Y1087500D03*
X1103500Y1074500D03*
Y1078500D03*
X1101000Y1072500D03*
Y1076500D03*
X1098000Y1070000D03*
X1108500Y1082500D03*
X1110500Y1085000D03*
X1106000Y1080500D03*
X1148500Y1077500D03*
X1128240Y1076500D03*
X1148500Y1070000D03*
Y1074000D03*
X1131000Y1070000D03*
X1124500D03*
X1164000Y1078000D03*
X1164500Y1082000D03*
X1161500Y1093000D03*
X1164500Y1091000D03*
Y1086000D03*
X1161500Y1088500D03*
Y1080500D03*
Y1084000D03*
X1159000Y1070500D03*
X1182000Y1092000D03*
X1179500Y1090000D03*
X1197500Y1079000D03*
X1216000Y1088000D03*
X1219500D03*
X1220000Y1073000D03*
X1229000Y1072500D03*
X1214000Y1075500D03*
X1225000Y1073000D03*
X1212000Y1087500D03*
X1237000Y1073500D03*
X1239000Y1089000D03*
X1234500Y1070500D03*
X1261500Y1083000D03*
X1246500D03*
X1288500Y1087500D03*
X1307000Y1086000D03*
X1302500Y1080000D03*
Y1094500D03*
X1307500Y1090000D03*
X1312500Y1093500D03*
Y1077000D03*
X1286000Y1091000D03*
X1288000Y1084000D03*
X1332500Y1076500D03*
X1322500Y1077000D03*
Y1094000D03*
X1332500D03*
X1338000Y1088500D03*
X1327500D03*
G54D42*
X1008094Y1037655D02*
X1004156D01*
X1008094Y1036700D02*
Y1038609D01*
Y1039836D02*
X1004156D01*
X1008094D02*
Y1041609D01*
X1006219Y1039836D02*
Y1040927D01*
X1004156Y1039836D02*
Y1041609D01*
X1008094Y1042836D02*
X1004156Y1044745D01*
X1008094D02*
X1004156Y1042836D01*
X1008094Y1046791D02*
X1007906Y1046382D01*
X1007344Y1046109*
X1006406Y1045973*
X1005844*
X1004906Y1046109*
X1004344Y1046382*
X1004156Y1046791*
Y1047064*
X1004344Y1047473*
X1004906Y1047745*
X1005844Y1047882*
X1006406*
X1007344Y1047745*
X1007906Y1047473*
X1008094Y1047064*
Y1046791*
Y1049927D02*
X1007906Y1049518D01*
X1007344Y1049245*
X1006406Y1049109*
X1005844*
X1004906Y1049245*
X1004344Y1049518*
X1004156Y1049927*
Y1050200*
X1004344Y1050609*
X1004906Y1050882*
X1005844Y1051018*
X1006406*
X1007344Y1050882*
X1007906Y1050609*
X1008094Y1050200*
Y1049927*
X1007156Y1052382D02*
X1007344D01*
X1007719Y1052518*
X1007906Y1052655*
X1008094Y1052927*
Y1053473*
X1007906Y1053745*
X1007719Y1053882*
X1007344Y1054018*
X1006969*
X1006594Y1053882*
X1006031Y1053609*
X1004156Y1052245*
Y1054155*
X1010036Y1029000D02*
G75*
G03X1010036I-3536J0D01*
G01X1004000Y1031500D02*
X1009000Y1026500D01*
G54D60*
G54D69*
X1010000Y1020000D03*
Y1090000D03*
X1345000D03*
G74*
X0Y0D02*
M02*
