%
T1C.01F095S3
X1035Y10125
X10225Y10295
X1031Y1039
X1039Y10475
X1036Y105
X10415Y10505
X1031Y1051
X10335Y10615
X10225Y1069
X103Y1073
X1035Y1079
X10225Y10885
X103Y10935
X1055Y10895
X105Y10875
X1049Y10675
X1055Y1057
X10625Y1057
X1055Y1032
X106Y10125
X109Y1012
X10925Y10185
X10825Y10185
X1085Y1045
X109Y1046
X1094Y10495
X11105Y1085
X11085Y10825
X1106Y10805
X11035Y10785
X1101Y10765
X11035Y10745
X1101Y10725
X1098Y107
X11205Y10645
X1111Y106
X11035Y1058
X11075Y10575
X11025Y1053
X1098Y10515
X11025Y10185
X11125Y10185
X11Y1012
X112Y1012
X111Y1012
X1128Y1018
X11225Y10185
X11325Y10185
X11425Y10185
X1138Y10445
X1145Y10445
X1138Y10525
X1124Y10535
X11265Y10555
X11285Y1058
X11345Y10595
X1131Y106
X11345Y1063
X11285Y10655
X1131Y107
X11245Y107
X112824Y10765
X11615Y1093
X11645Y1091
X11615Y10885
X11645Y1086
X11615Y1084
X11645Y1082
X11615Y10805
X1164Y1078
X11485Y10775
X11485Y1074
X1159Y10705
X11485Y107
X11485Y10665
X11485Y1063
X1159Y10625
X1164Y1062
X11485Y10595
X1164Y1056
X1159Y1053
X1152Y1053
X11625Y1049
X11525Y10455
X11485Y10425
X1168Y10355
X11705Y1025
X11495Y1017
X11925Y1012
X1181Y1012
X11875Y1012
X11805Y10195
X1177Y10205
X11735Y1021
X1176Y1025
X11735Y10285
X1178Y10295
X11965Y10315
X1182Y10315
X11745Y1033
X11785Y1033
X11865Y1059
X11865Y10635
X11795Y109
X1182Y1092
X1216Y1088
X12195Y1088
X1212Y10875
X11975Y1079
X1214Y10755
X122Y1073
X12075Y10655
X11995Y10585
X12155Y1055
X1212Y1055
X12015Y10475
X12135Y1047
X12185Y1042
X12015Y10405
X12165Y10355
X1212Y10355
X12075Y10355
X12005Y1035
X12135Y1015
X12075Y10135
X12025Y10135
X12115Y10125
X12185Y10125
X11975Y1012
X12335Y10125
X12285Y10125
X12235Y10125
X1245Y1013
X124Y1013
X1231Y1015
X1228Y10235
X1234Y10235
X1232Y1035
X1226Y10355
X12285Y10425
X1231Y10445
X12265Y1046
X1235Y1047
X12385Y1047
X12345Y1052
X12285Y1052
X12315Y1052
X1223Y1055
X1228Y1055
X1239Y1059
X12315Y10595
X12235Y106
X1239Y10625
X1232Y10625
X12285Y1063
X1236Y10675
X12285Y10675
X1233Y10675
X12345Y10705
X1229Y10725
X1225Y1073
X1237Y10735
X12465Y1083
X1239Y1089
X12615Y1083
X1259Y10575
X12705Y10525
X1259Y10485
X1251Y1041
X1258Y10395
X12645Y10395
X12675Y10375
X1254Y10375
X12715Y10365
X1258Y10355
X1256Y1033
X1262Y10325
X12515Y10305
X1255Y10285
X12605Y1027
X1254Y10255
X1251Y1025
X1263Y10245
X12575Y10235
X1256Y10145
X1272Y10145
X1265Y10145
X12485Y10125
X12535Y10125
X12615Y1012
X12865Y10125
X12785Y1013
X12775Y1016
X12875Y1016
X12825Y1017
X1295Y10175
X12735Y1019
X12895Y102
X1294Y1022
X12865Y10235
X12905Y10235
X1283Y10275
X1279Y10305
X12915Y10345
X12775Y10375
X12755Y104
X129626Y1041
X12785Y10435
X12875Y10435
X12895Y10465
X12725Y10495
X128Y105
X12805Y1054
X1287Y10565
X12835Y1059
X12965Y10595
X1289Y1065
X1288Y1084
X12885Y10875
X1286Y1091
X13025Y10945
X13125Y10935
X13075Y109
X1307Y1086
X13025Y108
X13125Y1077
X1318Y10695
X1305Y1066
X13075Y1063
X1302Y10595
X13Y10495
X13145Y10465
X132Y1045
X1314Y10415
X13135Y1035
X132Y10295
X13Y10255
X13165Y10255
X13015Y10165
X1313Y1015
X13075Y1015
X12975Y10135
X13025Y1012
X13375Y10155
X13375Y10355
X13375Y1043
X13325Y1043
X134Y106
X133Y10605
X13325Y10765
X13225Y1077
X1338Y10885
X13275Y10885
X13225Y1094
X13325Y1094
M30
