*
*
G04 PADS Layout (Build Number 2008.43.1) generated Gerber (RS-274-X) file*
G04 PC Version=2.1*
*
%IN "TEX002_F2803x_r1.pcb"*%
*
%MOIN*%
*
%FSLAX35Y35*%
*
*
*
*
G04 PC Standard Apertures*
*
*
G04 Thermal Relief Aperture macro.*
%AMTER*
1,1,$1,0,0*
1,0,$1-$2,0,0*
21,0,$3,$4,0,0,45*
21,0,$3,$4,0,0,135*
%
*
*
G04 Annular Aperture macro.*
%AMANN*
1,1,$1,0,0*
1,0,$2,0,0*
%
*
*
G04 Odd Aperture macro.*
%AMODD*
1,1,$1,0,0*
1,0,$1-0.005,0,0*
%
*
*
G04 PC Custom Aperture Macros*
*
*
*
*
*
*
G04 PC Aperture Table*
*
%ADD027C,0.01*%
%ADD033C,0.008*%
%ADD042C,0.006*%
%ADD060C,0*%
*
*
*
*
G04 PC Circuitry*
G04 Layer Name TEX002_F2803x_r1.pcb - circuitry*
%LPD*%
*
*
G04 PC Custom Flashes*
G04 Layer Name TEX002_F2803x_r1.pcb - flashes*
%LPD*%
*
*
G04 PC Circuitry*
G04 Layer Name TEX002_F2803x_r1.pcb - circuitry*
%LPD*%
*
G54D27*
G01X1293580Y664184D02*
Y654341D01*
X1297670*
X1303466Y664184D02*
X1300739Y654341D01*
X1303466Y664184D02*
X1306193Y654341D01*
X1301761Y657622D02*
X1305170D01*
X1309261Y664184D02*
X1311989Y659497D01*
Y654341*
X1314716Y664184D02*
X1311989Y659497D01*
X1317784Y664184D02*
Y654341D01*
Y664184D02*
X1322216D01*
X1317784Y659497D02*
X1320511D01*
X1317784Y654341D02*
X1322216D01*
X1325284Y664184D02*
Y654341D01*
Y664184D02*
X1328352D01*
X1329375Y663716*
X1329716Y663247*
X1330057Y662309*
Y661372*
X1329716Y660434*
X1329375Y659966*
X1328352Y659497*
X1325284*
X1327670D02*
X1330057Y654341D01*
X1035078Y707903D02*
Y698060D01*
Y707903D02*
X1038146D01*
X1039169Y707435*
X1039509Y706966*
X1039850Y706028*
Y704622*
X1039509Y703685*
X1039169Y703216*
X1038146Y702747*
X1035078*
X1042919Y707903D02*
Y698060D01*
X1047691Y707903D02*
Y698060D01*
X1042919Y703216D02*
X1047691D01*
X1052805Y707903D02*
X1052123Y707435D01*
X1051441Y706497*
X1051100Y705560*
X1050759Y704153*
Y701810*
X1051100Y700403*
X1051441Y699466*
X1052123Y698528*
X1052805Y698060*
X1054169*
X1054850Y698528*
X1055532Y699466*
X1055873Y700403*
X1056214Y701810*
Y704153*
X1055873Y705560*
X1055532Y706497*
X1054850Y707435*
X1054169Y707903*
X1052805*
X1059282D02*
Y698060D01*
Y707903D02*
X1064055Y698060D01*
Y707903D02*
Y698060D01*
X1067123Y707903D02*
Y698060D01*
Y707903D02*
X1071555D01*
X1067123Y703216D02*
X1069850D01*
X1067123Y698060D02*
X1071555D01*
X1074964Y704622D02*
X1074623Y704153D01*
X1074964Y703685*
X1075305Y704153*
X1074964Y704622*
Y698997D02*
X1074623Y698528D01*
X1074964Y698060*
X1075305Y698528*
X1074964Y698997*
X1090646Y707903D02*
X1087237D01*
X1086896Y703685*
X1087237Y704153*
X1088259Y704622*
X1089282*
X1090305Y704153*
X1090987Y703216*
X1091328Y701810*
X1090987Y700872*
X1090646Y699466*
X1089964Y698528*
X1088941Y698060*
X1087919*
X1086896Y698528*
X1086555Y698997*
X1086214Y699935*
X1096441Y707903D02*
X1095419Y707435D01*
X1094737Y706028*
X1094396Y703685*
Y702278*
X1094737Y699935*
X1095419Y698528*
X1096441Y698060*
X1097123*
X1098146Y698528*
X1098828Y699935*
X1099169Y702278*
Y703685*
X1098828Y706028*
X1098146Y707435*
X1097123Y707903*
X1096441*
X1103941D02*
X1102919Y707435D01*
X1102578Y706497*
Y705560*
X1102919Y704622*
X1103600Y704153*
X1104964Y703685*
X1105987Y703216*
X1106669Y702278*
X1107009Y701341*
Y699935*
X1106669Y698997*
X1106328Y698528*
X1105305Y698060*
X1103941*
X1102919Y698528*
X1102578Y698997*
X1102237Y699935*
Y701341*
X1102578Y702278*
X1103259Y703216*
X1104282Y703685*
X1105646Y704153*
X1106328Y704622*
X1106669Y705560*
Y706497*
X1106328Y707435*
X1105305Y707903*
X1103941*
X1110419Y698997D02*
X1110078Y698528D01*
X1110419Y698060*
X1110759Y698528*
X1110419Y698997*
X1118259Y704622D02*
X1117919Y703216D01*
X1117237Y702278*
X1116214Y701810*
X1115873*
X1114850Y702278*
X1114169Y703216*
X1113828Y704622*
Y705091*
X1114169Y706497*
X1114850Y707435*
X1115873Y707903*
X1116214*
X1117237Y707435*
X1117919Y706497*
X1118259Y704622*
Y702278*
X1117919Y699935*
X1117237Y698528*
X1116214Y698060*
X1115532*
X1114509Y698528*
X1114169Y699466*
X1124737Y707903D02*
X1121328Y701341D01*
X1126441*
X1124737Y707903D02*
Y698060D01*
X1134282Y707903D02*
X1130873Y698060D01*
X1129509Y707903D02*
X1134282D01*
X1137691Y698997D02*
X1137350Y698528D01*
X1137691Y698060*
X1138032Y698528*
X1137691Y698997*
X1141441Y705560D02*
Y706028D01*
X1141782Y706966*
X1142123Y707435*
X1142805Y707903*
X1144169*
X1144850Y707435*
X1145191Y706966*
X1145532Y706028*
Y705091*
X1145191Y704153*
X1144509Y702747*
X1141100Y698060*
X1145873*
X1153714Y707903D02*
X1150305Y698060D01*
X1148941Y707903D02*
X1153714D01*
X1158828D02*
X1157805Y707435D01*
X1157123Y706028*
X1156782Y703685*
Y702278*
X1157123Y699935*
X1157805Y698528*
X1158828Y698060*
X1159509*
X1160532Y698528*
X1161214Y699935*
X1161555Y702278*
Y703685*
X1161214Y706028*
X1160532Y707435*
X1159509Y707903*
X1158828*
X1169055Y704622D02*
X1168714Y703216D01*
X1168032Y702278*
X1167009Y701810*
X1166669*
X1165646Y702278*
X1164964Y703216*
X1164623Y704622*
Y705091*
X1164964Y706497*
X1165646Y707435*
X1166669Y707903*
X1167009*
X1168032Y707435*
X1168714Y706497*
X1169055Y704622*
Y702278*
X1168714Y699935*
X1168032Y698528*
X1167009Y698060*
X1166328*
X1165305Y698528*
X1164964Y699466*
X1032578Y726403D02*
Y716560D01*
Y726403D02*
X1035305Y716560D01*
X1038032Y726403D02*
X1035305Y716560D01*
X1038032Y726403D02*
Y716560D01*
X1041100Y726403D02*
X1041441Y725935D01*
X1041782Y726403*
X1041441Y726872*
X1041100Y726403*
X1041441Y723122D02*
Y716560D01*
X1048941Y726403D02*
Y716560D01*
Y721716D02*
X1048259Y722653D01*
X1047578Y723122*
X1046555*
X1045873Y722653*
X1045191Y721716*
X1044850Y720310*
Y719372*
X1045191Y717966*
X1045873Y717028*
X1046555Y716560*
X1047578*
X1048259Y717028*
X1048941Y717966*
X1056100Y726403D02*
Y716560D01*
Y721716D02*
X1055419Y722653D01*
X1054737Y723122*
X1053714*
X1053032Y722653*
X1052350Y721716*
X1052009Y720310*
Y719372*
X1052350Y717966*
X1053032Y717028*
X1053714Y716560*
X1054737*
X1055419Y717028*
X1056100Y717966*
X1059169Y726403D02*
Y716560D01*
X1062237Y720310D02*
X1066328D01*
Y721247*
X1065987Y722185*
X1065646Y722653*
X1064964Y723122*
X1063941*
X1063259Y722653*
X1062578Y721716*
X1062237Y720310*
Y719372*
X1062578Y717966*
X1063259Y717028*
X1063941Y716560*
X1064964*
X1065646Y717028*
X1066328Y717966*
X1069396Y726403D02*
Y716560D01*
Y721716D02*
X1070078Y722653D01*
X1070759Y723122*
X1071782*
X1072464Y722653*
X1073146Y721716*
X1073487Y720310*
Y719372*
X1073146Y717966*
X1072464Y717028*
X1071782Y716560*
X1070759*
X1070078Y717028*
X1069396Y717966*
X1078259Y723122D02*
X1077578Y722653D01*
X1076896Y721716*
X1076555Y720310*
Y719372*
X1076896Y717966*
X1077578Y717028*
X1078259Y716560*
X1079282*
X1079964Y717028*
X1080646Y717966*
X1080987Y719372*
Y720310*
X1080646Y721716*
X1079964Y722653*
X1079282Y723122*
X1078259*
X1084055D02*
Y716560D01*
Y720310D02*
X1084396Y721716D01*
X1085078Y722653*
X1085759Y723122*
X1086782*
X1091555D02*
X1090873Y722653D01*
X1090191Y721716*
X1089850Y720310*
Y719372*
X1090191Y717966*
X1090873Y717028*
X1091555Y716560*
X1092578*
X1093259Y717028*
X1093941Y717966*
X1094282Y719372*
Y720310*
X1093941Y721716*
X1093259Y722653*
X1092578Y723122*
X1091555*
X1098032Y717028D02*
X1097691Y716560D01*
X1097350Y717028*
X1097691Y717497*
X1098032Y717028*
Y716091*
X1097691Y715153*
X1097350Y714685*
X1108941Y726403D02*
Y716560D01*
Y726403D02*
X1111669Y716560D01*
X1114396Y726403D02*
X1111669Y716560D01*
X1114396Y726403D02*
Y716560D01*
X1120191Y726403D02*
X1117464Y716560D01*
X1120191Y726403D02*
X1122919Y716560D01*
X1118487Y719841D02*
X1121896D01*
X1135873Y726403D02*
X1134850Y725935D01*
X1134169Y724528*
X1133828Y722185*
Y720778*
X1134169Y718435*
X1134850Y717028*
X1135873Y716560*
X1136555*
X1137578Y717028*
X1138259Y718435*
X1138600Y720778*
Y722185*
X1138259Y724528*
X1137578Y725935*
X1136555Y726403*
X1135873*
X1142009Y724060D02*
Y724528D01*
X1142350Y725466*
X1142691Y725935*
X1143373Y726403*
X1144737*
X1145419Y725935*
X1145759Y725466*
X1146100Y724528*
Y723591*
X1145759Y722653*
X1145078Y721247*
X1141669Y716560*
X1146441*
X1150191Y726403D02*
X1153941D01*
X1151896Y722653*
X1152919*
X1153600Y722185*
X1153941Y721716*
X1154282Y720310*
Y719372*
X1153941Y717966*
X1153259Y717028*
X1152237Y716560*
X1151214*
X1150191Y717028*
X1149850Y717497*
X1149509Y718435*
X1160759Y726403D02*
X1157350Y719841D01*
X1162464*
X1160759Y726403D02*
Y716560D01*
X1169623Y724997D02*
X1169282Y725935D01*
X1168259Y726403*
X1167578*
X1166555Y725935*
X1165873Y724528*
X1165532Y722185*
Y719841*
X1165873Y717966*
X1166555Y717028*
X1167578Y716560*
X1167919*
X1168941Y717028*
X1169623Y717966*
X1169964Y719372*
Y719841*
X1169623Y721247*
X1168941Y722185*
X1167919Y722653*
X1167578*
X1166555Y722185*
X1165873Y721247*
X1165532Y719841*
X1041078Y743028D02*
X1041759Y743497D01*
X1042782Y744903*
Y735060*
X1045850Y743028D02*
X1046532Y743497D01*
X1047555Y744903*
Y735060*
X1052328Y744903D02*
X1051305Y744435D01*
X1050964Y743497*
Y742560*
X1051305Y741622*
X1051987Y741153*
X1053350Y740685*
X1054373Y740216*
X1055055Y739278*
X1055396Y738341*
Y736935*
X1055055Y735997*
X1054714Y735528*
X1053691Y735060*
X1052328*
X1051305Y735528*
X1050964Y735997*
X1050623Y736935*
Y738341*
X1050964Y739278*
X1051646Y740216*
X1052669Y740685*
X1054032Y741153*
X1054714Y741622*
X1055055Y742560*
Y743497*
X1054714Y744435*
X1053691Y744903*
X1052328*
X1062896D02*
X1059487D01*
X1059146Y740685*
X1059487Y741153*
X1060509Y741622*
X1061532*
X1062555Y741153*
X1063237Y740216*
X1063578Y738810*
X1063237Y737872*
X1062896Y736466*
X1062214Y735528*
X1061191Y735060*
X1060169*
X1059146Y735528*
X1058805Y735997*
X1058464Y736935*
X1079600Y742560D02*
X1079259Y743497D01*
X1078578Y744435*
X1077896Y744903*
X1076532*
X1075850Y744435*
X1075169Y743497*
X1074828Y742560*
X1074487Y741153*
Y738810*
X1074828Y737403*
X1075169Y736466*
X1075850Y735528*
X1076532Y735060*
X1077896*
X1078578Y735528*
X1079259Y736466*
X1079600Y737403*
X1082669Y738810D02*
X1086759D01*
Y739747*
X1086419Y740685*
X1086078Y741153*
X1085396Y741622*
X1084373*
X1083691Y741153*
X1083009Y740216*
X1082669Y738810*
Y737872*
X1083009Y736466*
X1083691Y735528*
X1084373Y735060*
X1085396*
X1086078Y735528*
X1086759Y736466*
X1089828Y741622D02*
Y735060D01*
Y739747D02*
X1090850Y741153D01*
X1091532Y741622*
X1092555*
X1093237Y741153*
X1093578Y739747*
Y735060*
X1097669Y744903D02*
Y736935D01*
X1098009Y735528*
X1098691Y735060*
X1099373*
X1096646Y741622D02*
X1099032D01*
X1102441D02*
Y735060D01*
Y738810D02*
X1102782Y740216D01*
X1103464Y741153*
X1104146Y741622*
X1105169*
X1108237Y738810D02*
X1112328D01*
Y739747*
X1111987Y740685*
X1111646Y741153*
X1110964Y741622*
X1109941*
X1109259Y741153*
X1108578Y740216*
X1108237Y738810*
Y737872*
X1108578Y736466*
X1109259Y735528*
X1109941Y735060*
X1110964*
X1111646Y735528*
X1112328Y736466*
X1128009Y743497D02*
X1127328Y744435D01*
X1126305Y744903*
X1124941*
X1123919Y744435*
X1123237Y743497*
Y742560*
X1123578Y741622*
X1123919Y741153*
X1124600Y740685*
X1126646Y739747*
X1127328Y739278*
X1127669Y738810*
X1128009Y737872*
Y736466*
X1127328Y735528*
X1126305Y735060*
X1124941*
X1123919Y735528*
X1123237Y736466*
X1132100Y744903D02*
Y736935D01*
X1132441Y735528*
X1133123Y735060*
X1133805*
X1131078Y741622D02*
X1133464D01*
X1136873D02*
Y735060D01*
Y738810D02*
X1137214Y740216D01*
X1137896Y741153*
X1138578Y741622*
X1139600*
X1142669Y738810D02*
X1146759D01*
Y739747*
X1146419Y740685*
X1146078Y741153*
X1145396Y741622*
X1144373*
X1143691Y741153*
X1143009Y740216*
X1142669Y738810*
Y737872*
X1143009Y736466*
X1143691Y735528*
X1144373Y735060*
X1145396*
X1146078Y735528*
X1146759Y736466*
X1149828Y738810D02*
X1153919D01*
Y739747*
X1153578Y740685*
X1153237Y741153*
X1152555Y741622*
X1151532*
X1150850Y741153*
X1150169Y740216*
X1149828Y738810*
Y737872*
X1150169Y736466*
X1150850Y735528*
X1151532Y735060*
X1152555*
X1153237Y735528*
X1153919Y736466*
X1158009Y744903D02*
Y736935D01*
X1158350Y735528*
X1159032Y735060*
X1159714*
X1156987Y741622D02*
X1159373D01*
X1163955Y663388D02*
Y664013D01*
X1163955D02*
X1164409Y665263D01*
X1164409D02*
X1164864Y665888D01*
X1164864D02*
X1165773Y666513D01*
X1165773D02*
X1167591D01*
X1167591D02*
X1168500Y665888D01*
X1168500D02*
X1168955Y665263D01*
X1168955D02*
X1169409Y664013D01*
X1169409D02*
Y662763D01*
X1169409D02*
X1168955Y661513D01*
X1168955D02*
X1168045Y659637D01*
X1168045D02*
X1163500Y653387D01*
X1163500D02*
X1169864D01*
X1182136Y669013D02*
X1173955Y649012D01*
X1186227Y664013D02*
X1187136Y664638D01*
X1187136D02*
X1188500Y666513D01*
X1188500D02*
Y653387D01*
X1198955Y666513D02*
X1194409Y653387D01*
X1192591Y666513D02*
X1198955D01*
X1211227Y669013D02*
X1203045Y649012D01*
X1218045Y666513D02*
X1216682Y665888D01*
X1216682D02*
X1215773Y664013D01*
X1215773D02*
X1215318Y660887D01*
X1215318D02*
Y659012D01*
X1215318D02*
X1215773Y655887D01*
X1215773D02*
X1216682Y654012D01*
X1216682D02*
X1218045Y653387D01*
X1218045D02*
X1218955D01*
X1218955D02*
X1220318Y654012D01*
X1220318D02*
X1221227Y655887D01*
X1221227D02*
X1221682Y659012D01*
X1221682D02*
Y660887D01*
X1221682D02*
X1221227Y664013D01*
X1221227D02*
X1220318Y665888D01*
X1220318D02*
X1218955Y666513D01*
X1218955D02*
X1218045D01*
X1231682Y662138D02*
X1231227Y660262D01*
X1231227D02*
X1230318Y659012D01*
X1230318D02*
X1228955Y658387D01*
X1228955D02*
X1228500D01*
X1228500D02*
X1227136Y659012D01*
X1227136D02*
X1226227Y660262D01*
X1226227D02*
X1225773Y662138D01*
X1225773D02*
Y662763D01*
X1225773D02*
X1226227Y664638D01*
X1226227D02*
X1227136Y665888D01*
X1227136D02*
X1228500Y666513D01*
X1228500D02*
X1228955D01*
X1228955D02*
X1230318Y665888D01*
X1230318D02*
X1231227Y664638D01*
X1231227D02*
X1231682Y662138D01*
X1231682D02*
Y659012D01*
X1231682D02*
X1231227Y655887D01*
X1231227D02*
X1230318Y654012D01*
X1230318D02*
X1228955Y653387D01*
X1228955D02*
X1228045D01*
X1228045D02*
X1226682Y654012D01*
X1226682D02*
X1226227Y655262D01*
X838909Y666344D02*
Y658844D01*
X838568Y657438*
X838568D02*
X838227Y656969D01*
X837545Y656500*
X836864*
X836182Y656969*
X835841Y657438*
X835841D02*
X835500Y658844D01*
Y659781*
X843682Y663063D02*
X843000Y662594D01*
X842318Y661656*
X841977Y660250*
Y659313*
X841977D02*
X842318Y657906D01*
X843000Y656969*
X843682Y656500*
X844705*
X845386Y656969*
X846068Y657906*
X846409Y659313*
X846409D02*
Y660250D01*
X846068Y661656*
X845386Y662594*
X844705Y663063*
X844705D02*
X843682D01*
X849477Y666344D02*
Y656500D01*
Y661656D02*
X850159Y662594D01*
X850841Y663063*
X850841D02*
X851864D01*
X851864D02*
X852545Y662594D01*
X853227Y661656*
X853568Y660250*
Y659313*
X853568D02*
X853227Y657906D01*
X852545Y656969*
X851864Y656500*
X850841*
X850159Y656969*
X849477Y657906*
X864477Y666344D02*
Y656500D01*
Y666344D02*
X869250Y656500D01*
Y666344D02*
Y656500D01*
X874023Y663063D02*
X873341Y662594D01*
X872659Y661656*
X872318Y660250*
Y659313*
X872318D02*
X872659Y657906D01*
X873341Y656969*
X874023Y656500*
X875045*
X875727Y656969*
X876409Y657906*
X876750Y659313*
X876750D02*
Y660250D01*
X876409Y661656*
X875727Y662594*
X875045Y663063*
X875045D02*
X874023D01*
X880159D02*
X879818Y662594D01*
X880159Y662125*
X880500Y662594*
X880159Y663063*
Y657438D02*
X879818Y656969D01*
X880159Y656500*
X880500Y656969*
X880159Y657438*
X1041000Y663544D02*
Y653700D01*
Y663544D02*
X1043386D01*
X1044409Y663075*
X1045091Y662138*
X1045091D02*
X1045432Y661200D01*
X1045773Y659794*
Y657450*
X1045432Y656044*
X1045091Y655106*
X1044409Y654169*
X1043386Y653700*
X1041000*
X1052932Y660263D02*
Y653700D01*
Y658856D02*
X1052250Y659794D01*
X1051568Y660263*
X1051568D02*
X1050545D01*
X1050545D02*
X1049864Y659794D01*
X1049182Y658856*
X1048841Y657450*
Y656513*
X1048841D02*
X1049182Y655106D01*
X1049864Y654169*
X1050545Y653700*
X1051568*
X1052250Y654169*
X1052932Y655106*
X1057023Y663544D02*
Y655575D01*
X1057364Y654169*
X1058045Y653700*
X1058727*
X1056000Y660263D02*
X1058386D01*
X1061795Y657450D02*
X1065886D01*
Y658388*
X1065886D02*
X1065545Y659325D01*
X1065205Y659794*
X1064523Y660263*
X1064523D02*
X1063500D01*
X1063500D02*
X1062818Y659794D01*
X1062136Y658856*
X1061795Y657450*
Y656513*
X1061795D02*
X1062136Y655106D01*
X1062818Y654169*
X1063500Y653700*
X1064523*
X1065205Y654169*
X1065886Y655106*
X1069295Y660263D02*
X1068955Y659794D01*
X1069295Y659325*
X1069636Y659794*
X1069295Y660263*
Y654638D02*
X1068955Y654169D01*
X1069295Y653700*
X1069636Y654169*
X1069295Y654638*
X841305Y763403D02*
X838578Y753560D01*
X841305Y763403D02*
X844032Y753560D01*
X839600Y756841D02*
X843009D01*
X847100Y760122D02*
Y753560D01*
Y757310D02*
X847441Y758716D01*
X848123Y759653*
X848805Y760122*
X849828*
X853919Y763403D02*
Y755435D01*
X854259Y754028*
X854941Y753560*
X855623*
X852896Y760122D02*
X855282D01*
X858691D02*
X860055Y753560D01*
X861419Y760122D02*
X860055Y753560D01*
X861419Y760122D02*
X862782Y753560D01*
X864146Y760122D02*
X862782Y753560D01*
X868919Y760122D02*
X868237Y759653D01*
X867555Y758716*
X867214Y757310*
Y756372*
X867555Y754966*
X868237Y754028*
X868919Y753560*
X869941*
X870623Y754028*
X871305Y754966*
X871646Y756372*
Y757310*
X871305Y758716*
X870623Y759653*
X869941Y760122*
X868919*
X874714D02*
Y753560D01*
Y757310D02*
X875055Y758716D01*
X875737Y759653*
X876419Y760122*
X877441*
X880509Y763403D02*
Y753560D01*
X883919Y760122D02*
X880509Y755435D01*
X881873Y757310D02*
X884259Y753560D01*
X895169Y763403D02*
Y753560D01*
Y763403D02*
X897555D01*
X898578Y762935*
X899259Y761997*
X899600Y761060*
X899941Y759653*
Y757310*
X899600Y755903*
X899259Y754966*
X898578Y754028*
X897555Y753560*
X895169*
X903009Y757310D02*
X907100D01*
Y758247*
X906759Y759185*
X906419Y759653*
X905737Y760122*
X904714*
X904032Y759653*
X903350Y758716*
X903009Y757310*
Y756372*
X903350Y754966*
X904032Y754028*
X904714Y753560*
X905737*
X906419Y754028*
X907100Y754966*
X913919Y758716D02*
X913578Y759653D01*
X912555Y760122*
X911532*
X910509Y759653*
X910169Y758716*
X910509Y757778*
X911191Y757310*
X912896Y756841*
X913578Y756372*
X913919Y755435*
Y754966*
X913578Y754028*
X912555Y753560*
X911532*
X910509Y754028*
X910169Y754966*
X916987Y763403D02*
X917328Y762935D01*
X917669Y763403*
X917328Y763872*
X916987Y763403*
X917328Y760122D02*
Y753560D01*
X924828Y760122D02*
Y752622D01*
X924487Y751216*
X924146Y750747*
X923464Y750278*
X922441*
X921759Y750747*
X924828Y758716D02*
X924146Y759653D01*
X923464Y760122*
X922441*
X921759Y759653*
X921078Y758716*
X920737Y757310*
Y756372*
X921078Y754966*
X921759Y754028*
X922441Y753560*
X923464*
X924146Y754028*
X924828Y754966*
X927896Y760122D02*
Y753560D01*
Y758247D02*
X928919Y759653D01*
X929600Y760122*
X930623*
X931305Y759653*
X931646Y758247*
Y753560*
X934714Y757310D02*
X938805D01*
Y758247*
X938464Y759185*
X938123Y759653*
X937441Y760122*
X936419*
X935737Y759653*
X935055Y758716*
X934714Y757310*
Y756372*
X935055Y754966*
X935737Y754028*
X936419Y753560*
X937441*
X938123Y754028*
X938805Y754966*
X945964Y763403D02*
Y753560D01*
Y758716D02*
X945282Y759653D01*
X944600Y760122*
X943578*
X942896Y759653*
X942214Y758716*
X941873Y757310*
Y756372*
X942214Y754966*
X942896Y754028*
X943578Y753560*
X944600*
X945282Y754028*
X945964Y754966*
X956873Y763403D02*
Y753560D01*
Y763403D02*
X959941D01*
X960964Y762935*
X961305Y762466*
X961646Y761528*
Y760591*
X961305Y759653*
X960964Y759185*
X959941Y758716*
X956873D02*
X959941D01*
X960964Y758247*
X961305Y757778*
X961646Y756841*
Y755435*
X961305Y754497*
X960964Y754028*
X959941Y753560*
X956873*
X965055Y760122D02*
X967100Y753560D01*
X969146Y760122D02*
X967100Y753560D01*
X966419Y751685*
X965737Y750747*
X965055Y750278*
X964714*
X972555Y760122D02*
X972214Y759653D01*
X972555Y759185*
X972896Y759653*
X972555Y760122*
Y754497D02*
X972214Y754028D01*
X972555Y753560*
X972896Y754028*
X972555Y754497*
X983805Y763403D02*
X985509Y753560D01*
X987214Y763403D02*
X985509Y753560D01*
X987214Y763403D02*
X988919Y753560D01*
X990623Y763403D02*
X988919Y753560D01*
X993691Y763403D02*
X994032Y762935D01*
X994373Y763403*
X994032Y763872*
X993691Y763403*
X994032Y760122D02*
Y753560D01*
X997441Y763403D02*
Y753560D01*
X1000509Y763403D02*
Y753560D01*
X1005282Y760122D02*
X1004600Y759653D01*
X1003919Y758716*
X1003578Y757310*
Y756372*
X1003919Y754966*
X1004600Y754028*
X1005282Y753560*
X1006305*
X1006987Y754028*
X1007669Y754966*
X1008009Y756372*
Y757310*
X1007669Y758716*
X1006987Y759653*
X1006305Y760122*
X1005282*
X1011078D02*
X1012441Y753560D01*
X1013805Y760122D02*
X1012441Y753560D01*
X1013805Y760122D02*
X1015169Y753560D01*
X1016532Y760122D02*
X1015169Y753560D01*
X1032214Y761997D02*
X1031532Y762935D01*
X1030509Y763403*
X1029146*
X1028123Y762935*
X1027441Y761997*
Y761060*
X1027782Y760122*
X1028123Y759653*
X1028805Y759185*
X1030850Y758247*
X1031532Y757778*
X1031873Y757310*
X1032214Y756372*
Y754966*
X1031532Y754028*
X1030509Y753560*
X1029146*
X1028123Y754028*
X1027441Y754966*
X1035282Y760122D02*
Y750278D01*
Y758716D02*
X1035964Y759653D01*
X1036646Y760122*
X1037669*
X1038350Y759653*
X1039032Y758716*
X1039373Y757310*
Y756372*
X1039032Y754966*
X1038350Y754028*
X1037669Y753560*
X1036646*
X1035964Y754028*
X1035282Y754966*
X1042441Y760122D02*
Y753560D01*
Y757310D02*
X1042782Y758716D01*
X1043464Y759653*
X1044146Y760122*
X1045169*
X1048237Y763403D02*
X1048578Y762935D01*
X1048919Y763403*
X1048578Y763872*
X1048237Y763403*
X1048578Y760122D02*
Y753560D01*
X1051987Y760122D02*
Y753560D01*
Y758247D02*
X1053009Y759653D01*
X1053691Y760122*
X1054714*
X1055396Y759653*
X1055737Y758247*
Y753560*
X1062896Y760122D02*
Y752622D01*
X1062555Y751216*
X1062214Y750747*
X1061532Y750278*
X1060509*
X1059828Y750747*
X1062896Y758716D02*
X1062214Y759653D01*
X1061532Y760122*
X1060509*
X1059828Y759653*
X1059146Y758716*
X1058805Y757310*
Y756372*
X1059146Y754966*
X1059828Y754028*
X1060509Y753560*
X1061532*
X1062214Y754028*
X1062896Y754966*
X1076191Y763403D02*
Y753560D01*
X1073805Y763403D02*
X1078578D01*
X1081646Y757310D02*
X1085737D01*
Y758247*
X1085396Y759185*
X1085055Y759653*
X1084373Y760122*
X1083350*
X1082669Y759653*
X1081987Y758716*
X1081646Y757310*
Y756372*
X1081987Y754966*
X1082669Y754028*
X1083350Y753560*
X1084373*
X1085055Y754028*
X1085737Y754966*
X1092896Y758716D02*
X1092214Y759653D01*
X1091532Y760122*
X1090509*
X1089828Y759653*
X1089146Y758716*
X1088805Y757310*
Y756372*
X1089146Y754966*
X1089828Y754028*
X1090509Y753560*
X1091532*
X1092214Y754028*
X1092896Y754966*
X1095964Y763403D02*
Y753560D01*
Y758247D02*
X1096987Y759653D01*
X1097669Y760122*
X1098691*
X1099373Y759653*
X1099714Y758247*
Y753560*
X1102782Y760122D02*
Y753560D01*
Y758247D02*
X1103805Y759653D01*
X1104487Y760122*
X1105509*
X1106191Y759653*
X1106532Y758247*
Y753560*
X1109600Y763403D02*
X1109941Y762935D01*
X1110282Y763403*
X1109941Y763872*
X1109600Y763403*
X1109941Y760122D02*
Y753560D01*
X1117441Y758716D02*
X1116759Y759653D01*
X1116078Y760122*
X1115055*
X1114373Y759653*
X1113691Y758716*
X1113350Y757310*
Y756372*
X1113691Y754966*
X1114373Y754028*
X1115055Y753560*
X1116078*
X1116759Y754028*
X1117441Y754966*
X1124600Y760122D02*
Y753560D01*
Y758716D02*
X1123919Y759653D01*
X1123237Y760122*
X1122214*
X1121532Y759653*
X1120850Y758716*
X1120509Y757310*
Y756372*
X1120850Y754966*
X1121532Y754028*
X1122214Y753560*
X1123237*
X1123919Y754028*
X1124600Y754966*
X1127669Y763403D02*
Y753560D01*
X1143350Y761997D02*
X1142669Y762935D01*
X1141646Y763403*
X1140282*
X1139259Y762935*
X1138578Y761997*
Y761060*
X1138919Y760122*
X1139259Y759653*
X1139941Y759185*
X1141987Y758247*
X1142669Y757778*
X1143009Y757310*
X1143350Y756372*
Y754966*
X1142669Y754028*
X1141646Y753560*
X1140282*
X1139259Y754028*
X1138578Y754966*
X1146419Y757310D02*
X1150509D01*
Y758247*
X1150169Y759185*
X1149828Y759653*
X1149146Y760122*
X1148123*
X1147441Y759653*
X1146759Y758716*
X1146419Y757310*
Y756372*
X1146759Y754966*
X1147441Y754028*
X1148123Y753560*
X1149146*
X1149828Y754028*
X1150509Y754966*
X1153578Y760122D02*
Y753560D01*
Y757310D02*
X1153919Y758716D01*
X1154600Y759653*
X1155282Y760122*
X1156305*
X1159373D02*
X1161419Y753560D01*
X1163464Y760122D02*
X1161419Y753560D01*
X1166532Y763403D02*
X1166873Y762935D01*
X1167214Y763403*
X1166873Y763872*
X1166532Y763403*
X1166873Y760122D02*
Y753560D01*
X1174373Y758716D02*
X1173691Y759653D01*
X1173009Y760122*
X1171987*
X1171305Y759653*
X1170623Y758716*
X1170282Y757310*
Y756372*
X1170623Y754966*
X1171305Y754028*
X1171987Y753560*
X1173009*
X1173691Y754028*
X1174373Y754966*
X1177441Y757310D02*
X1181532D01*
Y758247*
X1181191Y759185*
X1180850Y759653*
X1180169Y760122*
X1179146*
X1178464Y759653*
X1177782Y758716*
X1177441Y757310*
Y756372*
X1177782Y754966*
X1178464Y754028*
X1179146Y753560*
X1180169*
X1180850Y754028*
X1181532Y754966*
X1188350Y758716D02*
X1188009Y759653D01*
X1186987Y760122*
X1185964*
X1184941Y759653*
X1184600Y758716*
X1184941Y757778*
X1185623Y757310*
X1187328Y756841*
X1188009Y756372*
X1188350Y755435*
Y754966*
X1188009Y754028*
X1186987Y753560*
X1185964*
X1184941Y754028*
X1184600Y754966*
X1204373Y761060D02*
X1204032Y761997D01*
X1203350Y762935*
X1202669Y763403*
X1201305*
X1200623Y762935*
X1199941Y761997*
X1199600Y761060*
X1199259Y759653*
Y757310*
X1199600Y755903*
X1199941Y754966*
X1200623Y754028*
X1201305Y753560*
X1202669*
X1203350Y754028*
X1204032Y754966*
X1204373Y755903*
X1209146Y760122D02*
X1208464Y759653D01*
X1207782Y758716*
X1207441Y757310*
Y756372*
X1207782Y754966*
X1208464Y754028*
X1209146Y753560*
X1210169*
X1210850Y754028*
X1211532Y754966*
X1211873Y756372*
Y757310*
X1211532Y758716*
X1210850Y759653*
X1210169Y760122*
X1209146*
X1214941D02*
Y753560D01*
Y757310D02*
X1215282Y758716D01*
X1215964Y759653*
X1216646Y760122*
X1217669*
X1220737D02*
Y750278D01*
Y758716D02*
X1221419Y759653D01*
X1222100Y760122*
X1223123*
X1223805Y759653*
X1224487Y758716*
X1224828Y757310*
Y756372*
X1224487Y754966*
X1223805Y754028*
X1223123Y753560*
X1222100*
X1221419Y754028*
X1220737Y754966*
X1228237Y754497D02*
X1227896Y754028D01*
X1228237Y753560*
X1228578Y754028*
X1228237Y754497*
X906682Y665513D02*
Y652387D01*
X903500Y665513D02*
X909864D01*
X913955D02*
Y652387D01*
Y665513D02*
X919864D01*
X913955Y659262D02*
X917591D01*
X913955Y652387D02*
X919864D01*
X923955Y665513D02*
X930318Y652387D01*
Y665513D02*
X923955Y652387D01*
X934864Y653637D02*
X934409Y653012D01*
X934409D02*
X934864Y652387D01*
X934864D02*
X935318Y653012D01*
X935318D02*
X934864Y653637D01*
X942136Y665513D02*
X940773Y664888D01*
X940773D02*
X939864Y663013D01*
X939864D02*
X939409Y659887D01*
X939409D02*
Y658012D01*
X939409D02*
X939864Y654887D01*
X939864D02*
X940773Y653012D01*
X940773D02*
X942136Y652387D01*
X942136D02*
X943045D01*
X943045D02*
X944409Y653012D01*
X944409D02*
X945318Y654887D01*
X945318D02*
X945773Y658012D01*
X945773D02*
Y659887D01*
X945773D02*
X945318Y663013D01*
X945318D02*
X944409Y664888D01*
X944409D02*
X943045Y665513D01*
X943045D02*
X942136D01*
X952591D02*
X951227Y664888D01*
X951227D02*
X950318Y663013D01*
X950318D02*
X949864Y659887D01*
X949864D02*
Y658012D01*
X949864D02*
X950318Y654887D01*
X950318D02*
X951227Y653012D01*
X951227D02*
X952591Y652387D01*
X952591D02*
X953500D01*
X953500D02*
X954864Y653012D01*
X954864D02*
X955773Y654887D01*
X955773D02*
X956227Y658012D01*
X956227D02*
Y659887D01*
X956227D02*
X955773Y663013D01*
X955773D02*
X954864Y664888D01*
X954864D02*
X953500Y665513D01*
X953500D02*
X952591D01*
X960773Y662388D02*
Y663013D01*
X960773D02*
X961227Y664263D01*
X961227D02*
X961682Y664888D01*
X961682D02*
X962591Y665513D01*
X962591D02*
X964409D01*
X964409D02*
X965318Y664888D01*
X965318D02*
X965773Y664263D01*
X965773D02*
X966227Y663013D01*
X966227D02*
Y661763D01*
X966227D02*
X965773Y660513D01*
X965773D02*
X964864Y658637D01*
X964864D02*
X960318Y652387D01*
X960318D02*
X966682D01*
X1260727Y835044D02*
X1258000Y825200D01*
X1260727Y835044D02*
X1263455Y825200D01*
X1259023Y828481D02*
X1262432D01*
X1266523Y831763D02*
Y825200D01*
Y828950D02*
X1266864Y830356D01*
X1267545Y831294*
X1268227Y831763*
X1268227D02*
X1269250D01*
X1273341Y835044D02*
Y827075D01*
X1273682Y825669*
X1274364Y825200*
X1275045*
X1272318Y831763D02*
X1274705D01*
X1278114D02*
X1279477Y825200D01*
X1280841Y831763D02*
X1279477Y825200D01*
X1280841Y831763D02*
X1282205Y825200D01*
X1283568Y831763D02*
X1282205Y825200D01*
X1288341Y831763D02*
X1287659Y831294D01*
X1286977Y830356*
X1286636Y828950*
Y828013*
X1286636D02*
X1286977Y826606D01*
X1287659Y825669*
X1288341Y825200*
X1289364*
X1290045Y825669*
X1290727Y826606*
X1291068Y828013*
X1291068D02*
Y828950D01*
X1290727Y830356*
X1290045Y831294*
X1289364Y831763*
X1289364D02*
X1288341D01*
X1294136D02*
Y825200D01*
Y828950D02*
X1294477Y830356D01*
X1295159Y831294*
X1295841Y831763*
X1295841D02*
X1296864D01*
X1299932Y835044D02*
Y825200D01*
X1303341Y831763D02*
X1299932Y827075D01*
X1301295Y828950D02*
X1303682Y825200D01*
X1314591Y835044D02*
Y825200D01*
Y835044D02*
X1316977D01*
X1318000Y834575*
X1318682Y833638*
X1318682D02*
X1319023Y832700D01*
X1319364Y831294*
Y828950*
X1319023Y827544*
X1318682Y826606*
X1318000Y825669*
X1316977Y825200*
X1314591*
X1322432Y828950D02*
X1326523D01*
Y829888*
X1326523D02*
X1326182Y830825D01*
X1325841Y831294*
X1325159Y831763*
X1325159D02*
X1324136D01*
X1324136D02*
X1323455Y831294D01*
X1322773Y830356*
X1322432Y828950*
Y828013*
X1322432D02*
X1322773Y826606D01*
X1323455Y825669*
X1324136Y825200*
X1325159*
X1325841Y825669*
X1326523Y826606*
X1333341Y830356D02*
X1333000Y831294D01*
X1331977Y831763*
X1331977D02*
X1330955D01*
X1330955D02*
X1329932Y831294D01*
X1329591Y830356*
X1329932Y829419*
X1330614Y828950*
X1332318Y828481*
X1333000Y828013*
X1333000D02*
X1333341Y827075D01*
Y826606*
X1333000Y825669*
X1331977Y825200*
X1330955*
X1329932Y825669*
X1329591Y826606*
X1336409Y835044D02*
X1336750Y834575D01*
X1337091Y835044*
X1336750Y835513*
X1336750D02*
X1336409Y835044D01*
X1336750Y831763D02*
Y825200D01*
X1344250Y831763D02*
Y824262D01*
X1344250D02*
X1343909Y822856D01*
X1343568Y822387*
X1343568D02*
X1342886Y821919D01*
X1341864*
X1341182Y822387*
X1344250Y830356D02*
X1343568Y831294D01*
X1342886Y831763*
X1342886D02*
X1341864D01*
X1341864D02*
X1341182Y831294D01*
X1340500Y830356*
X1340159Y828950*
Y828013*
X1340159D02*
X1340500Y826606D01*
X1341182Y825669*
X1341864Y825200*
X1342886*
X1343568Y825669*
X1344250Y826606*
X1347318Y831763D02*
Y825200D01*
Y829888D02*
X1348341Y831294D01*
X1349023Y831763*
X1349023D02*
X1350045D01*
X1350045D02*
X1350727Y831294D01*
X1351068Y829888*
X1351068D02*
Y825200D01*
X1354136Y828950D02*
X1358227D01*
Y829888*
X1358227D02*
X1357886Y830825D01*
X1357545Y831294*
X1356864Y831763*
X1356864D02*
X1355841D01*
X1355841D02*
X1355159Y831294D01*
X1354477Y830356*
X1354136Y828950*
Y828013*
X1354136D02*
X1354477Y826606D01*
X1355159Y825669*
X1355841Y825200*
X1356864*
X1357545Y825669*
X1358227Y826606*
X1365386Y835044D02*
Y825200D01*
Y830356D02*
X1364705Y831294D01*
X1364023Y831763*
X1364023D02*
X1363000D01*
X1363000D02*
X1362318Y831294D01*
X1361636Y830356*
X1361295Y828950*
Y828013*
X1361295D02*
X1361636Y826606D01*
X1362318Y825669*
X1363000Y825200*
X1364023*
X1364705Y825669*
X1365386Y826606*
X1376295Y835044D02*
Y825200D01*
Y835044D02*
X1380727D01*
X1376295Y830356D02*
X1379023D01*
X1385500Y831763D02*
X1384818Y831294D01*
X1384136Y830356*
X1383795Y828950*
Y828013*
X1383795D02*
X1384136Y826606D01*
X1384818Y825669*
X1385500Y825200*
X1386523*
X1387205Y825669*
X1387886Y826606*
X1388227Y828013*
X1388227D02*
Y828950D01*
X1387886Y830356*
X1387205Y831294*
X1386523Y831763*
X1386523D02*
X1385500D01*
X1391295D02*
Y825200D01*
Y828950D02*
X1391636Y830356D01*
X1392318Y831294*
X1393000Y831763*
X1393000D02*
X1394023D01*
X1397432D02*
X1397091Y831294D01*
X1397432Y830825*
X1397773Y831294*
X1397432Y831763*
Y826138D02*
X1397091Y825669D01*
X1397432Y825200*
X1397773Y825669*
X1397432Y826138*
X1258000Y780044D02*
Y770200D01*
Y780044D02*
X1261068D01*
X1262091Y779575*
X1262432Y779106*
X1262773Y778169*
Y777231*
X1262432Y776294*
X1262091Y775825*
X1261068Y775356*
X1258000D02*
X1261068D01*
X1262091Y774888*
X1262091D02*
X1262432Y774419D01*
X1262773Y773481*
Y772075*
X1262432Y771138*
X1262432D02*
X1262091Y770669D01*
X1261068Y770200*
X1258000*
X1267545Y776763D02*
X1266864Y776294D01*
X1266182Y775356*
X1265841Y773950*
Y773013*
X1265841D02*
X1266182Y771606D01*
X1266864Y770669*
X1267545Y770200*
X1268568*
X1269250Y770669*
X1269932Y771606*
X1270273Y773013*
X1270273D02*
Y773950D01*
X1269932Y775356*
X1269250Y776294*
X1268568Y776763*
X1268568D02*
X1267545D01*
X1277432D02*
Y770200D01*
Y775356D02*
X1276750Y776294D01*
X1276068Y776763*
X1276068D02*
X1275045D01*
X1275045D02*
X1274364Y776294D01*
X1273682Y775356*
X1273341Y773950*
Y773013*
X1273341D02*
X1273682Y771606D01*
X1274364Y770669*
X1275045Y770200*
X1276068*
X1276750Y770669*
X1277432Y771606*
X1280500Y776763D02*
Y770200D01*
Y773950D02*
X1280841Y775356D01*
X1281523Y776294*
X1282205Y776763*
X1282205D02*
X1283227D01*
X1290386Y780044D02*
Y770200D01*
Y775356D02*
X1289705Y776294D01*
X1289023Y776763*
X1289023D02*
X1288000D01*
X1288000D02*
X1287318Y776294D01*
X1286636Y775356*
X1286295Y773950*
Y773013*
X1286295D02*
X1286636Y771606D01*
X1287318Y770669*
X1288000Y770200*
X1289023*
X1289705Y770669*
X1290386Y771606*
X1301295Y780044D02*
Y770200D01*
Y780044D02*
X1303682D01*
X1304705Y779575*
X1305386Y778638*
X1305386D02*
X1305727Y777700D01*
X1306068Y776294*
Y773950*
X1305727Y772544*
X1305386Y771606*
X1304705Y770669*
X1303682Y770200*
X1301295*
X1309136Y773950D02*
X1313227D01*
Y774888*
X1313227D02*
X1312886Y775825D01*
X1312545Y776294*
X1311864Y776763*
X1311864D02*
X1310841D01*
X1310841D02*
X1310159Y776294D01*
X1309477Y775356*
X1309136Y773950*
Y773013*
X1309136D02*
X1309477Y771606D01*
X1310159Y770669*
X1310841Y770200*
X1311864*
X1312545Y770669*
X1313227Y771606*
X1320045Y775356D02*
X1319705Y776294D01*
X1318682Y776763*
X1318682D02*
X1317659D01*
X1317659D02*
X1316636Y776294D01*
X1316295Y775356*
X1316636Y774419*
X1317318Y773950*
X1319023Y773481*
X1319705Y773013*
X1319705D02*
X1320045Y772075D01*
Y771606*
X1319705Y770669*
X1318682Y770200*
X1317659*
X1316636Y770669*
X1316295Y771606*
X1327205Y775356D02*
X1326523Y776294D01*
X1325841Y776763*
X1325841D02*
X1324818D01*
X1324818D02*
X1324136Y776294D01*
X1323455Y775356*
X1323114Y773950*
Y773013*
X1323114D02*
X1323455Y771606D01*
X1324136Y770669*
X1324818Y770200*
X1325841*
X1326523Y770669*
X1327205Y771606*
X1330273Y776763D02*
Y770200D01*
Y773950D02*
X1330614Y775356D01*
X1331295Y776294*
X1331977Y776763*
X1331977D02*
X1333000D01*
X1336068Y780044D02*
X1336409Y779575D01*
X1336750Y780044*
X1336409Y780513*
X1336409D02*
X1336068Y780044D01*
X1336409Y776763D02*
Y770200D01*
X1339818Y776763D02*
Y766919D01*
Y775356D02*
X1340500Y776294D01*
X1341182Y776763*
X1341182D02*
X1342205D01*
X1342205D02*
X1342886Y776294D01*
X1343568Y775356*
X1343909Y773950*
Y773013*
X1343909D02*
X1343568Y771606D01*
X1342886Y770669*
X1342205Y770200*
X1341182*
X1340500Y770669*
X1339818Y771606*
X1348000Y780044D02*
Y772075D01*
X1348341Y770669*
X1349023Y770200*
X1349705*
X1346977Y776763D02*
X1349364D01*
X1352773Y780044D02*
X1353114Y779575D01*
X1353455Y780044*
X1353114Y780513*
X1353114D02*
X1352773Y780044D01*
X1353114Y776763D02*
Y770200D01*
X1358227Y776763D02*
X1357545Y776294D01*
X1356864Y775356*
X1356523Y773950*
Y773013*
X1356523D02*
X1356864Y771606D01*
X1357545Y770669*
X1358227Y770200*
X1359250*
X1359932Y770669*
X1360614Y771606*
X1360955Y773013*
X1360955D02*
Y773950D01*
X1360614Y775356*
X1359932Y776294*
X1359250Y776763*
X1359250D02*
X1358227D01*
X1364023D02*
Y770200D01*
Y774888D02*
X1365045Y776294D01*
X1365727Y776763*
X1365727D02*
X1366750D01*
X1366750D02*
X1367432Y776294D01*
X1367773Y774888*
X1367773D02*
Y770200D01*
X1371182Y776763D02*
X1370841Y776294D01*
X1371182Y775825*
X1371523Y776294*
X1371182Y776763*
Y771138D02*
X1370841Y770669D01*
X1371182Y770200*
X1371523Y770669*
X1371182Y771138*
X1258000Y710044D02*
Y700200D01*
Y710044D02*
X1261068D01*
X1262091Y709575*
X1262432Y709106*
X1262773Y708169*
Y706763*
X1262773D02*
X1262432Y705825D01*
X1262091Y705356*
X1261068Y704888*
X1261068D02*
X1258000D01*
X1269932Y706763D02*
Y700200D01*
Y705356D02*
X1269250Y706294D01*
X1268568Y706763*
X1268568D02*
X1267545D01*
X1267545D02*
X1266864Y706294D01*
X1266182Y705356*
X1265841Y703950*
Y703013*
X1265841D02*
X1266182Y701606D01*
X1266864Y700669*
X1267545Y700200*
X1268568*
X1269250Y700669*
X1269932Y701606*
X1273000Y706763D02*
Y700200D01*
Y703950D02*
X1273341Y705356D01*
X1274023Y706294*
X1274705Y706763*
X1274705D02*
X1275727D01*
X1279818Y710044D02*
Y702075D01*
X1280159Y700669*
X1280841Y700200*
X1281523*
X1278795Y706763D02*
X1281182D01*
X1292432Y710044D02*
Y700200D01*
Y710044D02*
X1297205Y700200D01*
Y710044D02*
Y700200D01*
X1301977Y706763D02*
X1301295Y706294D01*
X1300614Y705356*
X1300273Y703950*
Y703013*
X1300273D02*
X1300614Y701606D01*
X1301295Y700669*
X1301977Y700200*
X1303000*
X1303682Y700669*
X1304364Y701606*
X1304705Y703013*
X1304705D02*
Y703950D01*
X1304364Y705356*
X1303682Y706294*
X1303000Y706763*
X1303000D02*
X1301977D01*
X1308114D02*
X1307773Y706294D01*
X1308114Y705825*
X1308455Y706294*
X1308114Y706763*
Y701138D02*
X1307773Y700669D01*
X1308114Y700200*
X1308455Y700669*
X1308114Y701138*
X1558000Y710044D02*
Y700200D01*
Y710044D02*
X1561068D01*
X1562091Y709575*
X1562432Y709106*
X1562773Y708169*
Y707231*
X1562432Y706294*
X1562091Y705825*
X1561068Y705356*
X1558000*
X1560386D02*
X1562773Y700200D01*
X1565841Y703950D02*
X1569932D01*
Y704888*
X1569932D02*
X1569591Y705825D01*
X1569250Y706294*
X1568568Y706763*
X1568568D02*
X1567545D01*
X1567545D02*
X1566864Y706294D01*
X1566182Y705356*
X1565841Y703950*
Y703013*
X1565841D02*
X1566182Y701606D01*
X1566864Y700669*
X1567545Y700200*
X1568568*
X1569250Y700669*
X1569932Y701606*
X1573000Y706763D02*
X1575045Y700200D01*
X1577091Y706763D02*
X1575045Y700200D01*
X1580159Y710044D02*
X1580500Y709575D01*
X1580841Y710044*
X1580500Y710513*
X1580500D02*
X1580159Y710044D01*
X1580500Y706763D02*
Y700200D01*
X1587659Y705356D02*
X1587318Y706294D01*
X1586295Y706763*
X1586295D02*
X1585273D01*
X1585273D02*
X1584250Y706294D01*
X1583909Y705356*
X1584250Y704419*
X1584932Y703950*
X1586636Y703481*
X1587318Y703013*
X1587318D02*
X1587659Y702075D01*
Y701606*
X1587318Y700669*
X1586295Y700200*
X1585273*
X1584250Y700669*
X1583909Y701606*
X1590727Y710044D02*
X1591068Y709575D01*
X1591409Y710044*
X1591068Y710513*
X1591068D02*
X1590727Y710044D01*
X1591068Y706763D02*
Y700200D01*
X1596182Y706763D02*
X1595500Y706294D01*
X1594818Y705356*
X1594477Y703950*
Y703013*
X1594477D02*
X1594818Y701606D01*
X1595500Y700669*
X1596182Y700200*
X1597205*
X1597886Y700669*
X1598568Y701606*
X1598909Y703013*
X1598909D02*
Y703950D01*
X1598568Y705356*
X1597886Y706294*
X1597205Y706763*
X1597205D02*
X1596182D01*
X1601977D02*
Y700200D01*
Y704888D02*
X1603000Y706294D01*
X1603682Y706763*
X1603682D02*
X1604705D01*
X1604705D02*
X1605386Y706294D01*
X1605727Y704888*
X1605727D02*
Y700200D01*
X1609136Y706763D02*
X1608795Y706294D01*
X1609136Y705825*
X1609477Y706294*
X1609136Y706763*
Y701138D02*
X1608795Y700669D01*
X1609136Y700200*
X1609477Y700669*
X1609136Y701138*
X1353000Y698325D02*
Y685200D01*
Y698325D02*
X1358909D01*
X1353000Y692075D02*
X1356636D01*
X1363455Y695200D02*
Y695825D01*
X1363909Y697075*
X1364364Y697700*
X1365273Y698325*
X1367091*
X1368000Y697700*
X1368455Y697075*
X1368909Y695825*
Y694575*
X1368455Y693325*
X1367545Y691450*
X1363000Y685200*
X1369364*
X1375727Y698325D02*
X1374364Y697700D01*
X1373909Y696450*
Y695200*
X1374364Y693950*
X1375273Y693325*
X1377091Y692700*
X1378455Y692075*
X1379364Y690825*
X1379818Y689575*
Y687700*
X1379364Y686450*
X1378909Y685825*
X1377545Y685200*
X1375727*
X1374364Y685825*
X1373909Y686450*
X1373455Y687700*
Y689575*
X1373909Y690825*
X1374818Y692075*
X1376182Y692700*
X1378000Y693325*
X1378909Y693950*
X1379364Y695200*
Y696450*
X1378909Y697700*
X1377545Y698325*
X1375727*
X1386636D02*
X1385273Y697700D01*
X1384364Y695825*
X1383909Y692700*
Y690825*
X1384364Y687700*
X1385273Y685825*
X1386636Y685200*
X1387545*
X1388909Y685825*
X1389818Y687700*
X1390273Y690825*
Y692700*
X1389818Y695825*
X1388909Y697700*
X1387545Y698325*
X1386636*
X1395273D02*
X1400273D01*
X1397545Y693325*
X1398909*
X1399818Y692700*
X1400273Y692075*
X1400727Y690200*
Y688950*
X1400273Y687075*
X1399364Y685825*
X1398000Y685200*
X1396636*
X1395273Y685825*
X1394818Y686450*
X1394364Y687700*
X1404818Y693950D02*
X1409818Y685200D01*
Y693950D02*
X1404818Y685200D01*
X1629727Y699813D02*
X1630636Y700438D01*
X1630636D02*
X1632000Y702313D01*
X1632000D02*
Y689187D01*
X1636545Y690437D02*
X1636091Y689812D01*
X1636091D02*
X1636545Y689187D01*
X1636545D02*
X1637000Y689812D01*
X1637000D02*
X1636545Y690437D01*
X1643818Y702313D02*
X1642455Y701688D01*
X1642455D02*
X1641545Y699813D01*
X1641545D02*
X1641091Y696687D01*
X1641091D02*
Y694812D01*
X1641091D02*
X1641545Y691687D01*
X1641545D02*
X1642455Y689812D01*
X1642455D02*
X1643818Y689187D01*
X1643818D02*
X1644727D01*
X1644727D02*
X1646091Y689812D01*
X1646091D02*
X1647000Y691687D01*
X1647000D02*
X1647455Y694812D01*
X1647455D02*
Y696687D01*
X1647455D02*
X1647000Y699813D01*
X1647000D02*
X1646091Y701688D01*
X1646091D02*
X1644727Y702313D01*
X1644727D02*
X1643818D01*
X1399545Y810513D02*
Y797387D01*
X1396364Y810513D02*
X1402727D01*
X1406818Y802387D02*
X1412273D01*
X1412273D02*
Y803637D01*
X1412273D02*
X1411818Y804887D01*
X1411818D02*
X1411364Y805513D01*
X1411364D02*
X1410455Y806138D01*
X1410455D02*
X1409091D01*
X1409091D02*
X1408182Y805513D01*
X1408182D02*
X1407273Y804262D01*
X1407273D02*
X1406818Y802387D01*
X1406818D02*
Y801137D01*
X1406818D02*
X1407273Y799262D01*
X1407273D02*
X1408182Y798012D01*
X1408182D02*
X1409091Y797387D01*
X1409091D02*
X1410455D01*
X1410455D02*
X1411364Y798012D01*
X1411364D02*
X1412273Y799262D01*
X1416364Y806138D02*
X1421364Y797387D01*
Y806138D02*
X1416364Y797387D01*
X1430909Y806138D02*
Y797387D01*
Y804262D02*
X1430000Y805513D01*
X1430000D02*
X1429091Y806138D01*
X1429091D02*
X1427727D01*
X1427727D02*
X1426818Y805513D01*
X1426818D02*
X1425909Y804262D01*
X1425909D02*
X1425455Y802387D01*
X1425455D02*
Y801137D01*
X1425455D02*
X1425909Y799262D01*
X1425909D02*
X1426818Y798012D01*
X1426818D02*
X1427727Y797387D01*
X1427727D02*
X1429091D01*
X1429091D02*
X1430000Y798012D01*
X1430000D02*
X1430909Y799262D01*
X1440000Y804262D02*
X1439545Y805513D01*
X1439545D02*
X1438182Y806138D01*
X1438182D02*
X1436818D01*
X1436818D02*
X1435455Y805513D01*
X1435455D02*
X1435000Y804262D01*
X1435000D02*
X1435455Y803012D01*
X1435455D02*
X1436364Y802387D01*
X1436364D02*
X1438636Y801762D01*
X1438636D02*
X1439545Y801137D01*
X1439545D02*
X1440000Y799887D01*
X1440000D02*
Y799262D01*
X1440000D02*
X1439545Y798012D01*
X1439545D02*
X1438182Y797387D01*
X1438182D02*
X1436818D01*
X1436818D02*
X1435455Y798012D01*
X1435455D02*
X1435000Y799262D01*
X1454545Y810513D02*
Y797387D01*
X1458636Y806138D02*
Y797387D01*
Y803637D02*
X1460000Y805513D01*
X1460000D02*
X1460909Y806138D01*
X1460909D02*
X1462273D01*
X1462273D02*
X1463182Y805513D01*
X1463182D02*
X1463636Y803637D01*
X1463636D02*
Y797387D01*
X1472727Y804262D02*
X1472273Y805513D01*
X1472273D02*
X1470909Y806138D01*
X1470909D02*
X1469545D01*
X1469545D02*
X1468182Y805513D01*
X1468182D02*
X1467727Y804262D01*
X1467727D02*
X1468182Y803012D01*
X1468182D02*
X1469091Y802387D01*
X1469091D02*
X1471364Y801762D01*
X1471364D02*
X1472273Y801137D01*
X1472273D02*
X1472727Y799887D01*
X1472727D02*
Y799262D01*
X1472727D02*
X1472273Y798012D01*
X1472273D02*
X1470909Y797387D01*
X1470909D02*
X1469545D01*
X1469545D02*
X1468182Y798012D01*
X1468182D02*
X1467727Y799262D01*
X1478182Y810513D02*
Y799887D01*
X1478182D02*
X1478636Y798012D01*
X1478636D02*
X1479545Y797387D01*
X1479545D02*
X1480455D01*
X1476818Y806138D02*
X1480000D01*
X1484545D02*
Y797387D01*
Y802387D02*
X1485000Y804262D01*
X1485000D02*
X1485909Y805513D01*
X1485909D02*
X1486818Y806138D01*
X1486818D02*
X1488182D01*
X1492273D02*
Y799887D01*
X1492273D02*
X1492727Y798012D01*
X1492727D02*
X1493636Y797387D01*
X1493636D02*
X1495000D01*
X1495000D02*
X1495909Y798012D01*
X1495909D02*
X1497273Y799887D01*
Y806138D02*
Y797387D01*
X1501364Y806138D02*
Y797387D01*
Y803637D02*
X1502727Y805513D01*
X1502727D02*
X1503636Y806138D01*
X1503636D02*
X1505000D01*
X1505000D02*
X1505909Y805513D01*
X1505909D02*
X1506364Y803637D01*
X1506364D02*
Y797387D01*
Y803637D02*
X1507727Y805513D01*
X1507727D02*
X1508636Y806138D01*
X1508636D02*
X1510000D01*
X1510000D02*
X1510909Y805513D01*
X1510909D02*
X1511364Y803637D01*
X1511364D02*
Y797387D01*
X1515455Y802387D02*
X1520909D01*
X1520909D02*
Y803637D01*
X1520909D02*
X1520455Y804887D01*
X1520455D02*
X1520000Y805513D01*
X1520000D02*
X1519091Y806138D01*
X1519091D02*
X1517727D01*
X1517727D02*
X1516818Y805513D01*
X1516818D02*
X1515909Y804262D01*
X1515909D02*
X1515455Y802387D01*
X1515455D02*
Y801137D01*
X1515455D02*
X1515909Y799262D01*
X1515909D02*
X1516818Y798012D01*
X1516818D02*
X1517727Y797387D01*
X1517727D02*
X1519091D01*
X1519091D02*
X1520000Y798012D01*
X1520000D02*
X1520909Y799262D01*
X1525000Y806138D02*
Y797387D01*
Y803637D02*
X1526364Y805513D01*
X1526364D02*
X1527273Y806138D01*
X1527273D02*
X1528636D01*
X1528636D02*
X1529545Y805513D01*
X1529545D02*
X1530000Y803637D01*
X1530000D02*
Y797387D01*
X1535455Y810513D02*
Y799887D01*
X1535455D02*
X1535909Y798012D01*
X1535909D02*
X1536818Y797387D01*
X1536818D02*
X1537727D01*
X1534091Y806138D02*
X1537273D01*
X1546818Y804262D02*
X1546364Y805513D01*
X1546364D02*
X1545000Y806138D01*
X1545000D02*
X1543636D01*
X1543636D02*
X1542273Y805513D01*
X1542273D02*
X1541818Y804262D01*
X1541818D02*
X1542273Y803012D01*
X1542273D02*
X1543182Y802387D01*
X1543182D02*
X1545455Y801762D01*
X1545455D02*
X1546364Y801137D01*
X1546364D02*
X1546818Y799887D01*
X1546818D02*
Y799262D01*
X1546818D02*
X1546364Y798012D01*
X1546364D02*
X1545000Y797387D01*
X1545000D02*
X1543636D01*
X1543636D02*
X1542273Y798012D01*
X1542273D02*
X1541818Y799262D01*
X1381850Y749372D02*
Y736247D01*
Y749372D02*
X1387759D01*
X1381850Y743122D02*
X1385487D01*
X1392305Y746247D02*
Y746872D01*
X1392759Y748122*
X1393214Y748747*
X1394123Y749372*
X1395941*
X1396850Y748747*
X1397305Y748122*
X1397759Y746872*
Y745622*
X1397305Y744372*
X1396396Y742497*
X1391850Y736247*
X1398214*
X1404578Y749372D02*
X1403214Y748747D01*
X1402759Y747497*
Y746247*
X1403214Y744997*
X1404123Y744372*
X1405941Y743747*
X1407305Y743122*
X1408214Y741872*
X1408669Y740622*
Y738747*
X1408214Y737497*
X1407759Y736872*
X1406396Y736247*
X1404578*
X1403214Y736872*
X1402759Y737497*
X1402305Y738747*
Y740622*
X1402759Y741872*
X1403669Y743122*
X1405032Y743747*
X1406850Y744372*
X1407759Y744997*
X1408214Y746247*
Y747497*
X1407759Y748747*
X1406396Y749372*
X1404578*
X1415487D02*
X1414123Y748747D01*
X1413214Y746872*
X1412759Y743747*
Y741872*
X1413214Y738747*
X1414123Y736872*
X1415487Y736247*
X1416396*
X1417759Y736872*
X1418669Y738747*
X1419123Y741872*
Y743747*
X1418669Y746872*
X1417759Y748747*
X1416396Y749372*
X1415487*
X1424123D02*
X1429123D01*
X1426396Y744372*
X1427759*
X1428669Y743747*
X1429123Y743122*
X1429578Y741247*
Y739997*
X1429123Y738122*
X1428214Y736872*
X1426850Y736247*
X1425487*
X1424123Y736872*
X1423669Y737497*
X1423214Y738747*
X1433669Y744997D02*
X1438669Y736247D01*
Y744997D02*
X1433669Y736247D01*
X1458669Y743122D02*
X1457759Y744372D01*
X1456850Y744997*
X1455487*
X1454578Y744372*
X1453669Y743122*
X1453214Y741247*
Y739997*
X1453669Y738122*
X1454578Y736872*
X1455487Y736247*
X1456850*
X1457759Y736872*
X1458669Y738122*
X1465032Y744997D02*
X1464123Y744372D01*
X1463214Y743122*
X1462759Y741247*
Y739997*
X1463214Y738122*
X1464123Y736872*
X1465032Y736247*
X1466396*
X1467305Y736872*
X1468214Y738122*
X1468669Y739997*
Y741247*
X1468214Y743122*
X1467305Y744372*
X1466396Y744997*
X1465032*
X1472759D02*
Y736247D01*
Y742497D02*
X1474123Y744372D01*
X1475032Y744997*
X1476396*
X1477305Y744372*
X1477759Y742497*
Y736247*
X1483214Y749372D02*
Y738747D01*
X1483669Y736872*
X1484578Y736247*
X1485487*
X1481850Y744997D02*
X1485032D01*
X1489578D02*
Y736247D01*
Y741247D02*
X1490032Y743122D01*
X1490941Y744372*
X1491850Y744997*
X1493214*
X1499578D02*
X1498669Y744372D01*
X1497759Y743122*
X1497305Y741247*
Y739997*
X1497759Y738122*
X1498669Y736872*
X1499578Y736247*
X1500941*
X1501850Y736872*
X1502759Y738122*
X1503214Y739997*
Y741247*
X1502759Y743122*
X1501850Y744372*
X1500941Y744997*
X1499578*
X1507305Y749372D02*
Y736247D01*
X1518214Y746247D02*
X1517759Y747497D01*
X1516850Y748747*
X1515941Y749372*
X1514123*
X1513214Y748747*
X1512305Y747497*
X1511850Y746247*
X1511396Y744372*
Y741247*
X1511850Y739372*
X1512305Y738122*
X1513214Y736872*
X1514123Y736247*
X1515941*
X1516850Y736872*
X1517759Y738122*
X1518214Y739372*
X1525941Y749372D02*
X1522305Y736247D01*
X1525941Y749372D02*
X1529578Y736247D01*
X1523669Y740622D02*
X1528214D01*
X1533669Y749372D02*
Y736247D01*
Y749372D02*
X1537759D01*
X1539123Y748747*
X1539578Y748122*
X1540032Y746872*
Y745622*
X1539578Y744372*
X1539123Y743747*
X1537759Y743122*
X1533669*
X1536850D02*
X1540032Y736247D01*
X1544123Y749372D02*
Y736247D01*
Y749372D02*
X1547305D01*
X1548669Y748747*
X1549578Y747497*
X1550032Y746247*
X1550487Y744372*
Y741247*
X1550032Y739372*
X1549578Y738122*
X1548669Y736872*
X1547305Y736247*
X1544123*
X1471091Y662578D02*
X1470409Y663516D01*
X1469386Y663984*
X1468023*
X1467000Y663516*
X1466318Y662578*
Y661641*
X1466659Y660703*
X1467000Y660234*
X1467682Y659766*
X1469727Y658828*
X1470409Y658359*
X1470750Y657891*
X1471091Y656953*
Y655547*
X1470409Y654609*
X1469386Y654141*
X1468023*
X1467000Y654609*
X1466318Y655547*
X1474159Y657891D02*
X1478250D01*
Y658828*
X1477909Y659766*
X1477568Y660234*
X1476886Y660703*
X1475864*
X1475182Y660234*
X1474500Y659297*
X1474159Y657891*
Y656953*
X1474500Y655547*
X1475182Y654609*
X1475864Y654141*
X1476886*
X1477568Y654609*
X1478250Y655547*
X1485409Y659297D02*
X1484727Y660234D01*
X1484045Y660703*
X1483023*
X1482341Y660234*
X1481659Y659297*
X1481318Y657891*
Y656953*
X1481659Y655547*
X1482341Y654609*
X1483023Y654141*
X1484045*
X1484727Y654609*
X1485409Y655547*
X1490182Y660703D02*
X1489500Y660234D01*
X1488818Y659297*
X1488477Y657891*
Y656953*
X1488818Y655547*
X1489500Y654609*
X1490182Y654141*
X1491205*
X1491886Y654609*
X1492568Y655547*
X1492909Y656953*
Y657891*
X1492568Y659297*
X1491886Y660234*
X1491205Y660703*
X1490182*
X1495977D02*
Y654141D01*
Y658828D02*
X1497000Y660234D01*
X1497682Y660703*
X1498705*
X1499386Y660234*
X1499727Y658828*
Y654141*
X1506886Y663984D02*
Y654141D01*
Y659297D02*
X1506205Y660234D01*
X1505523Y660703*
X1504500*
X1503818Y660234*
X1503136Y659297*
X1502795Y657891*
Y656953*
X1503136Y655547*
X1503818Y654609*
X1504500Y654141*
X1505523*
X1506205Y654609*
X1506886Y655547*
X1514045Y660703D02*
Y654141D01*
Y659297D02*
X1513364Y660234D01*
X1512682Y660703*
X1511659*
X1510977Y660234*
X1510295Y659297*
X1509955Y657891*
Y656953*
X1510295Y655547*
X1510977Y654609*
X1511659Y654141*
X1512682*
X1513364Y654609*
X1514045Y655547*
X1517114Y660703D02*
Y654141D01*
Y657891D02*
X1517455Y659297D01*
X1518136Y660234*
X1518818Y660703*
X1519841*
X1523250D02*
X1525295Y654141D01*
X1527341Y660703D02*
X1525295Y654141D01*
X1524614Y652266*
X1523932Y651328*
X1523250Y650859*
X1522909*
X1543023Y662578D02*
X1542341Y663516D01*
X1541318Y663984*
X1539955*
X1538932Y663516*
X1538250Y662578*
Y661641*
X1538591Y660703*
X1538932Y660234*
X1539614Y659766*
X1541659Y658828*
X1542341Y658359*
X1542682Y657891*
X1543023Y656953*
Y655547*
X1542341Y654609*
X1541318Y654141*
X1539955*
X1538932Y654609*
X1538250Y655547*
X1546091Y663984D02*
X1546432Y663516D01*
X1546773Y663984*
X1546432Y664453*
X1546091Y663984*
X1546432Y660703D02*
Y654141D01*
X1553932Y663984D02*
Y654141D01*
Y659297D02*
X1553250Y660234D01*
X1552568Y660703*
X1551545*
X1550864Y660234*
X1550182Y659297*
X1549841Y657891*
Y656953*
X1550182Y655547*
X1550864Y654609*
X1551545Y654141*
X1552568*
X1553250Y654609*
X1553932Y655547*
X1557000Y657891D02*
X1561091D01*
Y658828*
X1560750Y659766*
X1560409Y660234*
X1559727Y660703*
X1558705*
X1558023Y660234*
X1557341Y659297*
X1557000Y657891*
Y656953*
X1557341Y655547*
X1558023Y654609*
X1558705Y654141*
X1559727*
X1560409Y654609*
X1561091Y655547*
X1576773Y662578D02*
X1576091Y663516D01*
X1575068Y663984*
X1573705*
X1572682Y663516*
X1572000Y662578*
Y661641*
X1572341Y660703*
X1572682Y660234*
X1573364Y659766*
X1575409Y658828*
X1576091Y658359*
X1576432Y657891*
X1576773Y656953*
Y655547*
X1576091Y654609*
X1575068Y654141*
X1573705*
X1572682Y654609*
X1572000Y655547*
X1579841Y663984D02*
X1580182Y663516D01*
X1580523Y663984*
X1580182Y664453*
X1579841Y663984*
X1580182Y660703D02*
Y654141D01*
X1583591Y663984D02*
Y654141D01*
X1586659Y663984D02*
Y654141D01*
X1590068Y660703D02*
X1586659Y656016D01*
X1588023Y657891D02*
X1590409Y654141D01*
X1597227Y659297D02*
X1596886Y660234D01*
X1595864Y660703*
X1594841*
X1593818Y660234*
X1593477Y659297*
X1593818Y658359*
X1594500Y657891*
X1596205Y657422*
X1596886Y656953*
X1597227Y656016*
Y655547*
X1596886Y654609*
X1595864Y654141*
X1594841*
X1593818Y654609*
X1593477Y655547*
X1604386Y659297D02*
X1603705Y660234D01*
X1603023Y660703*
X1602000*
X1601318Y660234*
X1600636Y659297*
X1600295Y657891*
Y656953*
X1600636Y655547*
X1601318Y654609*
X1602000Y654141*
X1603023*
X1603705Y654609*
X1604386Y655547*
X1607455Y660703D02*
Y654141D01*
Y657891D02*
X1607795Y659297D01*
X1608477Y660234*
X1609159Y660703*
X1610182*
X1613250Y657891D02*
X1617341D01*
Y658828*
X1617000Y659766*
X1616659Y660234*
X1615977Y660703*
X1614955*
X1614273Y660234*
X1613591Y659297*
X1613250Y657891*
Y656953*
X1613591Y655547*
X1614273Y654609*
X1614955Y654141*
X1615977*
X1616659Y654609*
X1617341Y655547*
X1620409Y657891D02*
X1624500D01*
Y658828*
X1624159Y659766*
X1623818Y660234*
X1623136Y660703*
X1622114*
X1621432Y660234*
X1620750Y659297*
X1620409Y657891*
Y656953*
X1620750Y655547*
X1621432Y654609*
X1622114Y654141*
X1623136*
X1623818Y654609*
X1624500Y655547*
X1627568Y660703D02*
Y654141D01*
Y658828D02*
X1628591Y660234D01*
X1629273Y660703*
X1630295*
X1630977Y660234*
X1631318Y658828*
Y654141*
G54D33*
X1251000Y1028000D02*
X1236000D01*
Y1036000*
X1251000*
Y1028000*
X1204000Y1074500D02*
X1219000D01*
Y1066500*
X1204000*
Y1074500*
X1217500Y1038500D02*
X1202500D01*
Y1046500*
X1217500*
Y1038500*
X1214000Y1020000D02*
X1199000D01*
Y1028000*
X1214000*
Y1020000*
X1046500Y1070800D02*
G75*
G03X1046500I-1650J0D01*
G01X1047200Y1059000D02*
X1045300Y1067700D01*
X1045900*
X1047876Y1058982D02*
X1045976Y1067682D01*
X1047900Y1059000D02*
X1047200D01*
X1044900Y1063000D02*
X1045800Y1058900D01*
X1042300Y1063000D02*
X1044900D01*
X1041900Y1064700D02*
X1042300Y1063000D01*
X1044600Y1064700D02*
X1041900D01*
X1043900Y1067600D02*
X1044600Y1064700D01*
X1042500Y1067800D02*
X1043200D01*
X1043400Y1067700*
X1043900Y1067600*
X1041600Y1068000D02*
X1042100Y1067800D01*
X1042500*
X1040500Y1068000D02*
X1041600D01*
X1040100Y1067800D02*
X1040400D01*
X1040500Y1068000*
X1039400Y1067700D02*
X1040100Y1067800D01*
X1038600Y1067100D02*
X1039000Y1067600D01*
X1039400Y1067700*
X1038400Y1066600D02*
X1038600Y1067100D01*
X1038400Y1066200D02*
X1038600Y1066600D01*
X1038400*
X1038300Y1065400D02*
X1038400Y1066200D01*
X1038200Y1064500D02*
X1038300Y1065400D01*
X1038200Y1063600D02*
Y1064500D01*
X1038000Y1063200D02*
X1038200Y1063600D01*
X1037200Y1062200D02*
X1037600Y1062900D01*
X1038000Y1063200*
X1036800Y1061400D02*
X1037200Y1062200D01*
X1036800Y1060700D02*
Y1061400D01*
X1036600Y1059700D02*
X1036800Y1060700D01*
X1036900Y1057900D02*
X1036600Y1059000D01*
Y1059700*
X1037200Y1057500D02*
X1036900Y1057900D01*
X1038400Y1057000D02*
X1037200Y1057500D01*
X1039800Y1056400D02*
X1038400Y1057000D01*
X1041000Y1056000D02*
X1039800Y1056400D01*
X1043100Y1055100D02*
X1042000Y1055600D01*
X1041000Y1056000*
X1043900Y1054700D02*
X1043100Y1055100D01*
X1044900Y1054100D02*
X1043900Y1054700D01*
X1045300Y1053300D02*
X1044900Y1054100D01*
X1045700Y1052000D02*
X1045300Y1053300D01*
X1045600Y1051100D02*
X1045700Y1052000D01*
X1045400Y1050500D02*
X1045600Y1051100D01*
X1045200Y1050100D02*
X1045400Y1050500D01*
Y1049600D02*
X1045200Y1050100D01*
X1046700Y1049400D02*
X1045700Y1049300D01*
X1045400Y1049600*
X1048000Y1050100D02*
X1046700Y1049400D01*
X1049700Y1050900D02*
X1048000Y1050100D01*
X1050600Y1052000D02*
X1049700Y1050900D01*
X1051100Y1052700D02*
X1050600Y1052000D01*
X1051600Y1054000D02*
X1051100Y1052700D01*
X1051600Y1054500D02*
Y1054000D01*
X1052700Y1056200D02*
X1051600Y1054500D01*
X1053500Y1057300D02*
X1052700Y1056200D01*
X1054100Y1057900D02*
X1053500Y1057300D01*
X1055500Y1057400D02*
X1054500Y1058100D01*
X1054100Y1057900*
X1056000Y1057000D02*
X1055500Y1057400D01*
X1057100Y1057000D02*
X1056000D01*
X1058500Y1057800D02*
X1057100Y1057000D01*
X1049400Y1058100D02*
Y1058400D01*
X1048300Y1063000*
X1049000Y1057700D02*
X1049400Y1058100D01*
X1048300Y1057300D02*
X1049000Y1057700D01*
X1047500Y1057000D02*
X1048300Y1057300D01*
X1046900Y1057000D02*
X1047500D01*
X1045600Y1057400D02*
X1046400Y1057100D01*
X1046900Y1057000*
X1045300Y1058200D02*
Y1057800D01*
X1045600Y1057500*
Y1057400*
Y1058800D02*
X1045400Y1058600D01*
X1045300Y1058400*
Y1058200*
X1045600Y1058800D02*
X1045800Y1058900D01*
X1059600Y1059500D02*
X1058500Y1057800D01*
X1060500Y1060700D02*
X1059600Y1059500D01*
X1062200Y1062100D02*
X1060500Y1060700D01*
X1063000Y1063600D02*
X1062700Y1062900D01*
X1062200Y1062100*
X1056100Y1063600D02*
X1063000D01*
X1048300Y1063000D02*
X1051100D01*
X1050500Y1064800*
X1048000*
X1049300Y1073900D02*
X1056100D01*
Y1063600*
X1048000Y1064800D02*
X1047200Y1067800D01*
X1047600Y1068000*
X1048500Y1068400*
X1048700Y1068800*
X1049300Y1069300*
Y1073900*
X1070227Y1049050D02*
Y1043800D01*
X1071500Y1049050D02*
X1068955D01*
X1067318Y1045800D02*
X1065136D01*
Y1046300*
X1065318Y1046800*
X1065500Y1047050*
X1065864Y1047300*
X1066409*
X1066773Y1047050*
X1067136Y1046550*
X1067318Y1045800*
Y1045300*
X1067136Y1044550*
X1066773Y1044050*
X1066409Y1043800*
X1065864*
X1065500Y1044050*
X1065136Y1044550*
X1063500Y1047300D02*
X1061500Y1043800D01*
Y1047300D02*
X1063500Y1043800D01*
X1057682Y1047300D02*
Y1043800D01*
Y1046550D02*
X1058045Y1047050D01*
X1058409Y1047300*
X1058955*
X1059318Y1047050*
X1059682Y1046550*
X1059864Y1045800*
Y1045300*
X1059682Y1044550*
X1059318Y1044050*
X1058955Y1043800*
X1058409*
X1058045Y1044050*
X1057682Y1044550*
X1054045Y1046550D02*
X1054227Y1047050D01*
X1054773Y1047300*
X1055318*
X1055864Y1047050*
X1056045Y1046550*
X1055864Y1046050*
X1055500Y1045800*
X1054591Y1045550*
X1054227Y1045300*
X1054045Y1044800*
Y1044550*
X1054227Y1044050*
X1054773Y1043800*
X1055318*
X1055864Y1044050*
X1056045Y1044550*
X1080500Y1040550D02*
Y1035300D01*
X1078864Y1038800D02*
Y1035300D01*
Y1037800D02*
X1078318Y1038550D01*
X1077955Y1038800*
X1077409*
X1077045Y1038550*
X1076864Y1037800*
Y1035300*
X1073227Y1038050D02*
X1073409Y1038550D01*
X1073955Y1038800*
X1074500*
X1075045Y1038550*
X1075227Y1038050*
X1075045Y1037550*
X1074682Y1037300*
X1073773Y1037050*
X1073409Y1036800*
X1073227Y1036300*
Y1036050*
X1073409Y1035550*
X1073955Y1035300*
X1074500*
X1075045Y1035550*
X1075227Y1036050*
X1071045Y1040550D02*
Y1036300D01*
X1070864Y1035550*
X1070500Y1035300*
X1070136*
X1071591Y1038800D02*
X1070318D01*
X1068500D02*
Y1035300D01*
Y1037300D02*
X1068318Y1038050D01*
X1067955Y1038550*
X1067591Y1038800*
X1067045*
X1065409D02*
Y1036300D01*
X1065227Y1035550*
X1064864Y1035300*
X1064318*
X1063955Y1035550*
X1063409Y1036300*
Y1038800D02*
Y1035300D01*
X1061773Y1038800D02*
Y1035300D01*
Y1037800D02*
X1061227Y1038550D01*
X1060864Y1038800*
X1060318*
X1059955Y1038550*
X1059773Y1037800*
Y1035300*
Y1037800D02*
X1059227Y1038550D01*
X1058864Y1038800*
X1058318*
X1057955Y1038550*
X1057773Y1037800*
Y1035300*
X1056136Y1037300D02*
X1053955D01*
Y1037800*
X1054136Y1038300*
X1054318Y1038550*
X1054682Y1038800*
X1055227*
X1055591Y1038550*
X1055955Y1038050*
X1056136Y1037300*
Y1036800*
X1055955Y1036050*
X1055591Y1035550*
X1055227Y1035300*
X1054682*
X1054318Y1035550*
X1053955Y1036050*
X1052318Y1038800D02*
Y1035300D01*
Y1037800D02*
X1051773Y1038550D01*
X1051409Y1038800*
X1050864*
X1050500Y1038550*
X1050318Y1037800*
Y1035300*
X1048136Y1040550D02*
Y1036300D01*
X1047955Y1035550*
X1047591Y1035300*
X1047227*
X1048682Y1038800D02*
X1047409D01*
X1043591Y1038050D02*
X1043773Y1038550D01*
X1044318Y1038800*
X1044864*
X1045409Y1038550*
X1045591Y1038050*
X1045409Y1037550*
X1045045Y1037300*
X1044136Y1037050*
X1043773Y1036800*
X1043591Y1036300*
Y1036050*
X1043773Y1035550*
X1044318Y1035300*
X1044864*
X1045409Y1035550*
X1045591Y1036050*
X652000Y645200D02*
X1688000D01*
Y1350000*
X652000*
Y645200*
X1253500D02*
X1688000D01*
Y840200*
X1253500*
Y645200*
X1253000Y785200D02*
X1688000D01*
Y645200*
X1253000*
Y785200*
Y675200D02*
X1688000D01*
Y645200*
X1253000*
Y675200*
X1413000*
Y645200*
X1253000*
Y675200*
Y785200D02*
X1688000D01*
Y840200*
X1253000*
Y785200*
Y715200D02*
X1688000D01*
Y785200*
X1253000*
Y715200*
X1553000Y675200D02*
X1688000D01*
Y715200*
X1553000*
Y675200*
X818500Y675700D02*
X1024000D01*
Y645200*
X818500*
Y675700*
X1024000Y645200D02*
X1253500D01*
Y675700*
X1024000*
Y645200*
X818500Y785700D02*
X1253500D01*
Y675700*
X818500*
Y785700*
G54D42*
X1148000Y1067244D02*
X1135000D01*
Y1072756*
X1148000*
Y1067244*
X1250000Y1022244D02*
X1237000D01*
Y1027756*
X1250000*
Y1022244*
X1232000Y1074244D02*
X1219000D01*
Y1079756*
X1232000*
Y1074244*
X1200256Y1050500D02*
Y1037500D01*
X1194744*
Y1050500*
X1200256*
X1292000Y1047756D02*
X1305000D01*
Y1042244*
X1292000*
Y1047756*
Y1057756D02*
X1305000D01*
Y1052244*
X1292000*
Y1057756*
X1197500Y1033756D02*
X1210500D01*
Y1028244*
X1197500*
Y1033756*
X1193256Y1068000D02*
Y1055000D01*
X1187744*
Y1068000*
X1193256*
X1162000Y1071244D02*
X1149000D01*
Y1076756*
X1162000*
Y1071244*
X1246756Y1069000D02*
Y1056000D01*
X1241244*
Y1069000*
X1246756*
X1211500Y1086256D02*
X1224500D01*
Y1080744*
X1211500*
Y1086256*
X1049000Y1084744D02*
X1036000D01*
Y1090256*
X1049000*
Y1084744*
X1304000D02*
X1291000D01*
Y1090256*
X1304000*
Y1084744*
X1162000Y1063244D02*
X1149000D01*
Y1068756*
X1162000*
Y1063244*
X1148000Y1060244D02*
X1135000D01*
Y1065756*
X1148000*
Y1060244*
Y1074744D02*
X1135000D01*
Y1080256*
X1148000*
Y1074744*
X1162000Y1053744D02*
X1149000D01*
Y1059256*
X1162000*
Y1053744*
Y1046244D02*
X1149000D01*
Y1051756*
X1162000*
Y1046244*
X1148000Y1045744D02*
X1135000D01*
Y1051256*
X1148000*
Y1045744*
Y1053744D02*
X1135000D01*
Y1059256*
X1148000*
Y1053744*
X1214193Y1055350D02*
X1200807D01*
Y1061650*
X1214193*
Y1055350*
X1343150Y1059193D02*
Y1045807D01*
X1336850*
Y1059193*
X1343150*
X1340650Y1034193D02*
Y1020807D01*
X1334350*
Y1034193*
X1340650*
X1333150Y1059193D02*
Y1045807D01*
X1326850*
Y1059193*
X1333150*
X1198807Y1082150D02*
X1212193D01*
Y1075850*
X1198807*
Y1082150*
X1315650Y1091693D02*
Y1078307D01*
X1309350*
Y1091693*
X1315650*
X1325650D02*
Y1078307D01*
X1319350*
Y1091693*
X1325650*
X1335650D02*
Y1078307D01*
X1329350*
Y1091693*
X1335650*
X1129455Y1071000D02*
X1129591Y1071375D01*
X1129864Y1071750*
X1130136Y1071938*
X1130136D02*
X1130682D01*
X1130682D02*
X1130955Y1071750D01*
X1131227Y1071375*
X1131364Y1071000*
X1131500Y1070438*
X1131500D02*
Y1069500D01*
X1131364Y1068938*
X1131364D02*
X1131227Y1068563D01*
X1131227D02*
X1130955Y1068188D01*
X1130955D02*
X1130682Y1068000D01*
X1130136*
X1129864Y1068188*
X1129864D02*
X1129591Y1068563D01*
X1129591D02*
X1129455Y1068938D01*
X1128227Y1071188D02*
X1127955Y1071375D01*
X1127545Y1071938*
X1127545D02*
Y1068000D01*
X1234055Y1026100D02*
X1234191Y1026475D01*
X1234464Y1026850*
X1234736Y1027038*
X1234736D02*
X1235282D01*
X1235282D02*
X1235555Y1026850D01*
X1235827Y1026475*
X1235964Y1026100*
X1236100Y1025538*
X1236100D02*
Y1024600D01*
X1235964Y1024038*
X1235964D02*
X1235827Y1023663D01*
X1235827D02*
X1235555Y1023288D01*
X1235555D02*
X1235282Y1023100D01*
X1234736*
X1234464Y1023288*
X1234464D02*
X1234191Y1023663D01*
X1234191D02*
X1234055Y1024038D01*
X1232827Y1026288D02*
X1232555Y1026475D01*
X1232145Y1027038*
X1232145D02*
Y1023100D01*
X1230100Y1027038D02*
X1230509Y1026850D01*
X1230782Y1026288*
X1230782D02*
X1230918Y1025350D01*
Y1024788*
X1230918D02*
X1230782Y1023850D01*
X1230509Y1023288*
X1230509D02*
X1230100Y1023100D01*
X1229827*
X1229418Y1023288*
X1229418D02*
X1229145Y1023850D01*
X1229009Y1024788*
X1229009D02*
Y1025350D01*
X1229145Y1026288*
X1229145D02*
X1229418Y1026850D01*
X1229827Y1027038*
X1229827D02*
X1230100D01*
X1237955Y1078000D02*
X1238091Y1078375D01*
X1238364Y1078750*
X1238636Y1078938*
X1238636D02*
X1239182D01*
X1239182D02*
X1239455Y1078750D01*
X1239727Y1078375*
X1239864Y1078000*
X1240000Y1077438*
X1240000D02*
Y1076500D01*
X1239864Y1075938*
X1239864D02*
X1239727Y1075563D01*
X1239727D02*
X1239455Y1075188D01*
X1239455D02*
X1239182Y1075000D01*
X1238636*
X1238364Y1075188*
X1238364D02*
X1238091Y1075563D01*
X1238091D02*
X1237955Y1075938D01*
X1236727Y1078188D02*
X1236455Y1078375D01*
X1236045Y1078938*
X1236045D02*
Y1075000D01*
X1234818Y1078188D02*
X1234545Y1078375D01*
X1234136Y1078938*
X1234136D02*
Y1075000D01*
X1192500Y1039545D02*
X1192875Y1039409D01*
X1193250Y1039136*
X1193438Y1038864*
X1193438D02*
Y1038318D01*
X1193438D02*
X1193250Y1038045D01*
X1192875Y1037773*
X1192500Y1037636*
X1191938Y1037500*
X1191938D02*
X1191000D01*
X1190438Y1037636*
X1190438D02*
X1190063Y1037773D01*
X1190063D02*
X1189688Y1038045D01*
X1189688D02*
X1189500Y1038318D01*
Y1038864*
X1189688Y1039136*
X1189688D02*
X1190063Y1039409D01*
X1190063D02*
X1190438Y1039545D01*
X1192688Y1040773D02*
X1192875Y1041045D01*
X1193438Y1041455*
X1193438D02*
X1189500D01*
X1192500Y1042818D02*
X1192688D01*
X1192688D02*
X1193063Y1042955D01*
X1193063D02*
X1193250Y1043091D01*
X1193438Y1043364*
X1193438D02*
Y1043909D01*
X1193438D02*
X1193250Y1044182D01*
X1193063Y1044318*
X1193063D02*
X1192688Y1044455D01*
X1192688D02*
X1192313D01*
X1192313D02*
X1191938Y1044318D01*
X1191938D02*
X1191375Y1044045D01*
X1189500Y1042682*
Y1044591*
X1310955Y1046000D02*
X1311091Y1046375D01*
X1311364Y1046750*
X1311636Y1046938*
X1311636D02*
X1312182D01*
X1312182D02*
X1312455Y1046750D01*
X1312727Y1046375*
X1312864Y1046000*
X1313000Y1045438*
X1313000D02*
Y1044500D01*
X1312864Y1043938*
X1312864D02*
X1312727Y1043563D01*
X1312727D02*
X1312455Y1043188D01*
X1312455D02*
X1312182Y1043000D01*
X1311636*
X1311364Y1043188*
X1311364D02*
X1311091Y1043563D01*
X1311091D02*
X1310955Y1043938D01*
X1309727Y1046188D02*
X1309455Y1046375D01*
X1309045Y1046938*
X1309045D02*
Y1043000D01*
X1306455Y1046938D02*
X1307818Y1044313D01*
X1307818D02*
X1305773D01*
X1306455Y1046938D02*
Y1043000D01*
X1311955Y1056000D02*
X1312091Y1056375D01*
X1312364Y1056750*
X1312636Y1056938*
X1312636D02*
X1313182D01*
X1313182D02*
X1313455Y1056750D01*
X1313727Y1056375*
X1313864Y1056000*
X1314000Y1055438*
X1314000D02*
Y1054500D01*
X1313864Y1053938*
X1313864D02*
X1313727Y1053563D01*
X1313727D02*
X1313455Y1053188D01*
X1313455D02*
X1313182Y1053000D01*
X1312636*
X1312364Y1053188*
X1312364D02*
X1312091Y1053563D01*
X1312091D02*
X1311955Y1053938D01*
X1310727Y1056188D02*
X1310455Y1056375D01*
X1310045Y1056938*
X1310045D02*
Y1053000D01*
X1307045Y1056938D02*
X1308409D01*
X1308409D02*
X1308545Y1055250D01*
X1308409Y1055438*
X1308409D02*
X1308000Y1055625D01*
X1307591*
X1307182Y1055438*
X1307182D02*
X1306909Y1055063D01*
X1306909D02*
X1306773Y1054500D01*
X1306909Y1054125*
X1307045Y1053563*
X1307045D02*
X1307318Y1053188D01*
X1307318D02*
X1307727Y1053000D01*
X1308136*
X1308545Y1053188*
X1308545D02*
X1308682Y1053375D01*
X1308818Y1053750*
X1192455Y1032500D02*
X1192591Y1032875D01*
X1192864Y1033250*
X1193136Y1033438*
X1193682*
X1193955Y1033250*
X1194227Y1032875*
X1194364Y1032500*
X1194500Y1031938*
Y1031000*
X1194364Y1030438*
X1194227Y1030063*
X1193955Y1029688*
X1193682Y1029500*
X1193136*
X1192864Y1029688*
X1192591Y1030063*
X1192455Y1030438*
X1191227Y1032688D02*
X1190955Y1032875D01*
X1190545Y1033438*
Y1029500*
X1188636Y1033438D02*
X1189045Y1033250D01*
X1189182Y1032875*
Y1032500*
X1189045Y1032125*
X1188773Y1031938*
X1188227Y1031750*
X1187818Y1031563*
X1187545Y1031188*
X1187409Y1030813*
Y1030250*
X1187545Y1029875*
X1187682Y1029688*
X1188091Y1029500*
X1188636*
X1189045Y1029688*
X1189182Y1029875*
X1189318Y1030250*
Y1030813*
X1189182Y1031188*
X1188909Y1031563*
X1188500Y1031750*
X1187955Y1031938*
X1187682Y1032125*
X1187545Y1032500*
Y1032875*
X1187682Y1033250*
X1188091Y1033438*
X1188636*
X1191500Y1048545D02*
X1191875Y1048409D01*
X1192250Y1048136*
X1192438Y1047864*
X1192438D02*
Y1047318D01*
X1192438D02*
X1192250Y1047045D01*
X1191875Y1046773*
X1191500Y1046636*
X1190938Y1046500*
X1190938D02*
X1190000D01*
X1189438Y1046636*
X1189438D02*
X1189063Y1046773D01*
X1189063D02*
X1188688Y1047045D01*
X1188688D02*
X1188500Y1047318D01*
Y1047864*
X1188688Y1048136*
X1188688D02*
X1189063Y1048409D01*
X1189063D02*
X1189438Y1048545D01*
X1191688Y1049773D02*
X1191875Y1050045D01*
X1192438Y1050455*
X1192438D02*
X1188500D01*
X1191125Y1053455D02*
X1190563Y1053318D01*
X1190563D02*
X1190188Y1053045D01*
X1190188D02*
X1190000Y1052636D01*
Y1052500*
X1190188Y1052091*
X1190188D02*
X1190563Y1051818D01*
X1190563D02*
X1191125Y1051682D01*
X1191313*
X1191313D02*
X1191875Y1051818D01*
X1192250Y1052091*
X1192438Y1052500*
X1192438D02*
Y1052636D01*
X1192438D02*
X1192250Y1053045D01*
X1191875Y1053318*
X1191125Y1053455*
X1190188*
X1190188D02*
X1189250Y1053318D01*
X1188688Y1053045*
X1188688D02*
X1188500Y1052636D01*
Y1052364*
X1188688Y1051955*
X1188688D02*
X1189063Y1051818D01*
X1166455Y1075000D02*
X1166591Y1075375D01*
X1166864Y1075750*
X1167136Y1075938*
X1167136D02*
X1167682D01*
X1167682D02*
X1167955Y1075750D01*
X1168227Y1075375*
X1168364Y1075000*
X1168500Y1074438*
X1168500D02*
Y1073500D01*
X1168364Y1072938*
X1168364D02*
X1168227Y1072563D01*
X1168227D02*
X1167955Y1072188D01*
X1167955D02*
X1167682Y1072000D01*
X1167136*
X1166864Y1072188*
X1166864D02*
X1166591Y1072563D01*
X1166591D02*
X1166455Y1072938D01*
X1165091Y1075000D02*
Y1075188D01*
X1165091D02*
X1164955Y1075563D01*
X1164955D02*
X1164818Y1075750D01*
X1164545Y1075938*
X1164545D02*
X1164000D01*
X1164000D02*
X1163727Y1075750D01*
X1163591Y1075563*
X1163591D02*
X1163455Y1075188D01*
X1163455D02*
Y1074813D01*
X1163455D02*
X1163591Y1074438D01*
X1163591D02*
X1163864Y1073875D01*
X1165227Y1072000*
X1163318*
X1245500Y1048545D02*
X1245875Y1048409D01*
X1246250Y1048136*
X1246438Y1047864*
X1246438D02*
Y1047318D01*
X1246438D02*
X1246250Y1047045D01*
X1245875Y1046773*
X1245500Y1046636*
X1244938Y1046500*
X1244938D02*
X1244000D01*
X1243438Y1046636*
X1243438D02*
X1243063Y1046773D01*
X1243063D02*
X1242688Y1047045D01*
X1242688D02*
X1242500Y1047318D01*
Y1047864*
X1242688Y1048136*
X1242688D02*
X1243063Y1048409D01*
X1243063D02*
X1243438Y1048545D01*
X1245500Y1049909D02*
X1245688D01*
X1245688D02*
X1246063Y1050045D01*
X1246063D02*
X1246250Y1050182D01*
X1246438Y1050455*
X1246438D02*
Y1051000D01*
X1246438D02*
X1246250Y1051273D01*
X1246063Y1051409*
X1246063D02*
X1245688Y1051545D01*
X1245688D02*
X1245313D01*
X1245313D02*
X1244938Y1051409D01*
X1244938D02*
X1244375Y1051136D01*
X1242500Y1049773*
Y1051682*
X1246438Y1053727D02*
X1246250Y1053318D01*
X1245688Y1053045*
X1245688D02*
X1244750Y1052909D01*
X1244188*
X1244188D02*
X1243250Y1053045D01*
X1242688Y1053318*
X1242688D02*
X1242500Y1053727D01*
Y1054000*
X1242688Y1054409*
X1242688D02*
X1243250Y1054682D01*
X1244188Y1054818*
X1244188D02*
X1244750D01*
X1245688Y1054682*
X1245688D02*
X1246250Y1054409D01*
X1246438Y1054000*
X1246438D02*
Y1053727D01*
X1231455Y1084500D02*
X1231591Y1084875D01*
X1231864Y1085250*
X1232136Y1085438*
X1232136D02*
X1232682D01*
X1232682D02*
X1232955Y1085250D01*
X1233227Y1084875*
X1233364Y1084500*
X1233500Y1083938*
X1233500D02*
Y1083000D01*
X1233364Y1082438*
X1233364D02*
X1233227Y1082063D01*
X1233227D02*
X1232955Y1081688D01*
X1232955D02*
X1232682Y1081500D01*
X1232136*
X1231864Y1081688*
X1231864D02*
X1231591Y1082063D01*
X1231591D02*
X1231455Y1082438D01*
X1230091Y1084500D02*
Y1084688D01*
X1230091D02*
X1229955Y1085063D01*
X1229955D02*
X1229818Y1085250D01*
X1229545Y1085438*
X1229545D02*
X1229000D01*
X1229000D02*
X1228727Y1085250D01*
X1228591Y1085063*
X1228591D02*
X1228455Y1084688D01*
X1228455D02*
Y1084313D01*
X1228455D02*
X1228591Y1083938D01*
X1228591D02*
X1228864Y1083375D01*
X1230227Y1081500*
X1228318*
X1227091Y1084688D02*
X1226818Y1084875D01*
X1226409Y1085438*
X1226409D02*
Y1081500D01*
X1045455Y1083000D02*
X1045591Y1083375D01*
X1045864Y1083750*
X1046136Y1083938*
X1046136D02*
X1046682D01*
X1046682D02*
X1046955Y1083750D01*
X1047227Y1083375*
X1047364Y1083000*
X1047500Y1082438*
X1047500D02*
Y1081500D01*
X1047364Y1080938*
X1047364D02*
X1047227Y1080563D01*
X1047227D02*
X1046955Y1080188D01*
X1046955D02*
X1046682Y1080000D01*
X1046136*
X1045864Y1080188*
X1045864D02*
X1045591Y1080563D01*
X1045591D02*
X1045455Y1080938D01*
X1044091Y1083000D02*
Y1083188D01*
X1044091D02*
X1043955Y1083563D01*
X1043955D02*
X1043818Y1083750D01*
X1043545Y1083938*
X1043545D02*
X1043000D01*
X1043000D02*
X1042727Y1083750D01*
X1042591Y1083563*
X1042591D02*
X1042455Y1083188D01*
X1042455D02*
Y1082813D01*
X1042455D02*
X1042591Y1082438D01*
X1042591D02*
X1042864Y1081875D01*
X1044227Y1080000*
X1042318*
X1040818Y1083938D02*
X1039318D01*
X1039318D02*
X1040136Y1082438D01*
X1040136D02*
X1039727D01*
X1039727D02*
X1039455Y1082250D01*
X1039318Y1082063*
X1039318D02*
X1039182Y1081500D01*
Y1081125*
X1039318Y1080563*
X1039318D02*
X1039591Y1080188D01*
X1039591D02*
X1040000Y1080000D01*
X1040409*
X1040818Y1080188*
X1040818D02*
X1040955Y1080375D01*
X1041091Y1080750*
X1299455Y1082500D02*
X1299591Y1082875D01*
X1299864Y1083250*
X1300136Y1083438*
X1300136D02*
X1300682D01*
X1300682D02*
X1300955Y1083250D01*
X1301227Y1082875*
X1301364Y1082500*
X1301500Y1081938*
X1301500D02*
Y1081000D01*
X1301364Y1080438*
X1301364D02*
X1301227Y1080063D01*
X1301227D02*
X1300955Y1079688D01*
X1300955D02*
X1300682Y1079500D01*
X1300136*
X1299864Y1079688*
X1299864D02*
X1299591Y1080063D01*
X1299591D02*
X1299455Y1080438D01*
X1298091Y1082500D02*
Y1082688D01*
X1298091D02*
X1297955Y1083063D01*
X1297955D02*
X1297818Y1083250D01*
X1297545Y1083438*
X1297545D02*
X1297000D01*
X1297000D02*
X1296727Y1083250D01*
X1296591Y1083063*
X1296591D02*
X1296455Y1082688D01*
X1296455D02*
Y1082313D01*
X1296455D02*
X1296591Y1081938D01*
X1296591D02*
X1296864Y1081375D01*
X1298227Y1079500*
X1296318*
X1293318Y1082125D02*
X1293455Y1081563D01*
X1293455D02*
X1293727Y1081188D01*
X1293727D02*
X1294136Y1081000D01*
X1294273*
X1294682Y1081188*
X1294682D02*
X1294955Y1081563D01*
X1294955D02*
X1295091Y1082125D01*
Y1082313*
X1295091D02*
X1294955Y1082875D01*
X1294682Y1083250*
X1294273Y1083438*
X1294273D02*
X1294136D01*
X1294136D02*
X1293727Y1083250D01*
X1293455Y1082875*
X1293318Y1082125*
Y1081188*
X1293318D02*
X1293455Y1080250D01*
X1293727Y1079688*
X1293727D02*
X1294136Y1079500D01*
X1294409*
X1294818Y1079688*
X1294818D02*
X1294955Y1080063D01*
X1167455Y1066500D02*
X1167591Y1066875D01*
X1167864Y1067250*
X1168136Y1067438*
X1168136D02*
X1168682D01*
X1168682D02*
X1168955Y1067250D01*
X1169227Y1066875*
X1169364Y1066500*
X1169500Y1065938*
X1169500D02*
Y1065000D01*
X1169364Y1064438*
X1169364D02*
X1169227Y1064063D01*
X1169227D02*
X1168955Y1063688D01*
X1168955D02*
X1168682Y1063500D01*
X1168136*
X1167864Y1063688*
X1167864D02*
X1167591Y1064063D01*
X1167591D02*
X1167455Y1064438D01*
X1165955Y1067438D02*
X1164455D01*
X1164455D02*
X1165273Y1065938D01*
X1165273D02*
X1164864D01*
X1164864D02*
X1164591Y1065750D01*
X1164455Y1065563*
X1164455D02*
X1164318Y1065000D01*
Y1064625*
X1164455Y1064063*
X1164455D02*
X1164727Y1063688D01*
X1164727D02*
X1165136Y1063500D01*
X1165545*
X1165955Y1063688*
X1165955D02*
X1166091Y1063875D01*
X1166227Y1064250*
X1130455Y1064500D02*
X1130591Y1064875D01*
X1130864Y1065250*
X1131136Y1065438*
X1131136D02*
X1131682D01*
X1131682D02*
X1131955Y1065250D01*
X1132227Y1064875*
X1132364Y1064500*
X1132500Y1063938*
X1132500D02*
Y1063000D01*
X1132364Y1062438*
X1132364D02*
X1132227Y1062063D01*
X1132227D02*
X1131955Y1061688D01*
X1131955D02*
X1131682Y1061500D01*
X1131136*
X1130864Y1061688*
X1130864D02*
X1130591Y1062063D01*
X1130591D02*
X1130455Y1062438D01*
X1127864Y1065438D02*
X1129227Y1062813D01*
X1129227D02*
X1127182D01*
X1127864Y1065438D02*
Y1061500D01*
X1130455Y1079000D02*
X1130591Y1079375D01*
X1130864Y1079750*
X1131136Y1079938*
X1131136D02*
X1131682D01*
X1131682D02*
X1131955Y1079750D01*
X1132227Y1079375*
X1132364Y1079000*
X1132500Y1078438*
X1132500D02*
Y1077500D01*
X1132364Y1076938*
X1132364D02*
X1132227Y1076563D01*
X1132227D02*
X1131955Y1076188D01*
X1131955D02*
X1131682Y1076000D01*
X1131136*
X1130864Y1076188*
X1130864D02*
X1130591Y1076563D01*
X1130591D02*
X1130455Y1076938D01*
X1127455Y1079938D02*
X1128818D01*
X1128818D02*
X1128955Y1078250D01*
X1128818Y1078438*
X1128818D02*
X1128409Y1078625D01*
X1128000*
X1127591Y1078438*
X1127591D02*
X1127318Y1078063D01*
X1127318D02*
X1127182Y1077500D01*
X1127318Y1077125*
X1127455Y1076563*
X1127455D02*
X1127727Y1076188D01*
X1127727D02*
X1128136Y1076000D01*
X1128545*
X1128955Y1076188*
X1128955D02*
X1129091Y1076375D01*
X1129227Y1076750*
X1167455Y1057000D02*
X1167591Y1057375D01*
X1167864Y1057750*
X1168136Y1057938*
X1168136D02*
X1168682D01*
X1168682D02*
X1168955Y1057750D01*
X1169227Y1057375*
X1169364Y1057000*
X1169500Y1056438*
X1169500D02*
Y1055500D01*
X1169364Y1054938*
X1169364D02*
X1169227Y1054563D01*
X1169227D02*
X1168955Y1054188D01*
X1168955D02*
X1168682Y1054000D01*
X1168136*
X1167864Y1054188*
X1167864D02*
X1167591Y1054563D01*
X1167591D02*
X1167455Y1054938D01*
X1164591Y1057375D02*
X1164727Y1057750D01*
X1165136Y1057938*
X1165136D02*
X1165409D01*
X1165409D02*
X1165818Y1057750D01*
X1166091Y1057188*
X1166091D02*
X1166227Y1056250D01*
Y1055313*
X1166227D02*
X1166091Y1054563D01*
X1166091D02*
X1165818Y1054188D01*
X1165818D02*
X1165409Y1054000D01*
X1165273*
X1164864Y1054188*
X1164864D02*
X1164591Y1054563D01*
X1164591D02*
X1164455Y1055125D01*
Y1055313*
X1164455D02*
X1164591Y1055875D01*
X1164864Y1056250*
X1165273Y1056438*
X1165273D02*
X1165409D01*
X1165409D02*
X1165818Y1056250D01*
X1166091Y1055875*
X1166227Y1055313*
X1167455Y1050000D02*
X1167591Y1050375D01*
X1167864Y1050750*
X1168136Y1050938*
X1168136D02*
X1168682D01*
X1168682D02*
X1168955Y1050750D01*
X1169227Y1050375*
X1169364Y1050000*
X1169500Y1049438*
X1169500D02*
Y1048500D01*
X1169364Y1047938*
X1169364D02*
X1169227Y1047563D01*
X1169227D02*
X1168955Y1047188D01*
X1168955D02*
X1168682Y1047000D01*
X1168136*
X1167864Y1047188*
X1167864D02*
X1167591Y1047563D01*
X1167591D02*
X1167455Y1047938D01*
X1164318Y1050938D02*
X1165682Y1047000D01*
X1166227Y1050938D02*
X1164318D01*
X1130955Y1050000D02*
X1131091Y1050375D01*
X1131364Y1050750*
X1131636Y1050938*
X1131636D02*
X1132182D01*
X1132182D02*
X1132455Y1050750D01*
X1132727Y1050375*
X1132864Y1050000*
X1133000Y1049438*
X1133000D02*
Y1048500D01*
X1132864Y1047938*
X1132864D02*
X1132727Y1047563D01*
X1132727D02*
X1132455Y1047188D01*
X1132455D02*
X1132182Y1047000D01*
X1131636*
X1131364Y1047188*
X1131364D02*
X1131091Y1047563D01*
X1131091D02*
X1130955Y1047938D01*
X1129045Y1050938D02*
X1129455Y1050750D01*
X1129591Y1050375*
Y1050000*
X1129455Y1049625*
X1129182Y1049438*
X1129182D02*
X1128636Y1049250D01*
X1128227Y1049063*
X1128227D02*
X1127955Y1048688D01*
X1127955D02*
X1127818Y1048313D01*
X1127818D02*
Y1047750D01*
X1127955Y1047375*
X1128091Y1047188*
X1128091D02*
X1128500Y1047000D01*
X1129045*
X1129455Y1047188*
X1129455D02*
X1129591Y1047375D01*
X1129727Y1047750*
Y1048313*
X1129727D02*
X1129591Y1048688D01*
X1129591D02*
X1129318Y1049063D01*
X1129318D02*
X1128909Y1049250D01*
X1128364Y1049438*
X1128364D02*
X1128091Y1049625D01*
X1127955Y1050000*
Y1050375*
X1128091Y1050750*
X1128500Y1050938*
X1128500D02*
X1129045D01*
X1130455Y1057500D02*
X1130591Y1057875D01*
X1130864Y1058250*
X1131136Y1058438*
X1131136D02*
X1131682D01*
X1131682D02*
X1131955Y1058250D01*
X1132227Y1057875*
X1132364Y1057500*
X1132500Y1056938*
X1132500D02*
Y1056000D01*
X1132364Y1055438*
X1132364D02*
X1132227Y1055063D01*
X1132227D02*
X1131955Y1054688D01*
X1131955D02*
X1131682Y1054500D01*
X1131136*
X1130864Y1054688*
X1130864D02*
X1130591Y1055063D01*
X1130591D02*
X1130455Y1055438D01*
X1127455Y1057125D02*
X1127591Y1056563D01*
X1127591D02*
X1127864Y1056188D01*
X1127864D02*
X1128273Y1056000D01*
X1128409*
X1128818Y1056188*
X1128818D02*
X1129091Y1056563D01*
X1129091D02*
X1129227Y1057125D01*
Y1057313*
X1129227D02*
X1129091Y1057875D01*
X1128818Y1058250*
X1128409Y1058438*
X1128409D02*
X1128273D01*
X1128273D02*
X1127864Y1058250D01*
X1127591Y1057875*
X1127455Y1057125*
Y1056188*
X1127455D02*
X1127591Y1055250D01*
X1127864Y1054688*
X1127864D02*
X1128273Y1054500D01*
X1128545*
X1128955Y1054688*
X1128955D02*
X1129091Y1055063D01*
X1234900Y1033438D02*
Y1029500D01*
X1233264*
X1232036Y1032688D02*
X1231764Y1032875D01*
X1231355Y1033438*
X1231355D02*
Y1029500D01*
X1202500Y1072438D02*
Y1068500D01*
X1200864*
X1199500Y1071500D02*
Y1071688D01*
X1199364Y1072063*
X1199227Y1072250*
X1198955Y1072438*
X1198409*
X1198136Y1072250*
X1198000Y1072063*
X1197864Y1071688*
Y1071313*
X1198000Y1070938*
X1198273Y1070375*
X1199636Y1068500*
X1197727*
X1209500Y1052438D02*
Y1048500D01*
X1207864*
X1206364Y1052438D02*
X1204864D01*
X1204864D02*
X1205682Y1050938D01*
X1205682D02*
X1205273D01*
X1205273D02*
X1205000Y1050750D01*
X1204864Y1050563*
X1204864D02*
X1204727Y1050000D01*
Y1049625*
X1204864Y1049063*
X1204864D02*
X1205136Y1048688D01*
X1205136D02*
X1205545Y1048500D01*
X1205955*
X1206364Y1048688*
X1206364D02*
X1206500Y1048875D01*
X1206636Y1049250*
X1197900Y1025438D02*
Y1021500D01*
X1196264*
X1193673Y1025438D02*
X1195036Y1022813D01*
X1195036D02*
X1192991D01*
X1193673Y1025438D02*
Y1021500D01*
X1220000Y1061438D02*
Y1057500D01*
Y1061438D02*
X1218773D01*
X1218773D02*
X1218364Y1061250D01*
X1218227Y1061063*
X1218227D02*
X1218091Y1060688D01*
X1218091D02*
Y1060313D01*
X1218091D02*
X1218227Y1059938D01*
X1218227D02*
X1218364Y1059750D01*
X1218773Y1059563*
X1218773D02*
X1220000D01*
X1219045D02*
X1218091Y1057500D01*
X1216864Y1060688D02*
X1216591Y1060875D01*
X1216182Y1061438*
X1216182D02*
Y1057500D01*
X1341938Y1037500D02*
X1338000D01*
X1341938D02*
Y1038727D01*
X1341938D02*
X1341750Y1039136D01*
X1341563Y1039273*
X1341563D02*
X1341188Y1039409D01*
X1341188D02*
X1340813D01*
X1340813D02*
X1340438Y1039273D01*
X1340438D02*
X1340250Y1039136D01*
X1340063Y1038727*
X1340063D02*
Y1037500D01*
Y1038455D02*
X1338000Y1039409D01*
X1341188Y1040636D02*
X1341375Y1040909D01*
X1341938Y1041318*
X1341938D02*
X1338000D01*
X1341938Y1043364D02*
X1341750Y1042955D01*
X1341188Y1042682*
X1341188D02*
X1340250Y1042545D01*
X1339688*
X1339688D02*
X1338750Y1042682D01*
X1338188Y1042955*
X1338188D02*
X1338000Y1043364D01*
Y1043636*
X1338188Y1044045*
X1338188D02*
X1338750Y1044318D01*
X1339688Y1044455*
X1339688D02*
X1340250D01*
X1341188Y1044318*
X1341188D02*
X1341750Y1044045D01*
X1341938Y1043636*
X1341938D02*
Y1043364D01*
X1332938Y1023500D02*
X1329000D01*
X1332938D02*
Y1024727D01*
X1332938D02*
X1332750Y1025136D01*
X1332563Y1025273*
X1332563D02*
X1332188Y1025409D01*
X1332188D02*
X1331813D01*
X1331813D02*
X1331438Y1025273D01*
X1331438D02*
X1331250Y1025136D01*
X1331063Y1024727*
X1331063D02*
Y1023500D01*
Y1024455D02*
X1329000Y1025409D01*
X1332188Y1026636D02*
X1332375Y1026909D01*
X1332938Y1027318*
X1332938D02*
X1329000D01*
X1332188Y1028545D02*
X1332375Y1028818D01*
X1332938Y1029227*
X1332938D02*
X1329000D01*
X1332438Y1037500D02*
X1328500D01*
X1332438D02*
Y1038727D01*
X1332438D02*
X1332250Y1039136D01*
X1332063Y1039273*
X1332063D02*
X1331688Y1039409D01*
X1331688D02*
X1331313D01*
X1331313D02*
X1330938Y1039273D01*
X1330938D02*
X1330750Y1039136D01*
X1330563Y1038727*
X1330563D02*
Y1037500D01*
Y1038455D02*
X1328500Y1039409D01*
X1331688Y1040636D02*
X1331875Y1040909D01*
X1332438Y1041318*
X1332438D02*
X1328500D01*
X1331500Y1042682D02*
X1331688D01*
X1331688D02*
X1332063Y1042818D01*
X1332063D02*
X1332250Y1042955D01*
X1332438Y1043227*
X1332438D02*
Y1043773D01*
X1332438D02*
X1332250Y1044045D01*
X1332063Y1044182*
X1332063D02*
X1331688Y1044318D01*
X1331688D02*
X1331313D01*
X1331313D02*
X1330938Y1044182D01*
X1330938D02*
X1330375Y1043909D01*
X1328500Y1042545*
Y1044455*
X1194500Y1081438D02*
Y1077500D01*
Y1081438D02*
X1193273D01*
X1192864Y1081250*
X1192727Y1081063*
X1192591Y1080688*
Y1080313*
X1192727Y1079938*
X1192864Y1079750*
X1193273Y1079563*
X1194500*
X1193545D02*
X1192591Y1077500D01*
X1191227Y1080500D02*
Y1080688D01*
X1191091Y1081063*
X1190955Y1081250*
X1190682Y1081438*
X1190136*
X1189864Y1081250*
X1189727Y1081063*
X1189591Y1080688*
Y1080313*
X1189727Y1079938*
X1190000Y1079375*
X1191364Y1077500*
X1189455*
X1313938Y1070000D02*
X1310000D01*
X1313938D02*
Y1071227D01*
X1313938D02*
X1313750Y1071636D01*
X1313563Y1071773*
X1313563D02*
X1313188Y1071909D01*
X1313188D02*
X1312813D01*
X1312813D02*
X1312438Y1071773D01*
X1312438D02*
X1312250Y1071636D01*
X1312063Y1071227*
X1312063D02*
Y1070000D01*
Y1070955D02*
X1310000Y1071909D01*
X1313938Y1073409D02*
Y1074909D01*
X1313938D02*
X1312438Y1074091D01*
X1312438D02*
Y1074500D01*
X1312438D02*
X1312250Y1074773D01*
X1312063Y1074909*
X1312063D02*
X1311500Y1075045D01*
X1311125*
X1310563Y1074909*
X1310563D02*
X1310188Y1074636D01*
X1310188D02*
X1310000Y1074227D01*
Y1073818*
X1310188Y1073409*
X1310188D02*
X1310375Y1073273D01*
X1310750Y1073136*
X1323938Y1070000D02*
X1320000D01*
X1323938D02*
Y1071227D01*
X1323938D02*
X1323750Y1071636D01*
X1323563Y1071773*
X1323563D02*
X1323188Y1071909D01*
X1323188D02*
X1322813D01*
X1322813D02*
X1322438Y1071773D01*
X1322438D02*
X1322250Y1071636D01*
X1322063Y1071227*
X1322063D02*
Y1070000D01*
Y1070955D02*
X1320000Y1071909D01*
X1323938Y1075045D02*
X1320000Y1073682D01*
X1323938Y1073136D02*
Y1075045D01*
X1333938Y1070000D02*
X1330000D01*
X1333938D02*
Y1071227D01*
X1333938D02*
X1333750Y1071636D01*
X1333563Y1071773*
X1333563D02*
X1333188Y1071909D01*
X1333188D02*
X1332813D01*
X1332813D02*
X1332438Y1071773D01*
X1332438D02*
X1332250Y1071636D01*
X1332063Y1071227*
X1332063D02*
Y1070000D01*
Y1070955D02*
X1330000Y1071909D01*
X1333938Y1073818D02*
X1333750Y1073409D01*
X1333375Y1073273*
X1333000*
X1332625Y1073409*
X1332438Y1073682*
X1332438D02*
X1332250Y1074227D01*
X1332063Y1074636*
X1332063D02*
X1331688Y1074909D01*
X1331688D02*
X1331313Y1075045D01*
X1331313D02*
X1330750D01*
X1330375Y1074909*
X1330188Y1074773*
X1330188D02*
X1330000Y1074364D01*
Y1073818*
X1330188Y1073409*
X1330188D02*
X1330375Y1073273D01*
X1330750Y1073136*
X1331313*
X1331313D02*
X1331688Y1073273D01*
X1331688D02*
X1332063Y1073545D01*
X1332063D02*
X1332250Y1073955D01*
X1332438Y1074500*
X1332438D02*
X1332625Y1074773D01*
X1333000Y1074909*
X1333375*
X1333750Y1074773*
X1333938Y1074364*
X1333938D02*
Y1073818D01*
G54D60*
G74*
X0Y0D02*
M02*
